<?xml version="1.0" encoding="utf-8"?>
<!-- Generator: Adobe Illustrator 23.0.1, SVG Export Plug-In . SVG Version: 6.00 Build 0)  -->
<svg version="1.1" id="Layer_1" xmlns="http://www.w3.org/2000/svg" xmlns:xlink="http://www.w3.org/1999/xlink" x="0px" y="0px"
	 viewBox="0 0 24 24" style="enable-background:new 0 0 24 24;" xml:space="preserve">
<style type="text/css">
	.st0{fill:url(#SVGID_1_);}
</style>
<g>
	<linearGradient id="SVGID_1_" gradientUnits="userSpaceOnUse" x1="11.9554" y1="1.0113" x2="12.4713" y2="24.0121">
		<stop  offset="0" style="stop-color:#FF512F"/>
		<stop  offset="1" style="stop-color:#F09819"/>
	</linearGradient>
	<path class="st0" d="M14,21.5c-0.1,0-0.2,0-0.2-0.1l-4-2c-0.2-0.1-0.3-0.3-0.3-0.4v-6.3L1.6,3.3C1.5,3.2,1.5,3,1.5,2.8
		S1.8,2.5,2,2.5h20c0.2,0,0.4,0.1,0.5,0.3s0.1,0.4-0.1,0.5l-7.9,9.4V21c0,0.2-0.1,0.3-0.2,0.4C14.2,21.5,14.1,21.5,14,21.5z
		 M10.5,18.7l3,1.5v-7.7c0-0.1,0-0.2,0.1-0.3l7.3-8.7H3.1l7.3,8.7c0.1,0.1,0.1,0.2,0.1,0.3V18.7z"/>
</g>
</svg>
