<svg id="Capa_1" data-name="Capa 1" xmlns="http://www.w3.org/2000/svg" width="487.57" height="512" viewBox="0 0 487.57 512"><title>attendence-request</title><path d="M211.67,316.2a71.4,71.4,0,0,0,22.12-51.68V225.41a48.19,48.19,0,0,0,9.86-29.25v-40.9a10,10,0,0,0-10-10H151.24a60.72,60.72,0,0,0-60.65,60.66v58.6A71.39,71.39,0,0,0,112.7,316.2,104.36,104.36,0,0,0,12.21,420.36V502a10,10,0,0,0,10,10h280a10,10,0,0,0,10-10V420.36A104.35,104.35,0,0,0,211.67,316.2ZM151.24,165.26h72.41v30.9a28.44,28.44,0,0,1-28.41,28.41H110.59V205.92h0A40.7,40.7,0,0,1,151.24,165.26Zm-40.65,99.26V244.57h84.65a48.16,48.16,0,0,0,18.55-3.7v23.65a51.6,51.6,0,1,1-103.2,0Zm92.16,71.61-39.1,66.26-39.09-66.26ZM292.16,492H269.65V422.06a10,10,0,0,0-20,0V492h-172V422.06a10,10,0,0,0-20,0V492H32.21V420.36a84.35,84.35,0,0,1,69.87-83l53,89.77a10,10,0,0,0,17.23,0L225,337.86a84.37,84.37,0,0,1,67.21,82.5V492Z" transform="translate(-12.21)" style="fill:#fff"/><path d="M449.79,0H393.24a10,10,0,0,0,0,20h56.55a30,30,0,0,1,30,30V184a30,30,0,0,1-30,30H413.33a10,10,0,0,0-7.07,2.93L359,264.12V224a10,10,0,0,0-10-10H263.79a10,10,0,0,0,0,20H339v54.28a10,10,0,0,0,17.07,7.07L417.47,234h32.32a50.06,50.06,0,0,0,50-50V50A50.06,50.06,0,0,0,449.79,0Z" transform="translate(-12.21)" style="fill:#fff"/><path d="M363.86,2.93A10,10,0,0,0,346.79,10a10,10,0,1,0,17.07-7.07Z" transform="translate(-12.21)" style="fill:#fff"/><path d="M320.24,0H263.79a50.06,50.06,0,0,0-50,50v55.48a10,10,0,0,0,20,0V50a30,30,0,0,1,30-30h56.45a10,10,0,0,0,0-20Z" transform="translate(-12.21)" style="fill:#fff"/><path d="M226.15,427.09h-14a10,10,0,0,0,0,20h14a10,10,0,1,0,0-20Z" transform="translate(-12.21)" style="fill:#fff"/><path d="M145.59,261.57a10,10,0,1,0,2.93,7.07A10.06,10.06,0,0,0,145.59,261.57Z" transform="translate(-12.21)" style="fill:#fff"/><path d="M192.93,261.57a10,10,0,1,0,2.93,7.07A10.08,10.08,0,0,0,192.93,261.57Z" transform="translate(-12.21)" style="fill:#fff"/><path d="M393.71,89.49a37.11,37.11,0,0,0-34.32-34.32A36.73,36.73,0,0,0,331.53,65,37.15,37.15,0,0,0,319.77,92.1a10,10,0,1,0,20,0,17,17,0,0,1,18.24-17,17,17,0,0,1,2.52,33.57,17.44,17.44,0,0,0-13.74,17.1v20.07a10,10,0,0,0,20,0V127.74A36.82,36.82,0,0,0,393.71,89.49Z" transform="translate(-12.21)" style="fill:#fff"/><path d="M363.86,171.84a10,10,0,1,0,2.93,7.08A10.07,10.07,0,0,0,363.86,171.84Z" transform="translate(-12.21)" style="fill:#fff"/></svg>