<svg id="Layer_1" data-name="Layer 1" xmlns="http://www.w3.org/2000/svg" xmlns:xlink="http://www.w3.org/1999/xlink" width="511.9" height="511.9" viewBox="0 0 511.9 511.9"><defs><linearGradient id="linear-gradient" x1="211.75" y1="518.95" x2="199.74" y2="-0.17" gradientTransform="matrix(1, 0, 0, -1, 0, 513)" gradientUnits="userSpaceOnUse"><stop offset="0" stop-color="#ff512f"/><stop offset="1" stop-color="#f09819"/></linearGradient><linearGradient id="linear-gradient-2" x1="191.55" y1="519.42" x2="179.55" y2="0.42" xlink:href="#linear-gradient"/><linearGradient id="linear-gradient-3" x1="164.29" y1="520.05" x2="152.29" y2="1.05" gradientTransform="matrix(1, 0, 0, -1, 0, 512.9)" xlink:href="#linear-gradient"/><linearGradient id="linear-gradient-4" x1="232.55" y1="518.47" x2="220.55" y2="-0.53" gradientTransform="matrix(1, 0, 0, -1, 0, 512.9)" xlink:href="#linear-gradient"/><linearGradient id="linear-gradient-5" x1="189.08" y1="519.48" x2="177.08" y2="0.48" gradientTransform="matrix(1, 0, 0, -1, 0, 512.9)" xlink:href="#linear-gradient"/><linearGradient id="linear-gradient-6" x1="358.71" y1="515.56" x2="346.71" y2="-3.44" xlink:href="#linear-gradient"/><linearGradient id="linear-gradient-7" x1="332.07" y1="516.17" x2="320.07" y2="-2.83" xlink:href="#linear-gradient"/></defs><title>audit</title><path d="M8.6,477.9H34.2v25.6a8.49,8.49,0,0,0,8.5,8.5H401.1a8.49,8.49,0,0,0,8.5-8.5V469.4H392.5V495H51.2V477.9H247.5V460.8H17.1V93.9H85.4a8.49,8.49,0,0,0,8.5-8.5V17.1H358.4V179.2h17.1V51.2h17.1V196.3h17.1V42.7a8.49,8.49,0,0,0-8.5-8.5H375.6V8.6A8.49,8.49,0,0,0,367.1.1H85.4c-.2,0-.3.1-.5.1a9.26,9.26,0,0,0-2.3.4,4.88,4.88,0,0,0-.7.3,8.52,8.52,0,0,0-2.5,1.7L2.5,79.4A8.52,8.52,0,0,0,.8,81.9c-.1.3-.2.5-.3.8a7.8,7.8,0,0,0-.4,2.2,4.33,4.33,0,0,0-.1.5V469.3a8.39,8.39,0,0,0,2.5,6A8.32,8.32,0,0,0,8.6,477.9ZM76.8,29.2V76.9H29.2Z" transform="translate(0 -0.1)" style="fill:url(#linear-gradient)"/><path d="M264.5,187.8v-8.5h68.3V136.6a25.64,25.64,0,0,0-23.3-25.5,17,17,0,0,0-2.3-.1H68.3a25.65,25.65,0,0,0-25.6,25.6v273a25.65,25.65,0,0,0,25.6,25.6h128V418.1H111V392.5h68.3V375.4H111V349.8h59.7V332.7H111V307.1h61.4V290H111V264.4h76.8V247.3H111V221.7H221.9V204.6H111V179H247.5v8.5h17Zm43.4-59.7a8.43,8.43,0,0,1,7.8,8.5v25.6H264.5V128h42.3C307.2,128,307.6,128.1,307.9,128.1ZM68.3,128H93.9v34.1H59.8V136.5A8.49,8.49,0,0,1,68.3,128ZM93.9,418.1H68.3a8.49,8.49,0,0,1-8.5-8.5V392.5H93.9Zm0-42.6H59.8V349.9H93.9Zm0-42.7H59.8V307.2H93.9Zm0-42.7H59.8V264.5H93.9Zm0-42.6H59.8V221.9H93.9Zm0-42.7H59.8V179.2H93.9ZM111,162.2V128H247.5v34.2Z" transform="translate(0 -0.1)" style="fill:url(#linear-gradient-2)"/><rect x="128" y="76.7" width="68.3" height="17.1" style="fill:url(#linear-gradient-3)"/><rect x="213.4" y="76.7" width="34.1" height="17.1" style="fill:url(#linear-gradient-4)"/><rect x="128" y="42.6" width="119.5" height="17.1" style="fill:url(#linear-gradient-5)"/><path d="M441.2,403.6l-1.1,1.1a137.19,137.19,0,1,0-35.2,38l61.5,61.5a26.66,26.66,0,1,0,37.7-37.7ZM204.8,332.8A119.5,119.5,0,1,1,324.3,452.3,119.5,119.5,0,0,1,204.8,332.8ZM485.4,494.9a9.7,9.7,0,0,1-6.8-2.8l-60.5-60.5a144.77,144.77,0,0,0,13-14.1l61,61a9.61,9.61,0,0,1-6.7,16.4Z" transform="translate(0 -0.1)" style="fill:url(#linear-gradient-6)"/><path d="M324.3,230.4A102.4,102.4,0,1,0,426.7,332.8,102.34,102.34,0,0,0,324.3,230.4ZM290.1,332.8a34.1,34.1,0,1,1,34.1,34.1A34.14,34.14,0,0,1,290.1,332.8Zm-9.9,26a104.36,104.36,0,0,1-38.6-25.9A102.38,102.38,0,0,1,280.2,307,50.64,50.64,0,0,0,280.2,358.8Zm88.1-51.9a104.36,104.36,0,0,1,38.6,25.9,102.38,102.38,0,0,1-38.6,25.9A50.18,50.18,0,0,0,368.3,306.9Zm-44-59.4a85.35,85.35,0,0,1,81.9,61.6,130.55,130.55,0,0,0-76.6-27.2,47,47,0,0,0-10.6,0,129.5,129.5,0,0,0-76.7,27.2A85.47,85.47,0,0,1,324.3,247.5Zm0,170.6a85.35,85.35,0,0,1-81.9-61.6A130.55,130.55,0,0,0,319,383.7a47,47,0,0,0,10.6,0,129.5,129.5,0,0,0,76.7-27.2A85.56,85.56,0,0,1,324.3,418.1Z" transform="translate(0 -0.1)" style="fill:url(#linear-gradient-7)"/><circle cx="324.3" cy="332.7" r="17.1" style="fill:url(#linear-gradient-7)"/></svg>