<?xml version="1.0" encoding="utf-8"?>
<!-- Generator: Adobe Illustrator 23.0.1, SVG Export Plug-In . SVG Version: 6.00 Build 0)  -->
<svg version="1.1" id="Layer_1" xmlns="http://www.w3.org/2000/svg" xmlns:xlink="http://www.w3.org/1999/xlink" x="0px" y="0px"
	 viewBox="0 0 1000 1000" style="enable-background:new 0 0 1000 1000;" xml:space="preserve">
<style type="text/css">
	.st0{display:none;}
	.st1{fill:#F26522;}
	.st2{fill:#F26522;stroke:#FFFFFF;stroke-width:7;stroke-miterlimit:10;}
	.st3{fill:#141ACC;stroke:#FFFFFF;stroke-width:7;stroke-miterlimit:10;}
	.st4{fill:none;stroke:#F26522;stroke-width:30;stroke-linecap:round;stroke-linejoin:round;stroke-miterlimit:10;}
</style>
<g class="st0">
	
		<image style="display:inline;overflow:visible;enable-background:new    ;" width="1000" height="1000" xlink:href="DDD98F4F.png"  transform="matrix(1 0 0 1 0 2.987)">
	</image>
</g>
<path class="st1" d="M346.1,678.9h53.7c0,0,20.7,3.4,24.1,25.3v205.2c0,0-2.7,18.7-23.7,24.5s-207.1,0.4-207.1,0.4
	s-19.5-1.6-25.3-27.6c-5.8-26.1,0.4-198.9,0.4-198.9s2.7-24.1,24.9-28.8h153V678.9z"/>
<circle class="st2" cx="296.1" cy="707.2" r="49.6"/>
<path class="st1" d="M424.2,588.6v53.7c0,0-3.4,20.7-25.3,24.1H193.7c0,0-18.7-2.7-24.5-23.7s-0.4-207.1-0.4-207.1
	s1.6-19.5,27.6-25.3c26.1-5.8,198.9,0.4,198.9,0.4s24.1,2.7,28.8,24.9L424.2,588.6L424.2,588.6z"/>
<circle class="st2" cx="395.9" cy="538.7" r="49.6"/>
<path class="st1" d="M514.5,666.8h-53.7c0,0-20.7-3.4-24.1-25.3V436.3c0,0,2.7-18.7,23.7-24.5s207.1-0.4,207.1-0.4
	S687,413,692.8,439s-0.5,199-0.5,199s-2.7,24.1-24.9,28.8H514.5z"/>
<circle class="st3" cx="563.2" cy="637.3" r="49.6"/>
<circle class="st2" cx="563.2" cy="638.5" r="49.6"/>
<g>
	<path class="st1" d="M435.1,757v-53.7c0,0,3.4-20.7,25.3-24.1h205.2c0,0,18.7,2.7,24.5,23.7s0.4,207.1,0.4,207.1
		s-1.6,19.5-27.6,25.3S464,934.9,464,934.9s-24.1-2.7-28.8-24.9V757H435.1z"/>
	<path class="st1" d="M435.5,757v-53.7c0,0,3.4-20.7,25.3-24.1H666c0,0,18.7,2.7,24.5,23.7s0.4,207.1,0.4,207.1s-1.6,19.5-27.6,25.3
		s-198.9-0.4-198.9-0.4s-24.1-2.7-28.8-24.9V757H435.5z"/>
</g>
<path class="st2" d="M464.6,856.6c-14.2,0-27-6-36.1-15.5c-8.4-8.9-13.6-20.9-13.6-34.1c0-14.2,5.9-26.9,15.4-36
	c8.9-8.5,20.9-13.7,34.2-13.7c27.4,0,49.6,22.2,49.6,49.6S492,856.6,464.6,856.6z"/>
<rect x="398.5" y="750.8" class="st1" width="25.7" height="129.2"/>
<path class="st4" d="M192.9,648.5c0,0-190.9-40.3-171.7-217.2s189.2-173.4,210.2-154.1c0,0,47.2-137.9,182.2-73.6
	c0,0,61.2-150.8,211.9-112.1c0,0,137.7,33.7,138.4,176.9c0,0,159.4-31.5,215.4,152.4c0,0,45.5,205.4-192.7,226"/>
</svg>
