<svg id="Layer_1" data-name="Layer 1" xmlns="http://www.w3.org/2000/svg" width="1024.5" height="576" viewBox="0 0 1024.5 576"><title>back-pattern-gray</title><circle cx="816.5" cy="34" r="6" style="fill:none;stroke:#ddd;stroke-miterlimit:10"/><circle cx="841" cy="34" r="6" style="fill:none;stroke:#ddd;stroke-miterlimit:10"/><circle cx="865.5" cy="34" r="6" style="fill:none;stroke:#ddd;stroke-miterlimit:10"/><circle cx="890" cy="34" r="6" style="fill:none;stroke:#ddd;stroke-miterlimit:10"/><circle cx="914.5" cy="34" r="6" style="fill:none;stroke:#ddd;stroke-miterlimit:10"/><circle cx="939" cy="34" r="6" style="fill:none;stroke:#ddd;stroke-miterlimit:10"/><circle cx="963.5" cy="34" r="6" style="fill:none;stroke:#ddd;stroke-miterlimit:10"/><circle cx="816.5" cy="53" r="6" style="fill:none;stroke:#ddd;stroke-miterlimit:10"/><circle cx="841" cy="53" r="6" style="fill:none;stroke:#ddd;stroke-miterlimit:10"/><circle cx="865.5" cy="53" r="6" style="fill:none;stroke:#ddd;stroke-miterlimit:10"/><circle cx="890" cy="53" r="6" style="fill:none;stroke:#ddd;stroke-miterlimit:10"/><circle cx="914.5" cy="53" r="6" style="fill:none;stroke:#ddd;stroke-miterlimit:10"/><circle cx="939" cy="53" r="6" style="fill:none;stroke:#ddd;stroke-miterlimit:10"/><circle cx="963.5" cy="53" r="6" style="fill:none;stroke:#ddd;stroke-miterlimit:10"/><circle cx="816.5" cy="72" r="6" style="fill:none;stroke:#ddd;stroke-miterlimit:10"/><circle cx="841" cy="72" r="6" style="fill:none;stroke:#ddd;stroke-miterlimit:10"/><circle cx="865.5" cy="72" r="6" style="fill:none;stroke:#ddd;stroke-miterlimit:10"/><circle cx="890" cy="72" r="6" style="fill:none;stroke:#ddd;stroke-miterlimit:10"/><circle cx="914.5" cy="72" r="6" style="fill:none;stroke:#ddd;stroke-miterlimit:10"/><circle cx="939" cy="72" r="6" style="fill:none;stroke:#ddd;stroke-miterlimit:10"/><circle cx="963.5" cy="72" r="6" style="fill:none;stroke:#ddd;stroke-miterlimit:10"/><circle cx="25" cy="561.5" r="6" style="fill:none;stroke:#ddd;stroke-miterlimit:10"/><circle cx="25" cy="537" r="6" style="fill:none;stroke:#ddd;stroke-miterlimit:10"/><circle cx="25" cy="512.5" r="6" style="fill:none;stroke:#ddd;stroke-miterlimit:10"/><circle cx="25" cy="488" r="6" style="fill:none;stroke:#ddd;stroke-miterlimit:10"/><circle cx="25" cy="463.5" r="6" style="fill:none;stroke:#ddd;stroke-miterlimit:10"/><circle cx="25" cy="439" r="6" style="fill:none;stroke:#ddd;stroke-miterlimit:10"/><circle cx="25" cy="414.5" r="6" style="fill:none;stroke:#ddd;stroke-miterlimit:10"/><circle cx="44" cy="561.5" r="6" style="fill:none;stroke:#ddd;stroke-miterlimit:10"/><circle cx="44" cy="537" r="6" style="fill:none;stroke:#ddd;stroke-miterlimit:10"/><circle cx="44" cy="512.5" r="6" style="fill:none;stroke:#ddd;stroke-miterlimit:10"/><circle cx="44" cy="488" r="6" style="fill:none;stroke:#ddd;stroke-miterlimit:10"/><circle cx="44" cy="463.5" r="6" style="fill:none;stroke:#ddd;stroke-miterlimit:10"/><circle cx="44" cy="439" r="6" style="fill:none;stroke:#ddd;stroke-miterlimit:10"/><circle cx="44" cy="414.5" r="6" style="fill:none;stroke:#ddd;stroke-miterlimit:10"/><circle cx="63" cy="561.5" r="6" style="fill:none;stroke:#ddd;stroke-miterlimit:10"/><circle cx="63" cy="537" r="6" style="fill:none;stroke:#ddd;stroke-miterlimit:10"/><circle cx="63" cy="512.5" r="6" style="fill:none;stroke:#ddd;stroke-miterlimit:10"/><circle cx="63" cy="488" r="6" style="fill:none;stroke:#ddd;stroke-miterlimit:10"/><circle cx="63" cy="463.5" r="6" style="fill:none;stroke:#ddd;stroke-miterlimit:10"/><circle cx="63" cy="439" r="6" style="fill:none;stroke:#ddd;stroke-miterlimit:10"/><circle cx="63" cy="414.5" r="6" style="fill:none;stroke:#ddd;stroke-miterlimit:10"/><path d="M851.5,120.27a12.27,12.27,0,1,1,24.54,0" transform="translate(0.5 0.5)" style="fill:none;stroke:#ddd;stroke-miterlimit:10"/><path d="M900.58,120.27a12.27,12.27,0,1,1,24.54,0" transform="translate(0.5 0.5)" style="fill:none;stroke:#ddd;stroke-miterlimit:10"/><path d="M949.66,120.27a12.27,12.27,0,0,1,24.54,0" transform="translate(0.5 0.5)" style="fill:none;stroke:#ddd;stroke-miterlimit:10"/><path d="M998.73,120.27a12.27,12.27,0,1,1,24.54,0" transform="translate(0.5 0.5)" style="fill:none;stroke:#ddd;stroke-miterlimit:10"/><path d="M900.58,182.23a12.27,12.27,0,0,1-24.54,0" transform="translate(0.5 0.5)" style="fill:none;stroke:#ddd;stroke-miterlimit:10"/><path d="M949.66,182.23a12.27,12.27,0,1,1-24.54,0" transform="translate(0.5 0.5)" style="fill:none;stroke:#ddd;stroke-miterlimit:10"/><path d="M998.73,182.23a12.27,12.27,0,1,1-24.53,0" transform="translate(0.5 0.5)" style="fill:none;stroke:#ddd;stroke-miterlimit:10"/><line x1="852" y1="120.62" x2="852" y2="183.19" style="fill:none;stroke:#ddd;stroke-miterlimit:10"/><line x1="876.54" y1="120.62" x2="876.54" y2="183.19" style="fill:none;stroke:#ddd;stroke-miterlimit:10"/><line x1="901.08" y1="120.62" x2="901.08" y2="183.19" style="fill:none;stroke:#ddd;stroke-miterlimit:10"/><line x1="925.62" y1="120.62" x2="925.62" y2="183.19" style="fill:none;stroke:#ddd;stroke-miterlimit:10"/><line x1="950.16" y1="120.62" x2="950.16" y2="183.19" style="fill:none;stroke:#ddd;stroke-miterlimit:10"/><line x1="974.7" y1="120.62" x2="974.7" y2="183.19" style="fill:none;stroke:#ddd;stroke-miterlimit:10"/><line x1="999.23" y1="120.62" x2="999.23" y2="183.19" style="fill:none;stroke:#ddd;stroke-miterlimit:10"/><line x1="1023.77" y1="120.62" x2="1023.77" y2="183.19" style="fill:none;stroke:#ddd;stroke-miterlimit:10"/><path d="M.58,37.27a12.27,12.27,0,0,1,24.54,0" transform="translate(0.5 0.5)" style="fill:none;stroke:#ddd;stroke-miterlimit:10"/><path d="M49.66,37.27a12.27,12.27,0,0,1,24.54,0" transform="translate(0.5 0.5)" style="fill:none;stroke:#ddd;stroke-miterlimit:10"/><path d="M98.73,37.27a12.27,12.27,0,1,1,24.54,0" transform="translate(0.5 0.5)" style="fill:none;stroke:#ddd;stroke-miterlimit:10"/><path d="M49.66,99.23a12.27,12.27,0,0,1-24.54,0" transform="translate(0.5 0.5)" style="fill:none;stroke:#ddd;stroke-miterlimit:10"/><path d="M98.73,99.23a12.27,12.27,0,1,1-24.53,0" transform="translate(0.5 0.5)" style="fill:none;stroke:#ddd;stroke-miterlimit:10"/><line x1="1.08" y1="37.62" x2="1.08" y2="100.19" style="fill:none;stroke:#ddd;stroke-miterlimit:10"/><line x1="25.62" y1="37.62" x2="25.62" y2="100.19" style="fill:none;stroke:#ddd;stroke-miterlimit:10"/><line x1="50.16" y1="37.62" x2="50.16" y2="100.19" style="fill:none;stroke:#ddd;stroke-miterlimit:10"/><line x1="74.7" y1="37.62" x2="74.7" y2="100.19" style="fill:none;stroke:#ddd;stroke-miterlimit:10"/><line x1="99.23" y1="37.62" x2="99.23" y2="100.19" style="fill:none;stroke:#ddd;stroke-miterlimit:10"/><line x1="123.77" y1="37.62" x2="123.77" y2="100.19" style="fill:none;stroke:#ddd;stroke-miterlimit:10"/><path d="M0,213.5v24A58.5,58.5,0,0,1,58.5,296h24A82.5,82.5,0,0,0,0,213.5Z" transform="translate(0.5 0.5)" style="fill:#ddd"/><path d="M1024,338.5v-24A82.5,82.5,0,0,0,941.5,397h24A58.5,58.5,0,0,1,1024,338.5Z" transform="translate(0.5 0.5)" style="fill:#ddd"/><path d="M965.5,397h-24a82.5,82.5,0,0,0,82.5,82.5v-24A58.5,58.5,0,0,1,965.5,397Z" transform="translate(0.5 0.5)" style="fill:#ddd"/><polygon points="131.43 537.5 121.04 543.5 121.04 531.5 131.43 537.5" style="fill:#ddd"/><polygon points="148.43 537.5 138.04 543.5 138.04 531.5 148.43 537.5" style="fill:#ddd"/><polygon points="165.43 537.5 155.04 543.5 155.04 531.5 165.43 537.5" style="fill:#ddd"/><polygon points="182.43 537.5 172.04 543.5 172.04 531.5 182.43 537.5" style="fill:#ddd"/><polygon points="199.43 537.5 189.04 543.5 189.04 531.5 199.43 537.5" style="fill:#ddd"/><polygon points="216.43 537.5 206.04 543.5 206.04 531.5 216.43 537.5" style="fill:#ddd"/><polygon points="233.43 537.5 223.04 543.5 223.04 531.5 233.43 537.5" style="fill:#ddd"/><rect width="1024" height="576" style="fill:none"/></svg>