<svg id="Layer_1" data-name="Layer 1" xmlns="http://www.w3.org/2000/svg" xmlns:xlink="http://www.w3.org/1999/xlink" width="49.84" height="49.99" viewBox="0 0 49.84 49.99"><defs><linearGradient id="linear-gradient" x1="25.7" y1="-0.91" x2="24.7" y2="53.16" gradientTransform="matrix(1, 0, 0, -1, 0, 51)" gradientUnits="userSpaceOnUse"><stop offset="0" stop-color="#ff512f"/><stop offset="1" stop-color="#f09819"/></linearGradient></defs><title>clock-green</title><path d="M48.5,16.7a2,2,0,0,0-2.6-1.1,2,2,0,0,0-1.2,2.5A20.39,20.39,0,0,1,32.9,44.5a21.1,21.1,0,0,1-16-.2A21.35,21.35,0,0,1,12.7,42a20.1,20.1,0,0,1-7-9,20.16,20.16,0,0,1,.2-15.8,20.38,20.38,0,0,1,11.5-11,21,21,0,0,1,15.4-.1L31.4,8.5c-.4.6-.1,1.1.7,1l6.8-1.1a1,1,0,0,0,.9-1.5L37.5.5c-.3-.7-.8-.8-1.2-.1L34.9,2.7A25.22,25.22,0,0,0,16,2.5,24.48,24.48,0,0,0,2.3,15.6a24.06,24.06,0,0,0-.2,18.8,25.31,25.31,0,0,0,8.4,10.7,26.88,26.88,0,0,0,5,2.8,24.8,24.8,0,0,0,19.1.2A24.48,24.48,0,0,0,48.3,35a25.12,25.12,0,0,0,.2-18.3ZM24.2,9.6a1.58,1.58,0,0,0-1.6,1.6h0V27.1l14.8,7.5a1.85,1.85,0,0,0,.7.2,1.42,1.42,0,0,0,1.4-.9,1.64,1.64,0,0,0-.7-2.2L25.7,25.1v-14a1.42,1.42,0,0,0-1.5-1.5Z" transform="translate(-0.29 0.08)" style="fill:url(#linear-gradient)"/></svg>