<svg id="Layer_1" data-name="Layer 1" xmlns="http://www.w3.org/2000/svg" xmlns:xlink="http://www.w3.org/1999/xlink" width="480" height="480" viewBox="0 0 480 480"><defs><linearGradient id="linear-gradient" x1="253.71" y1="516.34" x2="264.71" y2="1.34" gradientTransform="matrix(1, 0, 0, -1, -16, 497)" gradientUnits="userSpaceOnUse"><stop offset="0" stop-color="#ff512f"/><stop offset="1" stop-color="#f09819"/></linearGradient><linearGradient id="linear-gradient-2" x1="253.02" y1="516.32" x2="264.02" y2="1.32" xlink:href="#linear-gradient"/><linearGradient id="linear-gradient-3" x1="247.39" y1="516.2" x2="258.39" y2="1.2" gradientTransform="matrix(1, 0, 0, -1, 0, 513)" xlink:href="#linear-gradient"/><linearGradient id="linear-gradient-4" x1="230.4" y1="515.84" x2="241.4" y2="0.84" xlink:href="#linear-gradient"/><linearGradient id="linear-gradient-5" x1="109.79" y1="513.26" x2="120.79" y2="-1.74" gradientTransform="matrix(1, 0, 0, -1, 0, 513)" xlink:href="#linear-gradient"/><linearGradient id="linear-gradient-6" x1="85.78" y1="512.75" x2="96.78" y2="-2.25" xlink:href="#linear-gradient"/><linearGradient id="linear-gradient-7" x1="85.1" y1="512.73" x2="96.1" y2="-2.27" xlink:href="#linear-gradient"/><linearGradient id="linear-gradient-8" x1="84.42" y1="512.72" x2="95.42" y2="-2.28" xlink:href="#linear-gradient"/><linearGradient id="linear-gradient-9" x1="62.48" y1="512.25" x2="73.48" y2="-2.75" xlink:href="#linear-gradient"/><linearGradient id="linear-gradient-10" x1="393.33" y1="519.32" x2="404.33" y2="4.32" gradientTransform="matrix(1, 0, 0, -1, 0, 513)" xlink:href="#linear-gradient"/><linearGradient id="linear-gradient-11" x1="421.63" y1="519.92" x2="432.63" y2="4.92" xlink:href="#linear-gradient"/><linearGradient id="linear-gradient-12" x1="420.95" y1="519.91" x2="431.95" y2="4.91" xlink:href="#linear-gradient"/><linearGradient id="linear-gradient-13" x1="420.26" y1="519.89" x2="431.26" y2="4.89" xlink:href="#linear-gradient"/><linearGradient id="linear-gradient-14" x1="398.32" y1="519.42" x2="409.32" y2="4.42" xlink:href="#linear-gradient"/><linearGradient id="linear-gradient-15" x1="220.36" y1="515.62" x2="231.36" y2="0.62" xlink:href="#linear-gradient"/><linearGradient id="linear-gradient-16" x1="252.34" y1="516.31" x2="263.34" y2="1.31" xlink:href="#linear-gradient"/><linearGradient id="linear-gradient-17" x1="284.33" y1="516.99" x2="295.33" y2="1.99" xlink:href="#linear-gradient"/></defs><title>data-collection</title><rect x="200" y="80" width="80" height="16" style="fill:url(#linear-gradient)"/><rect x="200" y="112" width="80" height="16" style="fill:url(#linear-gradient-2)"/><path d="M456,432V368a7.92,7.92,0,0,0-5.8-7.7L264,306V208h56a8,8,0,0,0,8-8V72a8.1,8.1,0,0,0-2.3-5.7l-48-48A7.93,7.93,0,0,0,272,16H192a8,8,0,0,0-8,8V200a8,8,0,0,0,8,8h56v98L61.8,360.3A8,8,0,0,0,56,368v64a7.92,7.92,0,0,0,5.8,7.7l192,56a8.22,8.22,0,0,0,4.4,0l192-56A7.92,7.92,0,0,0,456,432ZM280,43.3,300.7,64H280ZM200,32h64V72a8,8,0,0,0,8,8h40V192H200Zm48,290.7v42l-18.3-18.3-11.3,11.3,32,32a7.85,7.85,0,0,0,5.7,2.3,8.46,8.46,0,0,0,5.7-2.3l32-32-11.3-11.3L264,364.7v-42L419.4,368,256,415.7,92.6,368Zm-176,56L248,430v47.3L72,426Zm192,98.6V430l176-51.3V426Z" transform="translate(-16 -16)" style="fill:url(#linear-gradient-3)"/><rect x="200" y="48" width="32" height="16" style="fill:url(#linear-gradient-4)"/><path d="M24,208H80a40,40,0,0,0,40,40h24a24.07,24.07,0,0,1,24,24v12.7l-18.3-18.3-11.3,11.3,32,32a7.85,7.85,0,0,0,5.7,2.3,8.27,8.27,0,0,0,5.7-2.3l32-32-11.3-11.3L184,284.7V272a40,40,0,0,0-40-40H120a24.07,24.07,0,0,1-24-24h56a8,8,0,0,0,8-8V72a8.1,8.1,0,0,0-2.3-5.7l-48-48A7.93,7.93,0,0,0,104,16H24a8,8,0,0,0-8,8V200a8,8,0,0,0,8,8ZM112,43.3,132.7,64H112ZM32,32H96V72a8,8,0,0,0,8,8h40V192H32Z" transform="translate(-16 -16)" style="fill:url(#linear-gradient-5)"/><rect x="32" y="80" width="80" height="16" style="fill:url(#linear-gradient-6)"/><rect x="32" y="112" width="80" height="16" style="fill:url(#linear-gradient-7)"/><rect x="32" y="144" width="80" height="16" style="fill:url(#linear-gradient-8)"/><rect x="32" y="48" width="32" height="16" style="fill:url(#linear-gradient-9)"/><path d="M496,200V72a8.1,8.1,0,0,0-2.3-5.7l-48-48A7.93,7.93,0,0,0,440,16H360a8,8,0,0,0-8,8V200a8,8,0,0,0,8,8h56a24.07,24.07,0,0,1-24,24H368a40,40,0,0,0-40,40v12.7l-18.3-18.3-11.3,11.3,32,32a7.85,7.85,0,0,0,5.7,2.3,8.27,8.27,0,0,0,5.7-2.3l32-32-11.3-11.3L344,284.7V272a24.07,24.07,0,0,1,24-24h24a40,40,0,0,0,40-40h56A8,8,0,0,0,496,200ZM448,43.3,468.7,64H448ZM368,192V32h64V72a8,8,0,0,0,8,8h40V192Z" transform="translate(-16 -16)" style="fill:url(#linear-gradient-10)"/><rect x="368" y="80" width="80" height="16" style="fill:url(#linear-gradient-11)"/><rect x="368" y="112" width="80" height="16" style="fill:url(#linear-gradient-12)"/><rect x="368" y="144" width="80" height="16" style="fill:url(#linear-gradient-13)"/><rect x="368" y="48" width="32" height="16" style="fill:url(#linear-gradient-14)"/><rect x="200" y="144" width="16" height="16" style="fill:url(#linear-gradient-15)"/><rect x="232" y="144" width="16" height="16" style="fill:url(#linear-gradient-16)"/><rect x="264" y="144" width="16" height="16" style="fill:url(#linear-gradient-17)"/></svg>