<svg id="Capa_1" data-name="Capa 1" xmlns="http://www.w3.org/2000/svg" width="60" height="59.75" viewBox="0 0 60 59.75"><title>database</title><path d="M10.5,6.13a4.5,4.5,0,1,0,4.5,4.5A4.5,4.5,0,0,0,10.5,6.13Zm0,7a2.5,2.5,0,1,1,2.5-2.5A2.51,2.51,0,0,1,10.5,13.13Z" transform="translate(0 -0.13)"/><circle cx="50" cy="9" r="1"/><circle cx="46" cy="9" r="1"/><circle cx="52" cy="12" r="1"/><circle cx="48" cy="12" r="1"/><circle cx="42" cy="9" r="1"/><circle cx="44" cy="12" r="1"/><circle cx="38" cy="9" r="1"/><circle cx="40" cy="12" r="1"/><circle cx="34" cy="9" r="1"/><circle cx="36" cy="12" r="1"/><path d="M10.5,25.13a4.5,4.5,0,1,0,4.5,4.5A4.5,4.5,0,0,0,10.5,25.13Zm0,7a2.5,2.5,0,1,1,2.5-2.5A2.51,2.51,0,0,1,10.5,32.13Z" transform="translate(0 -0.13)"/><path d="M10.5,44.13a4.5,4.5,0,1,0,4.5,4.5A4.5,4.5,0,0,0,10.5,44.13Zm0,7a2.5,2.5,0,1,1,2.5-2.5A2.51,2.51,0,0,1,10.5,51.13Z" transform="translate(0 -0.13)"/><path d="M60,16.52V4.73A4.61,4.61,0,0,0,55.39.13H4.61A4.61,4.61,0,0,0,0,4.73V16.52a4.56,4.56,0,0,0,1.78,3.6A4.58,4.58,0,0,0,0,23.73V35.52a4.54,4.54,0,0,0,1.78,3.6A4.58,4.58,0,0,0,0,42.73V54.52a4.61,4.61,0,0,0,4.61,4.6H32.48a47.38,47.38,0,0,0,8.52.75c8.67,0,17.82-2.24,18.9-6.55a1.05,1.05,0,0,0,.1-.44V25.13a1,1,0,0,0-.1-.42c-.34-1.47-1.64-2.7-3.56-3.69A4.61,4.61,0,0,0,60,16.52Zm-58,19V23.73a2.61,2.61,0,0,1,2.61-2.6H25.47c-1.81,1-3,2.16-3.37,3.58a1,1,0,0,0-.1.42v13H4.61A2.61,2.61,0,0,1,2,35.52Zm22.63-6.14.13.09.55.32.17.09q.35.2.72.36l.13.06.68.29.21.09.84.31.05,0,.86.27.23.07c.29.08.58.17.88.24l.07,0c.32.09.65.16,1,.24l.25,0,.87.18.17,0c.34.07.69.13,1,.18l.25,0,.88.13.25,0,1.08.13.22,0,.92.08.27,0,1.11.07h.16l1,0h.3l1.12,0,1.12,0h.29c.33,0,.65,0,1,0h.16l1.1-.07.28,0,.92-.08.22,0,1.08-.13.24,0,.88-.13.25,0c.35,0,.7-.11,1-.18l.18,0,.86-.18.26,0c.33-.08.66-.15,1-.24l.07,0c.3-.07.59-.16.88-.24l.24-.07.85-.27,0,0,.85-.31.21-.09.68-.29.12-.06c.25-.11.49-.23.73-.36l.16-.09c.19-.1.37-.21.55-.32l.14-.09c.21-.13.4-.27.59-.41l0,0v5a.82.82,0,0,0,0,.35,1.64,1.64,0,0,1,0,.22,1.28,1.28,0,0,1-.06.33,2,2,0,0,1-.08.26,1.27,1.27,0,0,1-.12.23l-.14.22a3.82,3.82,0,0,1-.27.32l-.11.12C55.1,38,48.86,39.87,41,39.87S26.91,38,24.78,36l-.12-.13a3.31,3.31,0,0,1-.25-.3,1.58,1.58,0,0,1-.15-.24,1.06,1.06,0,0,1-.11-.21,1.43,1.43,0,0,1-.09-.27A1.28,1.28,0,0,1,24,34.5a1.49,1.49,0,0,1,0-.21,1,1,0,0,0,0-.39v-5l0,0A5.19,5.19,0,0,0,24.63,29.38ZM57.86,44.09l-.12.23-.14.22a3.82,3.82,0,0,1-.27.32l-.11.12C55.1,47,48.86,48.87,41,48.87S26.9,47,24.78,45l-.12-.13a3.31,3.31,0,0,1-.25-.3l-.16-.24-.11-.21a2.76,2.76,0,0,1-.08-.27,1,1,0,0,1,0-.29v-.12a.57.57,0,0,1,0-.13A1.13,1.13,0,0,0,24,43V37.94l.13.09.39.28.34.21.55.33h0a25.87,25.87,0,0,0,8.12,2.46h.07c1,.16,2.08.28,3.15.37l.68.06.67,0,.9,0,.53,0,1.46,0,1.46,0,.53,0,.9,0,.67,0,.67-.06c1.08-.09,2.14-.21,3.17-.37h.05a24.29,24.29,0,0,0,8.68-2.78l.34-.22.39-.27.14-.1v5a1,1,0,0,0,0,.35,1.64,1.64,0,0,1,0,.22,1.28,1.28,0,0,1-.06.33A2,2,0,0,1,57.86,44.09Zm-53.25,13A2.61,2.61,0,0,1,2,54.52V42.73a2.61,2.61,0,0,1,2.61-2.6H22V53.88h.3l.05.11.12.22c.08.14.17.29.27.44l.34.42.19.21a8.8,8.8,0,0,0,1.38,1.11l.05,0c.39.25.8.48,1.25.71ZM58,52.62s0,.06,0,.09c-.41,2.5-7.33,5.17-17,5.17a45.37,45.37,0,0,1-8.28-.73h0c-5-.94-7.72-2.53-8.49-3.87h0a1.51,1.51,0,0,1-.09-.18,1.86,1.86,0,0,1-.12-.38V47l.12.08.39.28.34.21.55.33h0a25.87,25.87,0,0,0,8.12,2.46h.07c1,.16,2.08.28,3.14.37l.69.06.67,0,.9,0,.53,0c.49,0,1,0,1.46,0s1,0,1.45,0l.54,0,.9,0,.67,0,.67-.06c1.08-.09,2.14-.21,3.17-.37h.05a24.29,24.29,0,0,0,8.68-2.78l.34-.21.39-.28a1.21,1.21,0,0,0,.14-.1ZM58,25.5c0,2.54-7.27,5.38-17,5.38S24,28,24,25.5a1.34,1.34,0,0,1,.07-.39,1.65,1.65,0,0,1,.17-.39v0a5.32,5.32,0,0,1,2-1.73l.13-.08.56-.28c.23-.11.47-.22.72-.32l.15-.06A26.55,26.55,0,0,1,32,21l1.51-.29.41-.07a48.83,48.83,0,0,1,14.18,0l.41.07c.52.09,1,.19,1.5.29C54.88,22.06,58,23.84,58,25.5Zm0-9a2.62,2.62,0,0,1-2.61,2.61H50.76l-.18,0c-.65-.14-1.33-.27-2-.38l-.2,0a49.52,49.52,0,0,0-14.72,0l-.2,0c-.69.11-1.37.24-2,.38l-.18,0H4.61A2.6,2.6,0,0,1,2,16.52V4.73A2.61,2.61,0,0,1,4.61,2.12H55.39A2.62,2.62,0,0,1,58,4.73Z" transform="translate(0 -0.13)"/></svg>