<?xml version="1.0" encoding="utf-8"?>
<!-- Generator: Adobe Illustrator 23.0.1, SVG Export Plug-In . SVG Version: 6.00 Build 0)  -->
<svg version="1.1" id="Layer_1" xmlns="http://www.w3.org/2000/svg" xmlns:xlink="http://www.w3.org/1999/xlink" x="0px" y="0px"
	 viewBox="0 0 32 32" style="enable-background:new 0 0 32 32;" xml:space="preserve">
<style type="text/css">
	.st0{fill:url(#SVGID_1_);}
	.st1{display:none;}
	.st2{display:inline;fill:url(#SVGID_2_);}
	.st3{display:inline;fill:url(#SVGID_3_);}
	.st4{fill:url(#SVGID_4_);}
	.st5{fill:url(#SVGID_5_);}
	.st6{fill:url(#SVGID_6_);}
	.st7{fill:url(#SVGID_7_);}
	.st8{display:none;enable-background:new    ;}
	.st9{font-family:'Arial-BoldMT';}
	.st10{font-size:0.8619px;}
	.st11{fill:url(#SVGID_8_);}
</style>
<title>Artboard 12</title>
<g>
	<linearGradient id="SVGID_1_" gradientUnits="userSpaceOnUse" x1="15.1771" y1="-5.041615e-02" x2="15.4875" y2="31.553">
		<stop  offset="0" style="stop-color:#FF512F"/>
		<stop  offset="1" style="stop-color:#F09819"/>
	</linearGradient>
	<path class="st0" d="M18.4,26.8H5.3V2.1h13.9v5.4c0,0.5,0.3,0.8,0.8,0.8l0,0h5.4v11.6c0,0.5,0.3,0.8,0.8,0.8s0.8-0.3,0.8-0.8V7.5
		c0-0.2-0.1-0.4-0.3-0.5l-6.2-6.2c-0.1-0.1-0.3-0.3-0.5-0.3H4.5C4,0.5,3.7,0.8,3.7,1.3l0,0v26.3c0,0.5,0.3,0.8,0.8,0.8l0,0h13.9
		c0.5,0,0.8-0.3,0.8-0.8S18.8,26.8,18.4,26.8z M20.7,3.2l3.6,3.6h-3.6V3.2z"/>
</g>
<g class="st1">
	<linearGradient id="SVGID_2_" gradientUnits="userSpaceOnUse" x1="22.2" y1="26.2" x2="27" y2="26.2">
		<stop  offset="0" style="stop-color:#FF512F"/>
		<stop  offset="1" style="stop-color:#F09819"/>
	</linearGradient>
	<path class="st2" d="M26.2,25.3h-0.8v-0.7c0-0.5-0.3-0.8-0.8-0.8s-0.8,0.3-0.8,0.8v0.8H23c-0.5,0-0.8,0.3-0.8,0.8S22.5,27,23,27
		h0.8v0.8c0,0.5,0.3,0.8,0.8,0.8s0.8-0.3,0.8-0.8V27h0.8c0.5,0,0.8-0.3,0.8-0.8C27,25.7,26.7,25.3,26.2,25.3z"/>
</g>
<g class="st1">
	<linearGradient id="SVGID_3_" gradientUnits="userSpaceOnUse" x1="19.3" y1="26.1" x2="30.1" y2="26.1">
		<stop  offset="0" style="stop-color:#FF512F"/>
		<stop  offset="1" style="stop-color:#F09819"/>
	</linearGradient>
	<path class="st3" d="M24.7,20.7c-3,0-5.4,2.5-5.4,5.4s2.5,5.4,5.4,5.4s5.4-2.5,5.4-5.4C30.1,23.1,27.7,20.7,24.7,20.7z M24.7,30
		c-2.1,0-3.9-1.7-3.9-3.9s1.7-3.9,3.9-3.9s3.9,1.7,3.9,3.9S26.8,30,24.7,30z"/>
</g>
<g>
	<linearGradient id="SVGID_4_" gradientUnits="userSpaceOnUse" x1="12.1761" y1="-2.094639e-02" x2="12.4865" y2="31.5825">
		<stop  offset="0" style="stop-color:#FF512F"/>
		<stop  offset="1" style="stop-color:#F09819"/>
	</linearGradient>
	<path class="st4" d="M9.2,8.3h6.1c0.5,0,0.8-0.3,0.8-0.8s-0.3-0.8-0.8-0.8H9.2C8.7,6.7,8.4,7,8.4,7.5S8.7,8.3,9.2,8.3z"/>
</g>
<g>
	<linearGradient id="SVGID_5_" gradientUnits="userSpaceOnUse" x1="15.2807" y1="-5.143268e-02" x2="15.591" y2="31.552">
		<stop  offset="0" style="stop-color:#FF512F"/>
		<stop  offset="1" style="stop-color:#F09819"/>
	</linearGradient>
	<path class="st5" d="M21.5,11.3H9.2c-0.5,0-0.8,0.3-0.8,0.8s0.3,0.8,0.8,0.8h12.4c0.5,0,0.8-0.3,0.8-0.8S22,11.3,21.5,11.3z"/>
</g>
<g>
	<linearGradient id="SVGID_6_" gradientUnits="userSpaceOnUse" x1="15.2345" y1="-5.097949e-02" x2="15.5449" y2="31.5525">
		<stop  offset="0" style="stop-color:#FF512F"/>
		<stop  offset="1" style="stop-color:#F09819"/>
	</linearGradient>
	<path class="st6" d="M21.5,16H9.2c-0.5,0-0.8,0.3-0.8,0.8c0,0.5,0.3,0.8,0.8,0.8h12.4c0.5,0,0.8-0.3,0.8-0.8S22,16,21.5,16z"/>
</g>
<g>
	<linearGradient id="SVGID_7_" gradientUnits="userSpaceOnUse" x1="13.6395" y1="-3.531643e-02" x2="13.9498" y2="31.5681">
		<stop  offset="0" style="stop-color:#FF512F"/>
		<stop  offset="1" style="stop-color:#F09819"/>
	</linearGradient>
	<path class="st7" d="M18.4,20.6H9.2c-0.5,0-0.8,0.3-0.8,0.8s0.3,0.8,0.8,0.8h9.3c0.5,0,0.8-0.3,0.8-0.8S18.8,20.6,18.4,20.6z"/>
</g>
<text transform="matrix(1 0 0 1 -1.0421 16.0236)" class="st8 st9 st10">Created by Deemak Daksina</text>
<text transform="matrix(1 0 0 1 -1.0421 16.8868)" class="st8 st9 st10">from the Noun Project</text>
<g>
	<linearGradient id="SVGID_8_" gradientUnits="userSpaceOnUse" x1="24.6425" y1="-0.1434" x2="24.9529" y2="31.4601">
		<stop  offset="0" style="stop-color:#FF512F"/>
		<stop  offset="1" style="stop-color:#F09819"/>
	</linearGradient>
	<path class="st11" d="M29.3,21.1c-0.7-0.7-1.9-0.7-2.6,0l-6.1,6.1l-0.1,0.1l-0.6,2.6c0,0.1,0,0.3,0.1,0.4c0.1,0.1,0.1,0.1,0.3,0.1
		h0.2l2.6-0.6c0.1,0,0.1,0,0.1-0.1l6.1-6.1c0.3-0.3,0.6-0.9,0.6-1.3C29.9,22,29.6,21.4,29.3,21.1z M22.7,29.1L21,29.5l0.4-1.7
		l5.1-5.1l1.3,1.3L22.7,29.1z M28.8,23l-0.3,0.3L27.2,22l0.3-0.3c0.3-0.3,0.9-0.3,1.3,0c0.1,0.1,0.3,0.4,0.3,0.6
		C28.9,22.6,28.9,22.9,28.8,23z"/>
</g>
</svg>
