<svg id="Layer_1" data-name="Layer 1" xmlns="http://www.w3.org/2000/svg" xmlns:xlink="http://www.w3.org/1999/xlink" width="512" height="400" viewBox="0 0 512 400"><defs><linearGradient id="linear-gradient" x1="461.6" y1="509.8" x2="463.6" y2="-3.2" gradientTransform="matrix(1, 0, 0, -1, 0, 457)" gradientUnits="userSpaceOnUse"><stop offset="0" stop-color="#ff512f"/><stop offset="1" stop-color="#f09819"/></linearGradient><linearGradient id="linear-gradient-2" x1="135.53" y1="508.53" x2="137.53" y2="-4.47" gradientTransform="matrix(1, 0, 0, -1, 0, 513)" xlink:href="#linear-gradient"/><linearGradient id="linear-gradient-3" x1="400.8" y1="509.56" x2="402.8" y2="-3.44" gradientTransform="matrix(1, 0, 0, -1, 0, 513)" xlink:href="#linear-gradient"/><linearGradient id="linear-gradient-4" x1="255.02" y1="509" x2="257.02" y2="-4" gradientTransform="matrix(1, 0, 0, -1, 0, 513)" xlink:href="#linear-gradient"/></defs><title>escalator</title><circle cx="462" cy="50" r="10" style="fill:url(#linear-gradient)"/><path d="M186,126a50,50,0,1,0-50,50A50,50,0,0,0,186,126Zm-50,30a30,30,0,1,1,30-30A30.09,30.09,0,0,1,136,156Z" transform="translate(0 -56)" style="fill:url(#linear-gradient-2)"/><path d="M353.2,310.7A9.84,9.84,0,0,0,362,316h10v50a10,10,0,0,0,10,10h40a10,10,0,0,0,10-10V316h10a9.84,9.84,0,0,0,8.8-5.3,10,10,0,0,0-.5-10.3l-40-60a10.08,10.08,0,0,0-8.3-4.5,10,10,0,0,0-8.3,4.5l-40,60A9.82,9.82,0,0,0,353.2,310.7ZM402,264l21.3,32H422a10,10,0,0,0-10,10v50H392V306a10,10,0,0,0-10-10h-1.3Z" transform="translate(0 -56)" style="fill:url(#linear-gradient-3)"/><path d="M502,56H356a90,90,0,0,0-73.2,37.7L186,229.2V226a50,50,0,0,0-100,0V336H10A10,10,0,0,0,0,346V446a10,10,0,0,0,10,10H502a10,10,0,0,0,10-10V66A10,10,0,0,0,502,56ZM492,396H224.6L381.7,176H492ZM106,226a30,30,0,0,1,60,0v31.2L109.7,336H106ZM20,396H135.4a10,10,0,0,0,8.1-4.2l188-263.3a30,30,0,0,1,24.4-12.6h66a10,10,0,0,0,0-20h-66a50.18,50.18,0,0,0-40.7,20.9L130.3,376H20V356h94.8a10,10,0,0,0,8.1-4.2L299,105.3A70.41,70.41,0,0,1,356,76H492v80H376.6a10,10,0,0,0-8.1,4.2l-188,263.3a30,30,0,0,1-24.4,12.6H20.1V396Zm176,40c.2-.3.5-.6.7-.9L210.3,416H492v20Z" transform="translate(0 -56)" style="fill:url(#linear-gradient-4)"/></svg>