<svg id="Layer_1" data-name="Layer 1" xmlns="http://www.w3.org/2000/svg" xmlns:xlink="http://www.w3.org/1999/xlink" width="451.7" height="490" viewBox="0 0 451.7 490"><defs><linearGradient id="linear-gradient" x1="336.38" y1="502.35" x2="324.38" y2="-3.65" gradientTransform="matrix(1, 0, 0, -1, 0, 501)" gradientUnits="userSpaceOnUse"><stop offset="0" stop-color="#ff512f"/><stop offset="1" stop-color="#f09819"/></linearGradient><linearGradient id="linear-gradient-2" x1="198.42" y1="505.63" x2="186.42" y2="-0.37" xlink:href="#linear-gradient"/><linearGradient id="linear-gradient-3" x1="163.49" y1="506.45" x2="151.49" y2="0.45" xlink:href="#linear-gradient"/></defs><title>leave-request</title><path d="M380.9,312.8l-3.5-1.4,3-2.3a88.29,88.29,0,0,0,34.4-69.9c0-49-40.1-88.9-89.5-88.9s-89.4,39.9-89.4,88.9a88.34,88.34,0,0,0,34.3,69.9l3,2.3-3.5,1.4c-57.6,22.9-94.9,77.4-94.9,138.8V482a13.06,13.06,0,0,0,13.1,13H462.7a13.06,13.06,0,0,0,13.1-13V451.6C475.8,390.2,438.5,335.7,380.9,312.8ZM262,239.3c0-34.7,28.4-62.8,63.2-62.8s63.2,28.1,63.2,62.8-28.4,62.8-63.2,62.8S262,273.9,262,239.3ZM449.5,469H201V451.7c0-68.1,55.8-123.5,124.3-123.5s124.3,55.4,124.3,123.5l-.1,17.3Z" transform="translate(-24.1 -5)" style="fill:url(#linear-gradient)"/><path d="M217.1,138.9l-61.8,61.8a11.12,11.12,0,0,0-3.3,7.9,10.73,10.73,0,0,0,3.3,7.9,11.12,11.12,0,0,0,7.9,3.3,10.73,10.73,0,0,0,7.9-3.3l61.8-61.8a11.25,11.25,0,0,0-7.9-19.2A12.35,12.35,0,0,0,217.1,138.9Z" transform="translate(-24.1 -5)" style="fill:url(#linear-gradient-2)"/><path d="M189.1,345.8l-.9-3.6c-1.5-6.3-2.7-12.8-3.6-19.3l-.4-3.5-3.4.5a105.64,105.64,0,0,1-16.8,1.3c-62.3,0-113-50.7-113-112.9a112.87,112.87,0,0,1,207.2-62l1.9,2.9,2.9-1.9c5.5-3.8,11-7.1,16.6-10.2l3.3-1.8-2-3.1a139.46,139.46,0,0,0-20.5-24.7c9.8-.1,10.3-.2,10.6-.2a6.76,6.76,0,0,0,3.7-2l19-19a6.8,6.8,0,0,0,2-3.7,4.92,4.92,0,0,0-1.3-4.4L272.1,56a4.75,4.75,0,0,0-3.5-1.3h-.8a7,7,0,0,0-3.8,2l-19.1,19a6.74,6.74,0,0,0-2,3.8c-.1.3-.1.8-.1,13.8a139.32,139.32,0,0,0-56.2-22.7V46.9h8.6a6.94,6.94,0,0,0,3.9-1.2,5.12,5.12,0,0,0,2.3-4V10.3a4.86,4.86,0,0,0-2.2-4A7.14,7.14,0,0,0,195.1,5H132.5a6.68,6.68,0,0,0-4.1,1.3,5.13,5.13,0,0,0-2.2,4V41.7a5,5,0,0,0,2.2,4,7,7,0,0,0,4,1.2H141V70.7C74.2,81.7,24.1,140.5,24.1,208.3c0,77,62.6,139.7,139.7,139.7a139.2,139.2,0,0,0,21.4-1.6Z" transform="translate(-24.1 -5)" style="fill:url(#linear-gradient-3)"/></svg>