<?xml version="1.0" encoding="utf-8"?>
<!-- Generator: Adobe Illustrator 23.0.1, SVG Export Plug-In . SVG Version: 6.00 Build 0)  -->
<svg version="1.1" id="Layer_1" xmlns="http://www.w3.org/2000/svg" xmlns:xlink="http://www.w3.org/1999/xlink" x="0px" y="0px"
	 viewBox="0 0 512 512" style="enable-background:new 0 0 512 512;" xml:space="preserve">
<style type="text/css">
	.st0{fill:#F26522;}
</style>
<path class="st0" d="M256,332c-5.5,0-10,4.5-10,10s4.5,10,10,10s10-4.5,10-10S261.5,332,256,332z"/>
<path class="st0" d="M126,381v71h-10c-16.5,0-30,13.5-30,30v10H76c-5.5,0-10,4.5-10,10s4.5,10,10,10h360c5.5,0,10-4.5,10-10
	s-4.5-10-10-10h-10v-10c0-16.5-13.5-30-30-30h-10v-71c0-50.4-24.8-96.9-65.8-125c41.6-28.6,65.8-75.5,65.8-125V60h10
	c16.5,0,30-13.5,30-30V20h10c5.5,0,10-4.5,10-10s-4.5-10-10-10H76c-5.5,0-10,4.5-10,10s4.5,10,10,10h10v10c0,16.5,13.5,30,30,30h10
	v71c0,50.4,24.8,96.9,65.8,125C149.9,284.8,126,331.8,126,381z M396,472c5.5,0,10,4.5,10,10v10H106v-10c0-5.5,4.5-10,10-10H396z
	 M186.6,452c3-22,17-29.5,43.9-43.7l25.5-13.6l25.5,13.6c26.9,14.3,40.9,21.7,43.9,43.7H186.6z M116,40c-5.5,0-10-4.5-10-10V20h300
	v10c0,5.5-4.5,10-10,10H116z M215.7,264.8c3.3-1.7,5.3-5.1,5.3-8.8s-2-7.1-5.3-8.8c-43-22.9-69.7-67.4-69.7-116.2V60h220v71
	c0,48.6-26.8,93.3-69.7,116.2c-3.3,1.7-5.3,5.1-5.3,8.8s2,7.1,5.3,8.8c43,22.9,69.7,67.4,69.7,116.2v71h-20.5
	c-3.6-34.3-26.4-46.4-54.6-61.4l-30.2-16.1c-2.9-1.6-6.5-1.6-9.4,0l-30.2,16.1c-28.2,15-51,27.1-54.6,61.4H146v-71
	C146,332.4,172.8,287.7,215.7,264.8z"/>
<path class="st0" d="M246,240.7V302c0,5.5,4.5,10,10,10s10-4.5,10-10v-61.3l20.9-11.1c34.7-18.5,57.1-53.7,59-93
	c0.2-4.5-2.6-8.6-6.8-10l-33-11c-5.7-1.9-11.6-2.9-17.7-2.9c-14.9,0-28.9,5.8-39.4,16.3c-9.6,9.6-23.7,12.9-36.6,8.6l-33.1-11
	c-3.1-1-6.6-0.5-9.2,1.5c-2.6,2-4.1,5.2-3.9,8.5c1.9,39.1,24.1,74.4,59,93L246,240.7z M188.1,150.5l17.9,6
	c20.2,6.7,42,1.6,57.1-13.5c6.8-6.8,15.7-10.5,25.3-10.5c3.9,0,7.7,0.6,11.3,1.8l25.6,8.5c-3.8,29.4-21.2,54.8-47.7,68.9L256,223.3
	l-21.5-11.5C210.3,199,193.7,176.7,188.1,150.5z"/>
</svg>
