<svg width="404" height="117" viewBox="0 0 404 117" fill="none" xmlns="http://www.w3.org/2000/svg">
<path d="M102 82V23H105V82H102ZM108 82V23H117V82H108ZM120 82V23H126V82H120ZM110.7 90.7H112.8L118.5 102.1L124.3 90.7H126.3V113.9H123.8V96.4L118.8 105.8H117.8L113.1 96.5V113.9H110.7V90.7ZM135.008 82V23H138.008V82H135.008ZM144.008 82V23H147.008V82H144.008ZM150.008 82V23H156.008V82H150.008ZM151.308 96.5C153.708 96.5 155.541 97.1333 156.808 98.4C158.074 99.6667 158.708 101.833 158.708 104.9V113.9H155.808V111.3C154.808 113.3 152.874 114.3 150.008 114.3C148.141 114.3 146.674 113.867 145.608 113C144.541 112.133 144.008 111 144.008 109.6C144.008 108.4 144.408 107.367 145.208 106.5C145.941 105.633 146.974 104.933 148.308 104.4C149.574 103.933 151.008 103.7 152.608 103.7C154.008 103.7 155.274 103.767 156.408 103.9C156.274 102.033 155.774 100.7 154.908 99.9C154.041 99.1 152.774 98.7 151.108 98.7C150.241 98.7 149.441 98.8667 148.708 99.2C147.908 99.5333 147.174 100 146.508 100.6L145.208 98.9C146.808 97.3 148.841 96.5 151.308 96.5ZM150.308 112.3C152.174 112.3 153.641 111.733 154.708 110.6C155.774 109.533 156.341 108 156.408 106C155.274 105.8 154.074 105.7 152.808 105.7C150.941 105.7 149.441 106.033 148.308 106.7C147.241 107.3 146.708 108.233 146.708 109.5C146.708 111.367 147.908 112.3 150.308 112.3ZM168.016 82V23H171.016V82H168.016ZM174.016 82V23H186.016V82H174.016ZM192.016 82V23H195.016V82H192.016ZM184.516 114.3C181.649 114.3 179.249 113.4 177.316 111.6L178.816 109.1L179.016 108.7L179.316 108.9C179.316 108.967 179.316 109.067 179.316 109.2C179.382 109.4 179.449 109.567 179.516 109.7C179.649 109.9 179.782 110.1 179.916 110.3C180.516 110.833 181.182 111.267 181.916 111.6C182.649 111.867 183.549 112 184.616 112C185.949 112 187.016 111.767 187.816 111.3C188.549 110.833 188.916 110.167 188.916 109.3C188.916 108.567 188.616 107.967 188.016 107.5C187.416 107.033 186.282 106.567 184.616 106.1C180.349 104.833 178.216 103.067 178.216 100.8C178.216 99.4667 178.782 98.4333 179.916 97.7C180.982 96.9 182.516 96.5 184.516 96.5C186.049 96.5 187.349 96.7333 188.416 97.2C189.482 97.6 190.449 98.2667 191.316 99.2L189.716 101L189.516 101.3L189.316 101.1C189.316 100.833 189.249 100.633 189.116 100.5C189.049 100.3 188.882 100.1 188.616 99.9C188.016 99.4333 187.382 99.1 186.716 98.9C185.982 98.6333 185.282 98.5 184.616 98.5C183.549 98.5 182.649 98.7 181.916 99.1C181.249 99.4333 180.916 99.9333 180.916 100.6C180.916 101.267 181.282 101.833 182.016 102.3C182.682 102.833 183.916 103.367 185.716 103.9C187.849 104.567 189.349 105.267 190.216 106C191.149 106.733 191.616 107.733 191.616 109C191.616 110.533 191.016 111.8 189.816 112.8C188.616 113.8 186.849 114.3 184.516 114.3ZM201.023 82V23H204.023V82H201.023ZM210.023 82V23H222.023V82H210.023ZM225.023 82V23H228.023V82H225.023ZM224.723 112.3C223.123 113.567 221.323 114.2 219.323 114.2C217.457 114.2 216.123 113.633 215.323 112.5C214.523 111.3 214.123 109.433 214.123 106.9C214.123 106.433 214.157 105.7 214.223 104.7L214.623 99.1H210.823V96.9H214.723L215.023 92.4L217.923 91.9H218.323V92.1C218.19 92.3 218.09 92.5 218.023 92.7C217.89 92.9 217.823 93.1667 217.823 93.5L217.423 96.9H223.023V99.1H217.223L216.923 104.9C216.857 105.9 216.823 106.533 216.823 106.8C216.823 108.8 217.057 110.167 217.523 110.9C217.99 111.567 218.723 111.9 219.723 111.9C220.457 111.9 221.157 111.767 221.823 111.5C222.423 111.233 223.123 110.8 223.923 110.2L224.723 112.3ZM234.031 82V23H237.031V82H234.031ZM240.031 82V23H246.031V82H240.031ZM252.031 82V23H255.031V82H252.031ZM251.331 114.3C248.798 114.3 246.798 113.533 245.331 112C243.798 110.467 243.031 108.3 243.031 105.5C243.031 103.633 243.398 102 244.131 100.6C244.798 99.2667 245.731 98.2667 246.931 97.6C248.065 96.8667 249.365 96.5 250.831 96.5C252.898 96.5 254.565 97.1667 255.831 98.5C257.098 99.9 257.731 101.933 257.731 104.6C257.731 104.867 257.731 105.267 257.731 105.8H245.631C245.698 107.867 246.265 109.433 247.331 110.5C248.398 111.567 249.765 112.1 251.431 112.1C253.231 112.1 254.698 111.467 255.831 110.2L257.331 111.7C255.865 113.433 253.865 114.3 251.331 114.3ZM255.031 103.7C255.031 102.1 254.631 100.833 253.831 99.9C253.031 98.9667 251.965 98.5 250.631 98.5C249.431 98.5 248.365 98.9333 247.431 99.8C246.498 100.667 245.931 101.967 245.731 103.7H255.031ZM267.039 82V23H270.039V82H267.039ZM276.039 82V23H279.039V82H276.039ZM285.039 82V23H297.039V82H285.039ZM286.739 96.5C288.539 96.5 290.039 97.1333 291.239 98.4L290.039 100.4L289.939 100.8L289.639 100.6C289.572 100.333 289.506 100.133 289.439 100C289.306 99.8 289.072 99.6 288.739 99.4C288.139 99 287.406 98.8 286.539 98.8C285.672 98.8 284.839 99.0333 284.039 99.5C283.239 99.9 282.606 100.567 282.139 101.5C281.606 102.433 281.339 103.567 281.339 104.9V113.9H278.639V96.9H281.439L281.339 100C281.806 98.9333 282.539 98.0667 283.539 97.4C284.539 96.8 285.606 96.5 286.739 96.5ZM300.047 82V23H306.047V82H300.047ZM309.047 82V23H315.047V82H309.047ZM321.047 82V23H327.047V82H321.047Z" fill="black"/>
<path d="M333.055 82V23H339.055V82H333.055ZM348.055 82V23H351.055V82H348.055ZM360.055 82V23H363.055V82H360.055ZM343.255 111.7H347.855V92.9H343.555V90.7H355.055V92.9H350.455V111.7H355.255V113.9H343.255V111.7ZM366.062 82V23H372.063V82H366.062ZM375.063 82V23H384.063V82H375.063ZM393.063 82V23H396.063V82H393.063ZM380.963 93H374.463V90.7H390.463V93H383.663V113.9H380.963V93Z" fill="#5FC9F8"/>
<path d="M0 14.6467C0.00010727 12.7664 0.738429 10.9613 2.05606 9.61984L7.79525 3.77592C8.7933 2.75957 10.0713 2.06334 11.4665 1.77595C12.8617 1.48856 14.3108 1.62301 15.6293 2.16217C16.9478 2.70133 18.0759 3.6208 18.8699 4.80342C19.6639 5.98604 20.0879 7.37827 20.0879 8.80273V108.17C20.0879 109.112 19.9023 110.045 19.5418 110.915C19.1813 111.785 18.6528 112.576 17.9867 113.242C17.3205 113.909 16.5296 114.437 15.6593 114.798C14.7889 115.158 13.856 115.344 12.9139 115.344H7.1747C5.27204 115.344 3.44731 114.588 2.10193 113.242C0.756546 111.897 0.000717389 110.072 0.000717389 108.17L0 14.6467Z" fill="black"/>
<path d="M6.89989 20.9287C6.00718 20.0359 5.36587 18.9233 5.04076 17.7034C4.71565 16.4834 4.71825 15.1993 5.04829 13.9807L6.77794 7.59581C7.10645 6.38175 7.74837 5.27539 8.63932 4.38766C9.53028 3.49994 10.639 2.86204 11.8542 2.53794C13.0694 2.21384 14.3485 2.21491 15.5632 2.54107C16.7779 2.86722 17.8855 3.50698 18.775 4.39621L58.8438 46.849C61.6453 49.6504 62.4373 52.8213 59.633 55.6235L53.4303 61.4272C50.6318 64.2287 46.5053 62.4108 43.7031 59.6065L6.89989 20.9287Z" fill="black"/>
<path d="M75.3321 40.1762V26.5457L60.9841 26.5457L42.0009 46.8487C39.1994 49.6502 38.4074 52.8211 41.2117 55.6232L47.4144 61.427C50.2151 64.2284 54.3401 62.4106 57.1416 59.6062L75.3321 40.1762Z" fill="black"/>
<path d="M100.863 36.8753C100.841 36.1091 100.644 35.358 100.288 34.6792C99.9316 34.0004 99.4252 33.4119 98.8072 32.9583L93.068 28.405C88.5678 24.8338 80.7754 27.3167 80.7754 32.3213V109.75C80.7754 112.835 83.9872 115.34 87.9494 115.34H93.6886C97.6508 115.34 100.863 112.837 100.863 109.75V36.8753Z" fill="#5FC9F8"/>
<path d="M50.1953 6.43652C50.1953 3.6751 52.4339 1.43652 55.1953 1.43652H84.6304C84.6304 1.43652 79.2499 4.66482 79.2499 11.8388C79.2499 18.2954 84.6304 21.5237 84.6304 21.5237H55.1953C52.4339 21.5237 50.1953 19.2851 50.1953 16.5237V6.43652Z" fill="#5FC9F8"/>
<path d="M128.288 14.2525C129.986 17.5793 127.569 21.5256 123.834 21.5256L96.8475 21.5256C96.8475 21.5256 102.34 18.2973 102.34 11.1234C102.34 4.66677 96.8475 1.43848 96.8475 1.43848L118.686 1.43848C120.565 1.43848 122.285 2.49185 123.139 4.16538L128.288 14.2525Z" fill="#5FC9F8"/>
<path d="M91.1041 1.43652L93.359 8.37647H100.656L94.7527 12.6656L97.0076 19.6055L91.1041 15.3164L85.2007 19.6055L87.4556 12.6656L81.5521 8.37647H88.8492L91.1041 1.43652Z" fill="black"/>
</svg>
