<svg id="Capa_1" data-name="Capa 1" xmlns="http://www.w3.org/2000/svg" width="295" height="512" viewBox="0 0 295 512"><title>mobile-framework</title><path d="M366,0H146a37.54,37.54,0,0,0-37.5,37.5v437A37.54,37.54,0,0,0,146,512H366a37.54,37.54,0,0,0,37.5-37.5V37.5A37.54,37.54,0,0,0,366,0Zm22.5,407H176a7.5,7.5,0,0,0,0,15H388.5v52.5A22.52,22.52,0,0,1,366,497H146a22.52,22.52,0,0,1-22.5-22.5V422H146a7.5,7.5,0,0,0,0-15H123.5V75h265Zm0-347h-265V37.5A22.52,22.52,0,0,1,146,15H366a22.52,22.52,0,0,1,22.5,22.5Z" transform="translate(-108.5)"/><path d="M286,30H256a7.5,7.5,0,0,0,0,15h30a7.5,7.5,0,0,0,0-15Z" transform="translate(-108.5)"/><path d="M256,437a22.5,22.5,0,1,0,22.5,22.5A22.52,22.52,0,0,0,256,437Zm0,30a7.5,7.5,0,1,1,7.5-7.5A7.5,7.5,0,0,1,256,467Z" transform="translate(-108.5)"/><circle cx="117.5" cy="37.5" r="7.5"/><circle cx="88.38" cy="173.39" r="23.5"/><circle cx="214.38" cy="173.39" r="23.5"/><circle cx="214.38" cy="289.89" r="23.5"/><circle cx="88.38" cy="289.89" r="23.5"/><rect x="94.38" y="170.04" width="110.9" height="8.28"/><rect x="192.8" y="227.55" width="136.03" height="8.28" transform="translate(-195.94 252.28) rotate(-45)"/><rect x="93.93" y="285.75" width="110.9" height="8.28"/></svg>