<svg id="Layer_1" data-name="Layer 1" xmlns="http://www.w3.org/2000/svg" xmlns:xlink="http://www.w3.org/1999/xlink" width="376.3" height="448" viewBox="0 0 376.3 448"><defs><linearGradient id="linear-gradient" x1="235.26" y1="449.29" x2="187.26" y2="0.29" gradientTransform="matrix(1, 0, 0, -1, 0, 449)" gradientUnits="userSpaceOnUse"><stop offset="0" stop-color="#ff512f"/><stop offset="1" stop-color="#f09819"/></linearGradient><linearGradient id="linear-gradient-2" x1="358.12" y1="436.16" x2="310.12" y2="-12.84" xlink:href="#linear-gradient"/><linearGradient id="linear-gradient-3" x1="124.19" y1="461.17" x2="76.19" y2="12.17" xlink:href="#linear-gradient"/><linearGradient id="linear-gradient-4" x1="133.66" y1="460.15" x2="85.66" y2="11.15" xlink:href="#linear-gradient"/><linearGradient id="linear-gradient-5" x1="143.13" y1="459.14" x2="95.13" y2="10.14" xlink:href="#linear-gradient"/><linearGradient id="linear-gradient-6" x1="210.5" y1="451.94" x2="162.5" y2="2.94" xlink:href="#linear-gradient"/><linearGradient id="linear-gradient-7" x1="182.3" y1="454.95" x2="134.3" y2="5.95" gradientTransform="matrix(1, 0, 0, -1, -23.6, 448.8)" xlink:href="#linear-gradient"/><linearGradient id="linear-gradient-8" x1="245.48" y1="448.2" x2="197.48" y2="-0.8" xlink:href="#linear-gradient"/><linearGradient id="linear-gradient-9" x1="204.04" y1="452.63" x2="156.04" y2="3.63" xlink:href="#linear-gradient"/><linearGradient id="linear-gradient-10" x1="242.75" y1="448.49" x2="194.75" y2="-0.51" xlink:href="#linear-gradient"/></defs><title>my-reservation</title><path d="M335.2,291.6V67.2a31.56,31.56,0,0,0-31.6-31.4H229.9a14.27,14.27,0,0,0-14.6-13.4H201.4v-.2a22,22,0,1,0-44,0v.2H142.6c-7.6,0-13.2,5.8-13.7,13.4H55A31.52,31.52,0,0,0,23.6,67.2V367.1A31.67,31.67,0,0,0,55,398.9H248.5a78.55,78.55,0,0,0,72.8,49.3c43.2,0,78.6-35.4,78.6-78.8A78.28,78.28,0,0,0,335.2,291.6ZM179.5,11a11,11,0,1,1-11,11A10.72,10.72,0,0,1,179.5,11ZM55.2,380.8c-7.2,0-13.4-6.3-13.4-13.9V67.2A13.4,13.4,0,0,1,55.2,53.8h73.9v4.9c0,8.1,5.6,15.2,13.7,15.2h72.6c8.1,0,14.6-7.2,14.6-15.2V53.8h73.7a13.66,13.66,0,0,1,13.7,13.4V290.5A78.83,78.83,0,0,0,243,369.1a63.38,63.38,0,0,0,.9,11.6l-188.7.1Zm266.3,49.3a60.9,60.9,0,1,1,60.7-60.9A60.9,60.9,0,0,1,321.5,430.1Z" transform="translate(-23.6 -0.2)" style="fill:url(#linear-gradient)"/><path d="M367.5,336a8.94,8.94,0,0,0-12.8,0l-47,47.3L288.4,364a9.05,9.05,0,1,0-12.8,12.8l25.5,25.5a8.8,8.8,0,0,0,6.3,2.7,8.63,8.63,0,0,0,6.3-2.7L367,348.8A9,9,0,0,0,367.5,336Z" transform="translate(-23.6 -0.2)" style="fill:url(#linear-gradient-2)"/><path d="M120.2,107.5H97.8a11.06,11.06,0,0,0-11.2,11.2v22.4a11.06,11.06,0,0,0,11.2,11.2h22.4a11.06,11.06,0,0,0,11.2-11.2V118.7A11.12,11.12,0,0,0,120.2,107.5Z" transform="translate(-23.6 -0.2)" style="fill:url(#linear-gradient-3)"/><path d="M120.2,197.1H97.8a11.06,11.06,0,0,0-11.2,11.2v22.4a11.06,11.06,0,0,0,11.2,11.2h22.4a11.06,11.06,0,0,0,11.2-11.2V208.3A11.12,11.12,0,0,0,120.2,197.1Z" transform="translate(-23.6 -0.2)" style="fill:url(#linear-gradient-4)"/><path d="M120.2,286.7H97.8a11.06,11.06,0,0,0-11.2,11.2v22.4a11.06,11.06,0,0,0,11.2,11.2h22.4a11.06,11.06,0,0,0,11.2-11.2V297.9A11.12,11.12,0,0,0,120.2,286.7Z" transform="translate(-23.6 -0.2)" style="fill:url(#linear-gradient-5)"/><path d="M158.2,138.9h76.2a9,9,0,0,0,0-18H158.2a9,9,0,0,0-9,9A9.16,9.16,0,0,0,158.2,138.9Z" transform="translate(-23.6 -0.2)" style="fill:url(#linear-gradient-6)"/><circle cx="134.6" cy="219.3" r="9" style="fill:url(#linear-gradient-7)"/><path d="M178.4,219.5a9,9,0,0,0,9,9h69.4a9,9,0,0,0,0-18H187.4A9.09,9.09,0,0,0,178.4,219.5Z" transform="translate(-23.6 -0.2)" style="fill:url(#linear-gradient-8)"/><path d="M182.9,300.2H158.3a9,9,0,0,0,0,18h24.6a9,9,0,1,0,0-18Z" transform="translate(-23.6 -0.2)" style="fill:url(#linear-gradient-9)"/><path d="M212,300.2h-4.5a9,9,0,0,0,0,18H212a9,9,0,1,0,0-18Z" transform="translate(-23.6 -0.2)" style="fill:url(#linear-gradient-10)"/></svg>