<?xml version="1.0" encoding="utf-8"?>
<!-- Generator: Adobe Illustrator 23.0.1, SVG Export Plug-In . SVG Version: 6.00 Build 0)  -->
<svg version="1.1" id="Layer_1" xmlns="http://www.w3.org/2000/svg" xmlns:xlink="http://www.w3.org/1999/xlink" x="0px" y="0px"
	 viewBox="0 0 89 122" style="enable-background:new 0 0 89 122;" xml:space="preserve">
<style type="text/css">
	.st0{fill:none;}
	.st1{opacity:0.5;fill:#FFFFFF;}
</style>
<title>onlydot-white-50</title>
<rect class="st0" width="89" height="122"/>
<circle class="st1" cx="58.8" cy="9.2" r="1.4"/>
<circle class="st1" cx="45.2" cy="9.2" r="1.4"/>
<circle class="st1" cx="31.6" cy="9.2" r="1.4"/>
<circle class="st1" cx="18" cy="9.2" r="1.4"/>
<circle class="st1" cx="58.8" cy="22.8" r="1.4"/>
<circle class="st1" cx="45.2" cy="22.8" r="1.4"/>
<circle class="st1" cx="31.6" cy="22.8" r="1.4"/>
<circle class="st1" cx="18" cy="22.8" r="1.4"/>
<circle class="st1" cx="58.8" cy="36.4" r="1.4"/>
<circle class="st1" cx="45.2" cy="36.4" r="1.4"/>
<circle class="st1" cx="31.6" cy="36.4" r="1.4"/>
<circle class="st1" cx="18" cy="36.4" r="1.4"/>
<circle class="st1" cx="58.8" cy="50" r="1.4"/>
<circle class="st1" cx="45.2" cy="50" r="1.4"/>
<circle class="st1" cx="31.6" cy="50" r="1.4"/>
<circle class="st1" cx="18" cy="50" r="1.4"/>
<circle class="st1" cx="58.8" cy="63.6" r="1.4"/>
<circle class="st1" cx="45.2" cy="63.6" r="1.4"/>
<circle class="st1" cx="31.6" cy="63.6" r="1.4"/>
<circle class="st1" cx="18" cy="63.6" r="1.4"/>
<circle class="st1" cx="58.8" cy="77.2" r="1.4"/>
<circle class="st1" cx="45.2" cy="77.2" r="1.4"/>
<circle class="st1" cx="31.6" cy="77.2" r="1.4"/>
<circle class="st1" cx="18" cy="77.2" r="1.4"/>
<circle class="st1" cx="58.8" cy="90.8" r="1.4"/>
<circle class="st1" cx="45.2" cy="90.8" r="1.4"/>
<circle class="st1" cx="31.6" cy="90.8" r="1.4"/>
<circle class="st1" cx="18" cy="90.8" r="1.4"/>
<circle class="st1" cx="58.8" cy="104.4" r="1.4"/>
<circle class="st1" cx="45.2" cy="104.4" r="1.4"/>
<circle class="st1" cx="31.6" cy="104.4" r="1.4"/>
<circle class="st1" cx="18" cy="104.4" r="1.4"/>
<circle class="st1" cx="71" cy="9.2" r="1.4"/>
<circle class="st1" cx="71" cy="22.8" r="1.4"/>
<circle class="st1" cx="71" cy="36.4" r="1.4"/>
<circle class="st1" cx="71" cy="50" r="1.4"/>
<circle class="st1" cx="71" cy="63.6" r="1.4"/>
<circle class="st1" cx="71" cy="77.2" r="1.4"/>
<circle class="st1" cx="71" cy="90.8" r="1.4"/>
<circle class="st1" cx="71" cy="104.4" r="1.4"/>
</svg>
