<svg id="Layer_1" data-name="Layer 1" xmlns="http://www.w3.org/2000/svg" width="89" height="237" viewBox="0 0 89 237"><title>only-dot-vert</title><g style="opacity:0.5"><circle cx="58.78" cy="17.2" r="1.36" style="fill:#f15a24"/><circle cx="45.19" cy="17.2" r="1.36" style="fill:#f15a24"/><circle cx="31.59" cy="17.2" r="1.36" style="fill:#f15a24"/><circle cx="18" cy="17.2" r="1.36" style="fill:#f15a24"/><circle cx="58.78" cy="30.8" r="1.36" style="fill:#f15a24"/><circle cx="45.19" cy="30.8" r="1.36" style="fill:#f15a24"/><circle cx="31.59" cy="30.8" r="1.36" style="fill:#f15a24"/><circle cx="18" cy="30.8" r="1.36" style="fill:#f15a24"/><circle cx="58.78" cy="44.39" r="1.36" style="fill:#f15a24"/><circle cx="45.19" cy="44.39" r="1.36" style="fill:#f15a24"/><circle cx="31.59" cy="44.39" r="1.36" style="fill:#f15a24"/><circle cx="18" cy="44.4" r="1.36" style="fill:#f15a24"/><circle cx="58.78" cy="57.99" r="1.36" style="fill:#f15a24"/><circle cx="45.19" cy="57.99" r="1.36" style="fill:#f15a24"/><circle cx="31.59" cy="57.99" r="1.36" style="fill:#f15a24"/><circle cx="18" cy="57.99" r="1.36" style="fill:#f15a24"/><circle cx="58.78" cy="71.57" r="1.36" style="fill:#f15a24"/><circle cx="45.19" cy="71.57" r="1.36" style="fill:#f15a24"/><circle cx="31.59" cy="71.57" r="1.36" style="fill:#f15a24"/><circle cx="18" cy="71.57" r="1.36" style="fill:#f15a24"/><circle cx="58.78" cy="85.18" r="1.36" style="fill:#f15a24"/><circle cx="45.19" cy="85.18" r="1.36" style="fill:#f15a24"/><circle cx="31.59" cy="85.18" r="1.36" style="fill:#f15a24"/><circle cx="18" cy="85.18" r="1.36" style="fill:#f15a24"/><circle cx="58.78" cy="98.76" r="1.36" style="fill:#f15a24"/><circle cx="45.19" cy="98.76" r="1.36" style="fill:#f15a24"/><circle cx="31.59" cy="98.76" r="1.36" style="fill:#f15a24"/><circle cx="18" cy="98.76" r="1.36" style="fill:#f15a24"/><circle cx="58.78" cy="112.37" r="1.36" style="fill:#f15a24"/><circle cx="45.19" cy="112.37" r="1.36" style="fill:#f15a24"/><circle cx="31.59" cy="112.37" r="1.36" style="fill:#f15a24"/><circle cx="18" cy="112.37" r="1.36" style="fill:#f15a24"/><circle cx="58.78" cy="125.95" r="1.36" style="fill:#f15a24"/><circle cx="45.19" cy="125.95" r="1.36" style="fill:#f15a24"/><circle cx="31.59" cy="125.95" r="1.36" style="fill:#f15a24"/><circle cx="18" cy="125.95" r="1.36" style="fill:#f15a24"/><circle cx="58.78" cy="139.55" r="1.36" style="fill:#f15a24"/><circle cx="45.19" cy="139.55" r="1.36" style="fill:#f15a24"/><circle cx="31.59" cy="139.55" r="1.36" style="fill:#f15a24"/><circle cx="18" cy="139.55" r="1.36" style="fill:#f15a24"/><circle cx="58.78" cy="153.14" r="1.36" style="fill:#f15a24"/><circle cx="45.19" cy="153.14" r="1.36" style="fill:#f15a24"/><circle cx="31.59" cy="153.14" r="1.36" style="fill:#f15a24"/><circle cx="18" cy="153.15" r="1.36" style="fill:#f15a24"/><circle cx="58.78" cy="166.74" r="1.36" style="fill:#f15a24"/><circle cx="45.19" cy="166.74" r="1.36" style="fill:#f15a24"/><circle cx="31.59" cy="166.74" r="1.36" style="fill:#f15a24"/><circle cx="18" cy="166.74" r="1.36" style="fill:#f15a24"/><circle cx="58.78" cy="180.32" r="1.36" style="fill:#f15a24"/><circle cx="45.19" cy="180.32" r="1.36" style="fill:#f15a24"/><circle cx="31.59" cy="180.32" r="1.36" style="fill:#f15a24"/><circle cx="18" cy="180.32" r="1.36" style="fill:#f15a24"/><circle cx="58.78" cy="193.93" r="1.36" style="fill:#f15a24"/><circle cx="45.19" cy="193.93" r="1.36" style="fill:#f15a24"/><circle cx="31.59" cy="193.93" r="1.36" style="fill:#f15a24"/><circle cx="18" cy="193.93" r="1.36" style="fill:#f15a24"/><circle cx="58.78" cy="206.2" r="1.36" style="fill:#f15a24"/><circle cx="45.19" cy="206.2" r="1.36" style="fill:#f15a24"/><circle cx="31.59" cy="206.2" r="1.36" style="fill:#f15a24"/><circle cx="18" cy="206.2" r="1.36" style="fill:#f15a24"/><circle cx="58.78" cy="219.8" r="1.36" style="fill:#f15a24"/><circle cx="45.19" cy="219.8" r="1.36" style="fill:#f15a24"/><circle cx="31.59" cy="219.8" r="1.36" style="fill:#f15a24"/><circle cx="18" cy="219.8" r="1.36" style="fill:#f15a24"/><circle cx="71" cy="17.2" r="1.36" style="fill:#f15a24"/><circle cx="71" cy="30.8" r="1.36" style="fill:#f15a24"/><circle cx="71" cy="44.39" r="1.36" style="fill:#f15a24"/><circle cx="71" cy="57.99" r="1.36" style="fill:#f15a24"/><circle cx="71" cy="71.57" r="1.36" style="fill:#f15a24"/><circle cx="71" cy="85.18" r="1.36" style="fill:#f15a24"/><circle cx="71" cy="98.76" r="1.36" style="fill:#f15a24"/><circle cx="71" cy="112.37" r="1.36" style="fill:#f15a24"/><circle cx="71" cy="125.95" r="1.36" style="fill:#f15a24"/><circle cx="71" cy="139.55" r="1.36" style="fill:#f15a24"/><circle cx="71" cy="153.14" r="1.36" style="fill:#f15a24"/><circle cx="71" cy="166.74" r="1.36" style="fill:#f15a24"/><circle cx="71" cy="180.32" r="1.36" style="fill:#f15a24"/><circle cx="71" cy="193.93" r="1.36" style="fill:#f15a24"/><circle cx="71" cy="206.2" r="1.36" style="fill:#f15a24"/><circle cx="71" cy="219.8" r="1.36" style="fill:#f15a24"/></g><rect x="-74" y="74" width="237" height="89" transform="translate(-74 163) rotate(-90)" style="fill:none"/></svg>