<svg id="Layer_1" data-name="Layer 1" xmlns="http://www.w3.org/2000/svg" xmlns:xlink="http://www.w3.org/1999/xlink" width="409.7" height="512.1" viewBox="0 0 409.7 512.1"><defs><linearGradient id="linear-gradient" x1="254.35" y1="513.01" x2="257.35" y2="0.01" gradientTransform="matrix(1, 0, 0, -1, 0, 513)" gradientUnits="userSpaceOnUse"><stop offset="0" stop-color="#ff512f"/><stop offset="1" stop-color="#f09819"/></linearGradient><linearGradient id="linear-gradient-2" x1="253.98" y1="513.01" x2="256.98" y2="0.01" xlink:href="#linear-gradient"/><linearGradient id="linear-gradient-3" x1="254.2" y1="513.01" x2="257.2" y2="0.01" xlink:href="#linear-gradient"/><linearGradient id="linear-gradient-4" x1="127.6" y1="512.27" x2="130.6" y2="-0.73" xlink:href="#linear-gradient"/></defs><title>padlock</title><path d="M460.7,110.4a7.8,7.8,0,0,0-.4-2.2c-.1-.3-.2-.5-.3-.8a8.52,8.52,0,0,0-1.7-2.5L355.9,2.5A8.52,8.52,0,0,0,353.4.8c-.3-.1-.5-.2-.8-.3a5.7,5.7,0,0,0-2.2-.4,4.33,4.33,0,0,0-.5-.1H93.9A42.68,42.68,0,0,0,51.2,42.7V469.4a42.74,42.74,0,0,0,42.7,42.7H418.2a42.74,42.74,0,0,0,42.7-42.7V110.9A.76.76,0,0,1,460.7,110.4Zm-29-8H367a8.49,8.49,0,0,1-8.5-8.5V29.1ZM418.1,494.9H93.9a25.65,25.65,0,0,1-25.6-25.6V42.7A25.65,25.65,0,0,1,93.9,17.1H341.4V93.9A25.65,25.65,0,0,0,367,119.5h76.8V469.4A25.65,25.65,0,0,1,418.1,494.9Z" transform="translate(-51.2 0)" style="fill:url(#linear-gradient)"/><path d="M366.9,247.5h-8.5V204.8A76.82,76.82,0,0,0,281.6,128H230.4a76.82,76.82,0,0,0-76.8,76.8v42.7h-8.5a25.65,25.65,0,0,0-25.6,25.6V435.2a25.65,25.65,0,0,0,25.6,25.6H367a25.65,25.65,0,0,0,25.6-25.6V273.1A25.67,25.67,0,0,0,366.9,247.5ZM170.7,204.8a59.73,59.73,0,0,1,59.7-59.7h51.2a59.73,59.73,0,0,1,59.7,59.7v42.7H324.2V204.8a42.74,42.74,0,0,0-42.7-42.7H230.3a42.74,42.74,0,0,0-42.7,42.7v42.7H170.5V204.8Zm136.5,42.7H204.8V204.8a25.65,25.65,0,0,1,25.6-25.6h51.2a25.65,25.65,0,0,1,25.6,25.6Zm68.3,187.7a8.49,8.49,0,0,1-8.5,8.5H145.1a8.49,8.49,0,0,1-8.5-8.5V273.1a8.49,8.49,0,0,1,8.5-8.5H367a8.49,8.49,0,0,1,8.5,8.5Z" transform="translate(-51.2 0)" style="fill:url(#linear-gradient-2)"/><path d="M266.4,282.8a43.37,43.37,0,0,0-36.8,7.9,42.64,42.64,0,0,0,.9,67.6V401a25.6,25.6,0,1,0,51.2,0V358.3a42.59,42.59,0,0,0-15.3-75.5Zm2.4,63.6a8.7,8.7,0,0,0-4.3,7.4v47.3a8.5,8.5,0,0,1-17,0V353.8a8.49,8.49,0,0,0-4.3-7.4,25.81,25.81,0,0,1-12.7-20.3,25.37,25.37,0,0,1,9.7-21.9,25.09,25.09,0,0,1,15.8-5.5,28.21,28.21,0,0,1,6.5.8,25.5,25.5,0,0,1,18.4,18.2,25.88,25.88,0,0,1-12.1,28.7Z" transform="translate(-51.2 0)" style="fill:url(#linear-gradient-3)"/><path d="M170.7,42.7a8.49,8.49,0,0,0-8.5-8.5H111A25.65,25.65,0,0,0,85.4,59.8V111a8.5,8.5,0,0,0,17,0V59.7a8.49,8.49,0,0,1,8.5-8.5h51.2A8.58,8.58,0,0,0,170.7,42.7Z" transform="translate(-51.2 0)" style="fill:url(#linear-gradient-4)"/></svg>