<svg id="Layer_1" data-name="Layer 1" xmlns="http://www.w3.org/2000/svg" width="456.4" height="355" viewBox="0 0 456.4 355"><title>power_apps</title><path d="M435.5,78.5H76.6a48.93,48.93,0,0,0-48.8,48.8V323a48.93,48.93,0,0,0,48.8,48.8H89V356.3H80.8a35,35,0,0,1-34.9-34.9V132.8A35,35,0,0,1,80.8,97.9H431.3a35,35,0,0,1,34.9,34.9V321.4a35,35,0,0,1-34.9,34.9H423v15.5h12.4A48.93,48.93,0,0,0,484.2,323V127.3A48.84,48.84,0,0,0,435.5,78.5Z" transform="translate(-27.8 -78.5)" style="fill:#f26522"/><path d="M359,259.5l-38.9,38.9a10.26,10.26,0,0,1-14.5,0l-38.9-38.9a10.26,10.26,0,0,1,0-14.5l38.9-38.9a10.26,10.26,0,0,1,14.5,0L359,245A10.26,10.26,0,0,1,359,259.5Z" transform="translate(-27.8 -78.5)" style="fill:#f26522"/><path d="M425,325.6l-38.9,38.9a10.26,10.26,0,0,1-14.5,0l-39-38.9a10.26,10.26,0,0,1,0-14.5l38.9-38.9a10.26,10.26,0,0,1,14.5,0l38.9,38.9A10.17,10.17,0,0,1,425,325.6Z" transform="translate(-27.8 -78.5)" style="fill:#f26522"/><path d="M359,391.6l-38.9,38.9a10.26,10.26,0,0,1-14.5,0l-38.9-38.9a10.26,10.26,0,0,1,0-14.5l38.9-38.9a10.26,10.26,0,0,1,14.5,0L359,377.1A10.26,10.26,0,0,1,359,391.6Z" transform="translate(-27.8 -78.5)" style="fill:#f26522"/><path d="M285,307.1l-86.4-86.4a19.92,19.92,0,0,0-28.2,0L88.1,303a19.92,19.92,0,0,0,0,28.2l86.4,86.4a19.92,19.92,0,0,0,28.2,0L285,335.3A19.74,19.74,0,0,0,285,307.1Zm-61,27.3-22.3,22.3a19.92,19.92,0,0,1-28.2,0l-24.2-24.2a19.92,19.92,0,0,1,0-28.2L171.6,282a19.92,19.92,0,0,1,28.2,0L224,306.2A19.92,19.92,0,0,1,224,334.4Z" transform="translate(-27.8 -78.5)" style="fill:#f26522"/></svg>