<?xml version="1.0" encoding="utf-8"?>
<!-- Generator: Adobe Illustrator 23.0.1, SVG Export Plug-In . SVG Version: 6.00 Build 0)  -->
<svg version="1.1" id="Layer_1" xmlns="http://www.w3.org/2000/svg" xmlns:xlink="http://www.w3.org/1999/xlink" x="0px" y="0px"
	 viewBox="0 0 512 512" style="enable-background:new 0 0 512 512;" xml:space="preserve">
<style type="text/css">
	.st0{fill:#F26522;}
</style>
<path class="st0" d="M434.1,87.3H77.9c-26.7,0-48.5,21.8-48.5,48.5V330c0,26.7,21.8,48.5,48.5,48.5h12.3V363h-8.1
	c-19,0-34.6-15.6-34.6-34.6V141.2c0-19,15.6-34.6,34.6-34.6H430c19,0,34.6,15.6,34.6,34.6v187.2c0,19-15.6,34.6-34.6,34.6h-8.1v15.4
	h12.3c26.7,0,48.5-21.8,48.5-48.5V135.8C482.6,109.1,460.7,87.3,434.1,87.3z"/>
<polygon class="st0" points="109.9,209.8 179.5,209.8 179.5,339.7 301,339.7 301,363.2 171.9,363.2 171.9,421 109.9,359.8 "/>
<path class="st0" d="M202.9,146.9v153.4H337v62.9l78-67.1V146.9H202.9z M400.8,287.7l-47,40.3v-43.5H218V162h182.7L400.8,287.7
	L400.8,287.7z"/>
</svg>
