<?xml version="1.0" encoding="utf-8"?>
<!-- Generator: Adobe Illustrator 23.0.1, SVG Export Plug-In . SVG Version: 6.00 Build 0)  -->
<svg version="1.1" id="Layer_1" xmlns="http://www.w3.org/2000/svg" xmlns:xlink="http://www.w3.org/1999/xlink" x="0px" y="0px"
	 viewBox="0 0 49.5 40.9" style="enable-background:new 0 0 49.5 40.9;" xml:space="preserve">
<style type="text/css">
	.st0{fill:url(#SVGID_1_);}
	.st1{fill:url(#SVGID_2_);}
	.st2{fill:url(#SVGID_3_);}
	.st3{fill:url(#SVGID_4_);}
	.st4{fill:url(#SVGID_5_);}
	.st5{fill:url(#SVGID_6_);}
	.st6{fill:url(#SVGID_7_);}
	.st7{fill:url(#SVGID_8_);}
	.st8{fill:url(#SVGID_9_);}
	.st9{fill:url(#SVGID_10_);}
	.st10{fill:url(#SVGID_11_);}
	.st11{fill:url(#SVGID_12_);}
	.st12{fill:url(#SVGID_13_);}
</style>
<title>screenshot</title>
<linearGradient id="SVGID_1_" gradientUnits="userSpaceOnUse" x1="47.2969" y1="-1.1572" x2="46.7796" y2="41.7738">
	<stop  offset="0" style="stop-color:#FF512F"/>
	<stop  offset="1" style="stop-color:#F09819"/>
</linearGradient>
<path class="st0" d="M48.8,40.8h-4c-0.4,0-0.8-0.3-0.8-0.8s0.3-0.8,0.8-0.8H48v-3.3c0-0.4,0.3-0.8,0.8-0.8s0.8,0.3,0.8,0.8v4
	C49.5,40.5,49.2,40.8,48.8,40.8z"/>
<linearGradient id="SVGID_2_" gradientUnits="userSpaceOnUse" x1="3.2792" y1="-1.6875" x2="2.7619" y2="41.2435">
	<stop  offset="0" style="stop-color:#FF512F"/>
	<stop  offset="1" style="stop-color:#F09819"/>
</linearGradient>
<path class="st1" d="M4.8,40.8h-4c-0.4,0-0.8-0.3-0.8-0.8v-4c0-0.4,0.3-0.8,0.8-0.8s0.8,0.3,0.8,0.8v3.3h3.3c0.4,0,0.8,0.3,0.8,0.8
	S5.2,40.8,4.8,40.8z"/>
<g>
	<linearGradient id="SVGID_3_" gradientUnits="userSpaceOnUse" x1="4.980469e-02" y1="20.3948" x2="1.5498" y2="20.3948">
		<stop  offset="0" style="stop-color:#FF512F"/>
		<stop  offset="1" style="stop-color:#F09819"/>
	</linearGradient>
	<path class="st2" d="M0.8,30.5c-0.4,0-0.8-0.3-0.8-0.8v-6.3c0-0.4,0.3-0.8,0.8-0.8s0.8,0.3,0.8,0.8v6.3C1.5,30.2,1.2,30.5,0.8,30.5
		z M0.8,18C0.4,18,0,17.7,0,17.3V11c0-0.4,0.3-0.8,0.8-0.8s0.8,0.3,0.8,0.8v6.3C1.5,17.7,1.2,18,0.8,18z"/>
</g>
<linearGradient id="SVGID_4_" gradientUnits="userSpaceOnUse" x1="2.8298" y1="-1.693" x2="2.3126" y2="41.2381">
	<stop  offset="0" style="stop-color:#FF512F"/>
	<stop  offset="1" style="stop-color:#F09819"/>
</linearGradient>
<path class="st3" d="M0.8,5.5C0.4,5.5,0,5.2,0,4.8v-4C0,0.4,0.4,0,0.8,0h4c0.4,0,0.8,0.3,0.8,0.8S5.2,1.5,4.8,1.5H1.5v3.3
	C1.5,5.2,1.2,5.5,0.8,5.5z"/>
<linearGradient id="SVGID_5_" gradientUnits="userSpaceOnUse" x1="32.8255" y1="-1.3316" x2="32.3082" y2="41.5995">
	<stop  offset="0" style="stop-color:#FF512F"/>
	<stop  offset="1" style="stop-color:#F09819"/>
</linearGradient>
<path class="st4" d="M36.8,1.5h-8c-0.4,0-0.8-0.3-0.8-0.8S28.4,0,28.8,0h8c0.4,0,0.8,0.3,0.8,0.8S37.2,1.5,36.8,1.5z"/>
<linearGradient id="SVGID_6_" gradientUnits="userSpaceOnUse" x1="16.8278" y1="-1.5243" x2="16.3106" y2="41.4067">
	<stop  offset="0" style="stop-color:#FF512F"/>
	<stop  offset="1" style="stop-color:#F09819"/>
</linearGradient>
<path class="st5" d="M20.8,1.5h-8c-0.4,0-0.8-0.3-0.8-0.8S12.4,0,12.8,0h8c0.4,0,0.8,0.3,0.8,0.8S21.2,1.5,20.8,1.5z"/>
<linearGradient id="SVGID_7_" gradientUnits="userSpaceOnUse" x1="33.2995" y1="-1.3258" x2="32.7823" y2="41.6052">
	<stop  offset="0" style="stop-color:#FF512F"/>
	<stop  offset="1" style="stop-color:#F09819"/>
</linearGradient>
<path class="st6" d="M36.8,40.9h-8c-0.4,0-0.8-0.3-0.8-0.8s0.3-0.8,0.8-0.8h8c0.4,0,0.8,0.3,0.8,0.8S37.2,40.9,36.8,40.9z"/>
<linearGradient id="SVGID_8_" gradientUnits="userSpaceOnUse" x1="17.3018" y1="-1.5186" x2="16.7846" y2="41.4124">
	<stop  offset="0" style="stop-color:#FF512F"/>
	<stop  offset="1" style="stop-color:#F09819"/>
</linearGradient>
<path class="st7" d="M20.8,40.9h-8c-0.4,0-0.8-0.3-0.8-0.8s0.3-0.8,0.8-0.8h8c0.4,0,0.8,0.3,0.8,0.8S21.2,40.9,20.8,40.9z"/>
<linearGradient id="SVGID_9_" gradientUnits="userSpaceOnUse" x1="46.8475" y1="-1.1626" x2="46.3303" y2="41.7684">
	<stop  offset="0" style="stop-color:#FF512F"/>
	<stop  offset="1" style="stop-color:#F09819"/>
</linearGradient>
<path class="st8" d="M48.8,5.5c-0.4,0-0.8-0.3-0.8-0.8V1.5h-3.3c-0.4,0-0.8-0.3-0.8-0.8S44.4,0,44.8,0h4c0.4,0,0.8,0.3,0.8,0.8v4
	C49.5,5.2,49.2,5.5,48.8,5.5z"/>
<g>
	<linearGradient id="SVGID_10_" gradientUnits="userSpaceOnUse" x1="48.0498" y1="20.4048" x2="49.5498" y2="20.4048">
		<stop  offset="0" style="stop-color:#FF512F"/>
		<stop  offset="1" style="stop-color:#F09819"/>
	</linearGradient>
	<path class="st9" d="M48.8,30.6c-0.4,0-0.8-0.3-0.8-0.8v-6.3c0-0.4,0.3-0.8,0.8-0.8s0.8,0.3,0.8,0.8v6.3
		C49.5,30.2,49.2,30.6,48.8,30.6z M48.8,18c-0.4,0-0.8-0.3-0.8-0.8V11c0-0.4,0.3-0.8,0.8-0.8s0.8,0.3,0.8,0.8v6.3
		C49.5,17.7,49.2,18,48.8,18z"/>
</g>
<linearGradient id="SVGID_11_" gradientUnits="userSpaceOnUse" x1="25.0798" y1="-1.4249" x2="24.5626" y2="41.5062">
	<stop  offset="0" style="stop-color:#FF512F"/>
	<stop  offset="1" style="stop-color:#F09819"/>
</linearGradient>
<path class="st10" d="M40.3,11.4c-0.7-0.7-1.6-1.1-2.6-1.1h-5.2v-0.1c0-0.8-0.3-1.5-0.9-2.1c-0.5-0.6-1.3-0.9-2.1-0.9H20
	c-1.6,0-2.9,1.3-2.9,2.9l0,0v0.1h-5.2c-1,0-1.9,0.4-2.6,1.1c-0.7,0.7-1.1,1.6-1.1,2.6v15.7c0,1,0.4,2,1.1,2.7
	c0.7,0.7,1.6,1.1,2.6,1.1h25.8c1,0,1.9-0.4,2.6-1.1c0.7-0.7,1.1-1.6,1.1-2.6V14.1C41.4,13.1,41,12.1,40.3,11.4z M39.8,29.8
	L39.8,29.8c0,1.1-0.9,2-2,2H11.9c-1.1,0-2-0.9-2-2V14.1c0-1.1,0.8-2,1.9-2.1c0,0,0,0,0.1,0H18c0.5,0,0.9-0.4,0.9-0.8l0,0v-0.9
	c0-0.6,0.5-1.2,1.1-1.2C20,9,20,9,20,9h9.4c0.6-0.1,1.2,0.4,1.3,1.1c0,0.1,0,0.1,0,0.2v0.9c0,0.5,0.4,0.9,0.8,0.9l0,0h6.1
	c0.5,0,1.1,0.2,1.5,0.6c0.4,0.4,0.6,0.9,0.6,1.5v15.6H39.8z"/>
<linearGradient id="SVGID_12_" gradientUnits="userSpaceOnUse" x1="25.0304" y1="-1.4255" x2="24.5132" y2="41.5056">
	<stop  offset="0" style="stop-color:#FF512F"/>
	<stop  offset="1" style="stop-color:#F09819"/>
</linearGradient>
<path class="st11" d="M24.8,14.1c-4.3,0-7.8,3.5-7.8,7.7s3.5,7.8,7.7,7.8c4.3,0,7.8-3.5,7.8-7.7c0-2.1-0.8-4-2.3-5.5
	C28.8,15,26.8,14.2,24.8,14.1z M29,26.2c-2.4,2.3-6.2,2.3-8.6,0c-1.1-1.1-1.8-2.7-1.8-4.3c0-1.6,0.6-3.1,1.8-4.3
	c1.1-1.1,2.7-1.8,4.3-1.8s3.1,0.6,4.3,1.8c1.1,1.1,1.8,2.7,1.8,4.3C30.8,23.6,30.2,25.1,29,26.2z"/>
<linearGradient id="SVGID_13_" gradientUnits="userSpaceOnUse" x1="36.2047" y1="-1.2908" x2="35.6875" y2="41.6402">
	<stop  offset="0" style="stop-color:#FF512F"/>
	<stop  offset="1" style="stop-color:#F09819"/>
</linearGradient>
<circle class="st12" cx="36" cy="15.7" r="1.5"/>
</svg>
