<?xml version="1.0" encoding="utf-8"?>
<!-- Generator: Adobe Illustrator 23.0.1, SVG Export Plug-In . SVG Version: 6.00 Build 0)  -->
<svg version="1.1" id="Layer_1" xmlns="http://www.w3.org/2000/svg" xmlns:xlink="http://www.w3.org/1999/xlink" x="0px" y="0px"
	 viewBox="0 0 366 356" style="enable-background:new 0 0 366 356;" xml:space="preserve">
<style type="text/css">
	.st0{fill:#FFFFFF;}
</style>
<g>
	<g>
		<path class="st0" d="M155.3,140.9c0,4.2,3.4,7.7,7.7,7.7h38.4V187c0,4.2,3.4,7.7,7.7,7.7s7.7-3.4,7.7-7.7v-38.4h38.4
			c4.2,0,7.7-3.4,7.7-7.7c0-4.2-3.4-7.7-7.7-7.7h-38.4V94.8c0-4.2-3.4-7.7-7.7-7.7c-4.2,0-7.7,3.4-7.7,7.7v38.4H163
			C158.8,133.2,155.3,136.6,155.3,140.9z"/>
		<path class="st0" d="M255.3,71.7h23.1v23.1c0,4.2,3.4,7.7,7.7,7.7c4.2,0,7.7-3.4,7.7-7.7V71.7h23.1c4.2,0,7.7-3.4,7.7-7.7
			s-3.4-7.7-7.7-7.7h-23.1V33.2c0-4.2-3.4-7.7-7.7-7.7c-4.2,0-7.7,3.4-7.7,7.7v23.1h-23.1c-4.2,0-7.7,3.4-7.7,7.7
			S251,71.7,255.3,71.7z"/>
		<path class="st0" d="M331.2,244.9c-6.7-10.6-29.9-33.6-44.4-24.7l-81.7,50h-23.2v-25.6c0-4.7-3.8-8.5-8.5-8.5h-51.2
			c-4.7,0-8.5,3.8-8.5,8.5v84.3c0,4.7,3.8,8.5,8.5,8.5H223c1.7,0,3.3-0.5,4.7-1.4L330,268.7C332.7,266.9,340.8,260,331.2,244.9z"/>
		<path class="st0" d="M88,236H36.8c-4.7,0-8.5,3.8-8.5,8.5v84.3c0,4.7,3.8,8.5,8.5,8.5H88c4.7,0,8.5-3.8,8.5-8.5v-84.3
			C96.5,239.8,92.7,236,88,236z"/>
		<path class="st0" d="M132.3,71.7h7.7v7.7c0,4.2,3.4,7.7,7.7,7.7s7.7-3.4,7.7-7.7v-7.7h7.7c4.2,0,7.7-3.4,7.7-7.7s-3.4-7.7-7.7-7.7
			h-7.7v-7.7c0-4.2-3.4-7.7-7.7-7.7s-7.7,3.4-7.7,7.7v7.7h-7.7c-4.2,0-7.7,3.4-7.7,7.7S128,71.7,132.3,71.7z"/>
	</g>
</g>
<text transform="matrix(1 0 0 1 -22.8035 627.5914)" style="display:none;fill:#F26522;enable-background:new    ; font-family:'Arial-BoldMT'; font-size:85.3333px;">Created by Ralf Schmitzer</text>
<text transform="matrix(1 0 0 1 -22.8035 712.9227)" style="display:none;fill:#F26522;enable-background:new    ; font-family:'Arial-BoldMT'; font-size:85.3333px;">from the Noun Project</text>
</svg>
