<svg id="Layer_1" data-name="Layer 1" xmlns="http://www.w3.org/2000/svg" width="500.7" height="371.39" viewBox="0 0 500.7 371.39"><title>self-service</title><g id="BACKGROUND"><rect width="500" height="370" style="fill:#fff"/></g><g id="OBJECTS"><rect x="106.2" y="162.3" width="52.4" height="108" style="fill:#f06f76"/><rect x="316.2" y="136.8" width="52.4" height="132.8" style="fill:#81a6d9"/><path d="M350.5,229.9l-30.6-9.2L335,192.5a7.11,7.11,0,0,0,.7-3.2h.1V175.1l-6.3,5.5-15-15a6.22,6.22,0,0,0-7.2-1.1l-28.2,15.1L269.9,149a6.21,6.21,0,0,0-5.9-4.4H236.3a6.21,6.21,0,0,0-5.9,4.4l-9.2,30.6L193,164.5a6.07,6.07,0,0,0-7.2,1.1l-15.2,15.2-6.2-5.5v14.2h.1a5.32,5.32,0,0,0,.7,3l15.1,28.2-30.6,9.2a6.21,6.21,0,0,0-4.4,5.9v27.7a6.21,6.21,0,0,0,4.4,5.9l30.6,9.2-10.2,19.1-5.6-2.6v15h0a6,6,0,0,0,1.7,3.9l19.6,19.6a6.22,6.22,0,0,0,7.2,1.1l28.2-15.1,9.2,30.6a6.21,6.21,0,0,0,5.9,4.4H264a6.21,6.21,0,0,0,5.9-4.4l9.2-30.6,28.2,15.1a6.07,6.07,0,0,0,7.2-1.1L334.1,314a5.94,5.94,0,0,0,1.7-4.5l.1.1V295.4l-5.6,2.4L320,278.6l30.6-9.2a6.21,6.21,0,0,0,4.4-5.9V235.8A6.33,6.33,0,0,0,350.5,229.9Z" transform="translate(0.7 0.4)" style="fill:#81a6d9"/><path d="M350.5,215.7l-30.6-9.2L335,178.3a6.07,6.07,0,0,0-1.1-7.2l-19.6-19.6a6.22,6.22,0,0,0-7.2-1.1l-28.2,15.1-9.2-30.6a6.21,6.21,0,0,0-5.9-4.4H236.1a6.21,6.21,0,0,0-5.9,4.4L221,165.5l-28.2-15.1a6.07,6.07,0,0,0-7.2,1.1L166.1,171a6.22,6.22,0,0,0-1.1,7.2l15.1,28.2-30.6,9.2a6.21,6.21,0,0,0-4.4,5.9v27.7a6.21,6.21,0,0,0,4.4,5.9l30.6,9.2L165,292.5a6.07,6.07,0,0,0,1.1,7.2l19.6,19.6a6.22,6.22,0,0,0,7.2,1.1l28.2-15.1,9.2,30.6a6.21,6.21,0,0,0,5.9,4.4h27.7a6.21,6.21,0,0,0,5.9-4.4l9.2-30.6,28.2,15.1a6.07,6.07,0,0,0,7.2-1.1L334,299.7a6.22,6.22,0,0,0,1.1-7.2L320,264.3l30.6-9.2a6.21,6.21,0,0,0,4.4-5.9V221.5A6.31,6.31,0,0,0,350.5,215.7Z" transform="translate(0.7 0.4)" style="fill:#9ab8e1"/><circle cx="250.7" cy="241.3" r="83" style="fill:#9ab8e1"/><circle cx="250.7" cy="235.8" r="83" style="fill:#cddbf0"/><circle cx="250.7" cy="235.8" r="64.7" style="fill:#9ab8e1"/><circle cx="250.7" cy="242.9" r="41.5" style="fill:#477a9b"/><circle cx="250.7" cy="235.8" r="41.5" style="fill:#cddbf0"/><circle cx="250.7" cy="235.8" r="19.4" style="fill:#9ab8e1"/><path d="M250,177.8a64.69,64.69,0,0,1,64.5,61.1c.1-1.2.2-2.4.2-3.6a64.7,64.7,0,1,0-129.4,0c0,1.2.1,2.4.2,3.6A64.69,64.69,0,0,1,250,177.8Z" transform="translate(0.7 0.4)" style="fill:#477a9b"/><path d="M250,223.1A19.52,19.52,0,0,1,269.1,239a20.88,20.88,0,0,0,.4-3.6,19.4,19.4,0,0,0-38.8,0,14.72,14.72,0,0,0,.4,3.6A19.06,19.06,0,0,1,250,223.1Z" transform="translate(0.7 0.4)" style="fill:#477a9b"/><path d="M268.1,162.2s4.7-5.2,6.1-5.3.4,16.3.4,16.3-5.2-.8-5.7-1.9S268.1,162.2,268.1,162.2Z" transform="translate(0.7 0.4)" style="fill:#f7c4a5"/><polygon points="264.2 164.9 268.8 162.6 273.3 174.1 268.9 176.8 264.2 164.9" style="fill:#fffdff"/><polygon points="271.2 168.7 268.4 175.6 268.9 176.8 273.3 174.1 271.2 168.7" style="fill:#81a6d9"/><path d="M274.4,115.7s-4-2.4-3.2-5.8,4.4-8,6.1-8.5,2,.9,2,.9,2.6-1.7,4.1-1,.4,2.6.4,2.6,6.9-.1,10.7,2.5,5.7,7.1,5.8,12.3a30,30,0,0,1-1.4,9.8l-6.7,2.5Z" transform="translate(0.7 0.4)" style="fill:#545172"/><path d="M279.4,146.7s-5.1,7.7-6.1,10.1-6,37.1-6,37.1-2,.1-1.9,1.4a11.56,11.56,0,0,1,0,2.1l-11.9,8.3,6.3,15.5L273,212l-4,19.7h3.5l-2.7,91.7h47.6l-5-26.1.9-55.6h.8s9.1-33.8,9.4-38.8-8.3-47-10.5-49.9-15.3-10.6-15.3-10.6Z" transform="translate(0.7 0.4)" style="fill:#f26724"/><path d="M302.7,168.7s4.1,20.4,5.1,26.3-3.1,6.6-1.1,8l2.1,1.4s-3.4,1.7-3,2.7,1.6,2.9,1.6,2.9l-6.5,27.7.6.4,11.9,3.6-.7,40.6s-12.5-12.3-12.9-17.4-1.9-13-1.9-13L294,255l-7.8-6.5,1.1,18.7s-2.5-7.7-4.4-15.9S272.1,240,272.1,240l.2-8.1,6.4.3,3.2-6.5,7.7,11.3s5.6-1.5,6.8-1.6,4.9-11.7,6.2-17.7-1.8-10-.4-14.3,2,0,2.6-9.4C305.8,184.4,300.8,168.7,302.7,168.7Z" transform="translate(0.7 0.4)" style="fill:#935771"/><path d="M296.8,141.9s-6.6,9.3-8.7,16.4-6.3,29.6-6.3,29.6-4.6-17.8-3.9-28.8,1.6-12.4,1.6-12.4Z" transform="translate(0.7 0.4)" style="fill:#81a6d9"/><path d="M281.6,149.6l-3.3,4.1s.5-6.2,1.1-7c3.1-4.3,17.4-4.8,17.4-4.8l-7.5,13.2-3.6-5.5Z" transform="translate(0.7 0.4)" style="fill:#fffdff"/><path d="M297.5,130.2l-.6,11.7-11.1,7.7h-4.1l-1.2-3.4s1.1-6.8-.3-12.1C278.7,129.3,297.5,130.2,297.5,130.2Z" transform="translate(0.7 0.4)" style="fill:#f7c4a5"/><path d="M280,134.1a33.09,33.09,0,0,1,.5,10.6c10.4-2.8,16.8-12.6,16.8-12.6l.1-1.9c-3.4.3-11.7.6-16.4,1.8A1.88,1.88,0,0,0,280,134.1Z" transform="translate(0.7 0.4)" style="fill:#898192"/><path d="M263.2,163.8s-13.5,8.9-16.7,9.9-3.3-1.7-4.9.7-2,2.1-4,.9-18.9-17.8-21.3-19.4a9,9,0,0,0-5.1-1.4L190.9,152s-5.4,5.7-7.8,7.6-7.3,5.6-6.4,12.4,8.9,22.9,8.9,22.9l2.9,25.6-3,24.5,4.4.6-3.1,77.8h51.8l-6.2-78.9,3-1.7-6.1-21.5,3.5-9.6-6.2-2-1.7-24.9s16.7,9.8,20.5,9.1,23.3-16.6,23.3-16.6Z" transform="translate(0.7 0.4)" style="fill:#477a9b"/><path d="M190.9,151.9l3.6,1.5a7.44,7.44,0,0,1,3.6,3.4l17.6,35.9-4.5-38.3Z" transform="translate(0.7 0.4)" style="fill:#fffdff"/><path d="M208.9,141l.2,3.2a39.25,39.25,0,0,0,2,10.2h0l-1,3.7-3.1.7-16.2-6.9s2.6-3.8,1-17S208.9,141,208.9,141Z" transform="translate(0.7 0.4)" style="fill:#f7c4a5"/><polygon points="207.7 159.2 192.8 148 191.6 152.3 199.6 159.1 207.7 159.2" style="fill:#fffdff"/><path d="M192.1,136.8a7.57,7.57,0,0,1,.1,1.5c3.4,3.6,12.1,12.5,18.1,13.4a48.76,48.76,0,0,1-1.2-7.5l-.2-3.2s-18.6-19.2-17.1-6A11.27,11.27,0,0,1,192.1,136.8Z" transform="translate(0.7 0.4)" style="fill:#898192"/><path d="M213.1,122.3a16.71,16.71,0,0,0,1.1-7.6c-.5-3.9-2.4-6.9-4.3-7.6s-2.7-.2-2.7-.2-1.3-5-7-3.2-9.2,8.7-14,10.5-6.7,1.7-6.7,4,4.2,4.2,4.2,4.2.3,11.1,6,13.2S213.1,122.3,213.1,122.3Z" transform="translate(0.7 0.4)" style="fill:#e58c7e"/><path d="M206.3,113.6s4.8.3,5.8,3.9,2.2,12.1,1.9,16.5c-.3,3.5-1.5,8.2-5.2,10.4s-11.2-2.1-13.4-3.4a6.75,6.75,0,0,1-2.8-2.7s-2.7,1.3-3.8-2,1.2-4.8,2.7-4.5,1.5,3,1.5,3l.6-.3a1.89,1.89,0,0,0,1.1-2.1c-.5-3.4-1.6-11.7-.5-13.1,1.3-1.8,7,.1,9.7-1.4A4.52,4.52,0,0,0,206.3,113.6Z" transform="translate(0.7 0.4)" style="fill:#f7c4a5"/><polygon points="204.5 169 207.7 159.2 210.8 158.6 213.3 167.2 216.3 193.1 204.5 169" style="fill:#81a6d9"/><polygon points="205.3 166.6 208.1 170 208.5 177.2 216.3 193.1 214 173.7 212.4 169.3 213 166.3 210.8 158.6 207.7 159.2 205.3 166.6" style="fill:#f06f76"/><path d="M200.9,225.7c2.2.4,8.7,1.3,12.9.7s8.3,2.2,11.2,3.7a53.15,53.15,0,0,0,7.2,2.6l-2.4-8.4s-29.6-8.7-32.6-10.7-11.8-18.8-11.8-18.8l2.9,25.6C193,225.7,198.8,225.3,200.9,225.7Z" transform="translate(0.7 0.4)" style="fill:#403867"/><path d="M244.6,193.9c-2.8-1.7-6.1-5.7-10.8-11.6-6-7.5-13.8-18.2-13.8-18.2l4.6,20.7C224.6,184.7,239.9,193.6,244.6,193.9Z" transform="translate(0.7 0.4)" style="fill:#403867"/><path d="M226.3,209.6s-15.4-4-15.6-5.5-.7-2-1.7-1.6,0,0-.7-1.7-1.8.4-2.8-1.8-12.6-24.6-13.1-26.7,7.3,9,8.4,11.9,7,14.9,10.1,17.1S226,208,226,208Z" transform="translate(0.7 0.4)" style="fill:#403867"/><path d="M189.7,245.6a109,109,0,0,0,13.3.3,70.41,70.41,0,0,0,9.8-.9l3.5-8.1s4.2,6.2,6.3,7.1,12.6-1.2,12.6-1.2l-3,1.7.2,2.5a62.37,62.37,0,0,1-4.9,5.4,37.2,37.2,0,0,1-6.2,4.7l-4.7,30.7V252.5s-3.6-.2-9.1,4.4-10.2,6.8-13.4,10a39.16,39.16,0,0,0-5.5,6.8Z" transform="translate(0.7 0.4)" style="fill:#403867"/><path d="M207.4,169.6l4.2-.7a6.12,6.12,0,0,0-2.3,3.5c-.6,2.3,1.4,10.7,1.4,10.7l-3.1-6.2Z" transform="translate(0.7 0.4)" style="fill:#6f4c61"/><polygon points="207.7 159.2 206.9 168.5 205.3 166.6 207.7 159.2" style="fill:#6f4c61"/><path d="M206.4,111.6s-.7-5.8-5.9-3.1-8.1,7.7-17.7,8.2" transform="translate(0.7 0.4)" style="fill:none;stroke:#935771;stroke-linecap:round;stroke-miterlimit:10;stroke-width:1.0087000131607056px"/><path d="M203.4,113.6s-1.6,1.5-7.8,2.7" transform="translate(0.7 0.4)" style="fill:none;stroke:#935771;stroke-linecap:round;stroke-miterlimit:10;stroke-width:1.0087000131607056px"/><path d="M192.5,122.4s-4.2,2.8-7.2,2.4" transform="translate(0.7 0.4)" style="fill:none;stroke:#935771;stroke-linecap:round;stroke-miterlimit:10;stroke-width:1.0087000131607056px"/><path d="M192.5,126.5s-2.9,2.4-5.6,2.3" transform="translate(0.7 0.4)" style="fill:none;stroke:#935771;stroke-linecap:round;stroke-miterlimit:10;stroke-width:1.0087000131607056px"/><path d="M191.9,118.3a20,20,0,0,1-7.2.9" transform="translate(0.7 0.4)" style="fill:none;stroke:#935771;stroke-linecap:round;stroke-miterlimit:10;stroke-width:1.0087000131607056px"/><path d="M208,109.4s4,.3,4.9,3.5" transform="translate(0.7 0.4)" style="fill:none;stroke:#935771;stroke-linecap:round;stroke-miterlimit:10;stroke-width:1.0087000131607056px"/><path d="M274.4,115.7s-1.4,14.8.5,19.1,3.1,5.3,6,5A25.31,25.31,0,0,0,291,136c3.2-2.1,4.1-3.9,4.1-3.9a2.56,2.56,0,0,0,3.7-.2c2-1.9,2-4.6,0-6s-3.5,1.9-3.5,1.9l-2.4.8s1.5-11.2-.1-13-5.4-2.4-8.1-.5S276.6,117,274.4,115.7Z" transform="translate(0.7 0.4)" style="fill:#f7c4a5"/><path d="M278,165.8a151.88,151.88,0,0,0,3.8,22s2.7-14.5,4.9-23.9l-1.5-5.8,3-4.7-2.5-3.8h-4.1l-2.5,3.1,1.4,5.8-2.5,7.3Z" transform="translate(0.7 0.4)" style="fill:#477a9b"/><path d="M290.4,172.7s2.8-6.8,3.6-6.8,2.8,4.8,2.8,4.8,1.7-1.1,2.3-.8.2,2.8.2,2.8Z" transform="translate(0.7 0.4)" style="fill:#fffdff"/><path d="M300.1,243.2s-1.9,4.6-2.9,6.5-3.4,4.5-3.2,5.2,3.3,0,3.3,0a33.87,33.87,0,0,0,.5,7.2c.7,3.9,1.4,4.3,2.1,4a.88.88,0,0,0,.7-.8s.5.9,1.3.9a1.07,1.07,0,0,0,1-.8,1.53,1.53,0,0,0,1.4.5c.8-.2,2.3-2.4,2.7-3.8a19.27,19.27,0,0,1,.8-2.3s-1.1,3.5-.8,4.2,2,.2,3-2.9a41.21,41.21,0,0,0,1.8-8.7,36.36,36.36,0,0,0,.1-5.7S307.4,240.9,300.1,243.2Z" transform="translate(0.7 0.4)" style="fill:#f7c4a5"/><path d="M313.3,241.6s-.6-1.6-5.6-2.7-6.3-.9-6.3-.9l-1.3,5.2a30.45,30.45,0,0,1,6.6,1.1,13.18,13.18,0,0,1,5.1,2.5Z" transform="translate(0.7 0.4)" style="fill:#fffdff"/><path d="M297.3,255s.2-3.4.5-6.5c-.2.5-.4.9-.6,1.3-.1.1-.1.2-.2.3a7.46,7.46,0,0,1-.8,3.7,5.75,5.75,0,0,1-1.9,1.5A10.06,10.06,0,0,0,297.3,255Z" transform="translate(0.7 0.4)" style="fill:#898192"/><path d="M308.4,262.1c-.7-.9.3-4.4.3-4.4s-.5,1.3-1.1,2.7c-.3,1-.8,3.1-.6,3.6s1.4.3,2.4-1.5A1,1,0,0,1,308.4,262.1Z" transform="translate(0.7 0.4)" style="fill:#898192"/><path d="M307.3,261a12.59,12.59,0,0,1-1.3,2.5,1.18,1.18,0,0,1-1.9-.2c-.5-.8,1.7-6.3,1.3-6.2s-2.2,5.6-2.2,6a1.44,1.44,0,0,1-1,1c-.5.1-1.1.1-1.2-.8s.9-7.5.5-7.5-1,6.1-1,6.1-.1,1.4-1.3,1.5c-.7.1-1.1-.5-1.4-.9.7,3.5,1.4,3.9,2,3.7a.88.88,0,0,0,.7-.8s.5.9,1.3.9a1.07,1.07,0,0,0,1-.8,1.53,1.53,0,0,0,1.4.5c.8-.2,2.3-2.4,2.7-3.8Z" transform="translate(0.7 0.4)" style="fill:#898192"/><path d="M257.5,215.4s9.9-4.3,9.9-5.7-3.7-2.7-2.8-4.8,4.7,1.4,5.6,0-3.3-5.1-2.7-6.3,2.6,1.3,3.5.7,2.8-19.2,2.8-19.2.7,24.2.7,26a25.28,25.28,0,0,1-1.4,5.8l-13.2,9.2Z" transform="translate(0.7 0.4)" style="fill:#935771"/><path d="M257,221.1s-3.6,4.6-5.8,7.1-6,5.3-7.8,5.3-1.6-2.9-1.6-2.9-2.2,1.8-4,.8a2.09,2.09,0,0,1-.9-2.8,3.4,3.4,0,0,1-2.8.5c-1.4-.6-.7-3.7-.7-3.7a3,3,0,0,1-1.9,1.1c-1-.1-3.2-.6-1.8-3.5s6.5-5.9,9-7.3,11.2-2.4,11.2-2.4S258.1,216.8,257,221.1Z" transform="translate(0.7 0.4)" style="fill:#898192"/><path d="M237.2,213.5s2.2-2.2,3.4-2.5,5.1.9,5.1.9l1.5,5.1s3.8,1.7,5.2,2.1,4.8,2.7,4.9,3.8-1.9,1.3-2.9.9-2.9-1.4-2.9-1.4-3-.5-3.4,0,6.1,2.9,6.3,3.4a1.76,1.76,0,0,1-.6,2.1,3.39,3.39,0,0,1-2.3.7,2.72,2.72,0,0,1-1.4,1.2,3.38,3.38,0,0,1-2.1.4,3.48,3.48,0,0,1-2.9.9c-2.1-.1-12-6.4-12-6.4Z" transform="translate(0.7 0.4)" style="fill:#f7c4a5"/><path d="M245.7,212s-1.1-.3-2.3-.6l-1.9,4.1,4.4-2.8Z" transform="translate(0.7 0.4)" style="fill:#898192"/><path d="M240.1,221.8a3.63,3.63,0,0,0,4.2.5,7.68,7.68,0,0,0,3.6-3.4s3,.5,4-1-5.5-3.3-5.5-3.3Z" transform="translate(0.7 0.4)" style="fill:#898192"/><path d="M251.1,209.6s-1.8-.9-2.9-.5-5.8,4.1-6.7,6.4-1.1,5.1-1.5,5.9,2.4,1.6,3.8.1a29,29,0,0,0,3-4.3s5.4,2.4,7.5-1.1S251.1,209.6,251.1,209.6Z" transform="translate(0.7 0.4)" style="fill:#f7c4a5"/><path d="M253.9,227.9a2.65,2.65,0,0,0,.5-.6,3.22,3.22,0,0,1-1.8.6c-1.2,0-5.7-2.2-5.9-2s4.9,2.8,4.9,2.8A3.15,3.15,0,0,0,253.9,227.9Z" transform="translate(0.7 0.4)" style="fill:#898192"/><path d="M250.3,229.9c.1-.1.2-.1.2-.2a4.42,4.42,0,0,1-1.5-.2c-1.8-.4-4.4-2.6-4.7-2.3s3.8,2.9,3.8,2.9A2.89,2.89,0,0,0,250.3,229.9Z" transform="translate(0.7 0.4)" style="fill:#898192"/><path d="M247,230.9a10.78,10.78,0,0,1-2-.6c-2.6-.9-9-5.1-11.4-6.7l-.4,1.1s9.9,6.4,12,6.4A3.46,3.46,0,0,0,247,230.9Z" transform="translate(0.7 0.4)" style="fill:#898192"/><path d="M233.7,225.3a3.17,3.17,0,0,1,1.8.2c.8.3,1.7,1.6,1.4,2.3s-1.8.8-2.8.3S233.2,225.6,233.7,225.3Z" transform="translate(0.7 0.4)" style="fill:#f7c4a5"/><path d="M237.7,228.2a1.84,1.84,0,0,1,2.1,0c1.3.7,1.6,1.6,1.2,2.2s-1.4.7-2.5-.2S237.4,228.6,237.7,228.2Z" transform="translate(0.7 0.4)" style="fill:#f7c4a5"/><path d="M242.6,230.5a3.18,3.18,0,0,1,2.2.1c1.1.6.9,1.3,0,1.7S242,231.5,242.6,230.5Z" transform="translate(0.7 0.4)" style="fill:#f7c4a5"/><path d="M232.4,212l4.9,1.6a94.43,94.43,0,0,1-2.8,9.1c-1.1,2.2-1.5,2.4-1.5,2.4l-4.8-1.4Z" transform="translate(0.7 0.4)" style="fill:#fffdff"/><path d="M254.1,206.8l-3.2,1.7a60.09,60.09,0,0,0,2.7,8A15.37,15.37,0,0,0,257,221l2.3-1.3Z" transform="translate(0.7 0.4)" style="fill:#fffdff"/><path d="M254.6,218.3a19.15,19.15,0,0,0,2.4,2.8l2.3-1.3-1.5-3.6h0Z" transform="translate(0.7 0.4)" style="fill:#81a6d9"/><path d="M229.3,220.2l-1.3,3.5,4.8,1.4s.4-.2,1.5-2.4a6.89,6.89,0,0,0,.3-.8Z" transform="translate(0.7 0.4)" style="fill:#81a6d9"/><path d="M309.7,245.4a8.27,8.27,0,0,1,2.2,1.4l1.5-5.1s-.3-.8-2.2-1.6Z" transform="translate(0.7 0.4)" style="fill:#81a6d9"/><circle cx="226.1" cy="220.4" r="1.3" style="fill:#ffc672"/><circle cx="222.5" cy="219.4" r="1.3" style="fill:#ffc672"/><circle cx="219" cy="218.3" r="1.3" style="fill:#ffc672"/><polygon points="282.3 150 280.2 154.6 279.8 153.1 282.3 150" style="fill:#403867"/><path d="M285.7,149.6l.9,4.3-2.4,4.2h-2.3a14.81,14.81,0,0,1,2.8,5c.7,2.6-.1,10.4-.1,10.4l2.1-9.5-1.5-5.8,3-4.7Z" transform="translate(0.7 0.4)" style="fill:#403867"/><line x1="296.2" y1="118.6" x2="299.8" y2="118.6" style="fill:none;stroke:#3c3966;stroke-linecap:round;stroke-miterlimit:10;stroke-width:1.0351999998092651px"/><line x1="296.2" y1="121.8" x2="299.3" y2="121.8" style="fill:none;stroke:#3c3966;stroke-linecap:round;stroke-miterlimit:10;stroke-width:1.0351999998092651px"/><circle cx="283.1" cy="196.3" r="1.2" style="fill:#935771"/><circle cx="283.1" cy="208.5" r="1.2" style="fill:#935771"/><rect x="32.1" y="126.7" width="52.4" height="100" style="fill:#ffc672"/><rect x="396.8" y="100.8" width="52.4" height="132.8" style="fill:#7ba859"/><path d="M166.9,337.3s-4.8,8,2.2,14.3,20.5-10,20.5-10L174.7,333Z" transform="translate(0.7 0.4)" style="fill:#f7c4a5"/><path d="M189.6,341.5l-14.9-8.6-7.8,4.4a13,13,0,0,0-1.5,4.9,8.22,8.22,0,0,0,3.5.8c3.6.1,5.9-1.2,9.7,0a17.8,17.8,0,0,1,6,3.9A66.63,66.63,0,0,0,189.6,341.5Z" transform="translate(0.7 0.4)" style="fill:#898192"/><path d="M323,269.2a74.1,74.1,0,0,1-14.7-5.3,52.32,52.32,0,0,0-18-5.3c-4.5-.5-26.6-4.8-34.6-1.6S280,333.8,280,333.8l42.5,3.3s14.3-4,17.9-9.8S323,269.2,323,269.2Z" transform="translate(0.7 0.4)" style="fill:#f7c4a5"/><path d="M296.1,297.5s7,4.7,11.4,4.1a23.75,23.75,0,0,0,7.1-2l-1.8,6.3s5,9.8,7.9,13.3a24.31,24.31,0,0,0,5.6,5.1s3-.8,4-5.7,2.3-16.8,2.3-16.8l7.7,25.7a14.19,14.19,0,0,1-5.2,4.5c-3.7,1.9-7.5,3.5-7.5,3.5Z" transform="translate(0.7 0.4)" style="fill:#898192"/><polygon points="353.4 252.6 323.2 267.9 342.4 332.2 370.6 320.9 353.4 252.6" style="fill:#fffdff"/><path d="M363.8,296.2l-1.7,8.2a14.52,14.52,0,0,1-9.4,10.8l-14.4,5.1,3.4,11.4,28.2-11.3Z" transform="translate(0.7 0.4)" style="fill:#81a6d9"/><path d="M196.1,268.6s10.2-3.9,16.8-5.6,22.3-12.7,26.8-14.2,24,7.5,24,7.5L262,282.8a5.64,5.64,0,0,0,3.7,3c3,1,21.3,8.8,26.3,9.7s19.2,15.8,22.7,20.3,12.7,17.3,13.2,20.7-4.7,7.2-6.3,8.5-5.7,0-5.7,0-5.3,9.6-11.3,10.3a22,22,0,0,1-9.8-.8s-2.8,6.4-9,8.6a18.38,18.38,0,0,1-11.8,0s-5.3,6.3-11.6,7.8-48.4-15.2-64.1-21.4-22.9-12.6-22.9-12.6Z" transform="translate(0.7 0.4)" style="fill:#f7c4a5"/><path d="M191.2,325.4a89.12,89.12,0,0,1-5.1-23.5l-10.5,35s7.1,6.5,22.9,12.6,57.8,22.9,64.1,21.4a8.45,8.45,0,0,0,1.7-.5C246.7,358.2,194.8,334.7,191.2,325.4Z" transform="translate(0.7 0.4)" style="fill:#898192"/><path d="M263.8,256.3s-1.5-.7-3.7-1.6c-6,1.5-19.1,4.9-22.5,7.2-4.5,3-22.2,23.2-22.2,23.2l48.3-26.5Z" transform="translate(0.7 0.4)" style="fill:#898192"/><polygon points="0.7 165.3 179.2 256.7 145.2 339.2 0.7 296 0.7 165.3" style="fill:#477a9b"/><path d="M176.2,261.9l20.3,4.4s-4,28-10.2,45.3c-4.2,11.7-11.6,27.3-11.6,27.3l-28-5.4Z" transform="translate(0.7 0.4)" style="fill:#fffdff"/><path d="M500,164.9,352,248.6s5.7,30,9.7,45,10.7,33.7,10.7,33.7L500,280.8Z" transform="translate(0.7 0.4)" style="fill:#f26724"/><path d="M267.5,255.9a58.85,58.85,0,0,0-18.9,3.4c-9.3,3.5-9.6,4.3-12.4,6.8s-9,9.8-14.1,13.8-8.3,6-8.3,7.5,5,9.2,12.8,8.9,18.3-7.5,18.3-7.5l14.8-5.1s18.2,9.1,30.1,11.3S267.5,255.9,267.5,255.9Z" transform="translate(0.7 0.4)" style="fill:#f7c4a5"/><path d="M214.4,288.8s6.2,4.2,13.4,4.1,12.3-4.4,14.4-6.5a37,37,0,0,0,4.5-6.4v4s9.4-.4,16.5-4,11.6-10.9,11.6-10.9a37.78,37.78,0,0,1-1.5,8c-1.2,3.6-.5,7.5,3.5,10.5a110.24,110.24,0,0,0,11.4,6.9l-27.6-11.1-15.7,5.2C245,288.7,227.4,305,214.4,288.8Z" transform="translate(0.7 0.4)" style="fill:#898192"/><path d="M304.7,355.3a10.75,10.75,0,0,0,3.6-1.4,31.19,31.19,0,0,1-12.2-2.2c-7.3-2.6-37.9-14.6-37.9-14.6L295,354.6A24.47,24.47,0,0,0,304.7,355.3Z" transform="translate(0.7 0.4)" style="fill:#898192"/><path d="M272.1,365.3a22.38,22.38,0,0,0,2.1-2.2l-24.6-9.2Z" transform="translate(0.7 0.4)" style="fill:#898192"/><path d="M262.1,305.4s-6.3.8-9,.3-8.9-5.8-8.9-5.8,7.7,4.2,10.2,3.6,2.5-5.6,2.5-5.6S266.3,304.4,262.1,305.4Z" transform="translate(0.7 0.4)" style="fill:#898192"/><path d="M235.9,322.9s11.7,6.4,14.3,7.1,4.7.3,4.7-1.8a5.27,5.27,0,0,0-1.8-3.6s.2,2.6-2.9,2.7S235.9,322.9,235.9,322.9Z" transform="translate(0.7 0.4)" style="fill:#898192"/><path d="M286,363.2h0a56.36,56.36,0,0,1-18.6-2.6,38.78,38.78,0,0,0,5.8,3.7,11.77,11.77,0,0,0,1-1.1A18.28,18.28,0,0,0,286,363.2Z" transform="translate(0.7 0.4)" style="fill:#898192"/><path d="M244.2,343.7H242l-10.6-6.1s8.3,7.3,9.9,7.8C243.1,345.9,244.2,343.7,244.2,343.7Z" transform="translate(0.7 0.4)" style="fill:#898192"/><path d="M315.2,346.3a9.61,9.61,0,0,0-3.9-6.1c-3.6-2.8-40-23.8-40-23.8l23.6,4.1s4.3,4.3,6.5,6.1a37,37,0,0,0,5.9,3.6s2.9,5,4.9,8.4S316,345,316,345Z" transform="translate(0.7 0.4)" style="fill:#898192"/><path d="M191.2,346.4a9.13,9.13,0,0,0,5.2,7.7c5.3,2.6,10.8,1.8,12.6-1.6s-1-9.3-4.9-11S192.9,338.9,191.2,346.4Z" transform="translate(0.7 0.4)" style="fill:#f7c4a5"/><path d="M197.4,352.2a8.88,8.88,0,0,1-5.2-7.7c.1-.4.2-.8.3-1.1a10.42,10.42,0,0,0-1.3,3,9.13,9.13,0,0,0,5.2,7.7c5.3,2.6,10.8,1.8,12.6-1.6a3.58,3.58,0,0,0,.4-1.1C207.2,354.1,202.2,354.5,197.4,352.2Z" transform="translate(0.7 0.4)" style="fill:#898192"/><path d="M223.6,348.7s-6.7-2.4-10.7.7-3.2,9,2.6,11.8,11.1,1.3,12.6-2.8A7.18,7.18,0,0,0,223.6,348.7Z" transform="translate(0.7 0.4)" style="fill:#f7c4a5"/><path d="M216.4,359.2c-3.9-1.9-5.5-5.2-4.9-8.1-2,3.2-.7,7.8,4.1,10.1,5.8,2.8,11.1,1.3,12.6-2.8l.3-.9C226.4,360.8,221.6,361.8,216.4,359.2Z" transform="translate(0.7 0.4)" style="fill:#898192"/><path d="M227.6,361.9s-.8,4.9,6.9,8c5,2,9.5.9,10.9-2s-1.3-8.7-5-10.3S230.3,355.1,227.6,361.9Z" transform="translate(0.7 0.4)" style="fill:#f7c4a5"/><path d="M235.1,368c-6.1-2.4-6.9-6-6.9-7.4a5.17,5.17,0,0,0-.6,1.3s-.8,4.9,6.9,8c5,2,9.5.9,10.9-2a5.73,5.73,0,0,0,.4-1.4C244.1,369.1,239.8,369.9,235.1,368Z" transform="translate(0.7 0.4)" style="fill:#898192"/><path d="M163.8,291.9l-18.2,22.8a17.62,17.62,0,0,1-19.2,5.7L0,276v19.6l144.5,43.2Z" transform="translate(0.7 0.4)" style="fill:#403867"/><path d="M155.5,311.9h0l-8.8,21.5,28,5.4s2.2-4.6,4.9-10.7l-13.2-4.6A17.54,17.54,0,0,1,155.5,311.9Z" transform="translate(0.7 0.4)" style="fill:#81a6d9"/><path d="M365.2,306h0c3.5,11.2,7.1,21.3,7.1,21.3L500,280.8V257.5L394.7,302.7a51.37,51.37,0,0,1-29.5,3.3Z" transform="translate(0.7 0.4)" style="fill:#935771"/><circle cx="123.5" cy="313" r="8.5" style="fill:#ffc672"/><circle cx="123.5" cy="313" r="5.1" style="fill:#bf9556"/><circle cx="99.9" cy="304.5" r="8.5" style="fill:#ffc672"/><circle cx="99.9" cy="304.5" r="5.1" style="fill:#bf9556"/><circle cx="76.3" cy="296" r="8.5" style="fill:#ffc672"/><circle cx="76.3" cy="296" r="5.1" style="fill:#bf9556"/><path d="M232.2,59a5,5,0,0,0,1.6-4.8c-.7-2.9-1.4-6.8-1.6-8.1s4.9-3.1,6.6-1,1.9,5.9,3,6.4,10.3-4.9,11.9-4.1,3.1,16.6,2.4,18.4-10.4,5.6-11.8,5.6-4.2-2.8-7.4-1.5S232.2,59,232.2,59Z" transform="translate(0.7 0.4)" style="fill:#cddbf0"/><path d="M232.9,56.7l5.5,13.8a2.22,2.22,0,0,1-1.2,2.8L231,75.9a2.17,2.17,0,0,1-2.8-1.1l-5.9-13.7a2.24,2.24,0,0,1,1.2-2.9l6.6-2.6A2,2,0,0,1,232.9,56.7Z" transform="translate(0.7 0.4)" style="fill:#477a9b"/><polygon points="133.8 83.4 117.7 92.2 107.4 127 143.4 137.6 157.3 90.4 133.8 83.4" style="fill:#cddbf0"/><path d="M141.3,98.3,129,94.7a1,1,0,0,1-.7-1.3h0a1,1,0,0,1,1.3-.7l12.2,3.6a1,1,0,0,1,.7,1.3h0A.89.89,0,0,1,141.3,98.3Z" transform="translate(0.7 0.4)" style="fill:#403867"/><path d="M144.8,108.7l-24.3-7.2a1,1,0,0,1-.7-1.3h0a1,1,0,0,1,1.3-.7l24.3,7.2a1,1,0,0,1,.7,1.3h0A1.21,1.21,0,0,1,144.8,108.7Z" transform="translate(0.7 0.4)" style="fill:#403867"/><path d="M142.1,117.8l-24.3-7.2a1,1,0,0,1-.7-1.3h0a1,1,0,0,1,1.3-.7l24.3,7.2a1,1,0,0,1,.7,1.3h0A1.05,1.05,0,0,1,142.1,117.8Z" transform="translate(0.7 0.4)" style="fill:#403867"/><path d="M139.4,126.9l-24.3-7.2a1,1,0,0,1-.7-1.3h0a1,1,0,0,1,1.3-.7l24.3,7.2a1,1,0,0,1,.7,1.3h0A1,1,0,0,1,139.4,126.9Z" transform="translate(0.7 0.4)" style="fill:#403867"/><polygon points="130.2 95.9 133.8 83.4 117.7 92.2 130.2 95.9" style="fill:#81a6d9"/><path d="M361.5,212.7h0a5.23,5.23,0,0,1-4.1-6.2l2.7-13.3,10.3,2.1-2.7,13.3A5.21,5.21,0,0,1,361.5,212.7Z" transform="translate(0.7 0.4)" style="fill:#403867"/><path d="M364.8,208.8l-4.7-.9a8.11,8.11,0,0,1-6.3-9.4l2.1-10.7,20.3,4.1-2.1,10.7A8,8,0,0,1,364.8,208.8Z" transform="translate(0.7 0.4)" style="fill:#cddbf0"/><circle cx="368.6" cy="181.5" r="16.7" style="fill:#ffc672"/><path d="M355.8,196.3s6.5,6.6,17.1,3.4" transform="translate(0.7 0.4)" style="fill:none;stroke:#81a6d9;stroke-linecap:round;stroke-miterlimit:10"/><path d="M354.9,201.2s6.5,6.6,17.1,3.4" transform="translate(0.7 0.4)" style="fill:none;stroke:#81a6d9;stroke-linecap:round;stroke-miterlimit:10"/><path d="M372.3,183.6a3,3,0,0,0-3.5,2.4l-.6,3a20.72,20.72,0,0,1-3.7-.8l.6-2.9a2.89,2.89,0,0,0-2.3-3.5,2.85,2.85,0,0,0-3.5,2,1.27,1.27,0,0,0-.1.6,3.25,3.25,0,0,0,.6,2.7,7.46,7.46,0,0,0,3.2,2.1l-1.5,7.5c.4.2.9.3,1.3.5l1.5-7.3a21.86,21.86,0,0,0,3.7.6l-1.5,7.4c.5,0,.9.1,1.4.1l1.5-7.4a7.61,7.61,0,0,0,3.8-.8,3.23,3.23,0,0,0,1.6-2.2c0-.2.1-.4.1-.6A3.09,3.09,0,0,0,372.3,183.6Zm-9.1,4.1a5,5,0,0,1-2.3-1.6,1.88,1.88,0,0,1-.4-1.6c0-.2.1-.3.1-.5a1.5,1.5,0,0,1,1.8-1.1h.1a1.62,1.62,0,0,1,1.3,1.9Zm9.2.7a5.81,5.81,0,0,1-2.8.6l.6-2.8a1.58,1.58,0,0,1,1.9-1.3h.1a1.39,1.39,0,0,1,1.2,1.7.9.9,0,0,1-.1.5A1.76,1.76,0,0,1,372.4,188.4Z" transform="translate(0.7 0.4)" style="fill:#bf9556"/><ellipse cx="377.1" cy="175.4" rx="4.3" ry="5.7" transform="translate(-33.28 238.93) rotate(-33.68)" style="fill:#fda"/><ellipse cx="357.29" cy="188.88" rx="2.6" ry="3.4" transform="translate(-44.07 230.21) rotate(-33.68)" style="fill:#fda"/><path d="M371.7,162h0a.62.62,0,0,1-.5-.8l.9-4.5a.62.62,0,0,1,.8-.5h0a.62.62,0,0,1,.5.8l-.9,4.5A.69.69,0,0,1,371.7,162Z" transform="translate(0.7 0.4)" style="fill:#fda"/><path d="M359.7,163.4h0a.63.63,0,0,1-.9-.3l-1.9-4.1a.63.63,0,0,1,.3-.9h0a.63.63,0,0,1,.9.3l1.9,4.1A.61.61,0,0,1,359.7,163.4Z" transform="translate(0.7 0.4)" style="fill:#fda"/><path d="M350.9,171.6h0a.78.78,0,0,1-1,.3l-4-2.2a.78.78,0,0,1-.3-1h0a.78.78,0,0,1,1-.3l4,2.2A.91.91,0,0,1,350.9,171.6Z" transform="translate(0.7 0.4)" style="fill:#fda"/><path d="M348.5,183.4h0a.76.76,0,0,1-.6.8l-4.5.5a.76.76,0,0,1-.8-.6h0a.76.76,0,0,1,.6-.8l4.5-.5C348.1,182.7,348.4,183,348.5,183.4Z" transform="translate(0.7 0.4)" style="fill:#fda"/><path d="M353.5,194.3h0a.76.76,0,0,1,0,1l-3.4,3.1a.76.76,0,0,1-1,0h0a.76.76,0,0,1,0-1l3.4-3.1A.67.67,0,0,1,353.5,194.3Z" transform="translate(0.7 0.4)" style="fill:#fda"/><path d="M376,198.8h0a.63.63,0,0,1,.9.3l1.9,4.1a.63.63,0,0,1-.3.9h0a.63.63,0,0,1-.9-.3l-1.9-4.1A.61.61,0,0,1,376,198.8Z" transform="translate(0.7 0.4)" style="fill:#fda"/><path d="M384.9,190.7h0a.78.78,0,0,1,1-.3l4,2.2a.78.78,0,0,1,.3,1h0a.78.78,0,0,1-1,.3l-4-2.2A.73.73,0,0,1,384.9,190.7Z" transform="translate(0.7 0.4)" style="fill:#fda"/><path d="M387.2,178.8h0a.76.76,0,0,1,.6-.8l4.5-.5a.76.76,0,0,1,.8.6h0a.76.76,0,0,1-.6.8l-4.5.5C387.6,179.5,387.3,179.2,387.2,178.8Z" transform="translate(0.7 0.4)" style="fill:#fda"/><path d="M382.2,167.9h0a.76.76,0,0,1,0-1l3.4-3.1a.76.76,0,0,1,1,0h0a.76.76,0,0,1,0,1l-3.4,3.1A.67.67,0,0,1,382.2,167.9Z" transform="translate(0.7 0.4)" style="fill:#fda"/><path d="M82.6,97.7h0a5.33,5.33,0,0,1-7.1-2.4l-6-12.2L79,78.5l6,12.2A5.18,5.18,0,0,1,82.6,97.7Z" transform="translate(0.7 0.4)" style="fill:#403867"/><path d="M82.8,92.7l-4.3,2.1a8,8,0,0,1-10.7-3.7L63,81.3l18.6-9.1L86.4,82A8,8,0,0,1,82.8,92.7Z" transform="translate(0.7 0.4)" style="fill:#cddbf0"/><circle cx="69.1" cy="69.2" r="16.8" style="fill:#ffc672"/><path d="M68.1,88.1s9.2,1.2,15.7-7.7" transform="translate(0.7 0.4)" style="fill:none;stroke:#81a6d9;stroke-linecap:round;stroke-miterlimit:10"/><path d="M70.3,92.6s9.2,1.2,15.7-7.7" transform="translate(0.7 0.4)" style="fill:none;stroke:#81a6d9;stroke-linecap:round;stroke-miterlimit:10"/><path d="M73.5,68.1a3,3,0,0,0-1.3,4l1.3,2.8a22,22,0,0,1-3.4,1.6l-1.3-2.7a3,3,0,0,0-4-1.4,2.77,2.77,0,0,0-1.6,3.7,1.42,1.42,0,0,1,.2.6,2.81,2.81,0,0,0,2.1,1.7,7.12,7.12,0,0,0,3.8-.2L72.6,85c.5-.1.9-.3,1.4-.4l-3.3-6.7A13.89,13.89,0,0,0,74,76.1l3.3,6.8c.4-.3.8-.5,1.2-.8l-3.3-6.8a6.85,6.85,0,0,0,2.5-2.9,3.18,3.18,0,0,0-.1-2.7,2.19,2.19,0,0,0-.3-.5A2.64,2.64,0,0,0,73.5,68.1Zm-4.8,8.8a4.51,4.51,0,0,1-2.8.1,1.76,1.76,0,0,1-1.2-1c-.1-.2-.1-.3-.2-.4a1.4,1.4,0,0,1,.8-1.9h.1a1.65,1.65,0,0,1,2.2.8Zm7.8-5a6,6,0,0,1-1.8,2.2l-1.3-2.6a1.58,1.58,0,0,1,.7-2.2h.1a1.45,1.45,0,0,1,2,.6.76.76,0,0,1,.2.4A1.79,1.79,0,0,1,76.5,71.9Z" transform="translate(0.7 0.4)" style="fill:#bf9556"/><ellipse cx="72.31" cy="58.6" rx="4.3" ry="5.7" transform="translate(-5.86 108.42) rotate(-71.09)" style="fill:#fda"/><ellipse cx="64.78" cy="81.4" rx="2.6" ry="3.4" transform="translate(-32.52 116.71) rotate(-71.09)" style="fill:#fda"/><path d="M59.9,51.3h0A.66.66,0,0,1,59,51l-2-4.1a.66.66,0,0,1,.3-.9h0a.66.66,0,0,1,.9.3l2,4.1A.81.81,0,0,1,59.9,51.3Z" transform="translate(0.7 0.4)" style="fill:#fda"/><path d="M51.2,59.7h0a.69.69,0,0,1-.9.3l-4-2.1A.69.69,0,0,1,46,57h0a.69.69,0,0,1,.9-.3l4,2.1A.63.63,0,0,1,51.2,59.7Z" transform="translate(0.7 0.4)" style="fill:#fda"/><path d="M49.1,71.5h0c.1.4-.2.7-.6.8L44,73c-.4.1-.7-.2-.8-.6h0c-.1-.4.2-.7.6-.8l4.5-.6C48.7,70.9,49.1,71.1,49.1,71.5Z" transform="translate(0.7 0.4)" style="fill:#fda"/><path d="M54.4,82.3h0a.67.67,0,0,1,0,1l-3.3,3.2a.67.67,0,0,1-1,0h0a.67.67,0,0,1,0-1l3.3-3.2A.9.9,0,0,1,54.4,82.3Z" transform="translate(0.7 0.4)" style="fill:#fda"/><path d="M65.1,88h0a.76.76,0,0,1,.6.8l-.8,4.5a.76.76,0,0,1-.8.6h0a.76.76,0,0,1-.6-.8l.8-4.5A.64.64,0,0,1,65.1,88Z" transform="translate(0.7 0.4)" style="fill:#fda"/><path d="M85.7,77.9h0a.69.69,0,0,1,.9-.3l4,2.1a.69.69,0,0,1,.3.9h0c-.2.4-.6.6-.9.4l-4-2.1A.69.69,0,0,1,85.7,77.9Z" transform="translate(0.7 0.4)" style="fill:#fda"/><path d="M87.7,66h0c-.1-.4.2-.7.6-.8l4.5-.6c.4-.1.7.2.8.6h0c.1.4-.2.7-.6.8l-4.5.6C88.1,66.7,87.8,66.4,87.7,66Z" transform="translate(0.7 0.4)" style="fill:#fda"/><path d="M82.4,55.2h0a.67.67,0,0,1,0-1L85.7,51a.67.67,0,0,1,1,0h0a.67.67,0,0,1,0,1l-3.3,3.2A.67.67,0,0,1,82.4,55.2Z" transform="translate(0.7 0.4)" style="fill:#fda"/><path d="M71.8,49.6h0a.76.76,0,0,1-.6-.8l.8-4.5a.76.76,0,0,1,.8-.6h0a.76.76,0,0,1,.6.8L72.6,49A.76.76,0,0,1,71.8,49.6Z" transform="translate(0.7 0.4)" style="fill:#fda"/><path d="M150.8,191.7h-.1a33.25,33.25,0,0,0-1.5-7.5,31.25,31.25,0,0,0-60.7,7.7h-.1v2.3h0a30.9,30.9,0,0,0,1.7,10.3,31.25,31.25,0,0,0,60.8-9.6h0v-3.2Z" transform="translate(0.7 0.4)" style="fill:#806339"/><circle cx="120.3" cy="191.6" r="31.2" style="fill:#ffc672"/><circle cx="120.3" cy="191.6" r="25.2" style="fill:#bf9556"/><path d="M111.4,169.6a25.24,25.24,0,0,1,32,15.6,24.68,24.68,0,0,1,1.3,7,27,27,0,0,0-1.3-9.2,25.21,25.21,0,0,0-49,9.4A25.23,25.23,0,0,1,111.4,169.6Z" transform="translate(0.7 0.4)" style="fill:#806339"/><path d="M459.4,104.3h0a23.22,23.22,0,0,0,.6-4.7,19,19,0,0,0-36.3-8.4h-.1l-.5,1.3h0a18,18,0,0,0-1.2,6.2,19,19,0,0,0,36.7,7.3h0Z" transform="translate(0.7 0.4)" style="fill:#806339"/><circle cx="442.3" cy="97.9" r="28.5" style="fill:#ffc672"/><circle cx="442.3" cy="97.9" r="23.5" style="fill:#bf9556"/><path d="M441.5,83.4a15.4,15.4,0,0,1,14.3,20,16.91,16.91,0,0,0,1.2-5.5,15.31,15.31,0,0,0-29.9-5A15.21,15.21,0,0,1,441.5,83.4Z" transform="translate(0.7 0.4)" style="fill:#806339"/><path d="M380.1,90l-8.4-2.5,4.1-7.7a2.92,2.92,0,0,0,.2-.9h0V75l-1.7,1.5-4.1-4.1a1.81,1.81,0,0,0-2-.3l-7.7,4.1L358,67.8a1.71,1.71,0,0,0-1.6-1.2h-7.6a1.71,1.71,0,0,0-1.6,1.2l-2.5,8.4L337,72.1a1.87,1.87,0,0,0-2,.3l-4.1,4.1L329.2,75v4h0a1.08,1.08,0,0,0,.2.8l4.1,7.7L325.1,90a1.71,1.71,0,0,0-1.2,1.6v7.6a1.71,1.71,0,0,0,1.2,1.6l8.4,2.5-2.8,5.2-1.5-.7v4.1h0a1.61,1.61,0,0,0,.5,1.1l5.3,5.3a1.81,1.81,0,0,0,2,.3l7.7-4.1,2.5,8.4a1.71,1.71,0,0,0,1.6,1.2h7.6a1.71,1.71,0,0,0,1.6-1.2l2.5-8.4,7.7,4.1a1.87,1.87,0,0,0,2-.3l5.3-5.3a1.85,1.85,0,0,0,.5-1.2h0v-3.9l-1.5.6-2.8-5.2,8.4-2.5a1.71,1.71,0,0,0,1.2-1.6V91.6A1.62,1.62,0,0,0,380.1,90Z" transform="translate(0.7 0.4)" style="fill:#81a6d9"/><path d="M380.1,86.1l-8.4-2.5,4.1-7.7a1.87,1.87,0,0,0-.3-2l-5.3-5.3a1.81,1.81,0,0,0-2-.3l-7.7,4.1L358,64a1.71,1.71,0,0,0-1.6-1.2h-7.6a1.71,1.71,0,0,0-1.6,1.2l-2.5,8.4L337,68.3a1.87,1.87,0,0,0-2,.3l-5.3,5.3a1.81,1.81,0,0,0-.3,2l4.1,7.7-8.4,2.5a1.71,1.71,0,0,0-1.2,1.6v7.6a1.71,1.71,0,0,0,1.2,1.6l8.4,2.5-4.1,7.7a1.87,1.87,0,0,0,.3,2l5.3,5.3a1.81,1.81,0,0,0,2,.3l7.7-4.1,2.5,8.4a1.71,1.71,0,0,0,1.6,1.2h7.6A1.71,1.71,0,0,0,358,119l2.5-8.4,7.7,4.1a1.87,1.87,0,0,0,2-.3l5.3-5.3a1.81,1.81,0,0,0,.3-2l-4.1-7.7,8.4-2.5a1.71,1.71,0,0,0,1.2-1.6V87.7A1.62,1.62,0,0,0,380.1,86.1Z" transform="translate(0.7 0.4)" style="fill:#9ab8e1"/><circle cx="353.4" cy="93.4" r="22.6" style="fill:#9ab8e1"/><circle cx="353.4" cy="91.9" r="22.6" style="fill:#cddbf0"/><circle cx="353.4" cy="91.9" r="17.6" style="fill:#9ab8e1"/><circle cx="353.4" cy="93.8" r="11.3" style="fill:#477a9b"/><circle cx="353.4" cy="91.9" r="11.3" style="fill:#cddbf0"/><circle cx="353.4" cy="91.9" r="5.3" style="fill:#9ab8e1"/><path d="M352.7,75.8a17.66,17.66,0,0,1,17.6,16.7v-1a17.6,17.6,0,0,0-35.2,0v1A17.59,17.59,0,0,1,352.7,75.8Z" transform="translate(0.7 0.4)" style="fill:#477a9b"/><path d="M352.7,88.1a5.36,5.36,0,0,1,5.2,4.3,3.08,3.08,0,0,0,.1-1,5.3,5.3,0,0,0-10.6,0,3.4,3.4,0,0,0,.1,1A5.36,5.36,0,0,1,352.7,88.1Z" transform="translate(0.7 0.4)" style="fill:#477a9b"/><polygon points="286.4 150 297.7 138.8 298.4 142.8 290 155.5 286.4 150" style="fill:#fffdff"/><g style="opacity:0.5"><rect x="289.17" y="23.42" width="43" height="30.8" transform="translate(157.58 311.94) rotate(-67.7)" style="fill:gray"/><polygon points="321.8 66 325 61.1 322.9 60.3 321.8 66" style="fill:gray"/><path d="M332.6,34.5a.54.54,0,0,0-.4,1c-2.1,4.5-4,9-5.9,13.6-1.4,3.6-2.8,7.2-4.1,10.8l1.1.5,1.1.5c1.6-3.5,3.2-7,4.6-10.6q2.85-6.9,5.4-13.8l1.1.5a38.38,38.38,0,0,1-1.1,4c-.2.4-.7,1.4-1.2,2.5a44.66,44.66,0,0,0-2.2,4.7,2.47,2.47,0,0,0-.1,1.7.32.32,0,0,0,.3.3c.1,0,.2.1.3,0a.55.55,0,0,0,.4-.6,2.27,2.27,0,0,1,.1-1.1,46.78,46.78,0,0,1,2.1-4.5,16.46,16.46,0,0,0,1.2-2.5c.4-1.1,1.3-4.4,1.3-4.6l.1-.4Z" transform="translate(0.7 0.4)" style="fill:gray"/></g><rect x="287.51" y="21.39" width="43" height="30.8" transform="translate(158.43 309.13) rotate(-67.7)" style="fill:#062337"/><path d="M325,32.1,313.8,59.3l-24-9.8L304,14.9l17.1,7a1.76,1.76,0,0,1,.9,1,1.93,1.93,0,0,1,0,1.3l-.9,2.3a1.69,1.69,0,0,0,.9,2.3l2.2.9a1.79,1.79,0,0,1,.9,1A7.08,7.08,0,0,1,325,32.1Z" transform="translate(0.7 0.4)" style="fill:#fff"/><path d="M322.1,22.9l3,7.8H325a2.19,2.19,0,0,0-.9-1l-2.2-.9a1.72,1.72,0,0,1-.9-2.3l.9-2.3a3,3,0,0,0,.2-1.3Z" transform="translate(0.7 0.4)" style="fill:#ddd"/><path d="M323.4,19.5c-4.2-1.7-8.4-3.4-12.5-5.1a18,18,0,0,0-.8,2.1c.4.2.7.5,1.1.7l-.9,2.1a19.23,19.23,0,0,0,10.2,4.2,18,18,0,0,0,.8-2.1c.4.1.8.2,1.3.3C322.9,20.9,323.2,20.2,323.4,19.5Z" transform="translate(0.7 0.4)" style="fill:#e40000"/><rect x="315.06" y="15.53" width="1.5" height="9.2" transform="translate(178.07 305.09) rotate(-67.7)" style="fill:#ff9d00"/><path d="M304.6,28.1c-.1,0-.2-.1-.3-.2L303,25.3a.51.51,0,1,1,.9-.5l1,2,2.4-1.7a.5.5,0,1,1,.6.8L305,28c-.1.1-.2.2-.4.1Z" transform="translate(0.7 0.4)" style="fill:#8b0"/><path d="M302.1,34.1c-.1,0-.2-.1-.3-.2l-1.3-2.6a.51.51,0,1,1,.9-.5l1,2,2.4-1.7a.5.5,0,1,1,.6.8L302.5,34c0,.1-.2.2-.4.1Z" transform="translate(0.7 0.4)" style="fill:#8b0"/><path d="M299.6,40.1c-.1,0-.2-.1-.3-.2L298,37.3a.51.51,0,0,1,.9-.5l1,2,2.4-1.7a.5.5,0,0,1,.6.8L300,40c0,.1-.1.2-.4.1Z" transform="translate(0.7 0.4)" style="fill:#8b0"/><path d="M297.2,46.1c-.1,0-.2-.1-.3-.2l-1.3-2.6a.51.51,0,0,1,.9-.5l1,2,2.4-1.7a.5.5,0,0,1,.6.8L297.6,46c0,.1-.2.2-.4.1Z" transform="translate(0.7 0.4)" style="fill:#8b0"/><path d="M321.2,33.3l-10.9-4.5a.54.54,0,0,1,.4-1l10.9,4.5a.54.54,0,0,1-.4,1Z" transform="translate(0.7 0.4)" style="fill:#0e2931"/><path d="M318.8,39.3l-10.9-4.5a.54.54,0,0,1,.4-1l10.9,4.5a.52.52,0,0,1,.3.7A.59.59,0,0,1,318.8,39.3Z" transform="translate(0.7 0.4)" style="fill:#0e2931"/><path d="M316.3,45.3l-10.9-4.5a.54.54,0,0,1,.4-1l10.9,4.5a.54.54,0,0,1-.4,1Z" transform="translate(0.7 0.4)" style="fill:#0e2931"/><path d="M313.8,51.3l-10.9-4.5a.54.54,0,0,1,.4-1l10.9,4.5a.54.54,0,0,1-.4,1Z" transform="translate(0.7 0.4)" style="fill:#0e2931"/><polygon points="320.1 64 321.2 58.3 323.3 59.1 320.1 64" style="fill:#062337"/><path d="M332.9,33.9l-1.1-.5-1.1-.5c-2.1,4.6-4.2,9.3-6.1,14.1l1.4.6,1.4.6C329.3,43.4,331.1,38.7,332.9,33.9Z" transform="translate(0.7 0.4)" style="fill:#0c4060"/><path d="M326,47.6l-1.4-.6c-1.4,3.6-2.8,7.2-4.1,10.8l1.1.5,1.1.5c1.6-3.5,3.2-7,4.6-10.6Z" transform="translate(0.7 0.4)" style="fill:#ffc021"/><path d="M329.5,47.9l-.3-.3a5.54,5.54,0,0,1,.1-1.7c.2-.6,1-2.3,2.2-4.7.5-1.1,1-2.1,1.2-2.5a38.38,38.38,0,0,0,1.1-4l-3.4-1.4a.54.54,0,0,1,.4-1L335,34l-.1.4c0,.1-.9,3.5-1.3,4.6-.2.4-.7,1.4-1.2,2.5-.8,1.7-1.9,3.9-2.1,4.5a2.27,2.27,0,0,0-.1,1.1.44.44,0,0,1-.4.6C329.7,48,329.6,48,329.5,47.9Z" transform="translate(0.7 0.4)" style="fill:#ff9d00"/><path d="M180.8,53.1a2.08,2.08,0,0,0-1.1-.1l-2.8-11.2a3,3,0,0,0,.9-1.3,2.69,2.69,0,1,0-3.4,1.7c.1,0,.3.1.4.1l2.7,10.9-11.4-2.8a2.61,2.61,0,0,0-1.8-2,2.69,2.69,0,1,0,1.3,4.1l11.7,2.9a2.67,2.67,0,0,0,5.2,1.1A2.77,2.77,0,0,0,180.8,53.1Z" transform="translate(0.7 0.4)" style="fill:#ffc27f"/><path d="M124.3,174.5H110.4l-2.5,6.1-5.4,1.8v21.8a3,3,0,0,0,3,3h18.8a3,3,0,0,0,3-3V177.5A3,3,0,0,0,124.3,174.5Z" transform="translate(0.7 0.4)" style="fill:#efedee"/><path d="M102.5,182.4h5.9a2,2,0,0,0,2-2v-5.9Z" transform="translate(0.7 0.4)" style="fill:#d4d2d3"/><path d="M127.3,183.4a10.5,10.5,0,1,0,0,19.2V183.4Z" transform="translate(0.7 0.4)" style="fill:#d4d2d3"/><path d="M131,198.8c4.1,1.7,7.4,4.6,4.9,7.1s-5.4-.8-7.1-4.9Z" transform="translate(0.7 0.4)" style="fill:#465059"/><ellipse cx="128.91" cy="198.83" rx="2.5" ry="1.8" transform="translate(-102.13 149.79) rotate(-45)" style="fill:#bab8b9"/><circle cx="123.7" cy="193.3" r="8.4" style="fill:#f26522"/><circle cx="123.7" cy="193.3" r="5.8" style="fill:#aeaeae"/><path d="M120.3,196.3a5.73,5.73,0,0,1,0-8.2,5,5,0,0,1,.8-.7,5.18,5.18,0,0,0-2.2,1.4,5.73,5.73,0,0,0,0,8.2,5.9,5.9,0,0,0,7.4.7A5.62,5.62,0,0,1,120.3,196.3Z" transform="translate(0.7 0.4)" style="fill:#d4dadb"/><path d="M123.9,179.5a.5.5,0,0,0,0-1H113.7a.5.5,0,1,0,0,1Z" transform="translate(0.7 0.4)"/><path d="M123.9,204.3a.5.5,0,1,0,0-1h-7.4a.5.5,0,0,0,0,1Z" transform="translate(0.7 0.4)"/><path d="M118.5,197.4a6.4,6.4,0,1,0,0-9A6.36,6.36,0,0,0,118.5,197.4Zm4.5-9.8a5.25,5.25,0,1,1-3.7,1.5A5.39,5.39,0,0,1,123,187.6Z" transform="translate(0.7 0.4)"/><path d="M120.4,195.7a.52.52,0,0,0,.4.2.76.76,0,0,0,.4-.2.48.48,0,0,0,0-.7l-.4-.4a.49.49,0,1,0-.7.7Z" transform="translate(0.7 0.4)"/><path d="M125,191.1a.52.52,0,0,0,.4.2.76.76,0,0,0,.4-.2.48.48,0,0,0,0-.7l-.4-.4a.49.49,0,0,0-.7.7Z" transform="translate(0.7 0.4)"/><path d="M122.4,194.1h.1a1.61,1.61,0,0,0,1.1-.5,1.85,1.85,0,0,0,.5-1.2.55.55,0,0,0-1.1.1.52.52,0,0,1-.2.4.76.76,0,0,1-.4.2.63.63,0,0,0-.6.5C121.9,193.8,122.2,194.1,122.4,194.1Z" transform="translate(0.7 0.4)"/><path d="M135.2,200.6a13.67,13.67,0,0,0-3.6-2.1,2,2,0,0,0-.6-1.8h0a8.9,8.9,0,0,0-1.8-10.1,9.83,9.83,0,0,0-1.5-1.2v-8a3.54,3.54,0,0,0-3.5-3.5H110.3a.76.76,0,0,0-.4.2L102,182a.52.52,0,0,0-.2.4v17.8a.5.5,0,0,0,1,0V182.9h5.4a2.48,2.48,0,0,0,2.5-2.5V175h13.4a2.48,2.48,0,0,1,2.5,2.5v7.4a8.53,8.53,0,0,0-3.5-.8h-1a.55.55,0,1,0,.1,1.1h1.1a8.34,8.34,0,0,1,3.4,1h0a7,7,0,0,1,1.7,1.3,7.91,7.91,0,0,1-2,12.6h0a8,8,0,0,1-9.8-2.1h0a7,7,0,0,1-1.5-3.4h0a7.65,7.65,0,0,1,2.2-7,8,8,0,0,1,2.7-1.8.54.54,0,0,0-.4-1,7.89,7.89,0,0,0-3.1,2l-.1.1H105.7a.5.5,0,0,0,0,1h9.8a9.06,9.06,0,0,0-1.3,2.6h-8.5a.5.5,0,1,0,0,1H114a7.57,7.57,0,0,0-.1,1.5,3.4,3.4,0,0,0,.1,1h-8.2a.5.5,0,0,0,0,1h8.4a8.49,8.49,0,0,0,1.1,2.6h-9.5a.5.5,0,1,0,0,1H116l.6.6a6.42,6.42,0,0,0,1.3,1,8.7,8.7,0,0,0,8.8.7h0v3.2a2.48,2.48,0,0,1-2.5,2.5H105.4a2.48,2.48,0,0,1-2.5-2.5v-2a.5.5,0,0,0-1,0v2a3.54,3.54,0,0,0,3.5,3.5h18.8a3.54,3.54,0,0,0,3.5-3.5v-2.7h.7a16.57,16.57,0,0,0,2.3,3.8,4.44,4.44,0,0,0,3.3,1.9,3,3,0,0,0,2.2-1,3.16,3.16,0,0,0,1-2.7A5.07,5.07,0,0,0,135.2,200.6Zm-25.3-24.9v4.7a1.54,1.54,0,0,1-1.5,1.5h-4.7Zm18.4,24.8a.6.6,0,0,1-.4-.1v-.1h0a7.63,7.63,0,0,0,1.1-.8,10.7,10.7,0,0,0,1.4-1.6c.1-.1.1-.2.2-.3a1.7,1.7,0,0,1,.1.7,3.69,3.69,0,0,1-.7,1.4A2.67,2.67,0,0,1,128.3,200.5Zm7.3,5.1a2.08,2.08,0,0,1-1.5.7c-1.4,0-3.2-1.9-4.6-5a.1.1,0,0,0,.1-.1,3.92,3.92,0,0,0,1-.8,4.7,4.7,0,0,0,.6-.9h0c2.8,1.3,4.7,2.9,5,4.2A1.81,1.81,0,0,1,135.6,205.6Z" transform="translate(0.7 0.4)"/><path d="M459.4,105.5l-1.2,5.7-6,2.9,1.2-5.7Z" transform="translate(0.7 0.4)" style="fill:#f26522"/><path d="M453.4,108.5l-4.3-5.1,6-2.9.4.5h0l3.9,4.6Z" transform="translate(0.7 0.4)" style="fill:#f58b59"/><path d="M453.4,108.5l-1.2,5.7-4.3-5.1h0l1.2-5.7h0Z" transform="translate(0.7 0.4)" style="fill:#f26522"/><path d="M450.4,85.6l-.4,1.8-6,2.9,1.2-5.7,6-2.9Z" transform="translate(0.7 0.4)" style="fill:#f26522"/><path d="M451.3,81.6l-6,2.9L441,79.4l6-2.9Z" transform="translate(0.7 0.4)" style="fill:#f58b59"/><path d="M445.2,84.6,444,90.3l-4.3-5.1.4-1.8.8-3.9Z" transform="translate(0.7 0.4)" style="fill:#f26522"/><path d="M433,105.9h0l-6,2.9,1.2-5.7,6-2.9Z" transform="translate(0.7 0.4)" style="fill:#f26522"/><path d="M428.2,103.1,423.9,98l5.4-2.7h0l.6-.3,4.3,5.1Z" transform="translate(0.7 0.4)" style="fill:#f58b59"/><path d="M428.2,103.1l-1.2,5.7-4.3-5.1,1.2-5.7h0Z" transform="translate(0.7 0.4)" style="fill:#f26522"/><path d="M443.9,90.9a.75.75,0,0,1-.5-.7l1.2-5.7a.75.75,0,0,1,.7-.5c.3,0,.5.4.5.7l-1.2,5.7A.75.75,0,0,1,443.9,90.9Z" transform="translate(0.7 0.4)"/><path d="M443.9,90.9c-.2,0-.3-.1-.4-.3a.67.67,0,0,1,.3-.8l6-2.9a.6.6,0,0,1,.5,1.1l-6,2.9Z" transform="translate(0.7 0.4)"/><path d="M443.9,90.9c-.1,0-.2-.1-.3-.2l-4.3-5.1a.57.57,0,1,1,.9-.7l4.3,5.1a.53.53,0,0,1-.1.8.75.75,0,0,1-.5.1Z" transform="translate(0.7 0.4)"/><path d="M445.1,85.1c-.2,0-.3-.1-.4-.3a.67.67,0,0,1,.3-.8l6-2.9a.6.6,0,1,1,.5,1.1l-6,2.9C445.4,85.1,445.3,85.2,445.1,85.1Z" transform="translate(0.7 0.4)"/><path d="M445.1,85.1c-.1,0-.2-.1-.3-.2l-4.3-5.1a.57.57,0,1,1,.9-.7l4.3,5.1a.53.53,0,0,1-.1.8.44.44,0,0,1-.5.1Z" transform="translate(0.7 0.4)"/><path d="M440.8,80c-.2,0-.3-.1-.4-.3a.67.67,0,0,1,.3-.8l6-2.9a.6.6,0,0,1,.5,1.1l-6,2.9c-.1,0-.3.1-.4,0Z" transform="translate(0.7 0.4)"/><path d="M451.1,82.2c-.1,0-.2-.1-.3-.2l-4.3-5.1a.57.57,0,0,1,.9-.7l4.3,5.1a.53.53,0,0,1-.1.8.75.75,0,0,1-.5.1Z" transform="translate(0.7 0.4)"/><path d="M439.6,85.8a.75.75,0,0,1-.5-.7l1.2-5.7a.75.75,0,0,1,.7-.5c.3,0,.5.4.5.7l-1.2,5.7A.75.75,0,0,1,439.6,85.8Z" transform="translate(0.7 0.4)"/><path d="M449.9,87.9a.75.75,0,0,1-.5-.7l1.2-5.7a.61.61,0,1,1,1.2.2l-1.2,5.7A.53.53,0,0,1,449.9,87.9Z" transform="translate(0.7 0.4)"/><path d="M452,114.8a.75.75,0,0,1-.5-.7l1.2-5.7a.61.61,0,0,1,1.2.2l-1.2,5.7C452.7,114.6,452.4,114.8,452,114.8Z" transform="translate(0.7 0.4)"/><path d="M452,114.8c-.2,0-.3-.1-.4-.3a.67.67,0,0,1,.3-.8l6-2.9a.6.6,0,0,1,.5,1.1l-6,2.9Z" transform="translate(0.7 0.4)"/><path d="M452,114.8c-.1,0-.2-.1-.3-.2l-4.3-5.1a.57.57,0,0,1,.9-.7l4.3,5.1a.53.53,0,0,1-.1.8.75.75,0,0,1-.5.1Z" transform="translate(0.7 0.4)"/><path d="M453.3,109c-.2,0-.3-.1-.4-.3a.67.67,0,0,1,.3-.8l6-2.9a.6.6,0,0,1,.5,1.1l-6,2.9c-.2,0-.3.1-.4,0Z" transform="translate(0.7 0.4)"/><path d="M453.3,109c-.1,0-.2-.1-.3-.2l-4.3-5.1a.57.57,0,0,1,.9-.7l4.3,5.1a.53.53,0,0,1-.1.8c-.2.1-.4.2-.5.1Z" transform="translate(0.7 0.4)"/><path d="M448.9,103.9c-.2,0-.3-.1-.4-.3a.67.67,0,0,1,.3-.8l6-2.9a.6.6,0,0,1,.5,1.1l-6,2.9Z" transform="translate(0.7 0.4)"/><path d="M459.3,106.1c-.1,0-.2-.1-.3-.2l-4.3-5.1a.57.57,0,0,1,.9-.7l4.3,5.1a.53.53,0,0,1-.1.8,1.09,1.09,0,0,1-.5.1Z" transform="translate(0.7 0.4)"/><path d="M447.7,109.7a.75.75,0,0,1-.5-.7l1.2-5.7a.61.61,0,1,1,1.2.2l-1.2,5.7C448.4,109.5,448,109.7,447.7,109.7Z" transform="translate(0.7 0.4)"/><path d="M458.1,111.8a.75.75,0,0,1-.5-.7l1.2-5.7a.61.61,0,0,1,1.2.2l-1.2,5.7C458.7,111.7,458.4,111.9,458.1,111.8Z" transform="translate(0.7 0.4)"/><path d="M426.8,109.4a.75.75,0,0,1-.5-.7l1.2-5.7a.61.61,0,1,1,1.2.2l-1.2,5.7A.53.53,0,0,1,426.8,109.4Z" transform="translate(0.7 0.4)"/><path d="M426.8,109.4c-.2,0-.3-.1-.4-.3a.67.67,0,0,1,.3-.8l6-2.9a.6.6,0,0,1,.5,1.1l-6,2.9c-.1,0-.2.1-.4,0Z" transform="translate(0.7 0.4)"/><path d="M426.8,109.4c-.1,0-.2-.1-.3-.2l-4.3-5.1a.57.57,0,1,1,.9-.7l4.3,5.1a.53.53,0,0,1-.1.8.44.44,0,0,1-.5.1Z" transform="translate(0.7 0.4)"/><path d="M428,103.7c-.2,0-.3-.1-.4-.3a.67.67,0,0,1,.3-.8l6-2.9a.6.6,0,0,1,.5,1.1l-6,2.9Z" transform="translate(0.7 0.4)"/><path d="M428,103.7c-.1,0-.2-.1-.3-.2l-4.3-5.1a.57.57,0,1,1,.9-.7l4.3,5.1a.53.53,0,0,1-.1.8.75.75,0,0,1-.5.1Z" transform="translate(0.7 0.4)"/><path d="M423.7,98.6c-.2,0-.3-.1-.4-.3a.67.67,0,0,1,.3-.8l6-2.9a.6.6,0,0,1,.5,1.1l-6,2.9Z" transform="translate(0.7 0.4)"/><path d="M434,100.8c-.1,0-.2-.1-.3-.2l-4.3-5.1a.57.57,0,0,1,.9-.7l4.3,5.1a.53.53,0,0,1-.1.8.75.75,0,0,1-.5.1Z" transform="translate(0.7 0.4)"/><path d="M422.5,104.3a.75.75,0,0,1-.5-.7l1.2-5.7a.61.61,0,0,1,1.2.2l-1.2,5.7C423.1,104.2,422.8,104.4,422.5,104.3Z" transform="translate(0.7 0.4)"/><path d="M432.8,106.5a.75.75,0,0,1-.5-.7l1.2-5.7a.61.61,0,1,1,1.2.2l-1.2,5.7A.51.51,0,0,1,432.8,106.5Z" transform="translate(0.7 0.4)"/><path d="M439.8,110.4a14.63,14.63,0,0,1-7.3-4,.57.57,0,1,1,.8-.8,12.41,12.41,0,0,0,6.7,3.7,13.12,13.12,0,0,0,7.6-.7.6.6,0,0,1,.5,1.1,15.67,15.67,0,0,1-8.3.7Z" transform="translate(0.7 0.4)"/><path d="M455.4,101.5h0a.6.6,0,0,1-.4-.8,8.33,8.33,0,0,0,.4-1.5A12.77,12.77,0,0,0,450.2,86a.57.57,0,0,1,.7-.9,14,14,0,0,1,5.7,14.4c-.1.5-.3,1.1-.4,1.6a1.2,1.2,0,0,1-.8.4Z" transform="translate(0.7 0.4)"/><path d="M429.2,96a.63.63,0,0,1-.5-.6,8.75,8.75,0,0,1,.2-1.6,14.15,14.15,0,0,1,11-10.9c.3-.1.6.1.7.5s-.1.6-.5.7a12.7,12.7,0,0,0-10.1,10,7.72,7.72,0,0,0-.2,1.5c0,.2-.2.4-.6.4Z" transform="translate(0.7 0.4)"/></g></svg>