<?xml version="1.0" encoding="utf-8"?>
<!-- Generator: Adobe Illustrator 23.0.1, SVG Export Plug-In . SVG Version: 6.00 Build 0)  -->
<svg version="1.1" id="Layer_1" xmlns="http://www.w3.org/2000/svg" xmlns:xlink="http://www.w3.org/1999/xlink" x="0px" y="0px"
	 viewBox="0 0 1000 1000" style="enable-background:new 0 0 1000 1000;" xml:space="preserve">
<style type="text/css">
	.st0{fill:#F26522;}
</style>
<g>
	<g>
		<path class="st0" d="M414.6,4.1H57.4C25.7,4.1,0,29.8,0,61.4V318c0,31.6,25.7,57.4,57.4,57.4h158.4v52.1H164
			c-11.2,0-20.2,9-20.2,20.2s9,20.2,20.2,20.2h143.7c11.2,0,20.2-9,20.2-20.2s-9-20.2-20.2-20.2H256v-52.1h158.4
			c31.6,0,57.4-25.7,57.4-57.4V61.2C471.7,29.8,446,4.1,414.6,4.1z M431.3,317.8c0,9.2-7.6,16.9-16.9,16.9H57.2
			c-9.4,0-16.9-7.6-16.9-16.9V61.2c0-9.2,7.6-16.9,16.9-16.9h357.2c9.4,0,16.9,7.6,16.9,16.9L431.3,317.8L431.3,317.8z"/>
		<path class="st0" d="M942.6,532.1H585.4c-31.6,0-57.4,25.7-57.4,57.4v256.6c0,31.6,25.7,57.4,57.4,57.4h158.4v52.1h-51.6
			c-11.2,0-20.2,9-20.2,20.2s9,20.2,20.2,20.2h143.7c11.2,0,20.2-9,20.2-20.2s-9-20.2-20.2-20.2h-51.6v-52.1h158.4
			c31.6,0,57.4-25.7,57.4-57.4V589.3C999.8,557.7,974.1,532.1,942.6,532.1z M959.4,845.9c0,9.2-7.6,16.9-16.9,16.9H585.2
			c-9.4,0-16.9-7.6-16.9-16.9V589.3c0-9.2,7.6-16.9,16.9-16.9h357.2c9.2,0,16.9,7.6,16.9,16.9L959.4,845.9L959.4,845.9z"/>
		<path class="st0" d="M763.8,169.4H568.3c-11.2,0-20.2,9-20.2,20.2s9,20.2,20.2,20.2h175.3v193.3l-29.8-29.8c-8-8-20.6-8-28.6,0
			s-8,20.6,0,28.6l64.3,64.3c3.9,3.9,9.2,5.9,14.3,5.9s10.4-2,14.3-5.9l64.3-64.3c8-8,8-20.6,0-28.6s-20.6-8-28.6,0L784,403.1V189.6
			C784,178.4,775.1,169.4,763.8,169.4z"/>
		<path class="st0" d="M431.5,800.8H256.2V607.5l29.8,29.8c3.9,3.9,9.2,5.9,14.3,5.9c5.1,0,10.4-2,14.3-5.9c8-8,8-20.6,0-28.6
			l-64.3-64.3c-8-8-20.6-8-28.6,0l-64.3,64.3c-8,8-8,20.6,0,28.6s20.6,8,28.6,0l29.8-29.8V821c0,11.2,9,20.2,20.2,20.2h195.6
			c11.2,0,20.2-9,20.2-20.2C451.7,809.8,442.5,800.8,431.5,800.8z"/>
	</g>
</g>
</svg>
