<?xml version="1.0" encoding="utf-8"?>
<!-- Generator: Adobe Illustrator 23.0.1, SVG Export Plug-In . SVG Version: 6.00 Build 0)  -->
<svg version="1.1" id="Layer_1" xmlns="http://www.w3.org/2000/svg" xmlns:xlink="http://www.w3.org/1999/xlink" x="0px" y="0px"
	 viewBox="0 0 1000 1000" style="enable-background:new 0 0 1000 1000;" xml:space="preserve">
<style type="text/css">
	.st0{display:none;fill:none;stroke:#565AE4;stroke-width:20;stroke-linecap:round;stroke-linejoin:round;stroke-miterlimit:10;}
	.st1{fill:#F26522;}
</style>
<path class="st0" d="M445.9,467.8c0,0-49.8-13.2-61.7,20.3c-2.1,5.9-2.4,12.3-1.2,18.4c1.9,9.6,7.9,25.3,30.4,35.1
	c9.8,4.3,17.9,10.5,23.9,19.4c7.4,11,13,24.4-4.3,44c-3,3.4-9.8,7.6-16.4,8.7c-8.7,1.4-23.4,1.7-42.7-7"/>
<g>
	<g>
		<g>
			<path class="st1" d="M585.9,756.7c-13.3-1.9-24.6,8.4-24.6,21.2v150H46.9V70.6h514.4V220c0,10.7,7.7,20.4,18.2,21.9
				c13.3,1.9,24.6-8.4,24.6-21.2V49.2c0-11.8-9.6-21.4-21.4-21.4H25.4C13.6,27.8,4,37.4,4,49.2v900.2c0,11.8,9.6,21.4,21.4,21.4
				h557.3c11.8,0,21.4-9.6,21.4-21.4V778.6C604.1,767.9,596.4,758.2,585.9,756.7z"/>
			<path class="st1" d="M983.7,484.3L769.4,270c-8.6-8.1-22.1-7.9-30.2,0.4c-7.9,8.4-7.9,21.4,0,29.8l177.7,177.7h-655
				c-10.5,0-19.9,7.3-21.6,17.8c-2.4,13.5,8.1,25.1,21.2,25.1h655.7l-178,177.6c-8.6,8.1-8.8,21.9-0.4,30.2
				c8.1,8.6,21.9,8.8,30.2,0.4c0.2-0.2,0.4-0.4,0.4-0.4l214.3-214.3C992.1,506.4,992.1,492.7,983.7,484.3z"/>
		</g>
	</g>
</g>
<path class="st1" d="M704.9,318L627,240.1c-3.1-3-8-2.9-11,0.2c-2.9,3-2.9,7.8,0,10.8l64.6,64.6h-238c-3.8,0-7.2,2.6-7.9,6.5
	c-0.9,4.9,3,9.1,7.7,9.1h238.2L616,395.9c-3.1,3-3.2,7.9-0.2,11s7.9,3.2,11,0.2c0.1-0.1,0.2-0.2,0.2-0.2l77.9-77.9
	C708,326.1,708,321.1,704.9,318z"/>
<path class="st1" d="M702.9,672L625,594.1c-3.1-3-8-2.9-11,0.2c-2.9,3-2.9,7.8,0,10.8l64.6,64.6h-238c-3.8,0-7.2,2.6-7.9,6.5
	c-0.9,4.9,3,9.1,7.7,9.1h238.2L614,749.9c-3.1,3-3.2,7.9-0.2,11s7.9,3.2,11,0.2c0.1-0.1,0.2-0.2,0.2-0.2l77.9-77.9
	C706,680.1,706,675.1,702.9,672z"/>
</svg>
