<?xml version="1.0" encoding="utf-8"?>
<!-- Generator: Adobe Illustrator 23.0.1, SVG Export Plug-In . SVG Version: 6.00 Build 0)  -->
<svg version="1.1" id="Layer_1" xmlns="http://www.w3.org/2000/svg" xmlns:xlink="http://www.w3.org/1999/xlink" x="0px" y="0px"
	 viewBox="0 0 401.9 409.4" style="enable-background:new 0 0 401.9 409.4;" xml:space="preserve">
<style type="text/css">
	.st0{fill:none;stroke:#F26522;stroke-width:20;stroke-linecap:round;stroke-linejoin:round;stroke-miterlimit:10;}
	.st1{display:none;fill:none;stroke:#D05D26;stroke-width:20;stroke-linecap:round;stroke-linejoin:round;stroke-miterlimit:10;}
	.st2{fill:none;stroke:#F26522;stroke-width:10;stroke-miterlimit:10;}
</style>
<polyline class="st0" points="167.5,385.1 10,356.8 11.1,53.5 237,10 236.3,225.5 "/>
<path class="st0" d="M339.9,202.5c0-14.4,11.6-26,26-26s26,11.6,26,26c0,11.7-7.1,21.7-17.6,24.9"/>
<circle class="st0" cx="276.8" cy="110.2" r="26"/>
<circle class="st1" cx="280" cy="288.4" r="26"/>
<path class="st0" d="M309.2,120.3c0,0,38.8,12.7,48.8,49.8"/>
<path class="st1" d="M359,232.7c0,0-11.7,36.1-47.7,48.8"/>
<path class="st1" d="M150.7,123.5c0,0-49.8-13.2-61.7,20.3c-2.1,5.9-2.4,12.3-1.2,18.4c1.9,9.6,7.9,25.3,30.4,35.1
	c9.8,4.3,17.9,10.5,23.9,19.4c7.4,11,13,24.4-4.3,44c-3,3.4-9.8,7.6-16.4,8.7c-8.7,1.4-23.4,1.7-42.7-7"/>
<path class="st0" d="M156.1,121.8c0,0-51.4-13.5-64.8,22c-0.7,1.8-0.8,3.7-1.1,5.7c-1.4,7.6,2,29.8,19.4,41.3
	c1.8,1.2,3.8,2.2,5.8,3.1c6.9,3,29.7,13.6,35.8,35c0,0,7.4,28.9-14.7,42.2c-1.3,0.8-3.7,1.6-5.2,2c-8.2,2.3-30.2,4.4-49.9-9.9"/>
<g>
	<g>
		<path class="st2" d="M373,297.1l-24.4-27.3c5.6-1,10.9-3.5,15.4-7.6c6.6-5.9,10.2-14,10.7-22.1c0.5-8.2-2.2-16.6-8.1-23.2
			c-5.9-6.6-14-10.2-22.1-10.7c-8.2-0.5-16.6,2.2-23.2,8.1c-4.5,4-7.6,9.1-9.2,14.5l-24.4-27.3c-2.6-2.9-6.2-4.5-9.8-4.7
			c-3.6-0.2-7.3,1-10.2,3.6l-40.1,35.8c-1.6,1.5-1.8,3.9-0.3,5.6l4.3,4.8c0.9,1,2.2,1.5,3.5,1.3c1.2-0.2,2.5-0.2,3.7-0.2
			c4.9,0.3,9.6,2.4,13.2,6.3c3.5,3.9,5.1,8.9,4.8,13.8c-0.3,4.9-2.4,9.7-6.3,13.2c-3.9,3.5-8.9,5.1-13.8,4.8
			c-4.9-0.3-9.7-2.4-13.2-6.3s-5.1-8.9-4.8-13.8c0.1-1.3,0.3-2.5,0.6-3.7c0.3-1.3,0-2.6-0.9-3.6l-4.3-4.8c-1.5-1.6-3.9-1.8-5.6-0.3
			l-40.1,35.8c-2.9,2.6-4.5,6.2-4.7,9.8c-0.2,3.6,1,7.3,3.6,10.2l24.4,27.3c-5.6,1-10.9,3.5-15.4,7.6c-6.6,5.9-10.2,13.9-10.7,22.1
			s2.2,16.6,8.1,23.2c5.9,6.6,14,10.2,22.1,10.7c8.2,0.5,16.6-2.2,23.2-8.1c4.5-4,7.6-9.1,9.2-14.5l24.4,27.3
			c2.6,2.9,6.2,4.5,9.8,4.7c3.6,0.2,7.3-1,10.2-3.6l40.1-35.8c1.6-1.5,1.8-3.9,0.3-5.6l-4.3-4.8c-0.9-1-2.2-1.5-3.5-1.3
			c-1.2,0.2-2.5,0.2-3.8,0.2c-4.9-0.3-9.6-2.4-13.2-6.3c-3.5-3.9-5.1-8.9-4.8-13.8c0.3-4.9,2.4-9.7,6.3-13.2s8.9-5.1,13.8-4.8
			c4.9,0.3,9.7,2.4,13.2,6.3s5.1,8.9,4.8,13.8c-0.1,1.2-0.3,2.5-0.6,3.7c-0.3,1.3,0,2.6,0.9,3.6l4.3,4.8c0.7,0.8,1.7,1.2,2.7,1.3
			c1,0.1,2.1-0.3,2.8-1l40.1-35.8c2.9-2.6,4.5-6.2,4.7-9.8C376.8,303.7,375.6,300,373,297.1z M366.6,311.2l-37.1,33.2l-0.4-0.4
			c0.2-1,0.3-2.1,0.4-3.1c0.4-6.9-1.9-13.9-6.8-19.5c-5-5.5-11.7-8.6-18.6-9s-14,1.9-19.5,6.8c-5.5,5-8.6,11.7-9,18.6
			s1.9,13.9,6.8,19.5c5,5.5,11.7,8.6,18.6,9c1,0.1,2.1,0,3.1,0l0.4,0.4L267.4,400c-1.3,1.2-2.9,1.7-4.5,1.6s-3.2-0.8-4.4-2.1
			l-29.8-33.3c-1.1-1.2-2.8-1.6-4.3-1.1s-2.5,1.9-2.6,3.5c0,0.3,0,0.6,0,0.8c-0.4,6.2-3,12.2-8,16.7s-11.3,6.5-17.5,6.1
			c-6.2-0.3-12.2-3-16.7-8s-6.5-11.3-6.1-17.5s3-12.2,8-16.7s11.3-6.4,17.5-6.1c0.2,0,0.5,0,0.7,0.1c1.6,0.1,3.1-0.7,3.9-2.2
			c0.7-1.4,0.5-3.2-0.6-4.4L173.1,304c-1.2-1.3-1.7-2.9-1.6-4.6c0.1-1.6,0.8-3.2,2.1-4.3l37.2-33.2l0.4,0.4c-0.2,1-0.3,2.1-0.4,3.1
			c-0.4,6.9,1.9,13.9,6.8,19.5c5,5.5,11.7,8.6,18.6,9c6.9,0.4,14-1.9,19.5-6.8c5.6-5,8.6-11.7,9-18.6s-1.9-13.9-6.8-19.5
			c-5-5.5-11.7-8.6-18.6-9c-1-0.1-2.1,0-3.1,0l-0.4-0.4l37.2-33.2c1.3-1.2,2.9-1.7,4.6-1.6c1.6,0.1,3.2,0.8,4.3,2.1l29.8,33.3
			c1.1,1.2,2.8,1.6,4.3,1.1c1.5-0.6,2.5-2,2.6-3.6c0-0.2,0-0.4,0-0.7c0.4-6.2,3-12.2,8-16.7s11.3-6.5,17.5-6.1
			c6.2,0.3,12.2,3,16.7,8s6.5,11.3,6.1,17.5c-0.3,6.2-3,12.2-8,16.7c-5,4.5-11.3,6.4-17.5,6.1c-0.2,0-0.5,0-0.7-0.1
			c-1.6-0.1-3.1,0.7-3.9,2.2c-0.7,1.4-0.5,3.2,0.6,4.4l29.8,33.3c1.2,1.3,1.7,2.9,1.6,4.6C368.6,308.5,367.9,310.1,366.6,311.2z"/>
	</g>
</g>
</svg>
