<svg id="Layer_1" data-name="Layer 1" xmlns="http://www.w3.org/2000/svg" width="511.98" height="512.18" viewBox="0 0 511.98 512.18"><title>tools</title><path d="M347.8,155.1a10,10,0,1,0,10,10A10,10,0,0,0,347.8,155.1Z" transform="translate(-0.97 0.03)" style="fill:#f26522"/><path d="M166.1,336.8a10,10,0,1,0,10,10A10,10,0,0,0,166.1,336.8Z" transform="translate(-0.97 0.03)" style="fill:#f26522"/><path d="M500.6,61.5a10,10,0,0,0-9.4,2.7L449.7,106H429.8L408,83.3V63.2l40.9-41.5A10,10,0,0,0,445,5.2,102.13,102.13,0,0,0,413,0a100.08,100.08,0,0,0-96.6,125.9l-73.7,73.7L120,76.6V52.4a9.9,9.9,0,0,0-4.9-8.6L44.4,1.4A10,10,0,0,0,32.2,2.9L3.9,31.2A10,10,0,0,0,2.4,43.4l42.4,70.7a10.12,10.12,0,0,0,8.6,4.9H77.5L200.2,242l-73.4,73.4A100,100,0,0,0,1,412a101,101,0,0,0,5.2,31.9,9.69,9.69,0,0,0,7.2,6.5,10,10,0,0,0,9.4-2.7L64.2,406h20L107,428.8v20L65.2,490.3a9.89,9.89,0,0,0-2.7,9.4,10.06,10.06,0,0,0,6.5,7.2,100.14,100.14,0,0,0,113.1-36.4,99.22,99.22,0,0,0,15.5-84.3l58.9-58.9L270,342l-6.2,6.2a10,10,0,0,0,14.1,14.1l5.6-5.6L410.2,494.3l.3.3a60,60,0,0,0,84.9-84.9l-.3-.3L357.3,282.8l5.5-5.5a10,10,0,0,0-14.1-14.1l-6.2,6.2-14.7-13.5L387,196.7a98,98,0,0,0,25.9,3.4A100.06,100.06,0,0,0,507.7,68.2,9.81,9.81,0,0,0,500.6,61.5ZM88.8,101.9a9.81,9.81,0,0,0-7.1-2.8H59.1L23.6,39.8,40.8,22.6,100,58.1V80.7a10.52,10.52,0,0,0,2.9,7.1L228.6,213.7l-14.1,14.1ZM343.1,297,481.4,423.8a40,40,0,0,1-56.5,56.5l-127.1-138Zm-14.7-13.5-44.2,44.2L270.7,313l43-43ZM413,180a79.86,79.86,0,0,1-25.6-4.2,10.07,10.07,0,0,0-10.3,2.4C327,228.4,219,336.4,179.2,376.2a10.07,10.07,0,0,0-2.4,10.3A80,80,0,0,1,101,492a84.57,84.57,0,0,1-8.7-.5L124,460a10,10,0,0,0,3-7.1V424.6a10.33,10.33,0,0,0-2.9-7.1L95.5,388.9a9.9,9.9,0,0,0-7.1-2.9H60.1a10,10,0,0,0-7.1,3L21.5,420.8a84.57,84.57,0,0,1-.5-8.7,80,80,0,0,1,105.5-75.8,10.07,10.07,0,0,0,10.3-2.4c.6-.5,197.8-197.8,197.9-197.9a10.07,10.07,0,0,0,2.4-10.3A79.26,79.26,0,0,1,348,53.5,78.85,78.85,0,0,1,413,20c3,0,6,.2,9,.5L390.9,52.1a10.27,10.27,0,0,0-2.9,7V87.4a9.76,9.76,0,0,0,2.8,6.9l27.6,28.6a9.92,9.92,0,0,0,7.2,3.1h28.3a10,10,0,0,0,7.1-3l31.5-31.8a84.57,84.57,0,0,1,.5,8.7A80.13,80.13,0,0,1,413,180Z" transform="translate(-0.97 0.03)" style="fill:#f26522"/><path d="M312.5,186.4,187.4,311.5a10,10,0,1,0,14.1,14.1L326.6,200.5a10,10,0,1,0-14.1-14.1Z" transform="translate(-0.97 0.03)" style="fill:#f26522"/><path d="M438.9,452A10,10,0,0,0,453,437.9L362.8,348a10,10,0,0,0-14.1,14.1Z" transform="translate(-0.97 0.03)" style="fill:#f26522"/></svg>