<?xml version="1.0" encoding="utf-8"?>
<!-- Generator: Adobe Illustrator 23.0.1, SVG Export Plug-In . SVG Version: 6.00 Build 0)  -->
<svg version="1.1" id="Layer_1" xmlns="http://www.w3.org/2000/svg" xmlns:xlink="http://www.w3.org/1999/xlink" x="0px" y="0px"
	 viewBox="0 0 600 400" style="enable-background:new 0 0 600 400;" xml:space="preserve">
<style type="text/css">
	.st0{fill:none;}
	.st1{fill:#E6E6E6;}
	.st2{fill:#FFFFFF;}
	.st3{fill:#6C63FF;}
	.st4{fill:#9CBF3C;}
	.st5{fill:#F78B41;}
	.st6{fill:#65617D;}
	.st7{fill:#F4F4F7;}
	.st8{fill:#808080;}
	.st9{fill:#EDEDF4;}
	.st10{opacity:0.2;fill:#5A5773;enable-background:new    ;}
	.st11{font-family:'ArialMT';}
	.st12{font-size:2.1px;}
	.st13{font-size:3.71px;}
	.st14{fill:#FFFFFF;stroke:#999999;stroke-width:0.5;stroke-linejoin:round;}
	.st15{fill:#F2F2F2;}
	.st16{fill:#B3B3B3;}
	.st17{fill:#E9E6FB;}
	.st18{fill:#A7DBFF;}
	.st19{fill:#C2ECC9;}
	.st20{fill:#FDCCCC;}
	.st21{fill:#D3CFCF;}
	.st22{opacity:0.3;fill:#FFFFFF;enable-background:new    ;}
</style>
<title>user-details</title>
<rect class="st0" width="600" height="400"/>
<rect x="359.1" y="74.1" class="st1" width="159.9" height="89.9"/>
<rect x="363" y="84.1" class="st2" width="152" height="33.5"/>
<rect x="395.2" y="90.9" class="st1" width="27.4" height="1.6"/>
<rect x="395.2" y="96.7" class="st3" width="42.3" height="1.6"/>
<rect x="395.2" y="102.1" class="st1" width="34.5" height="1.6"/>
<rect x="395.2" y="107.5" class="st1" width="20.1" height="1.6"/>
<rect x="395.2" y="112.8" class="st1" width="30.4" height="1.6"/>
<rect x="382.7" y="90.4" class="st1" width="3.4" height="3.3"/>
<rect x="382.7" y="95.8" class="st3" width="3.4" height="3.3"/>
<rect x="382.7" y="101.2" class="st1" width="3.4" height="3.3"/>
<rect x="382.7" y="106.6" class="st1" width="3.4" height="3.3"/>
<rect x="382.7" y="112" class="st1" width="3.4" height="3.3"/>
<rect x="463.1" y="98" class="st1" width="11.2" height="11.2"/>
<rect x="479.1" y="98" class="st1" width="11.2" height="11.2"/>
<rect x="495.1" y="98" class="st1" width="11.2" height="11.2"/>
<rect x="363" y="123.3" class="st2" width="152" height="33.5"/>
<rect x="388.5" y="126.3" class="st1" width="3.4" height="3.3"/>
<rect x="382.7" y="126.3" class="st3" width="3.4" height="3.3"/>
<path class="st1" d="M439.5,133.6c-3.6-6-11.4-8-17.4-4.5c-1.2,0.7-2.2,1.6-3.1,2.6l-0.8-0.7c5-5.7,13.7-6.3,19.4-1.3
	c1.1,1,2.1,2.1,2.8,3.4L439.5,133.6z"/>
<path class="st4" d="M440,147.7l-0.9-0.6c2.7-4.1,2.9-9.3,0.4-13.5l0.9-0.6C443.1,137.6,443,143.3,440,147.7z"/>
<path class="st4" d="M418.3,149.2c-4.6-5.2-4.7-13-0.1-18.3l0.8,0.7c-4.2,4.8-4.2,12,0.1,16.8L418.3,149.2z"/>
<path class="st4" d="M428.6,153.8c-3.9,0-7.6-1.7-10.3-4.6l0.8-0.7c4.6,5.2,12.6,5.7,17.9,1.1c0.8-0.7,1.5-1.5,2.1-2.4l0.9,0.6
	C437.5,151.5,433.2,153.8,428.6,153.8z"/>
<rect x="463.1" y="133.5" class="st1" width="11.2" height="11.2"/>
<rect x="479.1" y="133.5" class="st1" width="11.2" height="11.2"/>
<rect x="495.1" y="133.5" class="st1" width="11.2" height="11.2"/>
<rect x="382.2" y="140.8" class="st4" width="11.2" height="11.2"/>
<rect x="359" y="74" class="st4" width="160" height="5.8"/>
<circle class="st2" cx="363.3" cy="77" r="1.1"/>
<circle class="st2" cx="367.4" cy="77" r="1.1"/>
<circle class="st2" cx="371.5" cy="77" r="1.1"/>
<rect x="380.1" y="58.1" class="st1" width="159.9" height="89.9"/>
<rect x="384" y="68.1" class="st2" width="152" height="33.5"/>
<rect x="416.2" y="74.9" class="st1" width="27.4" height="1.6"/>
<rect x="416.2" y="80.7" class="st3" width="42.3" height="1.6"/>
<rect x="416.2" y="86.1" class="st1" width="34.5" height="1.6"/>
<rect x="416.2" y="91.5" class="st1" width="20.1" height="1.6"/>
<rect x="416.2" y="96.8" class="st1" width="30.4" height="1.6"/>
<rect x="403.7" y="74.4" class="st1" width="3.4" height="3.3"/>
<rect x="403.7" y="79.8" class="st3" width="3.4" height="3.3"/>
<rect x="403.7" y="85.2" class="st1" width="3.4" height="3.3"/>
<rect x="403.7" y="90.6" class="st1" width="3.4" height="3.3"/>
<rect x="403.7" y="96" class="st1" width="3.4" height="3.3"/>
<rect x="484.1" y="82" class="st1" width="11.2" height="11.2"/>
<rect x="500.1" y="82" class="st1" width="11.2" height="11.2"/>
<rect x="516.1" y="82" class="st1" width="11.2" height="11.2"/>
<rect x="384" y="107.3" class="st2" width="152" height="33.5"/>
<rect x="409.5" y="110.3" class="st1" width="3.4" height="3.3"/>
<rect x="403.7" y="110.3" class="st3" width="3.4" height="3.3"/>
<path class="st1" d="M460.5,117.6c-3.6-6-11.4-8-17.4-4.5c-1.2,0.7-2.2,1.6-3.1,2.6l-0.8-0.7c5-5.7,13.7-6.3,19.4-1.4
	c1.1,1,2.1,2.1,2.8,3.4L460.5,117.6z"/>
<path class="st3" d="M461,131.7l-0.9-0.6c2.7-4.1,2.9-9.3,0.4-13.5l0.9-0.6C464.1,121.6,464,127.3,461,131.7z"/>
<path class="st3" d="M439.3,133.2c-4.6-5.2-4.7-13-0.1-18.3l0.8,0.7c-4.2,4.8-4.2,12,0.1,16.8L439.3,133.2z"/>
<path class="st5" d="M449.6,137.8c-3.9,0-7.6-1.7-10.3-4.6l0.8-0.7c4.6,5.2,12.6,5.7,17.9,1.1c0.8-0.7,1.5-1.5,2.1-2.4l0.9,0.6
	C458.5,135.5,454.2,137.8,449.6,137.8z"/>
<rect x="484.1" y="117.5" class="st1" width="11.2" height="11.2"/>
<rect x="500.1" y="117.5" class="st1" width="11.2" height="11.2"/>
<rect x="516.1" y="117.5" class="st1" width="11.2" height="11.2"/>
<rect x="403.2" y="124.8" class="st5" width="11.2" height="11.2"/>
<rect x="380" y="58" class="st5" width="160" height="5.8"/>
<circle class="st2" cx="384.3" cy="61" r="1.1"/>
<circle class="st2" cx="388.4" cy="61" r="1.1"/>
<circle class="st2" cx="392.5" cy="61" r="1.1"/>
<rect x="400.1" y="44.1" class="st1" width="159.9" height="89.9"/>
<rect x="404" y="54.1" class="st2" width="152" height="33.5"/>
<rect x="436.2" y="61" class="st1" width="27.4" height="1.6"/>
<rect x="436.2" y="66.7" class="st3" width="42.3" height="1.6"/>
<rect x="436.2" y="72.1" class="st1" width="34.5" height="1.6"/>
<rect x="436.2" y="77.5" class="st1" width="20.1" height="1.6"/>
<rect x="436.2" y="82.8" class="st1" width="30.4" height="1.6"/>
<rect x="423.7" y="60.4" class="st1" width="3.4" height="3.3"/>
<rect x="423.7" y="65.8" class="st3" width="3.4" height="3.3"/>
<rect x="423.7" y="71.2" class="st1" width="3.4" height="3.3"/>
<rect x="423.7" y="76.6" class="st1" width="3.4" height="3.3"/>
<rect x="423.7" y="82" class="st1" width="3.4" height="3.3"/>
<rect x="504.1" y="68" class="st1" width="11.2" height="11.2"/>
<rect x="520.1" y="68" class="st1" width="11.2" height="11.2"/>
<rect x="536.1" y="68" class="st1" width="11.2" height="11.2"/>
<rect x="404" y="93.3" class="st2" width="152" height="33.5"/>
<rect x="429.5" y="96.3" class="st1" width="3.4" height="3.3"/>
<rect x="423.7" y="96.3" class="st3" width="3.4" height="3.3"/>
<path class="st1" d="M480.5,103.6c-3.6-6-11.4-8-17.4-4.5c-1.2,0.7-2.2,1.6-3.1,2.6l-0.8-0.7c5-5.7,13.7-6.3,19.4-1.4
	c1.1,1,2.1,2.1,2.8,3.4L480.5,103.6z"/>
<path class="st3" d="M481,117.7l-0.9-0.6c2.7-4.1,2.9-9.3,0.4-13.5l0.9-0.6C484.1,107.6,484,113.3,481,117.7z"/>
<path class="st3" d="M459.3,119.2c-4.6-5.2-4.7-13-0.1-18.3l0.8,0.7c-4.2,4.8-4.2,12,0.1,16.8L459.3,119.2z"/>
<path class="st3" d="M469.6,123.8c-3.9,0-7.6-1.7-10.3-4.6l0.8-0.7c4.6,5.2,12.6,5.7,17.9,1.1c0.8-0.7,1.5-1.5,2.1-2.4l0.9,0.6
	C478.5,121.5,474.2,123.8,469.6,123.8z"/>
<rect x="504.1" y="103.5" class="st1" width="11.2" height="11.2"/>
<rect x="520.1" y="103.5" class="st1" width="11.2" height="11.2"/>
<rect x="536.1" y="103.5" class="st1" width="11.2" height="11.2"/>
<rect x="423.2" y="110.8" class="st1" width="11.2" height="11.2"/>
<rect x="400" y="44" class="st3" width="160" height="5.8"/>
<circle class="st2" cx="404.3" cy="47" r="1.1"/>
<circle class="st2" cx="408.4" cy="47" r="1.1"/>
<circle class="st2" cx="412.5" cy="47" r="1.1"/>
<polygon class="st6" points="512,295 82,295 110,206 484,206 "/>
<rect x="74" y="77" class="st7" width="160" height="90"/>
<rect x="74" y="77" class="st8" width="160" height="5"/>
<ellipse class="st9" cx="77.5" cy="79.4" rx="1" ry="0.9"/>
<ellipse class="st9" cx="80.4" cy="79.4" rx="1" ry="0.9"/>
<ellipse class="st9" cx="83.4" cy="79.4" rx="1" ry="0.9"/>
<rect x="89" y="91.8" class="st2" width="130" height="66"/>
<path class="st10" d="M185.4,104.6c0,1.2-1,2.2-2.2,2.2c0,0,0,0,0,0h-57c-1.2,0-2.2-0.9-2.2-2.1c0-1.2,0.9-2.2,2.1-2.2h57.2
	C184.4,102.4,185.4,103.4,185.4,104.6z"/>
<path class="st10" d="M185.4,124.7c0,1.2-1,2.2-2.2,2.2h-57c-1.2,0-2.2-1-2.2-2.2c0-1.2,1-2.2,2.2-2.2l0,0h57
	C184.4,122.5,185.4,123.5,185.4,124.7z"/>
<path class="st10" d="M185.4,144.9c0,1.2-1,2.2-2.2,2.2h-57c-1.2,0.1-2.3-0.8-2.4-2s0.8-2.3,2-2.4c0.1,0,0.2,0,0.3,0h57.2
	C184.4,142.8,185.4,143.7,185.4,144.9z"/>
<path class="st3" d="M174,102.4v4.3h-47.8c-1.2,0-2.2-0.9-2.2-2.1c0-1.2,0.9-2.2,2.1-2.2H174z"/>
<path class="st3" d="M182.4,122.5v4.3h-56.3c-1.2,0-2.2-1-2.2-2.2c0-1.2,1-2.2,2.2-2.2L182.4,122.5z"/>
<path class="st3" d="M161.6,142.8v4.3h-35.4c-1.2,0.1-2.3-0.8-2.4-2s0.8-2.3,2-2.4c0.1,0,0.2,0,0.3,0L161.6,142.8L161.6,142.8z"/>
<path class="st6" d="M110.2,121.4H110V121h0.2L110.2,121.4z M110.9,121.5c-0.1,0-0.2-0.1-0.4-0.1l0.1-0.4l0.4,0.1L110.9,121.5z
	 M111.5,121.8l-0.2-0.1l0.2-0.3c0.1,0.1,0.3,0.2,0.4,0.3l-0.2,0.3L111.5,121.8z M112.1,122.5c-0.1-0.1-0.1-0.2-0.2-0.3l0.3-0.3
	c0.1,0.1,0.2,0.2,0.3,0.3L112.1,122.5z M112.4,123c0-0.1,0-0.1-0.1-0.2l0.3-0.2c0.1,0.1,0.1,0.3,0.2,0.4l-0.4,0.1
	C112.5,123.1,112.4,123.1,112.4,123z M112.6,123.9c0-0.1,0-0.3,0-0.4l0.4-0.1c0,0.1,0,0.3,0,0.4L112.6,123.9z M112.6,124.5
	c0-0.1,0-0.1,0-0.2l0.4,0.1c0,0.1-0.1,0.3-0.1,0.4l-0.4-0.1C112.5,124.6,112.6,124.6,112.6,124.5z M112.2,125.4
	c0.1-0.1,0.1-0.2,0.2-0.3l0.3,0.2c-0.1,0.1-0.1,0.3-0.2,0.4L112.2,125.4z M111.9,125.9c0-0.1,0.1-0.1,0.1-0.1l0.3,0.2l-0.2,0.2
	L111.9,125.9z"/>
<path class="st6" d="M110,121.4c-1.4-0.1-2.7,1-2.8,2.5c-0.1,1.4,1,2.7,2.5,2.8c0.1,0,0.2,0,0.3,0c0.7,0,1.4-0.3,1.9-0.8l0.3,0.3
	c-1.2,1.2-3.1,1.2-4.2,0c-1.2-1.2-1.2-3.1,0-4.2l0,0c0.6-0.6,1.3-0.9,2.1-0.9V121.4z"/>
<path class="st6" d="M109.8,122.1c0.1,0,0.2,0.1,0.2,0.2v2l1.2,0.7c0.1,0.1,0.1,0.2,0.1,0.3c0,0.1-0.2,0.1-0.2,0.1c0,0,0,0,0,0
	l-1.3-0.8c-0.1,0-0.1-0.1-0.1-0.2v-2.1C109.6,122.2,109.7,122.1,109.8,122.1C109.8,122.1,109.8,122.1,109.8,122.1z"/>
<path class="st6" d="M110.2,102.4H110V102h0.2L110.2,102.4z M110.9,102.5c-0.1,0-0.2-0.1-0.4-0.1l0.1-0.4l0.4,0.1L110.9,102.5z
	 M111.5,102.8l-0.2-0.1l0.2-0.3c0.1,0.1,0.3,0.2,0.4,0.3l-0.2,0.3L111.5,102.8z M112.1,103.5c-0.1-0.1-0.1-0.2-0.2-0.3l0.3-0.3
	c0.1,0.1,0.2,0.2,0.3,0.3L112.1,103.5z M112.4,104c0-0.1,0-0.1-0.1-0.2l0.3-0.2c0.1,0.1,0.1,0.3,0.2,0.4l-0.4,0.1
	C112.5,104.1,112.4,104.1,112.4,104z M112.6,104.9c0-0.1,0-0.3,0-0.4l0.4-0.1c0,0.1,0,0.3,0,0.4L112.6,104.9z M112.6,105.5
	c0-0.1,0-0.1,0-0.2l0.4,0.1c0,0.1-0.1,0.3-0.1,0.4l-0.4-0.1C112.5,105.6,112.6,105.6,112.6,105.5z M112.2,106.4
	c0.1-0.1,0.1-0.2,0.2-0.3l0.3,0.2c-0.1,0.1-0.1,0.3-0.2,0.4L112.2,106.4z M111.9,106.9c0-0.1,0.1-0.1,0.1-0.1l0.3,0.2l-0.2,0.2
	L111.9,106.9z"/>
<path class="st6" d="M110,102.4c-1.4-0.1-2.7,1-2.8,2.5c-0.1,1.4,1,2.7,2.5,2.8c0.1,0,0.2,0,0.3,0c0.7,0,1.4-0.3,1.9-0.8l0.3,0.3
	c-1.2,1.2-3.1,1.2-4.2,0c-1.2-1.2-1.2-3.1,0-4.2l0,0c0.6-0.6,1.3-0.9,2.1-0.9V102.4z"/>
<path class="st6" d="M109.8,103.1c0.1,0,0.2,0.1,0.2,0.2v2l1.2,0.7c0.1,0.1,0.1,0.2,0.1,0.3c0,0.1-0.2,0.1-0.2,0.1c0,0,0,0,0,0
	l-1.3-0.8c-0.1,0-0.1-0.1-0.1-0.2v-2.1C109.6,103.2,109.7,103.1,109.8,103.1C109.8,103.1,109.8,103.1,109.8,103.1z"/>
<path class="st6" d="M110.2,142.4H110V142h0.2L110.2,142.4z M110.9,142.6c-0.1,0-0.2-0.1-0.4-0.1l0.1-0.4l0.4,0.1L110.9,142.6z
	 M111.5,142.8l-0.2-0.1l0.2-0.3c0.1,0.1,0.3,0.2,0.4,0.3l-0.2,0.3L111.5,142.8L111.5,142.8z M112.1,143.5c-0.1-0.1-0.1-0.2-0.2-0.3
	l0.3-0.3c0.1,0.1,0.2,0.2,0.3,0.3L112.1,143.5z M112.4,144c0-0.1,0-0.1-0.1-0.2l0.3-0.2c0.1,0.1,0.1,0.3,0.2,0.4l-0.4,0.1
	C112.5,144.1,112.4,144.1,112.4,144z M112.6,144.9c0-0.1,0-0.3,0-0.4l0.4-0.1c0,0.1,0,0.3,0,0.4L112.6,144.9z M112.6,145.5
	c0-0.1,0-0.1,0-0.2l0.4,0.1c0,0.1-0.1,0.3-0.1,0.4l-0.4-0.1C112.5,145.6,112.6,145.6,112.6,145.5L112.6,145.5z M112.2,146.4
	c0.1-0.1,0.1-0.2,0.2-0.4l0.3,0.2c-0.1,0.1-0.1,0.3-0.2,0.4L112.2,146.4z M111.9,146.9c0-0.1,0.1-0.1,0.1-0.1l0.3,0.2l-0.2,0.2
	L111.9,146.9z"/>
<path class="st6" d="M110,142.4c-1.4-0.1-2.7,1-2.8,2.5c-0.1,1.4,1,2.7,2.5,2.8c0.1,0,0.2,0,0.3,0c0.7,0,1.4-0.3,1.9-0.8l0.3,0.3
	c-1.2,1.2-3.1,1.2-4.2,0c-1.2-1.2-1.2-3.1,0-4.2c0.6-0.6,1.3-0.9,2.1-0.9V142.4z"/>
<path class="st6" d="M109.8,143.1c0.1,0,0.2,0.1,0.2,0.2v2l1.2,0.7c0.1,0.1,0.1,0.2,0.1,0.3c0,0.1-0.2,0.1-0.2,0.1c0,0,0,0,0,0
	l-1.3-0.8c-0.1,0-0.1-0.1-0.1-0.2v-2.1C109.6,143.2,109.7,143.1,109.8,143.1C109.8,143.1,109.8,143.1,109.8,143.1z"/>
<text transform="matrix(1 0 0 1 195.1 104.97)" class="st6 st11 st12">02:25:54</text>
<text transform="matrix(1.23 0 0 1 141.1001 88.8501)" class="st6 st11 st13">TIME S</text>
<text transform="matrix(1.23 0 0 1 153.5967 88.8501)" class="st6 st11 st13">L</text>
<text transform="matrix(1.23 0 0 1 155.5649 88.8501)" class="st6 st11 st13">O</text>
<text transform="matrix(1.23 0 0 1 158.603 88.8501)" class="st6 st11 st13">T D</text>
<text transform="matrix(1.23 0 0 1 164.876 88.8501)" class="st6 st11 st13">E</text>
<text transform="matrix(1.23 0 0 1 167.2007 88.8501)" class="st6 st11 st13">T</text>
<text transform="matrix(1.23 0 0 1 169.1191 88.8501)" class="st6 st11 st13">AILS</text>
<text transform="matrix(1 0 0 1 195.1 124.97)" class="st6 st11 st12">03:20:48</text>
<text transform="matrix(1 0 0 1 195.1 144.97)" class="st6 st11 st12">04:42:11</text>
<rect x="220.5" y="144.5" class="st14" width="160" height="90"/>
<rect x="221" y="145" class="st15" width="159" height="12"/>
<rect x="221" y="230" class="st16" width="159" height="4"/>
<rect x="237" y="188" class="st15" width="127" height="6"/>
<rect x="237" y="197" class="st15" width="127" height="6"/>
<rect x="237" y="206" class="st15" width="127" height="6"/>
<path class="st15" d="M239.7,165h16.7c1.5,0,2.7,1.2,2.7,2.7v10.7c0,1.5-1.2,2.7-2.7,2.7h-16.7c-1.5,0-2.7-1.2-2.7-2.7v-10.7
	C237,166.2,238.2,165,239.7,165z"/>
<path class="st17" d="M239.7,165h16.7c1.5,0,2.7,1.2,2.7,2.7v10.7c0,1.5-1.2,2.7-2.7,2.7h-16.7c-1.5,0-2.7-1.2-2.7-2.7v-10.7
	C237,166.2,238.2,165,239.7,165z"/>
<path class="st18" d="M275.7,165h16.7c1.5,0,2.7,1.2,2.7,2.7v10.7c0,1.5-1.2,2.7-2.7,2.7h-16.7c-1.5,0-2.7-1.2-2.7-2.7v-10.7
	C273,166.2,274.2,165,275.7,165z"/>
<path class="st19" d="M310.7,165h16.7c1.5,0,2.7,1.2,2.7,2.7v10.7c0,1.5-1.2,2.7-2.7,2.7h-16.7c-1.5,0-2.7-1.2-2.7-2.7v-10.7
	C308,166.2,309.2,165,310.7,165z"/>
<path class="st20" d="M344.7,165h16.7c1.5,0,2.7,1.2,2.7,2.7v10.7c0,1.5-1.2,2.7-2.7,2.7h-16.7c-1.5,0-2.7-1.2-2.7-2.7v-10.7
	C342,166.2,343.2,165,344.7,165z"/>
<polygon class="st21" points="398.5,270 210.5,270 220.5,234.5 380.5,234.5 "/>
<path class="st14" d="M328.4,268.5h-51.7c-0.5,0-0.9-0.4-0.9-0.9c0-0.1,0-0.2,0-0.3l2.3-7.6c0.1-0.4,0.5-0.6,0.9-0.7h45.2
	c0.3,0,0.7,0.2,0.8,0.5l4.2,7.6c0.2,0.4,0.1,1-0.4,1.3C328.7,268.5,328.6,268.5,328.4,268.5z"/>
<rect x="106" y="295" class="st6" width="9" height="105"/>
<rect x="474" y="295" class="st6" width="9" height="105"/>
<rect x="427" y="250" class="st6" width="9" height="105"/>
<rect x="427" y="242" class="st6" width="9" height="105"/>
<rect x="174" y="243" class="st6" width="9" height="105"/>
<path class="st6" d="M372,400H228l-7-73.2c0-8.2,6.6-14.8,14.8-14.8l0,0h131.4c8.2,0,14.8,6.6,14.8,14.8c0,0,0,0,0,0L372,400z"/>
<path class="st22" d="M254.8,400h-10.8l-3.6-62.1c-0.1-1.9,1.3-3.6,3.2-3.8c0.1,0,0.2,0,0.3,0h3.5c2.1,0,3.8,1.7,4,3.8l3.6,62
	C254.9,399.9,254.9,400,254.8,400C254.8,400,254.8,400,254.8,400z"/>
<path class="st22" d="M280,400h-10.9l-2.1-62.2c-0.1-2,1.5-3.7,3.5-3.8c0.1,0,0.1,0,0.2,0h3.5c2.1,0,3.8,1.7,3.9,3.8l2.2,62
	C280.2,399.9,280.1,400,280,400C280,400,280,400,280,400z"/>
<path class="st22" d="M298.8,334h3.5c2.1,0,3.8,1.7,3.8,3.8v62c0,0.1-0.1,0.2-0.2,0.2h0H295l0,0v-62.2
	C295,335.7,296.7,334,298.8,334z"/>
<path class="st22" d="M332.7,400h-10.8l2.1-62.2c0.1-2.1,1.8-3.8,3.9-3.8h3.5c2,0,3.6,1.6,3.6,3.6c0,0.1,0,0.1,0,0.2l-2.2,62
	C332.8,399.9,332.8,400,332.7,400z"/>
<path class="st22" d="M356.8,400H346l3.8-62.2c0.1-2.1,1.9-3.8,4-3.8h3.5c1.9,0,3.5,1.5,3.6,3.5c0,0.1,0,0.2,0,0.3l-3.8,62
	C357,399.9,356.9,400,356.8,400C356.8,400,356.8,400,356.8,400z"/>
</svg>
