<svg id="Layer_1" data-name="Layer 1" xmlns="http://www.w3.org/2000/svg" width="600" height="400" viewBox="0 0 600 400"><defs><style>.cls-1,.cls-5,.cls-6,.cls-9{fill:none;}.cls-2{fill:#5e5e5e;}.cls-3,.cls-7{fill:#2ecc71;}.cls-10,.cls-4{fill:#e74c3c;}.cls-5{stroke:#999;opacity:0.5;}.cls-10,.cls-5,.cls-6,.cls-7,.cls-9{stroke-miterlimit:10;stroke-width:0.5px;}.cls-6,.cls-7{stroke:#2ecc71;}.cls-8{fill:#fff;}.cls-10,.cls-9{stroke:#e74c3c;}.cls-11{fill:#cecbf7;}.cls-12{fill:#4384ec;}.cls-13{fill:#2666ce;}.cls-14{fill:#cad8ef;}</style></defs><title>active-user-dashboard</title><rect class="cls-1" width="600" height="400"/><path class="cls-2" d="M121.75,103A16.25,16.25,0,1,1,138,86.75,16.27,16.27,0,0,1,121.75,103Zm0-31.25a15,15,0,1,0,15,15A15,15,0,0,0,121.75,71.75Z"/><path class="cls-2" d="M121.75,86.75A3.75,3.75,0,1,0,118,83,3.75,3.75,0,0,0,121.75,86.75Zm2.5-3.75a2.5,2.5,0,1,1-2.5-2.5A2.5,2.5,0,0,1,124.25,83Zm5,10A1.22,1.22,0,0,1,128,94.25H115.5A1.22,1.22,0,0,1,114.25,93c0-1.25,1.25-5,7.5-5S129.25,91.75,129.25,93ZM128,93a3.3,3.3,0,0,0-1-2.08c-.82-.82-2.35-1.67-5.21-1.67s-4.39.85-5.21,1.66a3.34,3.34,0,0,0-1,2.09Z"/><circle class="cls-3" cx="131.44" cy="75.19" r="4.37"/><path class="cls-2" d="M371.75,54A19.25,19.25,0,1,1,391,34.75,19.28,19.28,0,0,1,371.75,54Zm0-37a17.77,17.77,0,1,0,17.77,17.77A17.79,17.79,0,0,0,371.75,17Z"/><path class="cls-2" d="M371.75,34.75a4.44,4.44,0,1,0-4.44-4.44A4.44,4.44,0,0,0,371.75,34.75Zm3-4.44a3,3,0,1,1-3-3A3,3,0,0,1,374.71,30.31Zm5.92,11.84a1.45,1.45,0,0,1-1.48,1.48h-14.8a1.45,1.45,0,0,1-1.48-1.48c0-1.48,1.48-5.92,8.88-5.92S380.63,40.67,380.63,42.15Zm-1.48,0a3.92,3.92,0,0,0-1.23-2.47c-1-1-2.78-2-6.17-2s-5.21,1-6.17,2a3.92,3.92,0,0,0-1.23,2.47Z"/><circle class="cls-4" cx="383.23" cy="21.05" r="5.18"/><path class="cls-2" d="M515,196a16.25,16.25,0,1,1,15-17.41A16.26,16.26,0,0,1,515,196Zm-2.33-31.16a15,15,0,1,0,16.08,13.84A15,15,0,0,0,512.63,164.79Z"/><path class="cls-2" d="M513.75,179.75a3.75,3.75,0,1,0-4-3.46A3.75,3.75,0,0,0,513.75,179.75Zm2.21-3.93a2.5,2.5,0,1,1-2.68-2.3A2.49,2.49,0,0,1,516,175.82Zm5.74,9.6a1.23,1.23,0,0,1-1.16,1.34l-12.46.94a1.23,1.23,0,0,1-1.34-1.16c-.1-1.24.87-5.08,7.1-5.54S521.6,184.18,521.7,185.42Zm-1.25.09a3.32,3.32,0,0,0-1.19-2c-.88-.75-2.47-1.48-5.32-1.27s-4.32,1.18-5.07,2a3.34,3.34,0,0,0-.89,2.15Z"/><circle class="cls-3" cx="522.55" cy="167.5" r="4.37"/><path class="cls-2" d="M496.75,294A16.25,16.25,0,1,1,513,277.75,16.27,16.27,0,0,1,496.75,294Zm0-31.25a15,15,0,1,0,15,15A15,15,0,0,0,496.75,262.75Z"/><path class="cls-2" d="M496.75,277.75A3.75,3.75,0,1,0,493,274,3.75,3.75,0,0,0,496.75,277.75Zm2.5-3.75a2.5,2.5,0,1,1-2.5-2.5A2.5,2.5,0,0,1,499.25,274Zm5,10a1.22,1.22,0,0,1-1.25,1.25H490.5a1.22,1.22,0,0,1-1.25-1.25c0-1.25,1.25-5,7.5-5S504.25,282.75,504.25,284ZM503,284a3.3,3.3,0,0,0-1-2.08c-.82-.82-2.35-1.67-5.21-1.67s-4.39.85-5.21,1.66a3.34,3.34,0,0,0-1,2.09Z"/><circle class="cls-3" cx="506.44" cy="266.19" r="4.37"/><path class="cls-2" d="M205.75,115.5a13.75,13.75,0,1,1,13.75-13.75A13.77,13.77,0,0,1,205.75,115.5Zm0-26.44a12.69,12.69,0,1,0,12.69,12.69A12.7,12.7,0,0,0,205.75,89.06Z"/><path class="cls-2" d="M205.75,101.75a3.18,3.18,0,1,0-3.17-3.17A3.17,3.17,0,0,0,205.75,101.75Zm2.12-3.17a2.12,2.12,0,1,1-2.12-2.12A2.11,2.11,0,0,1,207.87,98.58ZM212.1,107A1,1,0,0,1,211,108.1H200.46A1,1,0,0,1,199.4,107c0-1.06,1.06-4.23,6.35-4.23S212.1,106,212.1,107ZM211,107a2.81,2.81,0,0,0-.88-1.76c-.69-.69-2-1.4-4.41-1.4s-3.72.71-4.41,1.4a2.81,2.81,0,0,0-.88,1.76Z"/><circle class="cls-4" cx="213.95" cy="91.97" r="3.7"/><path class="cls-2" d="M160.75,175A11.25,11.25,0,1,1,172,163.75,11.27,11.27,0,0,1,160.75,175Zm0-21.63a10.38,10.38,0,1,0,10.38,10.38A10.38,10.38,0,0,0,160.75,153.37Z"/><path class="cls-2" d="M160.75,163.75a2.6,2.6,0,1,0-2.6-2.6A2.6,2.6,0,0,0,160.75,163.75Zm1.73-2.6a1.73,1.73,0,1,1-1.73-1.73A1.72,1.72,0,0,1,162.48,161.15Zm3.46,6.93a.84.84,0,0,1-.86.86h-8.66a.84.84,0,0,1-.86-.86c0-.87.86-3.46,5.19-3.46S165.94,167.21,165.94,168.08Zm-.86,0a2.36,2.36,0,0,0-.72-1.44,6.24,6.24,0,0,0-7.22,0,2.36,2.36,0,0,0-.72,1.44Z"/><circle class="cls-3" cx="167.46" cy="155.75" r="3.03"/><path class="cls-2" d="M135.75,275.75a13,13,0,1,1,13-13A13,13,0,0,1,135.75,275.75Zm0-25a12,12,0,1,0,12,12A12,12,0,0,0,135.75,250.75Z"/><path class="cls-2" d="M135.75,262.75a3,3,0,1,0-3-3A3,3,0,0,0,135.75,262.75Zm2-3a2,2,0,1,1-2-2A2,2,0,0,1,137.75,259.75Zm4,8a1,1,0,0,1-1,1h-10a1,1,0,0,1-1-1c0-1,1-4,6-4S141.75,266.75,141.75,267.75Zm-1,0a2.65,2.65,0,0,0-.83-1.67,7.2,7.2,0,0,0-8.34,0,2.65,2.65,0,0,0-.83,1.67Z"/><circle class="cls-3" cx="143.5" cy="253.5" r="3.5"/><path class="cls-2" d="M90.75,223.75a13,13,0,1,1,13-13A13,13,0,0,1,90.75,223.75Zm0-25a12,12,0,1,0,12,12A12,12,0,0,0,90.75,198.75Z"/><path class="cls-2" d="M90.75,210.75a3,3,0,1,0-3-3A3,3,0,0,0,90.75,210.75Zm2-3a2,2,0,1,1-2-2A2,2,0,0,1,92.75,207.75Zm4,8a1,1,0,0,1-1,1h-10a1,1,0,0,1-1-1c0-1,1-4,6-4S96.75,214.75,96.75,215.75Zm-1,0a2.65,2.65,0,0,0-.83-1.67,5.63,5.63,0,0,0-4.17-1.33,5.63,5.63,0,0,0-4.17,1.33,2.65,2.65,0,0,0-.83,1.67Z"/><circle class="cls-4" cx="98.5" cy="201.5" r="3.5"/><path class="cls-2" d="M504.75,79.75a13,13,0,1,1,13-13A13,13,0,0,1,504.75,79.75Zm0-25a12,12,0,1,0,12,12A12,12,0,0,0,504.75,54.75Z"/><path class="cls-2" d="M504.75,66.75a3,3,0,1,0-3-3A3,3,0,0,0,504.75,66.75Zm2-3a2,2,0,1,1-2-2A2,2,0,0,1,506.75,63.75Zm4,8a1,1,0,0,1-1,1h-10a1,1,0,0,1-1-1c0-1,1-4,6-4S510.75,70.75,510.75,71.75Zm-1,0a2.65,2.65,0,0,0-.83-1.67,7.2,7.2,0,0,0-8.34,0,2.65,2.65,0,0,0-.83,1.67Z"/><circle class="cls-3" cx="512.5" cy="57.5" r="3.5"/><path class="cls-2" d="M246.75,74.75a13,13,0,1,1,13-13A13,13,0,0,1,246.75,74.75Zm0-25a12,12,0,1,0,12,12A12,12,0,0,0,246.75,49.75Z"/><path class="cls-2" d="M246.75,61.75a3,3,0,1,0-3-3A3,3,0,0,0,246.75,61.75Zm2-3a2,2,0,1,1-2-2A2,2,0,0,1,248.75,58.75Zm4,8a1,1,0,0,1-1,1h-10a1,1,0,0,1-1-1c0-1,1-4,6-4S252.75,65.75,252.75,66.75Zm-1,0a2.65,2.65,0,0,0-.83-1.67,7.2,7.2,0,0,0-8.34,0,2.65,2.65,0,0,0-.83,1.67Z"/><circle class="cls-3" cx="254.5" cy="52.5" r="3.5"/><path class="cls-2" d="M190.75,32.5a9.75,9.75,0,1,1,9.75-9.75A9.76,9.76,0,0,1,190.75,32.5Zm0-18.75a9,9,0,1,0,9,9A9,9,0,0,0,190.75,13.75Z"/><path class="cls-2" d="M190.75,22.75a2.25,2.25,0,1,0-2.25-2.25A2.25,2.25,0,0,0,190.75,22.75Zm1.5-2.25a1.5,1.5,0,1,1-1.5-1.5A1.5,1.5,0,0,1,192.25,20.5Zm3,6a.73.73,0,0,1-.75.75H187a.73.73,0,0,1-.75-.75c0-.75.75-3,4.5-3S195.25,25.75,195.25,26.5Zm-.75,0a2,2,0,0,0-.62-1.25,5.4,5.4,0,0,0-6.26,0A2,2,0,0,0,187,26.5Z"/><circle class="cls-3" cx="196.56" cy="15.81" r="2.63"/><path class="cls-2" d="M419.75,100.5A16.75,16.75,0,1,1,436.5,83.75,16.76,16.76,0,0,1,419.75,100.5Zm0-32.21a15.46,15.46,0,1,0,15.46,15.46A15.47,15.47,0,0,0,419.75,68.29Z"/><path class="cls-2" d="M419.75,83.75a3.87,3.87,0,1,0-3.87-3.87A3.87,3.87,0,0,0,419.75,83.75Zm2.58-3.87a2.58,2.58,0,1,1-2.58-2.57A2.58,2.58,0,0,1,422.33,79.88Zm5.15,10.31a1.26,1.26,0,0,1-1.29,1.29H413.31A1.26,1.26,0,0,1,412,90.19c0-1.29,1.29-5.15,7.73-5.15S427.48,88.9,427.48,90.19Zm-1.29,0A3.47,3.47,0,0,0,425.12,88c-.84-.84-2.42-1.71-5.37-1.71s-4.53.87-5.37,1.71a3.47,3.47,0,0,0-1.07,2.15Z"/><circle class="cls-3" cx="429.74" cy="71.83" r="4.51"/><path class="cls-2" d="M455.75,224.75a13,13,0,1,1,13-13A13,13,0,0,1,455.75,224.75Zm0-25a12,12,0,1,0,12,12A12,12,0,0,0,455.75,199.75Z"/><path class="cls-2" d="M455.75,211.75a3,3,0,1,0-3-3A3,3,0,0,0,455.75,211.75Zm2-3a2,2,0,1,1-2-2A2,2,0,0,1,457.75,208.75Zm4,8a1,1,0,0,1-1,1h-10a1,1,0,0,1-1-1c0-1,1-4,6-4S461.75,215.75,461.75,216.75Zm-1,0a2.65,2.65,0,0,0-.83-1.67,7.2,7.2,0,0,0-8.34,0,2.65,2.65,0,0,0-.83,1.67Z"/><circle class="cls-4" cx="463.5" cy="202.5" r="3.5"/><path class="cls-2" d="M428.75,286a7.25,7.25,0,1,1,7.25-7.25A7.26,7.26,0,0,1,428.75,286Zm0-13.94a6.69,6.69,0,1,0,6.69,6.69A6.7,6.7,0,0,0,428.75,272.06Z"/><path class="cls-2" d="M428.75,278.75a1.68,1.68,0,1,0-1.67-1.67A1.67,1.67,0,0,0,428.75,278.75Zm1.12-1.67a1.12,1.12,0,1,1-1.12-1.12A1.12,1.12,0,0,1,429.87,277.08Zm2.23,4.46a.55.55,0,0,1-.56.56H426a.55.55,0,0,1-.56-.56c0-.56.56-2.23,3.35-2.23S432.1,281,432.1,281.54Zm-.56,0a1.5,1.5,0,0,0-.47-.93,4,4,0,0,0-4.64,0,1.5,1.5,0,0,0-.47.93Z"/><circle class="cls-4" cx="433.07" cy="273.59" r="1.95"/><path class="cls-2" d="M475.75,140A10.25,10.25,0,1,1,486,129.75,10.26,10.26,0,0,1,475.75,140Zm0-19.71a9.46,9.46,0,1,0,9.46,9.46A9.47,9.47,0,0,0,475.75,120.29Z"/><path class="cls-2" d="M475.75,129.75a2.37,2.37,0,1,0-2.37-2.37A2.37,2.37,0,0,0,475.75,129.75Zm1.58-2.37a1.58,1.58,0,1,1-1.58-1.57A1.58,1.58,0,0,1,477.33,127.38Zm3.15,6.31a.77.77,0,0,1-.79.79h-7.88a.77.77,0,0,1-.79-.79c0-.79.79-3.15,4.73-3.15S480.48,132.9,480.48,133.69Zm-.79,0a2.1,2.1,0,0,0-.65-1.31,5.68,5.68,0,0,0-6.58,0,2.1,2.1,0,0,0-.65,1.31Z"/><circle class="cls-4" cx="481.86" cy="122.46" r="2.76"/><line class="cls-5" x1="301" y1="201" x2="214.5" y2="111.5"/><line class="cls-5" x1="301.5" y1="200.5" x2="251.5" y2="73.5"/><line class="cls-5" x1="133.5" y1="96.5" x2="301.5" y2="200.5"/><line class="cls-5" x1="171.5" y1="167.5" x2="301.5" y2="200.5"/><line class="cls-5" x1="103.5" y1="210.5" x2="301.5" y2="200.5"/><line class="cls-5" x1="148.5" y1="259.5" x2="301.5" y2="200.5"/><line class="cls-5" x1="422.5" y1="275.5" x2="301.5" y2="201.5"/><line class="cls-5" x1="481.5" y1="270.5" x2="301.5" y2="201.5"/><line class="cls-5" x1="442.5" y1="212.5" x2="301.5" y2="200.5"/><line class="cls-5" x1="498.5" y1="180.5" x2="301.5" y2="200.5"/><line class="cls-5" x1="407.5" y1="95.5" x2="301.5" y2="200.5"/><line class="cls-5" x1="364.5" y1="52.5" x2="301.5" y2="201.5"/><line class="cls-5" x1="494.5" y1="73.5" x2="301.5" y2="201.5"/><line class="cls-5" x1="466.5" y1="134.5" x2="301.5" y2="201.5"/><line class="cls-5" x1="195.5" y1="30.5" x2="301.5" y2="201.5"/><rect class="cls-6" x="193.5" y="339.34" width="102" height="29" rx="3.86"/><path class="cls-7" d="M261.5,339.34h30.11a3.89,3.89,0,0,1,3.89,3.89v21.2a3.91,3.91,0,0,1-3.91,3.91H261.5a0,0,0,0,1,0,0v-29A0,0,0,0,1,261.5,339.34Z"/><path class="cls-3" d="M208.7,353.13c0,3.25-2,5-4.38,5s-4.25-1.93-4.25-4.79,1.87-5,4.39-5S208.7,350.33,208.7,353.13Zm-7.32.15c0,2,1.09,3.83,3,3.83s3-1.78,3-3.93c0-1.87-1-3.83-3-3.83S201.38,351.21,201.38,353.28Z"/><path class="cls-3" d="M210.24,353c0-.7,0-1.27-.06-1.83h1.1l.07,1.12h0a2.49,2.49,0,0,1,2.24-1.28c.94,0,2.4.56,2.4,2.89V358h-1.23V354c0-1.09-.41-2-1.57-2a1.74,1.74,0,0,0-1.65,1.26,1.62,1.62,0,0,0-.09.57V358h-1.23Z"/><path class="cls-3" d="M218,348h1.23V358H218Z"/><path class="cls-3" d="M222.69,349.26a.77.77,0,0,1-1.53,0,.75.75,0,0,1,.77-.77A.74.74,0,0,1,222.69,349.26ZM221.31,358v-6.78h1.24V358Z"/><path class="cls-3" d="M224.59,353c0-.7,0-1.27-.06-1.83h1.1l.07,1.12h0A2.49,2.49,0,0,1,228,351c.94,0,2.4.56,2.4,2.89V358h-1.23V354c0-1.09-.41-2-1.57-2a1.74,1.74,0,0,0-1.65,1.26,1.62,1.62,0,0,0-.09.57V358h-1.23Z"/><path class="cls-3" d="M233,354.78a2.17,2.17,0,0,0,2.33,2.35,4.45,4.45,0,0,0,1.88-.35l.21.89a5.64,5.64,0,0,1-2.26.42,3.15,3.15,0,0,1-3.33-3.42c0-2.05,1.2-3.66,3.18-3.66,2.21,0,2.8,1.95,2.8,3.2,0,.25,0,.44,0,.57Zm3.62-.88a1.76,1.76,0,0,0-1.71-2,2,2,0,0,0-1.89,2Z"/><path class="cls-8" d="M270.88,350h0l-1.58.85-.24-.93,2-1.07h1.05V358h-1.19Z"/><path class="cls-8" d="M275.38,358v-.76l1-.94c2.32-2.21,3.37-3.39,3.39-4.76a1.62,1.62,0,0,0-1.81-1.78,3.11,3.11,0,0,0-1.93.77l-.39-.87a4,4,0,0,1,2.57-.92,2.56,2.56,0,0,1,2.79,2.64c0,1.69-1.22,3-3.14,4.89l-.72.68v0h4.09v1Z"/><path class="cls-8" d="M286.37,358v-2.48h-4.23v-.82l4.07-5.81h1.33v5.66h1.27v1h-1.27V358Zm0-3.45v-3c0-.48,0-.95.05-1.43h-.05c-.28.53-.5.93-.75,1.35l-2.23,3.09v0Z"/><rect class="cls-9" x="303.5" y="339.34" width="102" height="29" rx="3.86"/><path class="cls-10" d="M371.5,339.34h30.11a3.89,3.89,0,0,1,3.89,3.89v21.2a3.91,3.91,0,0,1-3.91,3.91H371.5a0,0,0,0,1,0,0v-29A0,0,0,0,1,371.5,339.34Z"/><path class="cls-4" d="M318.7,353.13c0,3.25-2,5-4.38,5s-4.25-1.93-4.25-4.79,1.87-5,4.39-5S318.7,350.33,318.7,353.13Zm-7.32.15c0,2,1.09,3.83,3,3.83s3-1.78,3-3.93c0-1.87-1-3.83-3-3.83S311.38,351.21,311.38,353.28Z"/><path class="cls-4" d="M324,349.18a1.9,1.9,0,0,0-.84-.21,1.19,1.19,0,0,0-.91.36,2.28,2.28,0,0,0-.45,1.56v.28h2.85v-.3a3.07,3.07,0,0,1,1-2.34,3.17,3.17,0,0,1,2.17-.68,4.36,4.36,0,0,1,2,.44V358h-1.21v-9a2.34,2.34,0,0,0-1-.18c-1.27,0-1.71.94-1.71,2v.34h1.6v.94H325.9V358h-1.24v-5.84h-2.85V358h-1.22v-5.84h-.95v-.94h.95V351a3.24,3.24,0,0,1,.78-2.33,2.6,2.6,0,0,1,1.84-.67,3.1,3.1,0,0,1,1.12.25Z"/><path class="cls-4" d="M333.25,349.26a.77.77,0,0,1-1.53,0,.75.75,0,0,1,.77-.77A.74.74,0,0,1,333.25,349.26ZM331.87,358v-6.78h1.24V358Z"/><path class="cls-4" d="M335.15,353c0-.7,0-1.27-.06-1.83h1.1l.06,1.12h0a2.49,2.49,0,0,1,2.24-1.28c.94,0,2.4.56,2.4,2.89V358h-1.23V354c0-1.09-.41-2-1.57-2a1.77,1.77,0,0,0-1.66,1.26,1.91,1.91,0,0,0-.08.57V358h-1.23Z"/><path class="cls-4" d="M343.6,354.78a2.17,2.17,0,0,0,2.33,2.35,4.45,4.45,0,0,0,1.88-.35l.21.89a5.64,5.64,0,0,1-2.26.42,3.15,3.15,0,0,1-3.33-3.42c0-2.05,1.2-3.66,3.18-3.66,2.21,0,2.8,1.95,2.8,3.2,0,.25,0,.44,0,.57Zm3.62-.88a1.76,1.76,0,0,0-1.71-2,2,2,0,0,0-1.89,2Z"/><path class="cls-8" d="M385.88,350h0l-1.58.85-.24-.93,2-1.07h1.05V358h-1.19Z"/><path class="cls-8" d="M395.82,349.88h-3.48l-.35,2.34a4.62,4.62,0,0,1,.75-.06,3.91,3.91,0,0,1,2,.49A2.61,2.61,0,0,1,396,355a3.16,3.16,0,0,1-3.39,3.11,4.46,4.46,0,0,1-2.27-.56l.31-.94a4,4,0,0,0,2,.51,2,2,0,0,0,2.15-2c0-1.18-.8-2-2.62-2a9.9,9.9,0,0,0-1.26.1l.59-4.37h4.36Z"/><path class="cls-11" d="M419.4,162.79a21.39,21.39,0,0,0-15.91-20.68c.23-.32.45-.66.66-1a11.11,11.11,0,0,0-14.61-15.47,26.37,26.37,0,0,0-25.38-22.2,32.66,32.66,0,0,0-62.12,8.1A13.77,13.77,0,0,0,283.9,130.7a12.8,12.8,0,0,0,.82,1.25,26.42,26.42,0,0,0-12.83,7.79,32.67,32.67,0,0,0-53.73,19.49A13.77,13.77,0,0,0,200,178.4a14.83,14.83,0,0,0,.81,1.25,26.54,26.54,0,0,0,6.55,52.2l75.43.1V182.81a26.26,26.26,0,0,0,8.31,1.34l45.68.06v0l15,0h10.44a27.88,27.88,0,0,0-.83,6.88,27.55,27.55,0,1,0,51.74-13.2A21.34,21.34,0,0,0,419.4,162.79Z"/><polygon class="cls-12" points="344.67 182.14 344.67 108.23 254.51 108.23 254.51 182.14 211.53 182.14 211.53 290.65 387.66 290.65 387.66 182.14 344.67 182.14"/><rect class="cls-8" x="289.86" y="127.08" width="46.02" height="5.07"/><rect class="cls-8" x="289.86" y="151.94" width="46.02" height="5.07"/><rect class="cls-8" x="289.86" y="176.79" width="46.02" height="5.07"/><rect class="cls-8" x="289.86" y="201.65" width="46.02" height="5.07"/><rect class="cls-8" x="289.86" y="226.5" width="46.02" height="5.07"/><rect class="cls-8" x="265.53" y="127.08" width="14.56" height="5.07"/><rect class="cls-8" x="265.53" y="151.94" width="14.56" height="5.07"/><rect class="cls-8" x="265.53" y="176.79" width="14.56" height="5.07"/><rect class="cls-8" x="265.53" y="201.65" width="14.56" height="5.07"/><rect class="cls-8" x="265.53" y="226.5" width="14.56" height="5.07"/><path class="cls-13" d="M254.81,262.32h0V182.19h-8.06v72.07A8.06,8.06,0,0,0,254.81,262.32Z"/><path class="cls-13" d="M344.81,262.32h0V182.19h8.07v72.07A8.06,8.06,0,0,1,344.81,262.32Z"/><rect class="cls-8" x="211.83" y="201.65" width="34.92" height="5.07"/><rect class="cls-14" x="246.75" y="201.65" width="4.03" height="5.07"/><rect class="cls-8" x="211.83" y="226.5" width="34.92" height="5.07"/><rect class="cls-14" x="246.75" y="226.5" width="4.03" height="5.07"/><rect class="cls-8" x="352.88" y="201.65" width="34.92" height="5.07"/><rect class="cls-14" x="348.85" y="201.65" width="4.03" height="5.07"/><rect class="cls-8" x="352.88" y="226.5" width="34.92" height="5.07"/><rect class="cls-14" x="348.85" y="226.5" width="4.03" height="5.07"/><rect class="cls-12" x="200.77" y="290.66" width="198.25" height="7.62"/><rect class="cls-13" x="190.72" y="298.28" width="218.35" height="8.76"/><rect class="cls-13" x="211.88" y="286.18" width="176.03" height="4.48"/><rect class="cls-8" x="289.12" y="266.53" width="26.04" height="24.13"/><rect class="cls-14" x="301.64" y="266.53" width="0.99" height="24.13"/></svg>