<?xml version="1.0" encoding="utf-8"?>
<!-- Generator: Adobe Illustrator 23.0.1, SVG Export Plug-In . SVG Version: 6.00 Build 0)  -->
<svg version="1.1" id="Layer_1" xmlns="http://www.w3.org/2000/svg" xmlns:xlink="http://www.w3.org/1999/xlink" x="0px" y="0px"
	 viewBox="0 0 49 43.4" style="enable-background:new 0 0 49 43.4;" xml:space="preserve">
<style type="text/css">
	.st0{fill:#FFFFFF;}
	.st1{display:none;enable-background:new    ;}
	.st2{font-family:'Arial-BoldMT';}
	.st3{font-size:1.28px;}
</style>
<title>70</title>
<g>
	<path class="st0" d="M28.5,8.6c0-4.7-3.8-8.5-8.5-8.5s-8.5,3.8-8.5,8.5s3.8,8.5,8.5,8.5S28.5,13.3,28.5,8.6L28.5,8.6z M13.5,8.6
		c0-3.6,2.9-6.5,6.5-6.5s6.5,2.9,6.5,6.5s-2.9,6.5-6.5,6.5l0,0C16.4,15.1,13.5,12.2,13.5,8.6z"/>
	<path class="st0" d="M32.5,27.4c-2,0-3.7,1.6-3.7,3.7s1.6,3.7,3.7,3.7s3.7-1.6,3.7-3.7S34.5,27.4,32.5,27.4L32.5,27.4z M32.5,32.7
		c-0.9,0-1.7-0.8-1.7-1.7s0.8-1.7,1.7-1.7s1.7,0.8,1.7,1.7S33.4,32.7,32.5,32.7z"/>
	<path class="st0" d="M43.9,33.2v-4.3l-3-0.5c-0.2-0.5-0.3-1-0.6-1.5l1.8-2.5l-3-3l-2.6,1.8c-0.5-0.2-1-0.4-1.5-0.6l-0.5-3h-4.2
		l-0.5,2.8c-2.3-1.7-5-2.7-7.9-2.7h-3.7c-7.3,0-13.1,5.8-13.1,13v4.4h18.1l-0.4,0.5l3,3l2.5-1.8c0.5,0.2,1,0.4,1.5,0.6l0.5,3h4.3
		l0.5-3c0.5-0.2,1-0.3,1.5-0.6l2.5,1.8l3-3.1L40.3,35c0.2-0.5,0.4-1,0.6-1.5L43.9,33.2z M7,35.1v-2.4c0-6.1,5-11.1,11.1-11.1h3.8
		c1.1,0,2.1,0.2,3.2,0.5l-2.3,2.3l1.8,2.5c-0.2,0.5-0.4,1-0.6,1.5l-3,0.5v4.3l3,0.5c0.2,0.5,0.3,1,0.6,1.5L7,35.1L7,35.1z
		 M39.5,37.4l-0.7,0.7l-2.1-1.6l-0.5,0.3c-0.6,0.4-1.4,0.7-2.1,0.9l-0.6,0.1l-0.4,2.7h-1l-0.6-2.6l-0.6-0.1
		c-0.7-0.2-1.5-0.5-2.1-0.9l-0.6-0.4L26,38.1l-0.7-0.7l1.6-2.2l-0.4-0.5c-0.4-0.6-0.7-1.4-0.9-2.1L25.5,32l-2.7-0.5v-1l2.7-0.4
		l0.1-0.6c0.2-0.7,0.5-1.5,0.9-2.1l0.3-0.5l-1.6-2.2l0.7-0.7l2.2,1.6l0.5-0.3c0.6-0.4,1.4-0.7,2.1-0.9l0.6-0.1l0.4-2.7h1l0.4,2.7
		l0.6,0.1c0.7,0.2,1.5,0.5,2.1,0.9l0.5,0.3l2.2-1.6l0.7,0.7l-1.6,2.2l0.3,0.5c0.4,0.6,0.7,1.4,0.9,2.1l0.1,0.6l2.7,0.4v1l-2.7,0.4
		l-0.1,0.6c-0.2,0.7-0.5,1.5-0.9,2.1l-0.3,0.5L39.5,37.4z"/>
</g>
<text transform="matrix(1 0 0 1 11.7 37.9396)" class="st1 st2 st3">Created by jai</text>
<text transform="matrix(1 0 0 1 11.7 39.2196)" class="st1 st2 st3">from the Noun Project</text>
</svg>
