<svg id="Layer_1" data-name="Layer 1" xmlns="http://www.w3.org/2000/svg" width="391.8" height="323.12" viewBox="0 0 391.8 323.12"><title>analytic</title><path d="M349.2,171.4c-15.4-35.8-57-53.1-92.8-37.8s-53.1,57-37.8,92.8a71.52,71.52,0,0,0,85.1,41l3.8,9.6c-2.6,2.6-3.8,7-1.9,10.2l16.6,39c1.9,5.1,7.7,7,12.8,5.1l9-3.8c5.1-1.9,7-7.7,5.1-12.8l-16.6-39c-1.3-3.8-5.1-5.8-9-5.8l-4.5-9.6C349.8,243.1,363.2,204.7,349.2,171.4ZM234,220.1c-11.5-27.5,1.3-59.5,28.8-71s59.5,1.3,71,28.8-1.3,59.5-28.8,71S245.5,247.6,234,220.1Z" transform="translate(-28.4 -8.9)" style="fill:#fff"/><path d="M217.3,119l16,16c-4.5,3.2-8.3,7.7-12.2,11.5l-15.4-14.7c-4.5,2.6-9.6,4.5-14.7,4.5a30.16,30.16,0,0,1-21.1-9L85.4,175.9a20.79,20.79,0,0,1,.6,6.4,28.8,28.8,0,1,1-28.8-28.8,26.08,26.08,0,0,1,19.2,7.7l85.8-49.3v-3.8a28.8,28.8,0,0,1,57.6,0A20.4,20.4,0,0,1,217.3,119Z" transform="translate(-28.4 -8.9)" style="fill:#fff"/><path d="M317.8,171.4l-7.7,12.2a28.86,28.86,0,1,1-52.5,16.6,29.77,29.77,0,0,1,3.2-13.4l-13.4-13.4c3.2-4.5,7.7-8.3,12.2-11.5L273,175.3a29.2,29.2,0,0,1,12.8-3.2,45.23,45.23,0,0,1,9.6,1.3l8.3-12.8A39.09,39.09,0,0,1,317.8,171.4Z" transform="translate(-28.4 -8.9)" style="fill:#fff"/><path d="M420.2,38.3a28.68,28.68,0,0,1-28.8,28.8c-2.6,0-5.1-.6-7-.6l-46.1,72.3c-4.5-3.8-9-7-13.4-10.2l45.4-72.3a27.7,27.7,0,0,1-7-18.6A28.68,28.68,0,0,1,392.1,8.9,29.47,29.47,0,0,1,420.2,38.3Z" transform="translate(-28.4 -8.9)" style="fill:#fff"/></svg>