<?xml version="1.0" encoding="utf-8"?>
<!-- Generator: Adobe Illustrator 23.0.1, SVG Export Plug-In . SVG Version: 6.00 Build 0)  -->
<svg version="1.1" id="Layer_1" xmlns="http://www.w3.org/2000/svg" xmlns:xlink="http://www.w3.org/1999/xlink" x="0px" y="0px"
	 viewBox="0 0 1000 1000" style="enable-background:new 0 0 1000 1000;" xml:space="preserve">
<style type="text/css">
	.st0{display:none;}
	.st1{fill:#F26522;}
</style>
<g class="st0">
	
		<image style="display:inline;overflow:visible;enable-background:new    ;" width="377" height="313" xlink:href="82E7A05D.html"  transform="matrix(0.9967 0 0 0.9967 270.2689 367.5555)">
	</image>
</g>
<path class="st1" d="M677.7,909.7L164,912.4c0,0-147-7.9-160.2-164.2c0,0-4-111.2,100.6-156.2c0,0-25.2-152.2,121.8-221.1
	c0,0,152.2-70.2,256.8,75.5c0,0,105.9-64.9,193.3,14.6c0,0,64.9,47.7,56.9,133.7c0,0,131.1,60.9,86.1,198.6
	C819.3,793.2,796.8,891.2,677.7,909.7z"/>
<g>
	<path class="st1" d="M472,351.1c0,0-83-79.4-210.1-53c0,0,58.3-213.6,250.7-116.5c0,0,98.9-160.6,275.4-65.3
		c0,0,109.4,47.7,102.4,195.9c0,0,125.3,54.7,104.1,185.3c0,0-19.4,120-130.6,135.9c0,0-21.2-58.3-72.4-79.4
		c0,0-14.1-199.5-238.3-197.7c0,0,70.6-90,150-77.7v53l120-90l-116.5-98.9l-7.1,65.3C699.7,208.1,579.7,197.5,472,351.1z"/>
</g>
<g id="Layer_3">
</g>
</svg>
