<svg id="Layer_1" data-name="Layer 1" xmlns="http://www.w3.org/2000/svg" width="402.78" height="331" viewBox="0 0 402.78 331"><title>azure slider image</title><circle cx="203.8" cy="163.5" r="137.5" style="fill:#f0f5fb;opacity:0.2"/><circle cx="203.8" cy="163.5" r="125.5" style="fill:#f0f5fb;opacity:0.5"/><circle cx="203.8" cy="163.5" r="111.5" style="fill:#f0f5fb"/><polygon points="197.17 142.25 197.17 104 152.71 110.66 152.71 142.25 197.17 142.25" style="fill:#24abe3"/><polygon points="201.85 142.25 246.3 142.25 246.3 96.63 201.85 103.29 201.85 142.25" style="fill:#24abe3"/><polygon points="197.17 146.93 152.71 146.93 152.71 173.84 197.17 180.5 197.17 146.93" style="fill:#24abe3"/><polygon points="201.85 146.93 201.85 181.21 246.3 187.88 246.3 146.93 201.85 146.93" style="fill:#24abe3"/><text transform="translate(137.3 220.32)" style="font-size:18.85106086730957px;fill:#24abe3;font-family:Lato-Bold, Lato;font-weight:700">Microsoft Azure</text><path d="M405.09,178H332.37a25.67,25.67,0,1,1,0-51.33l1.15.12a34.17,34.17,0,0,1,67.29,8.43h4.28a21.39,21.39,0,1,1,0,42.78Z" transform="translate(-45.7 -89)" style="fill:#fff"/><path d="M223.09,127.66a18.48,18.48,0,0,0-24.16-25,34.15,34.15,0,0,0-60.41,12.16l-1.15-.12a25.67,25.67,0,1,0,0,51.33h72.72a21.37,21.37,0,0,0,13-38.34Z" transform="translate(-45.7 -89)" style="fill:#fff"/><path d="M144.09,246.22h-4.28a34.14,34.14,0,0,0-59.47-23,18.49,18.49,0,0,0-26.59,21.44A25.65,25.65,0,0,0,71.37,289h72.72a21.39,21.39,0,0,0,0-42.78Z" transform="translate(-45.7 -89)" style="fill:#fff"/><path d="M253.22,380.38a18.47,18.47,0,0,0-23.39-25.12,34.14,34.14,0,0,0-59.31,13.53l-1.15-.12a25.67,25.67,0,1,0,0,51.33h72.72a21.37,21.37,0,0,0,11.13-39.62Z" transform="translate(-45.7 -89)" style="fill:#fff"/><path d="M442.84,311.18a18.5,18.5,0,0,0-25.14-24.95,34.15,34.15,0,0,0-62.18,9.56l-1.15-.12a25.67,25.67,0,1,0,0,51.33h72.72a21.36,21.36,0,0,0,15.75-35.82Z" transform="translate(-45.7 -89)" style="fill:#fff"/><path d="M391.11,299.1v-8l-10,10,10,10v-8a12,12,0,1,1-12,12h-4a16,16,0,1,0,16-16Z" transform="translate(-45.7 -89)" style="fill:#24abe3"/><path d="M386.11,319.28l2.94-3.91a2.44,2.44,0,0,0,.36-.62,1.68,1.68,0,0,0,.12-.59h0a.8.8,0,0,0-.26-.66,1,1,0,0,0-.74-.24,1,1,0,0,0-.75.29,1.29,1.29,0,0,0-.34.8H386a3.06,3.06,0,0,1,.41-1.31,2.24,2.24,0,0,1,.87-.83,2.61,2.61,0,0,1,1.24-.29,3.15,3.15,0,0,1,1.33.26,1.83,1.83,0,0,1,.84.76,2.37,2.37,0,0,1,.29,1.2h0a2.78,2.78,0,0,1-.2,1,3.87,3.87,0,0,1-.54,1l-2.28,3H391v1.34h-4.92Z" transform="translate(-45.7 -89)" style="fill:#24abe3"/><path d="M392,318l2.75-6h1.52l-2.67,5.89h4v1.32H392Zm3.56-2.45h1.38v5h-1.38Z" transform="translate(-45.7 -89)" style="fill:#24abe3"/><path d="M369.44,128.91l-13.93,6.19v9.28c0,8.6,5.94,16.61,13.93,18.57,8-2,13.92-10,13.92-18.57V135.1Zm0,17h10.82c-.81,6.37-5.06,12.05-10.82,13.82V145.93H358.61v-8.82l10.83-4.81Z" transform="translate(-45.7 -89)" style="fill:#24abe3"/><path d="M211,379.75a3.75,3.75,0,1,0-3.75-3.75A3.74,3.74,0,0,0,211,379.75Zm-10,0a3.75,3.75,0,1,0-3.75-3.75A3.74,3.74,0,0,0,201,379.75Zm0,2.5c-2.92,0-8.75,1.46-8.75,4.38v3.12h17.5v-3.12C209.75,383.71,203.92,382.25,201,382.25Zm10,0a10.79,10.79,0,0,0-1.21.07,5.24,5.24,0,0,1,2.46,4.31v3.12h7.5v-3.12C219.75,383.71,213.92,382.25,211,382.25Z" transform="translate(-45.7 -89)" style="fill:#24abe3"/><rect x="56.64" y="165.55" width="18.01" height="18.03" style="fill:#24abe3"/><path d="M82,235.35V265.6h30.21V235.35Zm27.31,27.34H84.91V238.26h24.4Z" transform="translate(-45.7 -89)" style="fill:#24abe3"/><path d="M110.5,261,98.85,249.36h5.89V247H94.88v9.87h2.33V251l11.64,11.66Z" transform="translate(-45.7 -89)" style="fill:#24abe3"/><path d="M204.5,361A22.5,22.5,0,1,0,227,383.5,22.5,22.5,0,0,0,204.5,361Zm0,42.79a20.29,20.29,0,1,1,20.29-20.29A20.3,20.3,0,0,1,204.5,403.79Z" transform="translate(-45.7 -89)" style="fill:#24abe3"/><path d="M228.15,368.43h-.64v-1.29a3.21,3.21,0,1,0-6.42,0v1.29h-.64a1.28,1.28,0,0,0-1.29,1.28v6.42a1.28,1.28,0,0,0,1.29,1.28h7.7a1.28,1.28,0,0,0,1.28-1.28v-6.42A1.28,1.28,0,0,0,228.15,368.43Zm-3.85,5.77a1.28,1.28,0,1,1,1.28-1.28A1.28,1.28,0,0,1,224.3,374.2Zm2-5.77h-4v-1.29a2,2,0,1,1,4,0Z" transform="translate(-45.7 -89)" style="fill:#24abe3"/><circle cx="178.3" cy="284" r="2" style="fill:#24abe3"/><path d="M174.1,135.47a.38.38,0,0,1,.38.38V136a3.31,3.31,0,0,1,1.37.49.48.48,0,0,1,.27.42.49.49,0,0,1-.76.41,3.09,3.09,0,0,0-.91-.39v1.7c1.34.33,1.91.87,1.91,1.81s-.76,1.62-1.88,1.73v.53a.38.38,0,0,1-.38.38.39.39,0,0,1-.39-.38v-.55a3.82,3.82,0,0,1-1.81-.69.48.48,0,0,1-.23-.42.48.48,0,0,1,.48-.49.48.48,0,0,1,.29.1,3.17,3.17,0,0,0,1.31.59v-1.74c-1.29-.34-1.89-.82-1.89-1.82a1.77,1.77,0,0,1,1.85-1.68v-.19A.39.39,0,0,1,174.1,135.47Zm-.35,3v-1.56c-.57.05-.85.35-.85.74S173.07,138.26,173.75,138.48Zm.7,1.23v1.6c.56-.06.87-.34.87-.76S175.13,139.92,174.45,139.71Z" transform="translate(-45.7 -89)" style="fill:#24abe3"/><path d="M190.48,150.77h3.75A1.77,1.77,0,0,0,196,149V129.56a1.76,1.76,0,0,0-1.77-1.76H153.6a1.76,1.76,0,0,0-1.76,1.76V149a1.77,1.77,0,0,0,1.76,1.77h31.69" transform="translate(-45.7 -89)" style="fill:none;stroke:#24abe3;stroke-linecap:round;stroke-linejoin:round;stroke-width:2px"/><circle cx="128.22" cy="50.28" r="6.76" style="fill:none;stroke:#24abe3;stroke-linecap:round;stroke-linejoin:round;stroke-width:2px"/><path d="M189.73,113.52a1.62,1.62,0,0,0-2-1.15L151.81,122a1.62,1.62,0,0,0-1.15,2" transform="translate(-45.7 -89)" style="fill:none;stroke:#24abe3;stroke-linecap:round;stroke-linejoin:round;stroke-width:2px"/><path d="M193.55,127.8l-3.82-14.28a1.62,1.62,0,0,0-2-1.15L151.81,122a1.62,1.62,0,0,0-1.15,2l1.18,4.6" transform="translate(-45.7 -89)" style="fill:none;stroke:#24abe3;stroke-linecap:round;stroke-linejoin:round;stroke-width:2px"/><line x1="141.37" y1="35.17" x2="127.85" y2="38.8" style="fill:none;stroke:#24abe3;stroke-linecap:round;stroke-linejoin:round;stroke-width:2px"/><polyline points="129.58 31.77 144.87 27.68 146.51 33.8 143.94 34.49" style="fill:none;stroke:#24abe3;stroke-linecap:round;stroke-linejoin:round;stroke-width:2px"/><line x1="105.81" y1="38.14" x2="124.64" y2="33.1" style="fill:none;stroke:#24abe3;stroke-linecap:round;stroke-linejoin:round;stroke-width:2px"/><path d="M191.83,140.5l-.76-.76-3,3v-6.59H187v6.59l-3-3-.77.77,4.33,4.33Z" transform="translate(-45.7 -89)" style="fill:#24abe3"/></svg>