<svg id="Layer_1" data-name="Layer 1" xmlns="http://www.w3.org/2000/svg" width="90" height="410" viewBox="0 0 90 410"><title>bar-dot</title><rect y="14" width="75" height="2" style="fill:#f15a24;opacity:0.20000000298023224;isolation:isolate"/><rect y="30" width="75" height="2" style="fill:#f15a24;opacity:0.20000000298023224;isolation:isolate"/><rect y="46" width="75" height="2" style="fill:#f15a24;opacity:0.20000000298023224;isolation:isolate"/><g style="opacity:0.5"><circle cx="62.13" cy="204.06" r="1.36" style="fill:#f15a24"/><circle cx="48.53" cy="204.06" r="1.36" style="fill:#f15a24"/><circle cx="34.94" cy="204.06" r="1.36" style="fill:#f15a24"/><circle cx="21.34" cy="204.06" r="1.36" style="fill:#f15a24"/><circle cx="62.13" cy="217.66" r="1.36" style="fill:#f15a24"/><circle cx="48.53" cy="217.66" r="1.36" style="fill:#f15a24"/><circle cx="34.94" cy="217.66" r="1.36" style="fill:#f15a24"/><circle cx="21.34" cy="217.66" r="1.36" style="fill:#f15a24"/><circle cx="62.13" cy="231.25" r="1.36" style="fill:#f15a24"/><circle cx="48.53" cy="231.25" r="1.36" style="fill:#f15a24"/><circle cx="34.94" cy="231.25" r="1.36" style="fill:#f15a24"/><circle cx="21.34" cy="231.25" r="1.36" style="fill:#f15a24"/><circle cx="62.13" cy="244.84" r="1.36" style="fill:#f15a24"/><circle cx="48.53" cy="244.84" r="1.36" style="fill:#f15a24"/><circle cx="34.94" cy="244.84" r="1.36" style="fill:#f15a24"/><circle cx="21.34" cy="244.84" r="1.36" style="fill:#f15a24"/><circle cx="62.13" cy="258.44" r="1.36" style="fill:#f15a24"/><circle cx="48.53" cy="258.44" r="1.36" style="fill:#f15a24"/><circle cx="34.94" cy="258.44" r="1.36" style="fill:#f15a24"/><circle cx="21.34" cy="258.44" r="1.36" style="fill:#f15a24"/><circle cx="62.13" cy="272.03" r="1.36" style="fill:#f15a24"/><circle cx="48.53" cy="272.03" r="1.36" style="fill:#f15a24"/><circle cx="34.94" cy="272.03" r="1.36" style="fill:#f15a24"/><circle cx="21.34" cy="272.03" r="1.36" style="fill:#f15a24"/><circle cx="62.13" cy="285.63" r="1.36" style="fill:#f15a24"/><circle cx="48.53" cy="285.63" r="1.36" style="fill:#f15a24"/><circle cx="34.94" cy="285.63" r="1.36" style="fill:#f15a24"/><circle cx="21.34" cy="285.63" r="1.36" style="fill:#f15a24"/><circle cx="62.13" cy="299.22" r="1.36" style="fill:#f15a24"/><circle cx="48.53" cy="299.22" r="1.36" style="fill:#f15a24"/><circle cx="34.94" cy="299.22" r="1.36" style="fill:#f15a24"/><circle cx="21.34" cy="299.22" r="1.36" style="fill:#f15a24"/><circle cx="62.13" cy="312.81" r="1.36" style="fill:#f15a24"/><circle cx="48.53" cy="312.81" r="1.36" style="fill:#f15a24"/><circle cx="34.94" cy="312.81" r="1.36" style="fill:#f15a24"/><circle cx="21.34" cy="312.81" r="1.36" style="fill:#f15a24"/><circle cx="62.13" cy="326.41" r="1.36" style="fill:#f15a24"/><circle cx="48.53" cy="326.41" r="1.36" style="fill:#f15a24"/><circle cx="34.94" cy="326.41" r="1.36" style="fill:#f15a24"/><circle cx="21.34" cy="326.41" r="1.36" style="fill:#f15a24"/><circle cx="62.13" cy="340" r="1.36" style="fill:#f15a24"/><circle cx="48.53" cy="340" r="1.36" style="fill:#f15a24"/><circle cx="34.94" cy="340" r="1.36" style="fill:#f15a24"/><circle cx="21.34" cy="340" r="1.36" style="fill:#f15a24"/><circle cx="62.13" cy="353.59" r="1.36" style="fill:#f15a24"/><circle cx="48.53" cy="353.59" r="1.36" style="fill:#f15a24"/><circle cx="34.94" cy="353.59" r="1.36" style="fill:#f15a24"/><circle cx="21.34" cy="353.59" r="1.36" style="fill:#f15a24"/><circle cx="62.13" cy="367.19" r="1.36" style="fill:#f15a24"/><circle cx="48.53" cy="367.19" r="1.36" style="fill:#f15a24"/><circle cx="34.94" cy="367.19" r="1.36" style="fill:#f15a24"/><circle cx="21.34" cy="367.19" r="1.36" style="fill:#f15a24"/><circle cx="62.13" cy="380.78" r="1.36" style="fill:#f15a24"/><circle cx="48.53" cy="380.78" r="1.36" style="fill:#f15a24"/><circle cx="34.94" cy="380.78" r="1.36" style="fill:#f15a24"/><circle cx="21.34" cy="380.78" r="1.36" style="fill:#f15a24"/><circle cx="62.13" cy="393.06" r="1.36" style="fill:#f15a24"/><circle cx="48.53" cy="393.06" r="1.36" style="fill:#f15a24"/><circle cx="34.94" cy="393.06" r="1.36" style="fill:#f15a24"/><circle cx="21.34" cy="393.06" r="1.36" style="fill:#f15a24"/><circle cx="62.13" cy="406.66" r="1.36" style="fill:#f15a24"/><circle cx="48.53" cy="406.66" r="1.36" style="fill:#f15a24"/><circle cx="34.94" cy="406.66" r="1.36" style="fill:#f15a24"/><circle cx="21.34" cy="406.66" r="1.36" style="fill:#f15a24"/><circle cx="74.34" cy="204.06" r="1.36" style="fill:#f15a24"/><circle cx="74.34" cy="217.66" r="1.36" style="fill:#f15a24"/><circle cx="74.34" cy="231.25" r="1.36" style="fill:#f15a24"/><circle cx="74.34" cy="244.84" r="1.36" style="fill:#f15a24"/><circle cx="74.34" cy="258.44" r="1.36" style="fill:#f15a24"/><circle cx="74.34" cy="272.03" r="1.36" style="fill:#f15a24"/><circle cx="74.34" cy="285.63" r="1.36" style="fill:#f15a24"/><circle cx="74.34" cy="299.22" r="1.36" style="fill:#f15a24"/><circle cx="74.34" cy="312.81" r="1.36" style="fill:#f15a24"/><circle cx="74.34" cy="326.41" r="1.36" style="fill:#f15a24"/><circle cx="74.34" cy="340" r="1.36" style="fill:#f15a24"/><circle cx="74.34" cy="353.59" r="1.36" style="fill:#f15a24"/><circle cx="74.34" cy="367.19" r="1.36" style="fill:#f15a24"/><circle cx="74.34" cy="380.78" r="1.36" style="fill:#f15a24"/><circle cx="74.34" cy="393.06" r="1.36" style="fill:#f15a24"/><circle cx="74.34" cy="406.66" r="1.36" style="fill:#f15a24"/></g><rect width="90" height="410" style="fill:none"/></svg>