<svg id="Layer_1" data-name="Layer 1" xmlns="http://www.w3.org/2000/svg" width="226" height="410" viewBox="0 0 226 410"><title>bar-dot-right</title><rect x="151" y="14" width="75" height="2" style="fill:#f15a24;opacity:0.200000002980232;isolation:isolate"/><rect x="151" y="30" width="75" height="2" style="fill:#f15a24;opacity:0.200000002980232;isolation:isolate"/><rect x="151" y="46" width="75" height="2" style="fill:#f15a24;opacity:0.200000002980232;isolation:isolate"/><g style="opacity:0.5"><circle cx="216.14" cy="375.65" r="1.36" style="fill:#f15a24"/><circle cx="216.14" cy="362.05" r="1.36" style="fill:#f15a24"/><circle cx="216.14" cy="348.46" r="1.36" style="fill:#f15a24"/><circle cx="216.14" cy="334.86" r="1.36" style="fill:#f15a24"/><circle cx="202.54" cy="375.65" r="1.36" style="fill:#f15a24"/><circle cx="202.54" cy="362.05" r="1.36" style="fill:#f15a24"/><circle cx="202.54" cy="348.46" r="1.36" style="fill:#f15a24"/><circle cx="202.54" cy="334.86" r="1.36" style="fill:#f15a24"/><circle cx="188.95" cy="375.65" r="1.36" style="fill:#f15a24"/><circle cx="188.95" cy="362.05" r="1.36" style="fill:#f15a24"/><circle cx="188.95" cy="348.46" r="1.36" style="fill:#f15a24"/><circle cx="188.95" cy="334.86" r="1.36" style="fill:#f15a24"/><circle cx="175.36" cy="375.65" r="1.36" style="fill:#f15a24"/><circle cx="175.36" cy="362.05" r="1.36" style="fill:#f15a24"/><circle cx="175.36" cy="348.46" r="1.36" style="fill:#f15a24"/><circle cx="175.36" cy="334.86" r="1.36" style="fill:#f15a24"/><circle cx="161.76" cy="375.65" r="1.36" style="fill:#f15a24"/><circle cx="161.76" cy="362.05" r="1.36" style="fill:#f15a24"/><circle cx="161.76" cy="348.46" r="1.36" style="fill:#f15a24"/><circle cx="161.76" cy="334.86" r="1.36" style="fill:#f15a24"/><circle cx="148.17" cy="375.65" r="1.36" style="fill:#f15a24"/><circle cx="148.17" cy="362.05" r="1.36" style="fill:#f15a24"/><circle cx="148.17" cy="348.46" r="1.36" style="fill:#f15a24"/><circle cx="148.17" cy="334.86" r="1.36" style="fill:#f15a24"/><circle cx="134.57" cy="375.65" r="1.36" style="fill:#f15a24"/><circle cx="134.57" cy="362.05" r="1.36" style="fill:#f15a24"/><circle cx="134.57" cy="348.46" r="1.36" style="fill:#f15a24"/><circle cx="134.57" cy="334.86" r="1.36" style="fill:#f15a24"/><circle cx="120.98" cy="375.65" r="1.36" style="fill:#f15a24"/><circle cx="120.98" cy="362.05" r="1.36" style="fill:#f15a24"/><circle cx="120.98" cy="348.46" r="1.36" style="fill:#f15a24"/><circle cx="120.98" cy="334.86" r="1.36" style="fill:#f15a24"/><circle cx="107.39" cy="375.65" r="1.36" style="fill:#f15a24"/><circle cx="107.39" cy="362.05" r="1.36" style="fill:#f15a24"/><circle cx="107.39" cy="348.46" r="1.36" style="fill:#f15a24"/><circle cx="107.39" cy="334.86" r="1.36" style="fill:#f15a24"/><circle cx="93.79" cy="375.65" r="1.36" style="fill:#f15a24"/><circle cx="93.79" cy="362.05" r="1.36" style="fill:#f15a24"/><circle cx="93.79" cy="348.46" r="1.36" style="fill:#f15a24"/><circle cx="93.79" cy="334.86" r="1.36" style="fill:#f15a24"/><circle cx="80.2" cy="375.65" r="1.36" style="fill:#f15a24"/><circle cx="80.2" cy="362.05" r="1.36" style="fill:#f15a24"/><circle cx="80.2" cy="348.46" r="1.36" style="fill:#f15a24"/><circle cx="80.2" cy="334.86" r="1.36" style="fill:#f15a24"/><circle cx="66.61" cy="375.65" r="1.36" style="fill:#f15a24"/><circle cx="66.61" cy="362.05" r="1.36" style="fill:#f15a24"/><circle cx="66.61" cy="348.46" r="1.36" style="fill:#f15a24"/><circle cx="66.61" cy="334.86" r="1.36" style="fill:#f15a24"/><circle cx="53.01" cy="375.65" r="1.36" style="fill:#f15a24"/><circle cx="53.01" cy="362.05" r="1.36" style="fill:#f15a24"/><circle cx="53.01" cy="348.46" r="1.36" style="fill:#f15a24"/><circle cx="53.01" cy="334.86" r="1.36" style="fill:#f15a24"/><circle cx="39.42" cy="375.65" r="1.36" style="fill:#f15a24"/><circle cx="39.42" cy="362.05" r="1.36" style="fill:#f15a24"/><circle cx="39.42" cy="348.46" r="1.36" style="fill:#f15a24"/><circle cx="39.42" cy="334.86" r="1.36" style="fill:#f15a24"/><circle cx="27.14" cy="375.65" r="1.36" style="fill:#f15a24"/><circle cx="27.14" cy="362.05" r="1.36" style="fill:#f15a24"/><circle cx="27.14" cy="348.46" r="1.36" style="fill:#f15a24"/><circle cx="27.14" cy="334.86" r="1.36" style="fill:#f15a24"/><circle cx="13.54" cy="375.65" r="1.36" style="fill:#f15a24"/><circle cx="13.54" cy="362.05" r="1.36" style="fill:#f15a24"/><circle cx="13.54" cy="348.46" r="1.36" style="fill:#f15a24"/><circle cx="13.54" cy="334.86" r="1.36" style="fill:#f15a24"/><circle cx="216.14" cy="387.86" r="1.36" style="fill:#f15a24"/><circle cx="202.54" cy="387.86" r="1.36" style="fill:#f15a24"/><circle cx="188.95" cy="387.86" r="1.36" style="fill:#f15a24"/><circle cx="175.36" cy="387.86" r="1.36" style="fill:#f15a24"/><circle cx="161.76" cy="387.86" r="1.36" style="fill:#f15a24"/><circle cx="148.17" cy="387.86" r="1.36" style="fill:#f15a24"/><circle cx="134.57" cy="387.86" r="1.36" style="fill:#f15a24"/><circle cx="120.98" cy="387.86" r="1.36" style="fill:#f15a24"/><circle cx="107.39" cy="387.86" r="1.36" style="fill:#f15a24"/><circle cx="93.79" cy="387.86" r="1.36" style="fill:#f15a24"/><circle cx="80.2" cy="387.86" r="1.36" style="fill:#f15a24"/><circle cx="66.61" cy="387.86" r="1.36" style="fill:#f15a24"/><circle cx="53.01" cy="387.86" r="1.36" style="fill:#f15a24"/><circle cx="39.42" cy="387.86" r="1.36" style="fill:#f15a24"/><circle cx="27.14" cy="387.86" r="1.36" style="fill:#f15a24"/><circle cx="13.54" cy="387.86" r="1.36" style="fill:#f15a24"/></g><rect width="226" height="410" style="fill:none"/></svg>