<svg id="Layer_1" data-name="Layer 1" xmlns="http://www.w3.org/2000/svg" width="331.1" height="352.7" viewBox="0 0 331.1 352.7"><title>central</title><path d="M312.9,98.1a45.05,45.05,0,1,0-45-45.1,46.38,46.38,0,0,0,10.2,28.7l-54.9,58.6a45,45,0,0,0-29.1-10.6,44.11,44.11,0,0,0-28.7,10.2L110.1,88.7a30.51,30.51,0,0,0,4.1-15.2,29.9,29.9,0,1,0-29.9,29.9c6.6,0,12.7-2.5,18-6.1l55.3,51.2a44.24,44.24,0,0,0-8.2,25.8,46,46,0,0,0,9.8,28.3l-61,64.7a45,45,0,1,0,18.9,36.5,46,46,0,0,0-9.8-28.3l60.6-64.3c7,5.3,16,8.2,25.4,8.6l7.8,70.5c-15.2,4.5-26.2,18-26.2,34.4a36,36,0,0,0,72,0,36.21,36.21,0,0,0-34-36l-7.8-70A44.79,44.79,0,0,0,226.8,206l56.1,40.6a30.89,30.89,0,0,0-2.9,12.3A29.9,29.9,0,1,0,309.9,229a29.51,29.51,0,0,0-20.1,7.8L233.9,196a45.09,45.09,0,0,0,5.3-21.3,45.63,45.63,0,0,0-7.8-25.4l55.7-59A46,46,0,0,0,312.9,98.1Z" transform="translate(-26.9 -8)" style="fill:#fff"/></svg>