<svg id="Capa_1" data-name="Capa 1" xmlns="http://www.w3.org/2000/svg" xmlns:xlink="http://www.w3.org/1999/xlink" width="512" height="512" viewBox="0 0 512 512"><defs><linearGradient id="linear-gradient" x1="254.83" y1="517" x2="265.83" y2="-2" gradientTransform="matrix(1, 0, 0, -1, 0, 513)" gradientUnits="userSpaceOnUse"><stop offset="0" stop-color="#ff512f"/><stop offset="1" stop-color="#f09819"/></linearGradient><linearGradient id="linear-gradient-2" x1="252.12" y1="516.94" x2="263.12" y2="-2.06" xlink:href="#linear-gradient"/><linearGradient id="linear-gradient-3" x1="427.98" y1="520.67" x2="438.98" y2="1.67" xlink:href="#linear-gradient"/><linearGradient id="linear-gradient-4" x1="425.27" y1="520.61" x2="436.27" y2="1.61" xlink:href="#linear-gradient"/><linearGradient id="linear-gradient-5" x1="69.74" y1="513.07" x2="80.74" y2="-5.93" xlink:href="#linear-gradient"/><linearGradient id="linear-gradient-6" x1="67.04" y1="513.02" x2="78.04" y2="-5.98" xlink:href="#linear-gradient"/><linearGradient id="linear-gradient-7" x1="246.74" y1="516.82" x2="257.74" y2="-2.18" xlink:href="#linear-gradient"/><linearGradient id="linear-gradient-8" x1="401.92" y1="520.11" x2="412.92" y2="1.11" xlink:href="#linear-gradient"/><linearGradient id="linear-gradient-9" x1="116.01" y1="514.05" x2="127.01" y2="-4.95" xlink:href="#linear-gradient"/></defs><title>collaboration</title><path d="M256,0a51.2,51.2,0,1,0,51.2,51.2A51.17,51.17,0,0,0,256,0Zm0,85.3a34.1,34.1,0,1,1,34.1-34.1A34.08,34.08,0,0,1,256,85.3Z" style="fill:url(#linear-gradient)"/><path d="M290.1,110.9h-2l-1.8.9a68,68,0,0,1-60.6,0l-1.8-.9h-2a42.74,42.74,0,0,0-42.7,42.7v51.2a25.65,25.65,0,0,0,25.6,25.6H307.2a25.65,25.65,0,0,0,25.6-25.6V153.6A42.74,42.74,0,0,0,290.1,110.9Zm25.6,93.9a8.49,8.49,0,0,1-8.5,8.5H204.8a8.49,8.49,0,0,1-8.5-8.5V153.6a25.57,25.57,0,0,1,23.8-25.5,85.26,85.26,0,0,0,71.9,0,25.64,25.64,0,0,1,23.8,25.5v51.2Z" style="fill:url(#linear-gradient-2)"/><path d="M435.2,281.6a51.2,51.2,0,1,0,51.2,51.2A51.17,51.17,0,0,0,435.2,281.6Zm0,85.3a34.1,34.1,0,1,1,34.1-34.1A34.08,34.08,0,0,1,435.2,366.9Z" style="fill:url(#linear-gradient-3)"/><path d="M469.3,392.5h-2l-1.8.9a68,68,0,0,1-60.6,0l-1.8-.9h-2a42.74,42.74,0,0,0-42.7,42.7v51.2A25.65,25.65,0,0,0,384,512H486.4A25.65,25.65,0,0,0,512,486.4V435.2A42.74,42.74,0,0,0,469.3,392.5Zm25.6,93.9a8.49,8.49,0,0,1-8.5,8.5H384a8.49,8.49,0,0,1-8.5-8.5V435.2a25.57,25.57,0,0,1,23.8-25.5,85.26,85.26,0,0,0,71.9,0A25.64,25.64,0,0,1,495,435.2v51.2Z" style="fill:url(#linear-gradient-4)"/><path d="M76.8,281.6A51.2,51.2,0,1,0,128,332.8,51.17,51.17,0,0,0,76.8,281.6Zm0,85.3a34.1,34.1,0,1,1,34.1-34.1A34.08,34.08,0,0,1,76.8,366.9Z" style="fill:url(#linear-gradient-5)"/><path d="M110.9,392.5h-2l-1.8.9a68,68,0,0,1-60.6,0l-1.8-.9h-2A42.74,42.74,0,0,0,0,435.2v51.2A25.65,25.65,0,0,0,25.6,512H128a25.65,25.65,0,0,0,25.6-25.6V435.2A42.74,42.74,0,0,0,110.9,392.5Zm25.6,93.9a8.49,8.49,0,0,1-8.5,8.5H25.6a8.49,8.49,0,0,1-8.5-8.5V435.2a25.57,25.57,0,0,1,23.8-25.5,85.26,85.26,0,0,0,71.9,0,25.64,25.64,0,0,1,23.8,25.5v51.2Z" style="fill:url(#linear-gradient-6)"/><path d="M340.7,433.4h0a8.47,8.47,0,0,0-11.2-4.5h0a189.67,189.67,0,0,1-121.7,8.4l8-2.3a8.54,8.54,0,1,0-4.8-16.4l-34.1,10c-.1,0-.2.1-.3.2a9.41,9.41,0,0,0-2.2,1.2c-.3.2-.6.3-.9.5a8.64,8.64,0,0,0-2.1,2.9,7,7,0,0,0-.6,3.5,18.87,18.87,0,0,0,.9,3.4c.1.1,0,.3.1.4l17.1,32.7a8.52,8.52,0,1,0,15.1-7.9l-6.9-13.3a205.44,205.44,0,0,0,139.3-7.6A8.73,8.73,0,0,0,340.7,433.4Z" style="fill:url(#linear-gradient-7)"/><path d="M483.9,224.4a8.63,8.63,0,0,0-12.1,0l-12.1,12.1a204.7,204.7,0,0,0-123.6-169,8.53,8.53,0,1,0-6.7,15.7A187.37,187.37,0,0,1,442.3,234l-9.6-9.6a8.56,8.56,0,0,0-12.1,12.1l25.6,25.6a8.63,8.63,0,0,0,12.1,0h0l25.6-25.6A8.63,8.63,0,0,0,483.9,224.4Z" style="fill:url(#linear-gradient-8)"/><path d="M187.5,73.9a7.72,7.72,0,0,0-.2-1.5c0-.1-.1-.1-.1-.2V72a8.34,8.34,0,0,0-.8-1.2,7.1,7.1,0,0,0-1-1.4,9.91,9.91,0,0,0-1.7-1.1,3.59,3.59,0,0,0-1-.7L148.6,52a8.46,8.46,0,0,0-11.1,4.7,8.58,8.58,0,0,0,4.1,10.9l17.7,8.1a204.67,204.67,0,0,0-108,180.4,8.5,8.5,0,0,0,17,0A187.74,187.74,0,0,1,160.7,94.4l-6.2,12.9a8.57,8.57,0,0,0,4,11.4,8.08,8.08,0,0,0,3.7.9,8.57,8.57,0,0,0,7.7-4.8l17-35.8a.37.37,0,0,1,.1-.3,12.09,12.09,0,0,0,.5-1.8,7,7,0,0,0,.3-1.4C187.7,75,187.6,74.4,187.5,73.9Z" style="fill:url(#linear-gradient-9)"/></svg>