<svg id="Layer_1" data-name="Layer 1" xmlns="http://www.w3.org/2000/svg" xmlns:xlink="http://www.w3.org/1999/xlink" width="48.5" height="48.5" viewBox="0 0 48.5 48.5"><defs><linearGradient id="linear-gradient" x1="26.09" y1="50.18" x2="23.81" y2="-0.09" gradientTransform="matrix(1, 0, 0, -1, 0, 51)" gradientUnits="userSpaceOnUse"><stop offset="0" stop-color="#ff512f"/><stop offset="1" stop-color="#f09819"/></linearGradient></defs><title>competitive</title><path d="M42,42.8l.7-1.3L37.9,15a4.63,4.63,0,0,0,.8-2.5,5.12,5.12,0,0,0-2.3-4.1V1.5H31.6V8.4a4.43,4.43,0,0,0-2.3,4.1,4.38,4.38,0,0,0,.8,2.5L27.7,28.5.7,1.9V50H49.2Zm-1-1.5-.8,1.5-.8-1.7L34.9,17a5.09,5.09,0,0,0,1.7-.7Zm-3.8-3.2-5.5-5.5,2.2-11.9ZM33.2,3h1.6V7.8c-.3,0-.5-.1-.8-.1a2.2,2.2,0,0,0-.8.1V3Zm.7,6.3a3.2,3.2,0,0,1,3.2,3.1,3.2,3.2,0,0,1-6.4,0A3.2,3.2,0,0,1,33.9,9.3Zm-2.6,7A5.09,5.09,0,0,0,33,17L28.4,41.1l-.8,1.7-.8-1.5Zm7.4,29.8v2.3H35.5V44.5H33.9v3.9H30.7V46.1H29.1v2.3H26V44.5H24.4v3.9H21.2V46.1H19.6v2.3H16.4V44.5H14.8v3.9H11.6V46.1H10v2.3H6.9V44.5H5.4v3.9H2.2V44.5H4.5V43H2.2V39.9h4V38.3h-4V35.2H4.5V33.6H2.2V30.5h4V29h-4V25.7H4.5V24.1H2.2V21h4V19.4h-4V16.3H4.5V14.7H2.2V11.6h4V10h-4V5.8L27,30.5l-1.4,7.6L8.5,21V42.4H21.1V40.8H10v-16L25.3,39.9l-.2.9H22.6v1.6h2.7l2,4.1,2.3-4.7L31,34.6,37.4,41l.1.7,2.2,4.6-1-.2Zm1.5.2,1-2,4.2,4.2H40.2V46.3Z" transform="translate(-0.7 -1.5)" style="fill:url(#linear-gradient)"/></svg>