<?xml version="1.0" encoding="utf-8"?>
<!-- Generator: Adobe Illustrator 23.0.1, SVG Export Plug-In . SVG Version: 6.00 Build 0)  -->
<svg version="1.1" id="Layer_1" xmlns="http://www.w3.org/2000/svg" xmlns:xlink="http://www.w3.org/1999/xlink" x="0px" y="0px"
	 viewBox="0 0 600 400" style="enable-background:new 0 0 600 400;" xml:space="preserve">
<style type="text/css">
	.st0{fill:none;}
	.st1{fill:url(#SVGID_1_);}
	.st2{fill:#E6E6E6;}
	.st3{fill:#FFFFFF;}
	.st4{fill:#EFB21B;}
	.st5{fill:#CCCCCC;}
	.st6{fill:url(#SVGID_2_);}
	.st7{fill:url(#SVGID_3_);}
</style>
<title>employee</title>
<rect class="st0" width="600" height="400"/>
<linearGradient id="SVGID_1_" gradientUnits="userSpaceOnUse" x1="488.5" y1="369.21" x2="488.5" y2="288.1" gradientTransform="matrix(1 0 0 -1 0 400)">
	<stop  offset="0" style="stop-color:#FFFFFF"/>
	<stop  offset="1" style="stop-color:#F2F2F2"/>
</linearGradient>
<circle class="st1" cx="488.5" cy="74" r="44.5"/>
<rect x="182.4" y="265.9" class="st2" width="235.1" height="46.4"/>
<rect x="182.4" y="204.6" class="st2" width="235.1" height="46.4"/>
<rect x="182.4" y="143" class="st2" width="235.1" height="46.4"/>
<path class="st3" d="M187.4,184.4h225.1V148H187.4V184.4z"/>
<path class="st3" d="M187.4,246.2h225.1v-36.4H187.4V246.2z"/>
<path class="st3" d="M187.4,307.4h225.1V271H187.4V307.4z"/>
<circle class="st4" cx="207.2" cy="165.9" r="13.9"/>
<rect x="240.3" y="160.5" class="st4" width="136.9" height="3"/>
<rect x="240.3" y="168.3" class="st4" width="136.9" height="3"/>
<circle class="st5" cx="207.2" cy="228.1" r="13.9"/>
<rect x="240.3" y="222.7" class="st5" width="136.9" height="3"/>
<rect x="240.3" y="230.5" class="st5" width="136.9" height="3"/>
<circle class="st5" cx="207.2" cy="289.5" r="13.9"/>
<rect x="240.3" y="284" class="st5" width="136.9" height="3"/>
<rect x="240.3" y="291.9" class="st5" width="136.9" height="3"/>
<path d="M207.3,165.8c2.1,0,3.8-1.7,3.8-3.8c0-2.1-1.7-3.8-3.8-3.8c-2.1,0-3.8,1.7-3.8,3.8c0,0,0,0,0,0
	C203.5,164.1,205.2,165.8,207.3,165.8C207.3,165.8,207.3,165.8,207.3,165.8z M209.8,162c0,1.4-1.1,2.5-2.5,2.5s-2.5-1.1-2.5-2.5
	c0-1.4,1.1-2.5,2.5-2.5c0,0,0,0,0,0C208.7,159.4,209.8,160.6,209.8,162C209.8,162,209.8,162,209.8,162L209.8,162z M214.9,172.1
	c0,0.7-0.5,1.2-1.2,1.3c0,0,0,0-0.1,0h-12.7c-0.7,0-1.2-0.5-1.3-1.2c0,0,0,0,0-0.1c0-1.3,1.3-5.1,7.6-5.1S214.9,170.8,214.9,172.1z
	 M213.6,172.1c-0.1-0.8-0.5-1.5-1.1-2.1c-0.8-0.8-2.4-1.7-5.3-1.7s-4.4,0.9-5.3,1.7c-0.6,0.6-1,1.3-1.1,2.1H213.6z"/>
<path d="M207.3,228c2.1,0,3.8-1.7,3.8-3.8c0-2.1-1.7-3.8-3.8-3.8c-2.1,0-3.8,1.7-3.8,3.8c0,0,0,0,0,0
	C203.5,226.3,205.2,228,207.3,228C207.3,228,207.3,228,207.3,228z M209.8,224.2c0,1.4-1.1,2.5-2.5,2.5s-2.5-1.1-2.5-2.5
	c0-1.4,1.1-2.5,2.5-2.5c0,0,0,0,0,0C208.6,221.7,209.8,222.8,209.8,224.2L209.8,224.2z M214.9,234.3c0,0.7-0.5,1.3-1.2,1.3
	c0,0,0,0-0.1,0h-12.7c-0.7,0-1.2-0.5-1.3-1.2c0,0,0,0,0-0.1c0-1.3,1.3-5.1,7.6-5.1S214.9,233,214.9,234.3L214.9,234.3z M213.6,234.3
	c-0.1-0.8-0.5-1.6-1.1-2.1c-0.8-0.8-2.4-1.7-5.3-1.7s-4.4,0.9-5.3,1.7c-0.6,0.6-1,1.3-1.1,2.1H213.6z"/>
<path d="M207.3,289.3c2.1,0,3.8-1.7,3.8-3.8s-1.7-3.8-3.8-3.8c-2.1,0-3.8,1.7-3.8,3.8C203.5,287.6,205.2,289.3,207.3,289.3
	C207.3,289.3,207.3,289.3,207.3,289.3z M209.8,285.5c0,1.4-1.1,2.5-2.5,2.5c-1.4,0-2.5-1.1-2.5-2.5s1.1-2.5,2.5-2.5c0,0,0,0,0,0
	C208.7,283,209.8,284.1,209.8,285.5C209.8,285.5,209.8,285.5,209.8,285.5L209.8,285.5z M214.9,295.6c0,0.7-0.5,1.2-1.2,1.3
	c0,0,0,0-0.1,0h-12.7c-0.7,0-1.2-0.5-1.3-1.2c0,0,0,0,0-0.1c0-1.3,1.3-5.1,7.6-5.1S214.9,294.4,214.9,295.6z M213.6,295.6
	c-0.1-0.8-0.5-1.5-1.1-2.1c-0.8-0.8-2.4-1.7-5.3-1.7s-4.4,0.9-5.3,1.7c-0.6,0.6-1,1.3-1.1,2.1H213.6z"/>
<rect x="182.4" y="326.9" class="st2" width="235.1" height="46.4"/>
<path class="st3" d="M187.4,368.4h225.1V332H187.4V368.4z"/>
<circle class="st5" cx="207.2" cy="350.5" r="13.9"/>
<rect x="240.3" y="345" class="st5" width="136.9" height="3"/>
<rect x="240.3" y="352.9" class="st5" width="136.9" height="3"/>
<path d="M207.3,350.3c2.1,0,3.8-1.7,3.8-3.8s-1.7-3.8-3.8-3.8c-2.1,0-3.8,1.7-3.8,3.8C203.5,348.6,205.2,350.3,207.3,350.3
	C207.3,350.3,207.3,350.3,207.3,350.3z M209.8,346.5c0,1.4-1.1,2.5-2.5,2.5c-1.4,0-2.5-1.1-2.5-2.5s1.1-2.5,2.5-2.5c0,0,0,0,0,0
	C208.7,344,209.8,345.1,209.8,346.5C209.8,346.5,209.8,346.5,209.8,346.5L209.8,346.5z M214.9,356.6c0,0.7-0.5,1.2-1.2,1.3
	c0,0,0,0-0.1,0h-12.7c-0.7,0-1.2-0.5-1.3-1.2c0,0,0,0,0-0.1c0-1.3,1.3-5.1,7.6-5.1S214.9,355.4,214.9,356.6z M213.6,356.6
	c-0.1-0.8-0.5-1.5-1.1-2.1c-0.8-0.8-2.4-1.7-5.3-1.7s-4.4,0.9-5.3,1.7c-0.6,0.6-1,1.3-1.1,2.1H213.6z"/>
<path class="st4" d="M473.9,95.5c-0.9,0-1.7-0.8-1.7-1.7c0-8.5,6.9-15.3,15.3-15.3h2.5c1.7,0,3.4,0.3,5,0.8c0.9,0.3,1.3,1.3,1,2.1
	c-0.3,0.9-1.3,1.3-2.1,1c-1.3-0.4-2.6-0.7-3.9-0.7h-2.5c-6.6,0-12,5.4-12,12C475.6,94.8,474.8,95.6,473.9,95.5L473.9,95.5z
	 M500,63.8c0-6.3-5.1-11.4-11.4-11.4c-6.3,0-11.4,5.1-11.4,11.4s5.1,11.4,11.4,11.4l0,0C494.9,75.2,500,70.1,500,63.8z M496.6,63.8
	c0,4.4-3.6,8-8,8s-8-3.6-8-8s3.6-8,8-8S496.6,59.4,496.6,63.8z M508.6,85.4h-5v-5c-0.1-0.9-0.9-1.6-1.8-1.6
	c-0.8,0.1-1.5,0.7-1.6,1.6v5h-5c-0.9,0.1-1.6,0.9-1.6,1.8c0.1,0.8,0.7,1.5,1.6,1.6h5v5c0.1,0.9,0.9,1.6,1.8,1.6
	c0.8-0.1,1.5-0.7,1.6-1.6v-5h5c0.9-0.1,1.6-0.9,1.6-1.8C510.2,86.2,509.5,85.5,508.6,85.4L508.6,85.4z"/>
<linearGradient id="SVGID_2_" gradientUnits="userSpaceOnUse" x1="300" y1="369.21" x2="300" y2="288.1" gradientTransform="matrix(1 0 0 -1 0 400)">
	<stop  offset="0" style="stop-color:#FFFFFF"/>
	<stop  offset="1" style="stop-color:#F2F2F2"/>
</linearGradient>
<circle class="st6" cx="300" cy="74" r="44.5"/>
<path class="st4" d="M287.8,95.5c-0.9,0-1.7-0.8-1.7-1.7c0-8.5,6.9-15.3,15.3-15.3h2.6c1.7,0,3.4,0.3,5,0.8c0.9,0.3,1.3,1.3,1,2.1
	c-0.3,0.9-1.3,1.3-2.1,1c-1.3-0.4-2.6-0.7-3.9-0.7h-2.5c-6.6,0-12,5.4-12,12C289.5,94.8,288.8,95.6,287.8,95.5L287.8,95.5z
	 M313.9,63.8c0-6.3-5.1-11.4-11.4-11.4c-6.3,0-11.4,5.1-11.4,11.4s5.1,11.4,11.4,11.4l0,0C308.8,75.2,313.9,70.1,313.9,63.8
	L313.9,63.8z M310.5,63.8c0,4.4-3.6,8-8,8s-8-3.6-8-8s3.6-8,8-8S310.5,59.4,310.5,63.8z"/>
<linearGradient id="SVGID_3_" gradientUnits="userSpaceOnUse" x1="115.4085" y1="371.75" x2="113.7485" y2="288.16" gradientTransform="matrix(1 0 0 -1 0 400)">
	<stop  offset="0" style="stop-color:#FFFFFF"/>
	<stop  offset="1" style="stop-color:#F2F2F2"/>
</linearGradient>
<circle class="st7" cx="114.5" cy="74" r="44.5"/>
<path class="st4" d="M99.9,95.5c-0.9,0-1.7-0.8-1.7-1.7c0-8.5,6.9-15.3,15.3-15.3h2.5c1.7,0,3.4,0.3,5.1,0.8c0.9,0.3,1.3,1.3,1,2.1
	c-0.3,0.9-1.3,1.3-2.1,1c-1.3-0.4-2.6-0.7-3.9-0.7h-2.5c-6.6,0-12,5.4-12,12C101.5,94.8,100.8,95.6,99.9,95.5L99.9,95.5L99.9,95.5z
	 M126,63.8c0-6.3-5.1-11.4-11.4-11.4c-6.3,0-11.4,5.1-11.4,11.4s5.1,11.4,11.4,11.4C120.9,75.2,126,70.1,126,63.8z M122.6,63.8
	c0,4.4-3.6,8-8,8s-8-3.6-8-8s3.6-8,8-8S122.6,59.4,122.6,63.8z M135.6,88.4h-13.4c-0.9,0.1-1.6,0.9-1.6,1.8c0.1,0.8,0.7,1.5,1.6,1.6
	h13.5c0.9-0.1,1.6-0.9,1.6-1.8C137.2,89.2,136.5,88.5,135.6,88.4L135.6,88.4z"/>
<path class="st4" d="M331.4,73.7c-0.3-0.3-0.7-0.3-0.9,0l-2.2,2.2l4.9,4.9l2.2-2.2c0.3-0.3,0.3-0.7,0-0.9l0,0L331.4,73.7z
	 M332.2,81.7l-4.9-4.9l-8.5,8.5h0.3c0.4,0,0.7,0.3,0.7,0.7v0v0.7h0.7c0.4,0,0.6,0.3,0.6,0.7V88h0.7c0.4,0,0.6,0.3,0.6,0.7v0.7h0.6
	c0.4,0,0.7,0.3,0.7,0.7v0v0.3L332.2,81.7z M322.4,91.5c0-0.1,0-0.2,0-0.2v-0.7h-0.6c-0.4,0-0.7-0.3-0.7-0.7v-0.7h-0.6
	c-0.4,0-0.7-0.3-0.7-0.6c0,0,0,0,0,0V88h-0.7c-0.4,0-0.7-0.3-0.6-0.7v-0.7h-0.7c-0.1,0-0.2,0-0.2,0l-0.2,0.2
	c-0.1,0.1-0.1,0.1-0.1,0.2l-2.6,6.6c-0.1,0.3,0,0.7,0.4,0.8c0,0,0,0,0,0c0.2,0.1,0.3,0.1,0.5,0l6.6-2.7c0.1,0,0.2-0.1,0.2-0.2
	L322.4,91.5L322.4,91.5z"/>
</svg>
