<?xml version="1.0" encoding="utf-8"?>
<!-- Generator: Adobe Illustrator 23.0.1, SVG Export Plug-In . SVG Version: 6.00 Build 0)  -->
<svg version="1.1" id="Layer_1" xmlns="http://www.w3.org/2000/svg" xmlns:xlink="http://www.w3.org/1999/xlink" x="0px" y="0px"
	 viewBox="0 0 428 425" style="enable-background:new 0 0 428 425;" xml:space="preserve">
<style type="text/css">
	.st0{fill:#FFFFFF;}
</style>
<title>Artboard 8</title>
<path class="st0" d="M19.7,394.3v-21.5c0-26.6,16-50.6,40.6-60.7c-20.5-13.9-25.8-41.8-11.9-62.3s41.8-25.8,62.3-11.9
	c20.5,13.9,25.8,41.8,11.9,62.3c-3.2,4.7-7.2,8.7-11.9,11.9c9.2,3.8,17.4,9.7,24,17.2C143.5,307,161,289.2,183,280
	c-27.6-18.8-34.8-56.4-16-84s56.4-34.8,84-16s34.8,56.4,16,84c-4.3,6.3-9.7,11.7-16,16c22.1,9.2,39.5,26.9,48.4,49.2
	c6.6-7.6,14.9-13.5,24.1-17.4c-20.5-13.9-25.8-41.8-11.9-62.3c13.9-20.5,41.8-25.8,62.3-11.9c20.5,13.9,25.8,41.8,11.9,62.3
	c-3.2,4.7-7.2,8.7-11.9,11.9c24.6,10.3,40.5,34.3,40.4,60.9v21.7c0,5.1-4.1,9.3-9.3,9.3l0,0H28.9c-5.1,0-9.2-4.2-9.2-9.3
	C19.7,394.4,19.7,394.3,19.7,394.3z M206.1,135.2H228c5.9,0,10.8-4.8,10.8-10.8l0,0V64.6h7.6c4.9,0,8.8-3.9,8.8-8.8
	c0-1.9-0.6-3.7-1.7-5.2l-29.3-41c-2.8-4-8.3-4.9-12.3-2.1c-0.8,0.6-1.5,1.3-2.1,2.1l-29.3,41c-2.9,3.9-2,9.4,2,12.3
	c1.5,1.1,3.3,1.7,5.2,1.7h7.6v59.8C195.3,130.3,200.1,135.2,206.1,135.2z M289.4,156.3l15.5,15.5c4.2,4.2,11,4.2,15.2,0l0,0
	l42.3-42.3l5.4,5.4c3.4,3.5,9,3.5,12.5,0.1c1.3-1.3,2.2-3,2.5-4.9l8.2-49.6c0.8-4.8-2.4-9.3-7.2-10.1c-0.9-0.2-1.9-0.2-2.8,0
	l-49.6,8.2c-4.8,0.8-8.1,5.3-7.3,10.1c0.3,1.8,1.2,3.5,2.5,4.9l5.3,5.3l-42.4,42.3C285.1,145.3,285.1,152.1,289.4,156.3
	C289.3,156.3,289.3,156.3,289.4,156.3L289.4,156.3z M109.9,84.5c-1-3.2-3.7-5.5-7-6l-49.8-8.2c-4.8-0.8-9.3,2.5-10.1,7.3
	c-0.2,1-0.2,1.9,0,2.9l8.2,49.6c0.8,4.8,5.3,8.1,10.1,7.3c1.8-0.3,3.5-1.2,4.9-2.5l5.4-5.4l42.4,42.3c4.2,4.2,11,4.2,15.2,0l0,0
	l15.5-15.5c4.2-4.2,4.2-11,0-15.2l0,0l-42.4-42.3l5.4-5.4C110,91.1,110.9,87.7,109.9,84.5z"/>
<text transform="matrix(1 0 0 1 12.1983 471.0396)" style="display:none;fill:#F26522;enable-background:new    ; font-family:'Arial-BoldMT'; font-size:20.48px;">Created by Gregor Cresnar</text>
<text transform="matrix(1 0 0 1 12.1983 491.5186)" style="display:none;fill:#F26522;enable-background:new    ; font-family:'Arial-BoldMT'; font-size:20.48px;">from the Noun Project</text>
</svg>
