<svg id="Capa_1" data-name="Capa 1" xmlns="http://www.w3.org/2000/svg" xmlns:xlink="http://www.w3.org/1999/xlink" width="512.14" height="484.8" viewBox="0 0 512.14 484.8"><defs><linearGradient id="linear-gradient" x1="355.38" y1="516.74" x2="353.38" y2="-0.26" gradientTransform="matrix(1, 0, 0, -1, 0, 513)" gradientUnits="userSpaceOnUse"><stop offset="0" stop-color="#ff512f"/><stop offset="1" stop-color="#f09819"/></linearGradient><linearGradient id="linear-gradient-2" x1="355.54" y1="516.74" x2="353.54" y2="-0.26" xlink:href="#linear-gradient"/><linearGradient id="linear-gradient-3" x1="313.55" y1="516.91" x2="311.55" y2="-0.09" xlink:href="#linear-gradient"/><linearGradient id="linear-gradient-4" x1="51.88" y1="517.92" x2="49.88" y2="0.92" xlink:href="#linear-gradient"/><linearGradient id="linear-gradient-5" x1="342.36" y1="516.79" x2="340.36" y2="-0.21" xlink:href="#linear-gradient"/><linearGradient id="linear-gradient-6" x1="42.03" y1="517.96" x2="40.03" y2="0.96" xlink:href="#linear-gradient"/><linearGradient id="linear-gradient-7" x1="122.15" y1="517.65" x2="120.15" y2="0.65" xlink:href="#linear-gradient"/><linearGradient id="linear-gradient-8" x1="152.4" y1="517.53" x2="150.4" y2="0.53" xlink:href="#linear-gradient"/></defs><title>experience-details</title><path d="M456.2,200.9H252.9a9.2,9.2,0,0,0,0,18.4H456.2a9.2,9.2,0,0,0,0-18.4Z" transform="translate(0.04 -13.6)" style="fill:url(#linear-gradient)"/><path d="M465.4,252.1a9.18,9.18,0,0,0-9.2-9.2H252.9a9.2,9.2,0,1,0,0,18.4H456.2A9.18,9.18,0,0,0,465.4,252.1Z" transform="translate(0.04 -13.6)" style="fill:url(#linear-gradient-2)"/><path d="M252.9,284.9a9.2,9.2,0,0,0,0,18.4h119a9.2,9.2,0,1,0,0-18.4Z" transform="translate(0.04 -13.6)" style="fill:url(#linear-gradient-3)"/><path d="M36.7,121.9c.6-.2,6.5-2.3,15.2-4.9v-3.7a12.4,12.4,0,0,1,12.4-12.4h8.9a81.07,81.07,0,0,1-9.8-22.1,34.61,34.61,0,0,0-33.7,34.5v12.6a24.9,24.9,0,0,1,3.2-2A13,13,0,0,1,36.7,121.9Z" transform="translate(0.04 -13.6)" style="fill:url(#linear-gradient-4)"/><path d="M477.4,78.7H180.6a77.18,77.18,0,0,1-9.8,22.2H477.4a12.46,12.46,0,0,1,12.4,12.4V360.1a12.4,12.4,0,0,1-12.4,12.4H195l1.8,22.2H477.5a34.59,34.59,0,0,0,34.6-34.5V113.3A34.76,34.76,0,0,0,477.4,78.7Z" transform="translate(0.04 -13.6)" style="fill:url(#linear-gradient-5)"/><path d="M29.7,317.2v42.9a34.22,34.22,0,0,0,17.8,30l4.3-54V289.5l-.8,3.8C48.5,304.5,40,313.3,29.7,317.2Z" transform="translate(0.04 -13.6)" style="fill:url(#linear-gradient-6)"/><path d="M121.9,116c25.8,0,46.7-29.9,46.7-55.7a46.7,46.7,0,1,0-93.4,0C75.2,86.1,96.1,116,121.9,116Z" transform="translate(0.04 -13.6)" style="fill:url(#linear-gradient-7)"/><path d="M189.6,170.5a19.42,19.42,0,0,0,6.3,1.1h88.7a18.5,18.5,0,0,0,0-37H199c-9.9-3.3-41.1-13.1-70.2-14.5l-4.3,8.7h-.1l12.4,96.9L122,251.5l-14.8-25.8,12.4-96.9h-.1l-4.4-8.8c-34.3,1.7-71.6,15.1-73.3,15.7a14,14,0,0,0-1.6,1,18.12,18.12,0,0,0-3.3,2,27.25,27.25,0,0,0-2.5,2.3,15.35,15.35,0,0,0-2.1,2.9,20.65,20.65,0,0,0-1.5,3.4,9.82,9.82,0,0,0-.8,1.8L.4,282.1a18.44,18.44,0,0,0,14,22,18.71,18.71,0,0,0,4,.4,18.46,18.46,0,0,0,18-14.5L63.7,167.3c1.9-.6,4.1-1.2,6.4-1.9V291.5L55.5,474.4a22.18,22.18,0,0,0,20.3,23.9c.6,0,1.2.1,1.8.1A22.28,22.28,0,0,0,99.7,478L113,312.7a22.19,22.19,0,0,0,8.9,1.9,21.83,21.83,0,0,0,8.9-1.9L144.2,478a22.14,22.14,0,0,0,22.1,20.4,10.87,10.87,0,0,0,1.8-.1,22.18,22.18,0,0,0,20.3-23.9L173.7,291.5v-126C183.1,168.2,189.4,170.4,189.6,170.5Z" transform="translate(0.04 -13.6)" style="fill:url(#linear-gradient-8)"/></svg>