<svg id="Layer_1" data-name="Layer 1" xmlns="http://www.w3.org/2000/svg" xmlns:xlink="http://www.w3.org/1999/xlink" width="470.09" height="511.9" viewBox="0 0 470.09 511.9"><defs><linearGradient id="linear-gradient" x1="197.81" y1="517.74" x2="206.81" y2="-4.26" gradientTransform="matrix(1, 0, 0, -1, 0, 513)" gradientUnits="userSpaceOnUse"><stop offset="0" stop-color="#ff512f"/><stop offset="1" stop-color="#f09819"/></linearGradient><linearGradient id="linear-gradient-2" x1="199.51" y1="517.77" x2="208.51" y2="-4.23" xlink:href="#linear-gradient"/><linearGradient id="linear-gradient-3" x1="133.32" y1="516.63" x2="142.32" y2="-5.37" gradientTransform="matrix(1, 0, 0, -1, -21, 513)" xlink:href="#linear-gradient"/><linearGradient id="linear-gradient-4" x1="218.6" y1="518.1" x2="227.6" y2="-3.9" gradientTransform="matrix(1, 0, 0, -1, -21, 513)" xlink:href="#linear-gradient"/><linearGradient id="linear-gradient-5" x1="110.88" y1="516.24" x2="119.88" y2="-5.76" gradientTransform="matrix(1, 0, 0, -1, -21, 513)" xlink:href="#linear-gradient"/><linearGradient id="linear-gradient-6" x1="217.49" y1="518.08" x2="226.49" y2="-3.92" gradientTransform="matrix(1, 0, 0, -1, -21, 513)" xlink:href="#linear-gradient"/><linearGradient id="linear-gradient-7" x1="131.12" y1="516.59" x2="140.12" y2="-5.41" gradientTransform="matrix(1, 0, 0, -1, -21, 513)" xlink:href="#linear-gradient"/><linearGradient id="linear-gradient-8" x1="227.09" y1="518.24" x2="236.09" y2="-3.76" gradientTransform="matrix(1, 0, 0, -1, -21, 513)" xlink:href="#linear-gradient"/><linearGradient id="linear-gradient-9" x1="386.19" y1="520.99" x2="395.19" y2="-1.01" xlink:href="#linear-gradient"/></defs><title>file</title><path d="M362.3,405.3H287.6A10.71,10.71,0,0,0,276.9,416v74.7H42.3V21.3h320v128h21.3V21.3A21.32,21.32,0,0,0,362.3,0H42.3A21.38,21.38,0,0,0,21,21.3V490.6a21.32,21.32,0,0,0,21.3,21.3H319.6a10.6,10.6,0,0,0,7.5-3.1l53.3-53.3a10.6,10.6,0,0,0,3.1-7.5V330.7H362.2v74.6Zm0,38.3-47.1,47.1H298.3v-64h64Z" transform="translate(-21 0)" style="fill:url(#linear-gradient)"/><path d="M319.7,192V96A10.71,10.71,0,0,0,309,85.3H95.7A10.71,10.71,0,0,0,85,96V224a10.71,10.71,0,0,0,10.7,10.7H277V213.4H106.3V106.7h192V192Z" transform="translate(-21 0)" style="fill:url(#linear-gradient-2)"/><rect x="64" y="277.3" width="106.7" height="21.3" style="fill:url(#linear-gradient-3)"/><rect x="192" y="277.3" width="21.3" height="21.3" style="fill:url(#linear-gradient-4)"/><rect x="64" y="341.3" width="64" height="21.3" style="fill:url(#linear-gradient-5)"/><rect x="149.3" y="341.3" width="106.7" height="21.3" style="fill:url(#linear-gradient-6)"/><rect x="64" y="405.3" width="106.7" height="21.3" style="fill:url(#linear-gradient-7)"/><rect x="192" y="405.3" width="42.7" height="21.3" style="fill:url(#linear-gradient-8)"/><path d="M481.7,151.7l-15.1-15.1a32,32,0,0,0-45.3,0l-30.2,30.2-75.4,75.4c-.1.1-.1.2-.2.3a7.5,7.5,0,0,0-1.8,2.8,4.88,4.88,0,0,0-.3.7c-.1.1-.1.2-.2.4l-22.6,67.9a10.5,10.5,0,0,0,2.6,10.9,10.77,10.77,0,0,0,7.5,3.1,10.16,10.16,0,0,0,3.4-.6L372,305.1a.76.76,0,0,1,.4-.2,4.88,4.88,0,0,0,.7-.3,12.71,12.71,0,0,0,2.7-1.8c.1-.1.3-.1.4-.2l75.4-75.4L481.8,197A32.14,32.14,0,0,0,481.7,151.7ZM328,269.5l10.4,10.4,10.4,10.4-31.3,10.4Zm40.6,10.4-15.1-15.1-15.1-15.1,60.3-60.3,15.1,15.1,15.1,15.1Zm98-98L444,204.5l-15.1-15.1-15.1-15.1,22.6-22.6a10.62,10.62,0,0,1,15.1,0l15.1,15.1A10.62,10.62,0,0,1,466.6,181.9Z" transform="translate(-21 0)" style="fill:url(#linear-gradient-9)"/></svg>