<?xml version="1.0" encoding="utf-8"?>
<!-- Generator: Adobe Illustrator 23.0.1, SVG Export Plug-In . SVG Version: 6.00 Build 0)  -->
<svg version="1.1" id="Layer_1" xmlns="http://www.w3.org/2000/svg" xmlns:xlink="http://www.w3.org/1999/xlink" x="0px" y="0px"
	 viewBox="0 0 50 42.6" style="enable-background:new 0 0 50 42.6;" xml:space="preserve">
<style type="text/css">
	.st0{fill:url(#SVGID_1_);}
	.st1{fill:url(#SVGID_2_);}
	.st2{fill:url(#SVGID_3_);}
	.st3{fill:url(#SVGID_4_);}
</style>
<title>key-stroke-icon</title>
<linearGradient id="SVGID_1_" gradientUnits="userSpaceOnUse" x1="46" y1="0.2069" x2="46" y2="43.1724">
	<stop  offset="0" style="stop-color:#FF512F"/>
	<stop  offset="1" style="stop-color:#F09819"/>
</linearGradient>
<path class="st0" d="M46,13.6c0.2,0,0.4,0.2,0.4,0.4l0,0v1.6c0,0.2-0.2,0.4-0.4,0.4s-0.4-0.2-0.4-0.4l0,0V14
	C45.6,13.8,45.8,13.6,46,13.6z M49.2,20c0,1.8-1.4,3.2-3.2,3.2s-3.2-1.4-3.2-3.2v-4.8c0-1.8,1.4-3.2,3.2-3.2s3.2,1.4,3.2,3.2V20z
	 M46,11.3c-2.2,0-4,1.8-4,4v4.8c0,2.2,1.8,4,4,4s4-1.8,4-4v-4.8C50,13.1,48.2,11.3,46,11.3z"/>
<linearGradient id="SVGID_2_" gradientUnits="userSpaceOnUse" x1="20.1" y1="0.2069" x2="20.1" y2="43.1724">
	<stop  offset="0" style="stop-color:#FF512F"/>
	<stop  offset="1" style="stop-color:#F09819"/>
</linearGradient>
<path class="st1" d="M35.2,9.1c1.4,0,2.5,1.1,2.5,2.5l0,0v12.6c0,1.4-1.1,2.5-2.5,2.5l0,0H5c-1.4,0-2.5-1.1-2.5-2.5V11.6
	c0-1.4,1.1-2.5,2.5-2.5H35.2z M5,6.6c-2.8,0-5,2.2-5,5v12.6c0,2.8,2.2,5,5,5h30.2c2.8,0,5-2.2,5-5V11.6c0-2.8-2.2-5-5-5
	C35.2,6.6,5,6.6,5,6.6z"/>
<linearGradient id="SVGID_3_" gradientUnits="userSpaceOnUse" x1="19.05" y1="0.2069" x2="19.05" y2="43.1724">
	<stop  offset="0" style="stop-color:#FF512F"/>
	<stop  offset="1" style="stop-color:#F09819"/>
</linearGradient>
<path class="st2" d="M30.3,21.8c0-0.3,0.3-0.6,0.6-0.6H32c0.3,0,0.6,0.3,0.6,0.6l0,0v1.1c0,0.3-0.2,0.6-0.6,0.6h-1.1
	c-0.3,0-0.6-0.3-0.6-0.6C30.3,22.9,30.3,21.8,30.3,21.8z M30.3,17.3c0-0.3,0.3-0.6,0.6-0.6H32c0.3,0,0.6,0.3,0.6,0.6l0,0v1.1
	c0,0.3-0.2,0.6-0.6,0.6h-1.1c-0.3,0-0.6-0.3-0.6-0.6C30.3,18.4,30.3,17.3,30.3,17.3z M19,17.3c0-0.3,0.3-0.6,0.6-0.6h1.1
	c0.3,0,0.6,0.3,0.6,0.6v1.1c0,0.3-0.2,0.6-0.6,0.6h-1.1c-0.3,0-0.6-0.3-0.6-0.6V17.3z M23.5,17.3c0-0.3,0.3-0.6,0.6-0.6h3.4
	c0.3,0,0.6,0.3,0.6,0.6v1.1c0,0.3-0.2,0.6-0.6,0.6h-3.4c-0.3,0-0.6-0.3-0.6-0.6V17.3z M25.8,21.8c0-0.3,0.3-0.6,0.6-0.6h1.1
	c0.3,0,0.6,0.3,0.6,0.6v1.1c0,0.3-0.2,0.6-0.6,0.6h-1.1c-0.3,0-0.6-0.3-0.6-0.6V21.8z M14.5,17.3c0-0.3,0.3-0.6,0.6-0.6h1.1
	c0.3,0,0.6,0.3,0.6,0.6v1.1c0,0.3-0.2,0.6-0.6,0.6h-1.1c-0.3,0-0.6-0.3-0.6-0.6V17.3z M10,17.3c0-0.3,0.3-0.6,0.6-0.6h1.1
	c0.3,0,0.6,0.3,0.6,0.6v1.1c0,0.3-0.2,0.6-0.6,0.6h-1.1c-0.3,0-0.6-0.3-0.6-0.6V17.3z M5.5,17.3c0-0.3,0.3-0.6,0.6-0.6h1.1
	c0.3,0,0.6,0.3,0.6,0.6v1.1c0,0.3-0.2,0.6-0.6,0.6H6.1c-0.3,0-0.6-0.3-0.6-0.6V17.3z M30.3,12.8c0-0.3,0.3-0.6,0.6-0.6H32
	c0.3,0,0.6,0.3,0.6,0.6l0,0v1.1c0,0.3-0.2,0.6-0.6,0.6h-1.1c-0.3,0-0.6-0.3-0.6-0.6C30.3,13.8,30.3,12.8,30.3,12.8z M25.8,12.8
	c0-0.3,0.3-0.6,0.6-0.6h1.1c0.3,0,0.6,0.3,0.6,0.6v1.1c0,0.3-0.2,0.6-0.6,0.6h-1.1c-0.3,0-0.6-0.3-0.6-0.6V12.8z M21.3,12.8
	c0-0.3,0.3-0.6,0.6-0.6H23c0.3,0,0.6,0.3,0.6,0.6v1.1c0,0.3-0.2,0.6-0.6,0.6h-1.1c-0.3,0-0.6-0.3-0.6-0.6V12.8z M16.8,12.8
	c0-0.3,0.3-0.6,0.6-0.6h1.1c0.3,0,0.6,0.3,0.6,0.6v1.1c0,0.3-0.2,0.6-0.6,0.6h-1.1c-0.3,0-0.6-0.3-0.6-0.6V12.8z M12.3,12.8
	c0-0.3,0.3-0.6,0.6-0.6l0,0H14c0.3,0,0.6,0.3,0.6,0.6l0,0v1.1c0,0.3-0.2,0.6-0.6,0.6h-1.1c-0.3,0-0.6-0.3-0.6-0.6
	C12.3,13.9,12.3,12.8,12.3,12.8z M5.5,12.8c0-0.3,0.3-0.6,0.6-0.6l0,0h3.4c0.3,0,0.6,0.3,0.6,0.6l0,0v1.1c0,0.3-0.2,0.6-0.6,0.6H6.1
	c-0.3,0-0.6-0.3-0.6-0.6V12.8z M5.5,21.8c0-0.3,0.3-0.6,0.6-0.6h1.1c0.3,0,0.6,0.3,0.6,0.6v1.1c0,0.3-0.2,0.6-0.6,0.6H6.1
	c-0.3,0-0.6-0.3-0.6-0.6V21.8z M10,21.8c0-0.3,0.3-0.6,0.6-0.6H23c0.3,0,0.6,0.3,0.6,0.6v1.1c0,0.3-0.2,0.6-0.6,0.6H10.6
	c-0.3,0-0.6-0.3-0.6-0.6V21.8z"/>
<linearGradient id="SVGID_4_" gradientUnits="userSpaceOnUse" x1="23.6984" y1="0.2069" x2="23.6984" y2="43.1724">
	<stop  offset="0" style="stop-color:#FF512F"/>
	<stop  offset="1" style="stop-color:#F09819"/>
</linearGradient>
<path class="st3" d="M20.8,24.5c0.5,0,0.9,0.4,0.9,0.9v7.4c0,0.3,0.2,0.6,0.6,0.6l0,0c0.3,0,0.6-0.3,0.6-0.6l0,0v-3H23
	c0.3,0,0.7,0,1,0c0.2,0,0.4,0.1,0.5,0.2s0.2,0.2,0.2,0.4v2.4c0,0.3,0.3,0.6,0.6,0.6s0.6-0.3,0.6-0.6v-1.9H26c0.3-0.1,0.6-0.1,0.8,0
	s0.4,0.3,0.6,0.5c0.1,0.1,0.2,0.2,0.2,0.3v1.6c0,0.3,0.3,0.6,0.6,0.6s0.6-0.3,0.6-0.6v-1.1h0.4c0.7,0,1.2,0.5,1.2,1.2v0.1l-0.3,3.2
	c0,0.4-0.2,0.8-0.4,1.2L28,40.8c-0.1,0.2-0.3,0.3-0.5,0.3h-7.6c-0.2,0-0.4-0.1-0.5-0.3l-1.7-2.5c-0.1-0.2-0.2-0.5-0.2-0.8l-0.4-3.7
	c0-0.3,0.2-0.6,0.5-0.7l1.2-0.2V34c0,0.3,0.2,0.6,0.6,0.6l0,0c0.3,0,0.6-0.3,0.6-0.6l0,0v-8.6C19.9,24.9,20.3,24.5,20.8,24.5z
	 M22.9,28.6v-3.2c0-1.1-0.9-2.1-2.1-2.1c-1.1,0-2.1,0.9-2.1,2.1v6.3L17.3,32c-0.9,0.2-1.5,1-1.4,2l0.4,3.7c0.1,0.5,0.2,0.9,0.5,1.3
	l1.8,2.6c0.3,0.5,0.9,0.8,1.5,0.8h7.4c0.6,0,1.2-0.3,1.5-0.9l1.7-2.9c0.3-0.5,0.5-1.1,0.5-1.7l0.3-3.2c0.1-1.3-0.8-2.4-2-2.6h-1
	l-0.2-0.4c-0.3-0.4-0.6-0.6-1-0.8c-0.4-0.1-0.9-0.2-1.4-0.1h-0.2c-0.1-0.3-0.4-0.6-0.7-0.8c-0.2-0.1-0.5-0.3-0.8-0.3
	C23.8,28.6,23.4,28.6,22.9,28.6L22.9,28.6z"/>
</svg>
