<?xml version="1.0"?>
<svg xmlns="http://www.w3.org/2000/svg" height="512px" viewBox="-16 0 480 480" width="512px"><path d="m424 0h-384c-22.082031.0273438-39.9726562 17.917969-40 40v416c0 13.253906 10.746094 24 24 24h272c13.253906 0 24-10.746094 24-24v-160h88c22.082031-.027344 39.972656-17.917969 40-40v-232c0-13.253906-10.746094-24-24-24zm-120 40v416c0 4.417969-3.582031 8-8 8h-272c-4.417969 0-8-3.582031-8-8v-416c0-13.253906 10.746094-24 24-24h272c-5.203125 6.917969-8.011719 15.34375-8 24zm16 240v-240c0-13.253906 10.746094-24 24-24s24 10.746094 24 24v216c-.011719 8.65625 2.796875 17.082031 8 24zm112-24c0 13.253906-10.746094 24-24 24s-24-10.746094-24-24v-216c.007812-8.65625-2.800781-17.078125-8-24h48c4.417969 0 8 3.582031 8 8zm0 0" fill="#FFFFFF"/><path d="m80 48h208v16h-208zm0 0" fill="#FFFFFF"/><path d="m32 96h256v16h-256zm0 0" fill="#FFFFFF"/><path d="m32 144h208v16h-208zm0 0" fill="#FFFFFF"/><path d="m256 144h32v16h-32zm0 0" fill="#FFFFFF"/><path d="m112 288h-16c-4.417969 0-8-3.582031-8-8h-16c0 13.253906 10.746094 24 24 24v8h16v-8c13.253906 0 24-10.746094 24-24s-10.746094-24-24-24h-16c-4.417969 0-8-3.582031-8-8s3.582031-8 8-8h16c4.417969 0 8 3.582031 8 8h16c0-13.253906-10.746094-24-24-24v-8h-16v8c-13.253906 0-24 10.746094-24 24s10.746094 24 24 24h16c4.417969 0 8 3.582031 8 8s-3.582031 8-8 8zm0 0" fill="#FFFFFF"/><path d="m104 336c39.765625 0 72-32.234375 72-72s-32.234375-72-72-72-72 32.234375-72 72c.046875 39.746094 32.253906 71.953125 72 72zm0-128c30.929688 0 56 25.070312 56 56s-25.070312 56-56 56-56-25.070312-56-56c.035156-30.914062 25.085938-55.964844 56-56zm0 0" fill="#FFFFFF"/><path d="m208 200h16v16h-16zm0 0" fill="#FFFFFF"/><path d="m240 200h32v16h-32zm0 0" fill="#FFFFFF"/><path d="m208 232h64v16h-64zm0 0" fill="#FFFFFF"/><path d="m32 48h32v16h-32zm0 0" fill="#FFFFFF"/><path d="m80 368h208v16h-208zm0 0" fill="#FFFFFF"/><path d="m32 416h256v16h-256zm0 0" fill="#FFFFFF"/><path d="m32 368h32v16h-32zm0 0" fill="#FFFFFF"/></svg>
