<svg id="Layer_1" data-name="Layer 1" xmlns="http://www.w3.org/2000/svg" width="496" height="512" viewBox="0 0 496 512"><title>problem</title><path d="M136,472a8,8,0,0,1-8-8,56,56,0,0,1,56-56,8,8,0,0,1,0,16,40,40,0,0,0-40,40A8,8,0,0,1,136,472Z" transform="translate(-8)" style="fill:#f26522"/><path d="M216,424H184a8,8,0,0,1,0-16h32a8,8,0,0,1,0,16Z" transform="translate(-8)" style="fill:#f26522"/><path d="M136,496a8,8,0,0,1-8-8V466.3a8,8,0,1,1,16,0V488A8,8,0,0,1,136,496Z" transform="translate(-8)" style="fill:#f26522"/><path d="M376,472a8,8,0,0,1-8-8,40,40,0,0,0-40-40,8,8,0,0,1,0-16,56,56,0,0,1,56,56A8,8,0,0,1,376,472Z" transform="translate(-8)" style="fill:#f26522"/><path d="M296,424a8,8,0,0,1,0-16h32a8,8,0,0,1,0,16Z" transform="translate(-8)" style="fill:#f26522"/><path d="M376,496a8,8,0,0,1-8-8V466.3a8,8,0,1,1,16,0V488A8,8,0,0,1,376,496Z" transform="translate(-8)" style="fill:#f26522"/><path d="M360,512H152a8,8,0,0,1,0-16H360a8,8,0,0,1,0,16Z" transform="translate(-8)" style="fill:#f26522"/><path d="M216,424a8,8,0,0,1-8-8V390.4a8,8,0,0,1,16,0V416A8,8,0,0,1,216,424Z" transform="translate(-8)" style="fill:#f26522"/><path d="M296,424a8,8,0,0,1-8-8V390.4a8,8,0,0,1,16,0V416A8,8,0,0,1,296,424Z" transform="translate(-8)" style="fill:#f26522"/><path d="M256,408a96.15,96.15,0,0,1-96-96,8,8,0,0,1,16,0,80,80,0,0,0,160,0,8,8,0,0,1,16,0A96.15,96.15,0,0,1,256,408Z" transform="translate(-8)" style="fill:#f26522"/><path d="M168,320a8,8,0,0,1-8-8V240a8,8,0,0,1,16,0v72A8,8,0,0,1,168,320Z" transform="translate(-8)" style="fill:#f26522"/><path d="M344,320a8,8,0,0,1-8-8V240a8,8,0,0,1,16,0v72A8,8,0,0,1,344,320Z" transform="translate(-8)" style="fill:#f26522"/><path d="M344,248a8,8,0,0,1-8-8,32.09,32.09,0,0,0-32-32,8,8,0,0,1,0-16,48,48,0,0,1,48,48A8,8,0,0,1,344,248Z" transform="translate(-8)" style="fill:#f26522"/><path d="M304,208a8,8,0,0,1-8-8V168a8,8,0,0,1,16,0v32A8,8,0,0,1,304,208Z" transform="translate(-8)" style="fill:#f26522"/><path d="M304,176H240a8,8,0,0,1,0-16h64a8,8,0,0,1,0,16Z" transform="translate(-8)" style="fill:#f26522"/><path d="M168,248a8,8,0,0,1-8-8,80.11,80.11,0,0,1,80-80,8,8,0,0,1,0,16,64.06,64.06,0,0,0-64,64A8,8,0,0,1,168,248Z" transform="translate(-8)" style="fill:#f26522"/><path d="M344,288a8.46,8.46,0,0,1-5.7-2.3l-24-24a8,8,0,0,1,11.3-11.3l24,24a8,8,0,0,1,0,11.3A7.87,7.87,0,0,1,344,288Z" transform="translate(-8)" style="fill:#f26522"/><path d="M256,280c-35.9,0-66.5-16.3-67.8-17a8,8,0,0,1-3.3-10.8,8,8,0,0,1,10.8-3.3c.3.2,28.5,15,60.2,15,31.9,0,59.9-14.9,60.2-15a8,8,0,1,1,7.5,14.1C322.5,263.8,291.9,280,256,280Z" transform="translate(-8)" style="fill:#f26522"/><path d="M168,288a8.46,8.46,0,0,1-5.7-2.3,8,8,0,0,1,0-11.3l24-24a8,8,0,0,1,11.3,11.3l-24,24A7.87,7.87,0,0,1,168,288Z" transform="translate(-8)" style="fill:#f26522"/><path d="M232,440a8.46,8.46,0,0,1-5.7-2.3l-16-16a8,8,0,1,1,11.3-11.3l16,16a8,8,0,0,1,0,11.3A7.87,7.87,0,0,1,232,440Z" transform="translate(-8)" style="fill:#f26522"/><path d="M232,440a8,8,0,0,1-2.5-15.6l24-8a8,8,0,0,1,5,15.2l-24,8A7.27,7.27,0,0,1,232,440Z" transform="translate(-8)" style="fill:#f26522"/><path d="M280,440a8.46,8.46,0,0,1-5.7-2.3,8,8,0,0,1,0-11.3l16-16a8,8,0,1,1,11.3,11.3l-16,16A7.87,7.87,0,0,1,280,440Z" transform="translate(-8)" style="fill:#f26522"/><path d="M280,440a7.27,7.27,0,0,1-2.5-.4l-24-8a8,8,0,0,1,5-15.2l24,8A8,8,0,0,1,280,440Z" transform="translate(-8)" style="fill:#f26522"/><path d="M360,512a8,8,0,0,1,0-16,8,8,0,0,0,8-8,8,8,0,0,1,16,0A24.07,24.07,0,0,1,360,512Z" transform="translate(-8)" style="fill:#f26522"/><path d="M152,512a24.07,24.07,0,0,1-24-24,8,8,0,0,1,16,0,8,8,0,0,0,8,8,8,8,0,0,1,0,16Z" transform="translate(-8)" style="fill:#f26522"/><path d="M256.3,472a8,8,0,1,1,0-16h.1a8,8,0,0,1,8,8A8.18,8.18,0,0,1,256.3,472Z" transform="translate(-8)" style="fill:#f26522"/><path d="M64.3,288a8,8,0,0,1,0-16h.1a8,8,0,0,1,8,8A8.18,8.18,0,0,1,64.3,288Z" transform="translate(-8)" style="fill:#f26522"/><path d="M64,312a56,56,0,1,1,56-56A56,56,0,0,1,64,312Zm0-96a40,40,0,1,0,40,40A40.05,40.05,0,0,0,64,216Z" transform="translate(-8)" style="fill:#f26522"/><path d="M64,264a8,8,0,0,1-8-8V232a8,8,0,0,1,16,0v24A8,8,0,0,1,64,264Z" transform="translate(-8)" style="fill:#f26522"/><path d="M136,264H112a8,8,0,0,1,0-16h24a8,8,0,0,1,0,16Z" transform="translate(-8)" style="fill:#f26522"/><path d="M448.3,288a8,8,0,1,1,0-16h.1a8,8,0,0,1,8,8A8.18,8.18,0,0,1,448.3,288Z" transform="translate(-8)" style="fill:#f26522"/><path d="M448,312a56,56,0,1,1,56-56A56,56,0,0,1,448,312Zm0-96a40,40,0,1,0,40,40A40,40,0,0,0,448,216Z" transform="translate(-8)" style="fill:#f26522"/><path d="M448,264a8,8,0,0,1-8-8V232a8,8,0,0,1,16,0v24A8,8,0,0,1,448,264Z" transform="translate(-8)" style="fill:#f26522"/><path d="M400,264H376a8,8,0,0,1,0-16h24a8,8,0,0,1,0,16Z" transform="translate(-8)" style="fill:#f26522"/><path d="M397.7,146.6a8,8,0,0,1,0-16h.1a8,8,0,0,1,8,8A8.18,8.18,0,0,1,397.7,146.6Z" transform="translate(-8)" style="fill:#f26522"/><path d="M397.4,170.6h0a56,56,0,1,1,56-56A56,56,0,0,1,397.4,170.6Zm0-96a40,40,0,1,0,40,40A40,40,0,0,0,397.4,74.6Z" transform="translate(-8)" style="fill:#f26522"/><path d="M397.4,122.6a8,8,0,0,1-8-8v-24a8,8,0,0,1,8-8h0a8,8,0,0,1,8,8v24A8,8,0,0,1,397.4,122.6Z" transform="translate(-8)" style="fill:#f26522"/><path d="M346.5,173.5a8.46,8.46,0,0,1-5.7-2.3,8,8,0,0,1,0-11.3l17-17a8,8,0,1,1,11.3,11.3l-17,17A7.87,7.87,0,0,1,346.5,173.5Z" transform="translate(-8)" style="fill:#f26522"/><path d="M256.3,88a8,8,0,0,1,0-16h.1a8,8,0,0,1,8,8A8.11,8.11,0,0,1,256.3,88Z" transform="translate(-8)" style="fill:#f26522"/><path d="M256,112h0a56,56,0,1,1,56-56A56,56,0,0,1,256,112Zm0-96a40,40,0,1,0,40,40A40,40,0,0,0,256,16Z" transform="translate(-8)" style="fill:#f26522"/><path d="M256,64a8,8,0,0,1-8-8V32a8,8,0,0,1,16,0V56A8,8,0,0,1,256,64Z" transform="translate(-8)" style="fill:#f26522"/><path d="M256,136a8,8,0,0,1-8-8V104a8,8,0,0,1,16,0v24A8,8,0,0,1,256,136Z" transform="translate(-8)" style="fill:#f26522"/><path d="M114.9,146.6a8,8,0,0,1,0-16h.1a8,8,0,0,1,8,8A8.18,8.18,0,0,1,114.9,146.6Z" transform="translate(-8)" style="fill:#f26522"/><path d="M114.6,170.6a56,56,0,1,1,56-56A56.1,56.1,0,0,1,114.6,170.6Zm0-96a40,40,0,0,0-28.3,68.3,39.45,39.45,0,0,0,28.3,11.7,40,40,0,0,0,0-80Z" transform="translate(-8)" style="fill:#f26522"/><path d="M114.6,122.6a8,8,0,0,1-8-8v-24a8,8,0,0,1,16,0v24A8,8,0,0,1,114.6,122.6Z" transform="translate(-8)" style="fill:#f26522"/><path d="M165.5,173.5a8.46,8.46,0,0,1-5.7-2.3l-17-17a8,8,0,0,1,11.3-11.3l17,17a8,8,0,0,1,0,11.3A7.87,7.87,0,0,1,165.5,173.5Z" transform="translate(-8)" style="fill:#f26522"/></svg>