<svg id="Layer_1" data-name="Layer 1" xmlns="http://www.w3.org/2000/svg" xmlns:xlink="http://www.w3.org/1999/xlink" width="512" height="512" viewBox="0 0 512 512"><defs><linearGradient id="linear-gradient" x1="400.26" y1="516.61" x2="395.26" y2="-1.39" gradientTransform="matrix(1, 0, 0, -1, 0, 513)" gradientUnits="userSpaceOnUse"><stop offset="0" stop-color="#ff512f"/><stop offset="1" stop-color="#f09819"/></linearGradient><linearGradient id="linear-gradient-4" x1="258.29" y1="517.98" x2="253.29" y2="-0.02" xlink:href="#linear-gradient"/><linearGradient id="linear-gradient-5" x1="86.57" y1="519.64" x2="81.57" y2="1.64" xlink:href="#linear-gradient"/><linearGradient id="linear-gradient-6" x1="85.88" y1="519.64" x2="80.88" y2="1.64" xlink:href="#linear-gradient"/><linearGradient id="linear-gradient-7" x1="44.91" y1="520.04" x2="39.91" y2="2.04" xlink:href="#linear-gradient"/><linearGradient id="linear-gradient-8" x1="102.8" y1="519.48" x2="97.8" y2="1.48" xlink:href="#linear-gradient"/><linearGradient id="linear-gradient-9" x1="86.52" y1="519.64" x2="81.52" y2="1.64" xlink:href="#linear-gradient"/><linearGradient id="linear-gradient-10" x1="86.84" y1="519.63" x2="81.84" y2="1.63" xlink:href="#linear-gradient"/><linearGradient id="linear-gradient-11" x1="128.45" y1="519.23" x2="123.45" y2="1.23" xlink:href="#linear-gradient"/><linearGradient id="linear-gradient-12" x1="70.66" y1="519.79" x2="65.66" y2="1.79" xlink:href="#linear-gradient"/><linearGradient id="linear-gradient-13" x1="221.07" y1="518.34" x2="216.07" y2="0.34" xlink:href="#linear-gradient"/><linearGradient id="linear-gradient-14" x1="122.71" y1="519.29" x2="117.71" y2="1.29" xlink:href="#linear-gradient"/><linearGradient id="linear-gradient-15" x1="396.91" y1="516.64" x2="391.91" y2="-1.36" xlink:href="#linear-gradient"/></defs><title>process</title><path d="M512,427.6V365.2l-23.9-6.1c-.2-.4-.3-.8-.5-1.2l12.6-21.2-44.1-44.1-21.2,12.6c-.4-.2-.8-.3-1.2-.5l-6.1-23.9H365.2l-6.1,23.9c-.4.2-.8.3-1.2.5l-21.2-12.6-44.1,44.1,12.6,21.2c-.2.4-.3.8-.5,1.2l-23.9,6.1v62.4l23.9,6.1c.2.4.3.8.5,1.2l-12.6,21.2,44.1,44.1,21.2-12.6c.4.2.8.3,1.2.5l6.1,23.9h62.4l6.1-23.9c.4-.2.8-.3,1.2-.5l21.2,12.6,44.1-44.1-12.6-21.2c.2-.4.3-.8.5-1.2Zm-32.6,25.9-26,26L435.8,469l-4,1.9c-2.6,1.2-5.2,2.3-7.9,3.3l-4.2,1.5-5.1,19.9H378l-5.1-19.9-4.2-1.5a60,60,0,0,1-7.9-3.3l-4-1.9-17.6,10.5-26-26,10.5-17.6-1.9-4c-1.2-2.6-2.3-5.2-3.3-7.9l-1.5-4.2-19.9-5.1V378l19.9-5.1,1.5-4.2a60,60,0,0,1,3.3-7.9l1.9-4-10.5-17.6,26-26,17.6,10.5,4-1.9c2.6-1.2,5.2-2.3,7.9-3.3l4.2-1.5,5.1-19.9h36.7l5.1,19.9,4.2,1.5a60,60,0,0,1,7.9,3.3l4,1.9,17.6-10.5,26,26L469,356.9l1.9,4c1.2,2.6,2.3,5.2,3.3,7.9l1.5,4.2,19.9,5.1v36.7l-19.9,5.1-1.5,4.2a60,60,0,0,1-3.3,7.9l-1.9,4Z" style="fill:url(#linear-gradient)"/><path d="M396.4,330.3a66.1,66.1,0,1,0,66.1,66.1A66.17,66.17,0,0,0,396.4,330.3Zm0,115.6a49.5,49.5,0,1,1,49.5-49.5A49.55,49.55,0,0,1,396.4,445.9Z" style="fill:url(#linear-gradient)"/><path d="M396.4,363.4a33,33,0,1,0,33,33A33,33,0,0,0,396.4,363.4Zm0,49.5a16.5,16.5,0,1,1,16.5-16.5A16.52,16.52,0,0,1,396.4,412.9Z" style="fill:url(#linear-gradient)"/><path d="M209.1,139.8a50.4,50.4,0,0,0,13.8,20.9v7l-39.3,14.7a41.48,41.48,0,0,0-26.8,38.7v43.2H355V221.1a41.58,41.58,0,0,0-26.8-38.7L289,167.7v-7a48.54,48.54,0,0,0,13.8-20.9,33.08,33.08,0,0,0,27.5-32.5v-33a74.3,74.3,0,0,0-148.6,0v33A32.92,32.92,0,0,0,209.1,139.8Zm63.4,31.3L256,198.7l-16.5-27.5v-.6a48.39,48.39,0,0,0,33,0Zm-44.8,12.5,16.6,27.7-16.5,8.3-10.7-32Zm110.9,37.5v26.7H173.4V221.1a24.9,24.9,0,0,1,16.1-23.2l12.1-4.5,16.5,49.5L256,224l37.9,18.9,16.5-49.5,12.1,4.6A24.67,24.67,0,0,1,338.6,221.1Zm-43.7-33.6-10.7,32-16.5-8.3,16.6-27.7ZM256,156.9a33,33,0,0,1-33-33V90.3a63.9,63.9,0,0,0,33-13.2,63.9,63.9,0,0,0,33,13.2v33.6A33,33,0,0,1,256,156.9Zm49.5-35.3V93.1a16.38,16.38,0,0,1,0,28.5ZM256,16.5a57.83,57.83,0,0,1,57.8,57.8v4.6a33.24,33.24,0,0,0-16.5-4.6h-1.4a47.64,47.64,0,0,1-34-14.1l-5.8-5.8-5.8,5.8a47.81,47.81,0,0,1-34,14.1h-1.4a33.24,33.24,0,0,0-16.5,4.6V74.3A57.53,57.53,0,0,1,256,16.5ZM206.5,93.1v28.4a16.52,16.52,0,0,1-8.3-14.2A16.31,16.31,0,0,1,206.5,93.1Z" style="fill:url(#linear-gradient-4)"/><path d="M0,512H165.2V297.3H0ZM16.5,313.8H148.6V495.5H16.5Z" style="fill:url(#linear-gradient-5)"/><rect x="33" y="330.3" width="99.1" height="16.5" style="fill:url(#linear-gradient-6)"/><rect x="33" y="363.4" width="16.5" height="16.5" style="fill:url(#linear-gradient-7)"/><rect x="66.1" y="363.4" width="66.1" height="16.5" style="fill:url(#linear-gradient-8)"/><rect x="33" y="396.4" width="99.1" height="16.5" style="fill:url(#linear-gradient-9)"/><rect x="33" y="429.4" width="99.1" height="16.5" style="fill:url(#linear-gradient-10)"/><rect x="115.6" y="462.5" width="16.5" height="16.5" style="fill:url(#linear-gradient-11)"/><rect x="33" y="462.5" width="66.1" height="16.5" style="fill:url(#linear-gradient-12)"/><polygon points="220.5 369.2 208.9 357.5 170 396.4 208.9 435.3 220.5 423.6 201.6 404.6 264.3 404.6 264.3 388.1 201.6 388.1 220.5 369.2" style="fill:url(#linear-gradient-13)"/><path d="M90.8,132.1a8.34,8.34,0,0,1,8.3-8.3H137l-19,19,11.7,11.7,38.9-38.9L129.7,76.7,118,88.4l18.9,18.9H99.1a24.8,24.8,0,0,0-24.8,24.8V280.7H90.8Z" style="fill:url(#linear-gradient-14)"/><path d="M396.4,132.1V236l-18.9-18.9-11.7,11.7,38.9,38.9,38.9-38.9-11.7-11.7L413,236V132.1a24.8,24.8,0,0,0-24.8-24.8H346.9v16.5h41.3A8.39,8.39,0,0,1,396.4,132.1Z" style="fill:url(#linear-gradient-15)"/></svg>