<svg id="Layer_1" data-name="Layer 1" xmlns="http://www.w3.org/2000/svg" xmlns:xlink="http://www.w3.org/1999/xlink" width="576.39" height="505.86" viewBox="0 0 576.39 505.86"><defs><clipPath id="clip-path" transform="translate(-24.81 -56.88)"><polygon points="78.5 290.6 77.79 281.34 167.56 229.52 168.26 238.77 78.5 290.6" style="fill:none"/></clipPath></defs><title>purchase-management</title><polygon points="287.78 293.16 287.74 140.77 409.5 70.38 409.5 222.6 287.78 293.16" style="fill:#dba763"/><polygon points="287.78 293.16 287.74 140.77 165.97 70.38 165.97 222.6 287.78 293.16" style="fill:#e8b679"/><polygon points="165.97 70.38 287.74 140.77 409.5 70.38 287.78 0 165.97 70.38" style="fill:#ffe1c0"/><polygon points="364.23 140.87 337.08 156.63 337.08 112.16 364.23 96.38 364.23 140.87" style="fill:#2a3742"/><polygon points="364.23 96.38 242.64 26.08 215.43 41.81 337.08 112.21 364.23 96.38" style="fill:#3c4d56"/><polygon points="303.87 271.36 303.87 263.52 344.75 239.82 344.75 247.76 303.87 271.36" style="fill:#2a3742"/><polygon points="303.87 257.35 303.87 249.51 344.75 225.81 344.75 233.75 303.87 257.35" style="fill:#2a3742"/><polygon points="381.45 200.29 381.45 227.47 401 216.15 401 188.96 381.45 200.29" style="fill:#2a3742"/><polygon points="192.76 197.44 192.76 225.77 173.21 214.47 173.21 186.15 192.76 197.44" style="fill:#2a3742"/><polygon points="219.44 212.91 219.44 241.24 199.89 229.94 199.89 201.62 219.44 212.91" style="fill:#2a3742"/><polygon points="213.39 114.65 213.39 155.36 173.21 132.14 173.21 91.38 213.39 114.65" style="fill:#fff"/><polygon points="208.47 122.97 208.47 116.35 176.86 98.12 176.86 104.64 208.47 122.97" style="fill:#2a3742"/><polygon points="454.67 390.07 454.63 306.14 576.39 235.75 576.39 319.51 454.67 390.07" style="fill:#dba763"/><polygon points="454.67 390.07 454.63 306.14 332.87 235.75 332.87 319.51 454.67 390.07" style="fill:#e8b679"/><polygon points="332.87 235.74 454.63 306.13 576.39 235.74 454.67 165.36 332.87 235.74" style="fill:#ffe1c0"/><polygon points="531.13 306.23 503.97 322 503.97 277.52 531.13 261.75 531.13 306.23" style="fill:#2a3742"/><polygon points="531.13 261.75 409.53 191.45 382.32 207.17 503.97 277.58 531.13 261.75" style="fill:#3c4d56"/><polygon points="470.76 368.26 470.76 360.43 511.64 336.73 511.64 344.67 470.76 368.26" style="fill:#2a3742"/><polygon points="470.76 354.26 470.76 346.42 511.64 322.71 511.64 330.66 470.76 354.26" style="fill:#2a3742"/><polygon points="548.34 297.19 548.34 324.37 567.89 313.05 567.89 285.87 548.34 297.19" style="fill:#2a3742"/><polygon points="357.4 298.91 357.4 327.24 337.85 315.94 337.85 287.62 357.4 298.91" style="fill:#2a3742"/><polygon points="384.08 314.38 384.08 342.71 364.53 331.41 364.53 303.09 384.08 314.38" style="fill:#2a3742"/><polygon points="449.34 309.62 449.34 350.32 409.16 327.11 409.16 286.35 449.34 309.62" style="fill:#fff"/><polygon points="444.42 317.94 444.42 311.31 412.81 293.09 412.81 299.61 444.42 317.94" style="fill:#2a3742"/><polygon points="455.96 282.7 455.93 233.65 534.55 188.2 534.55 237.28 455.96 282.7" style="fill:#dba763"/><polygon points="455.96 282.7 455.93 233.65 364.13 180.59 364.13 229.63 455.96 282.7" style="fill:#e8b679"/><polygon points="364.13 180.59 455.93 233.65 534.55 188.2 442.81 135.15 364.13 180.59" style="fill:#ffe1c0"/><polygon points="461.82 273.73 461.82 268.67 488.21 253.36 488.21 258.49 461.82 273.73" style="fill:#2a3742"/><polygon points="461.82 264.68 461.82 259.62 488.21 244.31 488.21 249.45 461.82 264.68" style="fill:#2a3742"/><polygon points="383.8 200.5 383.8 223.31 368.06 214.21 368.06 191.4 383.8 200.5" style="fill:#2a3742"/><polygon points="449.77 238.76 449.77 266 409.6 242.78 409.6 215.5 449.77 238.76" style="fill:#fff"/><polygon points="444.85 247.09 444.85 240.46 413.24 222.23 413.24 228.75 444.85 247.09" style="fill:#2a3742"/><polygon points="514.69 225.44 487.53 241.2 487.53 215.37 514.69 199.59 514.69 225.44" style="fill:#2a3742"/><polygon points="514.69 199.59 423.01 146.58 395.78 162.31 487.53 215.42 514.69 199.59" style="fill:#3c4d56"/><path d="M231.54,327.48,32.86,442.19c-4.43,2.55-8-.18-8-6.09V277.42c0-5.9,3.62-12.82,8.05-15.38l198.68-114.7c4.43-2.56,8.05.18,8.05,6.08V312.1C239.59,318,236,324.93,231.54,327.48Z" transform="translate(-24.81 -56.88)" style="fill:#1b2630"/><polygon points="2.98 385.82 13.52 391.79 12.64 379.65 2.98 385.82" style="fill:#1b2630"/><polygon points="222.69 96.13 211.93 90.01 208.12 111.15 222.69 96.13" style="fill:#1b2630"/><path d="M242.43,333.67,43.75,448.38c-4.43,2.55-8-.19-8-6.09V283.61c0-5.9,3.62-12.82,8-15.38L242.43,153.52c4.43-2.55,8,.19,8,6.09V318.29C250.48,324.19,246.86,331.11,242.43,333.67Z" transform="translate(-24.81 -56.88)" style="fill:#3c4d56"/><polygon points="218.71 258.68 17.85 374.65 17.85 221 218.71 105.04 218.71 258.68" style="fill:#232e3a"/><path d="M164.48,373.47,138.9,388.24c-1.32.76-2.41-.05-2.41-1.82h0a5.82,5.82,0,0,1,2.41-4.6l25.58-14.76c1.32-.77,2.4.05,2.4,1.82h0A5.77,5.77,0,0,1,164.48,373.47Z" transform="translate(-24.81 -56.88)" style="fill:#fff"/><polygon points="211.45 116.6 24.83 224.3 24.83 363.29 211.45 255.59 211.45 116.6" style="fill:#fbb03b"/><polygon points="195.05 141.33 44.01 228.49 44.01 352.21 195.05 265.56 195.05 141.33" style="fill:#fff"/><polygon points="102.24 219.62 51.21 248.4 51.21 338.41 102.24 309.75 102.24 219.62" style="fill:#eadce1"/><polygon points="144.04 196.32 108.71 216.71 108.71 272.09 144.04 251.82 144.04 196.32" style="fill:#eadce1"/><polygon points="187.87 236.13 115.7 278.58 115.7 291 187.87 248.66 187.87 236.13" style="fill:#3c4d56"/><polygon points="187.4 170.9 152.07 191.29 152.07 196.43 187.4 176.16 187.4 170.9" style="fill:#eadce1"/><polygon points="187.4 183.17 152.07 203.55 152.07 208.69 187.4 188.43 187.4 183.17" style="fill:#eadce1"/><polygon points="187.4 195.93 152.07 216.32 152.07 221.46 187.4 201.19 187.4 195.93" style="fill:#eadce1"/><polygon points="187.4 208.69 152.07 229.08 152.07 234.22 187.4 213.95 187.4 208.69" style="fill:#eadce1"/><polygon points="187.4 221.46 152.07 241.85 152.07 246.99 187.4 226.72 187.4 221.46" style="fill:#eadce1"/><polygon points="195.05 133.08 44.01 220.25 44.01 245.2 195.05 158.54 195.05 133.08" style="fill:#f15a24"/><path d="M407.18,450,215.29,560.75c-5.12,3-14.15,2.58-20.07-.83L48.48,475.2c-5.92-3.42-6.56-8.63-1.44-11.59L238.92,352.82c5.13-2.95,14.16-2.58,20.07.84l146.74,84.72C411.65,441.79,412.3,447,407.18,450Z" transform="translate(-24.81 -56.88)" style="fill:#1b2630"/><rect x="18.8" y="398.94" width="13.17" height="13.17" style="fill:#1b2630"/><rect x="372.65" y="375.51" width="13.17" height="13.17" style="fill:#1b2630"/><path d="M407.18,437.85,215.29,548.64c-5.12,3-14.15,2.58-20.07-.84L48.48,463.08c-5.92-3.41-6.56-8.63-1.44-11.59L238.92,340.71c5.13-3,14.16-2.58,20.07.83l146.74,84.72C411.65,429.68,412.3,434.89,407.18,437.85Z" transform="translate(-24.81 -56.88)" style="fill:#3c4d56"/><polygon points="321.93 346.71 131.76 456.5 35.27 400.79 225.44 291 321.93 346.71" style="fill:#2a3742"/><polygon points="311.25 411.85 243.97 450.7 207.97 429.91 275.25 391.06 311.25 411.85" style="fill:#1b2630"/><polygon points="43.59 400.56 56.86 392.9 66.41 398.41 53.14 406.08 43.59 400.56" style="fill:#1b2630"/><polygon points="57.47 408.58 70.74 400.91 80.28 406.42 67.01 414.09 57.47 408.58" style="fill:#1b2630"/><polygon points="71.34 416.59 89.26 406.24 98.8 411.75 80.89 422.1 71.34 416.59" style="fill:#1b2630"/><polygon points="242.95 317.5 251.61 312.51 275.03 326.03 266.38 331.03 242.95 317.5" style="fill:#1b2630"/><polygon points="85.22 424.6 103.13 414.25 112.68 419.76 94.76 430.11 85.22 424.6" style="fill:#1b2630"/><polygon points="99.09 432.61 122.78 418.93 132.32 424.44 108.63 438.12 99.09 432.61" style="fill:#1b2630"/><polygon points="244.28 348.78 279.64 328.37 289.19 333.88 253.82 354.29 244.28 348.78" style="fill:#1b2630"/><polygon points="112.96 440.62 126.24 432.95 135.78 438.47 122.51 446.13 112.96 440.62" style="fill:#1b2630"/><polygon points="60.19 390.98 73.46 383.32 83.01 388.83 69.73 396.49 60.19 390.98" style="fill:#1b2630"/><polygon points="74.06 398.99 87.34 391.33 96.88 396.84 83.61 404.5 74.06 398.99" style="fill:#1b2630"/><polygon points="76.96 381.3 90.23 373.64 99.78 379.15 86.5 386.81 76.96 381.3" style="fill:#1b2630"/><polygon points="90.83 389.31 104.11 381.65 113.65 387.16 100.38 394.82 90.83 389.31" style="fill:#1b2630"/><polygon points="93.56 371.72 106.83 364.06 116.37 369.57 103.1 377.23 93.56 371.72" style="fill:#1b2630"/><polygon points="107.43 379.73 120.7 372.07 130.25 377.58 116.97 385.24 107.43 379.73" style="fill:#1b2630"/><polygon points="110.28 362.06 123.55 354.4 133.1 359.91 119.82 367.57 110.28 362.06" style="fill:#1b2630"/><polygon points="124.15 370.07 137.43 362.41 146.97 367.92 133.7 375.58 124.15 370.07" style="fill:#1b2630"/><polygon points="126.88 352.48 140.15 344.82 149.69 350.33 136.42 357.99 126.88 352.48" style="fill:#1b2630"/><polygon points="140.75 360.49 154.02 352.83 163.57 358.34 150.3 366 140.75 360.49" style="fill:#1b2630"/><polygon points="143.65 342.8 156.92 335.13 166.46 340.65 153.19 348.31 143.65 342.8" style="fill:#1b2630"/><polygon points="157.52 350.81 170.79 343.15 180.34 348.66 167.06 356.32 157.52 350.81" style="fill:#1b2630"/><polygon points="93.01 404.07 106.28 396.41 115.83 401.92 102.56 409.59 93.01 404.07" style="fill:#1b2630"/><polygon points="106.89 412.08 120.16 404.42 129.7 409.93 116.43 417.6 106.89 412.08" style="fill:#1b2630"/><polygon points="109.78 394.39 123.05 386.73 132.6 392.24 119.33 399.9 109.78 394.39" style="fill:#1b2630"/><polygon points="123.65 402.4 136.93 394.74 146.47 400.25 133.2 407.91 123.65 402.4" style="fill:#1b2630"/><polygon points="126.38 384.81 139.65 377.15 149.2 382.66 135.92 390.32 126.38 384.81" style="fill:#1b2630"/><polygon points="140.25 392.82 153.53 385.16 163.07 390.67 149.8 398.33 140.25 392.82" style="fill:#1b2630"/><polygon points="143.1 375.15 156.37 367.49 165.92 373 152.65 380.67 143.1 375.15" style="fill:#1b2630"/><polygon points="156.98 383.17 170.25 375.5 179.79 381.01 166.52 388.68 156.98 383.17" style="fill:#1b2630"/><polygon points="159.7 365.57 172.97 357.91 182.52 363.42 169.24 371.08 159.7 365.57" style="fill:#1b2630"/><polygon points="173.57 373.58 186.85 365.92 196.39 371.43 183.12 379.09 173.57 373.58" style="fill:#1b2630"/><polygon points="176.47 355.89 189.74 348.23 199.29 353.74 186.01 361.4 176.47 355.89" style="fill:#1b2630"/><polygon points="190.34 363.9 203.62 356.24 213.16 361.75 199.89 369.41 190.34 363.9" style="fill:#1b2630"/><polygon points="193.12 346.27 206.39 338.61 215.94 344.12 202.67 351.79 193.12 346.27" style="fill:#1b2630"/><polygon points="207 354.29 220.27 346.62 229.81 352.13 216.54 359.8 207 354.29" style="fill:#1b2630"/><polygon points="127.36 416.29 140.63 408.62 150.18 414.13 136.91 421.8 127.36 416.29" style="fill:#1b2630"/><polygon points="144.13 406.6 157.4 398.94 166.95 404.45 153.67 412.11 144.13 406.6" style="fill:#1b2630"/><polygon points="160.73 397.02 174 389.36 183.54 394.87 170.27 402.53 160.73 397.02" style="fill:#1b2630"/><polygon points="177.45 387.37 190.72 379.7 200.27 385.21 187 392.88 177.45 387.37" style="fill:#1b2630"/><polygon points="194.05 377.78 207.32 370.12 216.87 375.63 203.59 383.29 194.05 377.78" style="fill:#1b2630"/><polygon points="210.82 368.1 224.09 360.44 233.63 365.95 220.36 373.61 210.82 368.1" style="fill:#1b2630"/><polygon points="227.47 358.49 240.74 350.82 250.29 356.33 237.02 364 227.47 358.49" style="fill:#1b2630"/><polygon points="209.89 336.59 223.16 328.93 232.71 334.44 219.44 342.11 209.89 336.59" style="fill:#1b2630"/><polygon points="223.76 344.61 237.04 336.94 246.58 342.45 233.31 350.12 223.76 344.61" style="fill:#1b2630"/><polygon points="226.49 327.01 239.76 319.35 249.31 324.86 236.03 332.52 226.49 327.01" style="fill:#1b2630"/><polygon points="240.36 335.02 253.64 327.36 263.18 332.87 249.91 340.53 240.36 335.02" style="fill:#1b2630"/><polygon points="160.24 333.22 173.52 325.55 183.06 331.06 169.79 338.73 160.24 333.22" style="fill:#1b2630"/><polygon points="174.12 341.23 187.39 333.56 196.94 339.07 183.66 346.74 174.12 341.23" style="fill:#1b2630"/><polygon points="177.22 323.41 190.5 315.75 200.04 321.26 186.77 328.92 177.22 323.41" style="fill:#1b2630"/><polygon points="191.1 331.42 204.37 323.76 213.91 329.27 200.64 336.94 191.1 331.42" style="fill:#1b2630"/><polygon points="193.82 313.83 207.09 306.17 216.64 311.68 203.37 319.34 193.82 313.83" style="fill:#1b2630"/><polygon points="207.69 321.84 220.97 314.18 230.51 319.69 217.24 327.35 207.69 321.84" style="fill:#1b2630"/><polygon points="210.59 304.15 223.86 296.49 233.41 302 220.13 309.66 210.59 304.15" style="fill:#1b2630"/><polygon points="224.46 312.16 237.74 304.5 247.28 310.01 234.01 317.67 224.46 312.16" style="fill:#1b2630"/><polygon points="129.56 431.04 142.84 423.37 152.38 428.88 139.11 436.55 129.56 431.04" style="fill:#1b2630"/><polygon points="146.33 421.35 159.6 413.69 169.15 419.2 155.88 426.87 146.33 421.35" style="fill:#1b2630"/><polygon points="233.32 371.13 246.59 363.47 256.14 368.98 242.87 376.64 233.32 371.13" style="fill:#1b2630"/><polygon points="249.92 361.55 263.19 353.88 272.74 359.39 259.46 367.06 249.92 361.55" style="fill:#1b2630"/><polygon points="266.69 351.87 279.96 344.2 289.51 349.71 276.23 357.38 266.69 351.87" style="fill:#1b2630"/><polygon points="283.11 342.38 293.24 336.54 302.78 342.05 292.66 347.89 283.11 342.38" style="fill:#1b2630"/><polygon points="163.1 411.67 230.11 372.99 239.65 378.5 172.65 417.18 163.1 411.67" style="fill:#1b2630"/><polygon points="50.55 431.06 31.68 420.16 31.68 414.08 50.55 424.98 50.55 431.06" style="fill:#fff"/><polygon points="72.39 443.69 53.52 432.79 53.52 426.71 72.39 437.61 72.39 443.69" style="fill:#fff"/><g style="isolation:isolate"><g style="clip-path:url(#clip-path)"><path d="M79,285l-.2-2.69,1-.56c.35-.2.6-.21.76,0a1.54,1.54,0,0,1,.27.83,2.65,2.65,0,0,1-.14,1.11,1.39,1.39,0,0,1-.61.73L79,285m.83-4.69-2,1.17.69,9,.89-.51-.27-3.56,1.23-.71a2.65,2.65,0,0,0,1.09-1.43,5,5,0,0,0,.3-2.25,2.73,2.73,0,0,0-.56-1.64c-.32-.37-.77-.38-1.34-.05" transform="translate(-24.81 -56.88)" style="fill:#fff"/><path d="M86,276.74l-.7.41.44,5.78a4,4,0,0,1-.14,1.67,1.47,1.47,0,0,1-.63.78.57.57,0,0,1-.66,0c-.2-.14-.33-.61-.39-1.39l-.44-5.78-.91.53.44,5.89a6.46,6.46,0,0,0,.31,1.66A1.2,1.2,0,0,0,84,287a1.17,1.17,0,0,0,1-.17,2.63,2.63,0,0,0,1-1.05,4.21,4.21,0,0,0,.48-1.41,9.7,9.7,0,0,0,0-1.88L86,276.74" transform="translate(-24.81 -56.88)" style="fill:#fff"/><path d="M88.58,279.42l-.2-2.69,1.18-.68a.54.54,0,0,1,.67,0,1.23,1.23,0,0,1,.3.83,2.39,2.39,0,0,1-.15,1.15,1.57,1.57,0,0,1-.69.77l-1.11.64m1-4.71-2.14,1.23.68,9,.89-.52-.28-3.69,1.25-.72,1,3.25.94-.54-1.17-3.47a4.24,4.24,0,0,0,.71-2.9,2.69,2.69,0,0,0-.56-1.66c-.32-.32-.78-.31-1.37,0" transform="translate(-24.81 -56.88)" style="fill:#fff"/><path d="M94.2,271.87A3.33,3.33,0,0,0,92.83,274a10.58,10.58,0,0,0-.28,3.64,8.89,8.89,0,0,0,.41,2.21,2.61,2.61,0,0,0,.77,1.29.94.94,0,0,0,1.15,0,3,3,0,0,0,1.23-1.62,7.19,7.19,0,0,0,.4-2.55l-.84.31a4.51,4.51,0,0,1-.2,1.52,1.62,1.62,0,0,1-.63.94c-.33.19-.61.06-.84-.38a5.89,5.89,0,0,1-.49-2.29,9.65,9.65,0,0,1,.09-2.61,1.84,1.84,0,0,1,.71-1.29c.52-.3.91.18,1.16,1.45l.81-.63a3.69,3.69,0,0,0-.79-2,1,1,0,0,0-1.29-.12" transform="translate(-24.81 -56.88)" style="fill:#fff"/><polyline points="75.98 211.32 75.08 211.84 75.37 215.53 73.49 216.62 73.2 212.93 72.31 213.44 73 222.42 73.89 221.91 73.59 218.01 75.47 216.92 75.77 220.82 76.66 220.31 75.98 211.32" style="fill:#fff"/><path d="M103.52,272.42l.41-4.42,1,3.59-1.44.83m.94-6.33-1.1.63-1,9.93.76-.44.22-2.36,1.9-1.1.56,1.91,1-.55-2.34-8" transform="translate(-24.81 -56.88)" style="fill:#fff"/><path d="M108.57,263.57a3,3,0,0,0-1.21,1.46,4.67,4.67,0,0,0-.35,2.22,3.53,3.53,0,0,0,.23,1.05,1.3,1.3,0,0,0,.43.62,1.23,1.23,0,0,0,.76.1l1-.09a.49.49,0,0,1,.53.2,1.52,1.52,0,0,1,.17.62,2.06,2.06,0,0,1-.19,1,1.63,1.63,0,0,1-.71.76c-.69.4-1.12.19-1.29-.64l-.84.83c.19.72.47,1.16.87,1.32a1.49,1.49,0,0,0,1.33-.18,3.44,3.44,0,0,0,1.36-1.58,4.87,4.87,0,0,0,.38-2.4,3.07,3.07,0,0,0-.37-1.35,1,1,0,0,0-1.1-.44l-.87.1c-.47.06-.73-.17-.77-.68a2,2,0,0,1,.16-.93,1.44,1.44,0,0,1,.61-.68c.48-.27.81-.11,1,.49l.82-.86a1.39,1.39,0,0,0-.75-1.07,1.28,1.28,0,0,0-1.17.14" transform="translate(-24.81 -56.88)" style="fill:#fff"/><polyline points="90.04 203.2 86.87 205.04 87.55 214.02 90.76 212.17 90.66 210.77 88.34 212.11 88.15 209.6 89.98 208.54 89.88 207.23 88.05 208.29 87.86 205.86 90.15 204.54 90.04 203.2" style="fill:#fff"/><polyline points="98.28 198.45 96.88 199.26 96.3 205.63 94.83 200.44 93.44 201.24 94.12 210.23 94.85 209.81 94.25 201.94 96.22 209.01 96.69 208.75 97.46 200.09 98.06 207.96 98.96 207.43 98.28 198.45" style="fill:#fff"/><path d="M125.82,259.55l.42-4.42,1,3.58-1.44.84m1-6.34-1.1.63-1,9.93.76-.44.22-2.36,1.9-1.1.56,1.92,1-.55-2.34-8" transform="translate(-24.81 -56.88)" style="fill:#fff"/><path d="M133.11,249.55l-.7.4.48,6.26-.39-.79-2.13-4.29-1,.57.69,9,.72-.41-.51-6.58.17.33c.08.16.14.28.17.36l2.32,4.65.86-.5-.69-9" transform="translate(-24.81 -56.88)" style="fill:#fff"/><path d="M135.84,253.76l.42-4.42,1,3.59-1.44.83m.95-6.34-1.1.64-.95,9.93.76-.44.22-2.36,1.9-1.1.55,1.91,1-.55-2.34-8" transform="translate(-24.81 -56.88)" style="fill:#fff"/><path d="M141.07,244.81a3.48,3.48,0,0,0-1.45,2.24,10.62,10.62,0,0,0-.3,3.61,7.2,7.2,0,0,0,.74,2.93c.41.74.94.92,1.61.53a3,3,0,0,0,1.24-2.12l.36,1.06.39-.23-.35-4.59-1.85,1.07.1,1.3,1-.59a4.56,4.56,0,0,1-.18,1.69,1.87,1.87,0,0,1-.71,1c-.79.45-1.26-.46-1.44-2.73a7.79,7.79,0,0,1,.15-2.58,2,2,0,0,1,.8-1.27c.55-.31.93,0,1.16,1.05l.76-.69a3,3,0,0,0-.76-1.62,1,1,0,0,0-1.29-.07" transform="translate(-24.81 -56.88)" style="fill:#fff"/><polyline points="122.72 184.34 119.54 186.17 120.23 195.16 123.44 193.3 123.33 191.9 121.01 193.24 120.82 190.73 122.66 189.67 122.56 188.37 120.72 189.43 120.54 187 122.82 185.68 122.72 184.34" style="fill:#fff"/><polyline points="128.73 180.87 127.33 181.68 126.76 188.04 125.28 182.86 123.89 183.66 124.58 192.64 125.3 192.23 124.7 184.36 126.67 191.43 127.14 191.16 127.91 182.51 128.51 190.38 129.42 189.85 128.73 180.87" style="fill:#fff"/><polyline points="133.37 178.19 130.19 180.02 130.88 189.01 134.09 187.16 133.98 185.76 131.66 187.1 131.47 184.59 133.3 183.53 133.2 182.22 131.37 183.28 131.18 180.85 133.47 179.53 133.37 178.19" style="fill:#fff"/><path d="M163.08,232.25l-.71.4.48,6.26-.39-.79-2.13-4.29-1,.57.68,9,.72-.41-.5-6.58c.07.16.13.26.16.33l.18.36,2.3,4.65.87-.5-.68-9" transform="translate(-24.81 -56.88)" style="fill:#fff"/><polyline points="142.75 172.77 139.17 174.84 139.28 176.23 140.59 175.47 141.17 183.06 142.13 182.51 141.55 174.92 142.86 174.16 142.75 172.77" style="fill:#fff"/></g></g><path d="M377.24,440.08c-10.06-5.91-38-17.2-53.05-22.12s-41.52-16-48.23-27c-5.63-9.27,4.26-21.85,4.26-21.85l-60.05,35s-9.47,11.81-3.84,21.08c6.71,11.05,31.32,23.13,46.38,28.06s44.83,15.18,54.9,21.08a53,53,0,0,1,18.26,17.57l59.44-34.54A53.53,53.53,0,0,0,377.24,440.08Z" transform="translate(-24.81 -56.88)" style="fill:#fff"/><path d="M394.37,466.32c3.51-5-.22-11.08-.22-11.08l.08,0,0,0-59.58,34.4s3.73,6.06.22,11.07-5.26,12.53,4.51,18.8,42.2,19,42.2,19L441,504.12c-1.26-.5-32.5-12.87-42.07-19C389.11,478.85,390.87,471.33,394.37,466.32Z" transform="translate(-24.81 -56.88)" style="fill:#eadce1"/><path d="M281.75,363.73c1.5-5.25,1.51-9.78-1.87-15.57S260.25,334,250.35,327.77s-44.93-24.39-44.93-24.39L145.77,338s35,18.18,44.93,24.39,26.16,14.61,29.53,20.4,3.37,10.32,1.87,15.56-2.72,7.11-2.72,7.11L279,370.83S280.24,369,281.75,363.73Z" transform="translate(-24.81 -56.88)" style="fill:#eadce1"/><polygon points="184.47 253.1 133.69 282.42 130.96 280.84 181.74 251.52 184.47 253.1" style="fill:#232e3a"/><polygon points="193.95 258.36 143.18 287.68 140.22 286.1 190.99 256.78 193.95 258.36" style="fill:#232e3a"/><polygon points="223.47 274.63 172.69 303.95 169.73 302.37 220.51 273.05 223.47 274.63" style="fill:#232e3a"/><polygon points="203.98 263.54 173.64 281.09 170.68 279.51 201.01 261.96 203.98 263.54" style="fill:#232e3a"/><polygon points="373.69 432.31 322.91 461.64 320.18 460.06 370.95 430.74 373.69 432.31" style="fill:#232e3a"/><polygon points="383.17 437.58 332.39 466.9 329.43 465.32 380.21 435.99 383.17 437.58" style="fill:#232e3a"/><polygon points="393.19 442.75 362.85 460.31 359.89 458.73 390.23 441.17 393.19 442.75" style="fill:#232e3a"/><polygon points="260.3 347.81 209.53 377.13 206.8 375.55 257.57 346.23 260.3 347.81" style="fill:#232e3a"/><polygon points="228.15 355.25 201.15 370.7 199.27 368.34 226.28 352.89 228.15 355.25" style="fill:#232e3a"/><polygon points="269.79 353.07 219.01 382.39 216.05 380.81 266.82 351.49 269.79 353.07" style="fill:#232e3a"/><polygon points="291.61 361.69 240.84 391.01 237.12 389.94 287.9 360.62 291.61 361.69" style="fill:#232e3a"/><polygon points="303.14 365.03 252.37 394.35 248.66 393.02 299.44 363.7 303.14 365.03" style="fill:#232e3a"/><polygon points="313.47 368.94 285.5 385.18 281.79 383.85 309.76 367.62 313.47 368.94" style="fill:#232e3a"/><polygon points="323.1 372.24 295.13 388.47 291.42 387.14 319.39 370.91 323.1 372.24" style="fill:#232e3a"/><polygon points="273.7 362.12 243.36 379.68 239.67 378.69 270.01 361.13 273.7 362.12" style="fill:#232e3a"/><polygon points="213.25 269.05 182.91 286.61 179.95 285.03 210.29 267.47 213.25 269.05" style="fill:#232e3a"/><polygon points="212.42 292.37 182.08 309.93 179.12 308.35 209.46 290.79 212.42 292.37" style="fill:#232e3a"/><polygon points="221.7 298.17 191.36 315.72 188.72 314.05 219.06 296.5 221.7 298.17" style="fill:#232e3a"/><polygon points="332.91 400.04 302.57 417.59 299.93 415.92 330.27 398.37 332.91 400.04" style="fill:#232e3a"/><polygon points="345.02 382.39 293.37 411.91 290.21 410.36 341.86 380.84 345.02 382.39" style="fill:#232e3a"/><polygon points="334.4 377.95 282.76 407.47 279.6 405.91 331.24 376.4 334.4 377.95" style="fill:#232e3a"/><polygon points="251.39 291.5 199.18 322.39 197.1 320.48 249.31 289.59 251.39 291.5" style="fill:#232e3a"/><polygon points="361.54 393.49 309.34 424.38 307.26 422.47 359.46 391.58 361.54 393.49" style="fill:#232e3a"/><polygon points="233.3 280.14 218.13 288.91 215.17 287.33 230.34 278.55 233.3 280.14" style="fill:#232e3a"/><polygon points="201.04 342.21 200.23 345.24 251.78 315.38 253.34 312.38 201.04 342.21" style="fill:#232e3a"/><polygon points="197.1 352.35 195.28 355.95 246.82 326.1 248.39 323.1 197.1 352.35" style="fill:#232e3a"/><polygon points="218.02 324.82 217.61 327.84 254.25 306.7 255.41 303.7 218.02 324.82" style="fill:#232e3a"/><polygon points="315.77 441.17 315 444.01 363.29 416.04 364.76 413.23 315.77 441.17" style="fill:#232e3a"/><polygon points="331.67 424.88 331.29 427.71 365.61 407.9 366.69 405.1 331.67 424.88" style="fill:#232e3a"/></svg>