<svg id="Layer_1" data-name="Layer 1" xmlns="http://www.w3.org/2000/svg" xmlns:xlink="http://www.w3.org/1999/xlink" width="49.67" height="49.7" viewBox="0 0 49.67 49.7"><defs><linearGradient id="linear-gradient" x1="33.59" y1="51.72" x2="32.66" y2="0.52" gradientTransform="matrix(1, 0, 0, -1, 0, 51)" gradientUnits="userSpaceOnUse"><stop offset="0" stop-color="#ff512f"/><stop offset="1" stop-color="#f09819"/></linearGradient><linearGradient id="linear-gradient-2" x1="22.05" y1="51.14" x2="22.87" y2="0.94" xlink:href="#linear-gradient"/><linearGradient id="linear-gradient-3" x1="2.27" y1="50.82" x2="3.1" y2="0.61" gradientTransform="matrix(1, 0, 0, -1, -0.1, 50.9)" xlink:href="#linear-gradient"/><linearGradient id="linear-gradient-4" x1="29.18" y1="51.26" x2="30.01" y2="1.05" xlink:href="#linear-gradient"/><linearGradient id="linear-gradient-5" x1="3.6" y1="50.84" x2="4.43" y2="0.63" xlink:href="#linear-gradient"/></defs><title>responsible</title><path d="M33.3.1A15.58,15.58,0,0,0,17.6,15.4,15.58,15.58,0,0,0,33.3,30.7,15.37,15.37,0,0,0,49,15.5,15.54,15.54,0,0,0,33.3.1ZM29.5,1.7A13.3,13.3,0,0,0,26,6.9a19.3,19.3,0,0,1-3.4-1.1A14.83,14.83,0,0,1,29.5,1.7ZM21.9,6.6a24.3,24.3,0,0,0,3.8,1.3A28.53,28.53,0,0,0,24.5,15H18.7A15,15,0,0,1,21.9,6.6Zm0,17.7A14.27,14.27,0,0,1,18.7,16h5.8a21.61,21.61,0,0,0,1.2,7.1A12.94,12.94,0,0,0,21.9,24.3Zm.7.8h0A15,15,0,0,1,26,24a12.31,12.31,0,0,0,3.5,5.2A14.83,14.83,0,0,1,22.6,25.1Zm10.2,4.6c-2.4-.3-4.5-2.6-5.8-5.9a27.84,27.84,0,0,1,5.8-.6Zm0-7.6a30.78,30.78,0,0,0-6.1.6,22.65,22.65,0,0,1-1.1-6.9h7.3l-.1,6.3Zm0-7.2H25.5A23.15,23.15,0,0,1,26.6,8a31.7,31.7,0,0,0,6.1.7l.1,6.2Zm0-7.2A28.56,28.56,0,0,1,27,7.1c1.3-3.4,3.4-5.6,5.8-5.9Zm12-1.1A14.27,14.27,0,0,1,48,14.9H42.2A21.61,21.61,0,0,0,41,7.8,16.8,16.8,0,0,0,44.8,6.6Zm-.7-.8a22.4,22.4,0,0,1-3.4,1.1,13.08,13.08,0,0,0-3.4-5.2A14.53,14.53,0,0,1,44.1,5.8ZM33.9,1.2c2.4.3,4.5,2.6,5.8,5.9a27.84,27.84,0,0,1-5.8.6Zm0,7.5A30.78,30.78,0,0,0,40,8.1,23.15,23.15,0,0,1,41.1,15H33.8l.1-6.3Zm0,7.2h7.3a23.15,23.15,0,0,1-1.1,6.9,31.7,31.7,0,0,0-6.1-.7l-.1-6.2Zm0,13.8V23.2a28.56,28.56,0,0,1,5.8.6C38.3,27.1,36.2,29.4,33.9,29.7Zm3.3-.5A13.3,13.3,0,0,0,40.7,24a19.3,19.3,0,0,1,3.4,1.1A14.36,14.36,0,0,1,37.2,29.2Zm7.6-4.9A24.3,24.3,0,0,0,41,23a28.53,28.53,0,0,0,1.2-7.1H48A14.31,14.31,0,0,1,44.8,24.3Z" transform="translate(-0.1 -0.1)" style="fill:url(#linear-gradient)"/><path d="M10.9,32.1h6.7c1,0,2.6,1.2,4.1,2.3,1.8,1.3,3.6,2.6,5.1,2.6h5a2.76,2.76,0,0,1,1.9.6.73.73,0,0,0,.6.2,1.42,1.42,0,0,0,.6-.2.78.78,0,0,0,0-1.1,4.34,4.34,0,0,0-3.1-1.1h-5c-1,0-2.6-1.2-4.1-2.3-1.8-1.3-3.6-2.6-5.1-2.6H10.9a.8.8,0,0,0,0,1.6Z" transform="translate(-0.1 -0.1)" style="fill:url(#linear-gradient-2)"/><circle cx="2.9" cy="44.5" r="1.2" style="fill:url(#linear-gradient-3)"/><path d="M49.3,35.2a3,3,0,0,0-2-1.5,3.52,3.52,0,0,0-2.5.3l-9.5,4.6c-1.5.7-3,.7-6.3.7a69.31,69.31,0,0,1-8.2-.8.82.82,0,0,0-1,.7.74.74,0,0,0,.7.9,74.74,74.74,0,0,0,8.4.8c3.5,0,5.2,0,7-.9l9.5-4.6a1.75,1.75,0,0,1,2.3.6,1.72,1.72,0,0,1,.2,1.2,1.59,1.59,0,0,1-.8,1L36,45s-2.4,1.5-7.9,1.5c-4.7,0-11.9-3.9-12-4a14.26,14.26,0,0,0-5.4-.9.8.8,0,0,0,0,1.6,12.47,12.47,0,0,1,4.6.7c.3.2,7.7,4.2,12.8,4.2,6,0,8.6-1.7,8.7-1.7L48,39.6a3.24,3.24,0,0,0,1.6-2A2.63,2.63,0,0,0,49.3,35.2Z" transform="translate(-0.1 -0.1)" style="fill:url(#linear-gradient-4)"/><path d="M5.9,27.2H.9a.79.79,0,0,0-.8.8.86.86,0,0,0,.8.8h5a.79.79,0,0,1,.8.8V47.4a.86.86,0,0,1-.8.8H.9a.79.79,0,0,0-.8.8.86.86,0,0,0,.8.8h5a2.46,2.46,0,0,0,2.5-2.4V29.6A2.46,2.46,0,0,0,5.9,27.2Z" transform="translate(-0.1 -0.1)" style="fill:url(#linear-gradient-5)"/></svg>