<?xml version="1.0" encoding="utf-8"?>
<!-- Generator: Adobe Illustrator 18.0.0, SVG Export Plug-In . SVG Version: 6.00 Build 0)  -->
<!DOCTYPE svg PUBLIC "-//W3C//DTD SVG 1.1//EN" "http://www.w3.org/Graphics/SVG/1.1/DTD/svg11.dtd">
<svg version="1.1" id="Layer_1" xmlns="http://www.w3.org/2000/svg" xmlns:xlink="http://www.w3.org/1999/xlink" x="0px" y="0px"
	 viewBox="-26.2 -29 46.2 49" enable-background="new -26.2 -29 46.2 49" xml:space="preserve">
<g>
	<path display="none" fill="#F26522" d="M5.3-12.3v-3.8H1.1v3.8C1.1-12.2,1-12,0.8-12H-3v4.2h3.8c0.1,0,0.3,0.1,0.3,0.3v3.8h4.2
		v-3.8c0-0.1,0.1-0.3,0.3-0.3h3.8v-4.3H5.6C5.4-12.1,5.3-12.2,5.3-12.3z"/>
	<path fill="#F26522" d="M3.2-26.2C-5.7-26.2-13-18.9-13-10S-5.7,6.3,3.2,6.3S19.5-1.1,19.5-10S12.2-26.2,3.2-26.2z M3.2,3.1
		C-4,3.1-9.9-2.8-9.9-10S-4-23.1,3.2-23.1S16.4-17.2,16.4-10S10.5,3.1,3.2,3.1z"/>
	<polygon fill="#F26522" points="-24,15.3 -22,17.3 -8.1,3.3 -10.1,1.3 	"/>
</g>
<text transform="matrix(1 0 0 1 -0.7664 16.6854)" display="none" enable-background="new    " font-family="'Arial-BoldMT'" font-size="0.8852">Created by fahmistudio</text>
<text transform="matrix(1 0 0 1 -0.7664 17.5713)" display="none" enable-background="new    " font-family="'Arial-BoldMT'" font-size="0.8852">from the Noun Project</text>
</svg>
