<svg id="Layer_1" data-name="Layer 1" xmlns="http://www.w3.org/2000/svg" width="1000.01" height="997.76" viewBox="0 0 1000.01 997.76"><title>services-sharepoint-development</title><path d="M375.7,324.3v77.3s-46.7-35.3-116-21.3c0,0-41.3,12.7-27.3,48,0,0,1.3,13.3,50.7,34.7,0,0,90.7,27.3,106,88.7,0,0,28.7,103.3-78,129.3,0,0-78,26.7-167.3-10.7l.7-82s30.7,32.7,97.3,37.3c0,0,46,8,63.3-24,0,0,16-32-35.3-56,0,0-47.3-20-84-41.3,0,0-69.3-43.3-33.3-132.7,0,0,34.7-60,122.7-60C275,311.7,305,305.7,375.7,324.3Z" transform="translate(1.4 -2.2)" style="fill:#f26522"/><path d="M562.5,984,23.7,876.7c-5.8,0-10.6-8.2-10.6-18.1V144.1c0-10,4.8-18.1,10.6-18.1L566.5,16.7c5.8,0,10.6,8.2,10.6,18.1V509.4" transform="translate(1.4 -2.2)" style="fill:none;stroke:#f26522;stroke-miterlimit:10;stroke-width:29px"/><path d="M652,377.3l-29.5,16a32.49,32.49,0,0,0-13,44l10,18.3a195.58,195.58,0,0,0-36.2,44.8l-20-5.9a32.68,32.68,0,0,0-24.7,2.6A32.16,32.16,0,0,0,523,516.5l-9.5,32.2a32.49,32.49,0,0,0,22,40.3l29.6,8.7a12.5,12.5,0,1,0,7-24L542.5,565a7.57,7.57,0,0,1-5.1-9.3l9.5-32.2a8,8,0,0,1,3.6-4.5,7.47,7.47,0,0,1,5.7-.6l29.6,8.7a12.45,12.45,0,0,0,14.6-6.1,173.45,173.45,0,0,1,42.8-53.1,12.46,12.46,0,0,0,3-15.6l-14.7-27.1a7.53,7.53,0,0,1,3-10.1l29.5-16a7.47,7.47,0,0,1,5.7-.6,8,8,0,0,1,4.5,3.6l14.7,27.1a12.36,12.36,0,0,0,14.8,5.9,174.2,174.2,0,0,1,67.7-7.2,12.8,12.8,0,0,0,13.2-8.9l8.7-29.6a7.57,7.57,0,0,1,9.3-5.1l32.2,9.5a8,8,0,0,1,4.5,3.6,7.47,7.47,0,0,1,.6,5.7l-8.7,29.6a12.45,12.45,0,0,0,6.1,14.6,173.45,173.45,0,0,1,53.1,42.8,12.46,12.46,0,0,0,15.6,3l27.1-14.7a7.09,7.09,0,0,1,5.7-.6,8,8,0,0,1,4.5,3.6l16,29.5a7.47,7.47,0,0,1,.6,5.7,8,8,0,0,1-3.6,4.5l-27.1,14.7a12.47,12.47,0,0,0-5.9,14.8,174.2,174.2,0,0,1,7.2,67.7,12.8,12.8,0,0,0,8.9,13.2l29.6,8.7a7.57,7.57,0,0,1,5.1,9.3l-9.5,32.2a7.57,7.57,0,0,1-9.3,5.1l-29.6-8.7a12.45,12.45,0,0,0-14.6,6.1,173.45,173.45,0,0,1-42.8,53.1,12.46,12.46,0,0,0-3,15.6L880,780a7.47,7.47,0,0,1,.6,5.7,8,8,0,0,1-3.6,4.5L847,806a7.47,7.47,0,0,1-5.7.6,8,8,0,0,1-4.5-3.6l-14.7-27.1A12.55,12.55,0,1,0,800,787.8l14.7,27.1a32.16,32.16,0,0,0,19.4,15.6,33.82,33.82,0,0,0,12.6,1.2,32.87,32.87,0,0,0,12.1-3.8l29.5-16a32.16,32.16,0,0,0,15.6-19.4,32.68,32.68,0,0,0-2.6-24.7l-10-18.3a195.58,195.58,0,0,0,36.2-44.8l20,5.9a32.49,32.49,0,0,0,40.3-22l9.5-32.2a32.49,32.49,0,0,0-22-40.3l-20-5.9a201.47,201.47,0,0,0-6.1-57.3l18.3-10a32.16,32.16,0,0,0,15.6-19.4,32.68,32.68,0,0,0-2.6-24.7l-16-29.5a32.16,32.16,0,0,0-19.4-15.6,32.68,32.68,0,0,0-24.7,2.6l-18.3,10a194.56,194.56,0,0,0-44.7-36.2l5.9-20a32.68,32.68,0,0,0-2.6-24.7,32.16,32.16,0,0,0-19.4-15.6l-32.2-9.5a32.49,32.49,0,0,0-40.3,22l-5.9,20a201.47,201.47,0,0,0-57.3,6.1l-10-18.3A31.91,31.91,0,0,0,652,377.3Z" transform="translate(1.4 -2.2)" style="fill:#f26522"/><path d="M856.7,591a101.84,101.84,0,0,0-112-89.7c-.3,0-.5.1-.8.1a101.88,101.88,0,0,0-89.8,112.8,12.55,12.55,0,0,0,13.8,11h.1a12.38,12.38,0,0,0,11-13.9,76.82,76.82,0,0,1,67.6-85.1c.1,0,.4,0,.5-.1a76.86,76.86,0,0,1,16.8,152.8,12.38,12.38,0,0,0-11,13.9,12.55,12.55,0,0,0,13.8,11h.1A102,102,0,0,0,856.7,591Z" transform="translate(1.4 -2.2)" style="fill:#f26522"/><path d="M585.2,999.8l24.3-2.6a27.22,27.22,0,0,0,24.1-29.8l-1.3-12.5a146,146,0,0,0,32.9-18l9.7,7.9a26.85,26.85,0,0,0,38-4.1l15.3-18.9a26.85,26.85,0,0,0-4.1-38l-9.7-7.9a146.26,146.26,0,0,0,10.7-36l12.5-1.3a27.22,27.22,0,0,0,24.1-29.8l-2.6-24.3a27.22,27.22,0,0,0-29.8-24.1l-12.5,1.3a146,146,0,0,0-18-32.9l7.9-9.7a26.85,26.85,0,0,0-4.1-38l-18.9-15.3a26.85,26.85,0,0,0-38,4.1l-7.9,9.7a146.26,146.26,0,0,0-36-10.7l-1.3-12.5a27.22,27.22,0,0,0-29.8-24.1l-24.3,2.6a27.22,27.22,0,0,0-24.1,29.8l1.3,12.5a146,146,0,0,0-32.9,18l-9.7-7.9a26.85,26.85,0,0,0-38,4.1l-15.3,18.9a27.18,27.18,0,0,0,4,38l9.7,7.9a146.26,146.26,0,0,0-10.7,36l-12.5,1.3a27.22,27.22,0,0,0-24.1,29.8l2.6,24.3a27.22,27.22,0,0,0,29.8,24.1l12.5-1.3a146,146,0,0,0,18,32.9l-7.9,9.7a27.18,27.18,0,0,0,4,38L472,966.3a26.85,26.85,0,0,0,38-4.1l7.9-9.7a146.26,146.26,0,0,0,36,10.7l1.3,12.5C557.1,990.6,570.5,1001.4,585.2,999.8Zm-64.8-73.7a12.13,12.13,0,0,0-7.1-1.4,11.9,11.9,0,0,0-8.4,4.6l-14.1,17.4a1.88,1.88,0,0,1-1.3.8,2.05,2.05,0,0,1-1.5-.5l-18.9-15.3a2,2,0,0,1-.3-2.8l14.1-17.4a12.39,12.39,0,0,0-.2-15.9,121.43,121.43,0,0,1-23.1-42.3,12.62,12.62,0,0,0-13.3-8.8L424,846.9a2,2,0,0,1-2.2-1.8l-2.6-24.3a2,2,0,0,1,1.8-2.2l22.3-2.4a12.4,12.4,0,0,0,11.1-11.4,122.11,122.11,0,0,1,13.7-46.3,12.71,12.71,0,0,0-3.2-15.6l-17.4-14.1a2,2,0,0,1-.3-2.8l15.3-18.9a1.88,1.88,0,0,1,1.3-.8,2.05,2.05,0,0,1,1.5.5l17.4,14.3a12.39,12.39,0,0,0,15.9-.2,121.43,121.43,0,0,1,42.3-23.1,12.62,12.62,0,0,0,8.8-13.3l-2.4-22.3a2,2,0,0,1,1.8-2.2l24.3-2.6a2,2,0,0,1,2.2,1.8l2.4,22.3a12.4,12.4,0,0,0,11.4,11.1,122.11,122.11,0,0,1,46.3,13.7,12.71,12.71,0,0,0,15.6-3.2l14.1-17.4a1.88,1.88,0,0,1,1.3-.8,1.69,1.69,0,0,1,1.5.5l18.9,15.3a1.88,1.88,0,0,1,.8,1.3,2.05,2.05,0,0,1-.5,1.5l-14.1,17.4a12.39,12.39,0,0,0,.2,15.9,121.43,121.43,0,0,1,23.1,42.3,12.62,12.62,0,0,0,13.3,8.8l22.3-2.4a2,2,0,0,1,2.2,1.8l2.6,24.3a2,2,0,0,1-1.8,2.2l-22.3,2.4a12.4,12.4,0,0,0-11.1,11.4,122.11,122.11,0,0,1-13.7,46.3,12.71,12.71,0,0,0,3.2,15.6l17.4,14.1a1.88,1.88,0,0,1,.8,1.3,2.05,2.05,0,0,1-.5,1.5l-15.3,18.9a1.88,1.88,0,0,1-1.3.8,1.69,1.69,0,0,1-1.5-.5l-17.4-14.1a12.39,12.39,0,0,0-15.9.2,121.43,121.43,0,0,1-42.3,23.1,12.62,12.62,0,0,0-8.8,13.3l2.4,22.3a2,2,0,0,1-1.8,2.2l-24.3,2.6a2,2,0,0,1-2.2-1.8l-2.4-22.3A12.4,12.4,0,0,0,566.8,940,127.94,127.94,0,0,1,520.4,926.1Z" transform="translate(1.4 -2.2)" style="fill:#f26522"/><path d="M651.8,808.5a74.52,74.52,0,0,0-81.9-66.1c-40.8,4.3-70.3,41.1-66,81.9a74.37,74.37,0,1,0,147.9-15.8ZM528.9,821.6a49.33,49.33,0,1,1,54.3,43.8A49.39,49.39,0,0,1,528.9,821.6Z" transform="translate(1.4 -2.2)" style="fill:#f26522"/><line x1="592" y1="985.4" x2="598" y2="982.4" style="fill:none"/></svg>