<svg id="Layer_1" data-name="Layer 1" xmlns="http://www.w3.org/2000/svg" width="401.9" height="405" viewBox="0 0 401.9 405"><title>sharepoint-administrator-services-navigation</title><polyline points="235.9 395 10 356.8 11.1 53.5 237 10 236.1 302" style="fill:none;stroke:#f26522;stroke-linecap:round;stroke-linejoin:round;stroke-width:20px"/><circle cx="365.9" cy="202.5" r="26" style="fill:none;stroke:#f26522;stroke-linecap:round;stroke-linejoin:round;stroke-width:20px"/><circle cx="276.8" cy="110.2" r="26" style="fill:none;stroke:#f26522;stroke-linecap:round;stroke-linejoin:round;stroke-width:20px"/><path d="M309.2,120.3S348,133,358,170.1" style="fill:none;stroke:#f26522;stroke-linecap:round;stroke-linejoin:round;stroke-width:20px"/><path d="M359,232.7s1.3,27.1-34.7,39.8" style="fill:none;stroke:#f26522;stroke-linecap:round;stroke-linejoin:round;stroke-width:20px"/><path d="M156.1,121.8s-51.4-13.5-64.8,22a26.16,26.16,0,0,0-1.1,5.7c-1.4,7.6,2,29.8,19.4,41.3a40.24,40.24,0,0,0,5.8,3.1c6.9,3,29.7,13.6,35.8,35,0,0,7.4,28.9-14.7,42.2a23.33,23.33,0,0,1-5.2,2c-8.2,2.3-30.2,4.4-49.9-9.9" style="fill:none;stroke:#f26522;stroke-linecap:round;stroke-linejoin:round;stroke-width:20px"/><path d="M334.1,338.3A25.09,25.09,0,1,0,308.8,295a93,93,0,0,1-10.7,25.7A75.26,75.26,0,0,1,334.1,338.3Z" style="fill:#f26522"/><path d="M386.2,306.8a5.34,5.34,0,0,0-5.3-5.3H370.1a51.34,51.34,0,0,0-3.6-8.7l7.6-7.6a5.14,5.14,0,0,0,1.5-3.7,5.58,5.58,0,0,0-1.5-3.7l-13.5-13.5a5.31,5.31,0,0,0-7.4,0l-7.7,7.7a47,47,0,0,0-8.7-3.6V257.6a5.25,5.25,0,0,0-5.2-5.3h-19a4.87,4.87,0,0,0-3.3,1.3,72.12,72.12,0,0,1,2.5,19,81.32,81.32,0,0,1-1,13,32.4,32.4,0,0,1,11.3-2.1,32.94,32.94,0,0,1,17.8,60.7,75.27,75.27,0,0,1,15.3,25.6,5.55,5.55,0,0,0,1.7.3,5.3,5.3,0,0,0,3.7-1.5l13.5-13.5a5.31,5.31,0,0,0,0-7.4l-7.7-7.7a47,47,0,0,0,3.6-8.7h10.8a5.58,5.58,0,0,0,3.7-1.5,5.14,5.14,0,0,0,1.5-3.7Z" style="fill:#f26522"/><path d="M344.5,374.3a63.71,63.71,0,0,0-54.7-42.8c-8.3,8.8-18.7,14.4-30.4,14.4s-22-5.6-30.4-14.4a63.86,63.86,0,0,0-54.7,42.8l-4.5,13.3a12.5,12.5,0,0,0,11.9,16.5H337.1A12.5,12.5,0,0,0,349,387.6Z" style="fill:#f26522"/><path d="M218.9,272.4c0,29.8,18.1,61.8,40.5,61.8s40.5-32,40.5-61.8C300,210.6,218.9,210.5,218.9,272.4Z" style="fill:#f26522"/></svg>