<?xml version="1.0" encoding="utf-8"?>
<!-- Generator: Adobe Illustrator 23.0.1, SVG Export Plug-In . SVG Version: 6.00 Build 0)  -->
<svg version="1.1"
	 id="Layer_1" xmlns:cc="http://creativecommons.org/ns#" xmlns:dc="http://purl.org/dc/elements/1.1/" xmlns:inkscape="http://www.inkscape.org/namespaces/inkscape" xmlns:rdf="http://www.w3.org/1999/02/22-rdf-syntax-ns#" xmlns:sodipodi="http://sodipodi.sourceforge.net/DTD/sodipodi-0.dtd" xmlns:svg="http://www.w3.org/2000/svg"
	 xmlns="http://www.w3.org/2000/svg" xmlns:xlink="http://www.w3.org/1999/xlink" x="0px" y="0px" viewBox="0 0 50 50"
	 style="enable-background:new 0 0 50 50;" xml:space="preserve">
<style type="text/css">
	.st0{fill:url(#SVGID_1_);}
	.st1{display:none;enable-background:new    ;}
	.st2{font-family:'Arial-BoldMT';}
	.st3{font-size:1.28px;}
</style>
<g transform="translate(0,-952.36218)">
	<g>
		
			<linearGradient id="SVGID_1_" gradientUnits="userSpaceOnUse" x1="23.5855" y1="52.2057" x2="25.9305" y2="-8.638493e-02" gradientTransform="matrix(1 0 0 -1 0 1004.2622)">
			<stop  offset="0" style="stop-color:#FF512F"/>
			<stop  offset="1" style="stop-color:#F09819"/>
		</linearGradient>
		<path class="st0" d="M10.3,953.4c-1.8,0-3.1,1.5-3.1,3.2v40.9c0,1.8,1.4,3.2,3.1,3.2h29.4c1.8,0,3.1-1.5,3.1-3.2
			c0-0.6-0.4-1.1-1-1.1c-0.6,0-1.1,0.5-1.1,1l0,0c0,0.6-0.4,1-1,1H10.3c-0.6,0-1-0.5-1-1v-40.9c0-0.6,0.4-1,1-1h17.8v11.8
			c0,0.6,0.4,1,1,1h11.5v24.7c0,0.6,0.4,1.1,1,1.1c0.6,0,1.1-0.5,1.1-1l0,0v-25.9c0-0.3-0.1-0.6-0.3-0.8l-12.6-12.9
			c-0.2-0.2-0.4-0.3-0.8-0.3H10.3V953.4z M30.2,957l9.1,9.3h-9.1C30.2,966.3,30.2,957,30.2,957z M13.4,975.9c-0.6,0-1,0.6-1,1.1
			c0,0.6,0.6,1,1.1,1h23.1c0.6,0,1.1-0.5,1.1-1c0-0.6-0.4-1.1-1-1.1l0,0H13.4L13.4,975.9z M13.4,982.4c-0.6,0-1,0.6-1,1.1
			s0.6,1,1.1,1h23.1c0.6,0,1.1-0.5,1.1-1s-0.4-1.1-1-1.1l0,0H13.4L13.4,982.4z M13.4,988.9c-0.6,0-1,0.6-1,1.1s0.6,1,1.1,1l0,0h23.1
			c0.6,0,1.1-0.5,1.1-1s-0.4-1.1-1-1.1l0,0H13.4L13.4,988.9z"/>
	</g>
</g>
<text transform="matrix(1 0 0 1 12.2 41.2896)" class="st1 st2 st3">Created by pictohaven</text>
<text transform="matrix(1 0 0 1 12.2 42.5696)" class="st1 st2 st3">from the Noun Project</text>
</svg>
