<svg id="Layer_1" data-name="Layer 1" xmlns="http://www.w3.org/2000/svg" width="99.1" height="100.2" viewBox="0 0 99.1 100.2"><title>accounting</title><path d="M99.6,49.1H78.5V23.6H93.8a1.42,1.42,0,0,0,1.5-1.5V13.6a9.86,9.86,0,0,0-9.9-9.9h-72a9.86,9.86,0,0,0-9.9,9.9V84a4.53,4.53,0,0,0,4.6,4.6H51.6v12.3a3,3,0,0,0,3,3h45a3,3,0,0,0,3-3V52.1A3,3,0,0,0,99.6,49.1ZM92.2,13.5v6.8H78.3V13.5a6.74,6.74,0,0,1,6.8-6.8A6.88,6.88,0,0,1,92.2,13.5ZM8.1,85.6a1.42,1.42,0,0,1-1.5-1.5V13.6a6.74,6.74,0,0,1,6.8-6.8H78.1a10.05,10.05,0,0,0-2.7,6.8V49H54.6a3,3,0,0,0-3,3V85.4H8.1Zm91.5,15.3h-45V52.1h45v48.8Z" transform="translate(-3.5 -3.7)" style="fill:#f26522"/><path d="M94.3,56.7H59.9a1.42,1.42,0,0,0-1.5,1.5V69a1.42,1.42,0,0,0,1.5,1.5H94.2A1.42,1.42,0,0,0,95.7,69V58.2A1.39,1.39,0,0,0,94.3,56.7ZM92.8,67.5H61.5V59.8H92.8Z" transform="translate(-3.5 -3.7)" style="fill:#f26522"/><path d="M65,75.1H62a1.5,1.5,0,0,0,0,3h3a1.42,1.42,0,0,0,1.5-1.5A1.61,1.61,0,0,0,65,75.1Z" transform="translate(-3.5 -3.7)" style="fill:#f26522"/><path d="M74.1,75.1h-3a1.5,1.5,0,0,0,0,3h3a1.42,1.42,0,0,0,1.5-1.5A1.61,1.61,0,0,0,74.1,75.1Z" transform="translate(-3.5 -3.7)" style="fill:#f26522"/><path d="M83.2,75.1h-3a1.5,1.5,0,0,0,0,3h3a1.42,1.42,0,0,0,1.5-1.5A1.61,1.61,0,0,0,83.2,75.1Z" transform="translate(-3.5 -3.7)" style="fill:#f26522"/><path d="M92.3,75.1h-3a1.5,1.5,0,1,0,0,3h3a1.42,1.42,0,0,0,1.5-1.5A1.54,1.54,0,0,0,92.3,75.1Z" transform="translate(-3.5 -3.7)" style="fill:#f26522"/><path d="M65,84.2H62a1.5,1.5,0,1,0,0,3h3a1.42,1.42,0,0,0,1.5-1.5A1.7,1.7,0,0,0,65,84.2Z" transform="translate(-3.5 -3.7)" style="fill:#f26522"/><path d="M74.1,84.2h-3a1.5,1.5,0,0,0,0,3h3a1.42,1.42,0,0,0,1.5-1.5A1.7,1.7,0,0,0,74.1,84.2Z" transform="translate(-3.5 -3.7)" style="fill:#f26522"/><path d="M83.2,84.2h-3a1.5,1.5,0,0,0,0,3h3a1.42,1.42,0,0,0,1.5-1.5A1.7,1.7,0,0,0,83.2,84.2Z" transform="translate(-3.5 -3.7)" style="fill:#f26522"/><path d="M92.3,84.2h-3a1.5,1.5,0,0,0,0,3h3a1.42,1.42,0,0,0,1.5-1.5A1.61,1.61,0,0,0,92.3,84.2Z" transform="translate(-3.5 -3.7)" style="fill:#f26522"/><path d="M65,93.3H62a1.5,1.5,0,0,0,0,3h3a1.42,1.42,0,0,0,1.5-1.5A1.7,1.7,0,0,0,65,93.3Z" transform="translate(-3.5 -3.7)" style="fill:#f26522"/><path d="M74.1,93.3h-3a1.5,1.5,0,0,0,0,3h3a1.42,1.42,0,0,0,1.5-1.5A1.7,1.7,0,0,0,74.1,93.3Z" transform="translate(-3.5 -3.7)" style="fill:#f26522"/><path d="M83.2,93.3h-3a1.5,1.5,0,0,0,0,3h3a1.42,1.42,0,0,0,1.5-1.5A1.7,1.7,0,0,0,83.2,93.3Z" transform="translate(-3.5 -3.7)" style="fill:#f26522"/><path d="M92.3,93.3h-3a1.5,1.5,0,0,0,0,3h3a1.42,1.42,0,0,0,1.5-1.5A1.61,1.61,0,0,0,92.3,93.3Z" transform="translate(-3.5 -3.7)" style="fill:#f26522"/><path d="M45,18.7H67.8a1.5,1.5,0,0,0,0-3H45a1.42,1.42,0,0,0-1.5,1.5A1.54,1.54,0,0,0,45,18.7Z" transform="translate(-3.5 -3.7)" style="fill:#f26522"/><path d="M40.6,75.4H13.2a1.5,1.5,0,0,0,0,3H40.6a1.5,1.5,0,0,0,0-3Z" transform="translate(-3.5 -3.7)" style="fill:#f26522"/><path d="M45,29.3H67.8a1.5,1.5,0,0,0,0-3H45a1.42,1.42,0,0,0-1.5,1.5A1.54,1.54,0,0,0,45,29.3Z" transform="translate(-3.5 -3.7)" style="fill:#f26522"/><path d="M69.4,38.5A1.42,1.42,0,0,0,67.9,37H45c-.9-.1-1.5.5-1.5,1.5A1.37,1.37,0,0,0,45,40H67.8A1.45,1.45,0,0,0,69.4,38.5Z" transform="translate(-3.5 -3.7)" style="fill:#f26522"/><path d="M25.7,68.4a2,2,0,0,0,1.2.6,1.56,1.56,0,0,0,1.2-.6c9.6-12,9.1-11.4,9.4-11.9a1.23,1.23,0,0,0,.2-.5h0V24.1h0V15.7a3.26,3.26,0,0,0-1.4-2.6,3.37,3.37,0,0,0-1.7-.5H19.4a3,3,0,0,0-3,3c0,53-.2,37.2,0,40.3C16.3,56.8,16,56.2,25.7,68.4ZM19.4,54.6v-29h6.1v29ZM34.6,22.5H19.4V15.8H34.6Zm-6.1,3h6.1v29H28.5ZM20.9,57.6H32.8L26.9,65Z" transform="translate(-3.5 -3.7)" style="fill:#f26522"/></svg>