<?xml version="1.0" encoding="utf-8"?>
<!-- Generator: Adobe Illustrator 23.0.1, SVG Export Plug-In . SVG Version: 6.00 Build 0)  -->
<svg version="1.1" id="Layer_1" xmlns="http://www.w3.org/2000/svg" xmlns:xlink="http://www.w3.org/1999/xlink" x="0px" y="0px"
	 viewBox="0 0 50 50" style="enable-background:new 0 0 50 50;" xml:space="preserve">
<style type="text/css">
	.st0{fill:none;}
	.st1{fill:url(#SVGID_1_);}
	.st2{fill:url(#SVGID_2_);}
</style>
<title>active-user-white</title>
<path class="st0" d="M48.8,25c0,13.1-10.7,23.8-23.8,23.8S1.3,38.1,1.3,25S11.9,1.3,25,1.3c4.3,0,8.4,1.2,11.9,3.2
	c-0.7,1-1.1,2.2-1.1,3.6c0,3.5,2.8,6.3,6.3,6.3c1.3,0,2.5-0.4,3.6-1.1C47.6,16.6,48.8,20.7,48.8,25z"/>
<linearGradient id="SVGID_1_" gradientUnits="userSpaceOnUse" x1="25" y1="-0.6207" x2="25" y2="50.2759">
	<stop  offset="0" style="stop-color:#FF512F"/>
	<stop  offset="1" style="stop-color:#F09819"/>
</linearGradient>
<path class="st1" d="M46.7,12.1L46.7,12.1c1-1.1,1.5-2.5,1.5-4.1c0-3.5-2.8-6.3-6.3-6.3c-1.6,0-3,0.6-4.1,1.5
	C34.1,1,29.7-0.3,25-0.3C11.1-0.3-0.3,11.1-0.3,25S11.1,50.3,25,50.3S50.3,38.9,50.3,25C50.3,20.3,49,15.9,46.7,12.1z M38.2,5.2
	c0.3-0.4,0.7-0.8,1.1-1.1C40,3.6,41,3.3,42,3.3c2.6,0,4.8,2.1,4.8,4.8c0,1-0.3,2-0.9,2.8v0c-0.3,0.4-0.7,0.8-1.1,1.1v0
	C44,12.4,43,12.8,42,12.8c-2.6,0-4.8-2.1-4.8-4.8C37.3,7,37.6,6,38.2,5.2z M25,48.8C11.9,48.8,1.3,38.1,1.3,25S11.9,1.3,25,1.3
	c4.3,0,8.4,1.2,11.9,3.2c-0.7,1-1.1,2.2-1.1,3.6c0,3.5,2.8,6.3,6.3,6.3c1.3,0,2.5-0.4,3.6-1.1c2,3.5,3.2,7.5,3.2,11.9
	C48.8,38.1,38.1,48.8,25,48.8z"/>
<linearGradient id="SVGID_2_" gradientUnits="userSpaceOnUse" x1="26.2602" y1="-0.6207" x2="26.2602" y2="50.2759">
	<stop  offset="0" style="stop-color:#FF512F"/>
	<stop  offset="1" style="stop-color:#F09819"/>
</linearGradient>
<path class="st2" d="M26.3,24.8c3,0,5.4-2.4,5.4-5.4S29.2,14,26.3,14s-5.4,2.4-5.4,5.4l0,0C20.9,22.3,23.3,24.7,26.3,24.8L26.3,24.8
	z M29.8,19.4c0,2-1.6,3.6-3.6,3.6s-3.6-1.6-3.6-3.6s1.6-3.6,3.6-3.6l0,0l0,0C28.2,15.8,29.8,17.4,29.8,19.4
	C29.8,19.4,29.8,19.4,29.8,19.4L29.8,19.4L29.8,19.4z M37,33.7c0,1-0.7,1.8-1.7,1.8c0,0,0,0,0,0h-18c-1,0-1.8-0.7-1.8-1.7
	c0,0,0,0,0,0v-0.1c0-1.8,1.8-7.2,10.7-7.2S37,31.9,37,33.7z M35.2,33.7c-0.1-1.1-0.7-2.2-1.5-3c-1.2-1.2-3.4-2.4-7.5-2.4
	s-6.3,1.2-7.5,2.4c-0.8,0.8-1.4,1.9-1.5,3L35.2,33.7z"/>
</svg>
