<svg id="Layer_1" data-name="Layer 1" xmlns="http://www.w3.org/2000/svg" xmlns:xlink="http://www.w3.org/1999/xlink" width="423.7" height="512" viewBox="0 0 423.7 512"><defs><linearGradient id="linear-gradient" x1="220.85" y1="523.92" x2="216.85" y2="-0.08" gradientTransform="matrix(1, 0, 0, -1, 0, 513)" gradientUnits="userSpaceOnUse"><stop offset="0" stop-color="#ff512f"/><stop offset="1" stop-color="#f09819"/></linearGradient><linearGradient id="linear-gradient-2" x1="189.79" y1="524.15" x2="185.79" y2="0.15" xlink:href="#linear-gradient"/><linearGradient id="linear-gradient-3" x1="106.89" y1="524.79" x2="102.89" y2="0.79" xlink:href="#linear-gradient"/><linearGradient id="linear-gradient-4" x1="375.45" y1="522.74" x2="371.45" y2="-1.26" xlink:href="#linear-gradient"/><linearGradient id="linear-gradient-5" x1="375.55" y1="522.74" x2="371.55" y2="-1.26" xlink:href="#linear-gradient"/></defs><title>add-employee</title><path d="M296.9,105.9c-17-14.2-41.2-23.3-71.8-27-24.6-3-48.1-1.8-63.6-.4a23.39,23.39,0,0,0-21.2,23.4v17.7a7.5,7.5,0,0,0,15,0V102a8.49,8.49,0,0,1,7.7-8.5c25.8-2.5,89.5-5.1,124.3,23.9a7.49,7.49,0,1,0,9.6-11.5Z" transform="translate(-44.2)" style="fill:url(#linear-gradient)"/><path d="M300.1,0H195.9a55.3,55.3,0,0,0-39.5,16.6,55.88,55.88,0,0,0-48.1,55.1V94a152,152,0,0,0,4.5,36.8l3.5,13.9v28a108.14,108.14,0,0,0,40.1,84.2v26.7a15.82,15.82,0,0,0-11.1,6.8L135,305.9,80.8,325.6a55.82,55.82,0,0,0-36.6,52.2v70.5a7.5,7.5,0,0,0,15,0V377.8a40.83,40.83,0,0,1,26.7-38.2L137.1,321l31.3,43.8a15.34,15.34,0,0,0,11.3,6.4c.4,0,.9.1,1.3.1a15.77,15.77,0,0,0,11-4.5l4.7-4.7a15.1,15.1,0,0,0,4.4,9l-4.5,76.8a7.49,7.49,0,0,0,7,7.9h.4a7.62,7.62,0,0,0,7.5-7.1l4.3-73.1h8.5l4.3,73.1a7.48,7.48,0,0,0,7.5,7.1h.4a7.42,7.42,0,0,0,7-7.9L239,371.1a15.1,15.1,0,0,0,4.4-9l4.7,4.7a15.59,15.59,0,0,0,11,4.5,5.7,5.7,0,0,0,1.3-.1,15.3,15.3,0,0,0,11.3-6.4l34.6-48.4a7.36,7.36,0,0,0,.1-8.5l-11.7-17.6a15.12,15.12,0,0,0-11.1-6.8V257.7a96,96,0,0,0,9-7.9,103,103,0,0,0,31-74V144.7l3.5-13.9A152,152,0,0,0,331.6,94V31.5A31.56,31.56,0,0,0,300.1,0ZM181.2,356.2s-.2.2-.4.1-.3-.2-.4-.2L148.9,312l8.8-13.3a.66.66,0,0,1,.7-.2l49.5,31Zm46.7,4.5h-16a.47.47,0,0,1-.5-.5V347.3l8.5-8.5,8.5,8.5v12.9h0C228.5,360.5,228.2,360.7,227.9,360.7Zm-8-41.4-48.6-30.4v-22A100.51,100.51,0,0,0,218,279.5h2a104,104,0,0,0,48.6-12v21.4h0ZM291,312l-31.6,44.2c0,.1-.1.2-.4.2a.58.58,0,0,1-.4-.1l-26.7-26.7,49.5-31a.53.53,0,0,1,.7.2ZM316.6,93.9a137.83,137.83,0,0,1-4.1,33.2l-3.7,14.8a11,11,0,0,0-.2,1.8v32.1a88.79,88.79,0,0,1-90.4,88.7c-48-.9-87-42.1-87-91.9V143.7a11,11,0,0,0-.2-1.8l-3.7-14.8a137.21,137.21,0,0,1-4.1-33.2V71.6a40.76,40.76,0,0,1,37.3-40.4,8,8,0,0,0,5-2.5A40.82,40.82,0,0,1,195.9,15H300.1a16.52,16.52,0,0,1,16.5,16.5V93.9Z" transform="translate(-44.2)" style="fill:url(#linear-gradient-2)"/><path d="M111,390.2l-4.6-9.3a7.54,7.54,0,0,0-13.5,6.7l4.6,9.3a24.71,24.71,0,0,1,2.6,11v40.5a7.5,7.5,0,0,0,15,0V407.9A37.17,37.17,0,0,0,111,390.2Z" transform="translate(-44.2)" style="fill:url(#linear-gradient-3)"/><path d="M372.2,320.6a95.7,95.7,0,1,0,95.7,95.7A95.77,95.77,0,0,0,372.2,320.6Zm0,176.4a80.7,80.7,0,1,1,80.7-80.7A80.79,80.79,0,0,1,372.2,497Z" transform="translate(-44.2)" style="fill:url(#linear-gradient-4)"/><path d="M407.5,408.8H379.7V381a7.5,7.5,0,0,0-15,0v27.8H337a7.5,7.5,0,0,0,0,15h27.8v27.8a7.5,7.5,0,0,0,15,0V423.8h27.8a7.55,7.55,0,0,0,7.5-7.5A7.64,7.64,0,0,0,407.5,408.8Z" transform="translate(-44.2)" style="fill:url(#linear-gradient-5)"/></svg>