<?xml version="1.0" encoding="utf-8"?>
<!-- Generator: Adobe Illustrator 23.0.1, SVG Export Plug-In . SVG Version: 6.00 Build 0)  -->
<svg version="1.1" id="Layer_1" xmlns="http://www.w3.org/2000/svg" xmlns:xlink="http://www.w3.org/1999/xlink" x="0px" y="0px"
	 viewBox="0 0 49.5 49.5" style="enable-background:new 0 0 49.5 49.5;" xml:space="preserve">
<style type="text/css">
	.st0{fill:url(#SVGID_1_);}
	.st1{fill:url(#SVGID_2_);}
	.st2{fill:url(#SVGID_3_);}
	.st3{fill:url(#SVGID_4_);}
	.st4{fill:url(#SVGID_5_);}
	.st5{fill:url(#SVGID_6_);}
	.st6{fill:url(#SVGID_7_);}
	.st7{display:none;enable-background:new    ;}
	.st8{font-family:'Arial-BoldMT';}
	.st9{font-size:1.3333px;}
	.st10{display:none;}
</style>
<title>Artboard 12</title>
<g>
	<g>
		<linearGradient id="SVGID_1_" gradientUnits="userSpaceOnUse" x1="21.2795" y1="0.2401" x2="22.314" y2="49.5849">
			<stop  offset="0" style="stop-color:#FF512F"/>
			<stop  offset="1" style="stop-color:#F09819"/>
		</linearGradient>
		<path class="st0" d="M26.6,41.8H6.3V3.5h21.5v8.4c0,0.7,0.5,1.2,1.2,1.2l0,0h8.4v18c0,0.7,0.5,1.2,1.2,1.2s1.2-0.5,1.2-1.2V11.9
			c0-0.3-0.1-0.6-0.4-0.8l-9.6-9.6c-0.2-0.2-0.5-0.4-0.8-0.4H5.1c-0.7,0-1.2,0.5-1.2,1.2l0,0V43c0,0.7,0.5,1.2,1.2,1.2l0,0h21.5
			c0.7,0,1.2-0.5,1.2-1.2C27.8,42.3,27.3,41.8,26.6,41.8z M30.2,5.2l5.5,5.5h-5.5V5.2z"/>
	</g>
	<g>
		<linearGradient id="SVGID_2_" gradientUnits="userSpaceOnUse" x1="35.4455" y1="-5.690733e-02" x2="36.48" y2="49.2879">
			<stop  offset="0" style="stop-color:#FF512F"/>
			<stop  offset="1" style="stop-color:#F09819"/>
		</linearGradient>
		<path class="st1" d="M38.7,39.5h-1.2v-1.2c0-0.7-0.5-1.2-1.2-1.2s-1.2,0.5-1.2,1.2v1.2h-1.2c-0.7,0-1.2,0.5-1.2,1.2
			c0,0.7,0.5,1.2,1.2,1.2h1.2v1.2c0,0.7,0.5,1.2,1.2,1.2s1.2-0.5,1.2-1.2v-1.2h1.2c0.7,0,1.2-0.5,1.2-1.2
			C39.9,40.1,39.4,39.5,38.7,39.5z"/>
	</g>
	<g>
		<linearGradient id="SVGID_3_" gradientUnits="userSpaceOnUse" x1="35.4435" y1="-5.686569e-02" x2="36.478" y2="49.288">
			<stop  offset="0" style="stop-color:#FF512F"/>
			<stop  offset="1" style="stop-color:#F09819"/>
		</linearGradient>
		<path class="st2" d="M36.3,32.4c-4.6,0-8.4,3.8-8.4,8.4s3.8,8.4,8.4,8.4s8.4-3.8,8.4-8.4C44.7,36.1,41,32.4,36.3,32.4z M36.3,46.7
			c-3.3,0-6-2.7-6-6c0-3.3,2.7-6,6-6s6,2.7,6,6C42.3,44,39.6,46.7,36.3,46.7z"/>
	</g>
	<g>
		<linearGradient id="SVGID_4_" gradientUnits="userSpaceOnUse" x1="16.8075" y1="0.3338" x2="17.842" y2="49.6787">
			<stop  offset="0" style="stop-color:#FF512F"/>
			<stop  offset="1" style="stop-color:#F09819"/>
		</linearGradient>
		<path class="st3" d="M12.3,13.1h9.5c0.7,0,1.2-0.5,1.2-1.2c0-0.7-0.5-1.2-1.2-1.2h-9.5c-0.7,0-1.2,0.5-1.2,1.2
			C11.1,12.6,11.6,13.1,12.3,13.1z"/>
	</g>
	<g>
		<linearGradient id="SVGID_5_" gradientUnits="userSpaceOnUse" x1="21.5066" y1="0.2353" x2="22.5411" y2="49.5801">
			<stop  offset="0" style="stop-color:#FF512F"/>
			<stop  offset="1" style="stop-color:#F09819"/>
		</linearGradient>
		<path class="st4" d="M31.4,17.8H12.3c-0.7,0-1.2,0.5-1.2,1.2c0,0.7,0.5,1.2,1.2,1.2h19.2c0.7,0,1.2-0.5,1.2-1.2
			C32.7,18.3,32.1,17.8,31.4,17.8z"/>
	</g>
	<g>
		<linearGradient id="SVGID_6_" gradientUnits="userSpaceOnUse" x1="21.3557" y1="0.2385" x2="22.3902" y2="49.5833">
			<stop  offset="0" style="stop-color:#FF512F"/>
			<stop  offset="1" style="stop-color:#F09819"/>
		</linearGradient>
		<path class="st5" d="M31.4,25H12.3c-0.7,0-1.2,0.5-1.2,1.2s0.5,1.2,1.2,1.2h19.2c0.7,0,1.2-0.5,1.2-1.2S32.1,25,31.4,25z"/>
	</g>
	<g>
		<linearGradient id="SVGID_7_" gradientUnits="userSpaceOnUse" x1="18.8059" y1="0.2919" x2="19.8404" y2="49.6368">
			<stop  offset="0" style="stop-color:#FF512F"/>
			<stop  offset="1" style="stop-color:#F09819"/>
		</linearGradient>
		<path class="st6" d="M26.6,32.2H12.3c-0.7,0-1.2,0.5-1.2,1.2s0.5,1.2,1.2,1.2h14.4c0.7,0,1.2-0.5,1.2-1.2S27.3,32.2,26.6,32.2z"/>
	</g>
</g>
<text transform="matrix(1 0 0 1 12.0002 38.3996)" class="st7 st8 st9">Created by Deemak Daksina</text>
<text transform="matrix(1 0 0 1 12.0002 39.7338)" class="st7 st8 st9">from the Noun Project</text>
<path class="st10" d="M32.2,15.2c-0.9-0.9-2.4-0.9-3.2,0l-7.6,7.6c-0.1,0.1-0.1,0.2-0.1,0.3l-0.8,3.2c0,0.2,0,0.4,0.1,0.5
	S20.9,27,21,27h0.1l3.2-0.8c0.1,0,0.2-0.1,0.3-0.1l7.6-7.6c0.4-0.4,0.7-1,0.7-1.6S32.6,15.6,32.2,15.2z M23.9,25.1l-2.1,0.5l0.5-2.1
	l6.3-6.3l1.6,1.6L23.9,25.1z M31.4,17.6L31,18l-1.6-1.6l0.4-0.4c0.4-0.4,1.2-0.4,1.6,0c0.2,0.2,0.3,0.5,0.3,0.8S31.6,17.4,31.4,17.6
	z"/>
</svg>
