<svg id="Layer_1" data-name="Layer 1" xmlns="http://www.w3.org/2000/svg" xmlns:xlink="http://www.w3.org/1999/xlink" width="850" height="620" viewBox="0 0 850 620"><defs><radialGradient id="radial-gradient" cx="454.38" cy="490.9" r="394.28" gradientTransform="matrix(1, 0.01, 0, 0.25, 1.26, 365.05)" gradientUnits="userSpaceOnUse"><stop offset="0" stop-color="#bdccd4"/><stop offset="0.16" stop-color="#c5d2d9" stop-opacity="0.84"/><stop offset="0.5" stop-color="#dbe1e5" stop-opacity="0.44"/><stop offset="0.86" stop-color="#f2f2f2" stop-opacity="0"/></radialGradient><clipPath id="clip-path"><polygon points="672.44 354.55 671.58 500.72 533.03 512.85 533.89 366.68 672.44 354.55" style="fill:none"/></clipPath><clipPath id="clip-path-2"><polygon points="547.44 382.55 546.58 528.72 408.04 540.84 408.9 394.67 547.44 382.55" style="fill:none"/></clipPath><clipPath id="clip-path-3"><polygon points="374.44 379.55 373.58 525.73 235.03 537.85 235.89 391.67 374.44 379.55" style="fill:none"/></clipPath><clipPath id="clip-path-4"><polygon points="599.44 213.55 598.58 359.73 460.03 371.85 460.89 225.67 599.44 213.55" style="fill:none"/></clipPath><clipPath id="clip-path-5"><polygon points="449.44 225.55 448.58 371.73 310.04 383.85 310.9 237.67 449.44 225.55" style="fill:none"/></clipPath><clipPath id="clip-path-6"><polygon points="524.44 71.55 523.59 217.72 385.04 229.84 385.89 83.67 524.44 71.55" style="fill:none"/></clipPath></defs><title>administrator-module-back</title><rect width="850" height="620" style="fill:none"/><ellipse cx="427" cy="493" rx="372" ry="94" transform="translate(-52.81 51.23) rotate(-6.47)" style="fill:url(#radial-gradient)"/><g style="isolation:isolate"><polygon points="533.03 512.85 475.56 481.45 476.41 335.28 533.89 366.68 533.03 512.85" style="fill:#7a7a7a"/><polygon points="533.89 366.68 476.41 335.28 614.96 323.15 672.44 354.55 533.89 366.68" style="fill:#a4a4a4"/><polygon points="672.44 354.55 671.58 500.72 533.03 512.85 533.89 366.68 672.44 354.55" style="fill:#d5d5d5"/><g style="isolation:isolate"><g style="clip-path:url(#clip-path)"><path d="M571.53,416.67a8.72,8.72,0,0,0-7.65,8.63,7,7,0,0,0,7.55,7.31,8.75,8.75,0,0,0,7.65-8.64,7,7,0,0,0-7.55-7.3" style="fill:gray"/><path d="M576.16,436.18l-9.5.83c-5.78.5-10.48,5.81-10.52,11.87v2a2.63,2.63,0,0,0,2.83,2.74l16.16-1.41v-1a18.76,18.76,0,0,1,6.43-13.9,9.35,9.35,0,0,0-5.39-1.12" style="fill:gray"/><path d="M632.33,411.35a8.72,8.72,0,0,0-7.64,8.63,7,7,0,0,0,7.55,7.31,8.75,8.75,0,0,0,7.65-8.64,7,7,0,0,0-7.56-7.3" style="fill:gray"/><path d="M637,430.86l-9.5.83a10.87,10.87,0,0,0-5.41,2.06,15.35,15.35,0,0,1,6.27,12.8v1l16.16-1.41a3.3,3.3,0,0,0,2.86-3.24l0-2c0-6.06-4.62-10.55-10.39-10" style="fill:gray"/><path d="M602,408c-6.29.55-11.43,6.35-11.47,13s5,11.51,11.33,11,11.44-6.35,11.48-12.95-5-11.51-11.34-11" style="fill:gray"/><path d="M612.24,437l-20.9,1.83c-5.77.5-10.48,5.83-10.52,11.87l0,6a2.62,2.62,0,0,0,2.83,2.74l36.1-3.16a3.28,3.28,0,0,0,2.87-3.24l0-6c0-6.05-4.62-10.55-10.39-10.05" style="fill:gray"/></g></g></g><g style="isolation:isolate"><polygon points="408.04 540.84 350.56 509.44 351.42 363.28 408.9 394.67 408.04 540.84" style="fill:#7a7a7a"/><polygon points="408.9 394.67 351.42 363.28 489.96 351.15 547.44 382.55 408.9 394.67" style="fill:#a4a4a4"/><polygon points="547.44 382.55 546.58 528.72 408.04 540.84 408.9 394.67 547.44 382.55" style="fill:#d5d5d5"/><g style="isolation:isolate"><g style="clip-path:url(#clip-path-2)"><path d="M446.53,444.66a8.75,8.75,0,0,0-7.65,8.64,7,7,0,0,0,7.56,7.31,8.74,8.74,0,0,0,7.64-8.64,7,7,0,0,0-7.55-7.31" style="fill:gray"/><path d="M451.16,464.17l-9.5.84c-5.78.5-10.48,5.81-10.51,11.87l0,2a2.64,2.64,0,0,0,2.84,2.74l16.15-1.41v-1a18.79,18.79,0,0,1,6.43-13.9,9.42,9.42,0,0,0-5.39-1.13" style="fill:gray"/><path d="M507.34,439.34a8.74,8.74,0,0,0-7.65,8.64,7,7,0,0,0,7.55,7.31,8.74,8.74,0,0,0,7.65-8.64,7,7,0,0,0-7.55-7.31" style="fill:gray"/><path d="M512,458.85l-9.5.84a10.9,10.9,0,0,0-5.41,2.06,15.35,15.35,0,0,1,6.27,12.8v1l16.15-1.41a3.31,3.31,0,0,0,2.87-3.24v-2c0-6.06-4.61-10.55-10.39-10" style="fill:gray"/><path d="M477,436c-6.3.55-11.43,6.35-11.47,13s5,11.51,11.33,11,11.43-6.35,11.47-12.95-5-11.51-11.33-11" style="fill:gray"/><path d="M487.25,465l-20.91,1.83c-5.76.5-10.48,5.83-10.51,11.87l0,6a2.62,2.62,0,0,0,2.83,2.74l36.11-3.16A3.29,3.29,0,0,0,497.6,481l0-6c0-6.05-4.62-10.55-10.38-10.05" style="fill:gray"/></g></g></g><g style="isolation:isolate"><polygon points="235.03 537.85 177.56 506.45 178.41 360.27 235.89 391.67 235.03 537.85" style="fill:#7a7a7a"/><polygon points="235.89 391.67 178.41 360.27 316.96 348.15 374.44 379.55 235.89 391.67" style="fill:#a4a4a4"/><polygon points="374.44 379.55 373.58 525.73 235.03 537.85 235.89 391.67 374.44 379.55" style="fill:#d5d5d5"/><g style="isolation:isolate"><g style="clip-path:url(#clip-path-3)"><path d="M273.53,441.66a8.74,8.74,0,0,0-7.65,8.64,7,7,0,0,0,7.55,7.3,8.72,8.72,0,0,0,7.65-8.63,7,7,0,0,0-7.55-7.31" style="fill:gray"/><path d="M278.16,461.17l-9.5.83c-5.78.51-10.48,5.82-10.52,11.88v2a2.64,2.64,0,0,0,2.83,2.74l16.16-1.41v-1a18.79,18.79,0,0,1,6.43-13.91,9.42,9.42,0,0,0-5.39-1.12" style="fill:gray"/><path d="M334.33,436.34a8.74,8.74,0,0,0-7.64,8.64,7,7,0,0,0,7.55,7.3,8.73,8.73,0,0,0,7.65-8.63,7,7,0,0,0-7.56-7.31" style="fill:gray"/><path d="M339,455.85l-9.5.83a11,11,0,0,0-5.41,2.07,15.32,15.32,0,0,1,6.27,12.8v1l16.16-1.41a3.3,3.3,0,0,0,2.86-3.24l0-2c0-6.06-4.61-10.55-10.39-10" style="fill:gray"/><path d="M304,433c-6.3.55-11.44,6.35-11.48,13s5,11.51,11.34,11,11.43-6.35,11.47-13-5-11.51-11.33-11" style="fill:gray"/><path d="M314.24,462l-20.9,1.83c-5.77.5-10.48,5.83-10.52,11.87l0,6a2.62,2.62,0,0,0,2.83,2.74l36.11-3.16a3.28,3.28,0,0,0,2.86-3.24l0-6c0-6-4.62-10.55-10.39-10" style="fill:gray"/></g></g></g><g style="isolation:isolate"><polygon points="460.03 371.85 402.56 340.45 403.41 194.27 460.89 225.67 460.03 371.85" style="fill:#7a7a7a"/><polygon points="460.89 225.67 403.41 194.27 541.96 182.15 599.44 213.55 460.89 225.67" style="fill:#a4a4a4"/><polygon points="599.44 213.55 598.58 359.73 460.03 371.85 460.89 225.67 599.44 213.55" style="fill:#d5d5d5"/><g style="isolation:isolate"><g style="clip-path:url(#clip-path-4)"><path d="M529.93,259.25c-9.55.83-17.34,9.68-17.4,19.75s7.64,17.58,17.19,16.74,17.35-9.68,17.4-19.76-7.64-17.57-17.19-16.73" style="fill:gray"/><path d="M534,298.41l-8.64.75a1.61,1.61,0,0,0-1.18.74,1.7,1.7,0,0,0-.21,1.38l2.72,8.5-1.85,9.6-5.8-16.88a1.31,1.31,0,0,0-1.35-.89,1.24,1.24,0,0,0-.38.09,68.56,68.56,0,0,0-12.28,6.1,15.36,15.36,0,0,0-7.17,12.83l0,2.22a5.32,5.32,0,0,0,5.74,5.58l21.62-1.89,8.64-.76,21.62-1.89a6.65,6.65,0,0,0,5.81-6.59v-2.22a12.34,12.34,0,0,0-7-11.59,56,56,0,0,0-12.23-3.95,1,1,0,0,0-.38,0,1.62,1.62,0,0,0-1.35,1.12l-6,17.91-1.73-9.28,2.81-9a1.49,1.49,0,0,0-.19-1.35,1.27,1.27,0,0,0-1.17-.53" style="fill:gray"/></g></g></g><g style="isolation:isolate"><polygon points="310.04 383.85 252.56 352.45 253.42 206.27 310.9 237.67 310.04 383.85" style="fill:#7a7a7a"/><polygon points="310.9 237.67 253.42 206.27 391.96 194.15 449.44 225.55 310.9 237.67" style="fill:#a4a4a4"/><polygon points="449.44 225.55 448.58 371.73 310.04 383.85 310.9 237.67 449.44 225.55" style="fill:#d5d5d5"/><g style="isolation:isolate"><g style="clip-path:url(#clip-path-5)"><path d="M379.93,271.24c-9.55.84-17.34,9.68-17.4,19.76s7.64,17.57,17.19,16.74,17.35-9.68,17.41-19.77-7.64-17.56-17.2-16.73" style="fill:gray"/><path d="M384,310.4l-8.64.76a1.63,1.63,0,0,0-1.18.73,1.72,1.72,0,0,0-.2,1.39l2.71,8.5-1.85,9.6-5.8-16.88a1.31,1.31,0,0,0-1.73-.8,68.63,68.63,0,0,0-12.28,6.09,15.39,15.39,0,0,0-7.17,12.83l0,2.23a5.32,5.32,0,0,0,5.74,5.57l21.62-1.89,8.64-.75,21.63-1.9a6.64,6.64,0,0,0,5.8-6.58v-2.23a12.33,12.33,0,0,0-7-11.58,56.51,56.51,0,0,0-12.23-4,1.53,1.53,0,0,0-.37,0,1.63,1.63,0,0,0-1.36,1.13l-6,17.91-1.74-9.28,2.81-9a1.46,1.46,0,0,0-.19-1.35,1.29,1.29,0,0,0-1.17-.53" style="fill:gray"/></g></g></g><g style="isolation:isolate"><polygon points="385.04 229.84 327.56 198.45 328.42 52.28 385.89 83.67 385.04 229.84" style="fill:#7a7a7a"/><polygon points="385.89 83.67 328.42 52.28 466.97 40.16 524.44 71.55 385.89 83.67" style="fill:#a4a4a4"/><polygon points="524.44 71.55 523.59 217.72 385.04 229.84 385.89 83.67 524.44 71.55" style="fill:#d5d5d5"/><g style="isolation:isolate"><g style="clip-path:url(#clip-path-6)"><polyline points="467.13 164.78 456.52 180.86 460.83 184.74 470.32 167.61 467.13 164.78" style="fill:#4d4d4d"/><path d="M434.88,207.48a.84.84,0,0,1-.9-.88,1,1,0,0,1,.91-1l9.07-.79a.83.83,0,0,1,.9.87,1,1,0,0,1-.91,1l-9.07.8m0-4.92a.83.83,0,0,1-.9-.87,1,1,0,0,1,.91-1l9.07-.79a.83.83,0,0,1,.89.88,1,1,0,0,1-.9,1l-9.07.79m4-31.07c-3.85,2.63-7.09,4.74-9.73,6.45-6.57,4.25-9.87,6.4-11.41,9.46s-1.52,7.46-1.46,16.19c0,2.45,0,5.21,0,8.38q5.26.81,10.61,1.26l.11-19.92a1,1,0,0,1,.91-1,.84.84,0,0,1,.9.88l-.12,20.21a160.34,160.34,0,0,0,19,.3l3.27-24.5v-1.9l-1.39,1.58-.15.14-.05,0-.12.07-.08,0-.11,0h-.26a.83.83,0,0,1-.65-.43l-9.29-17.27" style="fill:#4d4d4d"/><polyline points="443.69 166.84 440.43 170.25 449.24 186.64 454.13 181.09 443.69 166.84" style="fill:#4d4d4d"/><polyline points="456.57 183.76 454.06 183.98 452.86 185.34 452.84 188.13 457.44 187.72 457.46 184.56 456.57 183.76" style="fill:#4d4d4d"/><path d="M455.89,153.91a7.79,7.79,0,0,0,3.59-1.34.85.85,0,0,1,.43-.16.8.8,0,0,1,.79.43,1.05,1.05,0,0,1-.37,1.33,9.67,9.67,0,0,1-4.46,1.64,8.74,8.74,0,0,1-4.5-.85.92.92,0,0,1-.38-1.25,1,1,0,0,1,.8-.59.76.76,0,0,1,.42.08,7.31,7.31,0,0,0,3.68.71m0-6.27c.23,0,.55-.32.88-.82a1,1,0,0,1,.73-.44.79.79,0,0,1,.53.14,1,1,0,0,1,.18,1.31,3.34,3.34,0,0,1-2.3,1.71h0a2.71,2.71,0,0,1-2.35-1.27,1,1,0,0,1,.15-1.36,1,1,0,0,1,.56-.25.82.82,0,0,1,.71.3c.36.46.7.69.94.68m18.4-12.33-5.84.51a3.29,3.29,0,0,1,.31,1.42,3.71,3.71,0,0,1-3.22,3.66l-4.31.37a2.94,2.94,0,0,1-3.16-3.1,6.67,6.67,0,0,0-2.76-.36,6.91,6.91,0,0,0-2.66.83h0a3.68,3.68,0,0,1-3.2,3.65l-4.31.38a2.94,2.94,0,0,1-3.18-3.1,3.66,3.66,0,0,1,.32-1.47l-4.71.41a40.72,40.72,0,0,0,4.48,13.28c2.57,4.57,7,9.9,13.74,9.32s11.24-6.7,13.87-11.73a48.32,48.32,0,0,0,4.63-14.08" style="fill:#4d4d4d"/><path d="M465.58,136.07l-2.16.19-2.15.19a1.58,1.58,0,0,0-1.39,1.57,1.3,1.3,0,0,0,1.37,1.35l4.31-.38a1.6,1.6,0,0,0,1.4-1.59,1.26,1.26,0,0,0-1.38-1.33" style="fill:#4d4d4d"/><path d="M449.49,137.48l-1.52.13-2.79.24a1.61,1.61,0,0,0-1.41,1.58,1.28,1.28,0,0,0,1.39,1.34l4.31-.37a1.6,1.6,0,0,0,1.38-1.59,1.25,1.25,0,0,0-1.36-1.33" style="fill:#4d4d4d"/><path d="M448.62,132a11,11,0,0,0,6.94-3.1c3.49-3.76,4.79-4.89,5.63-5a1,1,0,0,1,.54.11c.81.41.61,1.44.43,2.35a5.22,5.22,0,0,0-.15,1.55h.16a4.13,4.13,0,0,0,1.24-.43,18.71,18.71,0,0,1,5.94-1.88,5.15,5.15,0,0,1,2.58.33,3.25,3.25,0,0,1,1.81,2.22,1.07,1.07,0,0,1-.64,1.23,1.14,1.14,0,0,1-.25.06.82.82,0,0,1-.86-.62,1.59,1.59,0,0,0-.89-1.12,3.62,3.62,0,0,0-1.76-.2,16.67,16.67,0,0,0-5.32,1.71,5.55,5.55,0,0,1-1.87.6,1.75,1.75,0,0,1-1.33-.35c-.81-.66-.68-1.89-.5-2.92-.66.6-1.75,1.69-3.53,3.61a12.9,12.9,0,0,1-8.16,3.72,12.2,12.2,0,0,1-2.34,0,9.52,9.52,0,0,1-8-5.29,1,1,0,0,1,.39-1.32,1,1,0,0,1,.42-.14.8.8,0,0,1,.8.45,7.92,7.92,0,0,0,6.67,4.4,11.24,11.24,0,0,0,2,0m7.47-19.87c-10.36.91-18.84,10.54-18.9,21.47a26.54,26.54,0,0,0,.15,3l7.85-.69,2.79-.25,1.52-.13a2.79,2.79,0,0,1,2.64,1.29,8.66,8.66,0,0,1,3.19-1,8.47,8.47,0,0,1,3.28.39,3.52,3.52,0,0,1,2.67-1.76l2.15-.19,2.16-.19,9-.78c.11-1.06.18-2.09.19-3.06.06-10.93-8.31-19.1-18.66-18.19" style="fill:#4d4d4d"/><path d="M465.66,200.24a1.74,1.74,0,0,1-1.87-1.83l0-6.95a2.17,2.17,0,0,1,1.89-2.15l4.33-.38v-1.49a1,1,0,0,1,.91-1,.83.83,0,0,1,.9.87v1.49l4.36-.38a1.73,1.73,0,0,1,1.86,1.82l0,6.95a2.18,2.18,0,0,1-1.88,2.16l-10.5.92m6.13-31.65-10,18.06a1,1,0,0,1-.65.5l-.12,0h-.11l-.12,0h-.07l-.11-.05-.05,0-.16-.11-1.14-1,0,2.52,2.36,24a180,180,0,0,0,19.92-3.76l.12-20.18a1,1,0,0,1,.9-1,.83.83,0,0,1,.9.87l-.12,19.88c3.56-.92,7.11-1.94,10.66-3.09,0-3.07.07-5.76.11-8.17.16-8.84.23-13.27-1.31-16.13s-4.87-4.44-11.51-7.61c-2.58-1.23-5.74-2.75-9.47-4.67" style="fill:#4d4d4d"/><polyline points="457.52 189.62 452.72 190.03 449.57 213.54 459.77 212.65 457.52 189.62" style="fill:#4d4d4d"/><polyline points="476.21 190.3 465.71 191.22 465.64 191.3 465.6 198.25 465.67 198.33 476.17 197.41 476.24 197.32 476.28 190.37 476.21 190.3" style="fill:#4d4d4d"/><path d="M492.81,146.54a.83.83,0,0,1-.9-.87,1,1,0,0,1,.91-1l17.77-1.56a.84.84,0,0,1,.9.88,1,1,0,0,1-.91,1l-17.77,1.55m0-3a.83.83,0,0,1-.9-.87,1,1,0,0,1,.91-1l17.77-1.56a.84.84,0,0,1,.9.88,1.06,1.06,0,0,1-.91,1l-17.77,1.55m0-3.38a.84.84,0,0,1-.9-.88,1,1,0,0,1,.91-1l17.77-1.55a.83.83,0,0,1,.9.87,1,1,0,0,1-.91,1l-17.77,1.56m18.09-6.87-18.34,1.6a3.32,3.32,0,0,0-2.91,3.28l-.06,10.66a2.65,2.65,0,0,0,2.87,2.78l.94-.09a.83.83,0,0,1,.9.87l0,2.9,5.67-4.2a.86.86,0,0,1,.47-.18l10.38-.91a3.37,3.37,0,0,0,2.91-3.28l.06-10.66a2.68,2.68,0,0,0-2.87-2.77" style="fill:#4d4d4d"/><path d="M410.22,155.46a2.66,2.66,0,0,1-.69,0,2.48,2.48,0,0,1-1.93-1.87l5.27-.46a3.1,3.1,0,0,1-2.65,2.36m.11-25.19a3.28,3.28,0,0,0-2.86,3.24v.55a9.42,9.42,0,0,0-4.76,7.7l0,4.94-3.17,5.36a1.47,1.47,0,0,0,0,1.45,1.17,1.17,0,0,0,1.18.65h0l5.53-.48a3.72,3.72,0,0,0,4,3.24,3.35,3.35,0,0,0,.69-.13,4.76,4.76,0,0,0,3.38-3.82l5.52-.48a1.59,1.59,0,0,0,1.38-1.57,1.2,1.2,0,0,0-.24-.77l-3.11-4.82v-1a5.65,5.65,0,0,1-.68.11,5.3,5.3,0,0,1-.69,0v1.44l3.35,5.14-19.13,1.68,3.41-5.74,0-5.27a7.87,7.87,0,0,1,4.75-6.83v-1.51a1.72,1.72,0,0,1,1.48-1.69,1.35,1.35,0,0,1,1.46,1.43v1.52a7.65,7.65,0,0,1,1.33.52,6.54,6.54,0,0,1,1.1-1.07,5.68,5.68,0,0,0-1.09-.51V133a2.61,2.61,0,0,0-2.82-2.74" style="fill:#4d4d4d"/><path d="M417.18,134.33a4.72,4.72,0,0,0-4.12,4.68,3.78,3.78,0,0,0,4.07,4,4.73,4.73,0,0,0,4.13-4.69,3.77,3.77,0,0,0-4.08-4" style="fill:#4d4d4d"/><path d="M488.92,106.73a3.46,3.46,0,0,1-3.55-2.17A4.52,4.52,0,0,1,487.46,99a4,4,0,0,1,1.49-.45,3.45,3.45,0,0,1,3.55,2.18,4.48,4.48,0,0,1-2.08,5.51,3.86,3.86,0,0,1-1.5.45m0-9.4a5.06,5.06,0,0,0-1.94.59,5.89,5.89,0,0,0-2.74,7.21A4.58,4.58,0,0,0,489,108a4.94,4.94,0,0,0,1.37-.32l.27.7a.71.71,0,0,0-.15.77l1.17,2.84a.6.6,0,0,0,.63.38,1,1,0,0,0,.28-.08l.64-.34a.8.8,0,0,0,.37-1l-1.16-2.83a.6.6,0,0,0-.64-.38l-.32-.69a5.85,5.85,0,0,0,2.19-6.87A4.56,4.56,0,0,0,489,97.33" style="fill:#4d4d4d"/><path d="M482.37,94.24a2.37,2.37,0,0,0-2.06,2.35v.29l-6.13,4.24a1.67,1.67,0,0,0-1.33-.47h0a2.38,2.38,0,0,0-2.06,2.35,1.88,1.88,0,0,0,2,2,2.36,2.36,0,0,0,2.07-2.34,1.47,1.47,0,0,0,0-.47l6-4.19a1.88,1.88,0,0,0,1.5.55,2.28,2.28,0,0,0,1-.43l1.09,1a9.68,9.68,0,0,1,.87-.94l-1.13-1.1a1.74,1.74,0,0,0,.18-.84,1.89,1.89,0,0,0-2-2" style="fill:#4d4d4d"/><path d="M490.36,99.66l-.59,1a3.13,3.13,0,0,0-.69,0,2.42,2.42,0,0,0-.91.32l-.94-.92a4.13,4.13,0,0,0-.88.94l.95.92a2.49,2.49,0,0,0-.23,1,2.05,2.05,0,0,0,.36,1.21,1.83,1.83,0,0,0,1.68.77,2.09,2.09,0,0,0,1.18-.5,2.33,2.33,0,0,0,.53-3.06l.55-1a2.33,2.33,0,0,0-1-.72" style="fill:#4d4d4d"/><path d="M496.73,87.7h0a2.38,2.38,0,0,0-2,2.35,2.07,2.07,0,0,0,.49,1.35l-3.26,5.72c.31.21.63.42.95.68l3.32-5.72c.13,0,.31,0,.5,0h0a2.35,2.35,0,0,0,2.05-2.34,1.94,1.94,0,0,0-2-2" style="fill:#4d4d4d"/><path d="M436.63,107.05a5.52,5.52,0,0,1-5.94-5.78,6.93,6.93,0,0,1,6-6.83,5.55,5.55,0,0,1,6,5.78,6.92,6.92,0,0,1-6.06,6.83m.08-14.1a8.56,8.56,0,0,0-7.43,8.44,6.87,6.87,0,0,0,7.34,7.2,8.64,8.64,0,0,0,7.48-8.49A6.84,6.84,0,0,0,436.71,93" style="fill:#4d4d4d"/><polyline points="430.57 106.72 424.19 114.01 425.1 114.89 431.48 107.6 430.57 106.72" style="fill:#4d4d4d"/></g></g></g></svg>