<?xml version="1.0" encoding="utf-8"?>
<!-- Generator: Adobe Illustrator 18.0.0, SVG Export Plug-In . SVG Version: 6.00 Build 0)  -->
<!DOCTYPE svg PUBLIC "-//W3C//DTD SVG 1.1//EN" "http://www.w3.org/Graphics/SVG/1.1/DTD/svg11.dtd">
<svg version="1.1" id="Layer_1" xmlns="http://www.w3.org/2000/svg" xmlns:xlink="http://www.w3.org/1999/xlink" x="0px" y="0px"
	 viewBox="-9.5 -8.5 49 43.4" enable-background="new -9.5 -8.5 49 43.4" xml:space="preserve">
<title>70</title>
<g>
	<path fill="#F26522" d="M19,0.1c0-4.7-3.8-8.5-8.5-8.5S2-4.6,2,0.1s3.8,8.5,8.5,8.5S19,4.8,19,0.1L19,0.1z M4,0.1
		c0-3.6,2.9-6.5,6.5-6.5s6.5,2.9,6.5,6.5s-2.9,6.5-6.5,6.5c0,0,0,0,0,0C6.9,6.6,4,3.7,4,0.1z"/>
	<path fill="#F26522" d="M23,18.9c-2,0-3.7,1.6-3.7,3.7s1.6,3.7,3.7,3.7s3.7-1.6,3.7-3.7S25,18.9,23,18.9L23,18.9z M23,24.2
		c-0.9,0-1.7-0.8-1.7-1.7s0.8-1.7,1.7-1.7c0.9,0,1.7,0.8,1.7,1.7S23.9,24.2,23,24.2z"/>
	<path fill="#F26522" d="M34.4,24.7v-4.3l-3-0.5c-0.2-0.5-0.3-1-0.6-1.5l1.8-2.5l-3-3L27,14.7c-0.5-0.2-1-0.4-1.5-0.6l-0.5-3h-4.2
		l-0.5,2.8c-2.3-1.7-5-2.7-7.9-2.7H8.7C1.4,11.2-4.4,17-4.4,24.2v4.4h18.1l-0.4,0.5l3,3l2.5-1.8c0.5,0.2,1,0.4,1.5,0.6l0.5,3h4.3
		l0.5-3c0.5-0.2,1-0.3,1.5-0.6l2.5,1.8l3-3.1l-1.8-2.5c0.2-0.5,0.4-1,0.6-1.5L34.4,24.7z M-2.5,26.6v-2.4c0-6.1,5-11.1,11.1-11.1
		h3.8c1.1,0,2.1,0.2,3.2,0.5l-2.3,2.3l1.8,2.5c-0.2,0.5-0.4,1-0.6,1.5l-3,0.5v4.3l3,0.5c0.2,0.5,0.3,1,0.6,1.5L-2.5,26.6L-2.5,26.6z
		 M30,28.9l-0.7,0.7L27.2,28l-0.5,0.3c-0.6,0.4-1.4,0.7-2.1,0.9l-0.6,0.1l-0.4,2.7h-1L22,29.4l-0.6-0.1c-0.7-0.2-1.5-0.5-2.1-0.9
		L18.7,28l-2.2,1.6l-0.7-0.7l1.6-2.2L17,26.2c-0.4-0.6-0.7-1.4-0.9-2.1L16,23.5L13.3,23v-1l2.7-0.4l0.1-0.6c0.2-0.7,0.5-1.5,0.9-2.1
		l0.3-0.5l-1.6-2.2l0.7-0.7l2.2,1.6l0.5-0.3c0.6-0.4,1.4-0.7,2.1-0.9l0.6-0.1l0.4-2.7h1l0.4,2.7l0.6,0.1c0.7,0.2,1.5,0.5,2.1,0.9
		l0.5,0.3l2.2-1.6l0.7,0.7l-1.6,2.2l0.3,0.5c0.4,0.6,0.7,1.4,0.9,2.1l0.1,0.6l2.7,0.4v1l-2.7,0.4l-0.1,0.6c-0.2,0.7-0.5,1.5-0.9,2.1
		l-0.3,0.5L30,28.9z"/>
</g>
<text transform="matrix(1 0 0 1 2.2 29.4396)" display="none" enable-background="new    " font-family="'Arial-BoldMT'" font-size="1.28">Created by jai</text>
<text transform="matrix(1 0 0 1 2.2 30.7196)" display="none" enable-background="new    " font-family="'Arial-BoldMT'" font-size="1.28">from the Noun Project</text>
</svg>
