<svg id="Layer_1" data-name="Layer 1" xmlns="http://www.w3.org/2000/svg" width="95" height="80.9" viewBox="0 0 95 80.9"><title>admin-white</title><path d="M91.6,44.9a4.42,4.42,0,0,0-4.2,3H78.2a28.43,28.43,0,0,0-1.6-8.3h.1l8.4-3.9h0a4.27,4.27,0,0,0,2.9,1,3.29,3.29,0,0,0,1.7-.4A4.38,4.38,0,0,0,92,30.6a4.45,4.45,0,0,0-4.1-2.7,3.29,3.29,0,0,0-1.7.4,4.33,4.33,0,0,0-2.6,4.9l-8.1,3.7a27.37,27.37,0,0,0-4.6-7c.1-.1.2-.1.2-.2L77.8,23h0a4.33,4.33,0,0,0,1.9.4,4.16,4.16,0,0,0,3.1-1.3,4.53,4.53,0,0,0,0-6.3,4.32,4.32,0,0,0-3.1-1.3,4.16,4.16,0,0,0-3.1,1.3,4.61,4.61,0,0,0-.9,5.1h0L69,27.6c-.1,0-.1.1-.2.2a27.13,27.13,0,0,0-7.7-5.3l3.3-8a4.46,4.46,0,0,0,1.4-8.6,4.67,4.67,0,0,0-1.7-.3A4.44,4.44,0,0,0,60,8.4a4.51,4.51,0,0,0,1.5,5.3l-3.2,7.7h0A28.43,28.43,0,0,0,50,19.8h0V10.6a4.55,4.55,0,0,0,3-4.2,4.5,4.5,0,1,0-9,0,4.42,4.42,0,0,0,3,4.2v9.2h0a26.63,26.63,0,0,0-8.9,1.8c0-.1-.1-.2-.1-.3l-3.6-7.1h0a4.48,4.48,0,0,0-3-7.8,3.29,3.29,0,0,0-1.7.4,4.41,4.41,0,0,0,1.7,8.5h.2l3.8,7.3c0,.1.1.1.1.2a27.72,27.72,0,0,0-7,4.7L22,21a4.41,4.41,0,0,0-.8-5.2,4.32,4.32,0,0,0-3.1-1.3A4.16,4.16,0,0,0,15,15.8a4.53,4.53,0,0,0,0,6.3,4.32,4.32,0,0,0,3.1,1.3,3.29,3.29,0,0,0,1.7-.4l6.6,6.6a32.93,32.93,0,0,0-4.8,7.3l-8.7-4A4.43,4.43,0,0,0,10.1,29a3.17,3.17,0,0,0-1.6-.4,4.46,4.46,0,0,0-1.6,8.6,4.62,4.62,0,0,0,5.3-1.5l8.4,3.9h.1a28.43,28.43,0,0,0-1.6,8.3H9.9a4.55,4.55,0,0,0-4.2-3,4.5,4.5,0,0,0,0,9,4.42,4.42,0,0,0,4.2-3H20.5A1.54,1.54,0,0,0,22,49.4a26.7,26.7,0,0,1,53.4,0,1.54,1.54,0,0,0,1.5,1.5H87.5a4.55,4.55,0,0,0,4.2,3,4.48,4.48,0,0,0,4.5-4.5A4.63,4.63,0,0,0,91.6,44.9ZM86.5,31.8a1.51,1.51,0,0,1,.8-.8,1.27,1.27,0,0,1,.6-.1,1.69,1.69,0,0,1,1.4.9,1.35,1.35,0,0,1,0,1.1,1.51,1.51,0,0,1-.8.8,1.27,1.27,0,0,1-.6.1,1.69,1.69,0,0,1-1.4-.9A1.35,1.35,0,0,1,86.5,31.8ZM30.1,11.4a1.4,1.4,0,0,1,.8-1.9,1.27,1.27,0,0,1,.6-.1,1.69,1.69,0,0,1,1.4.9,1.35,1.35,0,0,1,0,1.1,1.51,1.51,0,0,1-.8.8,1.27,1.27,0,0,1-.6.1A1.69,1.69,0,0,1,30.1,11.4ZM17.1,20a1.29,1.29,0,0,1-.4-1,1.62,1.62,0,0,1,.4-1,1.29,1.29,0,0,1,1-.4,1.62,1.62,0,0,1,1,.4,1.29,1.29,0,0,1,.4,1,1.62,1.62,0,0,1-.4,1,1.45,1.45,0,0,1-2,0ZM9.9,33.6a1.42,1.42,0,0,1-1.4.9,1.27,1.27,0,0,1-.6-.1,1.51,1.51,0,0,1-.8-.8,1.35,1.35,0,0,1,0-1.1,1.42,1.42,0,0,1,1.4-.9,1.27,1.27,0,0,1,.6.1,1.51,1.51,0,0,1,.8.8A2,2,0,0,1,9.9,33.6ZM5.5,50.9a1.5,1.5,0,0,1,0-3,1.5,1.5,0,0,1,0,3ZM62.8,9.5a1.42,1.42,0,0,1,1.4-.9,1.27,1.27,0,0,1,.6.1,1.51,1.51,0,0,1,.8.8,1.35,1.35,0,0,1,0,1.1,1.42,1.42,0,0,1-1.4.9,1.27,1.27,0,0,1-.6-.1A1.33,1.33,0,0,1,62.8,9.5ZM48.5,4.9A1.54,1.54,0,0,1,50,6.4a1.5,1.5,0,0,1-3,0A1.54,1.54,0,0,1,48.5,4.9Zm30.2,13a1.29,1.29,0,0,1,1-.4,1.62,1.62,0,0,1,1,.4,1.29,1.29,0,0,1,.4,1,1.62,1.62,0,0,1-.4,1,1.29,1.29,0,0,1-1,.4,1.62,1.62,0,0,1-1-.4,1.29,1.29,0,0,1-.4-1C78.2,18.7,78.3,18.3,78.7,17.9Zm12.9,33a1.5,1.5,0,1,1,1.5-1.5A1.54,1.54,0,0,1,91.6,50.9Z" transform="translate(-1.2 -1.9)" style="fill:#fff"/><path d="M59,54.1a14.42,14.42,0,0,1-2.7,2.2A14.89,14.89,0,0,1,63,60.2c3.9,3.9,5.7,10.5,5.5,19.4,0,.1-.2.2-.3.2H28.9c-.2,0-.3-.1-.3-.2-.2-9.2,1.5-15.6,5.3-19.5a15.81,15.81,0,0,1,6.8-3.9A11.78,11.78,0,0,1,38,53.9C26.9,58.2,25.3,70.1,25.6,79.7a3.29,3.29,0,0,0,3.3,3.1H68.2a3.23,3.23,0,0,0,3.3-3.1C71.7,70.3,69.9,58.5,59,54.1Z" transform="translate(-1.2 -1.9)" style="fill:#fff"/><path d="M59.7,44.2A11.1,11.1,0,1,0,45.3,54.8L42.8,70.2a3.87,3.87,0,0,0,1.4,3.7l3.5,2.6a2,2,0,0,0,1.4.4,1.79,1.79,0,0,0,1.3-.5l3.5-2.6a3.79,3.79,0,0,0,1.4-3.7L52.1,54.8A11.38,11.38,0,0,0,59.7,44.2ZM52.2,70.7h0c.1.2-.1.6-.2.7l-3.1,2.3-3-2.3c-.2-.1-.3-.5-.3-.7l2.5-15.5H49ZM48.5,52.3a8.2,8.2,0,1,1,8.2-8.2A8.24,8.24,0,0,1,48.5,52.3Z" transform="translate(-1.2 -1.9)" style="fill:#fff"/></svg>