<svg id="Layer_1" data-name="Layer 1" xmlns="http://www.w3.org/2000/svg" xmlns:xlink="http://www.w3.org/1999/xlink" width="43.4" height="43.4" viewBox="0 0 43.4 43.4"><defs><linearGradient id="linear-gradient" x1="29.22" y1="47.21" x2="31.42" y2="1.41" gradientTransform="matrix(1, 0, 0, -1, 0, 47)" gradientUnits="userSpaceOnUse"><stop offset="0" stop-color="#ff512f"/><stop offset="1" stop-color="#f09819"/></linearGradient><linearGradient id="linear-gradient-2" x1="29.22" y1="47.21" x2="31.42" y2="1.41" xlink:href="#linear-gradient"/><linearGradient id="linear-gradient-3" x1="9.09" y1="46.24" x2="11.29" y2="0.44" gradientTransform="matrix(1, 0, 0, -1, -2.9, 45.1)" xlink:href="#linear-gradient"/></defs><title>adv-search</title><path d="M32.2,15.8V12H28v3.8a.32.32,0,0,1-.3.3H23.9v4.2h3.8a.32.32,0,0,1,.3.3v3.8h4.2V20.6a.32.32,0,0,1,.3-.3h3.8V16H32.5C32.3,16,32.2,15.9,32.2,15.8Z" transform="translate(-2.9 -1.9)" style="fill:url(#linear-gradient)"/><path d="M30.1,1.9A16.2,16.2,0,1,0,46.3,18.1,16.26,16.26,0,0,0,30.1,1.9Zm0,29.3A13.1,13.1,0,1,1,43.2,18.1,13.14,13.14,0,0,1,30.1,31.2Z" transform="translate(-2.9 -1.9)" style="fill:url(#linear-gradient-2)"/><polygon points="0 41.4 2 43.4 15.9 29.5 13.9 27.5 0 41.4" style="fill:url(#linear-gradient-3)"/></svg>