<svg id="Layer_1" data-name="Layer 1" xmlns="http://www.w3.org/2000/svg" width="512" height="469.33" viewBox="0 0 512 469.33"><title>alarm</title><path d="M405.33,245.33v-32c0-67.51-45.06-124.63-106.66-143V64a42.67,42.67,0,0,0-85.34,0v6.29c-61.6,18.41-106.66,75.53-106.66,143v32c0,71-16.71,96-28.92,114.18C70.69,370.06,64,380,64,394.67c0,34.77,72.49,47,131.27,51.18a63.55,63.55,0,0,0,121.46,0C375.51,441.64,448,429.44,448,394.67c0-14.64-6.69-24.61-13.75-35.16C422,341.29,405.33,316.34,405.33,245.33ZM234.67,64a21.33,21.33,0,1,1,42.66,0v1.7a134.66,134.66,0,0,0-42.66,0V64ZM256,469.33a42.3,42.3,0,0,1-37.22-22.14c15.11.63,28.24.81,37.22.81s22.11-.18,37.22-.81A42.3,42.3,0,0,1,256,469.33Zm0-42.66c-97.69,0-170.67-16.9-170.67-32,0-7.81,3.29-13.07,10.15-23.28C108.42,352.05,128,322.83,128,245.33v-32a128,128,0,0,1,256,0v32c0,77.5,19.58,106.72,32.52,126.06,6.86,10.21,10.15,15.47,10.15,23.28C426.67,409.77,353.69,426.67,256,426.67Z" transform="translate(0 -21.33)" style="fill:#f26522"/><path d="M499.29,178.46A10.67,10.67,0,0,0,479,185.21a221.26,221.26,0,0,1,0,141.58,10.68,10.68,0,0,0,6.75,13.49,10.49,10.49,0,0,0,3.38.55,10.68,10.68,0,0,0,10.12-7.29,242.88,242.88,0,0,0,0-155.08Z" transform="translate(0 -21.33)" style="fill:#f26522"/><path d="M445.35,185.19a10.68,10.68,0,0,0-6.75,13.49,179.47,179.47,0,0,1,0,114.64,10.67,10.67,0,0,0,20.25,6.73,201,201,0,0,0,0-128.1A10.71,10.71,0,0,0,445.35,185.19Z" transform="translate(0 -21.33)" style="fill:#f26522"/><path d="M21.33,256a223.27,223.27,0,0,1,11.61-70.79,10.67,10.67,0,1,0-20.25-6.75,243.06,243.06,0,0,0,0,155.08,10.69,10.69,0,0,0,10.12,7.29,10.49,10.49,0,0,0,3.38-.55A10.68,10.68,0,0,0,33,326.79,223.15,223.15,0,0,1,21.33,256Z" transform="translate(0 -21.33)" style="fill:#f26522"/><path d="M73.4,313.32a179.47,179.47,0,0,1,0-114.64A10.67,10.67,0,1,0,53.15,192a201,201,0,0,0,0,128.1,10.67,10.67,0,1,0,20.25-6.73Z" transform="translate(0 -21.33)" style="fill:#f26522"/></svg>