<svg id="Capa_1" data-name="Capa 1" xmlns="http://www.w3.org/2000/svg" width="1000" height="997" viewBox="0 0 1000 997"><title>api-development-and-integration</title><rect x="96.4" y="569.3" width="31.1" height="31.1" style="fill:#f26522"/><rect x="96.4" y="661" width="31.1" height="31.1" style="fill:#f26522"/><rect x="96.4" y="754.3" width="31.1" height="31.1" style="fill:#f26522"/><path d="M348.4,605c-3.1,32.7,0,66.9,7.8,99.5l-60.7,45.1,45.1,87.1,71.5-23.3c21.8,26.4,48.2,48.2,76.2,65.3l-10.9,73.1,93.3,29.5,34.2-66.9c32.7,3.1,66.9,0,99.5-7.8l45.1,60.7,87.1-45.1-23.3-71.5a270.75,270.75,0,0,0,63.8-76.2l74.7,10.9,29.5-93.3-66.9-35.8c3.1-32.7,0-66.9-7.8-99.5l60.7-45.1-46.7-87.1-71.5,23.3c-21.8-26.4-48.2-48.2-76.2-65.3l10.9-74.7-93.3-29.5-34.2,68.4c-32.7-3.1-66.9,0-99.5,7.8l-45.1-60.7L424.6,339l23.3,71.5a270.75,270.75,0,0,0-63.8,76.2l-74.7-10.9-29.5,93.3Z" transform="translate(0 -1.5)" style="fill:#fff"/><circle cx="630.3" cy="629.8" r="225.5" style="fill:#f26522"/><path d="M569.2,712.3H545.9V597.2a35.8,35.8,0,1,0-71.6,0V712.3H451V597.2a59.1,59.1,0,0,1,118.2,0Z" transform="translate(0 -1.5)" style="fill:#fff"/><path d="M623.6,712.3H600.3V538.1h62.2a45.11,45.11,0,0,1,45.1,45.1v20.2a45.11,45.11,0,0,1-45.1,45.1H623.6Zm0-87.1h38.9a21.3,21.3,0,0,0,21.8-21.8V583.2a21.3,21.3,0,0,0-21.8-21.8H623.6Z" transform="translate(0 -1.5)" style="fill:#fff"/><polygon points="799.4 559.9 799.4 536.6 730.9 536.6 730.9 559.9 754.3 559.9 754.3 698.3 730.9 698.3 730.9 721.7 799.4 721.7 799.4 698.3 777.6 698.3 777.6 559.9 799.4 559.9" style="fill:#fff"/><rect x="461.9" y="612.8" width="94.9" height="23.3" style="fill:#fff"/><path d="M538.1,166.4v-4.7c0-79.3-65.3-144.6-144.6-144.6a144.49,144.49,0,0,0-126,73.1c-17.1-15.6-40.4-24.9-66.9-24.9C144.6,65.3,98,112,98,168v1.6c-48.2,18.7-82.4,66.9-82.4,122.9A130.38,130.38,0,0,0,146.2,423.1H500.8A130.38,130.38,0,0,0,631.4,292.5C634.5,233.3,594.1,182,538.1,166.4Z" transform="translate(0 -1.5)" style="fill:#fff"/><path d="M930,647c1.6-28,0-56-7.8-84l62.2-46.7L926.9,405.9l-74.7,24.9c-18.7-21.8-40.4-38.9-65.3-54.4l12.4-77.8L681.1,261.3l-34.2,70h-3.1a157.05,157.05,0,0,0,4.7-38.9c0-60.7-38.9-116.6-94.9-136.9A159.81,159.81,0,0,0,393.4,1.5c-51.3,0-99.5,24.9-130.6,66.9a124.53,124.53,0,0,0-62.2-17.1c-62.2,0-113.5,48.2-118.2,108.9C31.1,185.1,0,234.8,0,292.4A146,146,0,0,0,146.2,438.6H398.1c-7.8,10.9-15.6,20.2-23.3,32.7L297,458.8,261.2,578.6l70,34.2c-1.6,28,0,56,7.8,84l-62.2,46.7,57.5,110.4L409,829c18.7,21.8,40.4,38.9,65.3,54.4l-12.4,77.8,118.2,37.3,34.2-70c28,1.6,56-1.6,84-7.8L745,982.9l110.4-57.5-24.9-74.7c21.8-18.7,38.9-40.4,54.4-65.3l77.8,12.4L1000,678ZM32.7,292.4c0-48.2,28-90.2,73.1-107.3l9.3-6.2V168a87,87,0,0,1,87.1-87.1c20.2,0,40.4,7.8,56,20.2l14,12.4L283,98c23.3-40.4,65.3-65.3,112-65.3A128.78,128.78,0,0,1,524.1,161.8v17.1L535,182c49.8,14,84,60.7,84,112A114.8,114.8,0,0,1,503.9,409.1H147.7C84,409,32.7,356.1,32.7,292.4ZM940.9,766.7l-71.5-10.9-6.2,9.3c-15.6,28-35.8,52.9-60.7,73.1l-7.8,6.2L818,912.8l-63.8,32.7-43.5-59.1-10.9,3.1c-31.1,7.8-62.2,10.9-94.9,7.8L594,895.7l-31,67-68.4-21.8,10.9-71.5-9.3-4.7c-28-15.6-51.3-35.8-73.1-60.7l-6.2-7.8-68.4,23.3-32.7-63.8,59.1-43.5-3.1-10.9c-7.8-31.1-10.9-62.2-7.8-94.9l1.6-10.9-67-32.5,21.8-68.4,71.5,10.9,4.7-9.3c12.4-20.2,26.4-40.4,43.5-56h60.7c56,0,104.2-31.1,129.1-77.8,7.8,0,15.6,0,23.3,1.6l10.9,1.6,32.7-65.3,68.4,21.8-9.3,70,9.3,4.7c28,15.6,51.3,35.8,73.1,60.7l6.2,7.8L912.9,442l32.7,63.8L886.5,549l3.1,10.9c7.8,31.1,10.9,62.2,7.8,94.9l-1.6,10.9,65.3,32.7Z" transform="translate(0 -1.5)" style="fill:#f26522"/><polygon points="379.5 298.7 458.8 298.7 458.8 219.3 435.5 242.7 342.1 147.8 309.5 180.5 404.4 275.3 379.5 298.7" style="fill:#f26522"/><polygon points="261.3 194.5 182 194.5 182 273.8 206.8 250.4 300.2 345.3 332.8 312.7 237.9 217.8 261.3 194.5" style="fill:#f26522"/></svg>