<svg id="Layer_1" data-name="Layer 1" xmlns="http://www.w3.org/2000/svg" width="427.8" height="489.8" viewBox="0 0 427.8 489.8"><title>application-server</title><circle cx="214" cy="453.9" r="26.8" style="fill:#a7a9ac"/><circle cx="391.8" cy="453.9" r="26.8" style="fill:#a7a9ac"/><circle cx="67" cy="453.9" r="26.8" transform="translate(-419.88 505.76) rotate(-88.09)" style="fill:#a7a9ac"/><path d="M442.9,30.5A30.56,30.56,0,0,0,412.4,0H77.6A30.56,30.56,0,0,0,47.1,30.5V99.6A30.58,30.58,0,0,0,55.9,121a30.58,30.58,0,0,0-8.8,21.4v69.1a30.58,30.58,0,0,0,8.8,21.4,30.58,30.58,0,0,0-8.8,21.4v69.1a30.56,30.56,0,0,0,30.5,30.5H412.4a30.56,30.56,0,0,0,30.5-30.5V254.3a30.58,30.58,0,0,0-8.8-21.4,30.58,30.58,0,0,0,8.8-21.4V142.4a30.58,30.58,0,0,0-8.8-21.4,30.58,30.58,0,0,0,8.8-21.4Zm-377.7,0A12.29,12.29,0,0,1,77.5,18.2H412.3a12.38,12.38,0,0,1,12.4,12.3V99.6A12.4,12.4,0,0,1,412.3,112H77.6A12.31,12.31,0,0,1,65.3,99.6V30.5ZM424.8,142.4v69.1a12.31,12.31,0,0,1-12.4,12.3H77.6a12.29,12.29,0,0,1-12.3-12.3V142.4a12.29,12.29,0,0,1,12.3-12.3H412.4A12.38,12.38,0,0,1,424.8,142.4Zm0,181a12.31,12.31,0,0,1-12.4,12.3H77.6a12.29,12.29,0,0,1-12.3-12.3V254.3A12.29,12.29,0,0,1,77.6,242H412.4a12.38,12.38,0,0,1,12.4,12.3Z" transform="translate(-31)"/><path d="M241,74.1H354a9.1,9.1,0,1,0,0-18.2H241a9.1,9.1,0,1,0,0,18.2Z" transform="translate(-31)"/><circle cx="117.8" cy="65.1" r="10.8"/><path d="M241,186H354a9.1,9.1,0,1,0,0-18.2H241a9.1,9.1,0,1,0,0,18.2Z" transform="translate(-31)"/><path d="M354,279.8H241a9.1,9.1,0,1,0,0,18.2H354a9.1,9.1,0,1,0,0-18.2Z" transform="translate(-31)"/><circle cx="117.8" cy="177" r="10.8"/><circle cx="117.8" cy="288.9" r="10.8"/><path d="M422.8,418a36,36,0,0,0-34.7,26.8H279.7a36,36,0,0,0-25.6-25.6V390.8a9.1,9.1,0,0,0-18.2,0v28.4a36,36,0,0,0-25.6,25.6H101.6a35.9,35.9,0,1,0,0,18.2H210.3a35.86,35.86,0,0,0,69.4,0H388.2a35.89,35.89,0,1,0,34.6-45ZM67,471.6a17.8,17.8,0,1,1,17.8-17.8A17.84,17.84,0,0,1,67,471.6Zm178,0a17.8,17.8,0,1,1,17.8-17.8A17.84,17.84,0,0,1,245,471.6Zm177.8,0a17.8,17.8,0,1,1,17.8-17.8A17.84,17.84,0,0,1,422.8,471.6Z" transform="translate(-31)"/></svg>