<svg id="Capa_1" data-name="Capa 1" xmlns="http://www.w3.org/2000/svg" width="744.5" height="825" viewBox="0 0 744.5 825"><title>asp-net-application-development-navigation</title><path d="M709.9,214H628.2a10.9,10.9,0,0,0,0,21.8h81.7a17.88,17.88,0,0,1,17.9,17.9v68.9c-57.8-.5-113.8-.4-170.7.1a10.9,10.9,0,0,0,.1,21.8h.1c56.8-.5,112.8-.6,170.5-.1V831.3a2.26,2.26,0,0,1-2.3,2.3H173.6a10.9,10.9,0,0,0,0,21.8H725.5a24,24,0,0,0,24-24V253.7A39.71,39.71,0,0,0,709.9,214Z" transform="translate(-5 -30.4)" style="fill:#f26522"/><path d="M579.8,214H47.6A39.31,39.31,0,0,0,8.3,253.3V825.4a23.86,23.86,0,0,0,23.8,23.8h97.4a10.8,10.8,0,1,0,0-21.6H32.1a2.33,2.33,0,0,1-2.3-2.3V343.2c158.8-.5,319-.5,476.3,0h0a10.75,10.75,0,0,0,.1-21.5c-157.4-.5-317.6-.5-476.4,0V253.4a17.73,17.73,0,0,1,17.7-17.7H579.7a10.85,10.85,0,0,0,.1-21.7Z" transform="translate(-5 -30.4)" style="fill:#f26522"/><path d="M462.2,405.5H147.1a8.8,8.8,0,1,0,0,17.6H462.3a8.8,8.8,0,1,0-.1-17.6Z" transform="translate(-5 -30.4)" style="fill:#f26522"/><path d="M505,403.1a8.81,8.81,0,0,0-8.8,8.8v1.5a8.8,8.8,0,1,0,17.6,0v-1.5A8.81,8.81,0,0,0,505,403.1Z" transform="translate(-5 -30.4)" style="fill:#f26522"/><path d="M540.2,403.1a8.81,8.81,0,0,0-8.8,8.8v1.5a8.8,8.8,0,1,0,17.6,0v-1.5A8.75,8.75,0,0,0,540.2,403.1Z" transform="translate(-5 -30.4)" style="fill:#f26522"/><path d="M575.5,403.1a8.81,8.81,0,0,0-8.8,8.8v1.5a8.8,8.8,0,1,0,17.6,0v-1.5A8.81,8.81,0,0,0,575.5,403.1Z" transform="translate(-5 -30.4)" style="fill:#f26522"/><path d="M617.8,692.3H530.6a10.8,10.8,0,0,0,0,21.6h87.2a10.8,10.8,0,0,0,0-21.6Z" transform="translate(-5 -30.4)" style="fill:#f26522"/><path d="M617.8,726.7h-31a10.8,10.8,0,0,0,0,21.6h31a10.8,10.8,0,1,0,0-21.6Z" transform="translate(-5 -30.4)" style="fill:#f26522"/><path d="M180.7,568.8l59-59a10.75,10.75,0,0,0-15.2-15.2l-66.6,66.6a10.93,10.93,0,0,0-3.2,7.6,10.51,10.51,0,0,0,3.2,7.6L224.5,643a10.85,10.85,0,0,0,7.6,3.2,10.8,10.8,0,0,0,7.6-18.4Z" transform="translate(-5 -30.4)" style="fill:#f26522"/><path d="M594.5,561.1l-66.6-66.6a10.75,10.75,0,1,0-15.2,15.2l59,59-59,59a10.74,10.74,0,0,0,0,15.2,10.85,10.85,0,0,0,7.6,3.2,10.68,10.68,0,0,0,7.6-3.2l66.6-66.6a10.93,10.93,0,0,0,3.2-7.6A11.58,11.58,0,0,0,594.5,561.1Z" transform="translate(-5 -30.4)" style="fill:#f26522"/><path d="M360.2,501.5a10.85,10.85,0,0,0-14.6,4.4L279.1,630.3a10.85,10.85,0,0,0,4.4,14.6,10.46,10.46,0,0,0,5.1,1.3,10.83,10.83,0,0,0,9.5-5.7l66.5-124.4A10.65,10.65,0,0,0,360.2,501.5Z" transform="translate(-5 -30.4)" style="fill:#f26522"/><path d="M371.9,621.5a10.76,10.76,0,0,0-10.8,10.8v1.5a10.8,10.8,0,0,0,21.6,0v-1.5A10.76,10.76,0,0,0,371.9,621.5Z" transform="translate(-5 -30.4)" style="fill:#f26522"/><path d="M420.8,621.5A10.76,10.76,0,0,0,410,632.3v1.5a10.8,10.8,0,1,0,21.6,0v-1.5A10.88,10.88,0,0,0,420.8,621.5Z" transform="translate(-5 -30.4)" style="fill:#f26522"/><path d="M469.6,621.5a10.76,10.76,0,0,0-10.8,10.8v1.5a10.8,10.8,0,1,0,21.6,0v-1.5A10.82,10.82,0,0,0,469.6,621.5Z" transform="translate(-5 -30.4)" style="fill:#f26522"/><path d="M37,125,23,167.4H5L50.8,32.6h21l46,134.8H99.2L84.8,125Zm44.2-13.6L68,72.6c-3-8.8-5-16.8-7-24.6h-.4c-2,8-4.2,16.2-6.8,24.4l-13.2,39Z" transform="translate(-5 -30.4)" style="fill:#f26522"/><path d="M135.2,146.2a61.66,61.66,0,0,0,31.2,8.8c17.8,0,28.2-9.4,28.2-23,0-12.6-7.2-19.8-25.4-26.8-22-7.8-35.6-19.2-35.6-38.2,0-21,17.4-36.6,43.6-36.6C191,30.4,201,33.6,207,37l-4.8,14.2a53.69,53.69,0,0,0-25.6-6.4c-18.4,0-25.4,11-25.4,20.2,0,12.6,8.2,18.8,26.8,26,22.8,8.8,34.4,19.8,34.4,39.6,0,20.8-15.4,38.8-47.2,38.8-13,0-27.2-3.8-34.4-8.6Z" transform="translate(-5 -30.4)" style="fill:#f26522"/><path d="M236.2,34.2a201.67,201.67,0,0,1,33.4-2.6c17.2,0,29.8,4,37.8,11.2,7.4,6.4,11.8,16.2,11.8,28.2,0,12.2-3.6,21.8-10.4,28.8-9.2,9.8-24.2,14.8-41.2,14.8a59.89,59.89,0,0,1-14-1.2v54H236.2V34.2Zm17.4,65a58.35,58.35,0,0,0,14.4,1.4c21,0,33.8-10.2,33.8-28.8,0-17.8-12.6-26.4-31.8-26.4-7.6,0-13.4.6-16.4,1.4Z" transform="translate(-5 -30.4)" style="fill:#f26522"/><path d="M380.2,157c0-7.4,5-12.6,12-12.6S404,149.6,404,157c0,7.2-4.6,12.6-12,12.6C385,169.6,380.2,164.2,380.2,157Z" transform="translate(-5 -30.4)" style="fill:#f26522"/><path d="M426.4,167.4V32.6h19l43.2,68.2a381.58,381.58,0,0,1,24.2,43.8l.4-.2c-1.6-18-2-34.4-2-55.4V32.6h16.4V167.4H510L467.2,99c-9.4-15-18.4-30.4-25.2-45l-.6.2c1,17,1.4,33.2,1.4,55.6v57.6Z" transform="translate(-5 -30.4)" style="fill:#f26522"/><path d="M627.8,104.2H575.4v48.6h58.4v14.6H558V32.6h72.8V47.2H575.4V89.8h52.4Z" transform="translate(-5 -30.4)" style="fill:#f26522"/><path d="M685.2,47.4h-41V32.6H744V47.4H702.8v120H685.2Z" transform="translate(-5 -30.4)" style="fill:#f26522"/></svg>