<svg id="Layer_1" data-name="Layer 1" xmlns="http://www.w3.org/2000/svg" width="347.8" height="315.9" viewBox="0 0 347.8 315.9"><title>asp-net-core-navigation</title><path d="M43.5,52,37.7,69.6H30.2l19-56h8.7L77,69.6H69.3L63.3,52Zm18.3-5.7L56.3,30.2c-1.2-3.7-2.1-7-2.9-10.2h-.2c-.8,3.3-1.7,6.7-2.8,10.1L45,46.3Z" transform="translate(0 -12.7)" style="fill:#f26522"/><path d="M84.3,60.8a25.55,25.55,0,0,0,13,3.7c7.4,0,11.7-3.9,11.7-9.6,0-5.2-3-8.2-10.6-11.1-9.1-3.2-14.8-8-14.8-15.9,0-8.7,7.2-15.2,18.1-15.2,5.7,0,9.9,1.3,12.4,2.7l-2,5.9a22.16,22.16,0,0,0-10.6-2.7c-7.6,0-10.6,4.6-10.6,8.4,0,5.2,3.4,7.8,11.1,10.8,9.5,3.7,14.3,8.2,14.3,16.5,0,8.6-6.4,16.1-19.6,16.1-5.4,0-11.3-1.6-14.3-3.6Z" transform="translate(0 -12.7)" style="fill:#f26522"/><path d="M126.3,14.2a82.07,82.07,0,0,1,13.9-1.1c7.1,0,12.4,1.7,15.7,4.7,3.1,2.7,4.9,6.7,4.9,11.7s-1.5,9.1-4.3,12c-3.8,4.1-10.1,6.2-17.1,6.2a25.05,25.05,0,0,1-5.8-.5V69.6h-7.2l-.1-55.4Zm7.2,27a25.24,25.24,0,0,0,6,.6c8.7,0,14-4.2,14-12,0-7.4-5.2-11-13.2-11a25.92,25.92,0,0,0-6.8.6Z" transform="translate(0 -12.7)" style="fill:#f26522"/><path d="M186.1,65.2a5,5,0,1,1,9.9,0c0,3-1.9,5.2-5,5.2C188.1,70.5,186.1,68.2,186.1,65.2Z" transform="translate(0 -12.7)" style="fill:#f26522"/><path d="M205.3,69.6v-56h7.9l18,28.3a164.75,164.75,0,0,1,10.1,18.2l.2-.1c-.7-7.5-.8-14.3-.8-23V13.6h6.8v56H240L222.2,41.2a186.37,186.37,0,0,1-10.5-18.7l-.2.1c.4,7.1.6,13.8.6,23.1V69.6Z" transform="translate(0 -12.7)" style="fill:#f26522"/><path d="M289,43.3H267.2V63.5h24.3v6.1H260v-56h30.3v6.1h-23V37.4H289Z" transform="translate(0 -12.7)" style="fill:#f26522"/><path d="M312.9,19.7h-17V13.5h41.5v6.2H320.3V69.6H313V19.7Z" transform="translate(0 -12.7)" style="fill:#f26522"/><path d="M189.4,195.9c0-10.2-.2-19-.9-27.1h17.2l.7,17h.9c4.9-11.7,16.8-19,29.9-19a31.5,31.5,0,0,1,5.6.5v14.9a33.26,33.26,0,0,0-6.7-.5c-13.9,0-23.7,8.4-26.4,20.3a40.5,40.5,0,0,0-.9,7.4v46.3H189.4V195.9Z" transform="translate(0 -12.7)" style="fill:#f26522"/><path d="M271.2,215.1c.4,21.4,17.4,30.1,37.1,30.1,14.1,0,22.6-2,29.9-4.5l3.4,11.3c-6.9,2.5-18.8,5.4-36,5.4-33.3,0-53.2-17.6-53.2-43.8s19.2-46.8,50.7-46.8c35.3,0,44.7,24.9,44.7,40.9a41,41,0,0,1-.7,7.4Zm57.7-11.3c.2-10-5.1-25.7-27.3-25.7-19.9,0-28.6,14.7-30.2,25.7Z" transform="translate(0 -12.7)" style="fill:#f26522"/><path d="M196,291.9a112.68,112.68,0,1,1-1-163" transform="translate(0 -12.7)" style="fill:none;stroke:#f26522;stroke-miterlimit:10;stroke-width:10px"/><circle cx="117.6" cy="196.6" r="38" style="fill:#f26522"/></svg>