<?xml version="1.0" encoding="utf-8"?>
<!-- Generator: Adobe Illustrator 18.0.0, SVG Export Plug-In . SVG Version: 6.00 Build 0)  -->
<!DOCTYPE svg PUBLIC "-//W3C//DTD SVG 1.1//EN" "http://www.w3.org/Graphics/SVG/1.1/DTD/svg11.dtd">
<svg version="1.1" id="Layer_1" xmlns="http://www.w3.org/2000/svg" xmlns:xlink="http://www.w3.org/1999/xlink" x="0px" y="0px"
	 viewBox="-9 -9 50 36.2" enable-background="new -9 -9 50 36.2" xml:space="preserve">
<g>
	<rect x="9.2" y="16.1" fill="#F26522" width="6.8" height="1.7"/>
	<path fill="#F26522" d="M40,6.5c-0.2-1-1.2-1.8-2.2-1.8h-4.6v-9.9c0-2.1-1.7-3.8-3.8-3.8H-4.3c-2.1,0-3.8,1.7-3.8,3.8v21.6
		c0,2.1,1.7,3.8,3.8,3.8H8.3V24H3.9v1.7h17.3V24h-4.4v-3.9h9.4v3.3c0,0.2,0,0.3,0,0.5c0.2,1,1.2,1.8,2.2,1.8h9.3c0.1,0,0.3,0,0.4,0
		c0,0,0.1,0,0.1,0c0.1,0,0.2,0,0.2-0.1c0,0,0.1,0,0.2-0.1c0.1,0,0.1-0.1,0.2-0.1c0,0,0.1,0,0.2-0.1c0.1,0,0.1-0.1,0.1-0.1
		c0,0,0.1-0.1,0.2-0.1c0,0,0.1-0.1,0.1-0.1c0,0,0.1-0.1,0.1-0.1c0,0,0.1-0.1,0.1-0.2c0,0,0-0.1,0.1-0.1l-0.5-0.3v0l0.6,0.2
		c0,0,0.1-0.1,0.1-0.2c0,0,0-0.1,0-0.1l0-0.1c0,0,0,0,0,0L40,24v-0.2c0-0.1,0-0.3,0-0.4V6.9C40.1,6.8,40.1,6.6,40,6.5z M15.1,24h-5
		v-3.9h5C15.1,20.1,15.1,24,15.1,24z M26.2,18.4H-4.3c-1.1,0-2-0.9-2-2v-1.1h32.5V18.4z M27.1,5.1c0,0-0.1,0.1-0.1,0.1
		c-0.1,0-0.1,0.1-0.2,0.2c0,0-0.1,0.1-0.1,0.1c0,0.1-0.1,0.1-0.1,0.2c0,0-0.1,0.1-0.1,0.1c0,0.1-0.1,0.1-0.1,0.2c0,0,0,0,0,0.1
		l0,0.1c0,0.1,0,0.1-0.1,0.2l0,0.1v0.1c0,0.1,0,0.3,0,0.4v6.6H-6.3V-5.2c0-1.1,0.9-2,2-2h33.8c1.1,0,2,0.9,2,2v9.9h-3
		c-0.1,0-0.3,0-0.4,0c0,0-0.1,0-0.1,0c-0.1,0-0.2,0-0.2,0.1c0,0-0.1,0-0.1,0.1c-0.1,0-0.1,0.1-0.2,0.1c0,0-0.1,0-0.2,0.1
		C27.2,5.1,27.1,5.1,27.1,5.1z M38.3,23.4C38.3,23.5,38.3,23.5,38.3,23.4l0,0.1c0,0,0,0.1,0,0.1l0,0c0,0,0,0-0.1,0.1c0,0,0,0,0,0
		l0,0c0,0,0,0,0,0L37.9,24c0,0-0.1,0-0.1,0h-9.3c-0.1,0-0.1,0-0.2,0c-0.1-0.1-0.3-0.2-0.3-0.3c0,0,0-0.1,0-0.1c0,0,0-0.1,0-0.1v-0.3
		h10.4V23.4z M38.3,21.4H27.9V9h10.4V21.4z M38.3,7.2H27.9V6.9c0,0,0-0.1,0-0.1l-0.5-0.2h0l0.6,0.1L28,6.7c0.1-0.1,0.2-0.2,0.4-0.2
		l0,0c0,0,0,0,0.1,0h9.3c0.1,0,0.1,0,0.2,0c0.2,0.1,0.3,0.2,0.4,0.4c0,0,0,0.1,0,0.1L38.3,7.2L38.3,7.2z"/>
</g>
<text transform="matrix(1 0 0 1 3.2002 29.5996)" display="none" enable-background="new    " font-family="'Arial-BoldMT'" font-size="1.3333">Created by fahmionline</text>
<text transform="matrix(1 0 0 1 3.2002 30.9338)" display="none" enable-background="new    " font-family="'Arial-BoldMT'" font-size="1.3333">from the Noun Project</text>
</svg>
