<svg id="Layer_1" data-name="Layer 1" xmlns="http://www.w3.org/2000/svg" width="994.44" height="1002.45" viewBox="0 0 994.44 1002.45"><title>azure-development-menu</title><polygon points="263.24 325.75 601.94 41.45 232.04 724.25 18.44 743.35 263.24 325.75" style="fill:none;stroke:#f26522;stroke-miterlimit:10;stroke-width:20px"/><g id="Layer_3" data-name="Layer 3"><path d="M536,785.3l-25-.1-237-.9a.56.56,0,0,1-.1-1.1l233-26.6,34.1-3.9" transform="translate(-0.56 2.45)" style="fill:none;stroke:#f26522;stroke-miterlimit:10;stroke-width:20px"/><polyline points="616.44 603.45 593.34 576.45 477.04 440.55 618.44 152.45 860.14 573.05 873.54 596.45" style="fill:none;stroke:#f26522;stroke-miterlimit:10;stroke-width:20px"/><path d="M762,646.2A120.8,120.8,0,1,0,882.8,767,120.95,120.95,0,0,0,762,646.2Zm0,224.3A103.6,103.6,0,1,1,865.6,766.9,103.75,103.75,0,0,1,762,870.5Z" transform="translate(-0.56 2.45)" style="fill:#f26522"/><path d="M971,715.2H953.6a196,196,0,0,0-19.5-47.1l12.3-12.3a24.14,24.14,0,0,0,0-34l-39.3-39.3c-9.1-9.1-24.9-9.1-33.9,0l-12.3,12.3a196,196,0,0,0-47.1-19.5V558a24.07,24.07,0,0,0-24-24H734.2a24.07,24.07,0,0,0-24,24v17.4a196,196,0,0,0-47.1,19.5l-12.3-12.3c-9.1-9.1-24.9-9.1-33.9,0l-39.3,39.3a24.14,24.14,0,0,0,0,34l12.3,12.3a196,196,0,0,0-19.5,47.1H553a24.07,24.07,0,0,0-24,24v55.6a24.07,24.07,0,0,0,24,24h17.4A196,196,0,0,0,589.9,866l-12.3,12.3a24.14,24.14,0,0,0,0,34l39.3,39.3c9.1,9.1,24.9,9.1,33.9,0l12.3-12.3a196,196,0,0,0,47.1,19.5V976a24.07,24.07,0,0,0,24,24h55.6a24.07,24.07,0,0,0,24-24V958.6a196,196,0,0,0,47.1-19.5l12.3,12.3c9.1,9.1,24.9,9.1,33.9,0l39.3-39.3a24.14,24.14,0,0,0,0-34l-12.3-12.3a196,196,0,0,0,19.5-47.1H971a24.07,24.07,0,0,0,24-24V739.1A24,24,0,0,0,971,715.2Zm6.7,79.6a6.7,6.7,0,0,1-6.7,6.7H940l-1.6,6.7a183.13,183.13,0,0,1-22.5,54.5l-3.6,5.8,21.9,21.9a6.76,6.76,0,0,1,0,9.5l-39.3,39.3a6.76,6.76,0,0,1-9.5,0l-21.9-21.9-5.8,3.6a176,176,0,0,1-54.5,22.5l-6.7,1.6v31a6.7,6.7,0,0,1-6.7,6.7H734.2a6.7,6.7,0,0,1-6.7-6.7V945l-6.7-1.6a183.13,183.13,0,0,1-54.5-22.5l-5.8-3.6-21.9,21.9a6.76,6.76,0,0,1-9.5,0l-39.3-39.3a6.76,6.76,0,0,1,0-9.5l21.9-21.9-3.6-5.8a176,176,0,0,1-22.5-54.5l-1.6-6.7H553a6.7,6.7,0,0,1-6.7-6.7V739.2a6.7,6.7,0,0,1,6.7-6.7h31l1.6-6.7a183.13,183.13,0,0,1,22.5-54.5l3.6-5.8-21.9-21.9a6.76,6.76,0,0,1,0-9.5l39.3-39.3a6.76,6.76,0,0,1,9.5,0l21.9,21.9,5.8-3.6a176,176,0,0,1,54.5-22.5l6.7-1.6V558a6.7,6.7,0,0,1,6.7-6.7h55.6a6.7,6.7,0,0,1,6.7,6.7v31l6.7,1.6a183.13,183.13,0,0,1,54.5,22.5l5.8,3.6,21.9-21.9a6.76,6.76,0,0,1,9.5,0l39.3,39.3a6.76,6.76,0,0,1,0,9.5l-21.9,21.9,3.6,5.8a176,176,0,0,1,22.5,54.5l1.6,6.7h31a6.7,6.7,0,0,1,6.7,6.7Z" transform="translate(-0.56 2.45)" style="fill:#f26522"/><path d="M762,680.7A86.3,86.3,0,1,0,848.3,767,86.38,86.38,0,0,0,762,680.7ZM762,836a69,69,0,1,1,69-69A69.07,69.07,0,0,1,762,836Z" transform="translate(-0.56 2.45)" style="fill:#f26522"/></g></svg>