<?xml version="1.0" encoding="utf-8"?>
<!-- Generator: Adobe Illustrator 23.0.1, SVG Export Plug-In . SVG Version: 6.00 Build 0)  -->
<svg version="1.1" id="Layer_1" xmlns="http://www.w3.org/2000/svg" xmlns:xlink="http://www.w3.org/1999/xlink" x="0px" y="0px"
	 viewBox="0 0 226 241.9" style="enable-background:new 0 0 226 241.9;" xml:space="preserve">
<style type="text/css">
	.st0{opacity:0.5;fill:#FFFFFF;enable-background:new    ;}
	.st1{opacity:0.8;}
	.st2{fill:#FFFFFF;}
	.st3{fill:none;}
</style>
<title>bar-dot-right</title>
<rect x="151" y="46" class="st0" width="75" height="2"/>
<rect x="151" y="62" class="st0" width="75" height="2"/>
<rect x="151" y="78" class="st0" width="75" height="2"/>
<g class="st1">
	<circle class="st2" cx="216.1" cy="214.8" r="1.4"/>
	<circle class="st2" cx="216.1" cy="201.2" r="1.4"/>
	<circle class="st2" cx="216.1" cy="187.6" r="1.4"/>
	<circle class="st2" cx="216.1" cy="174" r="1.4"/>
	<circle class="st2" cx="202.5" cy="214.8" r="1.4"/>
	<circle class="st2" cx="202.5" cy="201.2" r="1.4"/>
	<circle class="st2" cx="202.5" cy="187.6" r="1.4"/>
	<circle class="st2" cx="202.5" cy="174" r="1.4"/>
	<circle class="st2" cx="188.9" cy="214.8" r="1.4"/>
	<circle class="st2" cx="188.9" cy="201.2" r="1.4"/>
	<circle class="st2" cx="188.9" cy="187.6" r="1.4"/>
	<circle class="st2" cx="188.9" cy="174" r="1.4"/>
	<circle class="st2" cx="175.4" cy="214.8" r="1.4"/>
	<circle class="st2" cx="175.4" cy="201.2" r="1.4"/>
	<circle class="st2" cx="175.4" cy="187.6" r="1.4"/>
	<circle class="st2" cx="175.4" cy="174" r="1.4"/>
	<circle class="st2" cx="161.8" cy="214.8" r="1.4"/>
	<circle class="st2" cx="161.8" cy="201.2" r="1.4"/>
	<circle class="st2" cx="161.8" cy="187.6" r="1.4"/>
	<circle class="st2" cx="161.8" cy="174" r="1.4"/>
	<circle class="st2" cx="148.2" cy="214.8" r="1.4"/>
	<circle class="st2" cx="148.2" cy="201.2" r="1.4"/>
	<circle class="st2" cx="148.2" cy="187.6" r="1.4"/>
	<circle class="st2" cx="148.2" cy="174" r="1.4"/>
	<circle class="st2" cx="134.6" cy="214.8" r="1.4"/>
	<circle class="st2" cx="134.6" cy="201.2" r="1.4"/>
	<circle class="st2" cx="134.6" cy="187.6" r="1.4"/>
	<circle class="st2" cx="134.6" cy="174" r="1.4"/>
	<circle class="st2" cx="121" cy="214.8" r="1.4"/>
	<circle class="st2" cx="121" cy="201.2" r="1.4"/>
	<circle class="st2" cx="121" cy="187.6" r="1.4"/>
	<circle class="st2" cx="121" cy="174" r="1.4"/>
	<circle class="st2" cx="107.4" cy="214.8" r="1.4"/>
	<circle class="st2" cx="107.4" cy="201.2" r="1.4"/>
	<circle class="st2" cx="107.4" cy="187.6" r="1.4"/>
	<circle class="st2" cx="107.4" cy="174" r="1.4"/>
	<circle class="st2" cx="93.8" cy="214.8" r="1.4"/>
	<circle class="st2" cx="93.8" cy="201.2" r="1.4"/>
	<circle class="st2" cx="93.8" cy="187.6" r="1.4"/>
	<circle class="st2" cx="93.8" cy="174" r="1.4"/>
	<circle class="st2" cx="80.2" cy="214.8" r="1.4"/>
	<circle class="st2" cx="80.2" cy="201.2" r="1.4"/>
	<circle class="st2" cx="80.2" cy="187.6" r="1.4"/>
	<circle class="st2" cx="80.2" cy="174" r="1.4"/>
	<circle class="st2" cx="66.6" cy="214.8" r="1.4"/>
	<circle class="st2" cx="66.6" cy="201.2" r="1.4"/>
	<circle class="st2" cx="66.6" cy="187.6" r="1.4"/>
	<circle class="st2" cx="66.6" cy="174" r="1.4"/>
	<circle class="st2" cx="53" cy="214.8" r="1.4"/>
	<circle class="st2" cx="53" cy="201.2" r="1.4"/>
	<circle class="st2" cx="53" cy="187.6" r="1.4"/>
	<circle class="st2" cx="53" cy="174" r="1.4"/>
	<circle class="st2" cx="39.4" cy="214.8" r="1.4"/>
	<circle class="st2" cx="39.4" cy="201.2" r="1.4"/>
	<circle class="st2" cx="39.4" cy="187.6" r="1.4"/>
	<circle class="st2" cx="39.4" cy="174" r="1.4"/>
	<circle class="st2" cx="27.1" cy="214.8" r="1.4"/>
	<circle class="st2" cx="27.1" cy="201.2" r="1.4"/>
	<circle class="st2" cx="27.1" cy="187.6" r="1.4"/>
	<circle class="st2" cx="27.1" cy="174" r="1.4"/>
	<circle class="st2" cx="13.5" cy="214.8" r="1.4"/>
	<circle class="st2" cx="13.5" cy="201.2" r="1.4"/>
	<circle class="st2" cx="13.5" cy="187.6" r="1.4"/>
	<circle class="st2" cx="13.5" cy="174" r="1.4"/>
	<circle class="st2" cx="216.1" cy="227" r="1.4"/>
	<circle class="st2" cx="202.5" cy="227" r="1.4"/>
	<circle class="st2" cx="188.9" cy="227" r="1.4"/>
	<circle class="st2" cx="175.4" cy="227" r="1.4"/>
	<circle class="st2" cx="161.8" cy="227" r="1.4"/>
	<circle class="st2" cx="148.2" cy="227" r="1.4"/>
	<circle class="st2" cx="134.6" cy="227" r="1.4"/>
	<circle class="st2" cx="121" cy="227" r="1.4"/>
	<circle class="st2" cx="107.4" cy="227" r="1.4"/>
	<circle class="st2" cx="93.8" cy="227" r="1.4"/>
	<circle class="st2" cx="80.2" cy="227" r="1.4"/>
	<circle class="st2" cx="66.6" cy="227" r="1.4"/>
	<circle class="st2" cx="53" cy="227" r="1.4"/>
	<circle class="st2" cx="39.4" cy="227" r="1.4"/>
	<circle class="st2" cx="27.1" cy="227" r="1.4"/>
	<circle class="st2" cx="13.5" cy="227" r="1.4"/>
</g>
<rect class="st3" width="226" height="241.9"/>
</svg>
