<?xml version="1.0" encoding="utf-8"?>
<!-- Generator: Adobe Illustrator 23.0.1, SVG Export Plug-In . SVG Version: 6.00 Build 0)  -->
<svg version="1.1" id="Layer_1" xmlns="http://www.w3.org/2000/svg" xmlns:xlink="http://www.w3.org/1999/xlink" x="0px" y="0px"
	 viewBox="0 0 40.3 40.3" style="enable-background:new 0 0 40.3 40.3;" xml:space="preserve">
<style type="text/css">
	.st0{fill:url(#SVGID_1_);}
	.st1{display:none;enable-background:new    ;}
	.st2{font-family:'Arial-BoldMT';}
	.st3{font-size:1.28px;}
</style>
<g>
	<g>
		<linearGradient id="SVGID_1_" gradientUnits="userSpaceOnUse" x1="18.7357" y1="-1.0952" x2="20.9426" y2="40.56">
			<stop  offset="0" style="stop-color:#FF512F"/>
			<stop  offset="1" style="stop-color:#F09819"/>
		</linearGradient>
		<path class="st0" d="M23.9,1H5v37.9h30.3V12.3L23.9,1z M24.8,4.6l6.8,6.8h-6.8V4.6z M33.3,36.9H6.9v-34H23v10.4h10.4L33.3,36.9
			L33.3,36.9z M20.1,16.1c4.2,0,7.6,3.4,7.6,7.6s-3.4,7.6-7.6,7.6s-7.6-3.4-7.6-7.6h-1.9l2.8-3.8l2.8,3.8h-1.9
			c0,3.1,2.5,5.7,5.7,5.7s5.7-2.5,5.7-5.7S23.2,18,20,18v-1.9H20.1z"/>
	</g>
</g>
<text transform="matrix(1 0 0 1 7.3 33.5396)" class="st1 st2 st3">Created by b farias</text>
<text transform="matrix(1 0 0 1 7.3 34.8196)" class="st1 st2 st3">from the Noun Project</text>
</svg>
