<svg id="Layer_1" data-name="Layer 1" xmlns="http://www.w3.org/2000/svg" width="31.75" height="29.77" viewBox="0 0 31.75 29.77"><title>check-mark</title><path d="M15,1.84h-.6a7.71,7.71,0,0,0-3.3.6,14.87,14.87,0,1,0,18.3,10.5,1.47,1.47,0,0,0-1.7-1.1,1.56,1.56,0,0,0-1.1,1.7v.1a12,12,0,1,1-14.7-8.5A11.69,11.69,0,0,1,22.1,7a1.36,1.36,0,0,0,1.6-2.2h0a13.73,13.73,0,0,0-8.7-3Zm15.3,1a1.28,1.28,0,0,0-1,.4c-3.7,3.9-11.2,12-15.3,16.3l-5-4.4a1.35,1.35,0,1,0-1.8,2h0l6.1,5.2a1.3,1.3,0,0,0,1.9-.1C19.2,18.14,27.5,9,31.5,5a1.22,1.22,0,0,0,0-1.9A2.66,2.66,0,0,0,30.3,2.84Z" transform="translate(-0.2 -1.84)" style="fill:#fff"/></svg>