<?xml version="1.0" encoding="utf-8"?>
<!-- Generator: Adobe Illustrator 23.0.1, SVG Export Plug-In . SVG Version: 6.00 Build 0)  -->
<svg version="1.1" id="Capa_1" xmlns="http://www.w3.org/2000/svg" xmlns:xlink="http://www.w3.org/1999/xlink" x="0px" y="0px"
	 viewBox="0 0 512 512" style="enable-background:new 0 0 512 512;" xml:space="preserve">
<style type="text/css">
	.st0{fill:url(#SVGID_1_);}
	.st1{fill:url(#SVGID_2_);}
	.st2{fill:url(#SVGID_3_);}
	.st3{fill:url(#SVGID_4_);}
	.st4{fill:url(#SVGID_5_);}
	.st5{fill:url(#SVGID_6_);}
	.st6{fill:url(#SVGID_7_);}
	.st7{fill:url(#SVGID_8_);}
	.st8{fill:url(#SVGID_9_);}
	.st9{fill:url(#SVGID_10_);}
</style>
<g>
	<g>
		<g>
			<linearGradient id="SVGID_1_" gradientUnits="userSpaceOnUse" x1="328.9003" y1="1.107" x2="327.9003" y2="514.107">
				<stop  offset="0" style="stop-color:#FF512F"/>
				<stop  offset="1" style="stop-color:#F09819"/>
			</linearGradient>
			<path class="st0" d="M333.3,371.8c-4.1,0-7.5,3.4-7.5,7.5v13.8c0,3.5-2.2,6.7-5.5,8c-3.9,1.5-5.8,5.8-4.3,9.7c1.1,3,4,4.8,7,4.8
				c0.9,0,1.8-0.2,2.7-0.5c9.1-3.5,15.2-12.3,15.2-22v-13.8C340.8,375.2,337.4,371.8,333.3,371.8z"/>
		</g>
		<g>
			<linearGradient id="SVGID_2_" gradientUnits="userSpaceOnUse" x1="131.884" y1="0.723" x2="130.884" y2="513.723">
				<stop  offset="0" style="stop-color:#FF512F"/>
				<stop  offset="1" style="stop-color:#F09819"/>
			</linearGradient>
			<path class="st1" d="M193.6,401.7H85.2c-4.7,0-8.5-3.8-8.5-8.5V118.7c0-4.1-3.4-7.5-7.5-7.5s-7.5,3.4-7.5,7.5v274.5
				c0,13,10.6,23.5,23.5,23.5h108.4c4.1,0,7.5-3.4,7.5-7.5S197.7,401.7,193.6,401.7z"/>
		</g>
		<g>
			<linearGradient id="SVGID_3_" gradientUnits="userSpaceOnUse" x1="201.3982" y1="0.8585" x2="200.3982" y2="513.8585">
				<stop  offset="0" style="stop-color:#FF512F"/>
				<stop  offset="1" style="stop-color:#F09819"/>
			</linearGradient>
			<path class="st2" d="M69.2,94.5c4.1,0,7.5-3.4,7.5-7.5V66.3c0-4.7,3.8-8.5,8.5-8.5h53.9v10.5c0,8.2,6.6,14.8,14.8,14.8h94.6
				c8.2,0,14.8-6.6,14.8-14.8V57.8h53.9c4.7,0,8.5,3.8,8.5,8.5v41.2c0,4.1,3.4,7.5,7.5,7.5s7.5-3.4,7.5-7.5V66.3
				c0-13-10.6-23.5-23.5-23.5h-54.1c-1-7.2-7.2-12.7-14.6-12.7h-10.5C234.6,12.9,219.4,0,201.2,0s-33.3,12.9-36.8,30.1h-10.5
				c-7.4,0-13.6,5.5-14.6,12.7H85.2c-13,0-23.5,10.6-23.5,23.5V87C61.7,91.1,65,94.5,69.2,94.5z M201.2,15c9.8,0,18.2,6.3,21.3,15.1
				h-42.6C183,21.3,191.4,15,201.2,15z M154.1,45.1h17h60.2h17v5.1c0,0,0,0.1,0,0.1s0,0.1,0,0.1v17.7h-94.2V45.1z"/>
		</g>
		<g>
			<linearGradient id="SVGID_4_" gradientUnits="userSpaceOnUse" x1="333.6418" y1="1.1163" x2="332.6418" y2="514.1163">
				<stop  offset="0" style="stop-color:#FF512F"/>
				<stop  offset="1" style="stop-color:#F09819"/>
			</linearGradient>
			<path class="st3" d="M340.8,195.4v-24.6c0-4.1-3.4-7.5-7.5-7.5s-7.5,3.4-7.5,7.5v24.6c0,4.1,3.4,7.5,7.5,7.5
				S340.8,199.6,340.8,195.4z"/>
		</g>
		<g>
			<linearGradient id="SVGID_5_" gradientUnits="userSpaceOnUse" x1="334.0542" y1="1.1171" x2="333.0542" y2="514.1171">
				<stop  offset="0" style="stop-color:#FF512F"/>
				<stop  offset="1" style="stop-color:#F09819"/>
			</linearGradient>
			<path class="st4" d="M333.3,340.6c-30,0-54.3,24.4-54.3,54.3s24.4,54.3,54.3,54.3s54.3-24.4,54.3-54.3S363.2,340.6,333.3,340.6z
				 M333.3,434.3c-21.7,0-39.3-17.6-39.3-39.3c0-21.7,17.6-39.3,39.3-39.3c21.7,0,39.3,17.6,39.3,39.3
				C372.6,416.6,355,434.3,333.3,434.3z"/>
		</g>
		<g>
			<linearGradient id="SVGID_6_" gradientUnits="userSpaceOnUse" x1="334.0537" y1="1.1171" x2="333.0537" y2="514.1171">
				<stop  offset="0" style="stop-color:#FF512F"/>
				<stop  offset="1" style="stop-color:#F09819"/>
			</linearGradient>
			<path class="st5" d="M444,367.4l-20.9-3.2c-1.3-3.8-2.8-7.5-4.6-11l12.5-17c2.2-3,1.9-7.1-0.7-9.7l-2.7-2.7
				c-2.9-2.9-7.7-2.9-10.6,0c-2.2,2.2-2.8,5.6-1.6,8.3l-11.8,16c-1.7,2.4-1.9,5.5-0.5,8.1c2.9,5.3,5.3,11,7,16.8
				c0.8,2.8,3.2,4.9,6.1,5.4l19.2,2.9v27.3l-19.2,2.9c-2.9,0.4-5.3,2.5-6.1,5.4c-1.7,5.9-4,11.5-7,16.8c-1.4,2.6-1.2,5.7,0.5,8.1
				l11.5,15.6l-19.3,19.3l-15.6-11.5c-2.4-1.7-5.5-1.9-8.1-0.5c-5.3,2.9-11,5.3-16.8,7c-2.8,0.8-4.9,3.2-5.4,6.1L347,497h-27.3
				l-2.9-19.2c-0.4-2.9-2.5-5.3-5.4-6.1c-5.9-1.7-11.5-4-16.8-7c-2.6-1.4-5.7-1.2-8.1,0.5l-15.6,11.5l-19.3-19.3l11.5-15.6
				c1.7-2.4,1.9-5.5,0.5-8.1c-3-5.3-5.3-11-7-16.8c-0.8-2.8-3.2-4.9-6.1-5.4l-19.2-2.9v-27.3l19.2-2.9c2.9-0.4,5.3-2.5,6.1-5.4
				c1.7-5.9,4-11.5,7-16.8c1.4-2.6,1.2-5.7-0.5-8.1l-11.5-15.6l19.3-19.3l15.6,11.5c2.4,1.7,5.5,1.9,8.1,0.5c5.3-2.9,11-5.3,16.8-7
				c2.8-0.8,4.9-3.2,5.4-6.1l2.9-19.2H347l2.9,19.2c0.4,2.9,2.5,5.3,5.4,6.1c5.9,1.7,11.5,4,16.8,7c2.6,1.4,5.7,1.2,8.1-0.5
				l15.6-11.5c2.9,2.8,7.6,2.8,10.5-0.1c2.9-2.9,2.9-7.7,0-10.6l-4.5-4.5c-2.6-2.6-6.8-2.9-9.7-0.7l-17,12.5
				c-3.6-1.8-7.3-3.3-11-4.6l-3.2-20.9c-0.6-3.7-3.7-6.4-7.4-6.4h-12.6v-19.1c0-4.1-3.4-7.5-7.5-7.5s-7.5,3.4-7.5,7.5v19.1h-12.6
				c-3.7,0-6.9,2.7-7.4,6.4l-3.2,20.9c-3.8,1.3-7.5,2.8-11,4.6l-17-12.5c-3-2.2-7.1-1.9-9.7,0.7l-28.4,28.4
				c-2.6,2.6-2.9,6.8-0.7,9.7l12.5,17c-1.8,3.6-3.3,7.3-4.6,11l-20.9,3.2c-3.7,0.6-6.4,3.7-6.4,7.4v40.2c0,3.7,2.7,6.9,6.4,7.4
				l20.9,3.2c1.3,3.8,2.8,7.5,4.6,11l-12.5,17c-2.2,3-1.9,7.1,0.7,9.7l28.4,28.4c2.6,2.6,6.8,2.9,9.7,0.7l17-12.5
				c3.6,1.8,7.3,3.3,11,4.6l3.2,20.9c0.6,3.7,3.7,6.4,7.4,6.4h40.2c3.7,0,6.9-2.7,7.4-6.4l3.2-20.9c3.8-1.3,7.5-2.8,11-4.6l17,12.5
				c3,2.2,7.1,1.9,9.7-0.7l28.4-28.4c2.6-2.6,2.9-6.8,0.7-9.7l-12.5-17c1.8-3.6,3.3-7.3,4.6-11l20.9-3.2c3.7-0.6,6.4-3.7,6.4-7.4
				v-40.2C450.3,371.1,447.6,368,444,367.4z"/>
		</g>
		<g>
			<linearGradient id="SVGID_7_" gradientUnits="userSpaceOnUse" x1="201.5468" y1="0.8588" x2="200.5468" y2="513.8588">
				<stop  offset="0" style="stop-color:#FF512F"/>
				<stop  offset="1" style="stop-color:#F09819"/>
			</linearGradient>
			<path class="st6" d="M244.9,149.2c0-0.2,0-0.4-0.1-0.6c-0.1-0.6-0.1-1.2-0.2-1.7c0-0.2-0.1-0.4-0.1-0.6c-0.1-0.6-0.2-1.1-0.3-1.7
				c0-0.2-0.1-0.4-0.1-0.6c-0.1-0.6-0.3-1.1-0.4-1.6c-0.1-0.2-0.1-0.4-0.2-0.6c-0.1-0.5-0.3-1-0.5-1.5c-0.1-0.2-0.2-0.5-0.2-0.7
				c-0.2-0.5-0.3-0.9-0.5-1.4c-0.1-0.3-0.2-0.5-0.3-0.8c-0.2-0.4-0.3-0.8-0.5-1.2c-0.1-0.3-0.3-0.6-0.4-0.9
				c-0.2-0.4-0.3-0.7-0.5-1.1c-0.2-0.3-0.3-0.7-0.5-1c-0.2-0.3-0.3-0.6-0.5-0.8c-0.2-0.4-0.4-0.8-0.7-1.1c-0.1-0.2-0.2-0.4-0.3-0.6
				c-1.4-2.2-2.9-4.3-4.7-6.2c0,0-0.1-0.1-0.1-0.1c-0.4-0.4-0.8-0.8-1.2-1.2c-0.1-0.1-0.2-0.3-0.4-0.4c-0.4-0.4-0.7-0.7-1.1-1.1
				c-0.2-0.2-0.4-0.3-0.5-0.5c-0.2-0.2-0.3-0.3-0.5-0.5c-0.1-0.1-0.1-0.1-0.2-0.2c-0.1-0.1-0.2-0.2-0.2-0.2c-0.3-0.3-0.7-0.6-1-0.8
				c-0.2-0.1-0.3-0.3-0.5-0.4c-0.2-0.1-0.4-0.3-0.6-0.4c0,0,0,0,0,0c-0.1-0.1-0.2-0.2-0.4-0.3c-0.2-0.1-0.4-0.3-0.6-0.4
				c-0.3-0.2-0.6-0.4-0.9-0.6l-0.7-0.4c-0.3-0.2-0.5-0.3-0.8-0.5c0,0-0.1,0-0.1-0.1c0,0-0.1,0-0.1-0.1c0,0,0,0,0,0
				c-0.2-0.1-0.4-0.2-0.6-0.4c-0.2-0.1-0.5-0.3-0.7-0.4c-0.1-0.1-0.3-0.1-0.4-0.2c-0.1,0-0.2-0.1-0.3-0.1c-0.1-0.1-0.2-0.1-0.3-0.2
				l-0.5-0.2c-0.1-0.1-0.2-0.1-0.3-0.1c-0.6-0.3-1.2-0.6-1.8-0.8c-0.1-0.1-0.3-0.1-0.4-0.2c-3.1-1.3-6.3-2.3-9.7-3
				c-0.1,0-0.2,0-0.3,0c-0.7-0.1-1.4-0.2-2.2-0.3c-0.1,0-0.3,0-0.4-0.1c-0.7-0.1-1.4-0.1-2-0.2c-0.2,0-0.3,0-0.5,0
				c-0.8,0-1.7-0.1-2.5-0.1c-24.2,0-43.9,19.7-43.9,43.9v3.4v14.2c0,24.2,19.7,43.9,43.9,43.9c24.2,0,43.9-19.7,43.9-43.9v-10.7
				v-6.9c0-0.8,0-1.6-0.1-2.3c0-0.2,0-0.3,0-0.5C245,150.4,245,149.8,244.9,149.2z M202.8,125c0.2,0,0.4,0,0.6,0
				c0.3,0,0.6,0,0.9,0.1c0.3,0,0.5,0.1,0.8,0.1c0.3,0,0.5,0.1,0.8,0.1c0.3,0,0.6,0.1,0.8,0.1c0.2,0,0.5,0.1,0.7,0.1
				c0.3,0.1,0.5,0.1,0.8,0.2c0.3,0.1,0.5,0.1,0.8,0.2c0.2,0.1,0.5,0.1,0.7,0.2c0.5,0.2,1,0.3,1.5,0.5c0.1,0,0.1,0.1,0.2,0.1
				c0.4,0.2,0.9,0.3,1.3,0.5c0.1,0,0.2,0.1,0.3,0.1c0.4,0.2,0.9,0.4,1.3,0.6c0.2,0.1,0.4,0.2,0.6,0.3c0.1,0,0.2,0.1,0.3,0.2
				c0.3,0.2,0.6,0.3,0.9,0.5l0.3,0.2c0,0,0.1,0,0.1,0c0.3,0.2,0.6,0.4,0.9,0.6l0,0c0.1,0.1,0.2,0.1,0.3,0.2c0.3,0.2,0.5,0.4,0.8,0.6
				c0.1,0.1,0.2,0.2,0.3,0.2c0.3,0.2,0.5,0.4,0.8,0.6c0.1,0.1,0.2,0.2,0.3,0.3c0.2,0.2,0.4,0.3,0.6,0.5c0.2,0.2,0.4,0.3,0.5,0.5
				c0.2,0.2,0.4,0.3,0.5,0.5c0.1,0.1,0.3,0.3,0.4,0.4c0.2,0.2,0.4,0.4,0.6,0.6c0.1,0.1,0.3,0.3,0.4,0.4c0.2,0.2,0.4,0.4,0.6,0.6
				c0.1,0.1,0.2,0.3,0.3,0.4c0.2,0.2,0.4,0.4,0.5,0.7c0.1,0.1,0.2,0.3,0.3,0.4c0.2,0.2,0.3,0.5,0.5,0.7c0.1,0.2,0.2,0.3,0.3,0.5
				c0.1,0.2,0.3,0.4,0.4,0.7c0.1,0.2,0.2,0.3,0.3,0.5c0.1,0.2,0.2,0.4,0.4,0.6s0.2,0.4,0.3,0.6c0.1,0.2,0.2,0.4,0.3,0.5
				c0.1,0.2,0.2,0.5,0.4,0.7c0.1,0.1,0.1,0.3,0.2,0.4c0.1,0.3,0.3,0.6,0.4,0.8c0,0.1,0.1,0.2,0.1,0.3c0.1,0.3,0.3,0.6,0.4,1
				c0,0.1,0,0.1,0.1,0.2c0.7,1.9,1.1,3.9,1.4,5.9c0,0.2,0,0.4,0.1,0.5c-3.6-1.9-6.8-4.7-9.1-8.3c-1.3-2-3.4-3.2-5.7-3.4
				c-2.3-0.2-4.6,0.7-6.2,2.5c-6.8,7.6-16.6,11.9-26.7,11.9c-3.4,0-6.7-0.5-10-1.4c0-0.2,0-0.4,0-0.6c0-0.2,0-0.5,0.1-0.7
				c0-0.3,0.1-0.5,0.1-0.8c0-0.2,0.1-0.4,0.1-0.7c0-0.3,0.1-0.5,0.1-0.8c0-0.2,0.1-0.4,0.1-0.6c0.1-0.3,0.1-0.5,0.2-0.8
				c0-0.2,0.1-0.4,0.1-0.6c0.1-0.3,0.2-0.5,0.2-0.8c0.1-0.2,0.1-0.4,0.2-0.5c0.1-0.3,0.2-0.7,0.3-1c0-0.1,0.1-0.2,0.1-0.3
				c0.2-0.4,0.3-0.9,0.5-1.3c0.1-0.1,0.1-0.3,0.2-0.4c0.1-0.3,0.2-0.6,0.4-0.8c0.1-0.2,0.2-0.3,0.3-0.5c0.1-0.2,0.2-0.5,0.4-0.7
				c0.1-0.2,0.2-0.3,0.3-0.5c0.1-0.2,0.3-0.4,0.4-0.7c0.1-0.2,0.2-0.3,0.3-0.5c0.1-0.2,0.3-0.4,0.4-0.6c0.1-0.2,0.2-0.3,0.4-0.5
				c0.1-0.2,0.3-0.4,0.4-0.6c0.1-0.2,0.3-0.3,0.4-0.5c0.1-0.2,0.3-0.4,0.5-0.6c0.1-0.2,0.3-0.3,0.4-0.5c0.2-0.2,0.3-0.4,0.5-0.6
				c0.1-0.2,0.3-0.3,0.4-0.5c0.2-0.2,0.3-0.4,0.5-0.5c0.1-0.2,0.3-0.3,0.5-0.5c0.2-0.2,0.3-0.3,0.5-0.5c0.2-0.1,0.3-0.3,0.5-0.4
				c0.2-0.2,0.4-0.3,0.5-0.5c0.2-0.1,0.3-0.3,0.5-0.4c0.2-0.2,0.4-0.3,0.6-0.4c0.2-0.1,0.3-0.3,0.5-0.4c0.2-0.1,0.4-0.3,0.6-0.4
				c0.2-0.1,0.4-0.2,0.5-0.4c0.2-0.1,0.4-0.3,0.6-0.4c0.2-0.1,0.4-0.2,0.6-0.3c0.2-0.1,0.4-0.2,0.6-0.4c0.2-0.1,0.4-0.2,0.6-0.3
				c0.2-0.1,0.4-0.2,0.6-0.3c0.2-0.1,0.4-0.2,0.6-0.3c0.2-0.1,0.4-0.2,0.7-0.3c0.2-0.1,0.4-0.2,0.6-0.3c0.2-0.1,0.5-0.2,0.7-0.3
				c0.2-0.1,0.4-0.2,0.6-0.2c0.2-0.1,0.5-0.2,0.7-0.2c0.2-0.1,0.4-0.1,0.6-0.2c0.2-0.1,0.5-0.1,0.7-0.2c0.2-0.1,0.4-0.1,0.6-0.2
				c0.3-0.1,0.5-0.1,0.8-0.2c0.2,0,0.4-0.1,0.6-0.1c0.3-0.1,0.5-0.1,0.8-0.1c0.2,0,0.4-0.1,0.6-0.1c0.3,0,0.6-0.1,0.9-0.1
				c0.2,0,0.4-0.1,0.6-0.1c0.3,0,0.6-0.1,1-0.1c0.2,0,0.3,0,0.5,0c0.5,0,1,0,1.5,0C201.8,124.9,202.3,124.9,202.8,125z M201.2,200.3
				c-15.9,0-28.9-13-28.9-28.9v-4c3.3,0.7,6.6,1,10,1c11.5,0,22.6-3.9,31.6-11c4.6,4.4,10.1,7.7,16.2,9.4v4.5
				C230.1,187.3,217.2,200.3,201.2,200.3z"/>
		</g>
		<g>
			<linearGradient id="SVGID_8_" gradientUnits="userSpaceOnUse" x1="201.7455" y1="0.8592" x2="200.7455" y2="513.8591">
				<stop  offset="0" style="stop-color:#FF512F"/>
				<stop  offset="1" style="stop-color:#F09819"/>
			</linearGradient>
			<path class="st7" d="M262.6,265.2c-2-17.4-14-32.3-30.5-38.1c-0.2-0.1-0.4-0.2-0.6-0.2c-0.5-0.2-1.1-0.4-1.6-0.5
				c-0.1,0-0.1,0-0.2-0.1c-0.1,0-0.2-0.1-0.3-0.1l-1.4-0.4c-0.5-0.1-1.1-0.3-1.6-0.4c-0.1,0-0.2,0-0.3-0.1c-0.6-0.1-1.2-0.2-1.7-0.3
				c-0.5-0.1-1.1-0.2-1.7-0.3l-0.3,0c-0.6-0.1-1.2-0.1-1.8-0.2c-0.5,0-0.9-0.1-1.4-0.1c-0.2,0-0.5,0-0.7,0c-0.5,0-1.1,0-1.6,0h-31.1
				c-0.5,0-1.1,0-1.6,0c-0.2,0-0.5,0-0.8,0c-0.5,0-0.9,0.1-1.4,0.1c-0.6,0-1.2,0.1-1.8,0.2l-0.3,0c-0.6,0.1-1.1,0.2-1.7,0.3
				c-0.6,0.1-1.2,0.2-1.7,0.3c-0.1,0-0.2,0-0.3,0.1c-0.5,0.1-1.1,0.2-1.7,0.4l-1.3,0.3c-0.1,0-0.2,0.1-0.3,0.1c-0.1,0-0.1,0-0.2,0.1
				c-0.5,0.2-1.1,0.3-1.6,0.5c-0.2,0.1-0.4,0.2-0.6,0.2c-16.6,5.8-28.5,20.7-30.6,38.1c-0.3,2.8,0.9,5.5,3.2,7.1
				c17.2,11.7,37.3,17.8,58.1,17.8c20.8,0,40.9-6.2,58.1-17.8C261.7,270.7,262.9,268,262.6,265.2z M201.2,275.1
				c-16.2,0-31.9-4.3-45.6-12.6c2.7-9.9,10.2-18.1,20.2-21.4c0.2-0.1,0.4-0.1,0.5-0.2c0.2-0.1,0.4-0.1,0.6-0.2c0.1,0,0.1,0,0.2-0.1
				c0,0,0,0,0.1,0l1-0.3c0.4-0.1,0.8-0.2,1.1-0.3c0.1,0,0.2,0,0.2-0.1c0.3-0.1,0.7-0.1,1-0.2c0,0,0.1,0,0.1,0
				c0.3-0.1,0.7-0.1,1.1-0.2l0.1,0c0.4,0,0.8-0.1,1.2-0.1c0.3,0,0.7-0.1,1-0.1l0.2,0c0.1,0,0.2,0,0.3,0c0.3,0,0.7,0,1.1,0h31.1
				c0.4,0,0.7,0,1.1,0c0.1,0,0.2,0,0.3,0l0.2,0c0.3,0,0.7,0,1,0.1c0.4,0,0.8,0.1,1.3,0.1c0,0,0.1,0,0.1,0c0.3,0,0.7,0.1,1,0.2
				c0,0,0.1,0,0.1,0c0.3,0.1,0.7,0.1,1,0.2c0.1,0,0.2,0,0.2,0.1c0.4,0.1,0.8,0.2,1.1,0.2l1.1,0.3c0,0,0,0,0,0c0.1,0,0.1,0,0.2,0.1
				c0.2,0.1,0.4,0.1,0.6,0.2c0.2,0.1,0.3,0.1,0.5,0.2c9.9,3.3,17.5,11.5,20.2,21.4C233.1,270.8,217.4,275.1,201.2,275.1z"/>
		</g>
		<g>
			<linearGradient id="SVGID_9_" gradientUnits="userSpaceOnUse" x1="349.9456" y1="1.148" x2="348.9456" y2="514.1481">
				<stop  offset="0" style="stop-color:#FF512F"/>
				<stop  offset="1" style="stop-color:#F09819"/>
			</linearGradient>
			<path class="st8" d="M287.7,131.7c-4.1,0-7.5,3.4-7.5,7.5s3.4,7.5,7.5,7.5h79.1c3.3,11.1,13.5,19.3,25.7,19.3
				c14.8,0,26.8-12,26.8-26.8s-12-26.8-26.8-26.8c-12.2,0-22.4,8.1-25.7,19.3H287.7z M392.4,127.4c6.5,0,11.8,5.3,11.8,11.8
				s-5.3,11.8-11.8,11.8s-11.8-5.3-11.8-11.8S385.9,127.4,392.4,127.4z"/>
		</g>
		<g>
			<linearGradient id="SVGID_10_" gradientUnits="userSpaceOnUse" x1="350.1169" y1="1.1484" x2="349.1169" y2="514.1484">
				<stop  offset="0" style="stop-color:#FF512F"/>
				<stop  offset="1" style="stop-color:#F09819"/>
			</linearGradient>
			<path class="st9" d="M280.2,227.1c0,4.1,3.4,7.5,7.5,7.5h79.1c3.3,11.1,13.5,19.3,25.7,19.3c14.8,0,26.8-12,26.8-26.8
				s-12-26.8-26.8-26.8c-12.2,0-22.4,8.1-25.7,19.3h-79.1C283.5,219.6,280.2,222.9,280.2,227.1z M392.4,215.3
				c6.5,0,11.8,5.3,11.8,11.8s-5.3,11.8-11.8,11.8s-11.8-5.3-11.8-11.8S385.9,215.3,392.4,215.3z"/>
		</g>
	</g>
</g>
</svg>
