<svg id="Capa_1" data-name="Capa 1" xmlns="http://www.w3.org/2000/svg" width="1000" height="994.6" viewBox="0 0 1000 994.6"><title>client-side-development</title><path d="M962.6,872.7a111.86,111.86,0,0,0-87.5-78.2L769.8,775.3V767A160.89,160.89,0,0,0,847,659.1a64.23,64.23,0,0,0,51.2-62.8V437.8a100.5,100.5,0,0,0-71.9-96.5l-8-8a196.2,196.2,0,0,0-139.7-57.8c-108.9,0-197.5,88.6-197.5,197.5V596.3a64.23,64.23,0,0,0,51.2,62.8A160.44,160.44,0,0,0,609.5,767v8.3L504.2,794.4a111.86,111.86,0,0,0-87.5,78.2L379.3,997.2H1000ZM850.1,623.9V568.7a32.07,32.07,0,0,1,16,27.6A31.65,31.65,0,0,1,850.1,623.9Zm-320.8,0a31.8,31.8,0,0,1,0-55.2Zm0-107.9v18.3a62.73,62.73,0,0,0-16,6.6V472.8c0-91.2,74.2-165.4,165.4-165.4a164.29,164.29,0,0,1,117,48.5l14.1,14.2,4.3,1.1a68.57,68.57,0,0,1,52,66.6V541a60.7,60.7,0,0,0-16-6.6V516H799.2a139.72,139.72,0,0,1-111.1-55.5l-12.8-17-31.9,31.9a138.05,138.05,0,0,1-98.2,40.7l-15.9-.1Zm32.1,112.3V547.4a170,170,0,0,0,104.8-49.3l6.2-6.2a171.91,171.91,0,0,0,126.8,56.3H818v80.2A128.44,128.44,0,0,1,689.7,756.7C619,756.6,561.4,699.1,561.4,628.3ZM643,781.7a159.95,159.95,0,0,0,93.6,0l-46.8,35.1Zm22.3,56.9-32.7,32.7-21.2-63.7,10.2-1.8Zm92.6-32.8,10.2,1.9-21.2,63.7-32.7-32.7ZM422.6,965.2l25-83.3A80,80,0,0,1,510.1,826l69.5-12.6,39.1,117.3,71.2-71.2,71.2,71.2L800,813.4,869.5,826A79.81,79.81,0,0,1,932,881.9l25,83.3Z" transform="translate(0 -2.7)" style="fill:#f26522"/><path d="M417,262.1V160.4l-43.5-11.6c-1.3-3.4-2.7-6.7-4.2-10.1l22.6-39L320,27.9,281,50.5c-3.3-1.5-6.7-2.9-10-4.2L259.3,2.8H157.7L146.1,46.3c-3.4,1.3-6.7,2.7-10,4.2L97,27.9,25.2,99.8l22.6,39c-1.5,3.4-2.9,6.7-4.2,10.1L0,160.4V262.1l43.5,11.6c1.3,3.4,2.7,6.7,4.2,10.1l-22.6,39L97,394.7l39-22.6c3.3,1.5,6.7,2.9,10,4.2l11.6,43.5H259.2l11.6-43.5c3.4-1.3,6.7-2.7,10-4.2l39,22.6,71.9-71.9-22.6-39c1.5-3.4,2.9-6.7,4.2-10.1Zm-65.2,55.4-37,37-32.6-18.9-7.8,4a141.44,141.44,0,0,1-21.6,9l-8.3,2.7-9.7,36.3H182.4l-9.7-36.3-8.3-2.7a147.58,147.58,0,0,1-21.6-9l-7.8-4-32.6,18.9-37-37,18.9-32.6-4-7.8a145.74,145.74,0,0,1-9-21.6l-2.7-8.3-36.4-9.7V185.1l36.4-9.7,2.7-8.3a145.74,145.74,0,0,1,9-21.6l4-7.8L65.3,105l37-37,32.6,18.9,7.8-4a141.44,141.44,0,0,1,21.6-9l8.3-2.7,9.7-36.3h52.4l9.7,36.3,8.3,2.7a147.58,147.58,0,0,1,21.6,9l7.8,4L314.8,68l37,37-18.9,32.6,4,7.8a145.74,145.74,0,0,1,9,21.6l2.7,8.3L385,185v52.4l-36.4,9.7-2.7,8.3a145.74,145.74,0,0,1-9,21.6l-4,7.8Z" transform="translate(0 -2.7)" style="fill:#f26522"/><path d="M298.6,278.3a112.68,112.68,0,1,0-21.7,22l-19.6-25.4a79.17,79.17,0,0,1-48.9,16.6,80.2,80.2,0,1,1,64.4-32.4Z" transform="translate(0 -2.7)" style="fill:#f26522"/><path d="M967.1,199.9l-20.7,20.7V163.1c0-88.4-72-160.4-160.4-160.4H689.8V34.8H786A128.44,128.44,0,0,1,914.3,163.1v57.5l-20.7-20.7-22.7,22.7,59.5,59.5,59.5-59.5Z" transform="translate(0 -2.7)" style="fill:#f26522"/><path d="M80.2,836.8V779.3L100.9,800l22.7-22.7L64.1,717.8,4.7,777.4l22.7,22.7,20.7-20.7v57.5c0,88.4,72,160.4,160.4,160.4V965.2C137.8,965.2,80.2,907.6,80.2,836.8Z" transform="translate(0 -2.7)" style="fill:#f26522"/><rect y="481.3" width="417" height="32.1" style="fill:#f26522"/><rect y="609.6" width="417" height="32.1" style="fill:#f26522"/><rect y="545.4" width="192.5" height="32.1" style="fill:#f26522"/><polygon points="316.8 545.4 240.6 545.4 224.6 545.4 224.6 577.5 240.6 577.5 316.8 577.5 417 577.5 417 545.4 316.8 545.4" style="fill:#f26522"/><rect x="625.6" y="0.1" width="32.1" height="32.1" style="fill:#f26522"/><rect x="561.4" y="0.1" width="32.1" height="32.1" style="fill:#f26522"/><rect x="240.6" y="962.5" width="32.1" height="32.1" style="fill:#f26522"/><rect x="304.8" y="962.5" width="32.1" height="32.1" style="fill:#f26522"/></svg>