<svg id="Layer_1" data-name="Layer 1" xmlns="http://www.w3.org/2000/svg" xmlns:xlink="http://www.w3.org/1999/xlink" width="600" height="400" viewBox="0 0 600 400"><defs><style>.cls-1,.cls-12,.cls-19,.cls-7,.cls-9{fill:none;}.cls-10,.cls-13,.cls-14,.cls-2,.cls-4,.cls-6{fill:#fff;}.cls-15,.cls-16,.cls-18,.cls-3,.cls-5{fill:#d4d2f7;}.cls-4{opacity:0.7;}.cls-10,.cls-18,.cls-4{isolation:isolate;}.cls-11,.cls-13,.cls-14,.cls-15,.cls-16,.cls-19,.cls-5,.cls-6,.cls-7,.cls-9{stroke:#2e353a;}.cls-11,.cls-12,.cls-13,.cls-16,.cls-19,.cls-5,.cls-6{stroke-miterlimit:10;}.cls-5,.cls-6,.cls-9{stroke-width:1.5px;}.cls-14,.cls-15,.cls-7,.cls-9{stroke-linecap:round;stroke-linejoin:round;}.cls-11,.cls-8{fill:#2e353a;}.cls-10{opacity:0.3;}.cls-12{stroke:#fff;}.cls-17{clip-path:url(#clip-path);}.cls-18{opacity:0.5;}</style><clipPath id="clip-path"><path class="cls-1" d="M312,99.83s-2.82,10.47-2.21,11.51,2,.61,1.21,2.62-2.62,5.85-2.22,7.46,2.62,2.82,2.62,2.82,1,7.26,2,8.64,6.45.6,6.45.6l.4,5.44,16.13-1-.6-9.67L335,98.47Z"/></clipPath></defs><title>configuration</title><rect class="cls-2" width="600" height="400"/><g id="freepik--background-simple--inject-1--inject-33"><path class="cls-3" d="M128.73,53.14s-20.15,11.52-23,40.3S134.49,162.51,139.28,199s-33.58,45.09-18.23,91.14S217,346.72,260.17,328.49s63.32-64.28,127.59-64.28,110.33-29.74,106.5-95.94S476,81.93,424.22,43.55,192.05-12.09,128.73,53.14Z"/><path class="cls-4" d="M128.73,53.14s-20.15,11.52-23,40.3S134.49,162.51,139.28,199s-33.58,45.09-18.23,91.14S217,346.72,260.17,328.49s63.32-64.28,127.59-64.28,110.33-29.74,106.5-95.94S476,81.93,424.22,43.55,192.05-12.09,128.73,53.14Z"/></g><g id="freepik--Window--inject-1--inject-33"><rect class="cls-5" x="134.01" y="32.54" width="316.48" height="228.93" rx="9.38"/><rect class="cls-6" x="139.93" y="54.53" width="304.63" height="192.9"/><line class="cls-7" x1="155.86" y1="206.61" x2="246.49" y2="206.61"/><line class="cls-7" x1="170.87" y1="215.61" x2="246.49" y2="215.61"/><line class="cls-7" x1="155.86" y1="215.61" x2="163.06" y2="215.61"/><line class="cls-7" x1="155.86" y1="224.61" x2="246.49" y2="224.61"/><line class="cls-7" x1="239.88" y1="233.61" x2="246.49" y2="233.61"/><line class="cls-7" x1="155.86" y1="233.61" x2="232.08" y2="233.61"/><rect class="cls-8" x="152.93" y="70.3" width="219.06" height="70.45" rx="5.46"/><path class="cls-8" d="M366.53,70.78a5,5,0,0,1,5,5h0v59.53a5,5,0,0,1-5,5H158.35a5,5,0,0,1-5-5h0V75.76a5,5,0,0,1,5-5H366.53m0-1H158.35a5.94,5.94,0,0,0-5.94,5.94v59.53a6,6,0,0,0,5.94,5.94H366.53a6,6,0,0,0,5.93-5.94V75.76A5.93,5.93,0,0,0,366.53,69.82Z"/><path class="cls-3" d="M327.73,70.78a11.59,11.59,0,0,1-16.39.35l-.36-.35h-5l.13.23-1.81,1.84a1.81,1.81,0,0,0,0,2.55l2.39,2.39a1.79,1.79,0,0,0,2.53,0l0,0L311.08,76a15.21,15.21,0,0,0,4.8,2v2.61a1.81,1.81,0,0,0,1.8,1.81h3.38a1.81,1.81,0,0,0,1.8-1.81h0V77.94a15.21,15.21,0,0,0,4.8-2l1.84,1.84a1.8,1.8,0,0,0,2.54,0v0l2.39-2.39a1.81,1.81,0,0,0,0-2.55L332.6,71l.13-.23Z"/><path class="cls-3" d="M242.28,139.37h-2.61a15.16,15.16,0,0,0-2-4.79l1.84-1.85a1.79,1.79,0,0,0,0-2.53v0l-2.38-2.41a1.81,1.81,0,0,0-2.55,0h0l-1.84,1.85a15.57,15.57,0,0,0-4.8-2V125a1.81,1.81,0,0,0-1.81-1.8h-3.38a1.8,1.8,0,0,0-1.81,1.8v2.61a15.47,15.47,0,0,0-4.8,2l-1.84-1.85a1.8,1.8,0,0,0-2.54,0h0l-2.43,2.39a1.8,1.8,0,0,0,0,2.54l0,0,1.84,1.84a15.16,15.16,0,0,0-2,4.79h-2.61a1.78,1.78,0,0,0-1.55.9h8.05a11.64,11.64,0,0,1,22.69,0h8.11A1.79,1.79,0,0,0,242.28,139.37Z"/><path class="cls-3" d="M156.08,118.64h3.35a1.81,1.81,0,0,0,1.81-1.81v-2.6a15.47,15.47,0,0,0,4.8-2l1.84,1.84a1.79,1.79,0,0,0,2.54,0v0l2.43-2.4a1.8,1.8,0,0,0,0-2.54l0,0L171,107.27a15.41,15.41,0,0,0,2-4.79h2.6a1.81,1.81,0,0,0,1.81-1.81h0V97.28a1.81,1.81,0,0,0-1.81-1.81H173a15.66,15.66,0,0,0-2-4.79l1.84-1.85a1.79,1.79,0,0,0,0-2.53l0,0-2.39-2.39a1.81,1.81,0,0,0-2.55,0l-1.84,1.87a15.77,15.77,0,0,0-4.8-2V81.17a1.81,1.81,0,0,0-1.79-1.83s0,0-.06,0h-3.38a1.8,1.8,0,0,0-1.8,1.8h0v2.61q-.45.1-.87.24V88.2a11.26,11.26,0,0,1,3.18-.8,11.65,11.65,0,1,1-3.15,22.35V114q.42.14.87.24v2.6a1.81,1.81,0,0,0,1.79,1.83Z"/><rect class="cls-6" x="235.32" y="38.49" width="151.35" height="9.27"/><polyline class="cls-9" points="147.26 37.02 142.89 41.22 147.42 46.07"/><line class="cls-9" x1="142.89" y1="41.22" x2="152.59" y2="41.22"/><polyline class="cls-9" points="172 37.02 176.37 41.22 171.84 46.07"/><line class="cls-9" x1="176.36" y1="41.22" x2="166.66" y2="41.22"/><path class="cls-9" d="M197.22,40.67a4.79,4.79,0,0,0-4.45-3.47,4.37,4.37,0,1,0,2.76,7.74"/><polyline class="cls-9" points="194.28 41.14 197.67 41.14 197.67 37.1"/><polygon class="cls-9" points="220.35 39.71 216.32 36.45 212.49 39.71 212.49 46.81 220.35 46.81 220.35 39.71"/><rect class="cls-8" x="214.79" y="41.63" width="3.07" height="4.92"/><line class="cls-9" x1="212.48" y1="39.71" x2="210.18" y2="41.82"/><line class="cls-9" x1="220.35" y1="39.71" x2="222.52" y2="41.64"/><line class="cls-9" x1="428.52" y1="40.19" x2="440.66" y2="40.19"/><line class="cls-9" x1="428.52" y1="42.93" x2="440.66" y2="42.93"/><line class="cls-9" x1="428.52" y1="45.67" x2="440.66" y2="45.67"/><line class="cls-9" x1="428.52" y1="48.4" x2="440.66" y2="48.4"/><path class="cls-3" d="M450.49,95.17H252.86a7.31,7.31,0,0,0-7.31,7.31h0v54.88a7.3,7.3,0,0,0,7.31,7.3H450.49Z"/></g><g id="freepik--Character--inject-1--inject-33"><ellipse class="cls-3" cx="309.75" cy="378.53" rx="168.09" ry="8.61"/><ellipse class="cls-10" cx="309.75" cy="378.53" rx="168.09" ry="8.61"/><path class="cls-8" d="M315,372.62a4.9,4.9,0,0,0-2.28.59c-1.2.63-6.38,2.05-9.72,3.23-5.21,1.85-9.27.85-8.85,2.21s8.55,4.1,13.25,4.17,7-1.1,9.21-1.06.59,1.14,4.33,1.56,5,.43,6.27-1.61,2-2.58,1.63-5.17v-.08a4.8,4.8,0,0,0-4.8-3.92Z"/><path class="cls-8" d="M344.08,370.13a3.41,3.41,0,0,0-2,.55c-1,.65-5.49,2-8.36,3.16-4.48,1.82-8.05.6-7.67,2.08s5.21,3.49,9.3,3.72a32.76,32.76,0,0,0,6.64-.25c4.43-.25,1.61,1.33,3.21,2a10.53,10.53,0,0,0,3.44.49c4.67.25,5.24.62,6.31-1.54s1.69-2.69,1.24-5.49v-.09c-.41-2.48-2.26-4.32-4.3-4.37Z"/><path class="cls-11" d="M302.26,224s.81,28.21.81,37.68,2.42,52.26,5.64,67.78a327.2,327.2,0,0,1,5,40.09c0,2.42-.81,3,.8,4.63s7.68,4.64,9.89,3.63,3.42-4.8,3.42-4.8,0-20.95.6-34.65-.4-31.66-.4-31.66,7.86,36.27,10.08,43.53,4,20.4,4.43,23S344.74,376,347,376c2.71,0,6.05-.35,7.26-2.36s-1.41-23.17-1.41-31.66-6.65-60.93-6-73.87,4.43-35.26,3.22-41.91a74.73,74.73,0,0,1-1.21-11.85S307.3,209.52,302.26,224Z"/><path class="cls-12" d="M304.69,227.18a48.94,48.94,0,0,0,2.61,7.31,8.53,8.53,0,0,0,3.63,3.84"/><path class="cls-12" d="M317.73,367.27a47.79,47.79,0,0,1-.16,8.54"/><path class="cls-12" d="M311.73,256.43c.57,21.93,1.64,59.24,2.62,68.2,1.1,9.93,2.06,25.13,2.73,34.35"/><path class="cls-12" d="M310.86,227.48c-.2.61.47,12.65.47,12.65s.1,4.07.26,10.44"/><path class="cls-13" d="M255.12,148s-.2-4.8.81-3.63,1.2,3.43,1.61,5.64c0,0,.6-4.23,1.21-3a8.67,8.67,0,0,1,.6,4.8,13,13,0,0,0,1.41,6.65C261.57,159.64,256.53,156.25,255.12,148Z"/><path class="cls-14" d="M406.76,154.3s2.88-3.89,1.36-3.45-2.88,2.17-4.49,3.78c0,0,1.86-3.84.68-3.19a8.65,8.65,0,0,0-3.2,3.68,12.93,12.93,0,0,1-4.88,4.72C394.88,160.39,401,160.37,406.76,154.3Z"/><path class="cls-14" d="M409.83,90V87.53a1.3,1.3,0,0,0-1.29-1.31h-1.92a11.51,11.51,0,0,0-1.43-3.46l1.32-1.32a1.31,1.31,0,0,0,0-1.85l-1.72-1.71a1.3,1.3,0,0,0-1.84,0l-1.32,1.32a11.17,11.17,0,0,0-3.48-1.43V75.85a1.29,1.29,0,0,0-1.28-1.3h-2.39a1.3,1.3,0,0,0-1.29,1.3v1.92a11.22,11.22,0,0,0-3.47,1.43l-1.33-1.32a1.29,1.29,0,0,0-1.83,0h0l-1.67,1.71a1.31,1.31,0,0,0,0,1.85l1.32,1.32a11.29,11.29,0,0,0-1.44,3.46H382.9a1.31,1.31,0,0,0-1.3,1.31V90a1.3,1.3,0,0,0,1.3,1.3h1.87a11.09,11.09,0,0,0,1.44,3.46l-1.32,1.33a1.3,1.3,0,0,0,0,1.84l1.71,1.72a1.32,1.32,0,0,0,1.84,0h0l1.33-1.33a11.19,11.19,0,0,0,3.46,1.44v1.87a1.31,1.31,0,0,0,1.3,1.31H397a1.3,1.3,0,0,0,1.29-1.3h0V99.72a11.24,11.24,0,0,0,3.47-1.44l1.33,1.33a1.32,1.32,0,0,0,1.84,0l1.72-1.72a1.32,1.32,0,0,0,0-1.84l-1.33-1.33a11.06,11.06,0,0,0,1.43-3.46h1.92A1.28,1.28,0,0,0,409.83,90Zm-13.58,4.31a5.56,5.56,0,1,1,4.94-6.11,4.92,4.92,0,0,1,0,1.15,5.57,5.57,0,0,1-4.94,5Z"/><path class="cls-14" d="M293.08,157.2v-2.44a1.29,1.29,0,0,0-1.29-1.29h-1.93a11.15,11.15,0,0,0-1.39-3.43l1.32-1.33a1.29,1.29,0,0,0,0-1.83h0l-1.72-1.73a1.3,1.3,0,0,0-1.84,0l-1.32,1.33a11.54,11.54,0,0,0-3.46-1.44v-1.91a1.31,1.31,0,0,0-1.31-1.3h-2.43a1.3,1.3,0,0,0-1.3,1.3V145a11.33,11.33,0,0,0-3.46,1.44l-1.33-1.33a1.3,1.3,0,0,0-1.84,0l-1.72,1.73a1.3,1.3,0,0,0,0,1.83h0l1.33,1.33a11,11,0,0,0-1.44,3.47H266a1.3,1.3,0,0,0-1.31,1.28h0v2.44a1.3,1.3,0,0,0,1.3,1.29H268a11.29,11.29,0,0,0,1.44,3.48l-1.33,1.32a1.3,1.3,0,0,0,0,1.84l1.72,1.72a1.3,1.3,0,0,0,1.84,0l1.33-1.33a11.06,11.06,0,0,0,3.46,1.43v1.92a1.3,1.3,0,0,0,1.29,1.3h2.44a1.3,1.3,0,0,0,1.31-1.29h0V167a11.26,11.26,0,0,0,3.46-1.43l1.32,1.33a1.3,1.3,0,0,0,1.84,0l1.72-1.72a1.3,1.3,0,0,0,0-1.84L288.47,162a11.27,11.27,0,0,0,1.43-3.48h1.92a1.29,1.29,0,0,0,1.26-1.32Zm-13.56,4.5a5.76,5.76,0,1,1,5.12-6.33,6,6,0,0,1,0,1.2,5.77,5.77,0,0,1-5.12,5.13Z"/><rect class="cls-14" x="250.07" y="87.63" width="218.1" height="69.49" rx="7.3"/><line class="cls-7" x1="461.37" y1="105.9" x2="264.5" y2="105.9"/><line class="cls-7" x1="461.37" y1="121.13" x2="264.5" y2="121.13"/><line class="cls-7" x1="461.37" y1="136.35" x2="264.5" y2="136.35"/><path class="cls-13" d="M270,168.93s-2.37-2-2.66-2.88a21.81,21.81,0,0,0-1.16-4c-.82-1.79-3.84-3.39-4.8-5.52s-2.23-5.87-2.87-6.59-1.6-.39-1.92,1.63,3.44,6.95,3.68,7.67-3.94-.53-6.63-2.25-4.33-5.33-6-7.61-2.94-.68-2.87.63,4.89,8.73,5.82,11.44,4,5.61,5.76,7.09,5.51,2.07,5.51,2.07l2.54,2.53Z"/><path class="cls-15" d="M262.78,179.42,259.35,172a8.66,8.66,0,0,1,5.84-3.62c4.23-.81,4.8,0,4.8,0l2.22,7.67S265,176.6,262.78,179.42Z"/><path class="cls-15" d="M296,153.88s-10.28,29.41-11.69,33.24c-.36,1-1.06,2.59-1.92,4.45-1.79-3.11-5.75-10-6.93-12.91-1.61-3.84-3.84-4.8-7.46-4.43s-6.85,4.23-6.85,7.05c0,5.34,4.73,12.47,6.82,17.27,2.25,5.08,3.76,7,7.55,11.23,4.79,5.39,10.23,3.52,13.91-1.71,2.82-4,10-18.7,10-18.7S297.63,158.47,296,153.88Z"/><path class="cls-7" d="M282.4,191.53s-4,5.7-4.34,8.73"/><path class="cls-14" d="M381.93,165.17s2.81-1.34,3.31-2.08a22.28,22.28,0,0,1,2.14-3.53c1.26-1.52,4.63-2.27,6.09-4.1s3.67-5.08,4.49-5.6,1.64,0,1.46,2.06-5.11,5.84-5.52,6.43,4.66-1.16,7.78-.52,6.83-.76,9.59-1.24,2.58,1.57,1.64,2.48-9.59,2.81-12.16,4.09-4.8,2.27-6.92,3.24a43.71,43.71,0,0,0-4.42,2.51l-3.11,1.8Z"/><path class="cls-16" d="M388.72,176.41l3.43-7.46a8.62,8.62,0,0,0-5.84-3.62c-4.23-.81-4.8,0-4.8,0L379.29,173S386.55,173.59,388.72,176.41Z"/><path class="cls-15" d="M383.52,171.15c-3.62-.4-5.84.6-7.45,4.43-1.23,2.88-5.13,9.8-6.94,12.91-.86-1.86-1.56-3.45-1.92-4.45-1.41-3.83-11.68-33.24-11.68-33.24-1.61,4.63-3.43,35.5-3.43,35.5S359.78,201,362.66,205c1.66,2.37,3,4.56,6,5,8.94,1.34,11.62-7.08,14.39-13.29,1.74-3.93,3.47-7.86,5.08-11.84.79-1.92,2.28-4.5,2.28-6.64C390.37,175.4,387.15,171.57,383.52,171.15Z"/><path class="cls-7" d="M369.13,188.51s4,5.7,4.8,8.72"/><path class="cls-2" d="M312,99.83s-2.82,10.47-2.21,11.51,2,.61,1.21,2.62-2.62,5.85-2.22,7.46,2.62,2.82,2.62,2.82,1,7.26,2,8.64,6.45.6,6.45.6l.4,5.44,16.13-1-.6-9.67L335,98.47Z"/><g class="cls-17"><path class="cls-18" d="M319.79,133.48l.4,5.44,16.13-1-.6-9.67-.35-12.55c-2.1,0-4,.09-4.61.09-1.47,0-4.67-.25-5.41,0s-1.72.49-1.72.49L320,120.25s.24,5.16-1.48,7.87c-1.44,2.26-5.22,3.16-5.43,4.18a4.55,4.55,0,0,0,.3.63l.64.45C315.72,134.08,319.79,133.48,319.79,133.48Z"/></g><path class="cls-19" d="M312,99.83s-2.82,10.47-2.21,11.51,2,.61,1.21,2.62-2.62,5.85-2.22,7.46,2.62,2.82,2.62,2.82,1,7.26,2,8.64,6.45.6,6.45.6l.4,5.44,16.13-1-.6-9.67L335,98.47Z"/><path class="cls-8" d="M313.41,114.34c0,.82-.3,1.47-.66,1.47s-.67-.65-.67-1.47.3-1.46.67-1.46S313.41,113.53,313.41,114.34Z"/><path class="cls-13" d="M331.29,91.77c-1,.15-8.64,0-14.72,1s-7.86,1.41-7.68,4-.4,3.62,1.82,4.63a9.12,9.12,0,0,0,3,1s-.61,2.82-.81,4.8,3.43,4.23,3.43,4.23a14.81,14.81,0,0,0,.2,4c.4,1,1.41,1.2,2,.4s1-4.64,1.62-3,3,13.71,4.64,15.12,8.86.6,10.88.2,5.84-8.87,7.67-13.91,1-13.9-1.61-17.93S333.9,91.37,331.29,91.77Z"/><path class="cls-8" d="M342.38,97.54c-.72,1.91-1.46,4.31-3.51,4.47-3.19.25-3.19-3.94-5.41-5.42s1.48,7.38-.24,4.93-6.15-4.93-10.08-5.17,2.21,7.13.74,7.13S320,98.81,320,97.58s-3.7-1.26-7.88-1.26-2.46,2.45-2.46,3.93a1,1,0,0,0,.18.59,3.83,3.83,0,0,0,1,.56,8.89,8.89,0,0,0,3,1s-.61,2.82-.81,4.8,3.43,4.23,3.43,4.23a14.79,14.79,0,0,0,.2,4c.4,1,1.41,1.21,2,.4s1-4.64,1.61-3,3,13.71,4.65,15.12,8.86.6,10.88.2,5.84-8.86,7.67-13.91C345,109.75,344.49,101.91,342.38,97.54Z"/><path class="cls-16" d="M316.37,138.32l-4.44,8.06s11.09-3.23,17.14-3.23a83.1,83.1,0,0,1,12.69,1.21l-2.82-7.85S323.62,134.89,316.37,138.32Z"/><path class="cls-16" d="M313.55,145.37s-7.26,3.84-11.52,5.84a59.84,59.84,0,0,1-6,2.62s5,64.14,5,67.56-.21,3.63,1,4.64,7.47,1.46,18.55,1.26,24.94-2.47,26-2.47a5.21,5.21,0,0,0,4-2.42c1.21-1.81,5-70.18,5.24-71s-13.3-6.64-14.71-7.05S331.69,138.53,313.55,145.37Z"/><path class="cls-7" d="M338,196.72a32.64,32.64,0,0,1-4.06,3.15"/><path class="cls-7" d="M352.79,170.44s-2.81,12.37-11,22.24"/><path class="cls-13" d="M318.47,112.83a53.34,53.34,0,0,1,.49,5.66c0,2.2-1.48,3.43-.49,4.42s1.72.49,2.45-1.23a14.41,14.41,0,0,0,1-6.4C321.66,113.59,321.41,109.87,318.47,112.83Z"/><polyline class="cls-12" points="329.32 312.6 334.72 257.38 343.12 247.17"/></g></svg>