<?xml version="1.0" encoding="utf-8"?>
<!-- Generator: Adobe Illustrator 18.0.0, SVG Export Plug-In . SVG Version: 6.00 Build 0)  -->
<!DOCTYPE svg PUBLIC "-//W3C//DTD SVG 1.1//EN" "http://www.w3.org/Graphics/SVG/1.1/DTD/svg11.dtd">
<svg version="1.1" id="Layer_1" xmlns="http://www.w3.org/2000/svg" xmlns:xlink="http://www.w3.org/1999/xlink" x="0px" y="0px"
	 viewBox="334 76 313 304" enable-background="new 334 76 313 304" xml:space="preserve">
<g>
	<polygon fill="#F26522" points="368.4,340.5 351,373.6 428.9,373.6 411.5,340.5 	"/>
	<circle fill="#F26522" cx="389.1" cy="319.4" r="17"/>
	<polygon fill="#F26522" points="460.3,340.5 442.8,373.6 520.8,373.6 503.3,340.5 	"/>
	<circle fill="#F26522" cx="480.9" cy="319.4" r="17"/>
	<polygon fill="#F26522" points="551.7,340.5 534.2,373.6 612.2,373.6 594.7,340.5 	"/>
	<circle fill="#F26522" cx="572.7" cy="319.4" r="17"/>
	<path fill="#F26522" d="M469.7,86.5v76.2l-17-17c-0.4-0.4-0.4-0.4-0.9-0.4c-3.1-4-7.6-6.3-12.5-6.3h-11.6
		c-14.8,0-26.9,12.1-26.9,26.9v45.7h4.9l3.1,5.8l-8.1,69.9c-0.9,7.2,3.6,13.9,10.3,14.8l1.8,0.4c6.3,0.9,12.5-4,13-11.6l2.2-18.8
		l2.2,18.8c0.9,7.2,6.7,12.5,13.4,11.2l1.8-0.4c6.3-0.9,10.8-7.6,9.9-14.8L446,211h9v-40.8l12.1,12.1c0.9,0.9,1.8,1.3,2.7,1.8v3.6
		v15.7h163.1V86.9H469.7V86.5z M628.3,198.5H474.2v-11.2v-3.1c1.3,0,2.7-0.9,4-1.8l27.3-24.2c3.1-2.7,3.6-7.6,0.9-10.8l-0.9,0.4
		c-2.7-3.1-7.6-3.6-10.8-0.9l-20.6,18.4V90.9h154.1V198.5L628.3,198.5z"/>
	<rect x="515.4" y="164" fill="#F26522" width="83.3" height="4.5"/>
	<polygon fill="#F26522" points="551.2,134.4 566.9,144.3 594.7,116 591.6,112.9 566.5,138.4 550.8,128.6 529.3,150.1 532.4,153.2 	
		"/>
	<rect x="490.3" y="106.6" fill="#F26522" width="25.5" height="4.5"/>
	<rect x="483.6" y="122.3" fill="#F26522" width="19.3" height="4.5"/>
	<circle fill="#F26522" cx="427.6" cy="118.3" r="18.8"/>
</g>
</svg>
