<svg id="Capa_1" data-name="Capa 1" xmlns="http://www.w3.org/2000/svg" xmlns:xlink="http://www.w3.org/1999/xlink" viewBox="0 0 512 512"><defs><linearGradient id="linear-gradient" x1="71.15" y1="516.69" x2="63.15" y2="2.69" gradientTransform="matrix(1, 0, 0, -1, 0, 513)" gradientUnits="userSpaceOnUse"><stop offset="0" stop-color="#ff512f"/><stop offset="1" stop-color="#f09819"/></linearGradient><linearGradient id="linear-gradient-2" x1="72.08" y1="516.68" x2="64.08" y2="2.68" xlink:href="#linear-gradient"/><linearGradient id="linear-gradient-3" x1="200.01" y1="514.68" x2="192.01" y2="0.68" xlink:href="#linear-gradient"/><linearGradient id="linear-gradient-4" x1="475.72" y1="510.39" x2="467.72" y2="-3.61" xlink:href="#linear-gradient"/><linearGradient id="linear-gradient-5" x1="201.97" y1="514.65" x2="193.97" y2="0.65" xlink:href="#linear-gradient"/><linearGradient id="linear-gradient-6" x1="164.12" y1="515.24" x2="156.12" y2="1.24" xlink:href="#linear-gradient"/><linearGradient id="linear-gradient-7" x1="165.06" y1="515.23" x2="157.06" y2="1.23" xlink:href="#linear-gradient"/><linearGradient id="linear-gradient-8" x1="199.08" y1="514.7" x2="191.08" y2="0.7" xlink:href="#linear-gradient"/></defs><title>contract-tracking</title><circle cx="70" cy="70" r="10" style="fill:url(#linear-gradient)"/><circle cx="70" cy="130" r="10" style="fill:url(#linear-gradient-2)"/><path d="M383.2,97.1,294.9,8.8A30.22,30.22,0,0,0,273.7,0H30A30.09,30.09,0,0,0,0,30V482a30.09,30.09,0,0,0,30,30H362a30.09,30.09,0,0,0,30-30V118.3A30,30,0,0,0,383.2,97.1ZM292,34.1,357.9,100H292ZM372,482a10,10,0,0,1-10,10H30a10,10,0,0,1-10-10V30A10,10,0,0,1,30,20H272v90a10,10,0,0,0,10,10h90Z" style="fill:url(#linear-gradient-3)"/><path d="M502,53.6V30a30,30,0,0,0-60,0V53.6A40,40,0,0,0,432,80V402a130.79,130.79,0,0,0,26,78l4,5.3V502a10,10,0,0,0,20,0V485.3l4-5.3a130.79,130.79,0,0,0,26-78V80A39.45,39.45,0,0,0,502,53.6ZM462,30a10,10,0,0,1,20,0V41.3A41.53,41.53,0,0,0,472,40a37.08,37.08,0,0,0-10,1.3Zm10,435.2A110.3,110.3,0,0,1,452.5,412h39.1A110.7,110.7,0,0,1,472,465.2ZM492,392H452V186h40Zm0-226H452V80a20,20,0,0,1,40,0Z" style="fill:url(#linear-gradient-4)"/><path d="M296,312a30.09,30.09,0,0,0-30,30,29.72,29.72,0,0,0,2.9,12.9l-40,40a30.14,30.14,0,0,0-25.8,0l-20-20A30,30,0,1,0,126,362a29.72,29.72,0,0,0,2.9,12.9l-20,20A30,30,0,1,0,126,422a29.72,29.72,0,0,0-2.9-12.9l20-20a30.14,30.14,0,0,0,25.8,0l20,20A30,30,0,1,0,246,422a29.72,29.72,0,0,0-2.9-12.9l40-40A30,30,0,1,0,296,312ZM96,432a10,10,0,1,1,10-10A10,10,0,0,1,96,432Zm60-60a10,10,0,1,1,10-10A10,10,0,0,1,156,372Zm60,60a10,10,0,1,1,10-10A10,10,0,0,1,216,432Zm80-80a9.81,9.81,0,0,1-6.1-2.1A8.56,8.56,0,0,0,288,348a9.93,9.93,0,1,1,8,4Z" style="fill:url(#linear-gradient-5)"/><path d="M216,60H110a10,10,0,0,0,0,20H216a10,10,0,0,0,0-20Z" style="fill:url(#linear-gradient-6)"/><path d="M216,120H110a10,10,0,0,0,0,20H216a10,10,0,0,0,0-20Z" style="fill:url(#linear-gradient-7)"/><path d="M322,186H70a10,10,0,0,0,0,20H322a10,10,0,0,0,0-20Z" style="fill:url(#linear-gradient-8)"/><path d="M322,246H70a10,10,0,0,0,0,20H322a10,10,0,0,0,0-20Z" style="fill:url(#linear-gradient-3)"/></svg>