<?xml version="1.0" encoding="utf-8"?>
<!-- Generator: Adobe Illustrator 18.0.0, SVG Export Plug-In . SVG Version: 6.00 Build 0)  -->
<!DOCTYPE svg PUBLIC "-//W3C//DTD SVG 1.1//EN" "http://www.w3.org/Graphics/SVG/1.1/DTD/svg11.dtd">
<svg version="1.1" id="Layer_1" xmlns="http://www.w3.org/2000/svg" xmlns:xlink="http://www.w3.org/1999/xlink" x="0px" y="0px"
	 viewBox="-3.8 -3.8 39.5 39.5" enable-background="new -3.8 -3.8 39.5 39.5" xml:space="preserve">
<path fill="#F26522" d="M22.9,0.1l-0.3-0.3h-0.4v0.7h0.7V0.1z M21.8-0.9h-0.4v0.7h0.7v-0.4L21.8-0.9z M26.6,4.3V3.8l-0.3-0.3h-0.4
	v0.7C25.8,4.3,26.6,4.3,26.6,4.3z M23.6,2h-0.7v0.7h0.7C23.6,2.8,23.6,2,23.6,2z M24.3,2.8h-0.7v0.7h0.7V2.8z M24.3,5.7h0.7V5h-0.7
	V5.7z M21.4,5.7h0.7V5h-0.7V5.7z M22.9,5.7h0.7V5h-0.7V5.7z M22.9,2.8h-0.7v0.7h0.7V2.8z M21.4,1.3h0.7V0.5h-0.7V1.3z M21.4,4.3h0.7
	V3.5h-0.7V4.3z M21.4,2.8h0.7V2h-0.7V2.8z M25.8,5.7h0.7V5h-0.7V5.7z M23.6,1.3V0.9l-0.3-0.3h-0.4v0.7C22.9,1.3,23.6,1.3,23.6,1.3z
	 M22.9,4.3h0.7V3.5h-0.7V4.3z M24.3,2V1.6L24,1.3h-0.4V2C23.6,2,24.3,2,24.3,2z M22.9,1.3h-0.7V2h0.7V1.3z M25.1,5h0.7V4.3h-0.7V5z
	 M22.1,5h0.7V4.3h-0.7V5z M23.6,5h0.7V4.3h-0.7V5z M24.3,4.3h0.7V3.5h-0.7V4.3z M27.7,5h-0.4v0.7H28V5.3L27.7,5z M25.8,3.5V3.1
	l-0.3-0.3h-0.4v0.7C25.1,3.5,25.8,3.5,25.8,3.5z M27,4.3h-0.4V5h0.7V4.6L27,4.3z M25.1,2.8V2.3L24.8,2h-0.4v0.7
	C24.3,2.8,25.1,2.8,25.1,2.8z"/>
<path fill="#F26522" d="M15.4,2H8.8v0.7h6.7C15.4,2.8,15.4,2,15.4,2z M8.8,5h8.2V4.3H8.8V5z"/>
<path fill="#F26522" d="M8.8,28v0.7H14L13.6,28H8.8z M20.6,21.3h-8.2l0.4,0.7h7.8V21.3z M16.7,28.7h9.9V28H16.2L16.7,28.7z
	 M9.7,21.3H8.8V22h1.4L9.7,21.3z M8.8,19.7v0.2h0.1L8.8,19.7z M11.5,19.8h15v-0.7H11.1L11.5,19.8z M9.2,13.1h17.3v-0.7H8.9L9.2,13.1
	z M9.6,15.4h17v-0.7H9.2L9.6,15.4z M10.8,17.4c0,0.1,0,0.1,0,0.2h15.7v-0.7H10.4L10.8,17.4z M8.8,10.9h17.8v-0.7H8.8V10.9z"/>
<polygon fill="#F26522" points="26.6,24.8 26,24.3 25.1,25.2 24.1,24.3 23.6,24.8 24.6,25.7 23.6,26.7 24.1,27.2 25.1,26.3 26,27.2 
	26.6,26.7 25.6,25.7 "/>
<path fill="#F26522" d="M30.8,6l-9.6-9.6c-0.1-0.1-0.3-0.2-0.5-0.2H7.3c-1.6,0-3,1.3-3,3v7.1L4,5.6c0-0.1-0.1-0.1-0.2-0.2
	c-0.1,0-0.2,0-0.3,0L1.2,6.7C1.1,6.8,1,6.9,1,7c0,0.1,0,0.2,0,0.3L4.3,13v18c0,1.6,1.3,3,3,3H17l0.3,0.5c0,0,0.1,0.1,0.1,0.1l0,0
	l1.6,1.2l0,0c0,0,0.1,0.1,0.1,0.1c0.2,0.1,0.4-0.1,0.5-0.3c0,0,0-0.1,0-0.1h0l0,0c0,0,0,0,0,0l-0.2-1.4H28c1.6,0,3-1.3,3-3V6.5
	C31,6.3,30.9,6.1,30.8,6 M21.4-1.4l7.1,7.1h-7.1V-1.4z M7.3,32.4c-0.8,0-1.5-0.7-1.5-1.5V15.5l2,3.6c0,0.1,0.1,0.1,0.2,0.2
	c0.1,0,0.2,0,0.3,0l0.1-0.1l7.6,13.2L7.3,32.4L7.3,32.4z M29.5,30.9c0,0.8-0.7,1.5-1.5,1.5h-9.3L10.5,18l0.1-0.1l0,0
	c0.1,0,0.1-0.1,0.2-0.2c0-0.1,0-0.2,0-0.3l-5-8.6V8.2l3,5.7l0,0c0,0.1,0.1,0.2,0.2,0.2c0.2,0.1,0.4-0.1,0.5-0.3c0-0.1,0-0.2,0-0.3
	l0,0L5.9,6.9l0,0c0,0-0.1-0.1-0.1-0.1v-7.7c0-0.8,0.7-1.5,1.5-1.5h12.6v8.9c0,0.4,0.3,0.7,0.7,0.7h8.9C29.5,7.2,29.5,30.9,29.5,30.9
	z"/>
<text transform="matrix(1 0 0 1 3.2 29.4396)" display="none" enable-background="new    " font-family="'Arial-BoldMT'" font-size="1.28">Created by Giuditta Valentina Gentile</text>
<text transform="matrix(1 0 0 1 3.2 30.7196)" display="none" enable-background="new    " font-family="'Arial-BoldMT'" font-size="1.28">from the Noun Project</text>
</svg>
