<svg id="Layer_1" data-name="Layer 1" xmlns="http://www.w3.org/2000/svg" width="569.96" height="400.96" viewBox="0 0 569.96 400.96"><title>contract</title><path d="M216.7,418s-39.95-21.9-50.87-29.55c-7.89-5.53-5.43-10.26-.59-26s15.42-44.59,15.42-44.59l-7-1.13A78.62,78.62,0,0,1,178.37,304c-32.26,3.22-64.45,27.35-66.72,30.23-2.42,3.07-20.3,69.4-22.73,78.05S89,426,103.85,435,148,457.52,148,457.52l61.24-34.61,7.47,4.34Z" transform="translate(-3.04 -87.45)" style="fill:#eadce1"/><path d="M148,457.52s-40.74-23-51.4-29.71c-8.16-5.12-4.9-10.82,0-26.58S112,356.65,112,356.65l-9.74-1.57s-11.34,34.78-15.38,48.08-6.79,23.65,5.34,31.3c16.48,10.4,55.82,32.36,55.82,32.36Z" transform="translate(-3.04 -87.45)" style="fill:#9b8790"/><polygon points="144.95 370.07 144.95 379.37 213.66 339.8 213.66 330.5 144.95 370.07" style="fill:#c1aeb6"/><polygon points="6.09 340.51 18.25 347.54 25.5 336.28 9.45 326.58 6.09 340.51" style="fill:#1b2630"/><polygon points="237.64 0.99 250.52 8.48 227.51 14.34 237.64 0.99" style="fill:#1b2630"/><path d="M3,230.33V417.39a12.09,12.09,0,0,0,18.14,10.47L238.51,302.39a17.3,17.3,0,0,0,8.65-15v-189a11,11,0,0,0-16.51-9.53l-219,126.42A17.27,17.27,0,0,0,3,230.33Z" transform="translate(-3.04 -87.45)" style="fill:#1b2630"/><path d="M15.19,237.45V424.51A12.1,12.1,0,0,0,33.33,435L250.66,309.51a17.28,17.28,0,0,0,8.64-15V105.6a11,11,0,0,0-16.51-9.54l-219,126.42A17.28,17.28,0,0,0,15.19,237.45Z" transform="translate(-3.04 -87.45)" style="fill:#2a3742"/><polygon points="244.87 18.07 49.85 130.79 23.54 145.99 23.54 338.23 244.87 210.3 244.87 18.07" style="fill:#fff"/><polygon points="83.23 135.01 36.4 161.76 36.4 312.02 83.23 285.27 83.23 135.01" style="fill:#eadce1"/><polygon points="97.54 127.31 97.54 277.57 233.59 199.4 233.59 49.14 97.54 127.31" style="fill:#eadce1"/><polygon points="227.39 60.52 103.58 131.66 103.58 139.93 227.39 68.79 227.39 60.52" style="fill:#c1aeb6"/><polygon points="179.9 105.66 179.9 123.44 227.39 96.15 227.39 78.37 179.9 105.66" style="fill:#c1aeb6"/><polygon points="179.9 134.61 179.9 141.89 227.39 114.6 227.39 107.33 179.9 134.61" style="fill:#c1aeb6"/><polygon points="179.9 151.9 179.9 159.17 227.39 131.88 227.39 124.61 179.9 151.9" style="fill:#c1aeb6"/><polygon points="179.9 170.74 179.9 178.02 227.39 150.73 227.39 143.45 179.9 170.74" style="fill:#c1aeb6"/><polygon points="227.39 187.95 103.58 259.09 103.58 267.36 227.39 196.22 227.39 187.95" style="fill:#c1aeb6"/><polygon points="72.09 151.36 47.54 165.39 47.54 181.54 72.09 167.51 72.09 151.36" style="fill:#c1aeb6"/><polygon points="72.09 179.14 47.54 193.17 47.54 209.32 72.09 195.29 72.09 179.14" style="fill:#c1aeb6"/><polygon points="72.09 206.92 47.54 220.95 47.54 237.1 72.09 223.08 72.09 206.92" style="fill:#c1aeb6"/><polygon points="72.09 236.02 47.54 250.05 47.54 266.2 72.09 252.17 72.09 236.02" style="fill:#c1aeb6"/><polygon points="72.09 266.2 47.54 280.23 47.54 296.39 72.09 282.36 72.09 266.2" style="fill:#c1aeb6"/><path d="M359.34,418s40-21.9,50.87-29.55c7.89-5.53,5.43-10.26.59-26s-15.42-44.59-15.42-44.59l7-1.13A77.69,77.69,0,0,0,397.67,304c32.26,3.22,64.45,27.35,66.72,30.23,2.42,3.07,20.3,69.4,22.73,78.05s0,13.78-14.93,22.71-44.14,22.55-44.14,22.55l-61.24-34.61-7.47,4.34Z" transform="translate(-3.04 -87.45)" style="fill:#efeaec"/><path d="M428.05,457.52s40.74-23,51.4-29.71c8.16-5.12,4.9-10.82.06-26.58s-15.42-44.58-15.42-44.58l9.74-1.57s11.34,34.78,15.38,48.08,6.79,23.65-5.33,31.3c-16.49,10.4-55.83,32.36-55.83,32.36Z" transform="translate(-3.04 -87.45)" style="fill:#c1aeb6"/><polygon points="425.01 370.07 425.01 379.37 356.3 339.8 356.3 330.5 425.01 370.07" style="fill:#eadce1"/><polygon points="563.87 340.51 551.71 347.54 544.46 336.28 560.51 326.58 563.87 340.51" style="fill:#c1aeb6"/><polygon points="332.32 0.99 319.44 8.48 342.45 14.34 332.32 0.99" style="fill:#c1aeb6"/><path d="M573,230.33V417.39a12.09,12.09,0,0,1-18.14,10.47L337.53,302.39a17.3,17.3,0,0,1-8.65-15v-189a11,11,0,0,1,16.51-9.53l219,126.42A17.29,17.29,0,0,1,573,230.33Z" transform="translate(-3.04 -87.45)" style="fill:#c1aeb6"/><path d="M560.85,237.45V424.51A12.1,12.1,0,0,1,542.71,435L325.38,309.51a17.28,17.28,0,0,1-8.64-15V105.6a11,11,0,0,1,16.51-9.54l219,126.42A17.28,17.28,0,0,1,560.85,237.45Z" transform="translate(-3.04 -87.45)" style="fill:#eadce1"/><polygon points="325.09 18.07 520.11 130.79 546.42 145.99 546.42 338.23 325.09 210.3 325.09 18.07" style="fill:#fff"/><polygon points="473.18 126.99 335.37 48.54 335.37 198.8 473.18 277.25 473.18 126.99" style="fill:#eadce1"/><polygon points="484.88 131.85 484.88 282.11 533.56 312.02 533.56 161.76 484.88 131.85" style="fill:#eadce1"/><polygon points="497.29 150.28 521.85 164.31 521.85 180.47 497.29 166.44 497.29 150.28" style="fill:#c1aeb6"/><polygon points="497.29 178.06 521.85 192.09 521.85 208.25 497.29 194.22 497.29 178.06" style="fill:#c1aeb6"/><polygon points="497.29 205.84 521.85 219.87 521.85 236.03 497.29 222 497.29 205.84" style="fill:#c1aeb6"/><polygon points="497.29 234.94 521.85 248.97 521.85 265.13 497.29 251.1 497.29 234.94" style="fill:#c1aeb6"/><polygon points="497.29 265.13 521.85 279.15 521.85 295.31 497.29 281.28 497.29 265.13" style="fill:#c1aeb6"/><polygon points="342.45 59.94 466.26 131.08 466.26 139.35 342.45 68.21 342.45 59.94" style="fill:#c1aeb6"/><polygon points="389.94 105.07 389.94 122.85 342.45 95.56 342.45 77.78 389.94 105.07" style="fill:#c1aeb6"/><polygon points="389.94 134.03 389.94 141.31 342.45 114.02 342.45 106.74 389.94 134.03" style="fill:#c1aeb6"/><polygon points="389.94 152.87 389.94 160.15 342.45 132.86 342.45 125.58 389.94 152.87" style="fill:#c1aeb6"/><polygon points="389.94 170.15 389.94 177.43 342.45 150.14 342.45 142.87 389.94 170.15" style="fill:#c1aeb6"/><polygon points="342.45 187.37 466.26 258.5 466.26 266.77 342.45 195.63 342.45 187.37" style="fill:#c1aeb6"/><path d="M278.15,337.44c4.68,7.47,13.81.93,13-3.34,6,5,13.43,4.27,13.15-7.33,5,2.68,11.64,2,13.38,0,13.71-15.39-15.47-44-32.78-69.56,17.06-3.51,33.07-5.43,32.78-16.38-18.29.92-34.37-4.78-43.76-3.38-10.67,1.59-34.91,4.59-46.53,3.92S175.31,231,160.05,223.65c-3.86-2.79-9.13-2.85-14.94.51-11.83,6.83-21.42,25.15-21.42,40.92a30.58,30.58,0,0,0,.93,7.65c15.48,5.47,42.52,6.84,55.92,10.71,16.21,4.68,24.28,14.95,24.28,14.95C220,310.81,276.41,355.08,278.15,337.44Z" transform="translate(-3.04 -87.45)" style="fill:#ffc5b3"/><path d="M180.54,283.44c-13.4-3.87-40.44-5.24-55.92-10.71,1.45,5.6,4.51,9.32,8.6,10.6l0,0c22.17,8.45,56.07,2.35,71.57,15C204.82,298.39,196.75,288.12,180.54,283.44Z" transform="translate(-3.04 -87.45)" style="fill:#ffa08d"/><path d="M259.3,333.56c-21.26-.22-12.58-36.89,8.49-68-6.69,4.12-18.73,8.38-27.36.77,9.3-11.61,14.41-14.19,30.68-23,9.47-5.15,49.94,11.06,61.56,10.39s52.12-10.34,67.38-17.72c3.86-2.79,9.13-2.85,14.94.51,11.83,6.83,21.42,25.15,21.42,40.92a30.58,30.58,0,0,1-.93,7.65c-15.48,5.47-42.52,6.84-55.92,10.71-16.21,4.68-45.12,17.66-45.12,17.66C319.27,325.8,263.32,348.23,259.3,333.56Z" transform="translate(-3.04 -87.45)" style="fill:#ffc5b3"/><path d="M371.9,296.33c13.4-3.87,48.1-5.85,63.58-11.32-1.45,5.6-4.51,9.32-8.6,10.6l0,0c-22.17,8.45-64.78,6.2-92.41,17.75C334.44,313.38,355.69,301,371.9,296.33Z" transform="translate(-3.04 -87.45)" style="fill:#ffa08d"/><path d="M289.71,258.48s-1.83,5.94,4.19,12.75c8.71,9.87,16.28,28.61,19.8,36.48,6,13.42,4,19.06,4,19.06a7.83,7.83,0,0,0,5-6.36c.69-7-4.57-21.19-10.7-30.43C302.5,275.6,289.71,258.48,289.71,258.48Z" transform="translate(-3.04 -87.45)" style="fill:#ffa08d"/><path d="M303.67,316.4a42.21,42.21,0,0,1,.67,10.37,29.48,29.48,0,0,1-1.73,7.84s7.14-1.77,4.91-8.75S303.67,316.4,303.67,316.4Z" transform="translate(-3.04 -87.45)" style="fill:#ffa08d"/><path d="M289.62,320.92a42.1,42.1,0,0,1,.67,10.36,29.76,29.76,0,0,1-1.72,7.85s7.13-1.78,4.9-8.75S289.62,320.92,289.62,320.92Z" transform="translate(-3.04 -87.45)" style="fill:#ffa08d"/><path d="M276.54,323.32a42.21,42.21,0,0,1,.67,10.37,19.18,19.18,0,0,1-2.24,7.67s7.65-1.6,5.42-8.58S276.54,323.32,276.54,323.32Z" transform="translate(-3.04 -87.45)" style="fill:#ffa08d"/><path d="M289.71,258.48s-8.14,1.27-14.74,0l-13.11-2.56s-7.37,9.65-11,11.81-10.39,0-10.39,0,3.62,4.54,10.9,3.27c5-.87,12.29-6.66,12.29-6.66s7.27,3.39,12.79,3.39,17.49,3.5,17.49,3.5Z" transform="translate(-3.04 -87.45)" style="fill:#ffa08d"/><path d="M312.22,249.73s3.54-2,4.52-4.51c-7.47,0-13.61-1.28-20-2.43-7-1.25-25-4.15-29.58-1.74-10.92,5.74-15.08,9.28-15.08,9.28s15.08-6.67,22.89-7.78C278.66,242,312.22,249.73,312.22,249.73Z" transform="translate(-3.04 -87.45)" style="fill:#ffa08d"/><path d="M248.82,257.21c-.91.82-6.15,6.37-6.15,6.37s4.14-.11,6.15-1.61a15.1,15.1,0,0,0,3.26-3.49Z" transform="translate(-3.04 -87.45)" style="fill:#ffa08d"/><path d="M217.71,299.29s6.67-.63,8,.6c2.24,2.07,1.88,9.46,1.88,9.46s7.94-3.94,11.42-.59,2.11,10.13,2.11,10.13,6.19-4.92,8.82-2.71c3.22,2.71,3.84,4.24,4.65,10.59,0,0,3.47-8.91,0-13.42-4.94-6.48-11-3.45-11-3.45s-2.47-12.54-11.76-7.61c-.71-4-.27-7.82-5.9-8.41C213.86,292.62,217.71,299.29,217.71,299.29Z" transform="translate(-3.04 -87.45)" style="fill:#ffa08d"/><path d="M217.07,301.83s-3.84,5.26-3.12,11.28,9.6,5.78,9.6,5.78-.48,8.07,3.84,10.15,10.66,0,10.66,0a7.06,7.06,0,0,0,2.68,6.65c3.47,2.65,9.55,4.39,11.15,0a49.42,49.42,0,0,1,2.88-6.65Z" transform="translate(-3.04 -87.45)" style="fill:#ffc5b3"/><path d="M320,323.32s19.56-12.69,29.8-14.78,16.85-3.15,16.85-3.15l5.27-9.06s-31.28,7.14-40.81,11-14.21,9-14.21,9Z" transform="translate(-3.04 -87.45)" style="fill:#ffa08d"/><path d="M217.71,307.71s-4.34,5.91-7.69,2.62-5.35-16.22-1.34-16.45,6.48.56,9,5.41A8.19,8.19,0,0,1,217.71,307.71Z" transform="translate(-3.04 -87.45)" style="fill:#ffc5b3"/><path d="M206.46,293.88a6.18,6.18,0,0,1,6.19.35,20.79,20.79,0,0,1,5.06,5.06s4.77-8-2.34-9.56C210.27,288.59,206.46,293.88,206.46,293.88Z" transform="translate(-3.04 -87.45)" style="fill:#ffa08d"/><path d="M272.67,427.74v7.72h0a11.46,11.46,0,0,0,2.58,6.77V427.74Z" transform="translate(-3.04 -87.45)" style="fill:#eaad00"/><path d="M277.27,427.74v16.62a24.61,24.61,0,0,0,4,2.95V429.46h2V448.4a37.58,37.58,0,0,0,4.45,1.84v-18h2v18.66a49.52,49.52,0,0,0,5.17,1.18V435.54h2v16.81c1.68.21,3.41.35,5.17.4V435.54h2V452.8c1.83,0,3.61-.11,5.34-.28v-17h2v16.73a50.53,50.53,0,0,0,5-.95v-19.1h2v18.56a41.48,41.48,0,0,0,4.45-1.62v-19.7h2v18.75a27.76,27.76,0,0,0,4-2.49v-18Z" transform="translate(-3.04 -87.45)" style="fill:#eaad00"/><path d="M331,427.74V444a12.46,12.46,0,0,0,4.21-8.56h0v-7.72Z" transform="translate(-3.04 -87.45)" style="fill:#eaad00"/><path d="M275.27,427.74v14.49a18,18,0,0,0,2,2.13V427.74Z" transform="translate(-3.04 -87.45)" style="fill:#fdca01"/><path d="M281.28,429.46v17.85c.64.38,1.31.74,2,1.09V429.46Z" transform="translate(-3.04 -87.45)" style="fill:#fdca01"/><path d="M287.74,432.22v18c.66.23,1.32.44,2,.64V432.22Z" transform="translate(-3.04 -87.45)" style="fill:#fdca01"/><path d="M294.92,435.54v16.52c.66.11,1.33.2,2,.29V435.54Z" transform="translate(-3.04 -87.45)" style="fill:#fdca01"/><path d="M302.1,435.54v17.21c.61,0,1.21.06,1.83.06h.18V435.54Z" transform="translate(-3.04 -87.45)" style="fill:#fdca01"/><path d="M328.94,427.74v18a20,20,0,0,0,2-1.7V427.74Z" transform="translate(-3.04 -87.45)" style="fill:#fdca01"/><path d="M322.93,429.46v19.7c.69-.3,1.36-.62,2-1V429.46Z" transform="translate(-3.04 -87.45)" style="fill:#fdca01"/><path d="M316.47,432.22v19.1q1-.26,2-.54V432.22Z" transform="translate(-3.04 -87.45)" style="fill:#fdca01"/><path d="M309.45,435.54v17c.68-.07,1.35-.16,2-.25V435.54Z" transform="translate(-3.04 -87.45)" style="fill:#fdca01"/><path d="M303.92,410c-17.26,0-31.25,7.88-31.25,17.6s14,17.59,31.25,17.59,31.27-7.88,31.27-17.59S321.19,410,303.92,410Z" transform="translate(-3.04 -87.45)" style="fill:#fdca01"/><path d="M303.93,413.63c-13.73,0-24.85,6.26-24.85,14s11.12,14,24.85,14,24.85-6.26,24.85-14S317.65,413.63,303.93,413.63Z" transform="translate(-3.04 -87.45)" style="fill:#ffd450"/><path d="M292,433a7.58,7.58,0,0,1-3.25-3.44l5.32-3.07,2.89,1.39L294.86,429c-.64.37-.8.56-.57,1a3.49,3.49,0,0,0,1.14,1l6.67-3.85c-1.57-1.93-2.4-4,1.74-6.41a13.11,13.11,0,0,1,11.17-1l3.28-1.9,2,1.16-3.21,1.86a7.06,7.06,0,0,1,2.8,3.17l-5,2.9L312,425.47l1.93-1.12c.64-.36.81-.56.57-1a3.89,3.89,0,0,0-.74-.71l-6.28,3.63h0c1.39,1.92,2.46,4.14-1.85,6.63a13.59,13.59,0,0,1-11.59,1.09l-3.67,2.13-2-1.16Zm11.28-4.2L297.68,432a6,6,0,0,0,4.49-.83C303.52,430.37,303.66,429.58,303.25,428.76Zm3.17-4.14,5.13-3a5.54,5.54,0,0,0-4,.73C306.23,423.11,306.09,423.82,306.42,424.62Z" transform="translate(-3.04 -87.45)" style="fill:#fff"/><path d="M272.67,416.7v7.73h0a11.48,11.48,0,0,0,2.58,6.77V416.7Z" transform="translate(-3.04 -87.45)" style="fill:#eaad00"/><path d="M277.27,416.7v16.63a24.61,24.61,0,0,0,4,2.95V418.43h2v18.94a37.58,37.58,0,0,0,4.45,1.84v-18h2v18.66a49.52,49.52,0,0,0,5.17,1.18V424.51h2v16.81c1.68.21,3.41.35,5.17.4V424.51h2v17.26c1.83,0,3.61-.11,5.34-.28v-17h2v16.73a50.53,50.53,0,0,0,5-.95v-19.1h2v18.56a41.48,41.48,0,0,0,4.45-1.62v-19.7h2v18.75a27.76,27.76,0,0,0,4-2.49v-18Z" transform="translate(-3.04 -87.45)" style="fill:#eaad00"/><path d="M331,416.7V433a12.46,12.46,0,0,0,4.21-8.56h0V416.7Z" transform="translate(-3.04 -87.45)" style="fill:#eaad00"/><path d="M275.27,416.7v14.5a18,18,0,0,0,2,2.13V416.7Z" transform="translate(-3.04 -87.45)" style="fill:#fdca01"/><path d="M281.28,418.43v17.85c.64.38,1.31.74,2,1.09V418.43Z" transform="translate(-3.04 -87.45)" style="fill:#fdca01"/><path d="M287.74,421.19v18c.66.22,1.32.44,2,.64V421.19Z" transform="translate(-3.04 -87.45)" style="fill:#fdca01"/><path d="M294.92,424.51V441c.66.11,1.33.2,2,.29V424.51Z" transform="translate(-3.04 -87.45)" style="fill:#fdca01"/><path d="M302.1,424.51v17.21c.61,0,1.21.06,1.83.06h.18V424.51Z" transform="translate(-3.04 -87.45)" style="fill:#fdca01"/><path d="M328.94,416.7v18a21.4,21.4,0,0,0,2-1.7V416.7Z" transform="translate(-3.04 -87.45)" style="fill:#fdca01"/><path d="M322.93,418.43v19.7c.69-.3,1.36-.62,2-.95V418.43Z" transform="translate(-3.04 -87.45)" style="fill:#fdca01"/><path d="M316.47,421.19v19.1q1-.26,2-.54V421.19Z" transform="translate(-3.04 -87.45)" style="fill:#fdca01"/><path d="M309.45,424.51v17c.68-.07,1.35-.16,2-.25V424.51Z" transform="translate(-3.04 -87.45)" style="fill:#fdca01"/><path d="M303.92,399c-17.26,0-31.25,7.88-31.25,17.6s14,17.59,31.25,17.59,31.27-7.88,31.27-17.59S321.19,399,303.92,399Z" transform="translate(-3.04 -87.45)" style="fill:#fdca01"/><path d="M303.93,402.6c-13.73,0-24.85,6.26-24.85,14s11.12,14,24.85,14,24.85-6.26,24.85-14S317.65,402.6,303.93,402.6Z" transform="translate(-3.04 -87.45)" style="fill:#ffd450"/><path d="M292,421.93a7.55,7.55,0,0,1-3.26-3.44l5.32-3.07,2.89,1.39L294.87,418c-.64.37-.82.56-.57.95a3.33,3.33,0,0,0,1.13,1l6.67-3.85c-1.57-1.93-2.4-4,1.74-6.41a13.11,13.11,0,0,1,11.17-1l3.28-1.89,2,1.15-3.21,1.85a7.1,7.1,0,0,1,2.79,3.18l-5,2.91L312,414.44l1.93-1.11c.64-.38.8-.57.56-.95a3.39,3.39,0,0,0-.74-.72l-6.27,3.62,0,0c1.4,1.92,2.47,4.14-1.84,6.63a13.64,13.64,0,0,1-11.59,1.1l-3.67,2.12-2-1.16Zm11.27-4.19L297.69,421a6.06,6.06,0,0,0,4.49-.83C303.53,419.34,303.66,418.55,303.25,417.74Zm3.17-4.15,5.14-3a5.55,5.55,0,0,0-4,.71C306.24,412.09,306.09,412.79,306.42,413.59Z" transform="translate(-3.04 -87.45)" style="fill:#fff"/><path d="M272.67,405.45v7.73h0a11.46,11.46,0,0,0,2.58,6.76V405.45Z" transform="translate(-3.04 -87.45)" style="fill:#eaad00"/><path d="M277.27,405.45v16.62a24,24,0,0,0,4,2.95V407.17h2v18.94a36,36,0,0,0,4.45,1.84v-18h2v18.65a44.91,44.91,0,0,0,5.17,1.18V413.25h2v16.81c1.68.22,3.41.35,5.17.41V413.25h2v17.26c1.83,0,3.61-.11,5.34-.28v-17h2V430a47.8,47.8,0,0,0,5-1V409.94h2v18.55a37.57,37.57,0,0,0,4.45-1.62v-19.7h2v18.75a26.91,26.91,0,0,0,4-2.49v-18Z" transform="translate(-3.04 -87.45)" style="fill:#eaad00"/><path d="M331,405.45v16.28a12.44,12.44,0,0,0,4.21-8.55h0v-7.73Z" transform="translate(-3.04 -87.45)" style="fill:#eaad00"/><path d="M275.27,405.45v14.49a17.27,17.27,0,0,0,2,2.13V405.45Z" transform="translate(-3.04 -87.45)" style="fill:#fdca01"/><path d="M281.28,407.17V425c.64.38,1.31.74,2,1.09V407.17Z" transform="translate(-3.04 -87.45)" style="fill:#fdca01"/><path d="M287.74,409.94v18c.66.23,1.32.45,2,.64V409.94Z" transform="translate(-3.04 -87.45)" style="fill:#fdca01"/><path d="M294.92,413.25v16.52c.66.11,1.33.2,2,.29V413.25Z" transform="translate(-3.04 -87.45)" style="fill:#fdca01"/><path d="M302.1,413.25v17.22c.61,0,1.21,0,1.83,0h.18V413.25Z" transform="translate(-3.04 -87.45)" style="fill:#fdca01"/><path d="M328.94,405.45v18a20,20,0,0,0,2-1.7V405.45Z" transform="translate(-3.04 -87.45)" style="fill:#fdca01"/><path d="M322.93,407.17v19.7c.69-.3,1.36-.62,2-.95V407.17Z" transform="translate(-3.04 -87.45)" style="fill:#fdca01"/><path d="M316.47,409.94V429c.68-.17,1.35-.34,2-.54V409.94Z" transform="translate(-3.04 -87.45)" style="fill:#fdca01"/><path d="M309.45,413.25v17c.68-.07,1.35-.15,2-.25V413.25Z" transform="translate(-3.04 -87.45)" style="fill:#fdca01"/><path d="M303.92,387.74c-17.26,0-31.25,7.88-31.25,17.59s14,17.6,31.25,17.6,31.27-7.88,31.27-17.6S321.19,387.74,303.92,387.74Z" transform="translate(-3.04 -87.45)" style="fill:#fdca01"/><path d="M303.93,391.35c-13.73,0-24.85,6.26-24.85,14s11.12,14,24.85,14,24.85-6.26,24.85-14S317.65,391.35,303.93,391.35Z" transform="translate(-3.04 -87.45)" style="fill:#ffd450"/><path d="M292,410.67a7.55,7.55,0,0,1-3.26-3.44l5.32-3.06,2.9,1.38-2.07,1.19c-.64.38-.81.57-.57.95a3.34,3.34,0,0,0,1.13,1l6.67-3.85c-1.57-1.94-2.4-4,1.74-6.41A13.15,13.15,0,0,1,315,397.37l3.28-1.89,2,1.16-3.21,1.85a7.1,7.1,0,0,1,2.79,3.18l-5,2.9L312,403.18l1.93-1.11c.64-.37.8-.56.56-.95a3.37,3.37,0,0,0-.74-.71L307.5,404h0c1.4,1.92,2.47,4.14-1.84,6.63a13.6,13.6,0,0,1-11.59,1.1l-3.67,2.12-2-1.16Zm11.27-4.19-5.56,3.21a6.1,6.1,0,0,0,4.49-.82C303.53,408.08,303.66,407.29,303.25,406.48Zm3.17-4.14,5.14-3a5.55,5.55,0,0,0-4,.72C306.24,400.83,306.1,401.53,306.42,402.34Z" transform="translate(-3.04 -87.45)" style="fill:#fff"/><path d="M214.18,454.64v7.73h0a11.46,11.46,0,0,0,2.58,6.76V454.64Z" transform="translate(-3.04 -87.45)" style="fill:#eaad00"/><path d="M218.78,454.64v16.62a24.61,24.61,0,0,0,4,2.95V456.36h2V475.3a37.58,37.58,0,0,0,4.45,1.84v-18h2v18.66a49.52,49.52,0,0,0,5.17,1.18V462.44h2v16.81c1.68.21,3.41.35,5.18.41V462.44h2V479.7c1.83,0,3.61-.11,5.34-.28v-17h2v16.73a47.8,47.8,0,0,0,5-.95v-19.1h2v18.56a41.48,41.48,0,0,0,4.45-1.62v-19.7h2v18.75a27.76,27.76,0,0,0,4-2.49v-18Z" transform="translate(-3.04 -87.45)" style="fill:#eaad00"/><path d="M272.46,454.64v16.28a12.46,12.46,0,0,0,4.21-8.55h0v-7.73Z" transform="translate(-3.04 -87.45)" style="fill:#eaad00"/><path d="M216.78,454.64v14.49a18,18,0,0,0,2,2.13V454.64Z" transform="translate(-3.04 -87.45)" style="fill:#fdca01"/><path d="M222.79,456.36v17.85c.64.38,1.31.74,2,1.09V456.36Z" transform="translate(-3.04 -87.45)" style="fill:#fdca01"/><path d="M229.25,459.12v18c.66.23,1.32.44,2,.64V459.12Z" transform="translate(-3.04 -87.45)" style="fill:#fdca01"/><path d="M236.43,462.44V479c.66.11,1.33.2,2,.29V462.44Z" transform="translate(-3.04 -87.45)" style="fill:#fdca01"/><path d="M243.62,462.44v17.22c.6,0,1.2,0,1.82,0h.18V462.44Z" transform="translate(-3.04 -87.45)" style="fill:#fdca01"/><path d="M270.45,454.64v18a20,20,0,0,0,2-1.7V454.64Z" transform="translate(-3.04 -87.45)" style="fill:#fdca01"/><path d="M264.44,456.36v19.7c.69-.3,1.36-.62,2-.95V456.36Z" transform="translate(-3.04 -87.45)" style="fill:#fdca01"/><path d="M258,459.12v19.1q1-.25,2-.54V459.12Z" transform="translate(-3.04 -87.45)" style="fill:#fdca01"/><path d="M251,462.44v17c.68-.07,1.35-.16,2-.25V462.44Z" transform="translate(-3.04 -87.45)" style="fill:#fdca01"/><path d="M245.44,436.93c-17.27,0-31.26,7.87-31.26,17.59s14,17.59,31.26,17.59,31.26-7.87,31.26-17.59S262.7,436.93,245.44,436.93Z" transform="translate(-3.04 -87.45)" style="fill:#fdca01"/><path d="M245.44,440.53c-13.73,0-24.85,6.27-24.85,14s11.12,14,24.85,14,24.85-6.27,24.85-14S259.16,440.53,245.44,440.53Z" transform="translate(-3.04 -87.45)" style="fill:#ffd450"/><path d="M233.49,459.86a7.47,7.47,0,0,1-3.25-3.44l5.31-3.06,2.9,1.38-2.07,1.19c-.64.37-.81.56-.57.95a3.24,3.24,0,0,0,1.13,1l6.67-3.86c-1.57-1.93-2.4-4,1.74-6.41a13.15,13.15,0,0,1,11.17-1l3.28-1.89,2,1.15-3.21,1.86a7.14,7.14,0,0,1,2.79,3.17l-5,2.91-2.84-1.39,1.93-1.11c.64-.37.81-.56.56-.95a3.39,3.39,0,0,0-.74-.72L249,453.22h0c1.4,1.92,2.47,4.14-1.85,6.63A13.57,13.57,0,0,1,235.6,461l-3.67,2.12-2-1.16Zm11.28-4.19-5.57,3.21a6.06,6.06,0,0,0,4.49-.83C245.05,457.27,245.17,456.48,244.77,455.67Zm3.16-4.15,5.14-3a5.51,5.51,0,0,0-4,.72C247.75,450,247.61,450.72,247.93,451.52Z" transform="translate(-3.04 -87.45)" style="fill:#fff"/><path d="M297.68,463.34v7.73h0a11.51,11.51,0,0,0,2.57,6.76V463.34Z" transform="translate(-3.04 -87.45)" style="fill:#eaad00"/><path d="M302.29,463.34V480a23.77,23.77,0,0,0,4,3V465.06h2V484a36.9,36.9,0,0,0,4.45,1.84v-18h2v18.66a49.72,49.72,0,0,0,5.18,1.18V471.14h2V488c1.67.21,3.4.35,5.17.41V471.14h2V488.4c1.82,0,3.6-.11,5.34-.28v-17h2v16.73a48.3,48.3,0,0,0,5-.95v-19.1h2v18.56a40.89,40.89,0,0,0,4.46-1.62v-19.7h2v18.75a27.34,27.34,0,0,0,4-2.49v-18Z" transform="translate(-3.04 -87.45)" style="fill:#eaad00"/><path d="M356,463.34v16.28a12.46,12.46,0,0,0,4.21-8.55h0v-7.73Z" transform="translate(-3.04 -87.45)" style="fill:#eaad00"/><path d="M300.28,463.34v14.49a19,19,0,0,0,2,2.13V463.34Z" transform="translate(-3.04 -87.45)" style="fill:#fdca01"/><path d="M306.3,465.06v17.85c.64.38,1.31.74,2,1.09V465.06Z" transform="translate(-3.04 -87.45)" style="fill:#fdca01"/><path d="M312.76,467.82v18c.65.23,1.32.44,2,.64V467.82Z" transform="translate(-3.04 -87.45)" style="fill:#fdca01"/><path d="M319.94,471.14v16.52c.66.11,1.33.2,2,.29V471.14Z" transform="translate(-3.04 -87.45)" style="fill:#fdca01"/><path d="M327.12,471.14v17.22c.61,0,1.21.05,1.82.05h.19V471.14Z" transform="translate(-3.04 -87.45)" style="fill:#fdca01"/><path d="M354,463.34v18a21.17,21.17,0,0,0,2-1.7V463.34Z" transform="translate(-3.04 -87.45)" style="fill:#fdca01"/><path d="M348,465.06v19.7c.69-.3,1.36-.62,2-.95V465.06Z" transform="translate(-3.04 -87.45)" style="fill:#fdca01"/><path d="M341.49,467.82v19.1c.68-.17,1.35-.35,2-.54V467.82Z" transform="translate(-3.04 -87.45)" style="fill:#fdca01"/><path d="M334.47,471.14v17c.68-.07,1.34-.16,2-.25V471.14Z" transform="translate(-3.04 -87.45)" style="fill:#fdca01"/><path d="M328.94,445.63c-17.26,0-31.26,7.87-31.26,17.59s14,17.59,31.26,17.59,31.26-7.87,31.26-17.59S346.21,445.63,328.94,445.63Z" transform="translate(-3.04 -87.45)" style="fill:#fdca01"/><path d="M328.94,449.23c-13.72,0-24.85,6.27-24.85,14s11.13,14,24.85,14,24.85-6.26,24.85-14S342.67,449.23,328.94,449.23Z" transform="translate(-3.04 -87.45)" style="fill:#ffd450"/><path d="M317,468.56a7.42,7.42,0,0,1-3.25-3.44l5.31-3.06,2.9,1.38-2.07,1.19c-.64.38-.82.56-.57.95a3.24,3.24,0,0,0,1.13,1l6.67-3.85c-1.57-1.94-2.4-4,1.74-6.42a13.15,13.15,0,0,1,11.17-1l3.28-1.89,2,1.15-3.21,1.86a7.14,7.14,0,0,1,2.79,3.17l-5,2.91L337,461.07,339,460c.64-.37.8-.56.56-.95a3.64,3.64,0,0,0-.74-.72l-6.27,3.63h0c1.4,1.92,2.47,4.15-1.85,6.63a13.58,13.58,0,0,1-11.58,1.1l-3.68,2.12-2-1.16Zm11.27-4.19-5.56,3.21a6.06,6.06,0,0,0,4.49-.83C328.55,466,328.68,465.18,328.27,464.37Zm3.17-4.15,5.13-3a5.54,5.54,0,0,0-4,.72C331.26,458.72,331.11,459.42,331.44,460.22Z" transform="translate(-3.04 -87.45)" style="fill:#fff"/></svg>