<svg id="Layer_1" data-name="Layer 1" xmlns="http://www.w3.org/2000/svg" xmlns:xlink="http://www.w3.org/1999/xlink" width="420.18" height="418.7" viewBox="0 0 420.18 418.7"><defs><linearGradient id="linear-gradient" x1="240.17" y1="447" x2="250.17" y2="-5" gradientTransform="matrix(1, 0, 0, -1, 0, 449)" gradientUnits="userSpaceOnUse"><stop offset="0" stop-color="#ff512f"/><stop offset="1" stop-color="#f09819"/></linearGradient><linearGradient id="linear-gradient-2" x1="268.67" y1="447.63" x2="278.67" y2="-4.37" gradientTransform="matrix(1, 0, 0, -1, -35.8, 435)" xlink:href="#linear-gradient"/><linearGradient id="linear-gradient-3" x1="254.06" y1="447.31" x2="264.06" y2="-4.69" gradientTransform="matrix(1, 0, 0, -1, -35.8, 435)" xlink:href="#linear-gradient"/><linearGradient id="linear-gradient-4" x1="172.21" y1="445.5" x2="182.21" y2="-6.5" gradientTransform="matrix(1, 0, 0, -1, -35.8, 435)" xlink:href="#linear-gradient"/><linearGradient id="linear-gradient-5" x1="171.59" y1="445.48" x2="181.59" y2="-6.52" gradientTransform="matrix(1, 0, 0, -1, -35.8, 435)" xlink:href="#linear-gradient"/><linearGradient id="linear-gradient-6" x1="170.97" y1="445.47" x2="180.97" y2="-6.53" gradientTransform="matrix(1, 0, 0, -1, -35.8, 435)" xlink:href="#linear-gradient"/><linearGradient id="linear-gradient-7" x1="107.38" y1="444.06" x2="117.38" y2="-7.94" gradientTransform="matrix(1, 0, 0, -1, -35.8, 435)" xlink:href="#linear-gradient"/><linearGradient id="linear-gradient-8" x1="227.78" y1="446.73" x2="237.78" y2="-5.27" gradientTransform="matrix(1, 0, 0, -1, -35.8, 435)" xlink:href="#linear-gradient"/><linearGradient id="linear-gradient-9" x1="226.02" y1="446.69" x2="236.02" y2="-5.31" xlink:href="#linear-gradient"/></defs><title>contract</title><path d="M450,88.4,316.6,70.2V42.1a7,7,0,0,0-7-7H113.3A33.9,33.9,0,0,0,82.6,14,33.69,33.69,0,0,0,51.9,35.1H42.8a7,7,0,0,0-7,7V425.7a7,7,0,0,0,7,7H309.5a7,7,0,0,0,7-7V415l87.2,11.9a3.08,3.08,0,0,0,1,.1,6.92,6.92,0,0,0,6.9-6.1L455.9,96.2A6.88,6.88,0,0,0,450,88.4Zm-8.9,12.9L437,131.1l-34.7,31.8-85.8-11.7V84.3ZM82.6,28A18.85,18.85,0,0,1,97,35.1H68.1A19.21,19.21,0,0,1,82.6,28Zm220,390.7H49.9V49.1h52.4c0,.3.1.6.1.9v64.1A12.19,12.19,0,0,1,91,127a12.19,12.19,0,0,1-11.4-12.9V77c0-2.4,1.4-3.9,2.3-3.9s2.3,1.5,2.3,3.9v31.2h14V77A17.24,17.24,0,0,0,81.9,59.1,17.18,17.18,0,0,0,65.6,77v37.1A26.22,26.22,0,0,0,91,141a26.22,26.22,0,0,0,25.4-26.9V50c0-.3-.1-.6-.1-.9H302.5l.1,369.6Zm96.1-6.6-82.1-11.2V165.3l87.1,11.9c.3,0,.6.1.9.1a7.43,7.43,0,0,0,4.7-1.8l24.8-22.6Z" transform="translate(-35.8 -14)" style="fill:url(#linear-gradient)"/><rect x="217.2" y="63" width="35" height="14" style="fill:url(#linear-gradient-2)"/><rect x="189.2" y="91" width="63" height="14" style="fill:url(#linear-gradient-3)"/><rect x="28.2" y="154" width="224" height="14" style="fill:url(#linear-gradient-4)"/><rect x="28.2" y="182" width="224" height="14" style="fill:url(#linear-gradient-5)"/><rect x="28.2" y="210" width="224" height="14" style="fill:url(#linear-gradient-6)"/><rect x="28.2" y="238" width="98" height="14" style="fill:url(#linear-gradient-7)"/><rect x="154.2" y="330" width="91" height="14" style="fill:url(#linear-gradient-8)"/><path d="M208.9,323.9a36.11,36.11,0,0,1-6.2-11.2,11.8,11.8,0,0,1,.8-9.2,5.29,5.29,0,0,1,5.3-2.4,8.41,8.41,0,0,1,3.9,5.9,39.45,39.45,0,0,1,.8,7.7c.1,1.9.2,3.8.4,5.7a18.62,18.62,0,0,0,2.8,8.5,11.72,11.72,0,0,0,9.5,5.2,10.32,10.32,0,0,0,3-.4,12.75,12.75,0,0,0,8.1-8.5,70.79,70.79,0,0,0,2.2-7.5,37.11,37.11,0,0,1,2.9-8.5,22.1,22.1,0,0,1,.4,3.5,37.23,37.23,0,0,0,.8,5.7A14.47,14.47,0,0,0,257,330.5h.3a16.28,16.28,0,0,0,8.4-3.1l12-7.6L270.2,308l-12,7.6-.7.5-.3-.9a22,22,0,0,1-.4-3.6,33,33,0,0,0-1.1-7A13,13,0,0,0,240.6,294a13.17,13.17,0,0,0-8.8,5.9,29.87,29.87,0,0,0-4.6,9.9,40.09,40.09,0,0,0-.9-5.9A21.41,21.41,0,0,0,213.5,288a18.71,18.71,0,0,0-21.6,7.9,24.92,24.92,0,0,0-2.6,20.6,47.9,47.9,0,0,0,8.5,15.9Z" transform="translate(-35.8 -14)" style="fill:url(#linear-gradient-9)"/></svg>