<svg id="Layer_1" data-name="Layer 1" xmlns="http://www.w3.org/2000/svg" xmlns:xlink="http://www.w3.org/1999/xlink" width="392" height="280" viewBox="0 0 392 280"><defs><linearGradient id="linear-gradient" x1="217.53" y1="315.99" x2="220.53" y2="-1.01" gradientTransform="matrix(1, 0, 0, -1, 0, 319)" gradientUnits="userSpaceOnUse"><stop offset="0" stop-color="#ff512f"/><stop offset="1" stop-color="#f09819"/></linearGradient><linearGradient id="linear-gradient-2" x1="379.58" y1="317.52" x2="382.58" y2="0.52" xlink:href="#linear-gradient"/><linearGradient id="linear-gradient-3" x1="351.58" y1="317.25" x2="354.58" y2="0.25" xlink:href="#linear-gradient"/><linearGradient id="linear-gradient-4" x1="323.58" y1="316.99" x2="326.58" y2="-0.01" xlink:href="#linear-gradient"/><linearGradient id="linear-gradient-5" x1="81.64" y1="314.7" x2="84.64" y2="-2.3" xlink:href="#linear-gradient"/><linearGradient id="linear-gradient-6" x1="81.38" y1="314.7" x2="84.38" y2="-2.3" xlink:href="#linear-gradient"/><linearGradient id="linear-gradient-7" x1="81.11" y1="314.7" x2="84.11" y2="-2.3" xlink:href="#linear-gradient"/><linearGradient id="linear-gradient-8" x1="80.85" y1="314.69" x2="83.85" y2="-2.31" xlink:href="#linear-gradient"/><linearGradient id="linear-gradient-9" x1="308.85" y1="316.85" x2="311.85" y2="-0.15" xlink:href="#linear-gradient"/><linearGradient id="linear-gradient-10" x1="379.05" y1="317.51" x2="382.05" y2="0.51" xlink:href="#linear-gradient"/><linearGradient id="linear-gradient-11" x1="368.35" y1="317.41" x2="371.35" y2="0.41" xlink:href="#linear-gradient"/><linearGradient id="linear-gradient-12" x1="237.21" y1="316.17" x2="240.21" y2="-0.83" xlink:href="#linear-gradient"/><linearGradient id="linear-gradient-13" x1="118.61" y1="315.05" x2="121.61" y2="-1.95" xlink:href="#linear-gradient"/><linearGradient id="linear-gradient-14" x1="129.31" y1="315.15" x2="132.31" y2="-1.85" xlink:href="#linear-gradient"/></defs><title>dashboard</title><path d="M394,18H44A21,21,0,0,0,23,39V277a21,21,0,0,0,21,21H394a21,21,0,0,0,21-21V39A21,21,0,0,0,394,18ZM37,39a7,7,0,0,1,7-7H394a7,7,0,0,1,7,7V60H37ZM401,277a7,7,0,0,1-7,7H44a7,7,0,0,1-7-7V74H401Z" transform="translate(-23 -18)" style="fill:url(#linear-gradient)"/><path d="M380,39h0a7,7,0,1,0,7,7A7,7,0,0,0,380,39Z" transform="translate(-23 -18)" style="fill:url(#linear-gradient-2)"/><path d="M352,39h0a7,7,0,1,0,7,7A7,7,0,0,0,352,39Z" transform="translate(-23 -18)" style="fill:url(#linear-gradient-3)"/><path d="M324,39h0a7,7,0,1,0,7,7A7,7,0,0,0,324,39Z" transform="translate(-23 -18)" style="fill:url(#linear-gradient-4)"/><path d="M58,102h49a7,7,0,0,0,0-14H58a7,7,0,0,0,0,14Z" transform="translate(-23 -18)" style="fill:url(#linear-gradient-5)"/><path d="M58,130h49a7,7,0,0,0,0-14H58a7,7,0,0,0,0,14Z" transform="translate(-23 -18)" style="fill:url(#linear-gradient-6)"/><path d="M58,158h49a7,7,0,0,0,0-14H58a7,7,0,0,0,0,14Z" transform="translate(-23 -18)" style="fill:url(#linear-gradient-7)"/><path d="M58,186h49a7,7,0,0,0,0-14H58a7,7,0,0,0,0,14Z" transform="translate(-23 -18)" style="fill:url(#linear-gradient-8)"/><path d="M268,172h61.7a7,7,0,0,0,6.9-8.2,83.06,83.06,0,0,0-21-42l5.8-12.7H352a7,7,0,0,0,0-14H317a7,7,0,0,0-6.3,3.9l-6.3,12.9a83.76,83.76,0,0,0-35-15.5,7,7,0,0,0-8.2,6.9V165A6.91,6.91,0,0,0,268,172Zm7-59.8A70.53,70.53,0,0,1,320.8,158H275Z" transform="translate(-23 -18)" style="fill:url(#linear-gradient-9)"/><path d="M380,109h0a7,7,0,1,0-7-7A7,7,0,0,0,380,109Z" transform="translate(-23 -18)" style="fill:url(#linear-gradient-10)"/><path d="M380,116H359a7,7,0,0,0,0,14h21a7,7,0,0,0,0-14Z" transform="translate(-23 -18)" style="fill:url(#linear-gradient-11)"/><path d="M188,231.9,179.7,249H149a7,7,0,0,0,0,14h35a7,7,0,0,0,6.3-3.9l8.3-17.1a83.92,83.92,0,0,0,118.5-7.8,82.89,82.89,0,0,0,19.4-40,7,7,0,0,0-6.9-8.2H247V103.3a7,7,0,0,0-8.2-6.9,84,84,0,0,0-50.3,134.9Zm45-119.7V193a7,7,0,0,0,7,7h80.8A70,70,0,1,1,233,112.2Z" transform="translate(-23 -18)" style="fill:url(#linear-gradient-12)"/><path d="M121,263a7,7,0,0,0,0-14h0a7,7,0,0,0,0,14Z" transform="translate(-23 -18)" style="fill:url(#linear-gradient-13)"/><path d="M121,242h21a7,7,0,0,0,0-14H121a7,7,0,0,0,0,14Z" transform="translate(-23 -18)" style="fill:url(#linear-gradient-14)"/></svg>