<svg id="Layer_1" data-name="Layer 1" xmlns="http://www.w3.org/2000/svg" xmlns:xlink="http://www.w3.org/1999/xlink" width="413.6" height="413.6" viewBox="0 0 413.6 413.6"><defs><linearGradient id="linear-gradient" x1="231.5" y1="447.97" x2="234.5" y2="-3.03" gradientTransform="matrix(1, 0, 0, -1, 0, 447)" gradientUnits="userSpaceOnUse"><stop offset="0" stop-color="#ff512f"/><stop offset="1" stop-color="#f09819"/></linearGradient><linearGradient id="linear-gradient-2" x1="230.89" y1="447.97" x2="233.89" y2="-3.03" xlink:href="#linear-gradient"/><linearGradient id="linear-gradient-3" x1="231.68" y1="447.97" x2="234.68" y2="-3.03" xlink:href="#linear-gradient"/><linearGradient id="linear-gradient-4" x1="68.9" y1="446.89" x2="71.9" y2="-4.11" xlink:href="#linear-gradient"/><linearGradient id="linear-gradient-5" x1="396.29" y1="449.07" x2="399.29" y2="-1.93" xlink:href="#linear-gradient"/><linearGradient id="linear-gradient-6" x1="66.72" y1="446.87" x2="69.72" y2="-4.13" xlink:href="#linear-gradient"/><linearGradient id="linear-gradient-7" x1="394.11" y1="449.05" x2="397.11" y2="-1.95" xlink:href="#linear-gradient"/><linearGradient id="linear-gradient-8" x1="340.77" y1="448.7" x2="343.77" y2="-2.3" xlink:href="#linear-gradient"/><linearGradient id="linear-gradient-9" x1="123.73" y1="447.25" x2="126.73" y2="-3.75" xlink:href="#linear-gradient"/><linearGradient id="linear-gradient-10" x1="339.98" y1="448.69" x2="342.98" y2="-2.31" xlink:href="#linear-gradient"/><linearGradient id="linear-gradient-11" x1="122.29" y1="447.24" x2="125.29" y2="-3.76" xlink:href="#linear-gradient"/></defs><title>departments</title><path d="M165,321.5a8.42,8.42,0,0,1-5.2-1.8,119.4,119.4,0,0,1-47.4-95.8A120.74,120.74,0,0,1,233,103.3c66.5,0,120.6,54.2,120.6,120.7a119.4,119.4,0,0,1-47.4,95.8,8.69,8.69,0,0,1-13.8-8.3,57.72,57.72,0,0,0,.8-10,60.3,60.3,0,1,0-120.6,0,69.6,69.6,0,0,0,.8,10,8.55,8.55,0,0,1-4.1,8.8A8,8,0,0,1,165,321.5Zm68-200.9A103.54,103.54,0,0,0,129.6,224a102,102,0,0,0,26.3,68.9,77.59,77.59,0,0,1,154.2,0A102.2,102.2,0,0,0,336.4,224,103.54,103.54,0,0,0,233,120.6Z" transform="translate(-26.2 -17.2)" style="fill:url(#linear-gradient)"/><path d="M233,344.6a119.06,119.06,0,0,1-73.2-24.9,9,9,0,0,1-3.3-5.5,80,80,0,0,1-1.1-12.8,77.5,77.5,0,1,1,155,0,82,82,0,0,1-1.1,12.8,8.34,8.34,0,0,1-3.3,5.4A117.57,117.57,0,0,1,233,344.6Zm-60-36.5a103,103,0,0,0,119.8,0c.2-2.2.4-4.5.4-6.6a60.3,60.3,0,1,0-120.6,0C172.7,303.7,172.8,305.9,173,308.1Zm128,4.8Z" transform="translate(-26.2 -17.2)" style="fill:url(#linear-gradient-2)"/><path d="M233,241.2a43.1,43.1,0,1,1,43.1-43.1A43.1,43.1,0,0,1,233,241.2Zm0-68.9a25.8,25.8,0,1,0,25.8,25.8A25.8,25.8,0,0,0,233,172.3Z" transform="translate(-26.2 -17.2)" style="fill:url(#linear-gradient-3)"/><path d="M69.3,103.4a43.1,43.1,0,1,1,43.1-43.1A43.1,43.1,0,0,1,69.3,103.4Zm0-68.9A25.8,25.8,0,1,0,95.1,60.3,25.8,25.8,0,0,0,69.3,34.5Z" transform="translate(-26.2 -17.2)" style="fill:url(#linear-gradient-4)"/><path d="M396.7,103.4a43.1,43.1,0,1,1,43.1-43.1A43.1,43.1,0,0,1,396.7,103.4Zm0-68.9a25.8,25.8,0,1,0,25.8,25.8A25.8,25.8,0,0,0,396.7,34.5Z" transform="translate(-26.2 -17.2)" style="fill:url(#linear-gradient-5)"/><path d="M69.3,430.8a43.1,43.1,0,1,1,43.1-43.1A43.1,43.1,0,0,1,69.3,430.8Zm0-69a25.8,25.8,0,1,0,25.8,25.8A25.8,25.8,0,0,0,69.3,361.8Z" transform="translate(-26.2 -17.2)" style="fill:url(#linear-gradient-6)"/><path d="M396.7,430.8a43.1,43.1,0,1,1,43.1-43.1A43.1,43.1,0,0,1,396.7,430.8Zm0-69a25.8,25.8,0,1,0,25.8,25.8A25.8,25.8,0,0,0,396.7,361.8Z" transform="translate(-26.2 -17.2)" style="fill:url(#linear-gradient-7)"/><path d="M312.2,153.4a8.6,8.6,0,0,1-6.1-14.7L364.8,80A8.63,8.63,0,0,1,377,92.2l-58.7,58.7A8.55,8.55,0,0,1,312.2,153.4Z" transform="translate(-26.2 -17.2)" style="fill:url(#linear-gradient-8)"/><path d="M153.8,153.4a8.55,8.55,0,0,1-6.1-2.5L89.1,92.3a8.63,8.63,0,1,1,12.2-12.2l58.6,58.6a8.6,8.6,0,0,1-6.1,14.7Z" transform="translate(-26.2 -17.2)" style="fill:url(#linear-gradient-9)"/><path d="M370.8,370.5a8.63,8.63,0,0,1-6.3-2.7l-57.1-60.3a8.63,8.63,0,0,1,12.5-11.9L377,355.9a8.66,8.66,0,0,1-.3,12.2A8.24,8.24,0,0,1,370.8,370.5Z" transform="translate(-26.2 -17.2)" style="fill:url(#linear-gradient-10)"/><path d="M95.2,370.5a8.6,8.6,0,0,1-6.1-14.7l58.6-58.6a8.63,8.63,0,1,1,12.2,12.2L101.3,368A9,9,0,0,1,95.2,370.5Z" transform="translate(-26.2 -17.2)" style="fill:url(#linear-gradient-11)"/></svg>