<svg id="Layer_1" data-name="Layer 1" xmlns="http://www.w3.org/2000/svg" xmlns:xlink="http://www.w3.org/1999/xlink" width="600" height="400" viewBox="0 0 600 400"><defs><style>.cls-1,.cls-13,.cls-15{fill:none;}.cls-2{opacity:0.7;}.cls-3{fill:url(#linear-gradient);}.cls-4{fill:#bdbdbd;}.cls-17,.cls-5{opacity:0.1;}.cls-6{fill:#535461;}.cls-7{opacity:0.5;}.cls-8{fill:url(#linear-gradient-2);}.cls-9{fill:#fff;}.cls-10{fill:#6c63ff;}.cls-11{fill:#e0e0e0;}.cls-12{fill:url(#linear-gradient-3);}.cls-13,.cls-15{stroke:#535461;stroke-miterlimit:10;}.cls-13{stroke-width:3px;opacity:0.6;}.cls-13,.cls-15,.cls-17{isolation:isolate;}.cls-14{fill:#4db6ac;}.cls-15{opacity:0.3;}.cls-16{fill:#585859;}.cls-18{fill:url(#linear-gradient-4);}.cls-19{fill:#3ad29f;}.cls-20{fill:#4d8af0;}.cls-21{fill:#f55f44;}.cls-22{fill:#34aa09;}</style><linearGradient id="linear-gradient" x1="414.04" y1="-119.75" x2="414.04" y2="104.5" gradientTransform="matrix(1, 0, 0, -1, -114.28, 203)" gradientUnits="userSpaceOnUse"><stop offset="0" stop-color="gray" stop-opacity="0.25"/><stop offset="0.54" stop-color="gray" stop-opacity="0.12"/><stop offset="1" stop-color="gray" stop-opacity="0.1"/></linearGradient><linearGradient id="linear-gradient-2" x1="300" y1="179.73" x2="300" y2="269.5" gradientTransform="matrix(1, 0, 0, -1, 0, 402)" xlink:href="#linear-gradient"/><linearGradient id="linear-gradient-3" x1="190.54" y1="-46.55" x2="272.28" y2="-46.55" xlink:href="#linear-gradient"/><linearGradient id="linear-gradient-4" x1="573.48" y1="-72.05" x2="620.32" y2="-72.05" xlink:href="#linear-gradient"/></defs><title>desktop-application</title><rect class="cls-1" width="600" height="400"/><g class="cls-2"><path class="cls-3" d="M420.81,98.5H178.71a7.82,7.82,0,0,0-7.79,7.85V273a7.81,7.81,0,0,0,7.79,7.85H262v28.77h-3.8a4,4,0,0,0-4,4h0v5.77H262v3.41h75.56v-3.41h7.75v-5.77a4,4,0,0,0-4-4h-3.57v-.25h-.24V280.82h83.28a7.83,7.83,0,0,0,7.8-7.85V106.35A7.83,7.83,0,0,0,420.81,98.5Z"/></g><rect class="cls-4" x="262.71" y="275.87" width="74.58" height="43.98"/><g class="cls-5"><path d="M264.18,280.17H336c.87-3.76,1.56-6.21,1.56-6.21H262.47S263.24,276.4,264.18,280.17Z"/></g><path class="cls-6" d="M180.53,99.93H419.47a7.7,7.7,0,0,1,7.7,7.7v147.2H172.83V107.63a7.7,7.7,0,0,1,7.7-7.7Z"/><path class="cls-4" d="M419.47,278.74H180.53a7.7,7.7,0,0,1-7.7-7.7V254.83H427.17V271A7.7,7.7,0,0,1,419.47,278.74Z"/><circle class="cls-6" cx="300" cy="266.79" r="4.3"/><path class="cls-4" d="M259,307H341a3.9,3.9,0,0,1,3.91,3.9v5.66H255.06v-5.66A3.9,3.9,0,0,1,259,307Z"/><g class="cls-7"><rect class="cls-8" x="221.12" y="132.5" width="157.77" height="89.77" rx="2.15"/></g><rect class="cls-9" x="223.14" y="133.16" width="153.72" height="87.95" rx="2.15"/><g class="cls-7"><rect class="cls-10" x="265.96" y="145.79" width="16.94" height="15.25" rx="2.15"/></g><rect class="cls-11" x="287.99" y="145.79" width="45.75" height="1.69" rx="0.85"/><rect class="cls-11" x="287.99" y="150.87" width="38.03" height="1.69" rx="0.85"/><g class="cls-7"><rect class="cls-10" x="265.96" y="169.51" width="16.94" height="15.25" rx="2.15"/></g><path class="cls-11" d="M288.83,169.51h44.06a.84.84,0,0,1,.84.85h0a.84.84,0,0,1-.84.84H288.83a.84.84,0,0,1-.84-.84h0A.84.84,0,0,1,288.83,169.51Z"/><path class="cls-11" d="M288.83,174.59h44.06a.84.84,0,0,1,.84.85h0a.83.83,0,0,1-.84.84H288.83a.83.83,0,0,1-.84-.84h0A.84.84,0,0,1,288.83,174.59Z"/><g class="cls-7"><rect class="cls-10" x="265.96" y="193.23" width="16.94" height="15.25" rx="2.15"/></g><path class="cls-11" d="M288.83,193.23h44.06a.84.84,0,0,1,.84.85h0a.84.84,0,0,1-.84.85H288.83a.84.84,0,0,1-.84-.85h0A.84.84,0,0,1,288.83,193.23Z"/><rect class="cls-11" x="287.99" y="198.32" width="46.05" height="1.69" rx="0.76"/><g class="cls-5"><rect x="262.95" y="306.71" width="74.58" height="1.43"/></g><g class="cls-2"><path class="cls-12" d="M153.46,274H118.84l.48-3.89c9.78-8.79,16.11-32.18,16.11-32.18a2.07,2.07,0,0,0-.42.08,24.32,24.32,0,0,0-12.67,6.35L123.55,234c18.07-3.89,25.24-27.79,25.24-27.79-11.53,2.56-18.72,6.52-23.19,10.27l1.78-15.21c12.22,4.19,24.86-18.08,24.86-18.08l-.48-.1.24-.15-.36.12c-13.51-2.91-20.73,4.81-23.07,8l.18-1.49c-.36,1-.71,1.89-1,2.81h0v0c-1,2.59-1.83,5.15-2.63,7.68h0q-1,3.24-1.94,6.4v0a19.22,19.22,0,0,0-14.91-17.19s1.51,29.67,12.88,24.82h0c-1,4.3-1.91,8.44-2.66,12.46h0c-.47,2.62-.89,5.17-1.24,7.65l-.07.08.07-.06,0,.19h0c-.32,2.26-.59,4.45-.81,6.59.22-4.12-.53-16-14.56-27.21,0,0-18.65,32.77,13.15,39.2.07.06.14.13.21.18l0-.14.29.06.12-1.68a178.62,178.62,0,0,0,.11,21.08h0c0,.48.07,1,.11,1.41h-35c-13.35,27.63,7.42,42.77,7.42,42.77h57.38C167.8,288.62,153.46,274,153.46,274Zm-37.29-31.4Z"/></g><path class="cls-13" d="M116.89,284.48s-9.08-39.69,11-90.84"/><path class="cls-10" d="M81.51,272.52h70.28s13.87,17.69-7.65,44H88.69S68.61,298.34,81.51,272.52Z"/><path class="cls-14" d="M126.88,196.27s7-12.43,23.72-8.61c0,0-13.83,23.55-26.3,15.84Z"/><path class="cls-14" d="M122.45,209.46s-.54-12.71-14.4-16.06c0,0,1.43,27.73,12.43,23.19Z"/><path class="cls-14" d="M117.92,228.23s2.56-13.32,29.33-19c0,0-8.54,27.54-30.56,26.44Z"/><path class="cls-14" d="M115.75,243.18s2.82-13.92-13.92-26.83c0,0-18.16,30.92,13.14,36.73Z"/><path class="cls-14" d="M115.25,262.33s-1.94-19.69,19.09-23.51c0,0-7.68,27.48-19.12,32.38Z"/><path class="cls-15" d="M124.54,203.68s18.17-13.87,25.82-16.26"/><path class="cls-15" d="M116.65,235.47s22-23.42,30.6-26.29"/><path class="cls-15" d="M108.05,193.4s13.38,18.17,12.43,22.95"/><path class="cls-15" d="M101.83,216.35s7.17,32.51,12.91,36.81"/><path class="cls-15" d="M115.22,271.33s11.47-31.56,19.12-32.51"/><g class="cls-5"><path d="M151.79,272.52H81.51c-.15.32-.31.64-.47,1H149.4s13.53,17.26-6.88,43h1.62C165.66,290.21,151.79,272.52,151.79,272.52Z"/></g><rect class="cls-16" x="63.22" y="316.32" width="473.56" height="15.74"/><rect class="cls-16" x="87.46" y="332.06" width="425.07" height="6.44"/><rect class="cls-17" x="87.46" y="332.06" width="425.07" height="2.15"/><g class="cls-2"><path class="cls-18" d="M504.14,311.19l.05-.07a5.55,5.55,0,0,0,.29-.48l.06-.09c.09-.16.18-.31.26-.48l0-.08a5,5,0,0,0,.27-.57h0a12.32,12.32,0,0,0,.45-1.2l.05-.16.12-.44,0-.21c0-.13.06-.27.08-.41a1.06,1.06,0,0,1,.05-.23l.06-.4a1.09,1.09,0,0,1,0-.24,2.36,2.36,0,0,0,0-.44V265.35h-6.62V246h-8.13v19.35h-5.61V237.56h-8.12v27.79H474.5V233.58h-8.13v31.77H459.2v39.49a11.82,11.82,0,0,0,12,11.67H494.1a12.05,12.05,0,0,0,9.68-4.81h0Z"/></g><rect class="cls-6" x="467.33" y="251.97" width="7.65" height="47.81"/><rect class="cls-19" x="467.33" y="236.19" width="7.65" height="15.78"/><rect class="cls-6" x="477.85" y="255.79" width="7.65" height="47.81"/><rect class="cls-20" x="477.85" y="240.01" width="7.65" height="15.78"/><rect class="cls-6" x="490.76" y="263.92" width="7.65" height="47.81"/><rect class="cls-21" x="490.76" y="248.14" width="7.65" height="15.78"/><path class="cls-10" d="M460.64,266.79h44v38A11.23,11.23,0,0,1,493.39,316H471.87a11.23,11.23,0,0,1-11.23-11.24v-38Z"/><g class="cls-5"><path d="M460.64,266.79v1.91h42.07v38a11.19,11.19,0,0,1-2.39,6.92,11.19,11.19,0,0,0,4.3-8.84v-38Z"/></g><path d="M274.78,197.63a.38.38,0,1,0-.75,0v4.12a.39.39,0,0,0,.19.33l2.62,1.5a.38.38,0,0,0,.51-.16.37.37,0,0,0-.13-.5l-2.44-1.39Z"/><path d="M274.78,207a6,6,0,1,0-6-6A6,6,0,0,0,274.78,207Zm5.25-6a5.25,5.25,0,1,1-5.25-5.25A5.25,5.25,0,0,1,280,201Z"/><path d="M274.78,173.63a.38.38,0,1,0-.75,0v4.12a.39.39,0,0,0,.19.33l2.62,1.5a.38.38,0,0,0,.51-.16.37.37,0,0,0-.13-.5l-2.44-1.39Z"/><path d="M274.78,183a6,6,0,1,0-6-6A6,6,0,0,0,274.78,183Zm5.25-6a5.25,5.25,0,1,1-5.25-5.25A5.25,5.25,0,0,1,280,177Z"/><path d="M274.78,149.63a.38.38,0,1,0-.75,0v4.12a.39.39,0,0,0,.19.33l2.62,1.5a.38.38,0,0,0,.51-.16.37.37,0,0,0-.13-.5l-2.44-1.39Z"/><path d="M274.78,159a6,6,0,1,0-6-6A6,6,0,0,0,274.78,159Zm5.25-6a5.25,5.25,0,1,1-5.25-5.25A5.25,5.25,0,0,1,280,153Z"/><polygon class="cls-22" points="349.54 151 348.41 152.31 348.73 154 347.1 154.56 346.54 156.2 344.84 155.87 343.54 157 342.23 155.87 340.54 156.2 339.97 154.56 338.34 154 338.67 152.31 337.54 151 338.67 149.69 338.34 148 339.97 147.44 340.54 145.8 342.23 146.13 343.54 145 344.84 146.13 346.54 145.8 347.1 147.44 348.73 148 348.41 149.69 349.54 151"/><g id="Check_-_Orange" data-name="Check - Orange"><polygon class="cls-9" points="346.5 149.93 345.41 148.84 342.78 151.46 341.68 150.34 340.58 151.44 342.78 153.64 342.78 153.64 342.79 153.64 346.5 149.93"/></g><polygon class="cls-22" points="349.54 173 348.41 174.31 348.73 176 347.1 176.56 346.54 178.2 344.84 177.87 343.54 179 342.23 177.87 340.54 178.2 339.97 176.56 338.34 176 338.67 174.31 337.54 173 338.67 171.69 338.34 170 339.97 169.44 340.54 167.8 342.23 168.13 343.54 167 344.84 168.13 346.54 167.8 347.1 169.44 348.73 170 348.41 171.69 349.54 173"/><g id="Check_-_Orange-2" data-name="Check - Orange"><polygon class="cls-9" points="346.5 171.93 345.41 170.84 342.78 173.46 341.68 172.34 340.58 173.44 342.78 175.64 342.78 175.64 342.79 175.64 346.5 171.93"/></g></svg>