<svg id="Layer_1" data-name="Layer 1" xmlns="http://www.w3.org/2000/svg" xmlns:xlink="http://www.w3.org/1999/xlink" width="508.8" height="512" viewBox="0 0 508.8 512"><defs><linearGradient id="linear-gradient" x1="248.34" y1="513.93" x2="261.34" y2="-6.07" gradientTransform="matrix(1, 0, 0, -1, 0, 513)" gradientUnits="userSpaceOnUse"><stop offset="0" stop-color="#ff512f"/><stop offset="1" stop-color="#f09819"/></linearGradient><linearGradient id="linear-gradient-2" x1="403.84" y1="517.82" x2="416.84" y2="-2.18" gradientTransform="matrix(1, 0, 0, -1, -1.2, 513)" xlink:href="#linear-gradient"/><linearGradient id="linear-gradient-3" x1="378.65" y1="517.19" x2="391.65" y2="-2.81" gradientTransform="matrix(1, 0, 0, -1, -1.2, 513)" xlink:href="#linear-gradient"/><linearGradient id="linear-gradient-4" x1="353.44" y1="516.56" x2="366.44" y2="-3.44" gradientTransform="matrix(1, 0, 0, -1, -1.2, 513)" xlink:href="#linear-gradient"/><linearGradient id="linear-gradient-5" x1="299.82" y1="515.22" x2="312.82" y2="-4.78" gradientTransform="matrix(1, 0, 0, -1, -1.2, 513)" xlink:href="#linear-gradient"/><linearGradient id="linear-gradient-6" x1="274.62" y1="514.59" x2="287.62" y2="-5.41" gradientTransform="matrix(1, 0, 0, -1, -1.2, 513)" xlink:href="#linear-gradient"/><linearGradient id="linear-gradient-7" x1="249.42" y1="513.96" x2="262.42" y2="-6.04" gradientTransform="matrix(1, 0, 0, -1, -1.2, 513)" xlink:href="#linear-gradient"/><linearGradient id="linear-gradient-8" x1="224.22" y1="513.33" x2="237.22" y2="-6.67" gradientTransform="matrix(1, 0, 0, -1, -1.2, 513)" xlink:href="#linear-gradient"/><linearGradient id="linear-gradient-9" x1="234.52" y1="513.59" x2="247.52" y2="-6.41" gradientTransform="matrix(1, 0, 0, -1, -1.2, 513)" xlink:href="#linear-gradient"/><linearGradient id="linear-gradient-10" x1="209.32" y1="512.96" x2="222.32" y2="-7.04" gradientTransform="matrix(1, 0, 0, -1, -1.2, 513)" xlink:href="#linear-gradient"/><linearGradient id="linear-gradient-11" x1="349.96" y1="516.47" x2="362.96" y2="-3.53" xlink:href="#linear-gradient"/><linearGradient id="linear-gradient-12" x1="113.19" y1="510.55" x2="126.19" y2="-9.45" xlink:href="#linear-gradient"/><linearGradient id="linear-gradient-13" x1="246.35" y1="513.88" x2="259.35" y2="-6.12" gradientTransform="matrix(1, 0, 0, -1, -1.2, 513)" xlink:href="#linear-gradient"/><linearGradient id="linear-gradient-14" x1="245.53" y1="513.86" x2="258.53" y2="-6.14" gradientTransform="matrix(1, 0, 0, -1, -1.2, 513)" xlink:href="#linear-gradient"/><linearGradient id="linear-gradient-15" x1="62.27" y1="509.28" x2="75.27" y2="-10.72" gradientTransform="matrix(1, 0, 0, -1, -1.2, 513)" xlink:href="#linear-gradient"/><linearGradient id="linear-gradient-16" x1="42.61" y1="508.79" x2="55.61" y2="-11.21" gradientTransform="matrix(1, 0, 0, -1, -1.2, 513)" xlink:href="#linear-gradient"/><linearGradient id="linear-gradient-17" x1="43.42" y1="508.81" x2="56.42" y2="-11.19" gradientTransform="matrix(1, 0, 0, -1, -1.2, 513)" xlink:href="#linear-gradient"/><linearGradient id="linear-gradient-18" x1="52.44" y1="509.04" x2="65.44" y2="-10.96" gradientTransform="matrix(1, 0, 0, -1, -1.2, 513)" xlink:href="#linear-gradient"/><linearGradient id="linear-gradient-19" x1="73.8" y1="509.57" x2="86.8" y2="-10.43" gradientTransform="matrix(1, 0, 0, -1, -1.2, 513)" xlink:href="#linear-gradient"/></defs><title>documents</title><path d="M354.1,29.5,313,69.3V0H1.2V393.8H178.3L296.5,512,510,307.1V185.3ZM455.9,246.2l37.6-37.6v75.3ZM17.6,377.4V16.4h279V85.2l-65.7,63.6c0-.4.1-.8.1-1.2v-8.2H140.7v90.3h6.7L79.7,295.2l82.1,82.2ZM167.1,210.7a69.89,69.89,0,0,1-9.9,2.1V155.9h56.9a69.52,69.52,0,0,1-2.7,12Zm-63.9,84.8L354,52.5,490.2,188.7l-57.4,57.4,57.3,57.3L296.7,489Z" transform="translate(-1.2)" style="fill:url(#linear-gradient)"/><polygon points="347 87.9 358.7 76.3 465.3 182.9 453.7 194.5 347 87.9" style="fill:url(#linear-gradient-2)"/><polygon points="322.4 112.5 334 100.9 440.7 207.5 429.1 219.1 322.4 112.5" style="fill:url(#linear-gradient-3)"/><polygon points="297.8 137.1 309.4 125.5 416.1 232.2 404.5 243.8 297.8 137.1" style="fill:url(#linear-gradient-4)"/><polygon points="265 169.9 276.6 158.3 342.2 223.9 330.6 235.5 265 169.9" style="fill:url(#linear-gradient-5)"/><polygon points="240.4 194.5 252 182.9 317.6 248.6 306 260.2 240.4 194.5" style="fill:url(#linear-gradient-6)"/><polygon points="215.8 219.1 227.4 207.5 293 273.2 281.4 284.8 215.8 219.1" style="fill:url(#linear-gradient-7)"/><polygon points="191.2 243.8 202.8 232.1 268.4 297.8 256.8 309.4 191.2 243.8" style="fill:url(#linear-gradient-8)"/><polygon points="158.3 276.6 169.9 265 325.8 420.9 314.2 432.5 158.3 276.6" style="fill:url(#linear-gradient-9)"/><polygon points="133.7 301.2 145.3 289.6 301.2 445.5 289.6 457.1 133.7 301.2" style="fill:url(#linear-gradient-10)"/><path d="M370.5,234.6,268.6,336.4l77.2,77.2L447.7,311.7ZM291.8,336.4l78.7-78.7,54,54-78.7,78.7Z" transform="translate(-1.2)" style="fill:url(#linear-gradient-11)"/><path d="M116.1,196.9h8.2V123.1h73.8v-8.2a82.1,82.1,0,1,0-164.2,0C33.9,160.2,70.9,196.9,116.1,196.9Zm0-147.7a65.68,65.68,0,0,1,65.1,57.4H107.9V180a65.66,65.66,0,0,1,8.2-130.8Z" transform="translate(-1.2)" style="fill:url(#linear-gradient-12)"/><rect x="213.4" y="32.8" width="65.6" height="16.4" style="fill:url(#linear-gradient-13)"/><rect x="213.4" y="65.6" width="65.6" height="16.4" style="fill:url(#linear-gradient-14)"/><rect x="32.9" y="344.6" width="73.8" height="16.4" style="fill:url(#linear-gradient-15)"/><rect x="32.9" y="311.8" width="32.8" height="16.4" style="fill:url(#linear-gradient-16)"/><rect x="32.9" y="279" width="32.8" height="16.4" style="fill:url(#linear-gradient-17)"/><rect x="32.9" y="246.2" width="49.2" height="16.4" style="fill:url(#linear-gradient-18)"/><rect x="32.9" y="213.3" width="90.3" height="16.4" style="fill:url(#linear-gradient-19)"/></svg>