<svg xmlns="http://www.w3.org/2000/svg" width="500" height="372.61" viewBox="0 0 500 372.61"><title>document-check-in</title><g id="Background_Complete" data-name="Background Complete"><rect y="327.45" width="500" height="0.25" style="fill:#ebebeb"/><rect x="359" y="336.97" width="90.9" height="0.25" style="fill:#ebebeb"/><rect x="306.33" y="334.26" width="24.89" height="0.25" style="fill:#ebebeb"/><rect x="349.52" y="346.26" width="38.59" height="0.25" style="fill:#ebebeb"/><rect x="52.46" y="344.58" width="22.64" height="0.25" style="fill:#ebebeb"/><rect x="84" y="344.58" width="26.89" height="0.25" style="fill:#ebebeb"/><rect x="178.31" y="340.35" width="46.84" height="0.25" style="fill:#ebebeb"/><path d="M237,337.8H43.91a5.71,5.71,0,0,1-5.7-5.71V60.66A5.71,5.71,0,0,1,43.91,55H237a5.71,5.71,0,0,1,5.71,5.71V332.09A5.71,5.71,0,0,1,237,337.8ZM43.91,55.2a5.46,5.46,0,0,0-5.45,5.46V332.09a5.46,5.46,0,0,0,5.45,5.46H237a5.47,5.47,0,0,0,5.46-5.46V60.66A5.47,5.47,0,0,0,237,55.2Z" transform="translate(0 -54.95)" style="fill:#ebebeb"/><path d="M453.31,337.8H260.21a5.72,5.72,0,0,1-5.71-5.71V60.66A5.72,5.72,0,0,1,260.21,55h193.1A5.71,5.71,0,0,1,459,60.66V332.09A5.71,5.71,0,0,1,453.31,337.8ZM260.21,55.2a5.47,5.47,0,0,0-5.46,5.46V332.09a5.47,5.47,0,0,0,5.46,5.46h193.1a5.47,5.47,0,0,0,5.46-5.46V60.66a5.47,5.47,0,0,0-5.46-5.46Z" transform="translate(0 -54.95)" style="fill:#ebebeb"/><rect x="52.46" y="117.99" width="119.56" height="264.41" transform="translate(224.47 445.43) rotate(180)" style="fill:#f0f0f0"/><rect x="52.46" y="117.99" width="113.89" height="264.41" transform="translate(218.81 445.43) rotate(180)" style="fill:#f5f5f5"/><rect x="-16.8" y="199.25" width="252.41" height="101.89" transform="translate(359.6 85.84) rotate(90)" style="fill:#f0f0f0"/><rect x="67.94" y="182.74" width="26.11" height="5.33" rx="2.67" style="fill:#fff"/><rect x="-66.97" y="249.41" width="252.41" height="1.56" transform="translate(309.43 136) rotate(90)" style="fill:#f0f0f0"/><rect x="228.02" y="300.19" width="17.8" height="77.2" transform="translate(473.85 622.62) rotate(180)" style="fill:#f0f0f0"/><rect x="154.62" y="377.38" width="87.78" height="4.89" transform="translate(397.03 704.71) rotate(180)" style="fill:#f0f0f0"/><rect x="151.21" y="245.23" width="76.82" height="77.2" style="fill:#f5f5f5"/><rect x="158.2" y="254.74" width="62.82" height="25.32" style="fill:#f0f0f0"/><rect x="158.2" y="287.61" width="62.82" height="25.32" style="fill:#f0f0f0"/><rect x="180.83" y="308.35" width="17.58" height="3.47" rx="1.74" transform="translate(379.23 565.22) rotate(-180)" style="fill:#f5f5f5"/><rect x="180.83" y="341.23" width="17.58" height="3.47" rx="1.74" transform="translate(379.23 630.97) rotate(-180)" style="fill:#f5f5f5"/><rect x="194.15" y="200.97" width="2.64" height="42.75" rx="1.32" style="fill:#f5f5f5"/><rect x="183.12" y="242.16" width="24.7" height="3.11" style="fill:#f0f0f0"/><rect x="201.65" y="198.35" width="1.32" height="21.37" rx="0.66" style="fill:#f0f0f0"/><path d="M176.26,260.9S176.75,242,195.47,242s19.2,18.88,19.2,18.88Z" transform="translate(0 -54.95)" style="fill:#f0f0f0"/><path d="M338.31,287.6h0c.53,0,1.07,0,1.61.05a23,23,0,0,1,21.29,21.39,23.34,23.34,0,0,1-.74,7.47,114.75,114.75,0,0,0-3.6,29.89v29.34a3.85,3.85,0,0,1-3.85,3.86H259.87v-92Z" transform="translate(0 -54.95)" style="fill:#f0f0f0"/><path d="M236.92,310.55a22.94,22.94,0,1,1,45.1,6,115.17,115.17,0,0,0-3.59,29.89v29.34a3.86,3.86,0,0,1-3.86,3.86H245.16a3.85,3.85,0,0,1-3.85-3.86V344.68a104.51,104.51,0,0,0-3.56-28A23,23,0,0,1,236.92,310.55Z" transform="translate(0 -54.95)" style="fill:#f5f5f5"/><rect x="291.48" y="323.75" width="83.61" height="55.86" transform="translate(666.58 648.4) rotate(180)" style="fill:#f0f0f0"/><path d="M332.29,233.33H444.2a0,0,0,0,1,0,0V319a17.36,17.36,0,0,1-17.36,17.36H349.65A17.36,17.36,0,0,1,332.29,319V233.33a0,0,0,0,1,0,0Z" transform="translate(776.49 514.76) rotate(-180)" style="fill:#e0e0e0"/><path d="M310.43,233.33H422.34a0,0,0,0,1,0,0v86.51a16.53,16.53,0,0,1-16.53,16.53H327a16.53,16.53,0,0,1-16.53-16.53V233.33a0,0,0,0,1,0,0Z" transform="translate(732.76 514.76) rotate(180)" style="fill:#f5f5f5"/><path d="M289,318.65h77.07a5,5,0,0,1,5,5v12.67a5,5,0,0,1-5,5H289a1.51,1.51,0,0,1-1.51-1.51V320.15A1.51,1.51,0,0,1,289,318.65Z" transform="translate(658.64 605.09) rotate(180)" style="fill:#e0e0e0"/><path d="M452.45,287.6h0c.53,0,1.06,0,1.61.05a23,23,0,0,1,21.28,21.39,22.79,22.79,0,0,1-.74,7.47A114.74,114.74,0,0,0,471,346.41v29.34a3.86,3.86,0,0,1-3.86,3.86H374v-92Z" transform="translate(0 -54.95)" style="fill:#f0f0f0"/><path d="M351.06,310.55a22.94,22.94,0,0,1,45.84-1.5,23.34,23.34,0,0,1-.74,7.47,114.75,114.75,0,0,0-3.6,29.89v29.34a3.85,3.85,0,0,1-3.85,3.86H359.29a3.86,3.86,0,0,1-3.85-3.86V344.68a104.9,104.9,0,0,0-3.55-28A23,23,0,0,1,351.06,310.55Z" transform="translate(0 -54.95)" style="fill:#f5f5f5"/><path d="M261.5,379.61h189.3a2.79,2.79,0,0,1,2.79,2.79v0a0,0,0,0,1,0,0H258.71a0,0,0,0,1,0,0v0A2.79,2.79,0,0,1,261.5,379.61Z" transform="translate(712.31 707.05) rotate(180)" style="fill:#e0e0e0"/><rect x="373.63" y="101.46" width="60.89" height="66.41" transform="translate(808.14 214.38) rotate(180)" style="fill:#e0e0e0"/><rect x="369.98" y="101.46" width="62.47" height="66.41" transform="translate(802.44 214.38) rotate(180)" style="fill:#f5f5f5"/><rect x="373.25" y="108.66" width="55.95" height="52.01" transform="translate(535.88 -321.51) rotate(90)" style="fill:#fff"/><polygon points="401.22 65.57 415.44 90.2 387 90.2 401.22 65.57" style="fill:#f5f5f5"/><rect x="288.21" y="140.22" width="60.89" height="66.41" transform="translate(637.3 291.91) rotate(180)" style="fill:#e0e0e0"/><rect x="284.56" y="140.22" width="62.47" height="66.41" transform="translate(631.6 291.91) rotate(180)" style="fill:#f5f5f5"/><rect x="287.83" y="147.43" width="55.95" height="52.01" transform="translate(489.23 -197.32) rotate(90)" style="fill:#fff"/><path d="M309.44,183.41l-6.17-10.69a7.34,7.34,0,0,1,6.36-11H322a7.35,7.35,0,0,1,6.37,11l-6.17,10.69A7.35,7.35,0,0,1,309.44,183.41Z" transform="translate(0 -54.95)" style="fill:#f5f5f5"/></g><g id="Shadow"><ellipse id="_Path_" data-name="&lt;Path&gt;" cx="250" cy="361.29" rx="193.89" ry="11.32" style="fill:#f5f5f5"/></g><g id="Checklist"><polygon points="316.5 44.34 85.98 44.34 101.15 358.29 331.67 358.29 316.5 44.34" style="fill:#407bff"/><polygon points="316.5 44.34 85.98 44.34 101.15 358.29 331.67 358.29 316.5 44.34" style="opacity:0.2"/><polygon points="318.63 44.34 88.11 44.34 103.29 358.29 333.81 358.29 318.63 44.34" style="fill:#407bff"/><polygon points="306.46 54.9 98.65 54.9 113.17 344.1 293.87 343.86 323.9 317.23 306.46 54.9" style="opacity:0.2"/><path d="M308.05,109.85A2354.69,2354.69,0,0,0,329,368.71q-24.7,17-49.15,34H124.43A2360.67,2360.67,0,0,1,98.65,109.85Z" transform="translate(0 -54.95)" style="fill:#fff"/><path d="M329,368.71q-24.7,17-49.15,34,5.34-22.5,11.13-45Z" transform="translate(0 -54.95)" style="fill:#ebebeb"/><path d="M155,136.31q.59,15.88,1.38,31.78H124.61q-.8-15.9-1.38-31.78H155m3.24-3.35H119.76q.67,19.23,1.67,38.48h38.49q-1-19.24-1.67-38.48Z" transform="translate(0 -54.95)" style="fill:#407bff"/><path d="M284.82,148.24H176c-.1-2.39-.19-4.79-.28-7.18H284.53C284.62,143.45,284.72,145.85,284.82,148.24Z" transform="translate(0 -54.95)" style="fill:#e0e0e0"/><path d="M261.83,163.34H176.67c-.11-2.4-.23-4.79-.33-7.18h85.15Q261.66,159.75,261.83,163.34Z" transform="translate(0 -54.95)" style="fill:#e0e0e0"/><path d="M158.12,198.55q1,15.9,2.23,31.8H128.57q-1.23-15.9-2.23-31.8h31.78m3.14-3.35H122.78q1.18,19.25,2.69,38.5H164q-1.5-19.24-2.7-38.5Z" transform="translate(0 -54.95)" style="fill:#407bff"/><path d="M219.4,210.49h-40c-.16-2.4-.33-4.79-.48-7.19h40C219.07,205.7,219.23,208.09,219.4,210.49Z" transform="translate(0 -54.95)" style="fill:#e0e0e0"/><path d="M257.27,210.49H227.86l-.48-7.19h29.41C256.94,205.7,257.1,208.09,257.27,210.49Z" transform="translate(0 -54.95)" style="fill:#e0e0e0"/><path d="M275.73,225.6H180.5c-.18-2.4-.35-4.79-.53-7.19H275.2C275.38,220.81,275.55,223.2,275.73,225.6Z" transform="translate(0 -54.95)" style="fill:#e0e0e0"/><path d="M162.89,260.82q1.43,15.9,3.08,31.8H134.19q-1.65-15.9-3.08-31.8h31.78m3.06-3.35H127.46q1.7,19.26,3.72,38.51h38.49q-2-19.26-3.72-38.51Z" transform="translate(0 -54.95)" style="fill:#407bff"/><path d="M294.1,280.69H185.27l.72,7.18H294.82Z" transform="translate(0 -54.95)" style="fill:#e0e0e0"/><path d="M269,265.58H183.84c.22,2.39.44,4.79.67,7.18h85.15C269.44,270.37,269.21,268,269,265.58Z" transform="translate(0 -54.95)" style="fill:#e0e0e0"/><path d="M169.32,323.09q1.86,15.9,3.93,31.79H141.47q-2.07-15.88-3.93-31.79h31.78m3-3.35H133.8Q136,339,138.55,358.23H177q-2.53-19.23-4.75-38.49Z" transform="translate(0 -54.95)" style="fill:#407bff"/><path d="M300.09,335H191.26c-.29-2.4-.58-4.79-.86-7.19H299.22C299.51,330.24,299.79,332.63,300.09,335Z" transform="translate(0 -54.95)" style="fill:#e0e0e0"/><path d="M242.69,350.13H193.15c-.31-2.39-.61-4.79-.91-7.18h49.54C242.08,345.34,242.38,347.74,242.69,350.13Z" transform="translate(0 -54.95)" style="fill:#e0e0e0"/><path d="M272.27,350.13H250.88c-.3-2.39-.61-4.79-.91-7.18h21.39C271.66,345.34,272,347.74,272.27,350.13Z" transform="translate(0 -54.95)" style="fill:#e0e0e0"/><path d="M141,163.55l-1.41-2.24c-3.08-4.9-9.36-9.27-11.53-10.55l1.62-2.87a45.5,45.5,0,0,1,11.26,9.67c4.84-6.59,12-13.4,21.8-20.72l2.07,2.7c-10.46,7.83-17.78,15-22.4,21.9Z" transform="translate(0 -54.95)" style="fill:#407bff"/><path d="M144.8,225.81l-1.47-2.24c-3.2-4.9-9.6-9.28-11.8-10.56l1.53-2.87a47,47,0,0,1,11.53,9.68c4.66-6.6,11.63-13.41,21.24-20.74.71.9,1.43,1.8,2.14,2.71-10.25,7.84-17.38,15-21.81,21.91C145.7,224.4,145.25,225.11,144.8,225.81Z" transform="translate(0 -54.95)" style="fill:#407bff"/><path d="M150.32,288.24,148.79,286c-3.34-4.9-9.86-9.28-12.09-10.55.48-1,1-1.92,1.46-2.87a49.09,49.09,0,0,1,11.78,9.67c4.49-6.6,11.28-13.4,20.68-20.74l2.22,2.71c-10,7.84-17,15-21.23,21.91Z" transform="translate(0 -54.95)" style="fill:#407bff"/><path d="M251.13,385.46c-5.9,0-9.3-2.18-12.3-4.1s-5.58-3.58-10.56-3.58-7.2,1.74-9.55,3.58-5.23,4.1-11.13,4.1-9.3-2.18-12.29-4.1-5.57-3.58-10.56-3.58-7.2,1.74-9.55,3.58-5.23,4.1-11.12,4.1-9.3-2.18-12.3-4.1-5.57-3.58-10.56-3.58c-.13-1-.27-1.92-.4-2.88,5.9,0,9.29,2.18,12.29,4.1s5.57,3.58,10.55,3.58,7.2-1.74,9.55-3.58,5.24-4.1,11.14-4.1,9.28,2.18,12.28,4.1,5.58,3.58,10.56,3.58,7.2-1.74,9.55-3.58,5.24-4.1,11.14-4.1,9.29,2.18,12.29,4.1,5.57,3.58,10.56,3.58C250.85,383.54,251,384.5,251.13,385.46Z" transform="translate(0 -54.95)" style="fill:#ebebeb"/><path d="M259.59,107.07c-3.38-9-11.19-14.91-19.59-14.91H222.88a6.51,6.51,0,0,1-5.95-4,16,16,0,0,0-14.57-9.79,14.17,14.17,0,0,0-13.62,9.79,5.78,5.78,0,0,1-5.57,4H166.06c-8.41,0-15.65,5.94-18.15,14.91l-1,3.57h114Z" transform="translate(0 -54.95)" style="fill:#263238"/><path d="M260.2,114.16H148a3.74,3.74,0,0,1-3.69-3.52h0a3.33,3.33,0,0,1,3.35-3.51H259.86a3.74,3.74,0,0,1,3.69,3.51h0A3.33,3.33,0,0,1,260.2,114.16Z" transform="translate(0 -54.95)" style="fill:#407bff"/><path d="M260.2,114.16H148a3.74,3.74,0,0,1-3.69-3.52h0a3.33,3.33,0,0,1,3.35-3.51H259.86a3.74,3.74,0,0,1,3.69,3.51h0A3.33,3.33,0,0,1,260.2,114.16Z" transform="translate(0 -54.95)" style="opacity:0.2"/></g><g id="Character"><path d="M381.92,218.31l-7-.54,3.67,7.71s6.11.27,7.13-4.4Z" transform="translate(0 -54.95)" style="fill:#b55b52"/><polygon points="416.52 200.96 415.93 202.06 411.96 209.56 271.39 135.22 275.93 126.63 416.52 200.96" style="fill:#407bff"/><polygon points="425.61 183.79 422.71 189.27 421.07 192.37 280.48 118.04 285.02 109.44 425.61 183.79" style="fill:#407bff"/><rect x="343.64" y="134.94" width="9.72" height="159.03" transform="translate(-4.12 367.11) rotate(-62.09)" style="fill:#407bff"/><rect x="343.64" y="134.94" width="9.72" height="159.03" transform="translate(-4.12 367.11) rotate(-62.09)" style="opacity:0.2"/><polygon points="265.33 110.58 261.24 118.31 271.39 135.23 285.02 109.44 265.33 110.58" style="fill:#407bff"/><polygon points="265.33 110.58 261.24 118.31 271.39 135.23 285.02 109.44 265.33 110.58" style="fill:#fff;opacity:0.8"/><polygon points="256.89 111.07 261.24 118.31 265.33 110.58 256.89 111.07" style="fill:#407bff"/></g></svg>