<?xml version="1.0" encoding="utf-8"?>
<!-- Generator: Adobe Illustrator 23.0.1, SVG Export Plug-In . SVG Version: 6.00 Build 0)  -->
<svg version="1.1" id="Layer_1" xmlns="http://www.w3.org/2000/svg" xmlns:xlink="http://www.w3.org/1999/xlink" x="0px" y="0px"
	 viewBox="0 0 473 539" style="enable-background:new 0 0 473 539;" xml:space="preserve">
<style type="text/css">
	.st0{fill:url(#SVGID_1_);}
	.st1{display:none;}
	.st2{display:inline;fill:url(#SVGID_2_);}
	.st3{display:inline;fill:url(#SVGID_3_);}
	.st4{fill:url(#SVGID_4_);}
	.st5{fill:url(#SVGID_5_);}
	.st6{fill:url(#SVGID_6_);}
	.st7{fill:url(#SVGID_7_);}
	.st8{display:none;enable-background:new    ;}
	.st9{font-family:'Arial-BoldMT';}
	.st10{font-size:15.0832px;}
	.st11{fill:url(#SVGID_8_);}
</style>
<title>Artboard 12</title>
<g>
	<g>
		<linearGradient id="SVGID_1_" gradientUnits="userSpaceOnUse" x1="222.0724" y1="-6.8697" x2="230.0724" y2="541.1303">
			<stop  offset="0" style="stop-color:#FF512F"/>
			<stop  offset="1" style="stop-color:#F09819"/>
		</linearGradient>
		<path class="st0" d="M280,468.5H50.8V36.3H294v94.5c0,8.8,5.3,14,14,14l0,0h94.5v203c0,8.8,5.3,14,14,14s14-5.2,14-14v-217
			c0-3.5-1.8-7-5.2-8.8L316.8,13.5c-1.8-1.8-5.3-5.3-8.8-5.3H36.8c-8.8,0-14,5.2-14,14l0,0v460.3c0,8.8,5.3,14,14,14l0,0H280
			c8.8,0,14-5.3,14-14S287,468.5,280,468.5z M320.3,55.5l63,63h-63V55.5z"/>
	</g>
	<g class="st1">
		<linearGradient id="SVGID_2_" gradientUnits="userSpaceOnUse" x1="381.6796" y1="-9.1997" x2="389.6796" y2="538.8003">
			<stop  offset="0" style="stop-color:#FF512F"/>
			<stop  offset="1" style="stop-color:#F09819"/>
		</linearGradient>
		<path class="st2" d="M416.5,442.3h-14V430c0-8.8-5.2-14-14-14s-14,5.3-14,14v14h-14c-8.8,0-14,5.2-14,14s5.3,14,14,14h14v14
			c0,8.8,5.3,14,14,14s14-5.3,14-14v-14h14c8.8,0,14-5.3,14-14S425.3,442.3,416.5,442.3z"/>
	</g>
	<g class="st1">
		<linearGradient id="SVGID_3_" gradientUnits="userSpaceOnUse" x1="383.5045" y1="-9.2263" x2="391.5045" y2="538.7737">
			<stop  offset="0" style="stop-color:#FF512F"/>
			<stop  offset="1" style="stop-color:#F09819"/>
		</linearGradient>
		<path class="st3" d="M390.3,361.8c-52.5,0-94.5,43.8-94.5,94.5s43.8,94.5,94.5,94.5s94.5-43.8,94.5-94.5
			C484.8,403.8,442.8,361.8,390.3,361.8z M390.3,524.5c-36.8,0-68.3-29.8-68.3-68.3s29.8-68.3,68.3-68.3s68.3,29.8,68.3,68.3
			S427,524.5,390.3,524.5z"/>
	</g>
	<g>
		<linearGradient id="SVGID_4_" gradientUnits="userSpaceOnUse" x1="170.4012" y1="-6.1153" x2="178.4012" y2="541.8846">
			<stop  offset="0" style="stop-color:#FF512F"/>
			<stop  offset="1" style="stop-color:#F09819"/>
		</linearGradient>
		<path class="st4" d="M119,144.8h106.8c8.8,0,14-5.3,14-14s-5.3-14-14-14H119c-8.8,0-14,5.3-14,14S110.3,144.8,119,144.8z"/>
	</g>
	<g>
		<linearGradient id="SVGID_5_" gradientUnits="userSpaceOnUse" x1="224.3143" y1="-6.9024" x2="232.3143" y2="541.0976">
			<stop  offset="0" style="stop-color:#FF512F"/>
			<stop  offset="1" style="stop-color:#F09819"/>
		</linearGradient>
		<path class="st5" d="M334.3,197.3H119c-8.8,0-14,5.3-14,14s5.3,14,14,14h217c8.8,0,14-5.3,14-14S343,197.3,334.3,197.3z"/>
	</g>
	<g>
		<linearGradient id="SVGID_6_" gradientUnits="userSpaceOnUse" x1="223.1145" y1="-6.8849" x2="231.1145" y2="541.1151">
			<stop  offset="0" style="stop-color:#FF512F"/>
			<stop  offset="1" style="stop-color:#F09819"/>
		</linearGradient>
		<path class="st6" d="M334.3,279.5H119c-8.8,0-14,5.3-14,14s5.3,14,14,14h217c8.8,0,14-5.3,14-14S343,279.5,334.3,279.5z"/>
	</g>
	<g>
		<linearGradient id="SVGID_7_" gradientUnits="userSpaceOnUse" x1="194.8452" y1="-6.4722" x2="202.8452" y2="541.5278">
			<stop  offset="0" style="stop-color:#FF512F"/>
			<stop  offset="1" style="stop-color:#F09819"/>
		</linearGradient>
		<path class="st7" d="M280,360H119c-8.8,0-14,5.3-14,14s5.3,14,14,14h162.8c8.8,0,14-5.2,14-14S287,360,280,360z"/>
	</g>
</g>
<text transform="matrix(1 0 0 1 -70.2334 280.4028)" class="st8 st9 st10">Created by Deemak Daksina</text>
<text transform="matrix(1 0 0 1 -70.2334 295.5142)" class="st8 st9 st10">from the Noun Project</text>
<path class="st1" d="M469.5,315c-12.3-12.3-33.3-12.3-45.5,0L317.3,421.8l-1.8,1.8L305,469c0,1.8,0,5.2,1.8,7s1.8,1.8,5.3,1.8h3.5
	l45.5-10.5c1.8,0,1.8,0,1.8-1.8l106.8-106.8c5.3-5.3,10.5-15.8,10.5-22.8C480,330.8,474.8,320.3,469.5,315z M354,455l-29.8,7l7-29.8
	l89.3-89.3l22.8,22.8L354,455z M460.8,348.3l-5.3,5.3l-22.8-22.7l5.3-5.3c5.3-5.2,15.8-5.2,22.8,0c1.8,1.8,5.3,7,5.3,10.5
	C462.5,341.3,462.5,346.5,460.8,348.3z"/>
<g transform="translate(0,-952.36218)">
	<g>
		<linearGradient id="SVGID_8_" gradientUnits="userSpaceOnUse" x1="361.3152" y1="943.4598" x2="369.3152" y2="1491.4597">
			<stop  offset="0" style="stop-color:#FF512F"/>
			<stop  offset="1" style="stop-color:#F09819"/>
		</linearGradient>
		<path class="st11" d="M374.9,1316.3c-35.3,0-65.7,21-79,51.2l-6.1-10.8c-1.5-2.8-4.3-4.4-7.5-4.4c-4.5,0.1-8.2,3.9-8.1,8.4
			c0,1.4,0.4,2.7,1.1,3.9l15.1,27c2.2,3.9,7,5.3,11,3.3l26.9-13.7c4.1-1.9,6-6.8,4.1-10.9s-6.8-6-10.9-4.1c-0.2,0.1-0.4,0.2-0.6,0.3
			l-8.4,4.3c11.4-22.5,35-38.1,62.5-38.1c38.6,0,69.7,30.7,69.7,68.6c0,37.6-30.5,68.1-68.7,68.6c-4.5,0-8.2,3.7-8.2,8.2
			s3.7,8.2,8.2,8.2c0.1,0,0.1,0,0.2,0c46.9-0.6,85-38.5,85-85.1C461,1354.4,422.3,1316.3,374.9,1316.3L374.9,1316.3z M375.8,1349
			c-4.5,0-8.2,3.8-8.2,8.3v0.1v43.9c0,2.5,1.1,4.9,3.1,6.4l27.5,22c3.6,2.8,8.7,2.3,11.6-1.3c2.8-3.6,2.3-8.7-1.3-11.6l0,0
			l-24.4-19.5v-40c0.1-4.5-3.5-8.3-8.1-8.4C376,1349,375.9,1349,375.8,1349L375.8,1349z"/>
	</g>
</g>
</svg>
