<?xml version="1.0" encoding="utf-8"?>
<!-- Generator: Adobe Illustrator 23.0.1, SVG Export Plug-In . SVG Version: 6.00 Build 0)  -->
<svg version="1.1" id="Layer_1" xmlns="http://www.w3.org/2000/svg" xmlns:xlink="http://www.w3.org/1999/xlink" x="0px" y="0px"
	 viewBox="0 0 45.7 50" style="enable-background:new 0 0 45.7 50;" xml:space="preserve">
<style type="text/css">
	.st0{fill:none;}
	.st1{fill:#F26522;}
</style>
<title>dynamic-configuration</title>
<path class="st0" d="M39.5,29.9v6.5c-2.6,0.4-4.7,2.7-4.7,5.4c0,0.8,0.2,1.5,0.4,2.1l-5.8,3.3c-0.5,0.3-1.1,0.3-1.6,0L22.1,44
	c0.3-0.7,0.4-1.4,0.4-2.2c0-2.8-2-5-4.7-5.4v-6.5c0-0.6,0.3-1.1,0.8-1.4l5.8-3.4c1,1.2,2.5,2,4.2,2c1.7,0,3.2-0.8,4.2-2l5.8,3.4
	C39.2,28.8,39.5,29.4,39.5,29.9z"/>
<path class="st0" d="M27.8,9.4v6.9c-2.7,0.4-4.7,2.7-4.7,5.4c0,0.6,0.1,1.3,0.3,1.8l-5.7,3.3c-0.5,0.3-1.1,0.3-1.6,0L7,21.4
	c-0.5-0.3-0.8-0.8-0.8-1.4v-6.4C8.9,13.3,11,11,11,8.2c0-0.8-0.2-1.6-0.5-2.3l5.7-3.3c0.5-0.3,1.1-0.3,1.6,0L27,8
	C27.5,8.3,27.8,8.8,27.8,9.4z"/>
<path class="st1" d="M41.4,36.4v-7.6c0-0.6-0.3-1.1-0.8-1.4l-6.8-3.9c0.2-0.6,0.3-1.2,0.3-1.8c0-2.7-1.9-4.9-4.4-5.4v-8
	c0-0.6-0.3-1.1-0.8-1.4L17.8,0.4c-0.5-0.3-1.1-0.3-1.6,0l-6.8,4c-1-1-2.4-1.6-3.9-1.6C2.5,2.7,0,5.2,0,8.2c0,2.6,1.8,4.8,4.2,5.4
	v7.6c0,0.6,0.3,1.1,0.8,1.4l10.9,6.3v7.6c-2.5,0.5-4.4,2.7-4.4,5.4c0,3,2.5,5.5,5.5,5.5c1.6,0,3-0.7,4-1.7l6.9,4
	c0.5,0.3,1.1,0.3,1.6,0l6.9-4c1,1.1,2.4,1.7,4,1.7c3,0,5.5-2.5,5.5-5.5C45.8,39.2,43.9,37,41.4,36.4z M29.8,18.3
	c1.4,0.5,2.4,1.8,2.4,3.3c0,0.3,0,0.6-0.1,0.8c-0.2,0.7-0.5,1.3-1,1.7c-0.6,0.6-1.5,1-2.4,1s-1.8-0.4-2.4-1c0,0,0,0,0,0
	c-0.5-0.5-0.8-1-0.9-1.7c0,0,0,0,0,0c-0.1-0.3-0.1-0.5-0.1-0.8c0-1.7,1.1-3,2.7-3.4c0.3-0.1,0.5-0.1,0.8-0.1
	C29.1,18.1,29.4,18.2,29.8,18.3z M4.2,11.5C2.9,11,2,9.7,2,8.2c0-1.9,1.6-3.5,3.5-3.5C6.3,4.7,7,5,7.6,5.4c0.5,0.4,1,0.9,1.2,1.6
	C8.9,7.4,9,7.8,9,8.2c0,1.7-1.2,3.1-2.8,3.4c-0.2,0-0.5,0.1-0.7,0.1C5,11.7,4.6,11.6,4.2,11.5z M7,21.4c-0.5-0.3-0.8-0.8-0.8-1.4
	v-6.4C8.9,13.3,11,11,11,8.2c0-0.8-0.2-1.6-0.5-2.3l5.7-3.3c0.5-0.3,1.1-0.3,1.6,0L27,8c0.5,0.3,0.8,0.8,0.8,1.4v6.9
	c-2.7,0.4-4.7,2.7-4.7,5.4c0,0.6,0.1,1.3,0.3,1.8l-5.7,3.3c-0.5,0.3-1.1,0.3-1.6,0L7,21.4z M20.3,42.9c-0.2,0.6-0.6,1.2-1.1,1.6
	c-0.6,0.5-1.3,0.8-2.2,0.8c-1.9,0-3.5-1.6-3.5-3.5c0-1.5,1-2.8,2.4-3.3c0.4-0.1,0.7-0.2,1.1-0.2c0.3,0,0.6,0,0.8,0.1
	c1.5,0.4,2.7,1.7,2.7,3.4C20.5,42.2,20.4,42.6,20.3,42.9z M34.8,41.8c0,0.8,0.2,1.5,0.4,2.1l-5.8,3.3c-0.5,0.3-1.1,0.3-1.6,0
	L22.1,44c0.3-0.7,0.4-1.4,0.4-2.2c0-2.8-2-5-4.7-5.4v-6.5c0-0.6,0.3-1.1,0.8-1.4l5.8-3.4c1,1.2,2.5,2,4.2,2c1.7,0,3.2-0.8,4.2-2
	l5.8,3.4c0.5,0.3,0.8,0.8,0.8,1.4v6.5C36.8,36.8,34.8,39.1,34.8,41.8z M40.3,45.3c-0.8,0-1.6-0.3-2.2-0.8c-0.5-0.4-0.9-1-1.1-1.6
	c-0.1-0.3-0.2-0.7-0.2-1.1c0-1.6,1.1-3,2.7-3.4c0.3-0.1,0.5-0.1,0.8-0.1c0.4,0,0.8,0.1,1.1,0.2c1.4,0.5,2.4,1.8,2.4,3.3
	C43.8,43.7,42.2,45.3,40.3,45.3z"/>
</svg>
