<svg xmlns="http://www.w3.org/2000/svg" width="499.19" height="397.9" viewBox="0 0 499.19 397.9"><title>effective-document</title><g id="Floor"><path d="M73.91,404.76c97.48,50.92,255.51,50.92,353,0s97.48-133.48,0-184.4-255.5-50.92-353,0S-23.56,353.84,73.91,404.76Z" transform="translate(-0.81 -45.04)" style="fill:#f5f5f5"/></g><g id="Filing_Cabinets" data-name="Filing Cabinets"><polygon points="45.89 276.21 14.21 257.92 14.21 189.97 45.89 208.26 45.89 276.21" style="fill:#e0e0e0"/><polygon points="45.89 208.26 91.16 182.13 91.16 250.08 45.89 276.21 45.89 208.26" style="fill:#ebebeb"/><polygon points="91.16 182.13 45.89 208.26 14.21 189.97 59.47 163.83 91.16 182.13" style="fill:#f5f5f5"/><polygon points="50.42 210.87 86.64 189.97 87.47 190.45 87.47 215.62 51.25 236.53 50.42 236.04 50.42 210.87" style="fill:#e0e0e0"/><polygon points="51.25 211.35 87.47 190.45 87.47 215.62 51.25 236.53 51.25 211.35" style="fill:#f5f5f5"/><path d="M66.26,252.47l6.16-3.56c.8-.46,1.44-.25,1.44.47a2.9,2.9,0,0,1-1.44,2.15l-6.16,3.55c-.8.46-1.45.25-1.45-.47A2.9,2.9,0,0,1,66.26,252.47Z" transform="translate(-0.81 -45.04)" style="fill:#e0e0e0"/><polygon points="49.59 242.72 85.8 221.81 85.8 246.99 86.64 247.47 50.42 268.38 49.59 267.89 49.59 242.72" style="fill:#e0e0e0"/><polygon points="50.42 243.21 86.64 222.29 86.64 247.47 50.42 268.38 50.42 243.21" style="fill:#f5f5f5"/><path d="M65.43,284.32l6.15-3.56c.8-.46,1.45-.25,1.45.47a2.93,2.93,0,0,1-1.45,2.15l-6.16,3.55c-.8.46-1.44.25-1.44-.47A2.9,2.9,0,0,1,65.43,284.32Z" transform="translate(-0.81 -45.04)" style="fill:#e0e0e0"/><polygon points="45.89 204.34 14.2 186.04 14.2 118.09 45.89 136.39 45.89 204.34" style="fill:#e0e0e0"/><polygon points="45.89 136.39 91.16 110.25 91.16 178.21 45.89 204.34 45.89 136.39" style="fill:#ebebeb"/><polygon points="91.16 110.25 45.89 136.39 14.2 118.09 59.47 91.95 91.16 110.25" style="fill:#f5f5f5"/><polygon points="50.42 139 86.64 118.09 87.47 118.57 87.47 143.74 51.25 164.65 50.42 164.17 50.42 139" style="fill:#e0e0e0"/><path d="M66.26,180.59,72.42,177c.79-.46,1.44-.25,1.44.47a2.91,2.91,0,0,1-1.44,2.14l-6.16,3.56c-.8.46-1.45.25-1.45-.47A2.91,2.91,0,0,1,66.26,180.59Z" transform="translate(-0.81 -45.04)" style="fill:#e0e0e0"/><polygon points="49.59 170.85 85.8 149.94 85.8 175.11 86.63 175.59 50.42 196.5 49.59 196.02 49.59 170.85" style="fill:#e0e0e0"/><polygon points="50.42 171.33 86.64 150.42 86.63 175.59 50.42 196.5 50.42 171.33" style="fill:#f5f5f5"/><path d="M65.42,212.44l6.16-3.55c.8-.46,1.45-.25,1.45.47a2.9,2.9,0,0,1-1.45,2.14l-6.16,3.56c-.8.46-1.44.25-1.44-.47A2.88,2.88,0,0,1,65.42,212.44Z" transform="translate(-0.81 -45.04)" style="fill:#e0e0e0"/><polygon points="50.42 139 86.64 118.09 86.63 143.26 50.42 164.17 50.42 139" style="fill:#e0e0e0"/><polygon points="104.74 130.53 84.92 119.08 84.92 141.26 104.74 152.7 104.74 130.53" style="fill:#e0e0e0"/><polygon points="64 167.75 64 136.38 71.77 131.88 73.05 133.77 95.69 120.7 95.69 149.45 64 167.75" style="fill:#ebebeb"/><polygon points="64 167.75 66.26 140.31 97.95 122.01 95.69 149.45 64 167.75" style="fill:#f5f5f5"/><polygon points="68.53 151.44 51.25 141.46 51.25 163.63 68.53 173.61 68.53 151.44" style="fill:#ebebeb"/><polygon points="68.53 149.45 104.74 128.54 104.74 153.72 68.53 174.62 68.53 149.45" style="fill:#f5f5f5"/><path d="M83.53,190.57,89.69,187c.8-.46,1.45-.25,1.45.47a2.9,2.9,0,0,1-1.45,2.14l-6.16,3.56c-.8.46-1.45.25-1.45-.47A2.9,2.9,0,0,1,83.53,190.57Z" transform="translate(-0.81 -45.04)" style="fill:#e0e0e0"/><polygon points="68.53 149.45 67.32 148.76 67.32 173.93 68.53 174.62 68.53 149.45" style="fill:#e0e0e0"/><polygon points="67.32 148.76 103.54 127.85 104.74 128.54 68.53 149.45 67.32 148.76" style="fill:#ebebeb"/><polygon points="420.21 235.04 388.52 216.75 388.52 148.79 420.21 167.09 420.21 235.04" style="fill:#e0e0e0"/><polygon points="420.21 167.09 465.48 140.95 465.48 208.9 420.21 235.04 420.21 167.09" style="fill:#ebebeb"/><polygon points="465.48 140.95 420.21 167.09 388.52 148.79 433.79 122.66 465.48 140.95" style="fill:#f5f5f5"/><polygon points="424.74 169.7 460.95 148.79 461.79 149.27 461.79 174.44 425.57 195.35 424.74 194.87 424.74 169.7" style="fill:#e0e0e0"/><polygon points="425.57 170.18 461.79 149.27 461.79 174.44 425.57 195.35 425.57 170.18" style="fill:#f5f5f5"/><path d="M440.58,211.29l6.15-3.55c.8-.46,1.45-.25,1.45.47a2.9,2.9,0,0,1-1.45,2.14l-6.15,3.56c-.8.46-1.45.25-1.45-.47A2.91,2.91,0,0,1,440.58,211.29Z" transform="translate(-0.81 -45.04)" style="fill:#e0e0e0"/><polygon points="423.91 201.55 460.12 180.64 460.12 205.81 460.95 206.29 424.74 227.2 423.91 226.72 423.91 201.55" style="fill:#e0e0e0"/><polygon points="424.74 202.03 460.95 181.12 460.95 206.29 424.74 227.2 424.74 202.03" style="fill:#f5f5f5"/><path d="M439.74,243.14l6.16-3.55c.8-.46,1.45-.25,1.45.47a2.9,2.9,0,0,1-1.45,2.14l-6.16,3.56c-.8.46-1.45.25-1.45-.47A2.92,2.92,0,0,1,439.74,243.14Z" transform="translate(-0.81 -45.04)" style="fill:#e0e0e0"/></g><g id="Plants"><path d="M119.51,351.12s.14-17.68-11-30.93c-9.87-11.74-15.12-19.18-12-22.61s9.79-4.26,18.81,5.23,9.71,35.79,8.47,41.74Z" transform="translate(-0.81 -45.04)" style="fill:#28bbdd"/><path d="M119.51,351.12s.14-17.68-11-30.93c-9.87-11.74-15.12-19.18-12-22.61s9.79-4.26,18.81,5.23,9.71,35.79,8.47,41.74Z" transform="translate(-0.81 -45.04)" style="opacity:0.2"/><path d="M121.44,332.11a.57.57,0,0,1-.55-.44C117,313.43,107,303.34,101.35,299a.56.56,0,0,1,.69-.88c5.74,4.48,16,14.78,19.94,33.37a.55.55,0,0,1-.43.66Z" transform="translate(-0.81 -45.04)" style="fill:#fff"/><path d="M119.13,357.69l-4.52,2.61a8.2,8.2,0,0,0-6.12-5.22c-4.95-1.16-10.1-.93-13.57-5.23s.75-9,0-12.14-1.26-4.08-7.48-7.25-8.67-8.41-4-12,12.28-.95,16.86,2.17c4.08,2.79,8,3.53,12.51,4.09s12,3.1,10.84,13.69A83,83,0,0,1,119.13,357.69Z" transform="translate(-0.81 -45.04)" style="fill:#28bbdd"/><path d="M101.7,343.77a.56.56,0,0,1-.17-1.09c.41-.13,10-3.18,14.12.09a.57.57,0,0,1,.09.79.55.55,0,0,1-.78.08c-3.62-2.9-13,.07-13.09.1Z" transform="translate(-0.81 -45.04)" style="fill:#fff"/><path d="M119.65,356.83a.56.56,0,0,1-.56-.5c-2.48-23.47-30.75-34.6-31-34.71a.56.56,0,0,1-.32-.72.55.55,0,0,1,.72-.32c.29.11,29.2,11.48,31.75,35.64a.56.56,0,0,1-.5.61Z" transform="translate(-0.81 -45.04)" style="fill:#fff"/><path d="M396.83,342.26c.13-.38,4.91-25,0-42.45-4.5-16-10.27-21.91-18.56-23.21s-11.88,4.67-7.48,12.75,15,18.83,17.59,36.91c1.08,7.44,2,13.9,2,13.9Z" transform="translate(-0.81 -45.04)" style="fill:#28bbdd"/><path d="M396.83,342.26c.13-.38,4.91-25,0-42.45-4.5-16-10.27-21.91-18.56-23.21s-11.88,4.67-7.48,12.75,15,18.83,17.59,36.91c1.08,7.44,2,13.9,2,13.9Z" transform="translate(-0.81 -45.04)" style="opacity:0.2"/><path d="M394.05,328.13h0a.56.56,0,0,1-.52-.59c1.14-19.92-5.39-37.72-17.06-46.44a.55.55,0,0,1-.11-.78.57.57,0,0,1,.78-.11c12,8.94,18.67,27.1,17.5,47.39A.55.55,0,0,1,394.05,328.13Z" transform="translate(-0.81 -45.04)" style="fill:#fff"/><path d="M409.67,355.08c-.64-4.58,2-11.45,8.24-13.07s9-5.22,6.79-9.14-1.73-7.52,3.95-9.16,10.64-4.48,7.37-10.45c-2.37-4.33-2.9-7.14,2.92-15.68,4.82-7.09.88-11.24-5.16-10.46s-9.77,8-13.54,9.19-4.66-5.23-9.64-2.35-4.67,10.24-4.83,15.38-.5,6.3-5,5.67-8.9.11-8.81,11c.07,9.35,5.06,20.91,5.06,20.91Z" transform="translate(-0.81 -45.04)" style="fill:#28bbdd"/><path d="M401.77,348.11h-.07a.57.57,0,0,1-.49-.62c3.14-28.08,27.24-51.75,33.52-56.56a.55.55,0,0,1,.78.11.56.56,0,0,1-.1.78c-6.21,4.74-30,28.11-33.09,55.79A.55.55,0,0,1,401.77,348.11Z" transform="translate(-0.81 -45.04)" style="fill:#fff"/><path d="M412.75,318.1a.57.57,0,0,1-.52-.36.56.56,0,0,1,.33-.72c9-3.34,19.17-1.77,19.6-1.7a.56.56,0,0,1-.17,1.1c-.11,0-10.33-1.6-19,1.65A.69.69,0,0,1,412.75,318.1Z" transform="translate(-0.81 -45.04)" style="fill:#fff"/><path d="M404.75,335a.55.55,0,0,1-.42-.19A32.81,32.81,0,0,1,397,319.55a.56.56,0,0,1,.47-.64.55.55,0,0,1,.63.47A32.37,32.37,0,0,0,405.17,334a.56.56,0,0,1-.42.93Z" transform="translate(-0.81 -45.04)" style="fill:#fff"/></g><g id="Folder_2" data-name="Folder 2"><polygon points="118.33 140.15 118.33 312.65 294.88 210.72 294.88 53.9 163.59 129.69 159.07 116.63 118.33 140.15" style="fill:#28bbdd"/><polygon points="118.33 140.15 118.33 312.65 294.88 210.72 294.88 53.9 163.59 129.69 159.07 116.63 118.33 140.15" style="opacity:0.7000000000000001"/><polygon points="118.33 312.65 127.38 155.83 303.93 53.9 294.88 210.72 118.33 312.65" style="fill:#e0e0e0"/><polygon points="118.33 312.65 131.91 158.44 308.46 56.51 294.88 210.72 118.33 312.65" style="fill:#28bbdd"/><polygon points="118.33 312.65 131.91 158.44 308.46 56.51 294.88 210.72 118.33 312.65" style="opacity:0.7000000000000001"/></g><g id="Folder_1" data-name="Folder 1"><polygon points="145.49 155.83 145.49 328.33 322.04 226.4 322.04 69.58 190.76 145.38 186.23 132.31 145.49 155.83" style="fill:#28bbdd"/><polygon points="145.49 155.83 145.49 328.33 322.04 226.4 322.04 69.58 190.76 145.38 186.23 132.31 145.49 155.83" style="opacity:0.5"/><polygon points="145.49 328.33 154.54 171.51 331.09 69.58 322.04 226.4 145.49 328.33" style="fill:#e0e0e0"/><polygon points="145.49 328.33 159.07 174.13 335.62 72.19 322.04 226.4 145.49 328.33" style="fill:#28bbdd"/><polygon points="145.49 328.33 159.07 174.13 335.62 72.19 322.04 226.4 145.49 328.33" style="opacity:0.5"/></g><g id="Documents"><path d="M295.69,428.26C264,410,234.6,390.07,221.18,366.73l40.74-23.52Z" transform="translate(-0.81 -45.04)" style="fill:#e0e0e0"/><polygon points="177.18 174.13 177.18 346.63 353.73 244.69 353.73 87.88 222.44 163.67 217.92 150.6 177.18 174.13" style="fill:#28bbdd"/><polygon points="177.18 174.13 177.18 346.63 353.73 244.69 353.73 87.88 222.44 163.67 217.92 150.6 177.18 174.13" style="opacity:0.2"/><path d="M228.85,270.17c-.45,0-.51-.51-.51-.82V122.22a3.68,3.68,0,0,1,1.65-2.86L357.41,45.79a1.23,1.23,0,0,1,.58-.19c.45,0,.51.51.51.82V193.55a3.71,3.71,0,0,1-1.65,2.87L229.43,270A1.16,1.16,0,0,1,228.85,270.17Z" transform="translate(-0.81 -45.04)" style="fill:#fff"/><path d="M357.92,46.17a1.2,1.2,0,0,1,0,.25V193.55a3.18,3.18,0,0,1-1.38,2.38L229.15,269.5a.78.78,0,0,1-.23.1,1.11,1.11,0,0,1,0-.25V122.22a3.18,3.18,0,0,1,1.38-2.38L357.69,46.27a.78.78,0,0,1,.23-.1M358,45a1.75,1.75,0,0,0-.86.27L229.71,118.87a4.28,4.28,0,0,0-1.93,3.35V269.35c0,.87.43,1.38,1.07,1.38a1.75,1.75,0,0,0,.86-.27L357.13,196.9a4.26,4.26,0,0,0,1.93-3.35V46.42c0-.87-.43-1.38-1.07-1.38Z" transform="translate(-0.81 -45.04)" style="fill:#28bbdd"/><path d="M357.92,46.17a1.2,1.2,0,0,1,0,.25V193.55a3.18,3.18,0,0,1-1.38,2.38L229.15,269.5a.78.78,0,0,1-.23.1,1.11,1.11,0,0,1,0-.25V122.22a3.18,3.18,0,0,1,1.38-2.38L357.69,46.27a.78.78,0,0,1,.23-.1M358,45a1.75,1.75,0,0,0-.86.27L229.71,118.87a4.28,4.28,0,0,0-1.93,3.35V269.35c0,.87.43,1.38,1.07,1.38a1.75,1.75,0,0,0,.86-.27L357.13,196.9a4.26,4.26,0,0,0,1.93-3.35V46.42c0-.87-.43-1.38-1.07-1.38Z" transform="translate(-0.81 -45.04)" style="fill:#fff;opacity:0.7000000000000001"/><polygon points="240.55 82.78 285.82 56.65 285.82 108.92 240.55 135.06 240.55 82.78" style="fill:#28bbdd"/><polygon points="240.55 82.78 285.82 56.65 285.82 108.92 240.55 135.06 240.55 82.78" style="fill:#fff;opacity:0.8"/><path d="M279.84,114.76v15.68l-1.42.79v-4.8c0-2.65-2.16-3.56-4.82-2L254.39,135.5c-2.66,1.54-4.82,4.93-4.82,7.59v4.8l-1.42.85V133.06Z" transform="translate(-0.81 -45.04)" style="fill:#fff"/><path d="M271.11,154.73c-2.32,1.34-4.21-.07-4.21-3.15V126.43l-5.81,3.17v25.34c0,3.08-1.88,6.66-4.21,8l-4.2,2.43V167L275.31,154V152.3Z" transform="translate(-0.81 -45.04)" style="fill:#fff"/><path d="M295.68,99.08c0,1.44,1.3,1.86,2.9.94l44-25.41a5.79,5.79,0,0,0,2.9-4.28c0-1.44-1.3-1.87-2.9-.94l-44,25.4A5.83,5.83,0,0,0,295.68,99.08Z" transform="translate(-0.81 -45.04)" style="fill:#455a64"/><path d="M295.68,114.76c0,1.44,1.3,1.87,2.9.94l44-25.4a5.83,5.83,0,0,0,2.9-4.29c0-1.44-1.3-1.86-2.9-.94l-44,25.4A5.83,5.83,0,0,0,295.68,114.76Z" transform="translate(-0.81 -45.04)" style="fill:#455a64"/><path d="M295.68,130.44c0,1.45,1.3,1.87,2.9.94l44-25.4a5.81,5.81,0,0,0,2.9-4.29c0-1.44-1.3-1.86-2.9-.94l-44,25.41A5.79,5.79,0,0,0,295.68,130.44Z" transform="translate(-0.81 -45.04)" style="fill:#455a64"/><path d="M295.68,146.12c0,1.45,1.3,1.87,2.9.95l44-25.41a5.79,5.79,0,0,0,2.9-4.29c0-1.44-1.3-1.86-2.9-.94l-44,25.41A5.79,5.79,0,0,0,295.68,146.12Z" transform="translate(-0.81 -45.04)" style="fill:#455a64"/><path d="M241.36,193.17c0,1.45,1.3,1.87,2.9,1l98.32-56.78a5.79,5.79,0,0,0,2.9-4.28c0-1.45-1.3-1.87-2.9-.95l-98.32,56.78A5.79,5.79,0,0,0,241.36,193.17Z" transform="translate(-0.81 -45.04)" style="fill:#455a64"/><path d="M241.36,208.86c0,1.44,1.3,1.86,2.9.94L342.58,153a5.79,5.79,0,0,0,2.9-4.28c0-1.45-1.3-1.87-2.9-.94l-98.32,56.77A5.79,5.79,0,0,0,241.36,208.86Z" transform="translate(-0.81 -45.04)" style="fill:#455a64"/><path d="M241.36,224.54c0,1.44,1.3,1.86,2.9.94l98.32-56.77a5.83,5.83,0,0,0,2.9-4.29c0-1.44-1.3-1.87-2.9-.94l-98.32,56.77A5.81,5.81,0,0,0,241.36,224.54Z" transform="translate(-0.81 -45.04)" style="fill:#455a64"/><polygon points="177.18 346.63 208.86 208.1 385.41 106.17 353.73 244.69 177.18 346.63" style="fill:#28bbdd"/><polygon points="220.37 218.95 220.37 321.69 261.11 298.17 261.11 195.43 220.37 218.95" style="fill:#28bbdd"/><polygon points="220.37 218.95 220.37 321.69 261.11 298.17 261.11 195.43 220.37 218.95" style="opacity:0.2"/><path d="M295.72,427.59c-3.46-2.58-36.87-28.11-53.85-64.59-18.08-38.83-18.07-84.11-18.06-101.16v-.53l121.11-69.93c0,17.21,0,62.56,18.16,101.52,16.59,35.63,48.73,60.88,53.82,64.73Z" transform="translate(-0.81 -45.04)" style="fill:#fff"/><path d="M344.37,192.35c0,17.92.34,62.42,18.21,100.79,16,34.43,46.52,59.19,53.32,64.43L295.76,426.93c-4.69-3.54-36.85-28.65-53.39-64.17-18-38.71-18-83.91-18-100.92v-.21l120-69.28m1.11-1.93L223.25,261c0,16-.34,62.63,18.11,102.24,18.11,38.89,54.33,65,54.33,65l122.22-70.57s-36.21-26.14-54.32-65c-18.45-39.62-18.11-86.22-18.11-102.25Z" transform="translate(-0.81 -45.04)" style="fill:#28bbdd"/><path d="M344.37,192.35c0,17.92.34,62.42,18.21,100.79,16,34.43,46.52,59.19,53.32,64.43L295.76,426.93c-4.69-3.54-36.85-28.65-53.39-64.17-18-38.71-18-83.91-18-100.92v-.21l120-69.28m1.11-1.93L223.25,261c0,16-.34,62.63,18.11,102.24,18.11,38.89,54.33,65,54.33,65l122.22-70.57s-36.21-26.14-54.32-65c-18.45-39.62-18.11-86.22-18.11-102.25Z" transform="translate(-0.81 -45.04)" style="fill:#fff;opacity:0.7000000000000001"/><path d="M331.66,214.08,293,236.4c-1.6.92-2.86,2.81-2.8,4.23s1.4,1.81,3,.88l38.65-22.32c1.6-.92,2.85-2.81,2.79-4.22S333.26,213.16,331.66,214.08Z" transform="translate(-0.81 -45.04)" style="fill:#455a64"/><path d="M332.48,229.29,293.83,251.6c-1.6.93-2.81,2.79-2.7,4.17s1.53,1.74,3.13.81l38.65-22.31c1.6-.93,2.79-2.79,2.67-4.16S334.08,228.36,332.48,229.29Z" transform="translate(-0.81 -45.04)" style="fill:#455a64"/><path d="M334,244.08,295.37,266.4c-1.6.92-2.75,2.75-2.56,4.08s1.65,1.67,3.25.75l38.65-22.32c1.6-.93,2.73-2.75,2.54-4.09S335.62,243.15,334,244.08Z" transform="translate(-0.81 -45.04)" style="fill:#455a64"/><path d="M336.34,258.42l-38.65,22.32c-1.6.92-2.7,2.72-2.43,4s1.78,1.59,3.38.67l38.65-22.32c1.6-.92,2.67-2.72,2.41-4S337.94,257.5,336.34,258.42Z" transform="translate(-0.81 -45.04)" style="fill:#455a64"/><path d="M339.49,272.29l-38.66,22.32c-1.6.92-2.63,2.68-2.29,3.93s1.93,1.5,3.53.58l38.66-22.32c1.6-.92,2.6-2.68,2.26-3.92S341.09,271.36,339.49,272.29Z" transform="translate(-0.81 -45.04)" style="fill:#455a64"/><path d="M343.51,285.65,249.3,340c-1.6.93-2.57,2.65-2.13,3.84s2.09,1.41,3.69.49L345.07,290c1.6-.92,2.53-2.63,2.1-3.83S345.11,284.72,343.51,285.65Z" transform="translate(-0.81 -45.04)" style="fill:#455a64"/><path d="M348.53,298.41,254.32,352.8c-1.6.92-2.48,2.6-1.95,3.74s2.26,1.31,3.86.38l94.21-54.39c1.6-.92,2.46-2.59,1.93-3.73S350.13,297.48,348.53,298.41Z" transform="translate(-0.81 -45.04)" style="fill:#455a64"/><path d="M354.68,310.57,260.46,365c-1.6.93-2.39,2.56-1.76,3.63s2.46,1.2,4.06.28L357,314.47c1.6-.92,2.37-2.53,1.73-3.61S356.27,309.65,354.68,310.57Z" transform="translate(-0.81 -45.04)" style="fill:#455a64"/><path d="M361.93,322.06l-94.22,54.4c-1.59.92-2.31,2.51-1.58,3.53s2.63,1.09,4.23.17l94.21-54.4c1.6-.92,2.29-2.49,1.56-3.51S363.53,321.14,361.93,322.06Z" transform="translate(-0.81 -45.04)" style="fill:#455a64"/><path d="M370.15,333l-94.21,54.39c-1.6.92-2.25,2.47-1.44,3.44s2.78,1,4.38.09l94.22-54.4c1.59-.92,2.22-2.45,1.41-3.42S371.75,332.07,370.15,333Z" transform="translate(-0.81 -45.04)" style="fill:#455a64"/><path d="M379.26,343.41,285,397.81c-1.6.92-2.18,2.43-1.29,3.36s2.92.92,4.52,0l94.22-54.39c1.59-.93,2.16-2.42,1.27-3.35S380.86,342.49,379.26,343.41Z" transform="translate(-0.81 -45.04)" style="fill:#455a64"/><path d="M389.22,353.36,295,407.75c-1.6.92-2.12,2.4-1.15,3.29s3.06.84,4.66-.09l94.21-54.39c1.6-.92,2.1-2.38,1.13-3.26S390.82,352.43,389.22,353.36Z" transform="translate(-0.81 -45.04)" style="fill:#455a64"/><path d="M279,244.49l-44.45,25.66c.49,16.09,2.33,39.33,9.07,62.72l44.44-25.67C281.33,283.82,279.49,260.58,279,244.49Z" transform="translate(-0.81 -45.04)" style="fill:#28bbdd"/><path d="M279,244.49l-44.45,25.66c.49,16.09,2.33,39.33,9.07,62.72l44.44-25.67C281.33,283.82,279.49,260.58,279,244.49Z" transform="translate(-0.81 -45.04)" style="fill:#fff;opacity:0.8"/><path d="M252.68,266.58a7.38,7.38,0,0,0-2.17-5.65l-16,9.22c.13,4.25.36,9,.74,14.13a10.44,10.44,0,0,0,6-1.06C247.6,280.3,252.68,272.85,252.68,266.58Z" transform="translate(-0.81 -45.04)" style="fill:#28bbdd"/><path d="M252.68,266.58a7.38,7.38,0,0,0-2.17-5.65l-16,9.22c.13,4.25.36,9,.74,14.13a10.44,10.44,0,0,0,6-1.06C247.6,280.3,252.68,272.85,252.68,266.58Z" transform="translate(-0.81 -45.04)" style="fill:#fff;opacity:0.6000000000000001"/><path d="M284.29,291.83h0c-3-3.74-9-15.27-11.57-20.3a1.12,1.12,0,0,0-2.06.19A122.33,122.33,0,0,0,265.84,301a42.4,42.4,0,0,1-9.43-10.51,1,1,0,0,0-1.77.31c-4.86,18.72-2.42,37.12-2.42,37.12h0l35.84-20.7C286.58,302,285.34,296.9,284.29,291.83Z" transform="translate(-0.81 -45.04)" style="fill:#28bbdd"/><path d="M284.29,291.83h0c-3-3.74-9-15.27-11.57-20.3a1.12,1.12,0,0,0-2.06.19A122.33,122.33,0,0,0,265.84,301a42.4,42.4,0,0,1-9.43-10.51,1,1,0,0,0-1.77.31c-4.86,18.72-2.42,37.12-2.42,37.12h0l35.84-20.7C286.58,302,285.34,296.9,284.29,291.83Z" transform="translate(-0.81 -45.04)" style="fill:#fff;opacity:0.6000000000000001"/></g></svg>