<?xml version="1.0" encoding="utf-8"?>
<!-- Generator: Adobe Illustrator 18.0.0, SVG Export Plug-In . SVG Version: 6.00 Build 0)  -->
<!DOCTYPE svg PUBLIC "-//W3C//DTD SVG 1.1//EN" "http://www.w3.org/Graphics/SVG/1.1/DTD/svg11.dtd">
<svg version="1.1" id="Capa_1" xmlns="http://www.w3.org/2000/svg" xmlns:xlink="http://www.w3.org/1999/xlink" x="0px" y="0px"
	 viewBox="90.3 90.3 53.7 53.7" enable-background="new 90.3 90.3 53.7 53.7" xml:space="preserve">
<g>
	<g id="_x37_3_37_">
		<g>
			<path fill="#F26522" d="M123.2,117.3c-1.6,0-3.2,0-4.8,0v-6.1h-2.5v6.1c-1.6,0-3.2,0-4.8,0c-0.1,0-0.2,0-0.3,0h-1v2.5h6.1v5.9
				h2.5v-5.9h6v-2.5h-0.9C123.4,117.3,123.3,117.3,123.2,117.3z"/>
			<path fill="#F26522" d="M129.4,91.8H97.6v50.7h39.1V98.8L129.4,91.8z M133.3,139.1H101v-44h26.7v5.4h5.6L133.3,139.1L133.3,139.1
				z"/>
		</g>
	</g>
</g>
<path display="none" fill="#F26522" d="M117.5,117.8l5.8,4.6c0.2,0.2,0.4,0.5,0.4,0.8c0,0.3-0.1,0.6-0.4,0.8l-5.8,4.6
	c-0.4,0.3-1,0.3-1.4-0.1c-0.3-0.4-0.3-1.1,0.1-1.4l3.6-2.8h-9.7c-0.5,0-1-0.4-1-1c0-0.6,0.4-1,1-1h9.7l-3.6-2.8
	c-0.4-0.3-0.5-1-0.1-1.4C116.5,117.5,117.1,117.4,117.5,117.8z"/>
<path display="none" fill="#F26522" d="M115.3,114.8l-5.8-4.6c-0.2-0.2-0.4-0.5-0.4-0.8c0-0.3,0.1-0.6,0.4-0.8l5.8-4.6
	c0.4-0.3,1-0.3,1.4,0.1c0.3,0.4,0.3,1.1-0.1,1.4l-3.6,2.8h9.7c0.5,0,1,0.4,1,1c0,0.6-0.4,1-1,1h-9.7l3.6,2.8c0.4,0.3,0.5,1,0.1,1.4
	C116.3,115.1,115.7,115.2,115.3,114.8z"/>
</svg>
