<svg id="Слой_1" data-name="Слой 1" xmlns="http://www.w3.org/2000/svg" width="950.71" height="543.26" viewBox="0 0 950.71 543.26"><title>ems2</title><rect width="950.71" height="543.26" style="fill:#fff"/><path d="M182.05,77.36c112.86-41.9,227.57-4.86,305.35,75.82S728.46,97.49,815,178c59.09,55,32,196.29-49,257.5-110.12,83.2-445,41-517.5,26.82-83.46-16.31-144.48-65.8-169.28-125.87C19.54,191.75,132.18,95.89,182.05,77.36Z" style="fill:#e2e2e2"/><path d="M567.8,135.56a92.55,92.55,0,0,0,.58-10.4c0-1.85-.06-3.7-.17-5.52L551,114.08a75.67,75.67,0,0,0-6.09-20.59l11.41-14a92.92,92.92,0,0,0-9-13.13L530.13,72a76.53,76.53,0,0,0-17-13.09l1-18.06a92.64,92.64,0,0,0-15-5.32L488.47,50.13A76.78,76.78,0,0,0,467,49.57l-9.83-15.19a92.26,92.26,0,0,0-15.27,4.51l0,18.09a76.38,76.38,0,0,0-17.68,12.16l-16.86-6.52a92.9,92.9,0,0,0-9.72,12.64l10.64,14.61a75.56,75.56,0,0,0-7.17,20.25l-17.46,4.64a95.12,95.12,0,0,0-.59,10.4c0,1.86.07,3.7.17,5.53l17.19,5.56a75.57,75.57,0,0,0,6.09,20.59l-11.41,14a93.4,93.4,0,0,0,9,13.12l17.19-5.61a76.66,76.66,0,0,0,17,13.08l-1,18.06a91.93,91.93,0,0,0,15,5.32L463,200.19a76,76,0,0,0,21.45.56L494.3,216a91.46,91.46,0,0,0,15.28-4.52l0-18.08a76.58,76.58,0,0,0,17.67-12.17l16.87,6.52a93.54,93.54,0,0,0,9.71-12.63l-10.64-14.61a75.49,75.49,0,0,0,7.17-20.24ZM475.74,161.5a36.34,36.34,0,1,1,36.33-36.34h0a36.33,36.33,0,0,1-36.33,36.34Z" style="fill:#606060"/><path d="M525.3,166.6a1.36,1.36,0,0,1-1-2.22,61.49,61.49,0,0,0,10.84-59.22,1.36,1.36,0,1,1,2.54-1,.14.14,0,0,1,0,.07,64.17,64.17,0,0,1-11.31,61.83A1.34,1.34,0,0,1,525.3,166.6Z" style="fill:#fff"/><path d="M520,80.84a1.33,1.33,0,0,1-.93-.37,61.13,61.13,0,0,0-21.13-13,1.36,1.36,0,1,1,.93-2.55A63.73,63.73,0,0,1,521,78.5a1.37,1.37,0,0,1,.06,1.92,1.39,1.39,0,0,1-1,.43Z" style="fill:#fff"/><path d="M461.64,65.69a1.35,1.35,0,0,1-.33-2.67,64.24,64.24,0,0,1,15.73-2,1.36,1.36,0,0,1,0,2.72A61.77,61.77,0,0,0,462,65.65,1.15,1.15,0,0,1,461.64,65.69Z" style="fill:#fff"/><path d="M275.74,365.64a64.09,64.09,0,0,0,.41-7.2c0-1.29,0-2.56-.12-3.83l-11.9-3.85a52.27,52.27,0,0,0-4.22-14.26l7.9-9.73a64.83,64.83,0,0,0-6.25-9.09l-11.91,3.89a52.75,52.75,0,0,0-11.79-9.06l.68-12.51a63.87,63.87,0,0,0-10.39-3.69l-7.36,10.15a52.85,52.85,0,0,0-14.86-.39l-6.81-10.52a64.06,64.06,0,0,0-10.57,3.12l0,12.53a52.84,52.84,0,0,0-12.25,8.42l-11.69-4.5a64.82,64.82,0,0,0-6.72,8.74L165.28,334a52.2,52.2,0,0,0-5,14l-12.09,3.22a64.23,64.23,0,0,0-.41,7.2c0,1.29.05,2.57.12,3.83l11.91,3.85a52,52,0,0,0,4.21,14.27l-7.89,9.71a65,65,0,0,0,6.24,9.09l11.91-3.89a52.79,52.79,0,0,0,11.79,9.07l-.68,12.49a62.68,62.68,0,0,0,10.4,3.68l7.36-10.11a52.67,52.67,0,0,0,14.86.39l6.81,10.52a63.5,63.5,0,0,0,10.57-3.12V405.67a53.11,53.11,0,0,0,12.26-8.42l11.68,4.5a64.82,64.82,0,0,0,6.72-8.74l-7.37-10.12a52.13,52.13,0,0,0,4.94-14Zm-63.76,18a25.17,25.17,0,1,1,25.17-25.17A25.17,25.17,0,0,1,212,383.61Z" style="fill:#606060"/><path d="M246.31,387.56A1.36,1.36,0,0,1,245,386.2a1.4,1.4,0,0,1,.31-.87,42.15,42.15,0,0,0,7.43-40.6,1.37,1.37,0,0,1,.89-1.71,1.35,1.35,0,0,1,1.68.82,44.89,44.89,0,0,1-7.91,43.23A1.36,1.36,0,0,1,246.31,387.56Z" style="fill:#fff"/><path d="M242.66,328.16a1.35,1.35,0,0,1-.93-.37,41.81,41.81,0,0,0-14.49-8.93,1.36,1.36,0,0,1,.93-2.55,44.49,44.49,0,0,1,15.42,9.5,1.36,1.36,0,0,1,.07,1.92,1.32,1.32,0,0,1-1,.43Z" style="fill:#fff"/><path d="M202.22,317.67a1.36,1.36,0,0,1-.34-2.68,45.39,45.39,0,0,1,11-1.36,1.36,1.36,0,0,1,0,2.72,42.36,42.36,0,0,0-10.33,1.28A1.24,1.24,0,0,1,202.22,317.67Z" style="fill:#fff"/><path d="M623.28,204.77c0-.71,0-1.4-.06-2.1l8.92-7.16a47.65,47.65,0,0,0-3.24-10.24l-11.52-.88a38.18,38.18,0,0,0-10-10.57l0-11.48a47.2,47.2,0,0,0-10.21-3.94l-7.87,8.47A38.21,38.21,0,0,0,575.13,168l-9-7.15a47.49,47.49,0,0,0-9.53,5.54l1.71,11.38a38.13,38.13,0,0,0-8,11.73L539,192.08a47.87,47.87,0,0,0-1.66,10.83l9.89,5.7a38,38,0,0,0,4.23,14l-5,10.38a47.94,47.94,0,0,0,7.28,7.92l10.59-4.15a37.68,37.68,0,0,0,14,5.55l5,10.3q.9,0,1.8,0a47.78,47.78,0,0,0,8.77-.81l3.37-10.9a38.14,38.14,0,0,0,13.16-7.64l11.14,2.5a47.46,47.46,0,0,0,5.94-8.77l-6.47-9.49A37.89,37.89,0,0,0,623.28,204.77Zm-38.54,16.79A16.06,16.06,0,1,1,600.8,205.5a16.06,16.06,0,0,1-16.06,16.06Z" style="fill:#606060"/><g style="opacity:0.800000011920929"><path d="M771.7,112.27H757.9a9.67,9.67,0,0,1-9.66-9.66V88.81a9.68,9.68,0,0,1,9.66-9.67h13.8a9.68,9.68,0,0,1,9.67,9.67v13.8A9.68,9.68,0,0,1,771.7,112.27ZM757.9,83A5.86,5.86,0,0,0,752,88.81v13.8a5.87,5.87,0,0,0,5.86,5.86h13.8a5.87,5.87,0,0,0,5.86-5.86V88.81A5.86,5.86,0,0,0,771.7,83Z" style="fill:#606060"/></g><g style="opacity:0.800000011920929"><path d="M706.77,112.27H693a9.68,9.68,0,0,1-9.66-9.66V88.81A9.68,9.68,0,0,1,693,79.14h13.81a9.68,9.68,0,0,1,9.66,9.67v13.8A9.68,9.68,0,0,1,706.77,112.27ZM693,83a5.87,5.87,0,0,0-5.86,5.86v13.8a5.88,5.88,0,0,0,5.86,5.86h13.81a5.87,5.87,0,0,0,5.85-5.86V88.81A5.85,5.85,0,0,0,706.77,83Z" style="fill:#606060"/></g><path d="M700.73,104.24h-.08a1.66,1.66,0,0,1-1.22-.64l-9.91-12.94a1.63,1.63,0,0,1,2.58-2l8.75,11.41,22.83-24.47a1.63,1.63,0,1,1,2.41,2.21l0,0-24.15,25.87A1.64,1.64,0,0,1,700.73,104.24Z" style="fill:#f37168"/><path d="M817.3,468.63c-56.49-2.76-248.66,1.92-307.11,3.74S383.9,470,348.66,463.75,109.72,464.29,119,481s90.76,7.48,183.2,14.21,300.34-.84,347.24,0,89.91-1.68,150.33-5S850.05,470.23,817.3,468.63Z" style="fill:#bfbfbf"/><rect x="121.8" y="118.87" width="118.09" height="193.56" style="fill:#99bbeb"/><rect x="127.98" y="122.81" width="108.02" height="182.23" style="fill:#fff"/><path d="M160.29,195.89c4.08-8.75,11-11.55,22.25-11.55,13.46,0,20.44,4.89,22.42,12C180.87,196.64,160.29,195.89,160.29,195.89Z" style="fill:#9bd6e8"/><path d="M177.84,141.79c-5.7,1.6-5.44,4.8-7.33,7.77s-6,4.95-6.52,6.93,1.27,6.11-.81,8.42-2.81,3.47-2,5.78,2.64,5.94,2.8,6.43,2.48,4,5.28,4.46,8.09,1.32,10.73,2.47,11.14-1.47,15.84-1.31,7.92-3.31,7.6-5.62,3.47-6.93,3.46-10.89c0-4.25-4.95-7.42-6.27-10.23s.14-7.76-4.79-10.68c-3.13-1.85-5.29-1.69-7.76-2.51S181.47,140.78,177.84,141.79Z" style="fill:#3a384d"/><path d="M184.77,191.32c-1.28,1.9-2.23,2-3.63,0-1.11-1.58-3.3-5.16-3.3-7V166.24a3.31,3.31,0,0,1,3.3-3.3h3.63a3.31,3.31,0,0,1,3.31,3.3v18.12C188.08,186.17,185.93,189.61,184.77,191.32Z" style="fill:#f09959"/><path d="M184.77,162.93h-3.63a3.32,3.32,0,0,0-3.3,3.31V182.4c4.08,1.3,7.8-1.28,10.24-4.19v-12A3.32,3.32,0,0,0,184.77,162.93Z" style="fill:#e38540"/><ellipse cx="182.96" cy="163.12" rx="10.97" ry="14.95" style="fill:#f09959"/><path d="M188.08,151.22c-6.94,11.71-17.17,10.56-17.17,10.56s.25-15.52,8.38-16.34,12.91,2.44,14.56,7.82,0,8.93,0,8.93a14.38,14.38,0,0,1-4-5.36A38.21,38.21,0,0,1,188.08,151.22Z" style="fill:#3a384d"/><ellipse cx="170.51" cy="164.11" rx="2.89" ry="4.33" transform="translate(-53.92 89.04) rotate(-25.41)" style="fill:#f09959"/><path d="M192.31,162.89c-1,2.17-.69,4.46.76,5.16s3.44-.52,4.46-2.68.69-4.46-.75-5.16S193.34,160.73,192.31,162.89Z" style="fill:#f09959"/><path d="M187.09,171.23s-1.85,2.39-4.13,2.39-4.13-2.39-4.13-2.39Z" style="fill:#fff"/><path d="M196,219.61h-27.7a3.23,3.23,0,0,1,0-6.45H196a3.23,3.23,0,0,1,0,6.45Z" style="fill:#99bbeb"/><path d="M201.1,229.51H163.23a3.23,3.23,0,0,1,0-6.45H201.1a3.23,3.23,0,0,1,0,6.45Z" style="fill:#99bbeb"/><path d="M228.22,265.11H136.11a1.87,1.87,0,0,1,0-3.74h92.11a1.87,1.87,0,0,1,0,3.74Z" style="fill:#99bbeb"/><path d="M228.22,273.8H136.11a1.87,1.87,0,0,1,0-3.74h92.11a1.87,1.87,0,0,1,0,3.74Z" style="fill:#99bbeb"/><path d="M228.22,282.5H136.11a1.88,1.88,0,0,1,0-3.75h92.11a1.88,1.88,0,0,1,0,3.75Z" style="fill:#99bbeb"/><path d="M215.33,198H149a3.33,3.33,0,0,1-3.34-3.33V133.56a3.33,3.33,0,0,1,3.34-3.34h66.33a3.34,3.34,0,0,1,3.33,3.34V194.7A3.33,3.33,0,0,1,215.33,198ZM149,132.93a.63.63,0,0,0-.62.63V194.7a.63.63,0,0,0,.62.62h66.33a.64.64,0,0,0,.63-.62V133.56a.64.64,0,0,0-.63-.63Z" style="fill:#99bbeb"/><polygon points="158.57 237.91 160.49 241.81 164.78 242.43 161.68 245.46 162.41 249.74 158.57 247.72 154.73 249.74 155.46 245.46 152.35 242.43 156.65 241.81 158.57 237.91" style="fill:#99bbeb"/><polygon points="174.3 237.91 176.22 241.81 180.51 242.43 177.41 245.46 178.14 249.74 174.3 247.72 170.46 249.74 171.19 245.46 168.09 242.43 172.38 241.81 174.3 237.91" style="fill:#99bbeb"/><polygon points="190.03 237.91 191.95 241.81 196.25 242.43 193.14 245.46 193.87 249.74 190.03 247.72 186.19 249.74 186.93 245.46 183.82 242.43 188.11 241.81 190.03 237.91" style="fill:#99bbeb"/><polygon points="205.76 237.91 207.68 241.81 211.98 242.43 208.87 245.46 209.6 249.74 205.76 247.72 201.92 249.74 202.66 245.46 199.55 242.43 203.84 241.81 205.76 237.91" style="fill:#99bbeb"/><rect x="385.07" y="118.87" width="118.09" height="193.56" style="fill:#99bbeb"/><rect x="391.25" y="122.81" width="108.02" height="182.23" style="fill:#fff"/><path d="M428.69,162.13c0,8.67,5.22,22.66,17.54,22.21s15-13.78,15.51-17.55S428.69,162.13,428.69,162.13Z" style="fill:#7a4e34"/><path d="M423.56,195.89c4.08-8.75,10.95-11.55,22.25-11.55,13.45,0,20.44,4.89,22.42,12C444.14,196.64,423.56,195.89,423.56,195.89Z" style="fill:#d54a41"/><path d="M448,191.32c-1.29,1.9-2.23,2-3.63,0-1.11-1.58-3.3-5.16-3.3-7V166.24a3.31,3.31,0,0,1,3.3-3.3H448a3.3,3.3,0,0,1,3.3,3.3v18.12C451.34,186.17,449.2,189.61,448,191.32Z" style="fill:#f09959"/><path d="M448,162.93h-3.63a3.32,3.32,0,0,0-3.3,3.31V182.4c4.08,1.3,7.8-1.28,10.23-4.19v-12A3.32,3.32,0,0,0,448,162.93Z" style="fill:#e38540"/><ellipse cx="446.23" cy="163.12" rx="10.97" ry="14.95" style="fill:#f09959"/><path d="M452.26,151.75c-1.3,4.6-4.16,4.55-8.14,6.06s-5.89,3-7.2,6c-1.66,3.75.76,14.69.76,14.69s-10.09-7.55-8.93-19.42,8.17-16.48,14.76-16.48,9.1,4,9.1,4,3.51,0,6.83,3.94c4.46,5.29,3.08,18.13,0,22.73s-5.17,6-5.08,5.83,2.88-10.77,1.37-17.3A41.69,41.69,0,0,0,452.26,151.75Z" style="fill:#7a4e34"/><path d="M450.36,171.23s-1.84,2.39-4.12,2.39-4.13-2.39-4.13-2.39Z" style="fill:#fff"/><path d="M459.29,219.61H431.58a3.23,3.23,0,0,1-.18-6.45h27.89a3.23,3.23,0,0,1,0,6.45Z" style="fill:#99bbeb"/><path d="M464.37,229.51H426.5a3.23,3.23,0,0,1-.18-6.45h38.05a3.23,3.23,0,0,1,0,6.45Z" style="fill:#99bbeb"/><path d="M491.48,265.11h-92.1a1.87,1.87,0,1,1-.14-3.74h92.24a1.87,1.87,0,1,1,.15,3.74Z" style="fill:#99bbeb"/><path d="M491.48,273.8h-92.1a1.87,1.87,0,1,1-.14-3.74h92.24a1.87,1.87,0,1,1,.15,3.74Z" style="fill:#99bbeb"/><path d="M491.48,282.5h-92.1a1.88,1.88,0,0,1-.14-3.75h92.24a1.88,1.88,0,0,1,.15,3.75Z" style="fill:#99bbeb"/><path d="M478.61,198H412.26a3.33,3.33,0,0,1-3.33-3.33V133.56a3.33,3.33,0,0,1,3.33-3.34h66.35a3.33,3.33,0,0,1,3.34,3.34V194.7A3.33,3.33,0,0,1,478.61,198Zm-66.35-65.1a.64.64,0,0,0-.62.63V194.7a.64.64,0,0,0,.62.62h66.35a.63.63,0,0,0,.62-.62V133.56a.63.63,0,0,0-.62-.63Z" style="fill:#99bbeb"/><polygon points="421.84 237.91 423.76 241.81 428.05 242.43 424.94 245.46 425.68 249.74 421.84 247.72 418 249.74 418.73 245.46 415.62 242.43 419.92 241.81 421.84 237.91" style="fill:#99bbeb"/><polygon points="437.57 237.91 439.49 241.81 443.78 242.43 440.68 245.46 441.41 249.74 437.57 247.72 433.73 249.74 434.46 245.46 431.35 242.43 435.65 241.81 437.57 237.91" style="fill:#99bbeb"/><polygon points="453.3 237.91 455.22 241.81 459.51 242.43 456.41 245.46 457.14 249.74 453.3 247.72 449.46 249.74 450.19 245.46 447.08 242.43 451.38 241.81 453.3 237.91" style="fill:#99bbeb"/><polygon points="469.03 237.91 470.95 241.81 475.25 242.43 472.14 245.46 472.87 249.74 469.03 247.72 465.19 249.74 465.92 245.46 462.81 242.43 467.11 241.81 469.03 237.91" style="fill:#99bbeb"/><polygon points="398.34 310.48 211.98 310.48 225.16 119.58 405.06 119.58 398.34 310.48" style="fill:#99bbeb;opacity:0.20000000298023224;isolation:isolate"/><rect x="231.55" y="83.46" width="161.29" height="264.37" style="fill:#99bbeb"/><rect x="240" y="88.84" width="147.54" height="248.91" style="fill:#fff"/><path d="M300,141.13c-.1-.31-2.68-15.14-3-20.9s9.26-6.59,9.26-6.59,7.83-4.22,13.49-2.06a22.88,22.88,0,0,1,12.09,10.32c2.58,4.52-2.26,18.65-2.26,18.65Z" style="fill:#2e2d3d"/><path d="M282.27,188.76c0-.24.66-6.08.69-6.31,1.3-12.29,16.45-15.76,31.56-15.76,17.75,0,29.8,3.26,31.72,16,.06.37,1.09,6.22,1,6.62C314.36,189.79,282.27,188.76,282.27,188.76Z" style="fill:#d5e1e8"/><path d="M317.57,176.24c-1.76,2.6-3.05,2.72-5,0-1.52-2.15-6.59-7.06-6.59-9.54L308.1,142a4.52,4.52,0,0,1,4.51-4.51h5a4.52,4.52,0,0,1,4.51,4.51l1,24.71C323,169.18,319.15,173.91,317.57,176.24Z" style="fill:#f09959"/><path d="M317.57,137.47h-5A4.52,4.52,0,0,0,308.1,142l-1.8,21.94c5.56,1.77,13.08-1.84,16.41-5.8L322.08,142A4.52,4.52,0,0,0,317.57,137.47Z" style="fill:#e38540"/><path d="M298.07,168.51,306,183.2s4.25-3.5,4.67-2.81-.76,9.35-.76,9.35,9.47.13,9.89-.27-1.93-9.41-1-9.41,3.85,2.61,3.85,2.61l8.87-14.15-1.95-.47-14.54,7.81-15.55-7.66Z" style="fill:#bdccd4"/><polygon points="307.16 175.28 313.07 179.24 311.24 189.76 319.2 189.31 317.21 179.75 322.1 175.28 319.81 173.11 309.46 173.11 307.16 175.28" style="fill:#d54a41"/><path d="M306.43,161.31l-7.3,6.95s7.44,13.23,7.85,13.23,6.32-7.3,6.32-7.3l3.77-.06,6,6.26L330,168.12l-7.06-7.5s-6,11.68-7.14,11.95-1.1.41-2-.27S306.43,161.31,306.43,161.31Z" style="fill:#d5e1e8"/><ellipse cx="315.09" cy="137.72" rx="14.99" ry="20.42" style="fill:#f09959"/><path d="M301.63,137.41c1.41,3,.95,6.1-1,7s-4.7-.7-6.1-3.65-.95-6.1,1-7S300.23,134.46,301.63,137.41Z" style="fill:#f09959"/><path d="M327.86,137.41c-1.4,3-.95,6.1,1,7s4.7-.7,6.1-3.65.95-6.1-1-7S329.27,134.46,327.86,137.41Z" style="fill:#f09959"/><path d="M321.74,146.1s-3,4.83-6.65,4.83-6.65-4.83-6.65-4.83Z" style="fill:#fff"/><path d="M306.3,123.83c6.17-4.33,9-3.6,13.58,3.5s10.19,7.23,10.19,7.23l.72-7.37s-6.9-13.35-16.17-11.6-14.53,10.09-14.53,10.09-.45,15.63.84,16.17,1.44-5,2.37-6.18-.93-6.49.31-9S306.3,123.83,306.3,123.83Z" style="fill:#2e2d3d"/><path d="M326.17,131.86c2.15,2.36,1.33,11.74,2.47,11.63s1.54-9,1.23-9.88S326.17,131.86,326.17,131.86Z" style="fill:#2e2d3d"/><path d="M348.43,221.06H279.58a4.41,4.41,0,0,1,0-8.81h68.85a4.41,4.41,0,0,1,.22,8.81Z" style="fill:#99bbeb"/><path d="M339.86,234.58H288.15a4.4,4.4,0,1,1-.22-8.8h51.93a4.4,4.4,0,0,1,0,8.8Z" style="fill:#99bbeb"/><path d="M376.91,283.22H251.11a2.56,2.56,0,1,1,0-5.11H376.91a2.56,2.56,0,0,1,0,5.11Z" style="fill:#99bbeb"/><path d="M376.91,295.09H251.11a2.56,2.56,0,1,1,0-5.11h125.8a2.56,2.56,0,0,1,0,5.11Z" style="fill:#99bbeb"/><path d="M376.91,307H251.11a2.56,2.56,0,0,1,0-5.11h125.8a2.56,2.56,0,0,1,0,5.11Z" style="fill:#99bbeb"/><path d="M359.31,191.1H268.7a4.08,4.08,0,0,1-4.08-4.08v-83.5a4.08,4.08,0,0,1,4.08-4.07h90.61a4.07,4.07,0,0,1,4.07,4.07V187A4.07,4.07,0,0,1,359.31,191.1ZM268.7,102.18a1.35,1.35,0,0,0-1.36,1.35V187a1.36,1.36,0,0,0,1.36,1.36h90.61a1.36,1.36,0,0,0,1.36-1.36V103.52a1.35,1.35,0,0,0-1.36-1.35Z" style="fill:#99bbeb"/><polygon points="270.86 246.06 273.49 251.38 279.35 252.23 275.11 256.37 276.11 262.21 270.86 259.45 265.62 262.21 266.62 256.37 262.37 252.23 268.24 251.38 270.86 246.06" style="fill:#99bbeb"/><polygon points="292.35 246.06 294.97 251.38 300.84 252.23 296.59 256.37 297.6 262.21 292.35 259.45 287.1 262.21 288.1 256.37 283.86 252.23 289.73 251.38 292.35 246.06" style="fill:#99bbeb"/><polygon points="313.83 246.06 316.46 251.38 322.32 252.23 318.08 256.37 319.08 262.21 313.83 259.45 308.59 262.21 309.59 256.37 305.35 252.23 311.21 251.38 313.83 246.06" style="fill:#99bbeb"/><polygon points="335.32 246.06 337.94 251.38 343.81 252.23 339.56 256.37 340.57 262.21 335.32 259.45 330.07 262.21 331.08 256.37 326.83 252.23 332.7 251.38 335.32 246.06" style="fill:#99bbeb"/><polygon points="357.15 246.06 359.77 251.38 365.64 252.23 361.39 256.37 362.39 262.21 357.15 259.45 351.9 262.21 352.9 256.37 348.66 252.23 354.53 251.38 357.15 246.06" style="fill:#99bbeb"/><rect x="442.66" y="331.45" width="211.48" height="7.88" rx="2.25" style="fill:#3d3d3d"/><path d="M705.18,225.84c2.8,9.88-4,20.07-11.59,22.21s-12.93-4.58-15.73-14.46,1-19.64,8.58-21.78S702.38,216,705.18,225.84Z" style="fill:#f09959"/><path d="M662.88,417.42s19.34,30,22,31.33,9.14,1.63,6.69,6.52-3.43,24.16-5.71,25.14-21.87,3.26-18.93,0,4.74-1.63,6.23-7.51,3.56-17,.79-19.26-19.76-22.83-19.76-22.83Z" style="fill:#f09959"/><path d="M565.55,430.31s-23.5,38.75-27.86,42.23-18.71,8.69-7,9.57,17.41-3.91,24.81-6.09,16.54-3.48,13.06-9.14-2-18,5.47-25.85S565.55,430.31,565.55,430.31Z" style="fill:#f09959"/><path d="M685.51,340.48s-58.19-1.52-81.26,17.41c-13.5,20.46-46.14,80.82-48.68,87.46,1.74,1.74,11.54,4.89,15.89,4.45,12.84-15.31,29.81-28.55,36.56-40.56,8.32-14.8,10.89-22.2,24.38-23.5s44-5.66,53.11-5.66S685.51,340.48,685.51,340.48Z" style="fill:#6791c9"/><polygon points="736.25 482.22 733.2 482.22 711.33 390.96 718.04 390.96 736.25 482.22" style="fill:#3d3d3d"/><polygon points="644.88 482.22 647.93 482.22 673.03 387.74 666.32 387.74 644.88 482.22" style="fill:#3d3d3d"/><path d="M718.66,336.49l-33.83,5.84s-45,.42-65.51,4.24c-18.69,3.49-21.46,24.72,0,54,12.19,16.62,22.49,29.88,43.56,44.82,5.36-3.94,7.41-5.44,8.89-14.89-1.53-2.09-5.47-15.18-6.7-17.74-11.65-24.36-27.21-33.22-27.43-35.62,2.61-4.24,69.18,22.12,82.41,6.62C732.7,368.93,718.66,336.49,718.66,336.49Z" style="fill:#75a1de"/><path d="M720.06,259.9a35.42,35.42,0,0,0-26.47,6.59c-7.41,7.56-15.81,20-15.29,40.59.65,26.12-4,27.79.85,35,20.43,8.42,55.36,44.67,47.13,5.82-6-28.13,13.06-49.1-2.28-80.3C722.75,265,721.19,262.58,720.06,259.9Z" style="fill:#f37168"/><path d="M678.29,316.91c-.39,13.61-2.32,17.62-.85,21.89,8.33.85,23.56,4.18,27.36,9.51,4.35,6.09,8.71,7,6.68,2.47s-7.4-10.88.87-32.79,12.19-36.71,4.07-51.95Z" style="fill:#d54a41"/><path d="M720.06,259.9c-5.48-13-6.83-27.58-6.83-27.58l-14.37,4.25s8.17,18.28.33,24.81a73.08,73.08,0,0,0-5.6,5.11A35.42,35.42,0,0,1,720.06,259.9Z" style="fill:#f09959"/><path d="M713.66,235.77c-.85-.75-1.9-1.7-3-2.68l-11.73,3.46,0,.07c.27.64,3.26,7.6,3.66,14.3,3.49-2.11,7.31-5.57,11.68-11.6C714,238,713.81,236.79,713.66,235.77Z" style="fill:#e38540"/><path d="M710,264c-14.79,5.16-13.15,20.76-26.76,43.73-7.07,11.9-13.59,11.72-13.59,11.72a313.94,313.94,0,0,1-36.51-2.31c-12.51-1.53-13.31,2.2-4.62,5.31,17.56,6.27,35.78,13,50.47,11.4s39.82-39.11,41.11-48.87C721.85,271.48,717.42,261.38,710,264Z" style="fill:#f09959"/><path d="M702.35,394.77c-.93,0-1.87,0-2.83,0a139.93,139.93,0,0,1-26.86-3.31c-7.7-1.56-11.95-2.42-16.88-.06a3.81,3.81,0,0,1-3.4-6.81l.12-.05c7.24-3.46,13.29-2.23,21.67-.53a134,134,0,0,0,25.54,3.16c12.74.31,20.51-1.58,24.44-5.94,3.51-3.9,4.54-10.43,3.23-20.58-.44-3.47-.89-6.36-1.28-8.91-1.11-7.19-1.85-11.95-.94-19.28.84-6.82,3.1-15.9,8.33-33.52a3.8,3.8,0,0,1,7.29,2.18c-9.74,32.82-9.25,36-7.17,49.46.41,2.6.86,5.54,1.32,9.11,1.61,12.51,0,21-5.13,26.64S716,394.77,702.35,394.77Z" style="fill:#3d3d3d"/><path d="M567.16,463c-15.59,7.62-24,12-29,11.58-1.18-.1-2.16-.22-3-.35-5.56,3.29-14.44,7.17-4.45,7.91,11.75.88,17.41-3.91,24.81-6.09s16.54-3.48,13.06-9.14A12,12,0,0,1,567.16,463Z" style="fill:#d54a41"/><path d="M686.53,449.39c-.38,12.35-2.08,24.59-9.63,26.89a12.69,12.69,0,0,1-5.44.49c-1.19,1.47-2.63,1.49-4.58,3.65-2.94,3.26,16.65,1,18.93,0s3.26-20.24,5.71-25.14C693.53,451.26,689.48,450.32,686.53,449.39Z" style="fill:#d54a41"/><path d="M626.45,332.53H576.9a3.81,3.81,0,0,1-3.45-2.2l-20-43.1a3.8,3.8,0,0,1,6.9-3.2l19,40.89h47.12a3.81,3.81,0,1,1,0,7.61Z" style="fill:#75a1de"/><path d="M636.82,317.57c-10-.14-20-6.11-24.88-5.24s-21,12-19,12.48,14.8-6.19,15.23-6.29,3.2,4.59,10,6.31.05-5.11,21.19,1.27C653.12,330.25,636.82,317.57,636.82,317.57Z" style="fill:#f09959"/><path d="M718.59,248.05l1.47,11.85s-12.95.78-19.4,4.4-16,14.12-16,14.12L692.47,265l1.12-8.56Z" style="fill:#f2e5de"/><path d="M713.08,262.56c-9.63-1.8-14.08,6.82-20.32,20.89s-16.89,31.17-19,33.38-35.7,0-35.7,0-1,9.72,0,10.88,6.82,1,6.82,1,2.33,1.86,4.5,3.33,20.61,4.22,29.17,3.79,16.39-1.16,17.55-2.47,24.54-37.29,26-50.21S718,263.48,713.08,262.56Z" style="fill:#f2e5de"/><path d="M684.7,203.36c-18.2.87-15.35,28.25-15.35,28.25s4.73,1.46,14.63-.17c-.76-2.94-.43-10.45-.43-10.45a68.83,68.83,0,0,0,2.61,9.8c2.09,1,4.46.1,8.49-.87,2.07,8.69,7.91,12.37,11.91,13.63,4.42,1.39,9.1,3,14.32.44s2.35-29.31-.42-34.68c-4.16-8.06-11.08-15.27-23.06-11.46A89,89,0,0,0,684.7,203.36Z" style="fill:#303c60"/><path d="M716.35,235.88l7.44,10.86s-8.25,20.61,15.74,29.94c18.78,7.31,16.57,20.19,8.08,33.14s5.08,24.28,5.08,24.28,2.07-14.35,20.32-17.05c24.88-3.7,31.93-37.11,13.34-53.81-15.38-13.83-20.06-2.38-30.47-14.78s-30.07-4-30.07-4l-7.2-10.5Z" style="fill:#303c60"/><path d="M794.91,296.89a.67.67,0,0,1-.66-.66.72.72,0,0,1,.08-.32c6.25-11.43,1.15-25.29-1.41-29-.28-.4-.55-.82-.82-1.23-2.52-3.94-5.66-8.84-22.42-11.85-4-.73-7.3-3.13-10.76-5.67-7.15-5.24-15.24-11.19-32.84-3.09a.66.66,0,1,1-.61-1.17l.07,0c18.3-8.42,26.73-2.24,34.17,3.23,3.34,2.44,6.48,4.75,10.22,5.43,17.32,3.12,20.64,8.29,23.3,12.44.27.42.52.82.78,1.2,2.69,3.93,8,18.44,1.48,30.42A.66.66,0,0,1,794.91,296.89Z" style="fill:#303c60"/><path d="M712.37,247a26.32,26.32,0,0,1-3.86-.31c-6.37-.95-14.91-4.57-15.58-24.89a.66.66,0,0,1,1.32-.12v.08c.28,8.37,1.94,14.57,4.94,18.42a13.87,13.87,0,0,0,9.51,5.2c5.89.89,9.8-.2,11.61-3.23a.66.66,0,1,1,1.14.68C719.79,245.62,716.74,247,712.37,247Z" style="fill:#303c60"/><polygon points="464.85 482.22 469.74 482.22 488.76 336.82 478 336.82 464.85 482.22" style="fill:#3d3d3d"/><polygon points="630.77 482.22 625.88 482.22 606.86 336.82 617.62 336.82 630.77 482.22" style="fill:#3d3d3d"/><path d="M822.53,359.48c8.46,7.73,4.78,15.45-1.47,29.8s-7.35,67.31-7.35,67.31l5.16-.74s-.74-54.44,6.24-69.15,9.94-22.07,16.19-17.29S822.53,359.48,822.53,359.48Z" style="fill:#74b570"/><path d="M817.88,349.48c1-4.58,7.13-9.53,15.29-13.73-1.22,6.75-5.11,17.79-1.09,20.06,5.43,3.05.53-12.36,2.62-20.84a101.17,101.17,0,0,1,25.37-8.32l0,.1c-4.79,12.14-11,16.92-8.47,18.76,1.94,1.38,8.25-12.64,16.57-19.83,6.25-.34,11.55.51,14.67,3,4.84,3.83,8.08,7.23,3.22,18.89a21.74,21.74,0,0,1-10.56,3.83c-11,1.11-16.19,1.48-8.46,5.16,3.78,1.81,10.12-.1,15.26-1.26-1.67,3.08-3.72,6.55-6.21,10.52a39,39,0,0,1-5.16,6.57c-3.56.69-6.66.69-8.3,0-5.16-2.21-18.39-9.2-21.7-6.25s24.52,4.71,22.6,12c-13.46,7.75-28.86,4.07-31.58-3.06C828.29,365.51,814.79,363.26,817.88,349.48Z" style="fill:#9cd499"/><path d="M845.71,401.78c-14.72-11-29.8-.73-37.52,11S806,451.07,806,451.07s2.94,0,2.94-1.1-8.09-31.27,11-44.88c12-8.51,20.6-4.41,21.7-.36s-4.78,11.4-4.78,11.4Z" style="fill:#74b570"/><path d="M811.87,379.1c14.71,0,19.49,22.82,15.44,36S817.75,453,817.75,453l-3.67-3.68s14-34.57,10.66-50-11.41-18-12.87-18S811.87,379.1,811.87,379.1Z" style="fill:#9cd499"/><path d="M824.21,415.25a10.7,10.7,0,0,1,3.87-3.26,28.36,28.36,0,0,1-.77,3.15c-1.84,6-4,14.43-5.78,21.79-.16-.94-.41-2.39-.82-4.63q-.13-.81-.21-1.71A141.57,141.57,0,0,0,824.21,415.25Z" style="fill:#74b570"/><path d="M828.23,415.36c27.95-11.77,13.23-27.92,37.87-17.26,1.74.76,3.85,2.65,6,5.26a18.42,18.42,0,0,1-7.81.63c-7.36-1.1-4.78,4.78,7.36,6.25a26.84,26.84,0,0,1,5.68,1.2c5.79,11.11,8.39,25.72-3.85,30.8a27.9,27.9,0,0,1-8.71,1.79c-3.77-3,.93-20.38-4.89-18-5.59,2.31,1.75,14.89.75,18.06a80.88,80.88,0,0,1-17.46-2.44c-2.31-1.3-4.08-3-4.62-5.32-1.84-7.72,10.29-12.49,10.66-19.12.34-6.09-4.44,13.39-17.13,16.26C820.59,428.13,815.16,420.86,828.23,415.36Z" style="fill:#9cd499"/><path d="M808.31,394.55c2.94-6.25-4.78-7.72-4.41-2.94.32,4.23.36,14.53-4,17.34a68.65,68.65,0,0,1-25.39-8.42,3.11,3.11,0,0,1,.32-1.92c3.31-6.62,24.64-12.14,18-14.35-5.27-1.75-14.51,8.62-22,13.86-4.47-3.4-7.46-7.44-7.46-11.95,0-6.12,7.42-13,17-16.34,4.33.44,8.34,2.8,14.61,6.35,9.26,5.25,7.12-3.23-1.63-8.27a26.37,26.37,0,0,1,20.66,11.34s-.53,3.29,3,8.4c9.53,13.92-1.47,22-14.61,21.51C803.19,405.47,806.28,398.87,808.31,394.55Z" style="fill:#9cd499"/><path d="M844.82,401.16c7.19,5.56,15.19,12.06,25,16.47s7.85,18.8,7.85,18.8S879.13,424,871,419.76s-13.56-9.32-19.78-10.3a91,91,0,0,1-9.64-2s2-3.92.81-5.39S844.82,401.16,844.82,401.16Z" style="fill:#74b570"/><path d="M880.28,335.89c-26.32,7-45.62,23.87-49.21,27.95s-3.6,5.23-3.6,5.23l2.78,5.24,1.31-.66s-2.13-4.41,3.43-10.13c9.59-9.87,21.25-17.66,29.27-21.09S880.28,335.89,880.28,335.89Z" style="fill:#74b570"/><path d="M817.68,481.58h-10a13,13,0,0,1-13-12.95v-23.1h36v23.1A13,13,0,0,1,817.68,481.58Z" style="fill:#a86b48"/><rect x="794.67" y="449.66" width="35.95" height="2.53" style="fill:#fff"/><rect x="794.67" y="454.27" width="35.95" height="1.49" style="fill:#fff"/><rect x="148.53" y="436.5" width="15.14" height="13.62" rx="3.28" style="fill:#606060"/><rect x="121.01" y="436.5" width="15.14" height="13.62" rx="3.28" style="fill:#606060"/><rect x="93.48" y="436.5" width="15.14" height="13.62" rx="3.28" style="fill:#606060"/><path d="M880.06,187.65v8.58a3.28,3.28,0,0,1-3.28,3.28h-7.06a3.28,3.28,0,0,1-3.29-3.28h0v-8.58a3.29,3.29,0,0,1,3.29-3.27h7.06A3.27,3.27,0,0,1,880.06,187.65Z" style="fill:#606060"/><path d="M880.06,215.17v8.58a3.28,3.28,0,0,1-3.28,3.28h-7.07a3.27,3.27,0,0,1-3.26-3.28v-8.58a3.27,3.27,0,0,1,3.26-3.27h7.06a3.28,3.28,0,0,1,3.29,3.27Z" style="fill:#606060"/><path d="M880.06,242.7v8.58a3.28,3.28,0,0,1-3.28,3.28h-7.06a3.28,3.28,0,0,1-3.28-3.29h0V242.7a3.27,3.27,0,0,1,3.28-3.27h7.06A3.27,3.27,0,0,1,880.06,242.7Z" style="fill:#606060"/></svg>