<svg id="Layer_1" data-name="Layer 1" xmlns="http://www.w3.org/2000/svg" xmlns:xlink="http://www.w3.org/1999/xlink" width="465.8" height="512" viewBox="0 0 465.8 512"><defs><linearGradient id="linear-gradient" x1="262.15" y1="516.82" x2="247.15" y2="-1.18" gradientTransform="matrix(1, 0, 0, -1, 0, 513)" gradientUnits="userSpaceOnUse"><stop offset="0" stop-color="#ff512f"/><stop offset="1" stop-color="#f09819"/></linearGradient><linearGradient id="linear-gradient-2" x1="169.59" y1="519.5" x2="154.59" y2="1.5" xlink:href="#linear-gradient"/><linearGradient id="linear-gradient-3" x1="354.13" y1="514.16" x2="339.13" y2="-3.84" xlink:href="#linear-gradient"/></defs><title>file-noti</title><g id="surface1"><path d="M371.9,221.6V124.7a11.48,11.48,0,0,0-3.1-7.4L260.2,3.3A10.89,10.89,0,0,0,252.4,0H80.2C48.4,0,23,25.9,23,57.7V383.4a57,57,0,0,0,57.2,57.3h136A146.76,146.76,0,0,0,341.9,512c80.9,0,146.9-65.7,146.9-146.7C488.9,294.5,438.1,235.4,371.9,221.6ZM263.1,37.5,336,114.2H288.7a25.74,25.74,0,0,1-25.6-25.7ZM80.2,419.4a35.77,35.77,0,0,1-35.9-36V57.7A36,36,0,0,1,80.2,21.3H241.8V88.4a47.09,47.09,0,0,0,47,47.1h61.9v83.3c-3.2-.1-5.8-.4-8.5-.4a148.92,148.92,0,0,0-97.3,36.7H109.2a10.7,10.7,0,1,0,0,21.4H224.9a167.61,167.61,0,0,0-18.8,33.1H109.2a10.7,10.7,0,0,0,0,21.4h90a142.19,142.19,0,0,0-4.1,34.4c0,19.2,3.7,38.2,10.5,54.2H80.2ZM342,490.8A125.4,125.4,0,1,1,467.4,365.4,125.54,125.54,0,0,1,342,490.8Z" transform="translate(-23)" style="fill:url(#linear-gradient)"/><path d="M109.2,223H217.3a10.7,10.7,0,0,0,0-21.4H109.2a10.71,10.71,0,0,0-10.7,10.7A10.84,10.84,0,0,0,109.2,223Z" transform="translate(-23)" style="fill:url(#linear-gradient-2)"/><path d="M413.6,389.6V361a72.37,72.37,0,0,0-46.1-67.4,28.23,28.23,0,0,0,2.9-12.7,28.5,28.5,0,1,0-53.9,12.7A72.15,72.15,0,0,0,270.6,361v28.6a32.39,32.39,0,0,0-20.2,29.8,32,32,0,0,0,31.9,32.1h22.6a38.43,38.43,0,0,0,73.8,0h22.6a32.17,32.17,0,0,0,12.3-61.9ZM341.7,273.7a7.26,7.26,0,0,1,7.1,7.1,7.15,7.15,0,0,1-7.1,7.2,7,7,0,0,1-7.1-7.2A7.26,7.26,0,0,1,341.7,273.7Zm.4,36.4c27.6,0,50.2,22.8,50.2,50.9v26.4H291.9V361C291.9,332.9,314.4,310.1,342.1,310.1Zm-.4,147.7c-5.4,0-10.2-2.1-13.3-6.4h26.8C352.1,455.7,347.3,457.8,341.7,457.8ZM401.3,430h-119a10.7,10.7,0,0,1,0-21.4h119a10.7,10.7,0,0,1,0,21.4Z" transform="translate(-23)" style="fill:url(#linear-gradient-3)"/></g></svg>