<?xml version="1.0" encoding="utf-8"?>
<!-- Generator: Adobe Illustrator 23.0.1, SVG Export Plug-In . SVG Version: 6.00 Build 0)  -->
<svg version="1.1" id="Layer_1" xmlns="http://www.w3.org/2000/svg" xmlns:xlink="http://www.w3.org/1999/xlink" x="0px" y="0px"
	 viewBox="0 0 50 50" style="enable-background:new 0 0 50 50;" xml:space="preserve">
<style type="text/css">
	.st0{fill:#F26522;}
</style>
<title>graphical-report</title>
<path class="st0" d="M0,40.6V9.4c0-2.9,2.3-5.2,5.2-5.2h39.6c2.9,0,5.2,2.3,5.2,5.2c0,0,0,0,0,0v31.3c0,2.9-2.3,5.2-5.2,5.2H5.2
	C2.3,45.8,0,43.5,0,40.6z M47.9,9.4c0-1.7-1.4-3.1-3.1-3.1H5.2c-1.7,0-3.1,1.4-3.1,3.1v0v31.3c0,1.7,1.4,3.1,3.1,3.1h39.6
	c1.7,0,3.1-1.4,3.1-3.1V9.4z"/>
<path class="st0" d="M38.5,19.8h-4.2c-0.6,0-1-0.5-1-1c0-0.6,0.5-1,1-1h4.2c0.6,0,1,0.5,1,1C39.6,19.3,39.1,19.8,38.5,19.8z"/>
<path class="st0" d="M38.5,13.5h-4.2c-0.6,0-1-0.5-1-1c0-0.6,0.5-1,1-1h4.2c0.6,0,1,0.5,1,1C39.6,13.1,39.1,13.5,38.5,13.5z"/>
<path class="st0" d="M38.5,26h-4.2c-0.6,0-1-0.5-1-1c0-0.6,0.5-1,1-1h4.2c0.6,0,1,0.5,1,1C39.6,25.6,39.1,26,38.5,26z"/>
<path class="st0" d="M38.5,32.3h-4.2c-0.6,0-1-0.5-1-1s0.5-1,1-1h4.2c0.6,0,1,0.5,1,1S39.1,32.3,38.5,32.3z"/>
<path class="st0" d="M38.5,38.5H11.5c-0.6,0-1-0.5-1-1s0.5-1,1-1h27.1c0.6,0,1,0.5,1,1S39.1,38.5,38.5,38.5z"/>
<path class="st0" d="M20.8,32.3c-5.8,0-10.4-4.7-10.4-10.4s4.7-10.4,10.4-10.4s10.4,4.7,10.4,10.4S26.6,32.3,20.8,32.3L20.8,32.3z
	 M20.8,13.5c-4.6,0-8.3,3.7-8.3,8.3c0,4.6,3.7,8.3,8.3,8.3s8.3-3.7,8.3-8.3c0,0,0,0,0,0C29.2,17.3,25.4,13.5,20.8,13.5z"/>
<path class="st0" d="M14.2,29.5c-0.6,0-1-0.4-1.1-0.9c0-0.3,0.1-0.6,0.3-0.8l6.3-6.3v-9c0-0.6,0.5-1,1-1s1,0.5,1,1v9.4
	c0,0.3-0.1,0.5-0.3,0.7l-6.6,6.6C14.7,29.4,14.5,29.6,14.2,29.5z"/>
</svg>
