<?xml version="1.0" encoding="utf-8"?>
<!-- Generator: Adobe Illustrator 23.0.1, SVG Export Plug-In . SVG Version: 6.00 Build 0)  -->
<svg version="1.1" id="Capa_1" xmlns="http://www.w3.org/2000/svg" xmlns:xlink="http://www.w3.org/1999/xlink" x="0px" y="0px"
	 viewBox="0 0 512 512" style="enable-background:new 0 0 512 512;" xml:space="preserve">
<style type="text/css">
	.st0{fill:#F26522;}
</style>
<g>
	<g>
		<path class="st0" d="M451.9,91.2L434.8,40c-1.5-4.5-6.3-6.9-10.8-5.4c-0.4,0.1-0.8,0.3-1.2,0.5l-51.2,25.6
			c-4.2,2.1-5.9,7.2-3.8,11.5s7.2,5.9,11.5,3.8L407.2,62C333.8,196.2,199.9,281.6,59.7,281.6v17.1c148.3,0,289.6-91.2,365.3-233.9
			l10.6,31.8c1.5,4.5,6.3,6.9,10.8,5.4S453.3,95.6,451.9,91.2z"/>
	</g>
</g>
<g>
	<g>
		<path class="st0" d="M503.5,0H8.5C3.8,0,0,3.8,0,8.5v384c0,4.7,3.8,8.5,8.5,8.5h150.6L128.4,501c-1.4,4.5,1.1,9.3,5.6,10.7
			c4.5,1.4,9.3-1.1,10.7-5.6l16.5-53.7h189.6l16.5,53.7c1.4,4.5,6.2,7,10.7,5.6c4.5-1.4,7-6.2,5.6-10.7l-30.7-99.9h150.6
			c4.7,0,8.5-3.8,8.5-8.5V8.5C512,3.8,508.2,0,503.5,0z M166.5,435.2l10.5-34.1H335l10.5,34.1H166.5z M494.9,384H17.1V17.1h477.9
			V384z"/>
	</g>
</g>
<g>
	<g>
		<path class="st0" d="M102.4,315.7H68.3c-4.7,0-8.5,3.8-8.5,8.5v34.1c0,4.7,3.8,8.5,8.5,8.5h34.1c4.7,0,8.5-3.8,8.5-8.5v-34.1
			C110.9,319.6,107.1,315.7,102.4,315.7z M93.9,349.9H76.8v-17.1h17.1V349.9z"/>
	</g>
</g>
<g>
	<g>
		<path class="st0" d="M187.7,298.7h-34.1c-4.7,0-8.5,3.8-8.5,8.5v51.2c0,4.7,3.8,8.5,8.5,8.5h34.1c4.7,0,8.5-3.8,8.5-8.5v-51.2
			C196.3,302.5,192.4,298.7,187.7,298.7z M179.2,349.9h-17.1v-34.1h17.1V349.9z"/>
	</g>
</g>
<g>
	<g>
		<path class="st0" d="M273.1,264.5h-34.1c-4.7,0-8.5,3.8-8.5,8.5v85.3c0,4.7,3.8,8.5,8.5,8.5h34.1c4.7,0,8.5-3.8,8.5-8.5v-85.3
			C281.6,268.4,277.8,264.5,273.1,264.5z M264.5,349.9h-17.1v-68.3h17.1V349.9z"/>
	</g>
</g>
<g>
	<g>
		<path class="st0" d="M358.4,213.3h-34.1c-4.7,0-8.5,3.8-8.5,8.5v136.5c0,4.7,3.8,8.5,8.5,8.5h34.1c4.7,0,8.5-3.8,8.5-8.5V221.9
			C366.9,217.2,363.1,213.3,358.4,213.3z M349.9,349.9h-17.1V230.4h17.1V349.9z"/>
	</g>
</g>
<g>
	<g>
		<path class="st0" d="M443.7,119.5h-34.1c-4.7,0-8.5,3.8-8.5,8.5v230.4c0,4.7,3.8,8.5,8.5,8.5h34.1c4.7,0,8.5-3.8,8.5-8.5V128
			C452.3,123.3,448.4,119.5,443.7,119.5z M435.2,349.9h-17.1V136.5h17.1V349.9z"/>
	</g>
</g>
</svg>
