<svg id="Layer_1" data-name="Layer 1" xmlns="http://www.w3.org/2000/svg" width="511.93" height="511.94" viewBox="0 0 511.93 511.94"><title>hand</title><path d="M236.3,347.3a10,10,0,1,0-14.1,0A10,10,0,0,0,236.3,347.3Z" transform="translate(-0.98)" style="fill:#f26522"/><path d="M188.9,110A110,110,0,1,0,298.9,0,110.13,110.13,0,0,0,188.9,110Zm200,0a90,90,0,1,1-90-90A90.14,90.14,0,0,1,388.9,110Z" transform="translate(-0.98)" style="fill:#f26522"/><path d="M116.2,509a10.05,10.05,0,0,0,14.1.1l48.5-47.8a30.26,30.26,0,0,0,7.1-31l10.4-10.1a29.86,29.86,0,0,1,20.8-8.4H350a89.76,89.76,0,0,0,62.8-25.5c.7-.7-5.3,6.4,90.7-108.3a40,40,0,0,0-60.9-51.9l-59,60.6a40,40,0,0,0-31.1-14.9H241a129.85,129.85,0,0,0-50.1-10c-48.1,0-90.2,22.2-112.7,63.9A29.83,29.83,0,0,0,51.5,334L3.9,381.8a10,10,0,0,0,0,14.1Zm74.7-227.1a108.81,108.81,0,0,1,44,9.2,9.24,9.24,0,0,0,4,.8H352.4a20,20,0,0,1,0,40H270.8a10,10,0,0,0,0,20h81.6a40,40,0,0,0,40-40,29.61,29.61,0,0,0-.4-5.2c57.1-58.7,65.1-66.9,65.5-67.3A20,20,0,1,1,488,265.2L398.3,372.4a69.56,69.56,0,0,1-48.5,19.5H217.1a49.79,49.79,0,0,0-34.7,14l-8.5,8.2L95.6,335.8C113.9,301.5,148.2,281.9,190.9,281.9ZM65.6,348.3A10,10,0,0,1,78,346.9c1.7,1.1-3.2-3.5,86.6,86.2a10.05,10.05,0,0,1,.1,14.1l-41.3,40.7-98.2-99Z" transform="translate(-0.98)" style="fill:#f26522"/><path d="M286.9,50V61.7a30,30,0,0,0,10,58.3,10,10,0,0,1,0,20c-4.3,0-8.9-2.7-13-7.6a10,10,0,1,0-15.3,12.9,40.39,40.39,0,0,0,18.3,13V170a10,10,0,0,0,20,0V158.3a30,30,0,0,0-10-58.3,10,10,0,0,1,0-20c3.5,0,7.3,1.8,10.8,5.2a10,10,0,0,0,13.9-14.3,39.2,39.2,0,0,0-14.7-9.2V50a10,10,0,0,0-20,0Z" transform="translate(-0.98)" style="fill:#f26522"/></svg>