<svg id="Layer_1" data-name="Layer 1" xmlns="http://www.w3.org/2000/svg" width="44" height="41.9" viewBox="0 0 44 41.9"><title>hierarchy</title><path d="M14.4,26.9,18.5,35a4.72,4.72,0,0,1,1.7-.7c-.1-.2-4.2-8.3-4.3-8.3A4.62,4.62,0,0,1,14.4,26.9Z" transform="translate(0 -0.9)" style="fill:#f26522"/><path d="M6.3,35l4.1-8.1a4.92,4.92,0,0,1-1.5-1c-.1.1-4.3,8.3-4.3,8.3A13,13,0,0,1,6.3,35Z" transform="translate(0 -0.9)" style="fill:#f26522"/><path d="M23.3,9.2l4.6,8.9a6,6,0,0,1,1.6-.8h0L24.8,8.2C24.4,8.5,23.8,8.9,23.3,9.2Z" transform="translate(0 -0.9)" style="fill:#f26522"/><path d="M14.8,17.7l4.4-8.5a4.37,4.37,0,0,1-1.5-1c-4.8,9.3-4.6,8.9-4.6,9A2.16,2.16,0,0,1,14.8,17.7Z" transform="translate(0 -0.9)" style="fill:#f26522"/><path d="M32.9,26.9l4.4,8.4a4.94,4.94,0,0,1,1.5-.9l-4.4-8.5A3.07,3.07,0,0,1,32.9,26.9Z" transform="translate(0 -0.9)" style="fill:#f26522"/><path d="M27.4,25.9,23,34.5a4.62,4.62,0,0,1,1.5.9L28.9,27A5.83,5.83,0,0,1,27.4,25.9Z" transform="translate(0 -0.9)" style="fill:#f26522"/><path d="M12.4,25.5A3.4,3.4,0,1,0,9,22.1,3.37,3.37,0,0,0,12.4,25.5Z" transform="translate(0 -0.9)" style="fill:#f26522"/><path d="M21.3,7.7a3.5,3.5,0,0,0,3.4-3.4A3.44,3.44,0,0,0,21.3.9a3.37,3.37,0,0,0-3.4,3.4A3.31,3.31,0,0,0,21.3,7.7Z" transform="translate(0 -0.9)" style="fill:#f26522"/><path d="M8.5,38.5a5.43,5.43,0,0,1,0,1.8h7.7a5.43,5.43,0,0,1,0-1.8Z" transform="translate(0 -0.9)" style="fill:#f26522"/><path d="M26.4,38.5a5.43,5.43,0,0,1,0,1.8h9.2a5.44,5.44,0,0,1,0-1.8Z" transform="translate(0 -0.9)" style="fill:#f26522"/><path d="M40.6,36A3.4,3.4,0,1,0,44,39.4,3.5,3.5,0,0,0,40.6,36Z" transform="translate(0 -0.9)" style="fill:#f26522"/><path d="M21.3,36a3.37,3.37,0,0,0-3.4,3.4,3.4,3.4,0,1,0,6.8,0A3.5,3.5,0,0,0,21.3,36Z" transform="translate(0 -0.9)" style="fill:#f26522"/><path d="M3.4,36a3.4,3.4,0,0,0,0,6.8,3.4,3.4,0,1,0,0-6.8Z" transform="translate(0 -0.9)" style="fill:#f26522"/><path d="M27.5,22.2a3.4,3.4,0,1,0,3.4-3.4A3.5,3.5,0,0,0,27.5,22.2Z" transform="translate(0 -0.9)" style="fill:#f26522"/></svg>