<svg id="Layer_1" data-name="Layer 1" xmlns="http://www.w3.org/2000/svg" xmlns:xlink="http://www.w3.org/1999/xlink" width="426.85" height="511.99" viewBox="0 0 426.85 511.99"><defs><linearGradient id="linear-gradient" x1="125.56" y1="514.95" x2="118.56" y2="0.95" gradientTransform="matrix(1, 0, 0, -1, 0, 513)" gradientUnits="userSpaceOnUse"><stop offset="0" stop-color="#ff512f"/><stop offset="1" stop-color="#f09819"/></linearGradient><linearGradient id="linear-gradient-2" x1="257.61" y1="513.16" x2="250.61" y2="-0.84" xlink:href="#linear-gradient"/></defs><title>holidays</title><path d="M125,163.2a101.24,101.24,0,0,1,8.5-7.5,8.61,8.61,0,0,0,1.1-11.9,8.52,8.52,0,0,0-11.8-1.4,115,115,0,0,0-9.8,8.7,8.56,8.56,0,0,0,3.8,14.4A8.37,8.37,0,0,0,125,163.2Z" transform="translate(-42.93 0.09)" style="fill:url(#linear-gradient)"/><path d="M55,50.5A81.28,81.28,0,0,1,103.5,47a48.18,48.18,0,0,0-14.4,3.5c-28.6,12-37,48.5-37.3,50a8.62,8.62,0,0,0,6.5,10.2,11.08,11.08,0,0,0,1.9.2,8.46,8.46,0,0,0,8.3-6.7c.1-.3,6.9-29.5,27.3-38a38.4,38.4,0,0,1,27.9.7c-20.3,10-49.1,33.1-54.9,85.7a8.5,8.5,0,1,0,16.9,1.9c5.8-51.9,36.2-69.6,51.8-75.3,2.1,19.2,9.8,34.5,20.5,56,6.1,12.3,13.8,27.6,22.2,47.3,20.5,47.8,18.2,119.7,16.9,142.3H61.4A189.54,189.54,0,0,1,91.3,199.4c1.1-1.7,2.2-3.3,3.3-5l1.3-2a8.37,8.37,0,0,0,.6-8.5,8.53,8.53,0,0,0-7.1-4.8,8.68,8.68,0,0,0-7.7,3.7l-1.3,1.9c-1.3,1.9-2.6,3.7-3.7,5.5A207.23,207.23,0,0,0,57.1,378.8c.1.2.1.4.2.6a209.46,209.46,0,0,0,64.9,87.3,7,7,0,0,0,1,.8,209,209,0,0,0,257.6,0,3.92,3.92,0,0,0,1-.8,210.31,210.31,0,0,0,64.9-87.3,1.42,1.42,0,0,0,.2-.6,207.25,207.25,0,0,0,3.9-139.6,8.54,8.54,0,0,0-16.2,5.4,191.1,191.1,0,0,1,9.4,59,187,187,0,0,1-1.2,21.2H383.4a56.23,56.23,0,0,0,.9-9.2,51.15,51.15,0,1,0-102.3.1,47.81,47.81,0,0,0,.9,9.2H244.4c10.9-30,27.6-67.1,50.1-92.1,14.3-15.9,26.5-27.8,36.3-37.5,17.2-16.9,29.4-28.9,37.6-46.4,12.9,10.5,36,37.1,24.7,88a8.5,8.5,0,0,0,16.6,3.6c11.4-51.6-8.3-82.8-24.3-98.8A38.18,38.18,0,0,1,412,150c16.6,14.6,13.6,44.5,13.6,44.8a8.54,8.54,0,0,0,7.5,9.4c.3,0,.6.1,1,.1a8.63,8.63,0,0,0,8.5-7.6c.2-1.6,4-38.8-19.1-59.4a46.08,46.08,0,0,0-12.2-7.8,83,83,0,0,1,44.6,18.9,8.45,8.45,0,0,0,11.7-.9,8.65,8.65,0,0,0-.3-11.8,91.32,91.32,0,0,0-73-22.2,53,53,0,0,1,43.3-6.7,8.51,8.51,0,0,0,5.5-16.1,71.56,71.56,0,0,0-63.6,12.5A61.25,61.25,0,0,0,357.1,62a8.54,8.54,0,0,0-14.3,4.8A8.6,8.6,0,0,0,346,75a44.12,44.12,0,0,1,16.7,32.9,51.51,51.51,0,0,0-18.9-17.6c-29.1-15.9-66.9-1.2-68.5-.5a8.51,8.51,0,0,0,6.3,15.8c.3-.1,31.9-12.5,54-.4a35.72,35.72,0,0,1,13.8,14c-38.3-12.3-73.7,13.9-88.8,32.3a8.5,8.5,0,0,0,5.2,13.8,8.43,8.43,0,0,0,8-3c1.6-2,38.4-45.6,80.1-22.6-6.8,15.8-17.4,26.3-35.1,43.6-9.9,9.8-22.3,21.9-37,38.2C256,250.2,237.6,292.6,226.3,325H214.4c1.5-25,3.5-98.1-18.3-149.1-8.6-20.1-16.4-35.7-22.6-48.2-11.1-22.1-17.6-35.4-19.1-52.6,46.7-8.2,67.6,45,68.5,47.4a8.46,8.46,0,0,0,10.9,4.8,8.59,8.59,0,0,0,5.1-10.8c-8.4-22.3-33.4-58.6-73.7-59.3a37.08,37.08,0,0,1,17.7-8.8C207.6,44.1,233.7,66,234,66.2a8.61,8.61,0,0,0,11.9-1.1,8.5,8.5,0,0,0-.8-11.9c-1.3-1.1-32.4-27.4-65-21.7a52.16,52.16,0,0,0-23.6,10.6A44,44,0,0,1,183,16.4,8.55,8.55,0,1,0,176.7.5a61.43,61.43,0,0,0-34.6,31.8A72,72,0,0,0,85.8,0a8.64,8.64,0,0,0-8.6,8.5,8.64,8.64,0,0,0,8.5,8.6,52.87,52.87,0,0,1,38.8,20.3,92,92,0,0,0-76.3-2.6A8.71,8.71,0,0,0,43,41.6a8.62,8.62,0,0,0,12,8.9ZM411.8,409.9H92.6a192.79,192.79,0,0,1-14.4-25.4H426.1A192.13,192.13,0,0,1,411.8,409.9ZM156.7,469.5h191a192.07,192.07,0,0,1-191,0Zm216-17.1h-241A195.83,195.83,0,0,1,105.6,427H398.8a189.85,189.85,0,0,1-26.1,25.4Zm60.5-85H71.2A187.75,187.75,0,0,1,64.1,342H440.4a222.76,222.76,0,0,1-7.2,25.4ZM299.1,315.7a34.1,34.1,0,0,1,68.2,0,36,36,0,0,1-1.4,9.2H300.4A40.83,40.83,0,0,1,299.1,315.7Z" transform="translate(-42.93 0.09)" style="fill:url(#linear-gradient-2)"/></svg>