<svg id="Capa_1" data-name="Capa 1" xmlns="http://www.w3.org/2000/svg" xmlns:xlink="http://www.w3.org/1999/xlink" width="42.95" height="51.22" viewBox="0 0 42.95 51.22"><defs><style>.cls-1{fill:url(#linear-gradient);}.cls-2{fill:url(#linear-gradient-2);}.cls-3{fill:url(#linear-gradient-3);}.cls-4{fill:url(#linear-gradient-4);}.cls-5{fill:url(#linear-gradient-5);}.cls-6{fill:url(#linear-gradient-6);}.cls-7{fill:url(#linear-gradient-7);}.cls-8{fill:url(#linear-gradient-8);}.cls-9{fill:url(#linear-gradient-9);}.cls-10{fill:url(#linear-gradient-10);}.cls-11{fill:url(#linear-gradient-11);}</style><linearGradient id="linear-gradient" x1="38.06" y1="-0.03" x2="39.56" y2="51.27" gradientUnits="userSpaceOnUse"><stop offset="0" stop-color="#ff512f"/><stop offset="1" stop-color="#f09819"/></linearGradient><linearGradient id="linear-gradient-2" x1="12.17" y1="0.72" x2="13.67" y2="52.03" xlink:href="#linear-gradient"/><linearGradient id="linear-gradient-3" x1="39.05" y1="-0.06" x2="40.55" y2="51.25" xlink:href="#linear-gradient"/><linearGradient id="linear-gradient-4" x1="12.73" y1="0.71" x2="14.23" y2="52.01" xlink:href="#linear-gradient"/><linearGradient id="linear-gradient-5" x1="26.17" y1="0.31" x2="27.67" y2="51.62" xlink:href="#linear-gradient"/><linearGradient id="linear-gradient-6" x1="25.39" y1="0.34" x2="26.89" y2="51.64" xlink:href="#linear-gradient"/><linearGradient id="linear-gradient-7" x1="7.01" y1="0.88" x2="8.51" y2="52.18" xlink:href="#linear-gradient"/><linearGradient id="linear-gradient-8" x1="43.77" y1="-0.2" x2="45.27" y2="51.11" xlink:href="#linear-gradient"/><linearGradient id="linear-gradient-9" x1="14.93" y1="0.64" x2="16.43" y2="51.95" xlink:href="#linear-gradient"/><linearGradient id="linear-gradient-10" x1="37.31" y1="-0.01" x2="38.81" y2="51.3" xlink:href="#linear-gradient"/><linearGradient id="linear-gradient-11" x1="19.47" y1="0.51" x2="20.97" y2="51.82" xlink:href="#linear-gradient"/></defs><title>ideal-activity</title><path class="cls-1" d="M44.32,24.49a3.22,3.22,0,0,0-3.21,3.22v8.22a2.37,2.37,0,0,1-.89,1.86l0,0L38.46,39.3a.58.58,0,0,1-.92-.36L37,34.16v0a3.22,3.22,0,0,0-6.4.45v8.06a8,8,0,0,0,1.74,5l.39.49v2.53a1,1,0,0,0,1,1h8a1.05,1.05,0,0,0,.71-.29,1,1,0,0,0,.29-.71V48.32l3.73-5.52a.08.08,0,0,0,0,0,7.15,7.15,0,0,0,1-3.71V27.71a3.23,3.23,0,0,0-3.22-3.22Zm1.21,14.56a5.11,5.11,0,0,1-.74,2.64L40.9,47.44a1,1,0,0,0-.17.56v1.65h-6V47.76a1.08,1.08,0,0,0-.21-.62l-.6-.76a6.1,6.1,0,0,1-1.3-3.76V34.56a1.21,1.21,0,0,1,1.21-1.21,1.22,1.22,0,0,1,1.2,1l.5,4.78a2.6,2.6,0,0,0,4.2,1.66l1.75-1.5a4.37,4.37,0,0,0,1.62-3.4V27.7a1.21,1.21,0,1,1,2.42,0V39.05Z" transform="translate(-4.58 -0.44)"/><path class="cls-2" d="M20.52,44.3a1,1,0,0,0-1.3.56,6.18,6.18,0,0,1-.87,1.52l-.6.76a1,1,0,0,0-.21.62v1.88h-6V48a1,1,0,0,0-.17-.56L7.51,41.69a5.13,5.13,0,0,1-.74-2.64V27.71a1.21,1.21,0,1,1,2.42,0v8.22a4.34,4.34,0,0,0,1.62,3.4l1.75,1.5a2.6,2.6,0,0,0,4.2-1.66l.5-4.78a1.21,1.21,0,0,1,2.4.18v1.89a1,1,0,0,0,2,0V34.57a3.21,3.21,0,0,0-6.39-.45v0l-.5,4.78a.57.57,0,0,1-.92.36L12.11,37.8l0,0a2.4,2.4,0,0,1-.89-1.86V27.7a3.21,3.21,0,1,0-6.42,0V39.05a7.06,7.06,0,0,0,1,3.71l0,0,3.73,5.52v2.33a1,1,0,0,0,.29.71,1,1,0,0,0,.71.29h8a1,1,0,0,0,1-1V48.11l.39-.49a8.1,8.1,0,0,0,1.16-2,1,1,0,0,0-.58-1.3Z" transform="translate(-4.58 -0.44)"/><path class="cls-3" d="M34.75,14.83a4.74,4.74,0,1,0,4.74-4.74,4.75,4.75,0,0,0-4.74,4.74Zm7.48,0a2.74,2.74,0,1,1-2.74-2.74,2.74,2.74,0,0,1,2.74,2.74Z" transform="translate(-4.58 -0.44)"/><path class="cls-4" d="M8.4,14.83a4.74,4.74,0,1,0,4.74-4.74A4.75,4.75,0,0,0,8.4,14.83Zm4.74-2.74a2.74,2.74,0,1,1-2.74,2.74,2.74,2.74,0,0,1,2.74-2.74Z" transform="translate(-4.58 -0.44)"/><path class="cls-5" d="M26.31,9.92a4.74,4.74,0,1,0-4.74-4.74A4.75,4.75,0,0,0,26.31,9.92Zm0-7.48a2.74,2.74,0,1,1-2.74,2.74A2.74,2.74,0,0,1,26.31,2.44Z" transform="translate(-4.58 -0.44)"/><path class="cls-6" d="M26.11,20.2a4.75,4.75,0,1,0,4.74,4.74,4.75,4.75,0,0,0-4.74-4.74Zm0,7.49a2.75,2.75,0,1,1,2.74-2.75A2.75,2.75,0,0,1,26.11,27.69Z" transform="translate(-4.58 -0.44)"/><path class="cls-7" d="M5.47,14.15a1,1,0,0,0,1.11-.88A6.36,6.36,0,0,1,9.53,9,1,1,0,1,0,8.46,7.33a8.34,8.34,0,0,0-3.87,5.72,1,1,0,0,0,.88,1.1Z" transform="translate(-4.58 -0.44)"/><path class="cls-8" d="M44,20a5,5,0,0,1-1.55,1,1,1,0,1,0,.78,1.84,7,7,0,0,0,3.61-3.33,1,1,0,0,0-1.77-.93A5.45,5.45,0,0,1,44,20Z" transform="translate(-4.58 -0.44)"/><path class="cls-9" d="M12.68,21.25a1,1,0,1,0-1.8.86A14.75,14.75,0,0,0,19.17,29a1,1,0,0,0,.65-1.89,13,13,0,0,1-7.14-5.86Z" transform="translate(-4.58 -0.44)"/><path class="cls-10" d="M33.2,3.27a12.87,12.87,0,0,1,7.51,5.36,1,1,0,0,0,1.39.27,1,1,0,0,0,.27-1.39,14.77,14.77,0,0,0-8.81-6.2,1,1,0,0,0-.36,2Z" transform="translate(-4.58 -0.44)"/><path class="cls-11" d="M21.57,40.38A1,1,0,1,0,21,41.69,1,1,0,0,0,21.57,40.38Z" transform="translate(-4.58 -0.44)"/></svg>