<svg id="Capa_1" data-name="Capa 1" xmlns="http://www.w3.org/2000/svg" width="512" height="504" viewBox="0 0 512 504"><title>innovation</title><path d="M435,222.2a25.07,25.07,0,0,0-47.3.1H335.8V188.7h33.6a8.45,8.45,0,0,0,8.4-8.4h0V145.2a25.14,25.14,0,1,0-16.8,0v26.7H335.8V155.1a8.45,8.45,0,0,0-8.4-8.4H310.6V103.2a25.14,25.14,0,1,0-16.8,0v43.5H260.2V12.7a8.45,8.45,0,0,0-8.4-8.4h0C148.3,4.3,67.1,79.3,67.1,175c0,45.5,18,105.6,47.1,157.1,5.2,9.2,12,18.9,19.2,29.2,15.2,21.7,32.2,46.1,34,67.4a23.88,23.88,0,0,0-10.1,19.9,24.64,24.64,0,0,0,5.6,15.6,25.93,25.93,0,0,0-7.7,18.6A25.22,25.22,0,0,0,180.4,508H323.1a25.35,25.35,0,0,0,25.2-25.5v-.3a25.19,25.19,0,0,0-7.7-18.1,26,26,0,0,0,5.6-16.1,24,24,0,0,0-24.1-24H260.2V264.2H277v25.2a8.45,8.45,0,0,0,8.4,8.4h25.2v9.9a25.14,25.14,0,1,0,16.8,0V289.4A8.45,8.45,0,0,0,319,281H293.8V264.2h33.6a8.45,8.45,0,0,0,8.4-8.4h0V239h51.9A25.1,25.1,0,0,0,435,222.2Zm-65.7-109a8.4,8.4,0,1,1-8.4,8.4A8.45,8.45,0,0,1,369.3,113.2ZM147.2,351.6c-7-9.9-13.5-19.3-18.4-27.8C101.6,275.5,83.9,217.1,83.9,175c0-83.7,69.4-149.8,159.5-153.7V79.9c-2.2.2-4.5.4-6.9.7a8.29,8.29,0,0,0-7.2,6.6l-2.6,12.2c-2.1.5-4.2,1.1-6.3,1.7L212,91.8a8.3,8.3,0,0,0-9.5-2.1,126.58,126.58,0,0,0-26.4,15.4,8.36,8.36,0,0,0-2.9,9.3l3.9,11.7c-1.6,1.5-3.1,3-4.6,4.6l-11.7-3.9a8.52,8.52,0,0,0-9.3,2.9,122.33,122.33,0,0,0-15.4,26.4,8.3,8.3,0,0,0,2.1,9.5l9.3,8.4c-.6,2.1-1.2,4.2-1.7,6.2l-13.1,2.6A8.35,8.35,0,0,0,126,191v28.6a8.35,8.35,0,0,0,6.8,8.2l13.1,2.6c.5,2.1,1.1,4.2,1.7,6.2l-9.3,8.4a8.3,8.3,0,0,0-2.1,9.5,126.58,126.58,0,0,0,15.4,26.4,8.36,8.36,0,0,0,9.3,2.9l11.7-3.9c1.5,1.6,3,3.1,4.6,4.6l-3.9,11.7a8.47,8.47,0,0,0,2.9,9.3,122.33,122.33,0,0,0,26.4,15.4,8.3,8.3,0,0,0,9.5-2.1l8.4-9.3c2.1.6,4.2,1.2,6.3,1.7l2.6,12.2a8.29,8.29,0,0,0,7.2,6.6c2.4.3,4.7.5,6.9.7v93H184C180.5,399.3,163,374.1,147.2,351.6Zm29.1-146.1a75.61,75.61,0,0,0,67.1,75v28.9l-1.4-6.6a8.45,8.45,0,0,0-6.7-6.5,89.68,89.68,0,0,1-14.6-3.9,9.18,9.18,0,0,0-2.8-.5,8,8,0,0,0-6.2,2.8l-7.9,8.8a112.43,112.43,0,0,1-12.6-7.4l3.6-11.1a8.14,8.14,0,0,0-2.6-9,90.11,90.11,0,0,1-10.7-10.7,8.31,8.31,0,0,0-9-2.5l-11.1,3.6a106.47,106.47,0,0,1-7.4-12.6l8.8-7.9a8.61,8.61,0,0,0,2.3-9.1,92.48,92.48,0,0,1-3.9-14.6,8.19,8.19,0,0,0-6.6-6.7l-11.7-2.3V198.3l11.7-2.3a8.31,8.31,0,0,0,6.6-6.7,89.68,89.68,0,0,1,3.9-14.6,8.43,8.43,0,0,0-2.3-9.1l-8.8-7.9a112.43,112.43,0,0,1,7.4-12.6l11.1,3.6a8.31,8.31,0,0,0,9-2.5,99.24,99.24,0,0,1,10.7-10.8,8.31,8.31,0,0,0,2.5-9l-3.6-11.1a106.47,106.47,0,0,1,12.6-7.4l7.9,8.8a8.61,8.61,0,0,0,9.1,2.3,92.48,92.48,0,0,1,14.6-3.9,8.32,8.32,0,0,0,6.7-6.5l1.4-6.6v28.9A74.78,74.78,0,0,0,176.3,205.5Zm67.1-58.1V263.6a58.69,58.69,0,0,1,0-116.2Zm88.1,335.4a8.45,8.45,0,0,1-8.4,8.4H180.5a8.58,8.58,0,0,1-8.4-8.7v-.3a8.45,8.45,0,0,1,8.4-8.4H323.2a8.58,8.58,0,0,1,8.4,8.7A.37.37,0,0,0,331.5,482.8Zm-10.5-42a7.73,7.73,0,0,1,8.4,7v.9a8.45,8.45,0,0,1-8.4,8.4H182.6a8.58,8.58,0,0,1-8.4-8.7v-.3a7.52,7.52,0,0,1,7.9-7.2h.5l138.4-.1ZM319,323a8.4,8.4,0,1,1-8.4,8.4A8.45,8.45,0,0,1,319,323ZM302.2,71.2a8.4,8.4,0,1,1-8.4,8.4A8.45,8.45,0,0,1,302.2,71.2ZM319,247.5H260.2V163.6H319Zm92.3-8.4a8.4,8.4,0,1,1,8.4-8.4A8.45,8.45,0,0,1,411.3,239.1Z" transform="translate(0 -4)" style="fill:#f26522"/><path d="M332.7,388a129.29,129.29,0,0,0-7.8,16.4l15.6,6.2a128.28,128.28,0,0,1,6.9-14.5Z" transform="translate(0 -4)" style="fill:#f26522"/><path d="M351.6,358.5c-3.3,4.7-6.6,9.6-9.7,14.4L356,382c3-4.7,6.2-9.4,9.4-14Z" transform="translate(0 -4)" style="fill:#f26522"/><path d="M370.7,330.5c-2.8,4.5-6,9.1-9.3,13.9l13.8,9.6c3.5-5,6.8-9.8,9.7-14.5Z" transform="translate(0 -4)" style="fill:#f26522"/><path d="M386.5,301.3c-2.4,5-4.9,10-7.5,14.9l14.8,7.9c2.7-5.1,5.4-10.3,7.9-15.6Z" transform="translate(0 -4)" style="fill:#f26522"/><path d="M399.6,270.5c-2,5.2-4,10.4-6.2,15.5l15.5,6.6c2.3-5.4,4.4-10.8,6.5-16.2Z" transform="translate(0 -4)" style="fill:#f26522"/><path d="M436.5,173.3l-16.8.1v1.5c0,4.7-.2,9.7-.7,14.8l16.7,1.4c.5-5.6.7-11,.7-16.2Z" transform="translate(0 -4)" style="fill:#f26522"/><path d="M432.2,137.6l-16.3,3.8a143,143,0,0,1,2.8,15.9l16.7-2C434.6,149.4,433.5,143.5,432.2,137.6Z" transform="translate(0 -4)" style="fill:#f26522"/><path d="M420.1,103.7,405,111a130.43,130.43,0,0,1,6.3,14.9l15.8-5.6A161.74,161.74,0,0,0,420.1,103.7Z" transform="translate(0 -4)" style="fill:#f26522"/><path d="M400.9,73.3,387.8,83.7a137,137,0,0,1,9.4,13.2l14.2-9C408.1,82.9,404.6,78,400.9,73.3Z" transform="translate(0 -4)" style="fill:#f26522"/><path d="M375.8,47.7,365.1,60.6a156.41,156.41,0,0,1,12,11l12-11.8C384.8,55.5,380.4,51.5,375.8,47.7Z" transform="translate(0 -4)" style="fill:#f26522"/><path d="M346.1,27.7l-8,14.8A160.18,160.18,0,0,1,352,50.9L361.4,37A160,160,0,0,0,346.1,27.7Z" transform="translate(0 -4)" style="fill:#f26522"/><path d="M313.2,13.7l-5.1,16c5.2,1.7,10.4,3.6,15.3,5.6L330,19.9C324.5,17.6,318.9,15.6,313.2,13.7Z" transform="translate(0 -4)" style="fill:#f26522"/><path d="M278.3,6l-2.1,16.7c5.4.7,10.8,1.6,16.1,2.8l3.6-16.4C290.2,7.8,284.2,6.8,278.3,6Z" transform="translate(0 -4)" style="fill:#f26522"/><rect x="16.8" y="453.3" width="16.8" height="16.8" style="fill:#f26522"/><rect x="16.8" y="486.9" width="16.8" height="16.8" style="fill:#f26522"/><rect x="33.6" y="470.1" width="16.8" height="16.8" style="fill:#f26522"/><rect y="470.1" width="16.8" height="16.8" style="fill:#f26522"/><rect x="478.4" width="16.8" height="16.8" style="fill:#f26522"/><rect x="478.4" y="33.6" width="16.8" height="16.8" style="fill:#f26522"/><rect x="495.2" y="16.8" width="16.8" height="16.8" style="fill:#f26522"/><rect x="461.6" y="16.8" width="16.8" height="16.8" style="fill:#f26522"/></svg>