<svg id="Layer_1" data-name="Layer 1" xmlns="http://www.w3.org/2000/svg" width="50" height="42.63" viewBox="0 0 50 42.63"><defs><style>.cls-1{fill:#f26522;}</style></defs><title>key-stroke-icon</title><path class="cls-1" d="M46,14.4a.4.4,0,0,1,.4.4v1.6a.4.4,0,1,1-.8,0V14.8A.4.4,0,0,1,46,14.4Zm3.2,6.4a3.2,3.2,0,0,1-6.4,0V16a3.2,3.2,0,0,1,6.4,0ZM46,12a4,4,0,0,0-4,4v4.8a4,4,0,0,0,8,0V16A4,4,0,0,0,46,12Z" transform="translate(0 -7.38)"/><path class="cls-1" d="M35.19,9.89a2.51,2.51,0,0,1,2.52,2.51V25a2.52,2.52,0,0,1-2.52,2.52H5A2.52,2.52,0,0,1,2.51,25V12.4A2.51,2.51,0,0,1,5,9.89ZM5,7.38a5,5,0,0,0-5,5V25a5,5,0,0,0,5,5H35.19a5,5,0,0,0,5-5V12.4a5,5,0,0,0-5-5Z" transform="translate(0 -7.38)"/><path class="cls-1" d="M30.25,22.44a.56.56,0,0,1,.56-.56h1.13a.56.56,0,0,1,.56.56v1.12a.57.57,0,0,1-.56.57H30.81a.57.57,0,0,1-.56-.57Zm0-4.5a.56.56,0,0,1,.56-.56h1.13a.56.56,0,0,1,.56.56v1.12a.57.57,0,0,1-.56.57H30.81a.57.57,0,0,1-.56-.57ZM19,17.94a.56.56,0,0,1,.56-.56h1.13a.56.56,0,0,1,.56.56v1.12a.57.57,0,0,1-.56.57H19.56a.57.57,0,0,1-.56-.57Zm4.5,0a.56.56,0,0,1,.56-.56h3.38a.56.56,0,0,1,.56.56v1.12a.57.57,0,0,1-.56.57H24.06a.57.57,0,0,1-.56-.57Zm2.25,4.5a.56.56,0,0,1,.56-.56h1.13a.56.56,0,0,1,.56.56v1.12a.57.57,0,0,1-.56.57H26.31a.57.57,0,0,1-.56-.57ZM14.5,17.94a.56.56,0,0,1,.56-.56h1.13a.56.56,0,0,1,.56.56v1.12a.57.57,0,0,1-.56.57H15.06a.57.57,0,0,1-.56-.57Zm-4.5,0a.56.56,0,0,1,.56-.56h1.13a.56.56,0,0,1,.56.56v1.12a.57.57,0,0,1-.56.57H10.56a.57.57,0,0,1-.56-.57Zm-4.5,0a.56.56,0,0,1,.56-.56H7.19a.56.56,0,0,1,.56.56v1.12a.57.57,0,0,1-.56.57H6.06a.57.57,0,0,1-.56-.57Zm24.75-4.5a.56.56,0,0,1,.56-.56h1.13a.56.56,0,0,1,.56.56v1.12a.57.57,0,0,1-.56.57H30.81a.57.57,0,0,1-.56-.57Zm-4.5,0a.56.56,0,0,1,.56-.56h1.13a.56.56,0,0,1,.56.56v1.12a.57.57,0,0,1-.56.57H26.31a.57.57,0,0,1-.56-.57Zm-4.5,0a.56.56,0,0,1,.56-.56h1.13a.56.56,0,0,1,.56.56v1.12a.57.57,0,0,1-.56.57H21.81a.57.57,0,0,1-.56-.57Zm-4.5,0a.56.56,0,0,1,.56-.56h1.13a.56.56,0,0,1,.56.56v1.12a.57.57,0,0,1-.56.57H17.31a.57.57,0,0,1-.56-.57Zm-4.5,0a.56.56,0,0,1,.56-.56h1.13a.56.56,0,0,1,.56.56v1.12a.57.57,0,0,1-.56.57H12.81a.57.57,0,0,1-.56-.57Zm-6.75,0a.56.56,0,0,1,.56-.56H9.44a.56.56,0,0,1,.56.56v1.12a.57.57,0,0,1-.56.57H6.06a.57.57,0,0,1-.56-.57Zm0,9a.56.56,0,0,1,.56-.56H7.19a.56.56,0,0,1,.56.56v1.12a.57.57,0,0,1-.56.57H6.06a.57.57,0,0,1-.56-.57Zm4.5,0a.56.56,0,0,1,.56-.56H22.94a.56.56,0,0,1,.56.56v1.12a.57.57,0,0,1-.56.57H10.56a.57.57,0,0,1-.56-.57Z" transform="translate(0 -7.38)"/><path class="cls-1" d="M27.29,32.19a.89.89,0,0,1,.89.89V40.5a.58.58,0,0,0,.59.59.59.59,0,0,0,.6-.59v-3h.1a4.81,4.81,0,0,1,1,0,1.66,1.66,0,0,1,.53.22.4.4,0,0,1,.18.37V40.5a.59.59,0,0,0,1.18,0V38.64h.13a2.21,2.21,0,0,1,.84,0,1.72,1.72,0,0,1,.58.51c.09.11.18.22.24.31v1.59a.59.59,0,1,0,1.18,0V39.91h.41a1.19,1.19,0,0,1,1.19,1.18s0,.08,0,.12l-.32,3.23a2.88,2.88,0,0,1-.38,1.17l-1.65,2.9a.6.6,0,0,1-.52.3H26.44a.61.61,0,0,1-.5-.26L24.24,46A1.8,1.8,0,0,1,24,45.2l-.41-3.68a.6.6,0,0,1,.48-.65l1.19-.24v1.06a.58.58,0,0,0,.59.59.59.59,0,0,0,.6-.59V33.08A.89.89,0,0,1,27.29,32.19Zm2.08,4.11V33.08a2.08,2.08,0,0,0-4.16,0v6.34l-1.43.28a1.8,1.8,0,0,0-1.42,1.95l.41,3.69a3.05,3.05,0,0,0,.48,1.31L25,49.21a1.78,1.78,0,0,0,1.48.79H34a1.78,1.78,0,0,0,1.55-.9l1.65-2.9a4.16,4.16,0,0,0,.53-1.65l.32-3.22A2.37,2.37,0,0,0,36,38.73H35l-.23-.3a3,3,0,0,0-1-.85,3.28,3.28,0,0,0-1.37-.12h-.16a1.53,1.53,0,0,0-.66-.76,2.87,2.87,0,0,0-.88-.34,5.82,5.82,0,0,0-1.25-.06Z" transform="translate(0 -7.38)"/></svg>