<svg id="Layer_1" data-name="Layer 1" xmlns="http://www.w3.org/2000/svg" xmlns:xlink="http://www.w3.org/1999/xlink" width="512.5" height="512.5" viewBox="0 0 512.5 512.5"><defs><linearGradient id="linear-gradient" x1="263.13" y1="510.59" x2="247.13" y2="-3.41" gradientTransform="matrix(1, 0, 0, -1, 0, 513)" gradientUnits="userSpaceOnUse"><stop offset="0" stop-color="#ff512f"/><stop offset="1" stop-color="#f09819"/></linearGradient><linearGradient id="linear-gradient-2" x1="69.04" y1="516.63" x2="53.04" y2="2.63" gradientTransform="matrix(1, 0, 0, -1, 1.5, 514.5)" xlink:href="#linear-gradient"/><linearGradient id="linear-gradient-3" x1="154.41" y1="513.98" x2="138.41" y2="-0.02" gradientTransform="matrix(1, 0, 0, -1, 1.5, 514.5)" xlink:href="#linear-gradient"/><linearGradient id="linear-gradient-4" x1="70.11" y1="516.6" x2="54.11" y2="2.6" gradientTransform="matrix(1, 0, 0, -1, 1.5, 514.5)" xlink:href="#linear-gradient"/><linearGradient id="linear-gradient-5" x1="155.47" y1="513.94" x2="139.47" y2="-0.06" gradientTransform="matrix(1, 0, 0, -1, 1.5, 514.5)" xlink:href="#linear-gradient"/><linearGradient id="linear-gradient-6" x1="71.17" y1="516.57" x2="55.17" y2="2.57" gradientTransform="matrix(1, 0, 0, -1, 1.5, 514.5)" xlink:href="#linear-gradient"/><linearGradient id="linear-gradient-7" x1="156.54" y1="513.91" x2="140.54" y2="-0.09" gradientTransform="matrix(1, 0, 0, -1, 1.5, 514.5)" xlink:href="#linear-gradient"/></defs><title>laptop</title><path d="M485.4,400A25.59,25.59,0,0,0,511,374.4V271.8a25.59,25.59,0,0,0-25.6-25.6h-8.5V186.4a42.68,42.68,0,0,0-42.7-42.7H269.9a75.41,75.41,0,0,0,2-17.1V75.4A77,77,0,0,0,195-1.5H75.4A76.86,76.86,0,0,0-1.5,75.4v51.3a76.76,76.76,0,0,0,34.2,63.9V434.2H7a8.49,8.49,0,0,0-8.5,8.5v25.6A42.68,42.68,0,0,0,41.2,511H468.3A42.68,42.68,0,0,0,511,468.3V442.7a8.49,8.49,0,0,0-8.5-8.5H476.9V400Zm0-17.1H314.6a8.49,8.49,0,0,1-8.5-8.5V287.9l79.8,53.2a25.35,25.35,0,0,0,28.4,0L494,287.9v86.5A8.64,8.64,0,0,1,485.4,382.9ZM83.9,203.5h30.6l74.4,74.4a8.57,8.57,0,0,0,6,2.5,9.6,9.6,0,0,0,3.3-.6,8.5,8.5,0,0,0,5.3-7.9V203a75.39,75.39,0,0,0,26.6-8.1H425.6v51.3h-111A25.65,25.65,0,0,0,289,271.8V374.3a25.59,25.59,0,0,0,25.6,25.6h111v34.2H83.9Zm409,64.5-88.2,58.8a8.63,8.63,0,0,1-9.5,0L307.1,268a8.66,8.66,0,0,1,7.5-4.7H485.4A8.29,8.29,0,0,1,492.9,268ZM434.2,160.8a25.65,25.65,0,0,1,25.6,25.6v59.8H442.7V177.9H252.2a76.91,76.91,0,0,0,11.6-17.1ZM15.6,126.6V75.4A59.83,59.83,0,0,1,75.4,15.6H195a59.83,59.83,0,0,1,59.8,59.8v51.3A59.83,59.83,0,0,1,195,186.5a8.49,8.49,0,0,0-8.5,8.5v56.3L124.2,189a8.57,8.57,0,0,0-6-2.5H75.4A60,60,0,0,1,15.6,126.6ZM49.8,199a77.3,77.3,0,0,0,17.1,4V434.1H49.8ZM493.9,468.3a25.59,25.59,0,0,1-25.6,25.6H41.2a25.59,25.59,0,0,1-25.6-25.6V451.2H494v17.1Zm-34.1-34.1H442.7V400h17.1Z" transform="translate(1.5 1.5)" style="fill:url(#linear-gradient)"/><rect x="59.8" y="59.8" width="17.1" height="17.1" style="fill:url(#linear-gradient-2)"/><rect x="94" y="59.8" width="119.6" height="17.1" style="fill:url(#linear-gradient-3)"/><rect x="59.8" y="94" width="17.1" height="17.1" style="fill:url(#linear-gradient-4)"/><rect x="94" y="94" width="119.6" height="17.1" style="fill:url(#linear-gradient-5)"/><rect x="59.8" y="128.1" width="17.1" height="17.1" style="fill:url(#linear-gradient-6)"/><rect x="94" y="128.1" width="119.6" height="17.1" style="fill:url(#linear-gradient-7)"/></svg>