<svg id="Layer_1" data-name="Layer 1" xmlns="http://www.w3.org/2000/svg" width="638.8" height="502.6" viewBox="0 0 638.8 502.6"><title>leave-tracking</title><circle cx="487.1" cy="159.5" r="14.5" style="fill:#f26522"/><circle cx="394.2" cy="159.5" r="14.5" style="fill:#f26522"/><circle cx="313.3" cy="164.6" r="14.5" transform="translate(88.54 442.39) rotate(-80.78)" style="fill:#f26522"/><circle cx="208.2" cy="159.5" r="14.5" style="fill:#f26522"/><circle cx="115.2" cy="159.5" r="14.5" style="fill:#f26522"/><circle cx="487.1" cy="252.4" r="14.5" style="fill:#f26522"/><circle cx="394.2" cy="252.4" r="14.5" style="fill:#f26522"/><circle cx="313.3" cy="257.5" r="14.5" transform="translate(-3.16 520.41) rotate(-80.78)" style="fill:#f26522"/><circle cx="115.2" cy="252.4" r="14.5" style="fill:#f26522"/><circle cx="487.1" cy="345.4" r="14.5" style="fill:#f26522"/><circle cx="394.2" cy="345.4" r="14.5" style="fill:#f26522"/><circle cx="313.3" cy="350.5" r="14.5" transform="translate(-94.96 598.51) rotate(-80.78)" style="fill:#f26522"/><circle cx="208.2" cy="345.4" r="14.5" style="fill:#f26522"/><circle cx="115.2" cy="345.4" r="14.5" style="fill:#f26522"/><path d="M264,201.4H176.6a12.4,12.4,0,0,0-12.4,12.4v87.4a12.4,12.4,0,0,0,12.4,12.4H264a12.4,12.4,0,0,0,12.4-12.4V213.8A12.46,12.46,0,0,0,264,201.4Zm-12.5,87.4H189V226.3h62.5v62.5Z" transform="translate(-12.1 -5.1)" style="fill:#f26522"/><path d="M489.4,429.7H53.6a13.83,13.83,0,0,1-13.8-13.8V76.4A13.83,13.83,0,0,1,53.6,62.6H145v16a13.8,13.8,0,1,0,27.6,0v-16H248v16a13.8,13.8,0,0,0,27.6,0v-16h75.3v16a13.8,13.8,0,0,0,27.6,0v-16h75.3v16a13.8,13.8,0,1,0,27.6,0v-16h91.4a13.83,13.83,0,0,1,13.8,13.8V349.8a73,73,0,0,1,27.7,18.3V76.4a41.53,41.53,0,0,0-41.5-41.5H481.4v-16a13.8,13.8,0,1,0-27.6,0v16H378.5v-16a13.8,13.8,0,0,0-27.6,0v16H275.6v-16a13.8,13.8,0,0,0-27.6,0v16H172.7v-16a13.85,13.85,0,0,0-27.7,0v16H53.6A41.53,41.53,0,0,0,12.1,76.4V415.9a41.53,41.53,0,0,0,41.5,41.5H499.9A72.76,72.76,0,0,1,489.4,429.7Z" transform="translate(-12.1 -5.1)" style="fill:#f26522"/><path d="M561.5,438a19.7,19.7,0,1,0-19.7-19.7A19.67,19.67,0,0,0,561.5,438Zm0-31.6a11.9,11.9,0,1,1-11.9,11.9A11.86,11.86,0,0,1,561.5,406.4Z" transform="translate(-12.1 -5.1)" style="fill:#f26522"/><path d="M647,414.4H631.6a70.39,70.39,0,0,0-66.2-66.2V332.8a3.9,3.9,0,1,0-7.8,0V352a3.84,3.84,0,0,0,3.9,3.9,62.41,62.41,0,1,1-26.9,6.1,3.89,3.89,0,0,0-3.4-7,70.1,70.1,0,0,0-39.8,59.4H476a3.9,3.9,0,1,0,0,7.8h15.4a70.39,70.39,0,0,0,66.2,66.2v15.4a3.9,3.9,0,0,0,7.8,0V488.4a70.39,70.39,0,0,0,66.2-66.2H647a3.9,3.9,0,0,0,0-7.8Z" transform="translate(-12.1 -5.1)" style="fill:#f26522"/></svg>