<svg id="Layer_1" data-name="Layer 1" xmlns="http://www.w3.org/2000/svg" xmlns:xlink="http://www.w3.org/1999/xlink" width="356.14" height="429.3" viewBox="0 0 356.14 429.3"><defs><linearGradient id="linear-gradient" x1="207.21" y1="471.94" x2="203.21" y2="7.94" gradientTransform="matrix(1, 0, 0, -1, 0, 467)" gradientUnits="userSpaceOnUse"><stop offset="0" stop-color="#ff512f"/><stop offset="1" stop-color="#f09819"/></linearGradient><linearGradient id="linear-gradient-2" x1="178.08" y1="472.19" x2="174.08" y2="8.19" xlink:href="#linear-gradient"/><linearGradient id="linear-gradient-3" x1="178.58" y1="472.18" x2="174.58" y2="8.18" xlink:href="#linear-gradient"/></defs><title>license-manage</title><path d="M378.3,287l5.1-15.8a9.3,9.3,0,0,0-3.4-10.4L366.5,251l-5.1-15.8a9.37,9.37,0,0,0-8.9-6.5H336l-9.6-7V84a11,11,0,0,0-.2-1.8,2.35,2.35,0,0,1-.2-.8,3.7,3.7,0,0,0-.8-1.8,2.51,2.51,0,0,0-.4-.7,5.26,5.26,0,0,0-1.2-1.4L258.3,12.2a17.41,17.41,0,0,0-1.4-1.2,2.51,2.51,0,0,1-.7-.4c-.3-.2-.6-.3-.9-.5l-.9-.3a2.35,2.35,0,0,0-.8-.2,11,11,0,0,0-1.8-.2H37a9.28,9.28,0,0,0-9.3,9.3V429.4a9.28,9.28,0,0,0,9.3,9.3H317a9.28,9.28,0,0,0,9.3-9.3V402.8l14.5,7.2a9.33,9.33,0,0,0,12.5-4.2,10,10,0,0,0,1-4.2V345a9.18,9.18,0,0,0,7.1-6.2l5.1-15.8,13.5-9.8a9.35,9.35,0,0,0,3.4-10.4ZM261,41.2l33.5,33.5H261ZM307.7,420H46.3V28h196V84a9.28,9.28,0,0,0,9.3,9.3h56V221.6l-9.6,7H281.4a9.43,9.43,0,0,0-8.9,6.5l-5.1,15.8-13.5,9.8a9.35,9.35,0,0,0-3.4,10.4l5.1,15.8-5.1,15.8a9.3,9.3,0,0,0,3.4,10.4l13.5,9.8,5.1,15.8a9.34,9.34,0,0,0,7.1,6.2v56.6a9.28,9.28,0,0,0,9.3,9.3,9,9,0,0,0,4.2-1l14.5-7.2V420Zm28-33.5-14.5-7.2a9.32,9.32,0,0,0-8.3,0l-14.5,7.2v-41l13.2,9.6a9.3,9.3,0,0,0,11,0l13.2-9.6v41Zm23.9-96.6,4,12.3-10.4,7.6a9.42,9.42,0,0,0-3.4,4.7l-4,12.3H332.9a9.06,9.06,0,0,0-5.5,1.8L317,336l-10.4-7.6a9.06,9.06,0,0,0-5.5-1.8H288.2l-4-12.3a9.42,9.42,0,0,0-3.4-4.7L270.4,302l4-12.3a9.57,9.57,0,0,0,0-5.8l-4-12.3,10.4-7.6a9.42,9.42,0,0,0,3.4-4.7l4-12.3h12.9a9.06,9.06,0,0,0,5.5-1.8L317,238l10.4,7.6a9.06,9.06,0,0,0,5.5,1.8h12.9l4,12.3a9.42,9.42,0,0,0,3.4,4.7l10.4,7.6-4,12.3a8.93,8.93,0,0,0,0,5.6Z" transform="translate(-27.7 -9.4)" style="fill:url(#linear-gradient)"/><path d="M237.7,135.3H116.3a9.3,9.3,0,1,1,0-18.6H237.6a9.28,9.28,0,0,1,9.3,9.3A9.14,9.14,0,0,1,237.7,135.3Z" transform="translate(-27.7 -9.4)" style="fill:url(#linear-gradient-2)"/><path d="M237.7,192.9H116.3a9.3,9.3,0,0,1,0-18.6H237.6a9.3,9.3,0,0,1,.1,18.6Z" transform="translate(-27.7 -9.4)" style="fill:url(#linear-gradient-3)"/></svg>