<?xml version="1.0" encoding="utf-8"?>
<!-- Generator: Adobe Illustrator 23.0.1, SVG Export Plug-In . SVG Version: 6.00 Build 0)  -->
<svg version="1.1" id="Layer_1" xmlns="http://www.w3.org/2000/svg" xmlns:xlink="http://www.w3.org/1999/xlink" x="0px" y="0px"
	 viewBox="0 0 1000 1000" style="enable-background:new 0 0 1000 1000;" xml:space="preserve">
<style type="text/css">
	.st0{fill:none;stroke:#F26522;stroke-width:30;stroke-linecap:round;stroke-linejoin:round;stroke-miterlimit:10;}
	.st1{fill:#F26522;}
</style>
<image style="display:none;overflow:visible;enable-background:new    ;" width="369" height="373" xlink:href="B380D1E8.html"  transform="matrix(0.9972 0 0 0.9972 594.8333 638.2277)">
</image>
<polyline class="st0" points="393.4,266.5 979.7,277.9 985.3,985.9 274.5,985.9 274.5,609.2 "/>
<polyline class="st0" points="263.2,714 16.8,708.3 16.8,17.3 713.4,17.3 713.4,266.5 "/>
<g>
	<path class="st1" d="M246.9,302.6c33.3,41.9,147.5,172.1,330.8,241.2c0.4,0.2,0.9,0,1.1-0.4l35.1-61.4c4-7,14.4-6.5,17.6,0.9
		c15.8,36.1,52.9,116.9,83.8,157.2c7.3,9.4,4.3,23.1-6.4,28.5c-38,19.3-114.4,59.6-150.6,88c-8.1,6.4-20,0.8-20.2-9.6l-1.3-64.6
		c0-0.3-0.2-0.6-0.4-0.7c-11.4-7.3-263.6-171-297.5-375.6C238.3,301.6,244,299,246.9,302.6z"/>
</g>
</svg>
