<svg id="Layer_1" data-name="Layer 1" xmlns="http://www.w3.org/2000/svg" xmlns:xlink="http://www.w3.org/1999/xlink" width="591.05" height="545.42" viewBox="0 0 591.05 545.42"><defs><clipPath id="clip-path" transform="translate(-39.17 2.02)"><rect x="39.17" y="332.58" width="208.67" height="208.67" rx="104.33" style="fill:none"/></clipPath><clipPath id="clip-path-2" transform="translate(-39.17 2.02)"><rect x="421.55" y="334.73" width="208.67" height="208.67" rx="104.33" style="fill:none"/></clipPath><clipPath id="clip-path-3" transform="translate(-39.17 2.02)"><rect x="239.33" y="113.16" width="208.67" height="208.67" rx="104.33" style="fill:none"/></clipPath></defs><title>multiple-leave-scheme</title><circle cx="143.5" cy="436.91" r="94.33" transform="translate(-306.08 231.46) rotate(-45)" style="fill:#de5d60"/><path d="M143.5,332.58h0A104.33,104.33,0,0,0,39.17,436.91h0A104.33,104.33,0,0,0,143.5,541.24h0A104.33,104.33,0,0,0,247.83,436.91h0A104.33,104.33,0,0,0,143.5,332.58Zm0,198.66a94.33,94.33,0,1,1,94.33-94.33A94.43,94.43,0,0,1,143.5,531.24Z" transform="translate(-39.17 2.02)" style="fill:#fff"/><g style="clip-path:url(#clip-path)"><path d="M176.49,430.53S178.86,383.86,141,384c-37.84-.17-35.46,46.5-35.46,46.5-4.38-.25-9.25-.37-8.25,11.5s12,13,12,13c.67,12,8.33,23.67,14,28.67s17.67,5,17.67,5,12,0,17.66-5S172,467,172.69,455c0,0,11.05-1.12,12.05-13S180.86,430.28,176.49,430.53Z" transform="translate(-39.17 2.02)" style="fill:#f2c4ae"/><path d="M164,381.65c.1-.26.2-.52.31-.76a6.84,6.84,0,0,1,5.17-3.94,8.46,8.46,0,0,0-3.9.36,8.68,8.68,0,0,0-3.43,2.54c-4.55-8.33-18.39-10.09-29.67-7.86C95.14,379.36,97,408.08,105,430.5c.69.3,2.25.64,2.77,1.72,1.08,2.19,1.5,1.48,1.5,1.49s.12-10.75.13-13.73c0-3.4,2.49-18.64,11.42-22.24a7.51,7.51,0,0,1,4.47-.19,15.82,15.82,0,0,0,.28,12.68c2.43,5.9,6,6.31,6,6.31s-1-.87,1.93-5.82c1.76-3,12-5.71,18-6.18,6.52-.51,10.43-2.33,12.7-4.5a3.76,3.76,0,0,1,1.18,1.07c3,4.22,8.68,15.47,8.62,18.87,0,3,.13,13.73.13,13.73s.42.7,1.5-1.48a3.65,3.65,0,0,1,2-1.83C181.59,415.71,189.87,388,164,381.65Z" transform="translate(-39.17 2.02)" style="fill:#454440"/><path d="M175.13,432c-.23-1.59-.88-.7-2.57-.75a.56.56,0,0,1,0-.12c-2.12-5.61-10.64-6.22-12.33-6.29-4.92-.19-8.68,1.05-11.14,3.68a10.1,10.1,0,0,0-1.79,2.69l-.09-1.89-.11-.11c-.05-.07-1.26-2.3-5.72-2.3-4.23,0-5.56,2.23-5.61,2.3l0,.11-.08,1.84a10,10,0,0,0-1.77-2.65c-2.46-2.63-6.22-3.87-11.14-3.68-1.68.06-10.21.66-12.33,6.27a.88.88,0,0,1,0,.15c-1.68,0-2.33-.84-2.56.75-.2,1.43.94,1.54,2,1.52-.81,4.82.59,10.92,4.48,13.91a13.2,13.2,0,0,0,8.18,2.53h0a15.14,15.14,0,0,0,7.84-2c4.44-2.73,6.57-8.41,6.38-12.71a9.3,9.3,0,0,0-.21-1.67h0l.11-3.91c.3-.31,1.71-1.35,4.76-1.35,3.28,0,4.58,1.05,4.87,1.35l.23,3.92h0a10.55,10.55,0,0,0-.21,1.69c-.19,4.3,1.94,10.08,6.38,12.8a15.15,15.15,0,0,0,7.84,2.17,13.22,13.22,0,0,0,8.18-2.67c3.9-3,5.29-9.21,4.48-14C174.19,433.51,175.33,433.4,175.13,432Zm-45.36,15.26a14.2,14.2,0,0,1-7.35,2,12.34,12.34,0,0,1-7.6-2.47,11.79,11.79,0,0,1-4-7.29,15.65,15.65,0,0,1,.48-8.07c.71-1.88,2.36-3.35,4.9-4.36a21.13,21.13,0,0,1,6.59-1.32l.93,0c11,0,11.95,7.95,12,9.54C135.88,439.3,133.9,444.7,129.77,447.23Zm42.35-7.73a11.82,11.82,0,0,1-4,7.29,12.37,12.37,0,0,1-7.61,2.47,14.2,14.2,0,0,1-7.35-2c-4.13-2.53-6.11-7.93-5.94-12,.07-1.59,1-9.54,12-9.54l.93,0a21.13,21.13,0,0,1,6.59,1.32c2.54,1,4.19,2.48,4.9,4.36A15.65,15.65,0,0,1,172.12,439.5Z" transform="translate(-39.17 2.02)" style="fill:#323232"/><polygon points="125.24 499.18 127.54 496.89 125.24 499.18 125.24 499.18" style="fill:none"/><path d="M217,515l-44.69-12.77-10,30.6-11.49-16.74h0l3,4.43-6.8,9.31,2.5,12.17h85.93C224.91,522.91,217,515,217,515Z" transform="translate(-39.17 2.02)" style="fill:#e6c783"/><path d="M133.09,520.4l3.39-4.94h0l-11.95,17.4-9.85-30.21L69.86,515s-7.87,7.88-18.5,27h84.5l3.5-12.17Z" transform="translate(-39.17 2.02)" style="fill:#e6c783"/><path d="M124,484.2l-.06,0-.18,1.67.24-1.63Z" transform="translate(-39.17 2.02)" style="fill:#edc0aa"/><path d="M159.52,482.93c-.28.27-.56.53-.83.77C159,483.46,159.24,483.2,159.52,482.93Z" transform="translate(-39.17 2.02)" style="fill:#edc0aa"/><path d="M160.4,482.05l.83-.9Z" transform="translate(-39.17 2.02)" style="fill:#edc0aa"/><path d="M159.54,482.91l.83-.83Z" transform="translate(-39.17 2.02)" style="fill:#edc0aa"/><polygon points="111.7 518.14 111.7 518.14 109.5 514.93 111.7 518.14" style="fill:#edc0aa"/><polygon points="97.32 517.48 97.32 517.48 99.07 514.93 97.32 517.48" style="fill:#edc0aa"/><path d="M138.24,512.91h10.42l15.75-15.75h0l-.3-2.3-2-14.73-.81.94c.27-.3.54-.61.81-.94l.9,6.63c-2.61,3.41-15,10.34-20.26,10.4-5.11.05-18.27-8.88-19.2-9.52l-1,9.52Z" transform="translate(-39.17 2.02)" style="fill:#edc0aa"/><path d="M143.28,529a8.77,8.77,0,0,0-3.92.91L135.86,542h13.75l-2.5-12.17A8.73,8.73,0,0,0,143.28,529Z" transform="translate(-39.17 2.02)" style="fill:#db6489"/><polygon points="97.32 517.48 99.07 514.93 83.33 499.19 81.03 496.89 75.36 504.22 75.51 504.68 85.37 534.88 97.32 517.48" style="fill:#f0e3b9"/><polygon points="83.58 496.89 81.03 496.89 83.33 499.19 83.58 496.89" style="fill:#ced0d1"/><polygon points="109.5 514.93 111.7 518.14 123.2 534.88 133.18 504.29 133.2 504.22 127.54 496.89 125.24 499.18 109.5 514.93" style="fill:#f0e3b9"/><polygon points="125.24 499.18 127.54 496.89 124.93 496.89 124.93 496.89 125.23 499.19 125.24 499.18" style="fill:#ced0d1"/><path d="M138.24,512.91l-1.76,2.55-3.39,4.94,6.27,9.46a8.7,8.7,0,0,1,7.75,0l6.8-9.31-3-4.43-2.21-3.21Z" transform="translate(-39.17 2.02)" style="fill:#d16985"/><path d="M142.74,497.17c5.29-.06,17.65-7,20.26-10.4l-.9-6.63c-.27.33-.54.64-.81.94l-.06.07-.83.9,0,0-.83.83,0,0c-.28.27-.56.53-.83.77-5.66,5-17.66,5-17.66,5s-11.18,0-17-4.5h0l-.24,1.63-.25,1.78.05,0C124.47,488.29,137.63,497.22,142.74,497.17Z" transform="translate(-39.17 2.02)" style="fill:#e0a489"/></g><circle cx="525.88" cy="439.06" r="92.33" transform="translate(-195.6 502.48) rotate(-45)" style="fill:#50b4de"/><path d="M525.88,334.73h0A104.33,104.33,0,0,0,421.55,439.06h0A104.33,104.33,0,0,0,525.88,543.39h0A104.34,104.34,0,0,0,630.22,439.06h0A104.34,104.34,0,0,0,525.88,334.73ZM433.55,439.06a92.34,92.34,0,1,1,92.33,92.33A92.44,92.44,0,0,1,433.55,439.06Z" transform="translate(-39.17 2.02)" style="fill:#fff"/><g style="clip-path:url(#clip-path-2)"><polygon points="479.7 518.42 478.97 519.49 478.97 519.49 479.7 518.42 479.7 518.42" style="fill:none"/><polygon points="465.71 500.14 463.41 497.83 465.71 500.14 465.71 500.14" style="fill:none"/><polygon points="494.09 519.09 494.36 519.49 494.36 519.49 494.09 519.09 494.09 519.09" style="fill:none"/><polygon points="510.91 519.49 515.59 505.17 510.91 519.49 510.91 519.49" style="fill:none"/><polygon points="507.63 500.13 509.92 497.83 507.63 500.13 507.63 500.13" style="fill:none"/><polygon points="462.42 519.49 462.42 519.49 457.75 505.17 462.42 519.49" style="fill:none"/><polygon points="510.91 519.49 505.58 535.83 494.36 519.49 494.36 519.49 497.13 523.52 490.33 532.83 492.83 545 502.59 545 510.91 519.49 510.91 519.49" style="fill:#e3e3e3"/><path d="M515.47,521.35l2.67-3.88h0l-11.22,16.34-5.33-16.34h0L509.91,543h8.33l3.5-12.17Z" transform="translate(-39.17 2.02)" style="fill:#e3e3e3"/><path d="M525.66,529.89a8.74,8.74,0,0,0-3.92.92L518.24,543H532l-2.5-12.17A8.67,8.67,0,0,0,525.66,529.89Z" transform="translate(-39.17 2.02)" style="fill:#db4f5d"/><path d="M504.88,498.11h0l15.74,15.74H531l15.75-15.75h0l-.3-2.3-2.4-17.75h0l1.32,9.66c-2.61,3.41-15,10.34-20.27,10.39-5.1.05-18.27-8.88-19.19-9.51l-.8,7.21h0Z" transform="translate(-39.17 2.02)" style="fill:#edc0aa"/><polygon points="494.09 519.09 491.88 515.88 494.09 519.09 494.09 519.09" style="fill:#edc0aa"/><polygon points="481.45 515.88 479.7 518.42 479.7 518.42 481.45 515.88" style="fill:#edc0aa"/><polygon points="478.74 482.24 467.58 483.17 466.96 488.81 467.66 483.92 478.74 482.24" style="fill:#edc0aa"/><path d="M545.39,487.72l-1.32-9.66-.24-1.75-25.92,3.91-11.08,1.67-.7,4.89-.26,1.78.06,0c.92.63,14.09,9.56,19.19,9.51C530.41,498.06,542.78,491.13,545.39,487.72Z" transform="translate(-39.17 2.02)" style="fill:#e0a489"/><path d="M497.41,533.14l-15-6.5,7.17-21.51L452.24,516s-7.87,7.87-18.5,27h55.5l-2.83-6.67Z" transform="translate(-39.17 2.02)" style="fill:#282828"/><polygon points="457.75 505.17 463.41 497.83 451.08 505.17 450.42 507.15 443.25 528.67 458.25 535.17 447.25 538.33 450.08 545 466.7 545 470.75 545 462.42 519.49 457.75 505.17" style="fill:#3b3b3d"/><polygon points="462.42 519.49 467.75 535.83 478.97 519.49 479.7 518.42 481.45 515.88 465.71 500.14 463.41 497.83 457.75 505.17 462.42 519.49" style="fill:#efeff0"/><polygon points="465.71 500.14 465.97 497.83 465.97 497.83 463.41 497.83 465.71 500.14 465.71 500.14" style="fill:#ced0d1"/><path d="M599.42,516l-37.34-10.85,7.17,21.51-15,6.5,11,3.17L562.42,543h55.5C607.29,523.85,599.42,516,599.42,516Z" transform="translate(-39.17 2.02)" style="fill:#282828"/><polygon points="515.09 535.17 530.09 528.67 522.92 507.15 522.25 505.17 509.92 497.83 515.59 505.17 510.91 519.49 502.59 545 506.63 545 523.25 545 526.09 538.33 515.09 535.17" style="fill:#3b3b3d"/><polygon points="491.88 515.88 494.09 519.09 494.36 519.49 505.58 535.83 510.91 519.49 515.59 505.17 509.92 497.83 507.63 500.13 491.88 515.88" style="fill:#efeff0"/><polygon points="507.63 500.13 509.92 497.83 507.32 497.83 507.32 497.84 507.62 500.14 507.63 500.13" style="fill:#ced0d1"/><path d="M531,513.85H520.62l-1.75,2.55-.73,1.07-2.67,3.88,6.27,9.46a8.62,8.62,0,0,1,7.75,0l6.8-9.32-2.76-4-.28-.4Z" transform="translate(-39.17 2.02)" style="fill:#d1515e"/><path d="M558.87,431.48s2.37-46.67-35.46-46.5c-37.83-.17-35.46,46.5-35.46,46.5-4.37-.25-9.25-.38-8.25,11.5s12,13,12,13c.67,12,8.34,23.66,14,28.66s17.67,5,17.67,5,12,0,17.67-5,13.33-16.66,14-28.66c0,0,11-1.13,12-13S563.24,431.23,558.87,431.48Z" transform="translate(-39.17 2.02)" style="fill:#f2c4ae"/><path d="M483.36,400.72c5.66-19.33,40.76-33.14,62.43-17.67.67-3.05,2.45-4.12,6.45-5.08-2.08,2.3-3.17,3.42-2.75,5.3,1.74-2.16,4.17-1.75,6.91-1.46-3,.61-4.7,2.21-5.41,4.12,5.11.79,17.83,9.63,15.53,23.37-3.87,23.08-4.5,22.18-4.5,22.18s-3.5,2.75-5,10.25c0,0-1.75-21.25-2.5-24.5s-7.25-13-7.25-13-21.37,16.83-38.62,14.33c0,0,5.84-3.92,2.55-9.71-2.19,3.06-4.94,9.29-12.55,9,2.71-2,3-4.34,2-7.42-1.62,3.25-8.3,7.37-8.88,6.84l-1.5,22s-1.81-8-6.91-7.45C483.36,431.78,480.79,409.52,483.36,400.72Z" transform="translate(-39.17 2.02)" style="fill:#454440"/><path d="M529.85,431.33c-2,.67-4.43,1.62-6.47,1.62s-4.43-.95-6.46-1.62c-5.08-1.68-17.36-2.8-26.08-.71a2.36,2.36,0,0,0-1.81,2.43l.06,1.13a2.42,2.42,0,0,0,1.31,2,2,2,0,0,1,.9,1.21c.52,1.75,1.74,8.95,4,11.76,2.76,3.49,8.71,3.63,12.74,3.45,5.41-.23,9-2.63,10.47-6.71s2.37-7.57,3.34-8.67a1.87,1.87,0,0,1,1.57-.64,1.9,1.9,0,0,1,1.58.64c1,1.1,1.82,4.6,3.33,8.67s5.06,6.48,10.48,6.71c4,.18,10,0,12.74-3.45,2.22-2.81,3.44-10,4-11.76a2,2,0,0,1,.9-1.21,2.44,2.44,0,0,0,1.31-2l.06-1.13a2.37,2.37,0,0,0-1.81-2.43C547.21,428.53,534.93,429.65,529.85,431.33Zm-13.8,14.55c-1.46,2.74-3.9,4.13-7.57,4.6s-8.05-.25-10.26-1.57c-2-1.16-2.89-4.83-3.36-7.05s-1.28-7,1-8.55,8-1.69,11.76-1.46c2.85.18,9,.93,10.19,3.15S517.23,443.67,516.05,445.88Zm35.86-4c-.47,2.22-1.42,5.89-3.36,7.05-2.21,1.32-6.6,2-10.26,1.57s-6.12-1.86-7.57-4.6c-1.18-2.21-2.91-8.67-1.75-10.88s7.34-3,10.19-3.15c3.78-.23,9.49-.11,11.76,1.46S552.37,439.65,551.91,441.86Z" transform="translate(-39.17 2.02)" style="fill:#323232"/></g><circle cx="343.67" cy="217.5" r="94.33" transform="translate(-92.3 308.74) rotate(-45)" style="fill:#bd80cc"/><path d="M343.67,113.16h0A104.33,104.33,0,0,0,239.33,217.5h0A104.33,104.33,0,0,0,343.67,321.83h0A104.33,104.33,0,0,0,448,217.5h0A104.33,104.33,0,0,0,343.67,113.16ZM249.33,217.5a94.34,94.34,0,1,1,94.34,94.33A94.45,94.45,0,0,1,249.33,217.5Z" transform="translate(-39.17 2.02)" style="fill:#fff"/><g style="clip-path:url(#clip-path-3)"><path d="M377.5,195.33c.22.62.41,1.24.58,1.85,0,0,0-.05,0-.08A12.24,12.24,0,0,0,377.5,195.33Z" transform="translate(-39.17 2.02)" style="fill:none"/><path d="M382,210.06c0,.16,0,.31,0,.46-1.39,1.31-2.85,4.3-4,5.86.93-5.43,2-11.12.16-19.2-.17-.61-.36-1.23-.58-1.85-2-5-6.82-6.25-12-7.91-7.06-2.26-14.41-.58-21.48-2.36-4.44-1.12-7.94-5.05-12.37-5.35-20.37-1.38-24.23,20.68-21.73,36.67a53,53,0,0,1-4-6.13c-4.54-2.35-9.56,1.5-8.66,8.25C299.26,234,307,231.33,307,231.33c13.33,33.33,36.67,33.17,36.67,33.17s23.33.16,36.66-33.17c0,0,7.77,2.66,9.84-12.83C391.07,212,386.38,208.15,382,210.06Z" transform="translate(-39.17 2.02)" style="fill:#ffc7ad"/><path d="M383.9,183.05c.86,5.69-.68-4.77,0,0Z" transform="translate(-39.17 2.02)" style="fill:#864242"/><path d="M331.61,179.71c4.43.3,7.93,4.23,12.37,5.35,7.07,1.78,14.42.1,21.48,2.36,5.22,1.66,10,2.88,12,7.91a12.24,12.24,0,0,1,.57,1.77s0,.05,0,.08c1.85,8.08.77,13.77-.16,19.2,1.14-1.56,2.6-4.55,4-5.86,0-.15,0-.3,0-.46.79-9.71,3.53-16.59,1.95-27-1.89-13.18-6.9-21.27-19.12-26.86.6-13.45-14.44-21.46-26.28-19.07-7,1.41-11.1,5.57-15,11.11-2.84,4-2.5,4.44-5.92,7.39-2.59,2.24-5.61,3.56-8.06,6.18-13,13.91-12.16,33.26-3.65,48.45a53,53,0,0,0,4,6.13C307.38,200.39,311.24,178.33,331.61,179.71Z" transform="translate(-39.17 2.02)" style="fill:#454440"/><path d="M352.29,288.68l-5.51,4.15,2.36,29.46H401.7s-6.38-34.63-12.25-38.5c-2.95-2-15.81-5.21-27.18-7.83l-6.18,16.87Z" transform="translate(-39.17 2.02)" style="fill:#f35b74"/><path d="M343.7,292.31h0Z" transform="translate(-39.17 2.02)" style="fill:#f35b74"/><path d="M335.11,288.68l-3.81,4.15-6.21-17c-11.48,2.64-24.62,6-27.6,7.93-5.88,3.87-12.25,38.5-12.25,38.5h53.11l2.26-29.46Z" transform="translate(-39.17 2.02)" style="fill:#f35b74"/><path d="M343.7,279.33l10.54-10.55v-7a28.22,28.22,0,0,1-10.54,2.71,28.55,28.55,0,0,1-10.91-2.87l-.16,7h0Z" transform="translate(-39.17 2.02)" style="fill:#f0bba3"/><path d="M346.78,292.83l5.51-4.15-8.59-9.35-8.59,9.35,5.5,4.15-2.26,29.46v0h10.8v0Zm-3.08-.52h0Z" transform="translate(-39.17 2.02)" style="fill:#26a7de"/><polygon points="295.94 290.71 304.53 281.35 293.46 270.67 293.46 270.67 285.89 277.79 285.92 277.89 292.14 294.85 295.94 290.71" style="fill:#fff"/><polygon points="304.53 281.35 313.12 290.71 316.93 294.85 323.11 277.98 323.18 277.79 315.07 270.81 304.53 281.35" style="fill:#fff"/><path d="M353.59,209.5c-3.47,1.55-7.2,4.4-9.57,4.4s-6.37-2.85-9.84-4.4c-4.32-2-17.69-5-27.13-1.26v2.41s1.77.61,2.24,3.42.87,7.29,2.18,10.19,2.67,5.26,10.09,6.7,11.2-.27,14.16-3.63,5.15-8.26,5.92-9.07a3,3,0,0,1,4.78,0c.77.81,2.95,5.72,5.91,9.07s6.71,5,14.13,3.62,8.66-3.69,10-6.7,1.54-7.39,2-10.19,1.94-3.41,1.94-3.41v-2.41C372,204.54,357.91,207.54,353.59,209.5ZM337,222.74c-1.25,2.19-3.62,6.51-8,7.19a20.9,20.9,0,0,1-12.75-2.2c-3.32-1.76-3.82-5.25-4.29-8.16s-.48-8.6,1.12-9.91,8-1.15,12-.7c3.67.41,9.94,1.88,12.73,5S338,221,337,222.74Zm39.12-3.19c-.47,2.91-1,6.41-4.29,8.17a21,21,0,0,1-12.75,2.2c-4.38-.68-6.75-5-8-7.19-1-1.7-3.55-5.7-.77-8.8s9.06-4.56,12.73-5c4-.45,10.36-.6,12,.7S376.6,216.64,376.12,219.55Z" transform="translate(-39.17 2.02)" style="fill:#323232"/><path d="M381.66,257.33a30,30,0,0,1-6.75-14.93A51.67,51.67,0,0,1,362,257.18h0c18.06,20.49-5.66,65.14-5.66,65.14s16.22,0,35.22,0C396,307.36,396.43,274.76,381.66,257.33Z" transform="translate(-39.17 2.02)" style="fill:#454440"/></g><path d="M177.76,220.31h-5.88v4.37a4.21,4.21,0,0,1-8.41,0v-4.37h-27.4v4.37a4.21,4.21,0,0,1-8.41,0v-4.37h-7.42a3.24,3.24,0,0,0-3.24,3.24v57.51a3.24,3.24,0,0,0,3.24,3.25h57.52a3.24,3.24,0,0,0,3.24-3.25V223.55A3.24,3.24,0,0,0,177.76,220.31ZM177.19,278a3.25,3.25,0,0,1-3.24,3.25h-49.9a3.25,3.25,0,0,1-3.24-3.25v-36.9a3.25,3.25,0,0,1,3.24-3.25H174a3.25,3.25,0,0,1,3.24,3.25Z" transform="translate(-39.17 2.02)" style="fill:#363636"/><path d="M90,218h5.33a0,0,0,0,1,0,0v8.57a2.67,2.67,0,0,1-2.67,2.67h0A2.67,2.67,0,0,1,90,226.52V218A0,0,0,0,1,90,218Z" style="fill:#363636"/><path d="M125.83,217h5.33a0,0,0,0,1,0,0v9.52a2.67,2.67,0,0,1-2.67,2.67h0a2.67,2.67,0,0,1-2.67-2.67V217a0,0,0,0,1,0,0Z" style="fill:#363636"/><path d="M143.47,271.45h-3.4V250.88L136.63,253v-3.52l3.44-2.31h3.4Z" transform="translate(-39.17 2.02)" style="fill:#de5d60"/><path d="M152.45,271a5.84,5.84,0,0,1-2.31-2.08,8.36,8.36,0,0,1-1.19-3.29v0h3.4v0a3.16,3.16,0,0,0,1.06,2.08,3.46,3.46,0,0,0,2.29.74,3.05,3.05,0,0,0,2.52-1.09,4.73,4.73,0,0,0,.89-3.08v-2a4.72,4.72,0,0,0-.89-3.07,3.08,3.08,0,0,0-2.52-1.09,3.22,3.22,0,0,0-1.69.5,4.75,4.75,0,0,0-1.43,1.4h-3.1V247.17h12.33v3.24h-8.93v5.46a4.91,4.91,0,0,1,1.41-.8,4.61,4.61,0,0,1,1.6-.28,7,7,0,0,1,3.58.87,5.48,5.48,0,0,1,2.26,2.53,9.5,9.5,0,0,1,.78,4v2a9.26,9.26,0,0,1-.8,4,5.71,5.71,0,0,1-2.33,2.55,7.34,7.34,0,0,1-3.68.87A7.1,7.1,0,0,1,152.45,271Z" transform="translate(-39.17 2.02)" style="fill:#de5d60"/><line x1="109.83" y1="291.67" x2="109.83" y2="332.05" style="fill:none;stroke:#363636;stroke-linecap:round;stroke-miterlimit:10;stroke-width:2px"/><path d="M554.76,220.31h-5.88v4.37a4.21,4.21,0,0,1-8.41,0v-4.37h-27.4v4.37a4.21,4.21,0,0,1-8.41,0v-4.37h-7.42a3.24,3.24,0,0,0-3.24,3.24v57.51a3.24,3.24,0,0,0,3.24,3.25h57.52a3.24,3.24,0,0,0,3.24-3.25V223.55A3.24,3.24,0,0,0,554.76,220.31ZM554.19,278a3.25,3.25,0,0,1-3.24,3.25h-49.9a3.25,3.25,0,0,1-3.24-3.25v-36.9a3.25,3.25,0,0,1,3.24-3.25H551a3.25,3.25,0,0,1,3.24,3.25Z" transform="translate(-39.17 2.02)" style="fill:#363636"/><path d="M467,218h5.33a0,0,0,0,1,0,0v8.57a2.67,2.67,0,0,1-2.67,2.67h0a2.67,2.67,0,0,1-2.67-2.67V218A0,0,0,0,1,467,218Z" style="fill:#363636"/><path d="M502.83,217h5.33a0,0,0,0,1,0,0v9.52a2.67,2.67,0,0,1-2.67,2.67h0a2.67,2.67,0,0,1-2.67-2.67V217A0,0,0,0,1,502.83,217Z" style="fill:#363636"/><path d="M511.26,268.5l8.43-11.29a8.47,8.47,0,0,0,1.14-2,5.46,5.46,0,0,0,.41-1.95v0a3,3,0,0,0-.85-2.26,3.39,3.39,0,0,0-2.41-.8,3.28,3.28,0,0,0-2.39.88,4,4,0,0,0-1.12,2.48v0H511v0a9.09,9.09,0,0,1,1.23-3.57,6.26,6.26,0,0,1,2.38-2.25,7.08,7.08,0,0,1,3.38-.78,8.32,8.32,0,0,1,3.69.75,5.14,5.14,0,0,1,2.33,2.16,6.89,6.89,0,0,1,.8,3.42v0a7.49,7.49,0,0,1-.54,2.69,11.56,11.56,0,0,1-1.48,2.7l-7,9.55h9.15v3.24H511.26Z" transform="translate(-39.17 2.02)" style="fill:#50b4de"/><path d="M532.72,271a5.78,5.78,0,0,1-2.31-2.08,8.36,8.36,0,0,1-1.19-3.29v0h3.39v0a3.21,3.21,0,0,0,1.07,2.08,3.46,3.46,0,0,0,2.29.74,3.05,3.05,0,0,0,2.52-1.09,4.73,4.73,0,0,0,.89-3.08v-2a4.72,4.72,0,0,0-.89-3.07,3.08,3.08,0,0,0-2.52-1.09,3.22,3.22,0,0,0-1.69.5,4.75,4.75,0,0,0-1.43,1.4h-3.1V247.17h12.33v3.24h-8.93v5.46a4.91,4.91,0,0,1,1.41-.8,4.61,4.61,0,0,1,1.6-.28,7,7,0,0,1,3.58.87,5.48,5.48,0,0,1,2.26,2.53,9.5,9.5,0,0,1,.78,4v2a9.26,9.26,0,0,1-.8,4,5.77,5.77,0,0,1-2.33,2.55,7.34,7.34,0,0,1-3.68.87A7.1,7.1,0,0,1,532.72,271Z" transform="translate(-39.17 2.02)" style="fill:#50b4de"/><line x1="486.83" y1="291.67" x2="486.83" y2="332.05" style="fill:none;stroke:#363636;stroke-linecap:round;stroke-miterlimit:10;stroke-width:2px"/><path d="M372.76,3.31h-5.88V7.68a4.21,4.21,0,0,1-8.41,0V3.31h-27.4V7.68a4.21,4.21,0,0,1-8.41,0V3.31h-7.42A3.24,3.24,0,0,0,312,6.55V64.06a3.24,3.24,0,0,0,3.24,3.25h57.52A3.24,3.24,0,0,0,376,64.06V6.55A3.24,3.24,0,0,0,372.76,3.31ZM372.19,61A3.25,3.25,0,0,1,369,64.23h-49.9A3.25,3.25,0,0,1,315.81,61V24.08a3.25,3.25,0,0,1,3.24-3.25H369a3.25,3.25,0,0,1,3.24,3.25Z" transform="translate(-39.17 2.02)" style="fill:#363636"/><path d="M285,1h5.33a0,0,0,0,1,0,0V9.52a2.67,2.67,0,0,1-2.67,2.67h0A2.67,2.67,0,0,1,285,9.52V1A0,0,0,0,1,285,1Z" style="fill:#363636"/><path d="M320.83,0h5.33a0,0,0,0,1,0,0V9.52a2.67,2.67,0,0,1-2.67,2.67h0a2.67,2.67,0,0,1-2.67-2.67V0A0,0,0,0,1,320.83,0Z" style="fill:#363636"/><path d="M329.26,51.5l8.43-11.29a8.47,8.47,0,0,0,1.14-2,5.46,5.46,0,0,0,.41-2v0a3,3,0,0,0-.85-2.26,3.39,3.39,0,0,0-2.41-.8,3.28,3.28,0,0,0-2.39.88,4,4,0,0,0-1.12,2.48v0H329v0A9.09,9.09,0,0,1,330.19,33a6.26,6.26,0,0,1,2.38-2.25,7.08,7.08,0,0,1,3.38-.78,8.32,8.32,0,0,1,3.69.75A5.14,5.14,0,0,1,342,32.83a6.89,6.89,0,0,1,.8,3.42v0a7.49,7.49,0,0,1-.54,2.69,11.56,11.56,0,0,1-1.48,2.7l-7,9.55h9.15v3.24H329.26Z" transform="translate(-39.17 2.02)" style="fill:#bd80cc"/><path d="M349,52.88a7,7,0,0,1-1.76-5.07v-11A7,7,0,0,1,349,31.68a8.22,8.22,0,0,1,10.29,0A7,7,0,0,1,361,36.77v11a7,7,0,0,1-1.76,5.08,8.19,8.19,0,0,1-10.28,0Zm7.8-2.36a3.9,3.9,0,0,0,.85-2.71v-11a3.88,3.88,0,0,0-.85-2.71,4.2,4.2,0,0,0-5.32,0,3.93,3.93,0,0,0-.85,2.71v11a3.9,3.9,0,0,0,.86,2.71,4.22,4.22,0,0,0,5.31,0Z" transform="translate(-39.17 2.02)" style="fill:#bd80cc"/><line x1="304.83" y1="74.67" x2="304.83" y2="115.05" style="fill:none;stroke:#363636;stroke-linecap:round;stroke-miterlimit:10;stroke-width:2px"/></svg>