<svg id="Capa_1" data-name="Capa 1" xmlns="http://www.w3.org/2000/svg" xmlns:xlink="http://www.w3.org/1999/xlink" width="50.06" height="39.7" viewBox="0 0 50.06 39.7"><defs><style>.cls-1{fill:url(#linear-gradient);}.cls-2{fill:url(#linear-gradient-2);}.cls-3{fill:url(#linear-gradient-3);}.cls-4{fill:url(#linear-gradient-4);}.cls-5{fill:url(#linear-gradient-5);}.cls-6{fill:url(#linear-gradient-6);}</style><linearGradient id="linear-gradient" x1="41.33" y1="2.85" x2="40.74" y2="52.61" gradientUnits="userSpaceOnUse"><stop offset="0" stop-color="#ff512f"/><stop offset="1" stop-color="#f09819"/></linearGradient><linearGradient id="linear-gradient-2" x1="41.33" y1="2.85" x2="40.74" y2="52.61" xlink:href="#linear-gradient"/><linearGradient id="linear-gradient-3" x1="24.41" y1="2.65" x2="23.82" y2="52.41" xlink:href="#linear-gradient"/><linearGradient id="linear-gradient-4" x1="23.21" y1="2.64" x2="22.62" y2="52.4" xlink:href="#linear-gradient"/><linearGradient id="linear-gradient-5" x1="22.23" y1="2.63" x2="21.64" y2="52.39" xlink:href="#linear-gradient"/><linearGradient id="linear-gradient-6" x1="24.07" y1="2.65" x2="23.48" y2="52.41" xlink:href="#linear-gradient"/></defs><title>no-wifi</title><path class="cls-1" d="M40.94,24.27A11.49,11.49,0,1,0,52.43,35.76,11.5,11.5,0,0,0,40.94,24.27Zm0,20.89a9.4,9.4,0,1,1,9.4-9.4A9.41,9.41,0,0,1,40.94,45.16Z" transform="translate(-2.37 -7.55)"/><path class="cls-2" d="M49.07,42.41,34.29,27.64a1,1,0,1,0-1.48,1.48L47.58,43.89a1,1,0,0,0,.75.3,1,1,0,0,0,.73-.3A1.05,1.05,0,0,0,49.07,42.41Z" transform="translate(-2.37 -7.55)"/><path class="cls-3" d="M45.81,17.38A29,29,0,0,0,24.23,7.55,29,29,0,0,0,2.64,17.38a1.05,1.05,0,0,0,.07,1.48,1,1,0,0,0,1.48-.07,27,27,0,0,1,20-9.14,27,27,0,0,1,20,9.14,1,1,0,0,0,.77.35,1,1,0,0,0,.71-.28A1.05,1.05,0,0,0,45.81,17.38Z" transform="translate(-2.37 -7.55)"/><path class="cls-4" d="M37.81,20.83A21.52,21.52,0,0,0,8,23.28a1.06,1.06,0,0,0,.07,1.48,1,1,0,0,0,.7.27,1,1,0,0,0,.78-.34c7.29-8,18.63-9,26.93-2.23a1,1,0,0,0,1.32-1.63Z" transform="translate(-2.37 -7.55)"/><path class="cls-5" d="M30.12,25.46A14.72,14.72,0,0,0,13.38,29.2a1,1,0,0,0,.07,1.48,1,1,0,0,0,.7.27,1.05,1.05,0,0,0,.77-.34,12.63,12.63,0,0,1,14.36-3.23,1,1,0,1,0,.84-1.92Z" transform="translate(-2.37 -7.55)"/><path class="cls-6" d="M28.2,40.4a13.34,13.34,0,0,1-.84-4.64c0-.46,0-.91.07-1.37a1.05,1.05,0,0,0-.5-1,5.14,5.14,0,0,0-2.7-.77A5.22,5.22,0,1,0,28,41.48,1,1,0,0,0,28.2,40.4Z" transform="translate(-2.37 -7.55)"/></svg>