<svg id="Layer_1" data-name="Layer 1" xmlns="http://www.w3.org/2000/svg" xmlns:xlink="http://www.w3.org/1999/xlink" width="224.05" height="258.29" viewBox="0 0 224.05 258.29"><defs><linearGradient id="linear-gradient" x1="125.2" y1="300.01" x2="126.2" y2="-1.99" gradientTransform="matrix(1, 0, 0, -1, 0, 301)" gradientUnits="userSpaceOnUse"><stop offset="0" stop-color="#ff512f"/><stop offset="1" stop-color="#f09819"/></linearGradient><linearGradient id="linear-gradient-2" x1="195.63" y1="300.24" x2="196.63" y2="-1.76" gradientTransform="matrix(1, 0, 0, -1, -13.95, 275.91)" xlink:href="#linear-gradient"/></defs><title>notifications</title><path d="M15.8,241.2a13.67,13.67,0,0,0,12.3,7.3H84.8a41.89,41.89,0,0,0,82.6,0H224a14,14,0,0,0,14-14,12.24,12.24,0,0,0-2.5-7.7l-32.2-49.4v-9.8a46.93,46.93,0,0,1-14,0v14l34.6,52.8H28l34.6-52.8V130.5c3.5-40.6,30.8-56.4,48.3-62.3V53.5a15.05,15.05,0,0,1,30.1,0V68.2a80.72,80.72,0,0,1,13.6,6.3c3.5-3.5,7-7,11.2-9.5a66.45,66.45,0,0,0-11.2-5.9V53.8a29.05,29.05,0,0,0-58.1,0v5.3c-19.6,9.1-44.8,29-48.3,70.7v48L16,227.1C13.3,231,13.3,236.6,15.8,241.2Zm137.1,7.3a27.87,27.87,0,0,1-53.9,0Z" transform="translate(-13.95 -25.09)" style="fill:url(#linear-gradient)"/><circle cx="182.05" cy="86.91" r="42" style="fill:url(#linear-gradient-2)"/></svg>