<svg id="Layer_1" data-name="Layer 1" xmlns="http://www.w3.org/2000/svg" width="237" height="89" viewBox="0 0 237 89"><title>only-dot</title><g style="opacity:0.5"><circle cx="219.8" cy="58.78" r="1.36" style="fill:#f15a24"/><circle cx="219.8" cy="45.19" r="1.36" style="fill:#f15a24"/><circle cx="219.8" cy="31.59" r="1.36" style="fill:#f15a24"/><circle cx="219.8" cy="18" r="1.36" style="fill:#f15a24"/><circle cx="206.2" cy="58.78" r="1.36" style="fill:#f15a24"/><circle cx="206.2" cy="45.19" r="1.36" style="fill:#f15a24"/><circle cx="206.2" cy="31.59" r="1.36" style="fill:#f15a24"/><circle cx="206.2" cy="18" r="1.36" style="fill:#f15a24"/><circle cx="192.61" cy="58.78" r="1.36" style="fill:#f15a24"/><circle cx="192.61" cy="45.19" r="1.36" style="fill:#f15a24"/><circle cx="192.61" cy="31.59" r="1.36" style="fill:#f15a24"/><circle cx="192.61" cy="18" r="1.36" style="fill:#f15a24"/><circle cx="179.01" cy="58.78" r="1.36" style="fill:#f15a24"/><circle cx="179.01" cy="45.19" r="1.36" style="fill:#f15a24"/><circle cx="179.01" cy="31.59" r="1.36" style="fill:#f15a24"/><circle cx="179.01" cy="18" r="1.36" style="fill:#f15a24"/><circle cx="165.43" cy="58.78" r="1.36" style="fill:#f15a24"/><circle cx="165.43" cy="45.19" r="1.36" style="fill:#f15a24"/><circle cx="165.43" cy="31.59" r="1.36" style="fill:#f15a24"/><circle cx="165.43" cy="18" r="1.36" style="fill:#f15a24"/><circle cx="151.82" cy="58.78" r="1.36" style="fill:#f15a24"/><circle cx="151.82" cy="45.19" r="1.36" style="fill:#f15a24"/><circle cx="151.82" cy="31.59" r="1.36" style="fill:#f15a24"/><circle cx="151.82" cy="18" r="1.36" style="fill:#f15a24"/><circle cx="138.24" cy="58.78" r="1.36" style="fill:#f15a24"/><circle cx="138.24" cy="45.19" r="1.36" style="fill:#f15a24"/><circle cx="138.24" cy="31.59" r="1.36" style="fill:#f15a24"/><circle cx="138.24" cy="18" r="1.36" style="fill:#f15a24"/><circle cx="124.63" cy="58.78" r="1.36" style="fill:#f15a24"/><circle cx="124.63" cy="45.19" r="1.36" style="fill:#f15a24"/><circle cx="124.63" cy="31.59" r="1.36" style="fill:#f15a24"/><circle cx="124.63" cy="18" r="1.36" style="fill:#f15a24"/><circle cx="111.05" cy="58.78" r="1.36" style="fill:#f15a24"/><circle cx="111.05" cy="45.19" r="1.36" style="fill:#f15a24"/><circle cx="111.05" cy="31.59" r="1.36" style="fill:#f15a24"/><circle cx="111.05" cy="18" r="1.36" style="fill:#f15a24"/><circle cx="97.45" cy="58.78" r="1.36" style="fill:#f15a24"/><circle cx="97.45" cy="45.19" r="1.36" style="fill:#f15a24"/><circle cx="97.45" cy="31.59" r="1.36" style="fill:#f15a24"/><circle cx="97.45" cy="18" r="1.36" style="fill:#f15a24"/><circle cx="83.86" cy="58.78" r="1.36" style="fill:#f15a24"/><circle cx="83.86" cy="45.19" r="1.36" style="fill:#f15a24"/><circle cx="83.86" cy="31.59" r="1.36" style="fill:#f15a24"/><circle cx="83.86" cy="18" r="1.36" style="fill:#f15a24"/><circle cx="70.26" cy="58.78" r="1.36" style="fill:#f15a24"/><circle cx="70.26" cy="45.19" r="1.36" style="fill:#f15a24"/><circle cx="70.26" cy="31.59" r="1.36" style="fill:#f15a24"/><circle cx="70.26" cy="18" r="1.36" style="fill:#f15a24"/><circle cx="56.68" cy="58.78" r="1.36" style="fill:#f15a24"/><circle cx="56.68" cy="45.19" r="1.36" style="fill:#f15a24"/><circle cx="56.68" cy="31.59" r="1.36" style="fill:#f15a24"/><circle cx="56.68" cy="18" r="1.36" style="fill:#f15a24"/><circle cx="43.07" cy="58.78" r="1.36" style="fill:#f15a24"/><circle cx="43.07" cy="45.19" r="1.36" style="fill:#f15a24"/><circle cx="43.07" cy="31.59" r="1.36" style="fill:#f15a24"/><circle cx="43.07" cy="18" r="1.36" style="fill:#f15a24"/><circle cx="30.8" cy="58.78" r="1.36" style="fill:#f15a24"/><circle cx="30.8" cy="45.19" r="1.36" style="fill:#f15a24"/><circle cx="30.8" cy="31.59" r="1.36" style="fill:#f15a24"/><circle cx="30.8" cy="18" r="1.36" style="fill:#f15a24"/><circle cx="17.2" cy="58.78" r="1.36" style="fill:#f15a24"/><circle cx="17.2" cy="45.19" r="1.36" style="fill:#f15a24"/><circle cx="17.2" cy="31.59" r="1.36" style="fill:#f15a24"/><circle cx="17.2" cy="18" r="1.36" style="fill:#f15a24"/><circle cx="219.8" cy="71" r="1.36" style="fill:#f15a24"/><circle cx="206.2" cy="71" r="1.36" style="fill:#f15a24"/><circle cx="192.61" cy="71" r="1.36" style="fill:#f15a24"/><circle cx="179.01" cy="71" r="1.36" style="fill:#f15a24"/><circle cx="165.43" cy="71" r="1.36" style="fill:#f15a24"/><circle cx="151.82" cy="71" r="1.36" style="fill:#f15a24"/><circle cx="138.24" cy="71" r="1.36" style="fill:#f15a24"/><circle cx="124.63" cy="71" r="1.36" style="fill:#f15a24"/><circle cx="111.05" cy="71" r="1.36" style="fill:#f15a24"/><circle cx="97.45" cy="71" r="1.36" style="fill:#f15a24"/><circle cx="83.86" cy="71" r="1.36" style="fill:#f15a24"/><circle cx="70.26" cy="71" r="1.36" style="fill:#f15a24"/><circle cx="56.68" cy="71" r="1.36" style="fill:#f15a24"/><circle cx="43.07" cy="71" r="1.36" style="fill:#f15a24"/><circle cx="30.8" cy="71" r="1.36" style="fill:#f15a24"/><circle cx="17.2" cy="71" r="1.36" style="fill:#f15a24"/></g><rect width="237" height="89" style="fill:none"/></svg>