<svg id="Layer_1" data-name="Layer 1" xmlns="http://www.w3.org/2000/svg" width="984.82" height="687.29" viewBox="0 0 984.82 687.29"><title>paas-application-development-navigation</title><path d="M798.6,680.6l-619.2,1.8a40.52,40.52,0,0,1-11.5-1.7c-26.6-8.1-132.4-46.4-150.2-146.4-9.3-52,1.4-124,109.1-194.5,0,0-50.4-202.2,163.6-159.9,0,0,90-198.1,289.9-159.9,0,0,193.6,39.1,202.7,239,0,0,183.6,47.3,196.3,203.6,0,0,19.5,135-165.3,215A43.47,43.47,0,0,1,798.6,680.6Z" transform="translate(-5.07 -5.11)" style="fill:none;stroke:#f26522;stroke-linecap:round;stroke-linejoin:round;stroke-width:20px"/><path d="M320.4,373.5A60.5,60.5,0,0,1,340,395.2a63.3,63.3,0,0,1,0,59.4,59.13,59.13,0,0,1-19.6,21.8,45.65,45.65,0,0,1-25.7,8.1h-46v50c0,4.8-1.4,8.6-4.2,11.6a14.47,14.47,0,0,1-11.1,4.5,13.85,13.85,0,0,1-10.8-4.6,16.47,16.47,0,0,1-4.2-11.5V381.6a15.72,15.72,0,0,1,16.1-16.1h60.3A46.24,46.24,0,0,1,320.4,373.5Zm-15.7,76.6a30.21,30.21,0,0,0,7.9-11,34.64,34.64,0,0,0,0-28.2,29.71,29.71,0,0,0-7.9-10.8c-3.3-2.7-6.6-4.1-9.9-4.1h-46v58.4h46C298.1,454.3,301.4,452.9,304.7,450.1Z" transform="translate(-5.07 -5.11)" style="fill:#f26522;stroke:#f26522;stroke-miterlimit:10"/><path d="M489.4,411a15.75,15.75,0,0,1,4.5,11.6V534.5a15.84,15.84,0,0,1-4.5,11.5,15.15,15.15,0,0,1-11.4,4.6,14.84,14.84,0,0,1-11.2-4.5,16.35,16.35,0,0,1-4.6-11.4,57.41,57.41,0,0,1-41.6,18.5,60.25,60.25,0,0,1-33.1-9.4,65.57,65.57,0,0,1-23.4-26c-5.7-11.1-8.6-23.7-8.6-37.8s2.8-26.8,8.5-37.9a65.55,65.55,0,0,1,23.1-26.2,58.65,58.65,0,0,1,32.4-9.4,60.82,60.82,0,0,1,23.8,4.6,62.1,62.1,0,0,1,18.8,11.8v-.3a15.84,15.84,0,0,1,4.5-11.5,15.15,15.15,0,0,1,11.4-4.6A15.45,15.45,0,0,1,489.4,411ZM452.6,511.6c7.2-8.4,10.8-18.9,10.8-31.6s-3.6-23.3-10.8-31.7-16.6-12.7-28-12.7-20.5,4.2-27.8,12.7S386,467.3,386,480s3.6,23.2,10.7,31.6,16.4,12.6,27.9,12.6S445.4,520,452.6,511.6Z" transform="translate(-5.07 -5.11)" style="fill:#f26522;stroke:#f26522;stroke-miterlimit:10"/><path d="M646.4,411a15.75,15.75,0,0,1,4.5,11.6V534.5a15.84,15.84,0,0,1-4.5,11.5,15.15,15.15,0,0,1-11.4,4.6,14.84,14.84,0,0,1-11.2-4.5,16.35,16.35,0,0,1-4.6-11.4,57.41,57.41,0,0,1-41.6,18.5,60.25,60.25,0,0,1-33.1-9.4,65.57,65.57,0,0,1-23.4-26c-5.7-11.1-8.6-23.7-8.6-37.8s2.8-26.8,8.5-37.9a65.55,65.55,0,0,1,23.1-26.2,58.65,58.65,0,0,1,32.4-9.4,60.82,60.82,0,0,1,23.8,4.6,62.1,62.1,0,0,1,18.8,11.8v-.3a15.84,15.84,0,0,1,4.5-11.5,16.56,16.56,0,0,1,22.8-.1ZM609.7,511.6c7.2-8.4,10.8-18.9,10.8-31.6s-3.6-23.3-10.8-31.7-16.6-12.7-28-12.7-20.5,4.2-27.8,12.7-10.8,19-10.8,31.7,3.6,23.2,10.7,31.6,16.4,12.6,27.9,12.6S602.5,520,609.7,511.6Z" transform="translate(-5.07 -5.11)" style="fill:#f26522;stroke:#f26522;stroke-miterlimit:10"/><path d="M703.3,548.5a78.8,78.8,0,0,1-27.8-16.1c-4.8-4.2-7.1-8.9-7.1-14a14.83,14.83,0,0,1,4.5-10.7,14.65,14.65,0,0,1,19.8-1.4A78.87,78.87,0,0,0,713.3,519a65.49,65.49,0,0,0,23.8,4q14.85,0,25.5-6.6c7.1-4.4,10.7-9.9,10.7-16.4,0-7.9-3.5-14.1-10.6-18.6s-18.2-7.9-33.6-10.2q-57.9-8.4-57.9-53.9c0-11.1,2.9-20.8,8.7-29a55.18,55.18,0,0,1,23.8-18.8,84.25,84.25,0,0,1,33.6-6.5,96.86,96.86,0,0,1,31.3,5,79.16,79.16,0,0,1,24.5,13.2c5.1,4.1,7.7,8.7,7.7,14a14.83,14.83,0,0,1-4.5,10.7,14.17,14.17,0,0,1-10.6,4.6,11.49,11.49,0,0,1-7.1-2.4q-6.9-5.55-19.2-10.2c-8.2-3.1-15.6-4.6-22.1-4.6-11.1,0-19.7,2.1-25.8,6.2s-9.1,9.6-9.1,16.3c0,7.6,3.1,13.3,9.4,17.2s16.1,7.1,29.5,9.5c15.2,2.6,27.3,6,36.4,10.2s15.9,9.8,20.5,16.9,6.9,16.6,6.9,28.4c0,11.1-3.1,20.8-9.4,29.2a60.48,60.48,0,0,1-25,19.3,83.66,83.66,0,0,1-33.6,6.7C724.5,553.2,713.2,551.7,703.3,548.5Z" transform="translate(-5.07 -5.11)" style="fill:#f26522;stroke:#f26522;stroke-miterlimit:10"/></svg>