<svg id="Layer_1" data-name="Layer 1" xmlns="http://www.w3.org/2000/svg" xmlns:xlink="http://www.w3.org/1999/xlink" width="434.45" height="473.07" viewBox="0 0 434.45 473.07"><defs><radialGradient id="radial-gradient" cx="261.24" cy="243.21" r="441.78" gradientTransform="matrix(1, 0, 0, -1, 0, 502)" gradientUnits="userSpaceOnUse"><stop offset="0" stop-opacity="0.5"/><stop offset="1" stop-color="#fff" stop-opacity="0"/></radialGradient><radialGradient id="radial-gradient-9" cx="261.24" cy="243.21" r="441.78" xlink:href="#radial-gradient"/></defs><title>pattern-design4</title><g style="opacity:0.699999988079071"><path d="M90.7,409.7a4.38,4.38,0,0,1-3.2-1.3l-8.6-8.6a4.38,4.38,0,0,1-1.3-3.2,4.63,4.63,0,0,1,1.3-3.2l9.3-9.3a3.5,3.5,0,0,1,5,0l9.3,9.3a4.38,4.38,0,0,1,1.3,3.2,4.63,4.63,0,0,1-1.3,3.2l-8.6,8.6A4.22,4.22,0,0,1,90.7,409.7Zm0-25.7a2.57,2.57,0,0,0-1.8.7L79.6,394a3.5,3.5,0,0,0,0,5l8.6,8.6a3.5,3.5,0,0,0,5,0l8.6-8.6a3.47,3.47,0,0,0,1-2.5,4,4,0,0,0-1-2.5l-9.3-9.3A2.87,2.87,0,0,0,90.7,384Z" transform="translate(-36.55 -17.23)" style="fill:url(#radial-gradient)"/></g><g style="opacity:0.699999988079071"><path d="M131.2,409.7a4.38,4.38,0,0,1-3.2-1.3l-8.6-8.6a4.38,4.38,0,0,1-1.3-3.2,4.63,4.63,0,0,1,1.3-3.2l9.3-9.3a3.5,3.5,0,0,1,5,0l9.3,9.3a4.38,4.38,0,0,1,1.3,3.2,4.63,4.63,0,0,1-1.3,3.2l-8.6,8.6A4.22,4.22,0,0,1,131.2,409.7Zm0-25.7a2.57,2.57,0,0,0-1.8.7l-9.3,9.3a3.5,3.5,0,0,0,0,5l8.6,8.6a3.5,3.5,0,0,0,5,0l8.6-8.6a3.47,3.47,0,0,0,1-2.5,4,4,0,0,0-1-2.5l-9.3-9.3A2.87,2.87,0,0,0,131.2,384Z" transform="translate(-36.55 -17.23)" style="fill:url(#radial-gradient)"/></g><g style="opacity:0.699999988079071"><path d="M131.2,490.3A4.38,4.38,0,0,1,128,489l-8.6-8.6a4.47,4.47,0,0,1,0-6.4l9.3-9.3a3.5,3.5,0,0,1,5,0L143,474a4.38,4.38,0,0,1,1.3,3.2,4.63,4.63,0,0,1-1.3,3.2l-8.6,8.6A4.22,4.22,0,0,1,131.2,490.3Zm0-25.7a2.57,2.57,0,0,0-1.8.7l-9.3,9.3a3.5,3.5,0,0,0,0,5l8.6,8.6a3.5,3.5,0,0,0,5,0l8.6-8.6a3.47,3.47,0,0,0,1-2.5,4,4,0,0,0-1-2.5l-9.3-9.3A2.87,2.87,0,0,0,131.2,464.6Z" transform="translate(-36.55 -17.23)" style="fill:url(#radial-gradient)"/></g><g style="opacity:0.699999988079071"><path d="M171.7,409.7a4.38,4.38,0,0,1-3.2-1.3l-8.6-8.6a4.38,4.38,0,0,1-1.3-3.2,4.63,4.63,0,0,1,1.3-3.2l9.3-9.3a3.5,3.5,0,0,1,5,0l9.3,9.3a4.38,4.38,0,0,1,1.3,3.2,4.63,4.63,0,0,1-1.3,3.2l-8.6,8.6A4.22,4.22,0,0,1,171.7,409.7Zm0-25.7a2.57,2.57,0,0,0-1.8.7l-9.3,9.3a3.5,3.5,0,0,0,0,5l8.6,8.6a3.5,3.5,0,0,0,5,0l8.6-8.6a3.5,3.5,0,0,0,0-5l-9.3-9.3A2.87,2.87,0,0,0,171.7,384Z" transform="translate(-36.55 -17.23)" style="fill:url(#radial-gradient)"/></g><g style="opacity:0.699999988079071"><path d="M212.3,449.3a4.38,4.38,0,0,1-3.2-1.3l-8.6-8.6a4.47,4.47,0,0,1,0-6.4l9.3-9.3a3.5,3.5,0,0,1,5,0l9.3,9.3a4.47,4.47,0,0,1,0,6.4l-8.6,8.6A4.54,4.54,0,0,1,212.3,449.3Zm0-25.7a2.57,2.57,0,0,0-1.8.7l-9.3,9.3a3.5,3.5,0,0,0,0,5l8.6,8.6a3.5,3.5,0,0,0,5,0l8.6-8.6a3.5,3.5,0,0,0,0-5l-9.3-9.3A2.74,2.74,0,0,0,212.3,423.6Z" transform="translate(-36.55 -17.23)" style="fill:url(#radial-gradient)"/></g><g style="opacity:0.699999988079071"><path d="M252.8,409.7a4.38,4.38,0,0,1-3.2-1.3l-8.6-8.6a4.38,4.38,0,0,1-1.3-3.2,4.63,4.63,0,0,1,1.3-3.2l9.3-9.3a3.5,3.5,0,0,1,5,0l9.3,9.3a4.38,4.38,0,0,1,1.3,3.2,4.63,4.63,0,0,1-1.3,3.2l-8.6,8.6A4.54,4.54,0,0,1,252.8,409.7Zm0-25.7a2.57,2.57,0,0,0-1.8.7l-9.3,9.3a3.5,3.5,0,0,0,0,5l8.6,8.6a3.5,3.5,0,0,0,5,0l8.6-8.6a3.5,3.5,0,0,0,0-5l-9.3-9.3A3.12,3.12,0,0,0,252.8,384Z" transform="translate(-36.55 -17.23)" style="fill:url(#radial-gradient)"/></g><g style="opacity:0.699999988079071"><path d="M293.3,409.7a4.63,4.63,0,0,1-3.2-1.3l-8.6-8.6a4.38,4.38,0,0,1-1.3-3.2,4.63,4.63,0,0,1,1.3-3.2l9.3-9.3a3.69,3.69,0,0,1,5,0l9.3,9.3a4.38,4.38,0,0,1,1.3,3.2,4.63,4.63,0,0,1-1.3,3.2l-8.6,8.6A4.38,4.38,0,0,1,293.3,409.7Zm0-25.7a2.57,2.57,0,0,0-1.8.7l-9.3,9.3a3.47,3.47,0,0,0-1,2.5,4,4,0,0,0,1,2.5l8.6,8.6a3.69,3.69,0,0,0,5,0l8.6-8.6a3.47,3.47,0,0,0,1-2.5,4,4,0,0,0-1-2.5l-9.3-9.3A3.12,3.12,0,0,0,293.3,384Z" transform="translate(-36.55 -17.23)" style="fill:url(#radial-gradient)"/></g><g style="opacity:0.699999988079071"><path d="M333.8,409.7a4.38,4.38,0,0,1-3.2-1.3l-8.6-8.6a4.38,4.38,0,0,1-1.3-3.2,4.63,4.63,0,0,1,1.3-3.2l9.3-9.3a3.5,3.5,0,0,1,5,0l9.3,9.3a4.38,4.38,0,0,1,1.3,3.2,4.63,4.63,0,0,1-1.3,3.2l-8.6,8.6A4.54,4.54,0,0,1,333.8,409.7Zm0-25.7a2.57,2.57,0,0,0-1.8.7l-9.3,9.3a3.5,3.5,0,0,0,0,5l8.6,8.6a3.5,3.5,0,0,0,5,0l8.6-8.6a3.5,3.5,0,0,0,0-5l-9.3-9.3A3.12,3.12,0,0,0,333.8,384Z" transform="translate(-36.55 -17.23)" style="fill:url(#radial-gradient)"/></g><g style="opacity:0.699999988079071"><path d="M333.8,448.6a4.38,4.38,0,0,1-3.2-1.3l-8.6-8.6a4.47,4.47,0,0,1,0-6.4l9.3-9.3a3.5,3.5,0,0,1,5,0l9.3,9.3a4.47,4.47,0,0,1,0,6.4l-8.6,8.6A4.54,4.54,0,0,1,333.8,448.6Zm0-25.7a2.57,2.57,0,0,0-1.8.7l-9.3,9.3a3.5,3.5,0,0,0,0,5l8.6,8.6a3.5,3.5,0,0,0,5,0l8.6-8.6a3.5,3.5,0,0,0,0-5l-9.3-9.3A2.57,2.57,0,0,0,333.8,422.9Z" transform="translate(-36.55 -17.23)" style="fill:url(#radial-gradient-9)"/></g><g style="opacity:0.699999988079071"><path d="M414.8,409.7a4.38,4.38,0,0,1-3.2-1.3l-8.6-8.6a4.38,4.38,0,0,1-1.3-3.2,4.63,4.63,0,0,1,1.3-3.2l9.3-9.3a3.5,3.5,0,0,1,5,0l9.3,9.3a4.38,4.38,0,0,1,1.3,3.2,4.63,4.63,0,0,1-1.3,3.2l-8.6,8.6A4.38,4.38,0,0,1,414.8,409.7Zm0-25.7a2.57,2.57,0,0,0-1.8.7l-9.3,9.3a3.5,3.5,0,0,0,0,5l8.6,8.6a3.5,3.5,0,0,0,5,0l8.6-8.6a3.5,3.5,0,0,0,0-5l-9.3-9.3A3.12,3.12,0,0,0,414.8,384Z" transform="translate(-36.55 -17.23)" style="fill:url(#radial-gradient)"/></g><g style="opacity:0.699999988079071"><path d="M414.8,450a4.38,4.38,0,0,1-3.2-1.3l-8.6-8.6a4.47,4.47,0,0,1,0-6.4l9.3-9.3a3.5,3.5,0,0,1,5,0l9.3,9.3a4.47,4.47,0,0,1,0,6.4l-8.6,8.6A4.38,4.38,0,0,1,414.8,450Zm0-25.7a2.57,2.57,0,0,0-1.8.7l-9.3,9.3a3.5,3.5,0,0,0,0,5l8.6,8.6a3.5,3.5,0,0,0,5,0l8.6-8.6a3.5,3.5,0,0,0,0-5l-9.3-9.3A3.12,3.12,0,0,0,414.8,424.3Z" transform="translate(-36.55 -17.23)" style="fill:url(#radial-gradient)"/></g><g style="opacity:0.699999988079071"><path d="M171.7,369.2a4.38,4.38,0,0,1-3.2-1.3l-8.6-8.6a4.38,4.38,0,0,1-1.3-3.2,4.63,4.63,0,0,1,1.3-3.2l9.3-9.3a3.69,3.69,0,0,1,5,0l9.3,9.3a4.38,4.38,0,0,1,1.3,3.2,4.63,4.63,0,0,1-1.3,3.2l-8.6,8.6A4.22,4.22,0,0,1,171.7,369.2Zm0-25.7a2.87,2.87,0,0,0-1.8.7l-9.3,9.3a3.5,3.5,0,0,0,0,5l8.6,8.6a3.5,3.5,0,0,0,5,0l8.6-8.6a3.5,3.5,0,0,0,0-5l-9.3-9.3A2.67,2.67,0,0,0,171.7,343.5Z" transform="translate(-36.55 -17.23)" style="fill:url(#radial-gradient)"/></g><g style="opacity:0.699999988079071"><path d="M212.3,369.2a4.38,4.38,0,0,1-3.2-1.3l-8.6-8.6a4.38,4.38,0,0,1-1.3-3.2,4.63,4.63,0,0,1,1.3-3.2l9.3-9.3a3.69,3.69,0,0,1,5,0l9.3,9.3a4.38,4.38,0,0,1,1.3,3.2,4.63,4.63,0,0,1-1.3,3.2l-8.6,8.6A4.54,4.54,0,0,1,212.3,369.2Zm0-25.7a2.87,2.87,0,0,0-1.8.7l-9.3,9.3a3.5,3.5,0,0,0,0,5l8.6,8.6a3.5,3.5,0,0,0,5,0l8.6-8.6a3.5,3.5,0,0,0,0-5l-9.3-9.3A3.12,3.12,0,0,0,212.3,343.5Z" transform="translate(-36.55 -17.23)" style="fill:url(#radial-gradient)"/></g><g style="opacity:0.699999988079071"><path d="M293.3,369.2a4.63,4.63,0,0,1-3.2-1.3l-8.6-8.6a4.38,4.38,0,0,1-1.3-3.2,4.63,4.63,0,0,1,1.3-3.2l9.3-9.3a3.69,3.69,0,0,1,5,0l9.3,9.3a4.38,4.38,0,0,1,1.3,3.2,4.63,4.63,0,0,1-1.3,3.2l-8.6,8.6A4.82,4.82,0,0,1,293.3,369.2Zm0-25.7a2.87,2.87,0,0,0-1.8.7l-9.3,9.3a3.47,3.47,0,0,0-1,2.5,4,4,0,0,0,1,2.5l8.6,8.6a3.5,3.5,0,0,0,5,0l8.6-8.6a3.47,3.47,0,0,0,1-2.5,4,4,0,0,0-1-2.5l-9.3-9.3A3.12,3.12,0,0,0,293.3,343.5Z" transform="translate(-36.55 -17.23)" style="fill:url(#radial-gradient)"/></g><g style="opacity:0.699999988079071"><path d="M374.3,369.2a4.63,4.63,0,0,1-3.2-1.3l-8.6-8.6a4.38,4.38,0,0,1-1.3-3.2,4.63,4.63,0,0,1,1.3-3.2l9.3-9.3a3.69,3.69,0,0,1,5,0l9.3,9.3a4.38,4.38,0,0,1,1.3,3.2,4.63,4.63,0,0,1-1.3,3.2l-8.6,8.6A4.82,4.82,0,0,1,374.3,369.2Zm0-25.7a2.87,2.87,0,0,0-1.8.7l-9.3,9.3a3.5,3.5,0,0,0,0,5l8.6,8.6a3.5,3.5,0,0,0,5,0l8.6-8.6a3.47,3.47,0,0,0,1-2.5,4,4,0,0,0-1-2.5l-9.3-9.3A2.87,2.87,0,0,0,374.3,343.5Z" transform="translate(-36.55 -17.23)" style="fill:url(#radial-gradient)"/></g><g style="opacity:0.699999988079071"><path d="M414.8,369.2a4.38,4.38,0,0,1-3.2-1.3l-8.6-8.6a4.38,4.38,0,0,1-1.3-3.2,4.63,4.63,0,0,1,1.3-3.2l9.3-9.3a3.5,3.5,0,0,1,5,0l9.3,9.3a4.38,4.38,0,0,1,1.3,3.2,4.63,4.63,0,0,1-1.3,3.2l-8.6,8.6A4.38,4.38,0,0,1,414.8,369.2Zm0-25.7a2.87,2.87,0,0,0-1.8.7l-9.3,9.3a3.5,3.5,0,0,0,0,5l8.6,8.6a3.5,3.5,0,0,0,5,0l8.6-8.6a3.5,3.5,0,0,0,0-5l-9.3-9.3A2.87,2.87,0,0,0,414.8,343.5Z" transform="translate(-36.55 -17.23)" style="fill:url(#radial-gradient)"/></g><g style="opacity:0.699999988079071"><path d="M457.9,369.9a4.38,4.38,0,0,1-3.2-1.3l-8.6-8.6a4.38,4.38,0,0,1-1.3-3.2,4.63,4.63,0,0,1,1.3-3.2l9.3-9.3a3.5,3.5,0,0,1,5,0l9.3,9.3a4.38,4.38,0,0,1,1.3,3.2,4.63,4.63,0,0,1-1.3,3.2l-8.6,8.6A4.22,4.22,0,0,1,457.9,369.9Zm0-25.7a2.87,2.87,0,0,0-1.8.7l-9.3,9.3a3.5,3.5,0,0,0,0,5l8.6,8.6a3.5,3.5,0,0,0,5,0l8.6-8.6a3.5,3.5,0,0,0,0-5l-9.3-9.3A2.87,2.87,0,0,0,457.9,344.2Z" transform="translate(-36.55 -17.23)" style="fill:url(#radial-gradient)"/></g><g style="opacity:0.699999988079071"><path d="M90.7,328.3a4.38,4.38,0,0,1-3.2-1.3l-8.6-8.6a4.38,4.38,0,0,1-1.3-3.2,4.63,4.63,0,0,1,1.3-3.2l9.3-9.3a3.69,3.69,0,0,1,5,0l9.3,9.3a4.38,4.38,0,0,1,1.3,3.2,4.63,4.63,0,0,1-1.3,3.2L93.9,327A4.22,4.22,0,0,1,90.7,328.3Zm0-25.7a2.87,2.87,0,0,0-1.8.7l-9.3,9.3a3.5,3.5,0,0,0,0,5l8.6,8.6a3.5,3.5,0,0,0,5,0l8.6-8.6a3.47,3.47,0,0,0,1-2.5,4,4,0,0,0-1-2.5l-9.3-9.3A2.41,2.41,0,0,0,90.7,302.6Z" transform="translate(-36.55 -17.23)" style="fill:url(#radial-gradient)"/></g><g style="opacity:0.699999988079071"><path d="M131.2,328.3A4.38,4.38,0,0,1,128,327l-8.6-8.6a4.38,4.38,0,0,1-1.3-3.2,4.63,4.63,0,0,1,1.3-3.2l9.3-9.3a3.69,3.69,0,0,1,5,0L143,312a4.38,4.38,0,0,1,1.3,3.2,4.63,4.63,0,0,1-1.3,3.2l-8.6,8.6A4.22,4.22,0,0,1,131.2,328.3Zm0-25.7a2.87,2.87,0,0,0-1.8.7l-9.3,9.3a3.5,3.5,0,0,0,0,5l8.6,8.6a3.5,3.5,0,0,0,5,0l8.6-8.6a3.47,3.47,0,0,0,1-2.5,4,4,0,0,0-1-2.5l-9.3-9.3A2.41,2.41,0,0,0,131.2,302.6Z" transform="translate(-36.55 -17.23)" style="fill:url(#radial-gradient)"/></g><g style="opacity:0.699999988079071"><path d="M212.3,328.3a4.38,4.38,0,0,1-3.2-1.3l-8.6-8.6a4.38,4.38,0,0,1-1.3-3.2,4.63,4.63,0,0,1,1.3-3.2l9.3-9.3a3.69,3.69,0,0,1,5,0l9.3,9.3a4.38,4.38,0,0,1,1.3,3.2,4.63,4.63,0,0,1-1.3,3.2l-8.6,8.6A4.54,4.54,0,0,1,212.3,328.3Zm0-25.7a2.87,2.87,0,0,0-1.8.7l-9.3,9.3a3.5,3.5,0,0,0,0,5l8.6,8.6a3.5,3.5,0,0,0,5,0l8.6-8.6a3.5,3.5,0,0,0,0-5l-9.3-9.3A2.57,2.57,0,0,0,212.3,302.6Z" transform="translate(-36.55 -17.23)" style="fill:url(#radial-gradient)"/></g><g style="opacity:0.699999988079071"><path d="M252.8,328.3a4.38,4.38,0,0,1-3.2-1.3l-8.6-8.6a4.38,4.38,0,0,1-1.3-3.2A4.63,4.63,0,0,1,241,312l9.3-9.3a3.69,3.69,0,0,1,5,0l9.3,9.3a4.38,4.38,0,0,1,1.3,3.2,4.63,4.63,0,0,1-1.3,3.2L256,327A4.54,4.54,0,0,1,252.8,328.3Zm0-25.7a2.87,2.87,0,0,0-1.8.7l-9.3,9.3a3.5,3.5,0,0,0,0,5l8.6,8.6a3.5,3.5,0,0,0,5,0l8.6-8.6a3.5,3.5,0,0,0,0-5l-9.3-9.3A2.57,2.57,0,0,0,252.8,302.6Z" transform="translate(-36.55 -17.23)" style="fill:url(#radial-gradient)"/></g><g style="opacity:0.699999988079071"><path d="M293.3,328.3a4.63,4.63,0,0,1-3.2-1.3l-8.6-8.6a4.38,4.38,0,0,1-1.3-3.2,4.63,4.63,0,0,1,1.3-3.2l9.3-9.3a3.69,3.69,0,0,1,5,0l9.3,9.3a4.38,4.38,0,0,1,1.3,3.2,4.63,4.63,0,0,1-1.3,3.2l-8.6,8.6A4.82,4.82,0,0,1,293.3,328.3Zm0-25.7a2.87,2.87,0,0,0-1.8.7l-9.3,9.3a3.47,3.47,0,0,0-1,2.5,4,4,0,0,0,1,2.5l8.6,8.6a3.69,3.69,0,0,0,5,0l8.6-8.6a3.47,3.47,0,0,0,1-2.5,4,4,0,0,0-1-2.5l-9.3-9.3A2.57,2.57,0,0,0,293.3,302.6Z" transform="translate(-36.55 -17.23)" style="fill:url(#radial-gradient)"/></g><g style="opacity:0.699999988079071"><path d="M333.8,328.3a4.38,4.38,0,0,1-3.2-1.3l-8.6-8.6a4.38,4.38,0,0,1-1.3-3.2A4.63,4.63,0,0,1,322,312l9.3-9.3a3.5,3.5,0,0,1,5,0l9.3,9.3a4.38,4.38,0,0,1,1.3,3.2,4.63,4.63,0,0,1-1.3,3.2L337,327A4.54,4.54,0,0,1,333.8,328.3Zm0-25.7a2.87,2.87,0,0,0-1.8.7l-9.3,9.3a3.5,3.5,0,0,0,0,5l8.6,8.6a3.5,3.5,0,0,0,5,0l8.6-8.6a3.5,3.5,0,0,0,0-5l-9.3-9.3A2.41,2.41,0,0,0,333.8,302.6Z" transform="translate(-36.55 -17.23)" style="fill:url(#radial-gradient)"/></g><g style="opacity:0.699999988079071"><path d="M414.8,328.3a4.38,4.38,0,0,1-3.2-1.3l-8.6-8.6a4.38,4.38,0,0,1-1.3-3.2A4.63,4.63,0,0,1,403,312l9.3-9.3a3.5,3.5,0,0,1,5,0l9.3,9.3a4.38,4.38,0,0,1,1.3,3.2,4.63,4.63,0,0,1-1.3,3.2L418,327A4.38,4.38,0,0,1,414.8,328.3Zm0-25.7a2.87,2.87,0,0,0-1.8.7l-9.3,9.3a3.5,3.5,0,0,0,0,5l8.6,8.6a3.5,3.5,0,0,0,5,0l8.6-8.6a3.5,3.5,0,0,0,0-5l-9.3-9.3A2.41,2.41,0,0,0,414.8,302.6Z" transform="translate(-36.55 -17.23)" style="fill:url(#radial-gradient)"/></g><g style="opacity:0.699999988079071"><path d="M90.7,287.4a4.38,4.38,0,0,1-3.2-1.3l-8.6-8.6a4.47,4.47,0,0,1,0-6.4l9.3-9.3a3.5,3.5,0,0,1,5,0l9.3,9.3a4.38,4.38,0,0,1,1.3,3.2,4.63,4.63,0,0,1-1.3,3.2l-8.6,8.6A4.63,4.63,0,0,1,90.7,287.4Zm0-25.7a2.57,2.57,0,0,0-1.8.7l-9.3,9.3a3.5,3.5,0,0,0,0,5l8.6,8.6a3.5,3.5,0,0,0,5,0l8.6-8.6a3.47,3.47,0,0,0,1-2.5,4,4,0,0,0-1-2.5l-9.3-9.3A2.41,2.41,0,0,0,90.7,261.7Z" transform="translate(-36.55 -17.23)" style="fill:url(#radial-gradient)"/></g><g style="opacity:0.699999988079071"><path d="M50.4,287.4a4.38,4.38,0,0,1-3.2-1.3l-8.6-8.6a4.47,4.47,0,0,1,0-6.4l9.3-9.3a3.5,3.5,0,0,1,5,0l9.3,9.3a4.47,4.47,0,0,1,0,6.4l-8.6,8.6A4.63,4.63,0,0,1,50.4,287.4Zm0-25.7a2.57,2.57,0,0,0-1.8.7l-9.3,9.3a3.5,3.5,0,0,0,0,5l8.6,8.6a3.5,3.5,0,0,0,5,0l8.6-8.6a3.5,3.5,0,0,0,0-5l-9.3-9.3A2.41,2.41,0,0,0,50.4,261.7Z" transform="translate(-36.55 -17.23)" style="fill:url(#radial-gradient)"/></g><g style="opacity:0.699999988079071"><path d="M171.7,287.4a4.38,4.38,0,0,1-3.2-1.3l-8.6-8.6a4.47,4.47,0,0,1,0-6.4l9.3-9.3a3.5,3.5,0,0,1,5,0l9.3,9.3a4.47,4.47,0,0,1,0,6.4l-8.6,8.6A4.63,4.63,0,0,1,171.7,287.4Zm0-25.7a2.57,2.57,0,0,0-1.8.7l-9.3,9.3a3.5,3.5,0,0,0,0,5l8.6,8.6a3.5,3.5,0,0,0,5,0l8.6-8.6a3.5,3.5,0,0,0,0-5l-9.3-9.3A2.41,2.41,0,0,0,171.7,261.7Z" transform="translate(-36.55 -17.23)" style="fill:url(#radial-gradient)"/></g><g style="opacity:0.699999988079071"><path d="M212.3,287.4a4.38,4.38,0,0,1-3.2-1.3l-8.6-8.6a4.47,4.47,0,0,1,0-6.4l9.3-9.3a3.5,3.5,0,0,1,5,0l9.3,9.3a4.47,4.47,0,0,1,0,6.4l-8.6,8.6A5,5,0,0,1,212.3,287.4Zm0-25.7a2.57,2.57,0,0,0-1.8.7l-9.3,9.3a3.5,3.5,0,0,0,0,5l8.6,8.6a3.5,3.5,0,0,0,5,0l8.6-8.6a3.5,3.5,0,0,0,0-5l-9.3-9.3A2.74,2.74,0,0,0,212.3,261.7Z" transform="translate(-36.55 -17.23)" style="fill:url(#radial-gradient)"/></g><g style="opacity:0.699999988079071"><path d="M252.8,287.4a4.38,4.38,0,0,1-3.2-1.3l-8.6-8.6a4.47,4.47,0,0,1,0-6.4l9.3-9.3a3.5,3.5,0,0,1,5,0l9.3,9.3a4.47,4.47,0,0,1,0,6.4l-8.6,8.6A5,5,0,0,1,252.8,287.4Zm0-25.7a2.57,2.57,0,0,0-1.8.7l-9.3,9.3a3.5,3.5,0,0,0,0,5l8.6,8.6a3.5,3.5,0,0,0,5,0l8.6-8.6a3.5,3.5,0,0,0,0-5l-9.3-9.3A2.57,2.57,0,0,0,252.8,261.7Z" transform="translate(-36.55 -17.23)" style="fill:url(#radial-gradient)"/></g><g style="opacity:0.699999988079071"><path d="M333.8,287.4a4.38,4.38,0,0,1-3.2-1.3l-8.6-8.6a4.47,4.47,0,0,1,0-6.4l9.3-9.3a3.5,3.5,0,0,1,5,0l9.3,9.3a4.47,4.47,0,0,1,0,6.4l-8.6,8.6A5,5,0,0,1,333.8,287.4Zm0-25.7a2.57,2.57,0,0,0-1.8.7l-9.3,9.3a3.5,3.5,0,0,0,0,5l8.6,8.6a3.5,3.5,0,0,0,5,0l8.6-8.6a3.5,3.5,0,0,0,0-5l-9.3-9.3A2.57,2.57,0,0,0,333.8,261.7Z" transform="translate(-36.55 -17.23)" style="fill:url(#radial-gradient)"/></g><g style="opacity:0.699999988079071"><path d="M374.3,287.4a4.63,4.63,0,0,1-3.2-1.3l-8.6-8.6a4.47,4.47,0,0,1,0-6.4l9.3-9.3a3.5,3.5,0,0,1,5,0l9.3,9.3a4.38,4.38,0,0,1,1.3,3.2,4.63,4.63,0,0,1-1.3,3.2l-8.6,8.6A4.82,4.82,0,0,1,374.3,287.4Zm0-25.7a2.57,2.57,0,0,0-1.8.7l-9.3,9.3a3.5,3.5,0,0,0,0,5l8.6,8.6a3.5,3.5,0,0,0,5,0l8.6-8.6a3.47,3.47,0,0,0,1-2.5,4,4,0,0,0-1-2.5l-9.3-9.3A2.57,2.57,0,0,0,374.3,261.7Z" transform="translate(-36.55 -17.23)" style="fill:url(#radial-gradient)"/></g><g style="opacity:0.699999988079071"><path d="M414.8,287.4a4.38,4.38,0,0,1-3.2-1.3l-8.6-8.6a4.47,4.47,0,0,1,0-6.4l9.3-9.3a3.5,3.5,0,0,1,5,0l9.3,9.3a4.47,4.47,0,0,1,0,6.4l-8.6,8.6A4.82,4.82,0,0,1,414.8,287.4Zm0-25.7a2.57,2.57,0,0,0-1.8.7l-9.3,9.3a3.5,3.5,0,0,0,0,5l8.6,8.6a3.5,3.5,0,0,0,5,0l8.6-8.6a3.5,3.5,0,0,0,0-5l-9.3-9.3A2.57,2.57,0,0,0,414.8,261.7Z" transform="translate(-36.55 -17.23)" style="fill:url(#radial-gradient)"/></g><g style="opacity:0.699999988079071"><path d="M455.8,287.4a4.38,4.38,0,0,1-3.2-1.3l-8.6-8.6a4.47,4.47,0,0,1,0-6.4l9.3-9.3a3.5,3.5,0,0,1,5,0l9.3,9.3a4.47,4.47,0,0,1,0,6.4l-8.6,8.6A4.82,4.82,0,0,1,455.8,287.4Zm0-25.7a2.57,2.57,0,0,0-1.8.7l-9.3,9.3a3.5,3.5,0,0,0,0,5l8.6,8.6a3.5,3.5,0,0,0,5,0l8.6-8.6a3.5,3.5,0,0,0,0-5l-9.3-9.3A2.57,2.57,0,0,0,455.8,261.7Z" transform="translate(-36.55 -17.23)" style="fill:url(#radial-gradient)"/></g><g style="opacity:0.699999988079071"><path d="M90.7,246.5a4.63,4.63,0,0,1-3.2-1.3l-8.6-8.6a4.47,4.47,0,0,1,0-6.4l9.3-9.3a3.69,3.69,0,0,1,5,0l9.3,9.3a4.38,4.38,0,0,1,1.3,3.2,4.63,4.63,0,0,1-1.3,3.2l-8.6,8.6A4.63,4.63,0,0,1,90.7,246.5Zm0-25.7a2.87,2.87,0,0,0-1.8.7l-9.3,9.3a3.5,3.5,0,0,0,0,5l8.6,8.6a3.69,3.69,0,0,0,5,0l8.6-8.6a3.47,3.47,0,0,0,1-2.5,4,4,0,0,0-1-2.5l-9.3-9.3A2.41,2.41,0,0,0,90.7,220.8Z" transform="translate(-36.55 -17.23)" style="fill:url(#radial-gradient)"/></g><g style="opacity:0.699999988079071"><path d="M131.2,246.5a4.63,4.63,0,0,1-3.2-1.3l-8.6-8.6a4.47,4.47,0,0,1,0-6.4l9.3-9.3a3.69,3.69,0,0,1,5,0l9.3,9.3a4.38,4.38,0,0,1,1.3,3.2,4.63,4.63,0,0,1-1.3,3.2l-8.6,8.6A4.45,4.45,0,0,1,131.2,246.5Zm0-25.7a2.87,2.87,0,0,0-1.8.7l-9.3,9.3a3.5,3.5,0,0,0,0,5l8.6,8.6a3.69,3.69,0,0,0,5,0l8.6-8.6a3.47,3.47,0,0,0,1-2.5,4,4,0,0,0-1-2.5l-9.3-9.3A2.41,2.41,0,0,0,131.2,220.8Z" transform="translate(-36.55 -17.23)" style="fill:url(#radial-gradient)"/></g><g style="opacity:0.699999988079071"><path d="M171.7,246.5a4.63,4.63,0,0,1-3.2-1.3l-8.6-8.6a4.47,4.47,0,0,1,0-6.4l9.3-9.3a3.69,3.69,0,0,1,5,0l9.3,9.3a4.47,4.47,0,0,1,0,6.4l-8.6,8.6A4.45,4.45,0,0,1,171.7,246.5Zm0-25.7a2.87,2.87,0,0,0-1.8.7l-9.3,9.3a3.5,3.5,0,0,0,0,5l8.6,8.6a3.69,3.69,0,0,0,5,0l8.6-8.6a3.5,3.5,0,0,0,0-5l-9.3-9.3A2.27,2.27,0,0,0,171.7,220.8Z" transform="translate(-36.55 -17.23)" style="fill:url(#radial-gradient)"/></g><g style="opacity:0.699999988079071"><path d="M252.8,246.5a4.63,4.63,0,0,1-3.2-1.3l-8.6-8.6a4.47,4.47,0,0,1,0-6.4l9.3-9.3a3.69,3.69,0,0,1,5,0l9.3,9.3a4.47,4.47,0,0,1,0,6.4l-8.6,8.6A4.82,4.82,0,0,1,252.8,246.5Zm0-25.7a2.87,2.87,0,0,0-1.8.7l-9.3,9.3a3.5,3.5,0,0,0,0,5l8.6,8.6a3.69,3.69,0,0,0,5,0l8.6-8.6a3.5,3.5,0,0,0,0-5l-9.3-9.3A2.57,2.57,0,0,0,252.8,220.8Z" transform="translate(-36.55 -17.23)" style="fill:url(#radial-gradient)"/></g><g style="opacity:0.699999988079071"><path d="M293.3,246.5a4.63,4.63,0,0,1-3.2-1.3l-8.6-8.6a4.38,4.38,0,0,1-1.3-3.2,4.63,4.63,0,0,1,1.3-3.2l9.3-9.3a3.69,3.69,0,0,1,5,0l9.3,9.3a4.38,4.38,0,0,1,1.3,3.2,4.63,4.63,0,0,1-1.3,3.2l-8.6,8.6A4.82,4.82,0,0,1,293.3,246.5Zm0-25.7a2.87,2.87,0,0,0-1.8.7l-9.3,9.3a3.47,3.47,0,0,0-1,2.5,4,4,0,0,0,1,2.5l8.6,8.6a3.69,3.69,0,0,0,5,0l8.6-8.6a3.47,3.47,0,0,0,1-2.5,4,4,0,0,0-1-2.5l-9.3-9.3A2.57,2.57,0,0,0,293.3,220.8Z" transform="translate(-36.55 -17.23)" style="fill:url(#radial-gradient)"/></g><g style="opacity:0.699999988079071"><path d="M333.8,246.5a4.63,4.63,0,0,1-3.2-1.3l-8.6-8.6a4.47,4.47,0,0,1,0-6.4l9.3-9.3a3.5,3.5,0,0,1,5,0l9.3,9.3a4.47,4.47,0,0,1,0,6.4l-8.6,8.6A4.82,4.82,0,0,1,333.8,246.5Zm0-25.7a2.87,2.87,0,0,0-1.8.7l-9.3,9.3a3.5,3.5,0,0,0,0,5l8.6,8.6a3.69,3.69,0,0,0,5,0l8.6-8.6a3.5,3.5,0,0,0,0-5l-9.3-9.3A2.41,2.41,0,0,0,333.8,220.8Z" transform="translate(-36.55 -17.23)" style="fill:url(#radial-gradient)"/></g><g style="opacity:0.699999988079071"><path d="M374.3,246.5a4.63,4.63,0,0,1-3.2-1.3l-8.6-8.6a4.47,4.47,0,0,1,0-6.4l9.3-9.3a3.69,3.69,0,0,1,5,0l9.3,9.3a4.38,4.38,0,0,1,1.3,3.2,4.63,4.63,0,0,1-1.3,3.2l-8.6,8.6A4.82,4.82,0,0,1,374.3,246.5Zm0-25.7a2.87,2.87,0,0,0-1.8.7l-9.3,9.3a3.5,3.5,0,0,0,0,5l8.6,8.6a3.69,3.69,0,0,0,5,0l8.6-8.6a3.47,3.47,0,0,0,1-2.5,4,4,0,0,0-1-2.5l-9.3-9.3A2.41,2.41,0,0,0,374.3,220.8Z" transform="translate(-36.55 -17.23)" style="fill:url(#radial-gradient)"/></g><g style="opacity:0.699999988079071"><path d="M90.7,205.6a4.63,4.63,0,0,1-3.2-1.3l-8.6-8.6a4.47,4.47,0,0,1,0-6.4l9.3-9.3a3.69,3.69,0,0,1,5,0l9.3,9.3a4.38,4.38,0,0,1,1.3,3.2,4.63,4.63,0,0,1-1.3,3.2l-8.6,8.6A4.63,4.63,0,0,1,90.7,205.6Zm0-25.8a2.57,2.57,0,0,0-1.8.7l-9.3,9.3a3.5,3.5,0,0,0,0,5l8.6,8.6a3.69,3.69,0,0,0,5,0l8.6-8.6a3.47,3.47,0,0,0,1-2.5,4,4,0,0,0-1-2.5l-9.3-9.3A2.87,2.87,0,0,0,90.7,179.8Z" transform="translate(-36.55 -17.23)" style="fill:url(#radial-gradient)"/></g><g style="opacity:0.699999988079071"><path d="M49.7,205.6a4.63,4.63,0,0,1-3.2-1.3l-8.6-8.6a4.47,4.47,0,0,1,0-6.4l9.3-9.3a3.5,3.5,0,0,1,5,0l9.3,9.3a4.47,4.47,0,0,1,0,6.4l-8.6,8.6A4.63,4.63,0,0,1,49.7,205.6Zm0-25.8a2.57,2.57,0,0,0-1.8.7l-9.3,9.3a3.5,3.5,0,0,0,0,5l8.6,8.6a3.69,3.69,0,0,0,5,0l8.6-8.6a3.5,3.5,0,0,0,0-5l-9.3-9.3A2.87,2.87,0,0,0,49.7,179.8Z" transform="translate(-36.55 -17.23)" style="fill:url(#radial-gradient)"/></g><g style="opacity:0.699999988079071"><path d="M131.2,205.6a4.63,4.63,0,0,1-3.2-1.3l-8.6-8.6a4.47,4.47,0,0,1,0-6.4l9.3-9.3a3.5,3.5,0,0,1,5,0l9.3,9.3a4.38,4.38,0,0,1,1.3,3.2,4.63,4.63,0,0,1-1.3,3.2l-8.6,8.6A4.45,4.45,0,0,1,131.2,205.6Zm0-25.8a2.57,2.57,0,0,0-1.8.7l-9.3,9.3a3.5,3.5,0,0,0,0,5l8.6,8.6a3.69,3.69,0,0,0,5,0l8.6-8.6a3.47,3.47,0,0,0,1-2.5,4,4,0,0,0-1-2.5l-9.3-9.3A2.87,2.87,0,0,0,131.2,179.8Z" transform="translate(-36.55 -17.23)" style="fill:url(#radial-gradient)"/></g><g style="opacity:0.699999988079071"><path d="M212.3,205.6a4.63,4.63,0,0,1-3.2-1.3l-8.6-8.6a4.47,4.47,0,0,1,0-6.4l9.3-9.3a3.69,3.69,0,0,1,5,0l9.3,9.3a4.47,4.47,0,0,1,0,6.4l-8.6,8.6A4.82,4.82,0,0,1,212.3,205.6Zm0-25.8a2.87,2.87,0,0,0-1.8.7l-9.3,9.3a3.5,3.5,0,0,0,0,5l8.6,8.6a3.69,3.69,0,0,0,5,0l8.6-8.6a3.5,3.5,0,0,0,0-5l-9.3-9.3A3.12,3.12,0,0,0,212.3,179.8Z" transform="translate(-36.55 -17.23)" style="fill:url(#radial-gradient)"/></g><g style="opacity:0.699999988079071"><path d="M293.3,205.6a4.63,4.63,0,0,1-3.2-1.3l-8.6-8.6a4.38,4.38,0,0,1-1.3-3.2,4.63,4.63,0,0,1,1.3-3.2l9.3-9.3a3.69,3.69,0,0,1,5,0l9.3,9.3a4.38,4.38,0,0,1,1.3,3.2,4.63,4.63,0,0,1-1.3,3.2l-8.6,8.6A4.82,4.82,0,0,1,293.3,205.6Zm0-25.8a2.87,2.87,0,0,0-1.8.7l-9.3,9.3a3.47,3.47,0,0,0-1,2.5,4,4,0,0,0,1,2.5l8.6,8.6a3.69,3.69,0,0,0,5,0l8.6-8.6a3.47,3.47,0,0,0,1-2.5,4,4,0,0,0-1-2.5l-9.3-9.3A3.12,3.12,0,0,0,293.3,179.8Z" transform="translate(-36.55 -17.23)" style="fill:url(#radial-gradient)"/></g><g style="opacity:0.699999988079071"><path d="M374.3,205.6a4.63,4.63,0,0,1-3.2-1.3l-8.6-8.6a4.47,4.47,0,0,1,0-6.4l9.3-9.3a3.69,3.69,0,0,1,5,0l9.3,9.3a4.38,4.38,0,0,1,1.3,3.2,4.63,4.63,0,0,1-1.3,3.2l-8.6,8.6A4.82,4.82,0,0,1,374.3,205.6Zm0-25.8a2.87,2.87,0,0,0-1.8.7l-9.3,9.3a3.5,3.5,0,0,0,0,5l8.6,8.6a3.69,3.69,0,0,0,5,0l8.6-8.6a3.47,3.47,0,0,0,1-2.5,4,4,0,0,0-1-2.5l-9.3-9.3A2.87,2.87,0,0,0,374.3,179.8Z" transform="translate(-36.55 -17.23)" style="fill:url(#radial-gradient)"/></g><g style="opacity:0.699999988079071"><path d="M414.8,205.6a4.63,4.63,0,0,1-3.2-1.3l-8.6-8.6a4.47,4.47,0,0,1,0-6.4l9.3-9.3a3.5,3.5,0,0,1,5,0l9.3,9.3a4.47,4.47,0,0,1,0,6.4l-8.6,8.6A4.63,4.63,0,0,1,414.8,205.6Zm0-25.8a2.57,2.57,0,0,0-1.8.7l-9.3,9.3a3.5,3.5,0,0,0,0,5l8.6,8.6a3.69,3.69,0,0,0,5,0l8.6-8.6a3.5,3.5,0,0,0,0-5l-9.3-9.3A3.12,3.12,0,0,0,414.8,179.8Z" transform="translate(-36.55 -17.23)" style="fill:url(#radial-gradient)"/></g><g style="opacity:0.699999988079071"><path d="M455.1,205.6a4.63,4.63,0,0,1-3.2-1.3l-8.6-8.6a4.47,4.47,0,0,1,0-6.4l9.3-9.3a3.5,3.5,0,0,1,5,0l9.3,9.3a4.47,4.47,0,0,1,0,6.4l-8.6,8.6A4.63,4.63,0,0,1,455.1,205.6Zm0-25.8a2.57,2.57,0,0,0-1.8.7l-9.3,9.3a3.5,3.5,0,0,0,0,5l8.6,8.6a3.69,3.69,0,0,0,5,0l8.6-8.6a3.5,3.5,0,0,0,0-5l-9.3-9.3A3.12,3.12,0,0,0,455.1,179.8Z" transform="translate(-36.55 -17.23)" style="fill:url(#radial-gradient)"/></g><g style="opacity:0.699999988079071"><path d="M131.2,164.6a4.38,4.38,0,0,1-3.2-1.3l-8.6-8.6a4.47,4.47,0,0,1,0-6.4l9.3-9.3a3.5,3.5,0,0,1,5,0l9.3,9.3a4.47,4.47,0,0,1,0,6.4l-8.6,8.6A4.22,4.22,0,0,1,131.2,164.6Zm0-25.7a2.57,2.57,0,0,0-1.8.7l-9.3,9.3a3.5,3.5,0,0,0,0,5l8.6,8.6a3.5,3.5,0,0,0,5,0l8.6-8.6a3.5,3.5,0,0,0,0-5l-9.3-9.3A2.87,2.87,0,0,0,131.2,138.9Z" transform="translate(-36.55 -17.23)" style="fill:url(#radial-gradient)"/></g><g style="opacity:0.699999988079071"><path d="M171.7,164.6a4.38,4.38,0,0,1-3.2-1.3l-8.6-8.6a4.47,4.47,0,0,1,0-6.4l9.3-9.3a3.5,3.5,0,0,1,5,0l9.3,9.3a4.47,4.47,0,0,1,0,6.4l-8.6,8.6A4.22,4.22,0,0,1,171.7,164.6Zm0-25.7a2.57,2.57,0,0,0-1.8.7l-9.3,9.3a3.5,3.5,0,0,0,0,5l8.6,8.6a3.5,3.5,0,0,0,5,0l8.6-8.6a3.5,3.5,0,0,0,0-5l-9.3-9.3A2.87,2.87,0,0,0,171.7,138.9Z" transform="translate(-36.55 -17.23)" style="fill:url(#radial-gradient)"/></g><g style="opacity:0.699999988079071"><path d="M212.3,164.6a4.38,4.38,0,0,1-3.2-1.3l-8.6-8.6a4.47,4.47,0,0,1,0-6.4l9.3-9.3a3.5,3.5,0,0,1,5,0l9.3,9.3a4.47,4.47,0,0,1,0,6.4l-8.6,8.6A4.54,4.54,0,0,1,212.3,164.6Zm0-25.7a2.87,2.87,0,0,0-1.8.7l-9.3,9.3a3.5,3.5,0,0,0,0,5l8.6,8.6a3.5,3.5,0,0,0,5,0l8.6-8.6a3.5,3.5,0,0,0,0-5l-9.3-9.3A3.12,3.12,0,0,0,212.3,138.9Z" transform="translate(-36.55 -17.23)" style="fill:url(#radial-gradient)"/></g><g style="opacity:0.699999988079071"><path d="M252.8,164.6a4.38,4.38,0,0,1-3.2-1.3l-8.6-8.6a4.47,4.47,0,0,1,0-6.4l9.3-9.3a3.5,3.5,0,0,1,5,0l9.3,9.3a4.47,4.47,0,0,1,0,6.4l-8.6,8.6A4.54,4.54,0,0,1,252.8,164.6Zm0-25.7a2.57,2.57,0,0,0-1.8.7l-9.3,9.3a3.5,3.5,0,0,0,0,5l8.6,8.6a3.5,3.5,0,0,0,5,0l8.6-8.6a3.5,3.5,0,0,0,0-5l-9.3-9.3A3.12,3.12,0,0,0,252.8,138.9Z" transform="translate(-36.55 -17.23)" style="fill:url(#radial-gradient)"/></g><g style="opacity:0.699999988079071"><path d="M293.3,164.6a4.63,4.63,0,0,1-3.2-1.3l-8.6-8.6a4.38,4.38,0,0,1-1.3-3.2,4.63,4.63,0,0,1,1.3-3.2l9.3-9.3a3.69,3.69,0,0,1,5,0l9.3,9.3a4.38,4.38,0,0,1,1.3,3.2,4.63,4.63,0,0,1-1.3,3.2l-8.6,8.6A4.38,4.38,0,0,1,293.3,164.6Zm0-25.7a2.87,2.87,0,0,0-1.8.7l-9.3,9.3a3.47,3.47,0,0,0-1,2.5,4,4,0,0,0,1,2.5l8.6,8.6a3.5,3.5,0,0,0,5,0l8.6-8.6a3.47,3.47,0,0,0,1-2.5,4,4,0,0,0-1-2.5l-9.3-9.3A3.12,3.12,0,0,0,293.3,138.9Z" transform="translate(-36.55 -17.23)" style="fill:url(#radial-gradient)"/></g><g style="opacity:0.699999988079071"><path d="M333.8,164.6a4.38,4.38,0,0,1-3.2-1.3l-8.6-8.6a4.47,4.47,0,0,1,0-6.4l9.3-9.3a3.5,3.5,0,0,1,5,0l9.3,9.3a4.47,4.47,0,0,1,0,6.4l-8.6,8.6A4.54,4.54,0,0,1,333.8,164.6Zm0-25.7a2.57,2.57,0,0,0-1.8.7l-9.3,9.3a3.5,3.5,0,0,0,0,5l8.6,8.6a3.5,3.5,0,0,0,5,0l8.6-8.6a3.5,3.5,0,0,0,0-5l-9.3-9.3A3.12,3.12,0,0,0,333.8,138.9Z" transform="translate(-36.55 -17.23)" style="fill:url(#radial-gradient)"/></g><g style="opacity:0.699999988079071"><path d="M414.8,164.6a4.38,4.38,0,0,1-3.2-1.3l-8.6-8.6a4.47,4.47,0,0,1,0-6.4l9.3-9.3a3.5,3.5,0,0,1,5,0l9.3,9.3a4.47,4.47,0,0,1,0,6.4l-8.6,8.6A4.38,4.38,0,0,1,414.8,164.6Zm0-25.7a2.57,2.57,0,0,0-1.8.7l-9.3,9.3a3.5,3.5,0,0,0,0,5l8.6,8.6a3.5,3.5,0,0,0,5,0l8.6-8.6a3.5,3.5,0,0,0,0-5l-9.3-9.3A3.12,3.12,0,0,0,414.8,138.9Z" transform="translate(-36.55 -17.23)" style="fill:url(#radial-gradient)"/></g><g style="opacity:0.699999988079071"><path d="M90.7,123.7a4.63,4.63,0,0,1-3.2-1.3l-8.6-8.6a4.47,4.47,0,0,1,0-6.4l9.3-9.3a3.69,3.69,0,0,1,5,0l9.3,9.3a4.38,4.38,0,0,1,1.3,3.2,4.63,4.63,0,0,1-1.3,3.2l-8.6,8.6A4.22,4.22,0,0,1,90.7,123.7Zm0-25.7a2.87,2.87,0,0,0-1.8.7L79.6,108a3.5,3.5,0,0,0,0,5l8.6,8.6a3.69,3.69,0,0,0,5,0l8.6-8.6a3.47,3.47,0,0,0,1-2.5,4,4,0,0,0-1-2.5l-9.3-9.3A2.87,2.87,0,0,0,90.7,98Z" transform="translate(-36.55 -17.23)" style="fill:url(#radial-gradient)"/></g><g style="opacity:0.699999988079071"><path d="M171.7,123.7a4.63,4.63,0,0,1-3.2-1.3l-8.6-8.6a4.47,4.47,0,0,1,0-6.4l9.3-9.3a3.69,3.69,0,0,1,5,0l9.3,9.3a4.47,4.47,0,0,1,0,6.4l-8.6,8.6A4.08,4.08,0,0,1,171.7,123.7Zm0-25.7a2.87,2.87,0,0,0-1.8.7l-9.3,9.3a3.5,3.5,0,0,0,0,5l8.6,8.6a3.69,3.69,0,0,0,5,0l8.6-8.6a3.5,3.5,0,0,0,0-5l-9.3-9.3A2.67,2.67,0,0,0,171.7,98Z" transform="translate(-36.55 -17.23)" style="fill:url(#radial-gradient)"/></g><g style="opacity:0.699999988079071"><path d="M252.8,123.7a4.63,4.63,0,0,1-3.2-1.3l-8.6-8.6a4.47,4.47,0,0,1,0-6.4l9.3-9.3a3.69,3.69,0,0,1,5,0l9.3,9.3a4.47,4.47,0,0,1,0,6.4l-8.6,8.6A4.38,4.38,0,0,1,252.8,123.7Zm0-25.7a2.87,2.87,0,0,0-1.8.7l-9.3,9.3a3.5,3.5,0,0,0,0,5l8.6,8.6a3.69,3.69,0,0,0,5,0l8.6-8.6a3.5,3.5,0,0,0,0-5l-9.3-9.3A3.12,3.12,0,0,0,252.8,98Z" transform="translate(-36.55 -17.23)" style="fill:url(#radial-gradient)"/></g><g style="opacity:0.699999988079071"><path d="M252.8,84.4a4.38,4.38,0,0,1-3.2-1.3L241,74.5a4.47,4.47,0,0,1,0-6.4l9.3-9.3a3.5,3.5,0,0,1,5,0l9.3,9.3a4.47,4.47,0,0,1,0,6.4L256,83.1A4.54,4.54,0,0,1,252.8,84.4Zm0-25.7a2.57,2.57,0,0,0-1.8.7l-9.3,9.3a3.5,3.5,0,0,0,0,5l8.6,8.6a3.5,3.5,0,0,0,5,0l8.6-8.6a3.5,3.5,0,0,0,0-5l-9.3-9.3A3.12,3.12,0,0,0,252.8,58.7Z" transform="translate(-36.55 -17.23)" style="fill:url(#radial-gradient)"/></g><g style="opacity:0.699999988079071"><path d="M293.3,123.7a4.63,4.63,0,0,1-3.2-1.3l-8.6-8.6a4.38,4.38,0,0,1-1.3-3.2,4.63,4.63,0,0,1,1.3-3.2l9.3-9.3a3.69,3.69,0,0,1,5,0l9.3,9.3a4.38,4.38,0,0,1,1.3,3.2,4.63,4.63,0,0,1-1.3,3.2l-8.6,8.6A4.38,4.38,0,0,1,293.3,123.7Zm0-25.7a2.87,2.87,0,0,0-1.8.7l-9.3,9.3a3.47,3.47,0,0,0-1,2.5,4,4,0,0,0,1,2.5l8.6,8.6a3.69,3.69,0,0,0,5,0l8.6-8.6a3.47,3.47,0,0,0,1-2.5,4,4,0,0,0-1-2.5l-9.3-9.3A3.12,3.12,0,0,0,293.3,98Z" transform="translate(-36.55 -17.23)" style="fill:url(#radial-gradient)"/></g><g style="opacity:0.699999988079071"><path d="M374.3,123.7a4.63,4.63,0,0,1-3.2-1.3l-8.6-8.6a4.47,4.47,0,0,1,0-6.4l9.3-9.3a3.69,3.69,0,0,1,5,0l9.3,9.3a4.38,4.38,0,0,1,1.3,3.2,4.63,4.63,0,0,1-1.3,3.2l-8.6,8.6A4.38,4.38,0,0,1,374.3,123.7Zm0-25.7a2.87,2.87,0,0,0-1.8.7l-9.3,9.3a3.5,3.5,0,0,0,0,5l8.6,8.6a3.69,3.69,0,0,0,5,0l8.6-8.6a3.47,3.47,0,0,0,1-2.5,4,4,0,0,0-1-2.5l-9.3-9.3A2.87,2.87,0,0,0,374.3,98Z" transform="translate(-36.55 -17.23)" style="fill:url(#radial-gradient)"/></g><g style="opacity:0.699999988079071"><path d="M374.3,43.8a4.63,4.63,0,0,1-3.2-1.3l-8.6-8.6a4.47,4.47,0,0,1,0-6.4l9.3-9.3a3.69,3.69,0,0,1,5,0l9.3,9.3a4.38,4.38,0,0,1,1.3,3.2,4.63,4.63,0,0,1-1.3,3.2l-8.6,8.6A4.38,4.38,0,0,1,374.3,43.8Zm0-25.7a2.87,2.87,0,0,0-1.8.7l-9.3,9.3a3.5,3.5,0,0,0,0,5l8.6,8.6a3.69,3.69,0,0,0,5,0l8.6-8.6a3.47,3.47,0,0,0,1-2.5,4,4,0,0,0-1-2.5l-9.3-9.3A2.87,2.87,0,0,0,374.3,18.1Z" transform="translate(-36.55 -17.23)" style="fill:url(#radial-gradient)"/></g><g style="opacity:0.699999988079071"><path d="M414.8,123.7a4.63,4.63,0,0,1-3.2-1.3l-8.6-8.6a4.47,4.47,0,0,1,0-6.4l9.3-9.3a3.5,3.5,0,0,1,5,0l9.3,9.3a4.47,4.47,0,0,1,0,6.4l-8.6,8.6A4.22,4.22,0,0,1,414.8,123.7Zm0-25.7a2.87,2.87,0,0,0-1.8.7l-9.3,9.3a3.5,3.5,0,0,0,0,5l8.6,8.6a3.69,3.69,0,0,0,5,0l8.6-8.6a3.5,3.5,0,0,0,0-5l-9.3-9.3A2.87,2.87,0,0,0,414.8,98Z" transform="translate(-36.55 -17.23)" style="fill:url(#radial-gradient)"/></g></svg>