<?xml version="1.0" encoding="utf-8"?>
<!-- Generator: Adobe Illustrator 23.0.1, SVG Export Plug-In . SVG Version: 6.00 Build 0)  -->
<svg version="1.1" id="Layer_1" xmlns="http://www.w3.org/2000/svg" xmlns:xlink="http://www.w3.org/1999/xlink" x="0px" y="0px"
	 viewBox="0 0 356.6 356.6" style="enable-background:new 0 0 356.6 356.6;" xml:space="preserve">
<style type="text/css">
	.st0{fill:none;stroke:#F2F2F2;stroke-width:2;stroke-miterlimit:10;}
</style>
<path class="st0" d="M130.4,341.8H77.7c-0.9,0-1.7-0.7-1.7-1.7v-52.7c0-0.9,0.7-1.7,1.7-1.7h52.7c0.9,0,1.7,0.7,1.7,1.7v52.7
	C132,341.1,131.3,341.8,130.4,341.8z"/>
<path class="st0" d="M307.5,284.5H228c-0.9,0-1.7-0.7-1.7-1.7v-79.5c0-0.9,0.7-1.7,1.7-1.7h79.5c0.9,0,1.7,0.7,1.7,1.7v79.5
	C309.2,283.7,308.4,284.5,307.5,284.5z"/>
<path class="st0" d="M250.2,313.8H110.8c-0.9,0-1.7-0.7-1.7-1.7V172.7c0-0.9,0.7-1.7,1.7-1.7h139.4c0.9,0,1.7,0.7,1.7,1.7v139.4
	C251.8,313,251.1,313.8,250.2,313.8z"/>
<path class="st0" d="M305,157H165.6c-0.9,0-1.7-0.7-1.7-1.7V16c0-0.9,0.7-1.7,1.7-1.7H305c0.9,0,1.7,0.7,1.7,1.7v139.4
	C306.6,156.3,305.9,157,305,157z"/>
<path class="st0" d="M145.7,214.4H49.6c-0.9,0-1.7-0.7-1.7-1.7v-96.1c0-0.9,0.7-1.7,1.7-1.7h96.1c0.9,0,1.7,0.7,1.7,1.7v96.1
	C147.3,213.6,146.6,214.4,145.7,214.4z"/>
</svg>
