<svg id="Layer_1" data-name="Layer 1" xmlns="http://www.w3.org/2000/svg" xmlns:xlink="http://www.w3.org/1999/xlink" width="512" height="512" viewBox="0 0 512 512"><defs><linearGradient id="linear-gradient" x1="114.97" y1="511.19" x2="117.97" y2="3.19" gradientTransform="matrix(1, 0, 0, -1, 0, 513)" gradientUnits="userSpaceOnUse"><stop offset="0" stop-color="#ff512f"/><stop offset="1" stop-color="#f09819"/></linearGradient><linearGradient id="linear-gradient-2" x1="254.38" y1="512.01" x2="257.38" y2="4.01" xlink:href="#linear-gradient"/><linearGradient id="linear-gradient-3" x1="274.97" y1="512.14" x2="277.97" y2="4.14" xlink:href="#linear-gradient"/><linearGradient id="linear-gradient-4" x1="254.02" y1="512.01" x2="257.02" y2="4.01" xlink:href="#linear-gradient"/></defs><title>pending-leaves</title><circle cx="116" cy="176" r="10" style="fill:url(#linear-gradient)"/><path d="M30,512H482a30.09,30.09,0,0,0,30-30V70a30.09,30.09,0,0,0-30-30H466V30a30,30,0,0,0-60,0V40H346V30a30,30,0,0,0-60,0V40H226V30a30,30,0,0,0-60,0V40H106V30a30,30,0,0,0-60,0V40H30A30.09,30.09,0,0,0,0,70V482A30.09,30.09,0,0,0,30,512Zm452-20H30a10,10,0,0,1-10-10V146H492V482A10,10,0,0,1,482,492ZM426,30a10,10,0,0,1,20,0V40H426ZM306,30a10,10,0,0,1,20,0V40H306ZM186,30a10,10,0,0,1,20,0V40H186ZM66,30a10,10,0,0,1,20,0V40H66ZM30,60H46V73a30.09,30.09,0,0,0,30,30,10,10,0,0,0,0-20A10,10,0,0,1,66,73V60H166V73a30.09,30.09,0,0,0,30,30,10,10,0,0,0,0-20,10,10,0,0,1-10-10V60H286V73a30.09,30.09,0,0,0,30,30,10,10,0,0,0,0-20,10,10,0,0,1-10-10V60H406V73a30.09,30.09,0,0,0,30,30,10,10,0,0,0,0-20,10,10,0,0,1-10-10V60h56a10,10,0,0,1,10,10v56H20V70A10,10,0,0,1,30,60Z" style="fill:url(#linear-gradient-2)"/><path d="M396,166H156a10,10,0,0,0,0,20H396a10,10,0,0,0,0-20Z" style="fill:url(#linear-gradient-3)"/><path d="M325.7,246H336a10,10,0,0,0,0-20H176a10,10,0,0,0,0,20h10.3c4.4,68.7,55.4,80.6,59.7,90-4.3,9.4-55.3,21.3-59.7,90H176a10,10,0,0,0,0,20H336a10,10,0,0,0,0-20H325.7c-4.4-68.7-55.4-80.6-59.7-90C270.3,326.6,321.3,314.7,325.7,246ZM305.6,426H206.3c3.7-49.3,34.2-59.1,49.6-71.8C271.3,366.9,302,376.7,305.6,426ZM256,317.8c-15.3-12.7-46-22.5-49.6-71.8h99.3C302,295.3,271.4,305.1,256,317.8Z" style="fill:url(#linear-gradient-4)"/></svg>