<svg id="Layer_1" data-name="Layer 1" xmlns="http://www.w3.org/2000/svg" xmlns:xlink="http://www.w3.org/1999/xlink" width="512" height="492.9" viewBox="0 0 512 492.9"><defs><linearGradient id="linear-gradient" x1="255.16" y1="510.96" x2="257.16" y2="-2.04" gradientTransform="matrix(1, 0, 0, -1, 0, 513)" gradientUnits="userSpaceOnUse"><stop offset="0" stop-color="#ff512f"/><stop offset="1" stop-color="#f09819"/></linearGradient><linearGradient id="linear-gradient-2" x1="151.9" y1="512" x2="151.9" y2="2" xlink:href="#linear-gradient"/><linearGradient id="linear-gradient-3" x1="100.95" y1="512" x2="100.95" y2="2" xlink:href="#linear-gradient"/><linearGradient id="linear-gradient-4" x1="152" y1="512" x2="152" y2="2" xlink:href="#linear-gradient"/><linearGradient id="linear-gradient-5" x1="119.5" y1="512" x2="119.5" y2="2" xlink:href="#linear-gradient"/></defs><title>personal-details</title><path d="M512,353.6V79.3a10,10,0,0,0-10-10H161.6V19a10,10,0,0,0-10-10H10A10,10,0,0,0,0,19V353.6a10,10,0,0,0,10,10H276.6a108,108,0,0,0-19.9,62.3v66a10,10,0,0,0,10,10H501.3a10,10,0,0,0,10-10v-66a107.72,107.72,0,0,0-19.9-62.3H502A10,10,0,0,0,512,353.6ZM20.1,29.1H141.6V69.2H20.1ZM491.3,481.9H444V461.1a10,10,0,0,0-20,0v20.8H344.2v-62a10,10,0,0,0-20,0v62H276.9v-56a87.72,87.72,0,0,1,58.8-82.8l11.3-3.9,9.6,24.3c.1.1.1.3.2.4a28.94,28.94,0,0,0,52.1,1.3c.1-.1.1-.3.2-.4L420.8,339l11.8,4.1a87.82,87.82,0,0,1,58.8,82.8v56ZM387.1,320.3H379a43.85,43.85,0,0,1-43.8-43.8V244.3c7.8,2.5,14.7,3.8,21.1,3.8a45.64,45.64,0,0,0,18-3.7c23-10.1,35.9-8.4,50.3-5.1a17.45,17.45,0,0,0,5.6.3,2.49,2.49,0,0,0,.8-.1v37A43.87,43.87,0,0,1,387.1,320.3Zm36.5-112.5a41.79,41.79,0,0,1,5.5,11.7h-.5c-20-4.4-36.7-4.8-62.4,6.4-4.8,2.1-11.6,3.6-25.2-.9a20,20,0,0,0-5.1-1,43.63,43.63,0,0,1,6.4-15.9,46.15,46.15,0,0,1,38.4-19.9h4.7C401.2,188.3,415.4,195.9,423.6,207.8ZM379,340.4h8.1a71.07,71.07,0,0,0,11.4-1l-7.7,16.9a8.61,8.61,0,0,1-8,4.6,8.79,8.79,0,0,1-7.8-5l-6.4-16.3A71.74,71.74,0,0,0,379,340.4Zm112.9,3.1H473a107.12,107.12,0,0,0-33.9-19.3l-7-2.4A64,64,0,0,0,451,276.5V232.1a65.89,65.89,0,0,0-.9-10.9c-.1-.9-.2-1.8-.4-2.8a61.35,61.35,0,0,0-9.1-21.3,63.85,63.85,0,0,0-53.5-28.9H379a64,64,0,0,0-53.9,29.6,61,61,0,0,0-10,33.4v45.3a63.57,63.57,0,0,0,19.4,45.8l-5.5,1.9a107.12,107.12,0,0,0-33.9,19.3H20.1V89.3H491.9Z" transform="translate(0 -9)" style="fill:url(#linear-gradient)"/><path d="M38,119.4v44.9a10,10,0,0,0,10,10H255.8a10,10,0,0,0,10-10V119.4a10,10,0,0,0-10-10H48.1A9.93,9.93,0,0,0,38,119.4Zm20.1,10H245.8v24.8H58.1Z" transform="translate(0 -9)" style="fill:url(#linear-gradient-2)"/><path d="M49.9,209.9H152a10,10,0,0,0,0-20H49.9a10,10,0,0,0,0,20Z" transform="translate(0 -9)" style="fill:url(#linear-gradient-3)"/><path d="M255.9,225.2H48.1a10,10,0,0,0-10,10v44.9a10,10,0,0,0,10,10H255.9a10,10,0,0,0,10-10V235.2A10,10,0,0,0,255.9,225.2Zm-10.1,44.9H58.1V245.3H245.8v24.8Z" transform="translate(0 -9)" style="fill:url(#linear-gradient-4)"/><path d="M189,305.7H50a10,10,0,0,0,0,20H189a10,10,0,0,0,0-20Z" transform="translate(0 -9)" style="fill:url(#linear-gradient-5)"/><path d="M200.6,210.5a10.21,10.21,0,0,0,3.8-.7,10.05,10.05,0,0,0,5.5-13.1l-.4-.9a10,10,0,0,0-18.6,7.6l.4.9A10.21,10.21,0,0,0,200.6,210.5Z" transform="translate(0 -9)" style="fill:#fff"/><path d="M441.5,415.3a10,10,0,1,0-18.6,7.6l.4.9a10.05,10.05,0,0,0,9.3,6.3,10.21,10.21,0,0,0,3.8-.7,10.05,10.05,0,0,0,5.5-13.1Z" transform="translate(0 -9)" style="fill:#fff"/></svg>