<?xml version="1.0" encoding="utf-8"?>
<!-- Generator: Adobe Illustrator 23.0.1, SVG Export Plug-In . SVG Version: 6.00 Build 0)  -->
<svg version="1.1" id="Layer_1" xmlns="http://www.w3.org/2000/svg" xmlns:xlink="http://www.w3.org/1999/xlink" x="0px" y="0px"
	 viewBox="0 0 512 512" style="enable-background:new 0 0 512 512;" xml:space="preserve">
<style type="text/css">
	.st0{fill:#F26522;}
</style>
<path class="st0" d="M360.7,156.8h-70c-10.1,0-18.3,8.2-18.3,18.3v24.3h-36.8c-10.7,0-16.4,9.8-17.3,11.4c-0.1,0.1-0.1,0.3-0.2,0.5
	l-49.5,142.9c-0.4,1.3-1.6,2.1-3,2.1h-28.7v-23.4c0-10.1-8.2-18.3-18.3-18.3h-70c-10.1,0-18.3,8.2-18.3,18.3v73.8
	c0,10.1,8.2,18.3,18.3,18.3h70c10.1,0,18.3-8.2,18.3-18.3v-21.4h40.7c6.8,0,10.7-6,11.5-7.5c0.1-0.2,0.2-0.4,0.2-0.5
	c2.2-6.6,46.4-137.4,48.3-145c1.3-5.1,3.4-7.7,4.7-8.9c0.6-0.5,1.3-0.8,2.1-0.8h28v26.3c0,10.1,8.2,18.3,18.3,18.3h70
	c10.1,0,18.3-8.2,18.3-18.3V175C379,164.9,370.8,156.8,360.7,156.8z M109.8,395.9H57.5v-52.3h52.3V395.9z"/>
<path class="st0" d="M434.8,87.1H77.2c-26.8,0-48.7,21.9-48.7,48.7v133.3h18.1V141.2c0-19.1,15.6-34.8,34.8-34.8h349.4
	c19.1,0,34.8,15.6,34.8,34.8v188c0,19.1-15.6,34.8-34.8,34.8H255v15.5h179.8c26.8,0,48.7-21.9,48.7-48.7v-195
	C483.5,109,461.6,87.1,434.8,87.1z"/>
</svg>
