<svg version="1.1" id="Layer_1" xmlns="http://www.w3.org/2000/svg" xmlns:xlink="http://www.w3.org/1999/xlink" x="0px" y="0px"
	 width="100%" viewBox="0 0 520 376" xml:space="preserve">
<path opacity="0" stroke="none" 
	d="
M1.000002,305.000000 
	C1.000000,203.714905 1.000000,102.429802 1.000000,1.072352 
	C174.333328,1.072352 347.666656,1.072352 521.000000,1.072352 
	C521.000000,31.426455 521.000000,61.745373 520.704102,92.832123 
	C519.752808,92.705200 519.196716,91.712326 518.425659,90.931862 
	C513.937683,86.389191 510.010742,80.877754 504.697113,77.687737 
	C499.872467,74.791290 494.812500,73.176888 494.128510,66.657104 
	C494.051575,65.923904 493.439362,65.228615 493.016418,64.552635 
	C485.113586,51.921379 468.914642,45.496399 452.743927,53.960102 
	C438.878479,34.898876 420.740906,33.069614 405.643097,38.082943 
	C391.661774,42.725544 380.566254,56.014954 379.782532,74.476608 
	C364.325623,78.715660 354.440735,90.825394 355.615234,104.982864 
	C327.970581,83.611923 297.001801,72.929230 262.323151,73.583801 
	C253.555389,73.749290 244.809708,75.084679 236.029327,75.438889 
	C237.092987,59.744404 226.670456,47.148224 213.359741,43.862038 
	C212.022552,43.531906 210.876770,41.614975 210.046158,40.197697 
	C207.628555,36.072510 206.099167,31.216532 202.994797,27.743641 
	C193.804672,17.462532 179.442184,15.228494 165.759369,21.930075 
	C156.281143,9.269485 144.411377,2.653599 127.865829,3.781855 
	C109.221359,5.053239 91.989578,21.932526 91.862297,40.658005 
	C91.854675,41.778877 90.067368,43.541779 88.795540,43.902000 
	C69.100044,49.480358 60.593376,72.503685 71.619995,89.160606 
	C78.229088,99.144356 87.625977,103.146957 99.454941,103.075066 
	C125.604088,102.916161 151.755692,103.162041 177.677368,103.463852 
	C171.949615,108.771286 166.450790,113.857651 160.638153,119.026993 
	C159.247040,120.429482 158.169724,121.749001 156.838348,123.270584 
	C155.133057,125.324318 153.681824,127.175987 151.969910,129.249817 
	C149.991394,131.873108 148.273544,134.274231 146.268463,136.831848 
	C141.660919,144.532333 136.709122,151.790680 133.142212,159.675507 
	C123.575943,180.822144 119.752151,203.182190 121.442818,226.329483 
	C121.925446,232.937302 123.734482,239.448257 124.927399,246.416046 
	C125.635277,250.791901 126.351028,254.755341 126.733444,258.390198 
	C121.208588,259.047180 116.031677,260.123810 110.816322,260.960907 
	C109.316223,261.201630 107.209290,261.330658 106.243851,260.503418 
	C103.916283,258.509033 102.268242,255.744095 100.048546,253.597672 
	C84.340050,238.407730 58.213261,237.973053 41.408165,253.084290 
	C31.669411,261.841461 27.731794,273.180908 26.789249,285.670654 
	C16.446812,287.541260 9.307924,293.423035 3.968910,301.897736 
	C3.221352,303.084351 2.001327,303.973267 1.000002,305.000000 
z"/>
<path opacity="0" stroke="none" 
	d="
M521.000000,115.000008 
	C521.000000,202.287216 521.000000,289.574432 521.000000,376.930847 
	C347.666687,376.930847 174.333344,376.930847 1.000000,376.930847 
	C1.000000,361.587891 1.000000,346.262604 1.305084,330.166199 
	C2.070713,330.016571 2.691640,330.574341 2.967685,331.269104 
	C6.960796,341.319336 18.938984,349.984253 29.115376,349.990265 
	C71.024796,350.015045 112.936531,350.241425 154.842178,349.842896 
	C166.295425,349.733978 174.916443,343.519348 180.412247,333.107361 
	C215.154465,357.463470 253.032272,365.867523 294.438354,357.871948 
	C311.434937,354.589905 327.004089,347.618530 341.958008,339.407318 
	C346.022186,351.450714 355.247528,356.899780 367.402679,356.958160 
	C395.212494,357.091797 423.023468,357.039001 450.833618,356.948273 
	C454.062592,356.937744 457.518951,356.818268 460.473816,355.701477 
	C469.322784,352.356964 476.381531,344.468414 477.091187,335.360077 
	C478.102539,322.380219 471.013000,312.784729 461.093658,309.384735 
	C459.075043,308.692810 456.976501,306.473816 456.123993,304.449524 
	C452.717316,296.360138 447.419617,290.296143 438.532898,289.174347 
	C432.559875,288.420349 426.372681,289.362946 419.541901,289.568787 
	C414.478943,281.905640 405.386597,276.668030 396.671570,277.023834 
	C396.977570,275.150818 397.572906,273.401245 398.275269,271.695770 
	C405.623627,253.852783 409.366821,235.318192 409.040466,215.536072 
	C408.290649,210.343521 407.511627,205.606857 406.923431,200.524902 
	C407.245178,198.629730 407.796021,196.975021 407.439362,195.546921 
	C404.985687,185.720840 402.342316,175.942123 399.833527,165.763931 
	C394.294891,154.612717 388.682709,143.845749 383.533508,133.042603 
	C419.802368,133.004395 455.609253,132.845703 491.413513,133.084717 
	C504.064545,133.169174 512.683105,127.472054 518.695923,116.843338 
	C519.145447,116.048729 520.217407,115.606201 521.000000,115.000008 
z"/>
<path fill="#F2F1F1" opacity="1.000000" stroke="none" 
	d="
M180.082886,333.034180 
	C174.916443,343.519348 166.295425,349.733978 154.842178,349.842896 
	C112.936531,350.241425 71.024796,350.015045 29.115376,349.990265 
	C18.938984,349.984253 6.960796,341.319336 2.967685,331.269104 
	C2.691640,330.574341 2.070713,330.016571 1.305084,329.697571 
	C1.000000,321.979095 1.000000,313.958191 1.000002,305.468628 
	C2.001327,303.973267 3.221352,303.084351 3.968910,301.897736 
	C9.307924,293.423035 16.446812,287.541260 26.789249,285.670654 
	C27.731794,273.180908 31.669411,261.841461 41.408165,253.084290 
	C58.213261,237.973053 84.340050,238.407730 100.048546,253.597672 
	C102.268242,255.744095 103.916283,258.509033 106.243851,260.503418 
	C107.209290,261.330658 109.316223,261.201630 110.816322,260.960907 
	C116.031677,260.123810 121.208588,259.047180 126.691025,258.674927 
	C130.115128,266.800720 132.935028,274.464844 136.475052,281.780518 
	C139.625259,288.290619 143.192795,294.677948 147.303070,300.616333 
	C150.029160,304.554901 154.036316,307.606812 157.336960,311.389404 
	C161.143600,315.939911 165.083267,320.156586 169.096420,324.691162 
	C172.807571,327.684052 176.445236,330.359100 180.082886,333.034180 
M54.171021,323.678955 
	C54.033249,313.704803 53.832016,303.730957 53.782631,293.756378 
	C53.755077,288.191589 55.563118,286.250458 61.270653,286.211060 
	C78.414284,286.092743 95.559891,286.086639 112.703354,286.216553 
	C118.186111,286.258118 119.929604,288.366943 119.957603,294.048981 
	C119.995331,301.705505 119.661621,309.378754 120.070038,317.013672 
	C120.362762,322.485840 119.169167,326.426727 113.405487,327.923523 
	C113.304848,327.949646 113.348526,328.531464 113.335197,328.854767 
	C118.438210,330.788818 122.939095,328.023407 123.056938,322.388702 
	C123.279610,311.741272 123.238319,301.083557 123.052246,290.434570 
	C122.972786,285.886353 119.943268,283.039276 115.332230,283.016174 
	C96.357292,282.921112 77.378639,282.815552 58.409885,283.170197 
	C55.979145,283.215637 51.592426,285.839081 51.512691,287.437866 
	C50.887569,299.971954 50.575066,312.578094 51.316628,325.093842 
	C51.582657,329.583771 57.265411,330.919281 60.508282,328.282043 
	C58.520508,327.003082 56.532734,325.724121 54.171021,323.678955 
M71.657578,306.920593 
	C68.124413,310.451904 64.641968,314.036011 61.040092,317.495789 
	C58.672840,319.769623 58.329739,321.860199 60.826443,324.284332 
	C64.887886,328.227600 68.875107,332.248657 72.839684,336.289856 
	C75.027946,338.520416 77.086098,338.545380 79.279823,336.322479 
	C83.022430,332.530060 86.804436,328.776459 90.582680,325.019379 
	C92.977005,322.638519 92.696777,320.388855 90.391479,318.116516 
	C86.596695,314.376038 82.809563,310.626251 79.093376,306.808167 
	C76.856102,304.509521 74.632919,304.068817 71.657578,306.920593 
M89.077332,308.683105 
	C86.518242,314.176147 92.716682,314.699463 94.491745,317.725311 
	C94.658203,318.009094 98.211166,317.005920 99.411667,315.814301 
	C101.081238,314.157135 103.527809,311.201050 103.002357,309.770203 
	C100.573807,303.157043 95.437218,302.298492 90.631378,307.104309 
	C90.279549,307.456146 89.928383,307.808594 89.077332,308.683105 
M102.612473,316.127899 
	C101.090553,317.789368 99.568642,319.450836 98.116699,321.035919 
	C105.408539,330.540741 105.970093,330.582977 111.957222,324.579346 
	C114.429779,322.099976 114.703041,320.052521 111.834442,318.144867 
	C109.257935,316.431427 107.788445,310.190155 102.612473,316.127899 
M102.613380,329.856445 
	C101.208534,328.446472 99.904266,326.911133 98.361244,325.673431 
	C97.431557,324.927673 95.515030,323.919159 95.097343,324.273315 
	C92.608879,326.383423 90.082253,328.640350 88.384834,331.357880 
	C87.955452,332.045288 90.275627,334.830353 91.744415,336.214050 
	C93.155441,337.543335 96.326942,339.449463 96.618202,339.137207 
	C99.078873,336.499054 103.965721,335.449219 102.613380,329.856445 
z"/>
<path fill="#F2F2F1" opacity="1.000000" stroke="none" 
	d="
M521.000000,114.531433 
	C520.217407,115.606201 519.145447,116.048729 518.695923,116.843338 
	C512.683105,127.472054 504.064545,133.169174 491.413513,133.084717 
	C455.609253,132.845703 419.802368,133.004395 383.271240,132.847046 
	C381.705170,131.767563 380.864410,130.847473 379.969208,129.584717 
	C376.560791,125.569641 373.326294,121.778458 369.822968,118.254494 
	C365.314667,113.719574 360.590820,109.398895 355.959808,104.985947 
	C354.440735,90.825394 364.325623,78.715660 379.782532,74.476608 
	C380.566254,56.014954 391.661774,42.725544 405.643097,38.082943 
	C420.740906,33.069614 438.878479,34.898876 452.743927,53.960102 
	C468.914642,45.496399 485.113586,51.921379 493.016418,64.552635 
	C493.439362,65.228615 494.051575,65.923904 494.128510,66.657104 
	C494.812500,73.176888 499.872467,74.791290 504.697113,77.687737 
	C510.010742,80.877754 513.937683,86.389191 518.425659,90.931862 
	C519.196716,91.712326 519.752808,92.705200 520.704102,93.299973 
	C521.000000,100.020950 521.000000,107.041893 521.000000,114.531433 
M407.937683,88.531448 
	C407.938812,85.868156 408.071228,83.196922 407.910522,80.543434 
	C407.665619,76.499031 409.873901,74.419853 413.477081,74.379250 
	C428.785126,74.206772 444.097168,74.202126 459.405457,74.359879 
	C463.319000,74.400215 465.261353,76.720222 465.117493,80.924355 
	C464.901245,87.242142 464.848755,93.582382 465.131653,99.894920 
	C465.346954,104.698860 465.026611,108.825951 459.382660,110.213898 
	C459.289062,110.236916 459.332855,110.818672 459.312775,111.136131 
	C464.485046,112.667442 467.904083,110.286026 468.002441,104.734245 
	C468.155731,96.081421 468.061035,87.423859 468.037781,78.768387 
	C468.025299,74.117043 465.397552,71.382874 461.011414,71.326019 
	C444.701996,71.114601 428.387756,71.167183 412.076569,71.288811 
	C408.391113,71.316292 405.266205,73.350784 405.131165,77.167831 
	C404.790039,86.808556 404.772125,96.478722 405.128662,106.118454 
	C405.303192,110.837883 409.666046,112.866051 413.752472,110.757935 
	C407.938019,106.344963 407.937988,106.344963 407.937744,99.007530 
	C407.937622,95.844933 407.937622,92.682327 407.937683,88.531448 
M426.025970,98.464005 
	C426.025970,95.209984 426.025970,91.955963 426.025970,88.608444 
	C422.384613,88.608444 419.491608,88.608444 416.662781,88.608444 
	C413.989014,104.850029 416.286011,112.638657 424.868286,116.862640 
	C425.003326,114.735306 425.137268,112.625008 425.302368,110.023987 
	C430.149475,110.023987 434.769501,110.140450 439.376038,109.942711 
	C440.538635,109.892807 441.658173,108.838737 442.797485,108.246132 
	C441.704437,107.584091 440.637543,106.408020 439.513733,106.350845 
	C435.135345,106.128059 430.738953,106.260002 426.026001,106.260002 
	C426.026001,103.382164 426.026001,101.409081 426.025970,98.464005 
M442.505737,79.831871 
	C438.097198,79.831871 433.688629,79.831871 429.375580,79.831871 
	C429.375580,87.420410 429.375580,94.145370 429.375580,101.303894 
	C435.396271,101.303894 441.004578,101.303894 446.903015,101.303894 
	C447.125183,104.254448 447.316010,106.788521 447.601624,110.581482 
	C451.812500,106.516258 457.116364,103.748810 458.170654,99.836235 
	C459.824249,93.699646 458.609436,86.790108 458.609436,79.831612 
	C453.118927,79.831612 448.309814,79.831612 442.505737,79.831871 
z"/>
<path fill="#E4E4E4" opacity="1.000000" stroke="none" 
	d="
M355.615234,104.982864 
	C360.590820,109.398895 365.314667,113.719574 369.822968,118.254494 
	C373.326294,121.778458 376.560791,125.569641 379.546356,129.590240 
	C375.925781,130.422256 372.673615,130.906128 369.210297,131.421402 
	C369.337799,132.880005 369.456451,134.237076 369.533417,135.117416 
	C366.979675,136.561722 364.889191,137.744019 362.021667,139.365768 
	C360.988831,137.368927 359.764313,135.001541 358.921326,133.371765 
	C353.648560,134.400391 348.297852,135.641403 342.876556,136.310806 
	C341.955811,136.424500 340.673584,134.130890 339.662415,132.866241 
	C338.253540,131.104218 337.298248,128.386047 335.507385,127.660637 
	C332.756378,126.546295 329.459961,126.778458 326.097595,126.406349 
	C326.467377,130.125671 324.744751,132.034958 321.601440,134.346237 
	C318.135681,136.894638 316.531067,141.906082 313.914398,145.705978 
	C312.594666,147.622437 310.829956,149.232422 309.437164,150.790054 
	C308.145721,149.384659 306.837891,147.961395 304.534058,145.454285 
	C304.534058,150.524277 304.534058,154.052704 304.534058,157.692093 
	C302.377441,157.389709 300.281525,157.095825 298.066589,156.605865 
	C297.698090,156.462357 297.448639,156.514938 297.199158,156.567535 
	C297.372162,156.803940 297.545197,157.040329 297.882507,157.541565 
	C298.477325,158.278610 298.907806,158.750839 299.800446,159.729996 
	C297.325775,160.160278 295.191040,160.209381 293.324402,160.941742 
	C291.237091,161.760696 289.392822,163.199173 287.323730,164.439407 
	C286.934998,163.485062 286.420044,162.220764 285.905060,160.956451 
	C285.374329,161.421387 284.843628,161.886307 284.312897,162.351242 
	C284.312897,163.834473 284.312897,165.317703 284.312897,166.476624 
	C280.926392,164.585556 277.698853,162.754929 274.439728,160.982422 
	C273.578491,160.514008 272.544556,160.346222 271.717773,159.833969 
	C265.462280,155.958374 258.152008,158.900299 255.734222,165.612717 
	C254.439072,169.208328 252.187149,172.911530 249.339584,175.381897 
	C245.737930,178.506439 246.094681,182.460526 248.093903,184.565002 
	C250.548676,187.148987 250.357819,189.565613 250.698776,191.516281 
	C248.108551,193.697586 246.024384,195.452698 243.939270,196.812866 
	C242.365860,192.926743 240.879379,189.391815 239.143524,185.983887 
	C238.822235,185.353119 237.482956,184.950516 236.635437,184.984802 
	C236.110001,185.006058 235.521301,185.989868 235.146393,186.647339 
	C234.493439,187.792343 234.016388,189.036026 233.406311,190.207474 
	C232.509872,191.928848 231.561295,193.623062 230.634933,195.328842 
	C231.287750,195.769440 231.940552,196.210037 232.593369,196.650635 
	C234.197296,194.932831 235.801208,193.215027 237.729980,191.149323 
	C237.294495,193.865128 236.923447,196.179108 236.528427,198.642517 
	C237.777908,198.764587 238.894257,198.873642 240.000702,199.314301 
	C239.139252,200.288239 238.287689,200.930557 237.187592,201.760361 
	C238.237137,202.707687 239.519363,203.415344 240.122894,204.500488 
	C241.512405,206.998749 240.792435,209.280655 237.712418,208.461929 
	C231.746735,206.876099 230.428802,211.513580 232.090439,214.198944 
	C235.464127,219.651093 232.378128,223.438568 230.601288,228.015045 
	C229.218887,229.286697 228.088593,230.379684 226.695816,231.660812 
	C226.264496,232.226486 226.095673,232.604004 225.954041,232.938690 
	C225.981247,232.895859 225.909988,232.823578 225.587585,232.966629 
	C223.206863,235.566757 221.819977,237.908676 222.548111,241.609711 
	C223.071045,244.267654 221.605637,247.316818 221.029572,250.179794 
	C222.245621,251.037109 224.156265,251.898544 225.394394,253.338318 
	C231.877960,260.877930 233.847092,261.427307 243.252594,258.655457 
	C244.801147,258.199097 246.765701,259.314911 248.559052,259.497406 
	C253.214096,259.971222 254.521729,262.243317 253.131973,266.707336 
	C252.839661,267.646240 254.348434,269.221954 255.159653,270.414185 
	C257.697144,274.143463 259.254944,277.900482 256.886658,282.415649 
	C256.157623,283.805511 255.614487,285.805389 256.041962,287.203033 
	C258.207153,294.282013 260.688263,301.265900 263.166290,308.244873 
	C263.383148,308.855621 264.487915,309.685089 264.997101,309.573914 
	C269.219757,308.652161 274.235992,309.721039 277.328918,304.889984 
	C278.257690,303.611633 279.745483,302.003235 279.423492,301.451996 
	C276.103760,295.768860 281.305756,295.458740 283.773285,293.644226 
	C284.272278,292.076630 284.736603,290.617920 285.508301,288.993164 
	C292.080688,284.560150 292.328979,284.135956 290.379791,276.582245 
	C289.315826,272.459045 290.825226,269.495270 293.795105,266.895752 
	C296.019104,264.949036 298.562592,263.211884 300.274750,260.876282 
	C302.285400,258.133545 303.550537,254.844299 305.445160,251.203766 
	C301.186401,251.557846 298.289520,251.798691 295.392670,252.039551 
	C299.245270,248.927933 303.238464,247.097488 307.127747,245.067947 
	C313.827484,241.571823 314.604736,238.673859 310.075867,233.017914 
	C315.854706,234.791733 321.567932,232.886292 326.750000,238.269470 
	C329.721130,241.355942 330.137695,244.813065 332.240509,247.765717 
	C333.894043,250.087524 334.882996,252.882660 336.577179,256.292877 
	C338.048309,254.371155 339.727844,253.169724 339.624451,252.148895 
	C339.018768,246.169144 343.515442,243.518219 346.835541,239.970505 
	C349.765961,236.839188 352.241089,236.912827 354.875458,240.570587 
	C355.654297,242.564957 356.336029,244.232452 357.019348,246.279541 
	C358.647217,248.095352 360.273529,249.531555 361.964905,251.281921 
	C362.333282,252.384537 362.636597,253.172974 362.659424,254.127930 
	C363.188202,256.366455 363.997467,258.438477 364.995636,260.994049 
	C362.648071,260.110016 361.064789,259.513824 358.671722,258.612671 
	C361.128479,263.989441 367.134308,266.629822 364.630005,272.773438 
	C366.516693,272.885803 368.649170,273.012787 370.885742,273.501587 
	C375.796478,278.165680 381.759216,276.272552 387.075989,277.841064 
	C387.175964,277.362030 387.275909,276.883026 387.375854,276.404022 
	C382.257660,275.267883 377.139435,274.131744 371.987396,272.586426 
	C371.079407,270.155823 369.188232,267.946991 369.519775,266.147766 
	C370.557373,260.516846 366.680969,257.631653 363.873688,253.672928 
	C363.544250,249.888855 365.087128,249.638718 367.764984,251.388916 
	C368.780914,252.739777 369.656708,253.789459 370.429260,254.715378 
	C376.439728,250.576828 376.767578,248.285156 372.547363,243.906769 
	C371.980896,243.319092 371.463593,242.683990 370.870789,241.746155 
	C370.733826,241.218948 370.649597,241.016464 370.707458,240.513000 
	C371.726746,239.462082 372.603973,238.712112 373.939819,237.570084 
	C374.225372,239.619324 374.381866,240.742355 374.440063,241.159943 
	C376.830231,239.465881 379.193634,237.950623 381.366058,236.198608 
	C382.995636,234.884415 384.713806,233.477112 385.810974,231.743271 
	C389.289948,226.245712 387.405121,221.406204 383.132019,217.109695 
	C384.146271,215.765976 384.980133,214.661255 385.920044,213.416031 
	C383.829315,213.013641 382.133698,212.687286 379.883575,212.254211 
	C381.194031,210.602783 382.078613,209.488037 382.712311,208.689468 
	C384.772797,209.714218 386.868378,210.245300 388.206360,211.552109 
	C389.852814,213.160233 390.867554,215.415146 392.184479,217.435211 
	C395.637848,215.904205 395.749481,215.499252 393.486389,211.960434 
	C391.254974,208.471176 392.264435,204.975021 395.820892,202.862991 
	C396.982635,202.173080 398.127655,200.907425 398.566925,199.654892 
	C399.714081,196.384018 400.466797,192.974808 401.443329,189.375717 
	C402.089417,190.427567 402.722046,191.457520 403.552307,192.809189 
	C404.448608,187.060104 404.448608,187.060104 400.986572,184.982208 
	C400.997284,184.994904 401.023743,185.013885 401.200317,184.618286 
	C401.549774,179.743271 398.262115,180.230972 395.345886,179.716614 
	C393.835907,179.450287 391.346283,178.066742 391.321442,177.134094 
	C391.160248,171.081345 394.122467,167.536011 399.760010,166.148163 
	C402.342316,175.942123 404.985687,185.720840 407.439362,195.546921 
	C407.796021,196.975021 407.245178,198.629730 406.561646,200.576492 
	C405.479828,202.150024 404.242157,203.557327 404.537811,204.465408 
	C406.302704,209.886307 404.159851,213.106598 399.439178,215.586029 
	C395.928253,217.430038 395.691711,219.844818 397.234528,221.570740 
	C401.396271,219.599274 405.203735,217.795624 409.011230,215.991974 
	C409.366821,235.318192 405.623627,253.852783 398.275269,271.695770 
	C397.572906,273.401245 396.977570,275.150818 396.600830,277.351501 
	C394.289429,282.205902 391.709778,286.588715 388.735474,290.996399 
	C377.973175,293.749725 377.322601,294.710815 378.834564,305.069733 
	C378.882324,305.396729 378.942383,305.721954 378.991699,306.019165 
	C378.986755,305.990356 379.045013,305.984680 378.675110,305.984863 
	C378.190735,306.438965 378.076294,306.892853 377.904907,307.664307 
	C375.500702,310.887970 373.407593,314.056030 370.745911,316.637970 
	C366.871857,320.396057 362.729095,323.915558 358.443695,327.201416 
	C353.069763,331.321930 347.435638,335.103088 341.913788,339.030731 
	C327.004089,347.618530 311.434937,354.589905 294.438354,357.871948 
	C253.032272,365.867523 215.154465,357.463470 180.412247,333.107361 
	C176.445236,330.359100 172.807571,327.684052 169.248871,324.321320 
	C170.376678,320.495789 170.648438,316.848083 175.127579,316.218262 
	C175.777039,316.126923 176.150421,314.154327 176.675140,313.063660 
	C177.007904,312.371979 177.303757,311.641846 177.754501,311.031067 
	C180.203796,307.712097 182.682434,304.414459 185.178650,301.130524 
	C186.750519,299.062622 187.998383,295.886078 190.046249,295.220154 
	C194.439682,293.791565 195.156448,290.647461 196.129684,287.034607 
	C196.953903,283.974884 198.042572,280.871246 199.655350,278.169769 
	C201.467056,275.135162 201.658447,272.928467 198.250809,271.265533 
	C196.364990,270.345215 194.416809,269.524200 192.435715,268.833466 
	C188.014893,267.292145 183.152679,266.713715 181.046066,261.333923 
	C180.471664,259.866974 178.131088,259.008484 176.488983,258.066071 
	C174.823624,257.110291 172.617462,256.786438 171.362045,255.492935 
	C168.921570,252.978333 166.446274,251.475662 162.809418,252.094009 
	C161.793213,252.266785 160.608490,251.199829 159.518021,251.234528 
	C157.037537,251.313461 154.530151,251.544418 152.104706,252.052551 
	C150.018585,252.489594 148.030869,253.396332 145.595093,254.079010 
	C144.126465,254.034851 143.062347,254.007065 141.996765,253.990417 
	C141.995300,254.001556 142.017029,254.000320 142.124588,253.609619 
	C142.179642,249.305313 143.448898,244.618561 136.754868,244.832687 
	C137.451218,242.397217 138.009491,240.444611 138.567780,238.492004 
	C138.262985,238.208328 137.958206,237.924652 137.653427,237.640991 
	C136.340469,238.542923 135.139771,239.833542 133.687469,240.253021 
	C131.658569,240.839066 129.441879,240.774887 127.305550,240.988922 
	C127.203369,237.511215 126.556831,233.915848 127.270416,230.614487 
	C127.550743,229.317612 130.787079,228.337677 132.831009,227.816864 
	C136.188797,226.961243 139.671951,226.597656 143.297150,226.017975 
	C143.492065,226.009354 143.880020,225.963974 144.182953,226.096161 
	C146.192429,227.454559 148.074142,229.902969 149.574112,229.687988 
	C155.038544,228.904785 156.719040,224.381714 153.868240,219.337128 
	C153.878342,218.683258 153.873123,218.309692 153.943695,217.590149 
	C157.973389,208.323441 166.868301,206.482193 175.530197,203.630859 
	C172.884308,202.434814 171.263855,201.702316 168.375198,200.396530 
	C171.981445,198.638748 174.085587,197.613144 176.970001,196.207214 
	C176.620926,198.480835 176.460251,199.527267 176.278931,200.708237 
	C178.498489,201.215607 180.504761,201.674240 183.722137,202.409714 
	C180.413391,193.582886 177.484940,185.770569 174.600967,178.076889 
	C173.219940,179.133438 171.910507,180.135208 169.772568,181.770813 
	C169.888870,175.988220 168.219955,172.506149 163.330536,171.438919 
	C163.510361,170.732086 163.690170,170.025253 163.913605,169.032578 
	C163.972366,168.554565 163.987503,168.362396 164.388000,168.134964 
	C166.210739,169.104660 167.620682,170.152115 169.093277,171.102524 
	C170.533524,172.032043 172.204239,173.724762 173.464432,173.481293 
	C174.604095,173.261124 175.297760,170.859772 176.245987,169.459457 
	C176.630173,168.892120 177.119202,168.370743 177.645248,167.929428 
	C178.929581,166.851929 180.263336,165.833359 181.621979,164.755569 
	C179.613785,161.663986 176.240921,159.828217 178.005188,155.817062 
	C178.317230,155.107651 176.945587,153.588623 176.238998,152.517639 
	C175.343658,151.160538 173.854828,150.002686 173.477249,148.538391 
	C172.796814,145.899582 172.605392,143.205338 168.998428,143.140701 
	C166.325211,143.092789 163.651428,143.074860 160.918457,142.681244 
	C159.588608,141.438461 158.429733,140.251923 157.025009,139.740021 
	C153.926208,138.610748 151.098404,139.941696 148.149124,141.103149 
	C147.815857,140.775497 147.685028,140.641922 147.693512,140.171814 
	C147.407104,138.781967 146.981400,137.728668 146.555695,136.675354 
	C148.273544,134.274231 149.991394,131.873108 152.179871,129.268890 
	C152.650482,129.065781 153.069870,129.022644 153.092499,129.415070 
	C153.666656,132.301620 152.763779,135.697449 157.206787,136.105545 
	C158.817978,136.849182 160.147873,137.440567 161.757965,138.314606 
	C164.370789,139.378937 166.659393,140.442963 169.055618,140.816437 
	C170.160889,140.988708 171.719498,140.070587 172.652725,139.197891 
	C175.833954,136.223099 178.828491,133.048676 182.129791,129.970047 
	C182.365280,129.989655 182.837799,129.980484 182.839233,130.437927 
	C182.840683,133.474686 182.840683,136.054001 182.840683,138.497818 
	C190.700058,139.716721 192.092743,141.159393 191.802536,147.711884 
	C191.680527,150.466705 190.937164,153.188553 190.665619,155.944061 
	C190.470825,157.920776 191.257614,160.264359 190.452652,161.863434 
	C187.206436,168.311981 190.099777,176.934586 197.245560,179.807022 
	C200.199371,170.037277 207.993256,165.840042 216.924118,162.696014 
	C218.939331,161.986572 220.787201,159.626007 221.817993,157.575928 
	C223.306534,154.615463 223.977158,151.244019 225.000473,148.049133 
	C225.237366,147.309540 225.743912,146.557220 225.694412,145.840576 
	C225.269516,139.689255 226.195816,133.944244 230.373215,129.094940 
	C231.300735,128.018219 232.263626,126.971962 233.962204,125.069405 
	C230.057053,124.474121 227.164078,124.033127 223.184601,123.426514 
	C225.263412,122.198898 226.301575,121.585831 227.380203,120.948868 
	C221.753250,113.743973 221.514252,113.635056 213.277695,115.889938 
	C208.661469,117.153694 204.076828,118.532837 199.391296,119.885002 
	C198.000717,113.350113 193.013794,109.608414 186.768219,111.277504 
	C182.424728,112.438255 175.270203,110.065132 174.589844,118.960785 
	C174.091888,117.153183 173.845215,116.257767 173.435135,114.769135 
	C172.087341,116.020134 171.051056,116.982010 169.760696,118.015121 
	C169.369598,118.395866 169.232544,118.705391 168.817261,119.278450 
	C168.124496,122.929863 164.721909,126.881508 171.936768,129.180725 
	C169.415222,130.309250 168.201584,130.852402 166.752090,131.246399 
	C166.358246,130.998932 166.200287,130.900635 166.029160,130.547089 
	C165.767197,129.870102 165.518402,129.448364 165.186646,128.681030 
	C167.290283,123.626518 161.881317,122.275436 160.951965,118.944016 
	C166.450790,113.857651 171.949615,108.771286 177.798187,103.150635 
	C186.030746,97.439384 193.480911,91.359749 201.908859,87.320068 
	C211.845032,82.557480 222.100388,77.912529 233.440521,77.020966 
	C234.335938,76.950569 235.183884,76.276169 236.053894,75.882477 
	C244.809708,75.084679 253.555389,73.749290 262.323151,73.583801 
	C297.001801,72.929230 327.970581,83.611923 355.615234,104.982864 
M257.941528,136.919342 
	C258.616821,137.974258 259.292145,139.029190 259.967438,140.084106 
	C260.450775,139.754425 260.934143,139.424744 261.417480,139.095047 
	C260.457367,137.884644 259.497253,136.674240 258.408630,134.833084 
	C259.988098,133.677429 261.567535,132.521759 263.147003,131.366089 
	C262.831848,130.661896 262.516663,129.957687 262.201508,129.253494 
	C258.154572,130.267624 254.107651,131.281754 248.856812,132.597580 
	C251.218857,136.473572 253.128036,139.606415 255.591583,143.648926 
	C256.556793,140.304291 257.141144,138.279419 257.941528,136.919342 
M375.738129,264.168335 
	C374.959961,270.264252 379.307068,270.382324 383.317047,270.970367 
	C387.425659,263.371643 387.787140,260.069916 384.977783,257.355408 
	C382.088196,259.500793 379.212769,261.635651 375.738129,264.168335 
M289.496918,148.881805 
	C288.831970,155.002167 290.660034,157.065094 294.271393,155.917450 
	C294.013672,152.884216 293.153931,150.031097 293.728302,147.503922 
	C294.315002,144.922470 296.313934,142.663559 297.685486,140.258240 
	C298.343781,139.103806 298.980927,137.937347 299.627655,136.776337 
	C298.441345,137.141663 297.234497,137.451645 296.072296,137.882019 
	C291.341766,139.633820 289.807983,143.426987 289.496918,148.881805 
M293.921326,292.610443 
	C294.423492,294.231079 294.854797,295.883362 295.542511,297.421051 
	C295.608002,297.567383 297.458679,297.240753 298.168091,296.713348 
	C300.410065,295.046539 303.026703,284.261627 301.986511,281.193359 
	C298.464722,284.130402 294.095612,286.298340 293.921326,292.610443 
M224.722549,174.141937 
	C225.800491,172.744080 226.878418,171.346207 227.956345,169.948349 
	C226.426071,169.579697 224.910782,169.117661 223.361252,168.868896 
	C221.840836,168.624802 220.285599,168.597519 218.499161,168.455490 
	C218.190552,172.891296 219.693466,175.015625 224.722549,174.141937 
M359.625000,125.074692 
	C364.971863,126.341057 366.372925,124.117546 364.826630,117.729698 
	C363.075134,118.604050 361.117859,119.410889 359.344513,120.513603 
	C357.516968,121.650009 356.574219,123.124290 359.625000,125.074692 
M391.959564,268.960266 
	C391.313507,267.537842 390.667450,266.115417 390.021362,264.692993 
	C389.445099,264.878906 388.868835,265.064819 388.292542,265.250763 
	C387.795227,267.673096 387.297882,270.095428 386.736298,272.830811 
	C389.134888,272.830811 390.741699,272.830811 392.446655,272.830811 
	C392.267090,271.655457 392.117859,270.678741 391.959564,268.960266 
M283.811951,120.524117 
	C283.709656,120.395622 283.627380,120.234123 283.495605,120.154282 
	C283.440002,120.120583 283.196808,120.241280 283.179749,120.321686 
	C282.691315,122.624954 282.220795,124.932037 281.749664,127.227318 
	C286.859711,128.164673 287.886963,127.262436 289.496887,120.233620 
	C287.489685,121.995728 286.196167,123.131325 284.605377,124.527855 
	C284.341003,123.247559 284.123260,122.193054 283.811951,120.524117 
M319.517120,121.135864 
	C318.241333,120.520805 317.001678,119.766449 315.656860,119.417358 
	C315.410828,119.353493 314.192291,121.116623 314.389435,121.721123 
	C314.674652,122.595711 315.923981,123.833267 316.614044,123.745987 
	C317.764252,123.600510 318.797150,122.528008 319.517120,121.135864 
M392.871887,252.630783 
	C392.419983,252.213333 391.968048,251.795883 391.516144,251.378433 
	C391.283112,251.726669 391.050049,252.074890 390.817017,252.423111 
	C391.488159,252.704132 392.159332,252.985168 392.871887,252.630783 
M404.103790,194.334732 
	C404.284973,194.682724 404.466187,195.030701 404.647369,195.378708 
	C404.937439,195.080185 405.227478,194.781662 405.517517,194.483124 
	C405.165802,194.269760 404.814087,194.056381 404.103790,194.334732 
M394.929749,252.009171 
	C394.900635,251.492966 394.871521,250.976761 394.842377,250.460556 
	C394.613129,250.489502 394.383881,250.518463 394.154602,250.547409 
	C394.273712,251.169891 394.392822,251.792374 394.929749,252.009171 
z"/>
<path fill="#F2F2F1" opacity="1.000000" stroke="none" 
	d="
M236.029327,75.438881 
	C235.183884,76.276169 234.335938,76.950569 233.440521,77.020966 
	C222.100388,77.912529 211.845032,82.557480 201.908859,87.320068 
	C193.480911,91.359749 186.030746,97.439384 178.027115,102.929565 
	C151.755692,103.162041 125.604088,102.916161 99.454941,103.075066 
	C87.625977,103.146957 78.229088,99.144356 71.619995,89.160606 
	C60.593376,72.503685 69.100044,49.480358 88.795540,43.902000 
	C90.067368,43.541779 91.854675,41.778877 91.862297,40.658005 
	C91.989578,21.932526 109.221359,5.053239 127.865829,3.781855 
	C144.411377,2.653599 156.281143,9.269485 165.759369,21.930075 
	C179.442184,15.228494 193.804672,17.462532 202.994797,27.743641 
	C206.099167,31.216532 207.628555,36.072510 210.046158,40.197697 
	C210.876770,41.614975 212.022552,43.531906 213.359741,43.862038 
	C226.670456,47.148224 237.092987,59.744404 236.029327,75.438881 
M127.688461,76.276329 
	C127.216972,75.587814 126.747025,74.898254 126.273697,74.210999 
	C124.904152,72.222458 122.499313,70.308434 122.351616,68.233429 
	C121.855972,61.270065 122.171242,54.249401 122.164307,47.250683 
	C122.159760,42.658684 124.345825,40.769775 129.009781,40.851803 
	C140.004395,41.045166 151.004868,40.883301 162.002762,40.920418 
	C179.151062,40.978291 177.323593,39.078461 176.907028,56.194023 
	C176.742416,62.957035 180.835205,71.204620 171.432587,75.998596 
	C176.962631,76.992813 179.863113,74.938850 179.967041,70.107841 
	C180.149780,61.613400 180.152771,53.109024 179.957840,44.615074 
	C179.859650,40.335815 177.501190,37.938995 172.940155,37.953159 
	C157.609711,38.000778 142.278854,37.930168 126.948524,37.994888 
	C122.028717,38.015656 119.925346,40.102242 119.870094,44.964096 
	C119.777321,53.128254 119.794632,61.294628 119.861633,69.459282 
	C119.904816,74.720184 121.422012,76.165413 127.688461,76.276329 
M161.844162,53.852020 
	C161.845093,62.009937 161.702164,70.172668 161.974747,78.321510 
	C162.026016,79.854271 163.734909,81.331589 164.678909,82.834480 
	C166.015289,81.454117 168.446396,80.120781 168.508072,78.685646 
	C168.872177,70.211548 168.844559,61.707893 168.530426,53.229694 
	C168.476974,51.786869 166.400452,50.418999 165.258575,49.016499 
	C164.122940,50.323818 162.987305,51.631134 161.844162,53.852020 
M140.855530,79.024628 
	C142.034195,80.297035 143.212860,81.569435 144.391525,82.841843 
	C145.495010,81.397377 147.447342,80.010788 147.550476,78.498116 
	C147.933243,72.884323 147.975708,67.207802 147.533524,61.603168 
	C147.412628,60.070644 145.150375,58.707066 143.870804,57.265957 
	C142.863373,58.740509 141.087250,60.164837 140.987030,61.698673 
	C140.630829,67.149979 140.845703,72.638603 140.855530,79.024628 
M158.013809,69.706139 
	C158.013199,68.876991 158.312943,67.875504 157.954849,67.251511 
	C156.940323,65.483604 155.656647,63.870167 154.478989,62.195889 
	C153.355911,63.925671 151.545853,65.549500 151.259155,67.408279 
	C150.734543,70.809738 150.717346,74.413956 151.269409,77.806549 
	C151.562866,79.609940 153.493210,81.146957 154.684677,82.804214 
	C155.793900,81.069351 157.396301,79.461082 157.882690,77.566338 
	C158.441833,75.388145 158.013336,72.956421 158.013809,69.706139 
M130.476898,79.660606 
	C131.906342,80.690056 133.335770,81.719498 134.765198,82.748932 
	C135.562149,81.288696 136.762604,79.904823 137.056946,78.349480 
	C137.451309,76.265556 137.548172,73.939041 137.000885,71.926605 
	C136.615234,70.508484 134.945648,69.439537 133.849319,68.214684 
	C132.731735,69.272560 130.939758,70.169968 130.641647,71.422844 
	C130.079025,73.787354 130.376144,76.356422 130.476898,79.660606 
z"/>
<path fill="#838383" opacity="1.000000" stroke="none" 
	d="
M163.869995,169.318420 
	C163.690170,170.025253 163.510361,170.732086 163.330536,171.438919 
	C168.219955,172.506149 169.888870,175.988220 169.772568,181.770813 
	C171.910507,180.135208 173.219940,179.133438 174.600967,178.076889 
	C177.484940,185.770569 180.413391,193.582886 183.722137,202.409714 
	C180.504761,201.674240 178.498489,201.215607 176.278931,200.708237 
	C176.460251,199.527267 176.620926,198.480835 176.970001,196.207214 
	C174.085587,197.613144 171.981445,198.638748 168.375198,200.396530 
	C171.263855,201.702316 172.884308,202.434814 175.530197,203.630859 
	C166.868301,206.482193 157.973389,208.323441 153.611023,217.440933 
	C150.830429,217.097321 148.353928,215.876953 146.117340,216.220123 
	C144.134750,216.524323 141.383408,218.253876 140.877838,219.929443 
	C140.377655,221.587189 142.263199,223.964767 143.102249,226.026596 
	C139.671951,226.597656 136.188797,226.961243 132.831009,227.816864 
	C130.787079,228.337677 127.550743,229.317612 127.270416,230.614487 
	C126.556831,233.915848 127.203369,237.511215 127.305550,240.988922 
	C129.441879,240.774887 131.658569,240.839066 133.687469,240.253021 
	C135.139771,239.833542 136.340469,238.542923 137.653427,237.640991 
	C137.958206,237.924652 138.262985,238.208328 138.567780,238.492004 
	C138.009491,240.444611 137.451218,242.397217 136.754868,244.832687 
	C143.448898,244.618561 142.179642,249.305313 141.769714,253.728653 
	C140.417603,253.563766 139.473114,252.949844 138.647614,252.204163 
	C134.733643,248.668686 130.343658,246.219055 124.935280,246.003632 
	C123.734482,239.448257 121.925446,232.937302 121.442818,226.329483 
	C119.752151,203.182190 123.575943,180.822144 133.142212,159.675507 
	C136.709122,151.790680 141.660919,144.532333 146.268448,136.831848 
	C146.981400,137.728668 147.407104,138.781967 147.379257,140.349579 
	C146.309326,144.496796 145.692963,148.129715 144.990601,152.269455 
	C151.461746,150.360855 151.565201,150.091751 149.547958,145.501038 
	C148.967316,144.179672 148.740585,142.702789 148.351593,141.297226 
	C151.098404,139.941696 153.926208,138.610748 157.025009,139.740021 
	C158.429733,140.251923 159.588608,141.438461 160.933487,142.663269 
	C161.007965,143.007614 161.034485,142.968964 160.732559,142.985931 
	C160.276764,143.346802 160.122910,143.690689 159.987640,144.021240 
	C160.006241,144.007904 160.037033,143.974030 159.645096,143.924255 
	C153.835480,145.791580 153.469696,149.052734 158.024948,157.261002 
	C159.012085,156.068893 159.891418,155.006958 161.065887,153.970276 
	C162.077576,154.262802 162.794113,154.530090 163.675507,155.157562 
	C162.271118,158.558762 160.701889,161.599808 158.777008,165.330063 
	C158.886917,165.585037 159.449585,166.890457 160.078232,168.348953 
	C158.452240,168.548477 156.658707,169.356308 155.814774,168.778122 
	C149.674622,164.571304 147.496811,170.596298 144.217224,173.227585 
	C141.361786,175.518585 142.612137,178.854477 144.542114,180.684158 
	C148.308533,184.254822 154.135757,185.953735 153.465637,192.248611 
	C155.428101,189.733521 157.330948,187.553940 158.900787,185.156296 
	C159.534073,184.189041 159.311935,182.703125 159.697983,181.524994 
	C161.036774,177.439133 162.471664,173.384766 163.869995,169.318420 
M155.576813,205.810379 
	C155.203476,205.805893 154.830139,205.801422 154.456802,205.796951 
	C154.455063,205.951843 154.442749,206.241364 154.453079,206.242172 
	C154.824570,206.271317 155.198166,206.273514 155.576813,205.810379 
z"/>
<path fill="#E2E2E2" opacity="1.000000" stroke="none" 
	d="
M124.927399,246.416046 
	C130.343658,246.219055 134.733643,248.668686 138.647614,252.204163 
	C139.473114,252.949844 140.417603,253.563766 141.662155,254.119354 
	C142.017029,254.000320 141.995300,254.001556 141.928497,254.346039 
	C143.257980,254.851013 144.654266,255.011490 146.410370,255.182693 
	C149.753922,257.720154 149.283493,260.067780 147.351486,263.314423 
	C145.639465,266.191467 143.605591,270.798279 144.771255,273.078522 
	C147.446228,278.311310 152.008575,282.572723 155.751022,287.271240 
	C156.642349,288.390259 157.986679,289.675201 157.990234,290.887177 
	C158.009949,297.609436 157.680115,304.332703 157.469986,311.055634 
	C154.036316,307.606812 150.029160,304.554901 147.303070,300.616333 
	C143.192795,294.677948 139.625259,288.290619 136.475052,281.780518 
	C132.935028,274.464844 130.115128,266.800720 127.024361,259.003479 
	C126.351028,254.755341 125.635277,250.791901 124.927399,246.416046 
z"/>
<path fill="#D2D2D2" opacity="1.000000" stroke="none" 
	d="
M153.069870,129.022644 
	C153.069870,129.022644 152.650482,129.065781 152.440536,129.046722 
	C153.681824,127.175987 155.133057,125.324318 157.117249,123.418068 
	C158.680939,124.465843 159.711655,125.568199 160.708359,126.634163 
	C161.583328,125.865692 162.074539,125.434280 161.789566,125.684570 
	C163.170273,127.010544 164.219940,128.018585 165.269592,129.026627 
	C165.518402,129.448364 165.767197,129.870102 165.766449,130.612915 
	C165.346436,130.993042 165.175980,131.052063 164.675171,131.065033 
	C163.901199,130.995819 163.457565,130.972656 162.917587,130.728989 
	C162.602707,130.232162 162.318024,130.110321 161.735779,130.163849 
	C161.194260,130.358002 161.064072,130.620499 161.109512,131.297791 
	C161.707657,132.157394 162.310013,132.691483 162.885895,133.583282 
	C162.398849,135.304657 161.938293,136.668289 161.477753,138.031937 
	C160.147873,137.440567 158.817978,136.849182 157.354828,135.785004 
	C157.894882,133.836517 158.568207,132.360840 159.103943,131.186707 
	C156.637756,130.302231 154.853806,129.662430 153.069870,129.022644 
z"/>
<path fill="#939393" opacity="1.000000" stroke="none" 
	d="
M165.186646,128.681030 
	C164.219940,128.018585 163.170273,127.010544 161.789566,125.684570 
	C162.074539,125.434280 161.583328,125.865692 160.708359,126.634163 
	C159.711655,125.568199 158.680939,124.465843 157.371323,123.216011 
	C158.169724,121.749001 159.247040,120.429482 160.638153,119.026993 
	C161.881317,122.275436 167.290283,123.626518 165.186646,128.681030 
z"/>
<path fill="#838383" opacity="1.000000" stroke="none" 
	d="
M298.185608,156.801956 
	C300.281525,157.095825 302.377441,157.389709 304.534058,157.692093 
	C304.534058,154.052704 304.534058,150.524277 304.534058,145.454285 
	C306.837891,147.961395 308.145721,149.384659 309.437164,150.790054 
	C310.829956,149.232422 312.594666,147.622437 313.914398,145.705978 
	C316.531067,141.906082 318.135681,136.894638 321.601440,134.346237 
	C324.744751,132.034958 326.467377,130.125671 326.097595,126.406349 
	C329.459961,126.778458 332.756378,126.546295 335.507385,127.660637 
	C337.298248,128.386047 338.253540,131.104218 339.662415,132.866241 
	C340.673584,134.130890 341.955811,136.424500 342.876556,136.310806 
	C348.297852,135.641403 353.648560,134.400391 358.921326,133.371765 
	C359.764313,135.001541 360.988831,137.368927 362.021667,139.365768 
	C364.889191,137.744019 366.979675,136.561722 369.533417,135.117416 
	C369.456451,134.237076 369.337799,132.880005 369.210297,131.421402 
	C372.673615,130.906128 375.925781,130.422256 379.600800,129.932892 
	C380.864410,130.847473 381.705170,131.767563 382.808228,132.883209 
	C388.682709,143.845749 394.294891,154.612717 399.833557,165.763931 
	C394.122467,167.536011 391.160248,171.081345 391.321442,177.134094 
	C391.346283,178.066742 393.835907,179.450287 395.345886,179.716614 
	C398.262115,180.230972 401.549774,179.743271 400.919342,184.724075 
	C400.222321,185.932648 399.982880,186.639847 399.743408,187.347046 
	C400.092804,187.430115 400.442200,187.513168 400.791595,187.596237 
	C400.852997,186.720657 400.914398,185.845093 400.975830,184.969513 
	C404.448608,187.060104 404.448608,187.060104 403.552307,192.809189 
	C402.722046,191.457520 402.089417,190.427567 401.443329,189.375717 
	C400.466797,192.974808 399.714081,196.384018 398.566925,199.654892 
	C398.127655,200.907425 396.982635,202.173080 395.820892,202.862991 
	C392.264435,204.975021 391.254974,208.471176 393.486389,211.960434 
	C395.749481,215.499252 395.637848,215.904205 392.184479,217.435211 
	C390.867554,215.415146 389.852814,213.160233 388.206360,211.552109 
	C386.868378,210.245300 384.772797,209.714218 382.712311,208.689468 
	C382.078613,209.488037 381.194031,210.602783 379.883575,212.254211 
	C382.133698,212.687286 383.829315,213.013641 385.920044,213.416031 
	C384.980133,214.661255 384.146271,215.765976 383.132019,217.109695 
	C387.405121,221.406204 389.289948,226.245712 385.810974,231.743271 
	C384.713806,233.477112 382.995636,234.884415 381.366058,236.198608 
	C379.193634,237.950623 376.830231,239.465881 374.440063,241.159943 
	C374.381866,240.742355 374.225372,239.619324 373.939819,237.570084 
	C372.603973,238.712112 371.726746,239.462082 370.390381,240.502808 
	C365.042480,236.140472 359.994080,235.886627 354.778351,240.243698 
	C352.241089,236.912827 349.765961,236.839188 346.835541,239.970505 
	C343.515442,243.518219 339.018768,246.169144 339.624451,252.148895 
	C339.727844,253.169724 338.048309,254.371155 336.577179,256.292877 
	C334.882996,252.882660 333.894043,250.087524 332.240509,247.765717 
	C330.137695,244.813065 329.721130,241.355942 326.750000,238.269470 
	C321.567932,232.886292 315.854706,234.791733 310.075867,233.017914 
	C314.604736,238.673859 313.827484,241.571823 307.127747,245.067947 
	C303.238464,247.097488 299.245270,248.927933 295.392670,252.039551 
	C298.289520,251.798691 301.186401,251.557846 305.445160,251.203766 
	C303.550537,254.844299 302.285400,258.133545 300.274750,260.876282 
	C298.562592,263.211884 296.019104,264.949036 293.795105,266.895752 
	C290.825226,269.495270 289.315826,272.459045 290.379791,276.582245 
	C292.328979,284.135956 292.080688,284.560150 285.066254,288.952728 
	C277.802216,288.935364 274.942017,290.639130 273.369385,295.348297 
	C271.933197,299.648712 275.029266,302.120239 277.047882,305.050659 
	C274.235992,309.721039 269.219757,308.652161 264.997101,309.573914 
	C264.487915,309.685089 263.383148,308.855621 263.166290,308.244873 
	C260.688263,301.265900 258.207153,294.282013 256.041962,287.203033 
	C255.614487,285.805389 256.157623,283.805511 256.886658,282.415649 
	C259.254944,277.900482 257.697144,274.143463 255.159653,270.414185 
	C254.348434,269.221954 252.839661,267.646240 253.131973,266.707336 
	C254.521729,262.243317 253.214096,259.971222 248.559052,259.497406 
	C246.765701,259.314911 244.801147,258.199097 243.252594,258.655457 
	C233.847092,261.427307 231.877960,260.877930 225.394394,253.338318 
	C224.156265,251.898544 222.245621,251.037109 221.029572,250.179794 
	C221.605637,247.316818 223.071045,244.267654 222.548111,241.609711 
	C221.819977,237.908676 223.206863,235.566757 225.605438,233.367172 
	C225.926285,233.955414 225.950684,234.295700 225.880966,234.615479 
	C224.635056,240.331314 227.315231,244.953751 232.443726,245.915298 
	C236.759155,246.724380 240.934509,244.014862 241.889557,239.785629 
	C243.115540,234.356598 240.296036,230.328140 234.453293,229.046356 
	C233.224014,228.776657 232.051849,228.246521 230.853378,227.836380 
	C232.378128,223.438568 235.464127,219.651093 232.090439,214.198944 
	C230.428802,211.513580 231.746735,206.876099 237.712418,208.461929 
	C240.792435,209.280655 241.512405,206.998749 240.122894,204.500488 
	C239.519363,203.415344 238.237137,202.707687 237.187592,201.760361 
	C238.287689,200.930557 239.139252,200.288239 239.980408,199.316925 
	C239.970001,198.987915 239.967590,199.030411 240.354401,199.081436 
	C241.665527,198.745132 242.589813,198.357803 243.618896,197.863007 
	C243.851791,197.595047 243.923981,197.412491 243.940231,197.207825 
	C246.024384,195.452698 248.108551,193.697586 250.698776,191.516281 
	C250.357819,189.565613 250.548676,187.148987 248.093903,184.565002 
	C246.094681,182.460526 245.737930,178.506439 249.339584,175.381897 
	C252.187149,172.911530 254.439072,169.208328 255.734222,165.612717 
	C258.152008,158.900299 265.462280,155.958374 271.717773,159.833969 
	C272.544556,160.346222 273.578491,160.514008 274.439728,160.982422 
	C277.698853,162.754929 280.926392,164.585556 284.312897,166.476624 
	C284.312897,165.317703 284.312897,163.834473 284.312897,162.351242 
	C284.843628,161.886307 285.374329,161.421387 285.905060,160.956451 
	C286.420044,162.220764 286.934998,163.485062 287.323730,164.439407 
	C289.392822,163.199173 291.237091,161.760696 293.324402,160.941742 
	C295.191040,160.209381 297.325775,160.160278 299.800446,159.729996 
	C298.907806,158.750839 298.477325,158.278610 297.999939,157.423462 
	C297.953094,157.040527 298.185608,156.801956 298.185608,156.801956 
M254.948395,222.194809 
	C258.069611,223.827423 261.190826,225.460037 264.562531,227.223648 
	C265.665497,223.551041 267.777496,223.745300 270.553894,224.622116 
	C273.025543,225.402649 275.723267,225.523529 278.336121,225.788620 
	C283.386719,226.301071 283.866364,223.238037 283.561462,219.143921 
	C278.184662,219.082779 272.149170,220.824646 270.642548,212.685547 
	C269.910492,213.991180 269.953583,214.919937 269.690491,215.751877 
	C269.352081,216.822021 268.768127,217.814514 268.143707,219.154236 
	C263.209991,212.606827 263.209991,212.606827 260.260376,215.244995 
	C251.487625,205.753738 248.807968,206.641190 242.709198,213.902725 
	C240.927902,216.023621 239.198349,218.187988 237.189774,220.644699 
	C238.522324,220.435547 240.015076,220.234558 241.494675,219.962158 
	C244.730621,219.366409 247.954788,218.706039 251.193481,218.126312 
	C253.733429,217.671692 254.972610,218.798492 254.948395,222.194809 
M328.058167,161.801666 
	C329.110596,161.323578 330.230072,160.953186 331.203156,160.347580 
	C334.356964,158.384796 336.038483,155.205811 334.763367,151.926102 
	C333.755524,149.333923 331.282227,146.035950 328.955505,145.570114 
	C326.325378,145.043564 322.289795,146.575287 320.445984,148.630173 
	C318.931183,150.318359 319.055420,154.237152 319.667328,156.886902 
	C320.485413,160.429626 323.544281,162.037918 328.058167,161.801666 
M279.833130,210.858261 
	C282.855743,211.135712 285.878357,211.413162 288.900970,211.690598 
	C289.009979,211.223679 289.118988,210.756760 289.227997,210.289841 
	C287.320496,208.490128 285.412994,206.690414 283.377350,204.769791 
	C281.118408,210.021591 279.240448,204.210495 276.159363,204.056442 
	C275.599609,206.317520 275.043091,208.565506 274.486603,210.813507 
	C275.996796,210.881409 277.507019,210.949310 279.833130,210.858261 
M259.353943,188.083496 
	C258.025787,188.905304 256.697662,189.727112 255.369507,190.548920 
	C255.513214,191.014313 255.656921,191.479721 255.800629,191.945129 
	C258.409821,191.246796 262.201630,191.386887 263.403809,189.691101 
	C266.846283,184.835129 264.862000,179.746750 260.895264,174.969818 
	C260.492859,179.141602 260.090424,183.313400 259.353943,188.083496 
M302.576843,217.926285 
	C306.616669,217.558212 304.059967,215.408066 303.761627,213.762192 
	C303.103363,210.130737 297.570190,207.609833 301.356354,202.500671 
	C299.306976,202.970291 297.262146,203.505814 296.468567,204.805420 
	C295.868164,205.788589 296.759552,207.776932 297.177979,209.264206 
	C297.704407,211.135361 298.245544,213.044006 299.125061,214.759766 
	C299.723785,215.927750 300.913635,216.792694 302.576843,217.926285 
M292.799805,243.804459 
	C289.928650,239.512573 287.057495,235.220673 284.186310,230.928772 
	C283.743164,231.229538 283.299988,231.530304 282.856812,231.831070 
	C286.435730,237.117157 287.325531,244.096176 294.225250,248.794983 
	C293.695984,246.552277 293.445709,245.491867 292.799805,243.804459 
M263.811310,170.351013 
	C263.558807,171.440689 263.306274,172.530350 263.053772,173.620026 
	C263.665161,173.611496 264.276581,173.602951 264.887970,173.594421 
	C264.753632,172.408066 264.619293,171.221725 263.811310,170.351013 
z"/>
<path fill="#F2F2F1" opacity="1.000000" stroke="none" 
	d="
M389.130066,290.971497 
	C391.709778,286.588715 394.289429,282.205902 396.939850,277.495422 
	C405.386597,276.668030 414.478943,281.905640 419.541901,289.568787 
	C426.372681,289.362946 432.559875,288.420349 438.532898,289.174347 
	C447.419617,290.296143 452.717316,296.360138 456.123993,304.449524 
	C456.976501,306.473816 459.075043,308.692810 461.093658,309.384735 
	C471.013000,312.784729 478.102539,322.380219 477.091187,335.360077 
	C476.381531,344.468414 469.322784,352.356964 460.473816,355.701477 
	C457.518951,356.818268 454.062592,356.937744 450.833618,356.948273 
	C423.023468,357.039001 395.212494,357.091797 367.402679,356.958160 
	C355.247528,356.899780 346.022186,351.450714 341.958008,339.407318 
	C347.435638,335.103088 353.069763,331.321930 358.443695,327.201416 
	C362.729095,323.915558 366.871857,320.396057 370.745911,316.637970 
	C373.407593,314.056030 375.500702,310.887970 378.194458,307.532898 
	C378.708984,306.717499 378.877014,306.351105 379.045044,305.984680 
	C379.045013,305.984680 378.986755,305.990356 379.286987,305.856262 
	C382.768188,300.805298 385.949127,295.888397 389.130066,290.971497 
M422.358887,315.092377 
	C418.850891,315.200470 414.509216,313.846100 414.703400,320.278473 
	C410.038055,318.771057 408.698364,321.359528 407.721619,324.799713 
	C406.726776,328.303772 405.516357,331.776489 404.005554,335.082520 
	C403.642334,335.877319 401.718323,335.958832 400.512085,336.368347 
	C399.490479,330.864868 395.123688,333.362244 392.122772,333.124969 
	C390.823456,333.022247 388.239471,334.536530 388.227356,335.346069 
	C388.177765,338.656677 387.807983,342.851135 389.597778,345.082428 
	C391.994629,348.070465 399.363068,345.166504 401.126434,341.087921 
	C405.022766,341.856598 406.635223,339.724335 407.514404,336.153503 
	C408.383514,332.623627 409.657837,329.174316 411.013611,325.793640 
	C411.502289,324.575104 412.744141,323.658661 414.624054,321.451935 
	C414.649902,329.213928 419.145264,327.689545 422.771729,327.939026 
	C426.106323,328.168427 428.075134,326.887207 427.669189,323.465363 
	C427.282532,320.206268 429.915039,315.100922 422.358887,315.092377 
M427.373199,309.950439 
	C436.813263,309.952789 436.814758,309.952789 436.815002,319.331360 
	C436.815094,323.830414 436.808777,328.329498 436.804657,332.828552 
	C436.801331,336.496399 435.154083,338.335144 431.297821,338.227417 
	C426.302795,338.087799 421.299957,338.148590 416.302582,338.239380 
	C415.263092,338.258270 414.232849,338.785492 413.198334,339.078430 
	C413.276245,339.492035 413.354156,339.905609 413.432037,340.319214 
	C420.625427,340.319214 427.848633,340.662842 434.988190,340.042847 
	C436.500793,339.911499 438.714264,336.334106 438.869904,334.216980 
	C439.369385,327.421722 439.002991,320.566193 439.074585,313.734985 
	C439.123627,309.054657 436.635315,307.075714 432.259186,307.064606 
	C419.761841,307.032837 407.263916,306.994171 394.767090,307.081360 
	C389.811646,307.115936 387.925537,309.145142 387.831207,314.141449 
	C387.762054,317.806030 387.761292,321.474670 387.864868,325.137726 
	C387.890656,326.049774 388.437561,326.947083 388.744934,327.851135 
	C389.182739,327.787048 389.620514,327.722961 390.058319,327.658875 
	C390.058319,323.736847 390.175201,319.810394 390.026550,315.894012 
	C389.866913,311.688873 391.569397,309.832031 395.914337,309.900146 
	C406.076447,310.059509 416.242737,309.950623 427.373199,309.950439 
z"/>
<path fill="#8D8D8D" opacity="1.000000" stroke="none" 
	d="
M409.040466,215.536072 
	C405.203735,217.795624 401.396271,219.599274 397.234528,221.570740 
	C395.691711,219.844818 395.928253,217.430038 399.439178,215.586029 
	C404.159851,213.106598 406.302704,209.886307 404.537811,204.465408 
	C404.242157,203.557327 405.479828,202.150024 406.370789,200.921814 
	C407.511627,205.606857 408.290649,210.343521 409.040466,215.536072 
z"/>
<path fill="#848484" opacity="1.000000" stroke="none" 
	d="
M157.336960,311.389404 
	C157.680115,304.332703 158.009949,297.609436 157.990234,290.887177 
	C157.986679,289.675201 156.642349,288.390259 155.751022,287.271240 
	C152.008575,282.572723 147.446228,278.311310 144.771255,273.078522 
	C143.605591,270.798279 145.639465,266.191467 147.351486,263.314423 
	C149.283493,260.067780 149.753922,257.720154 146.394226,254.913437 
	C146.012039,254.454102 146.005844,254.274750 145.999634,254.095398 
	C148.030869,253.396332 150.018585,252.489594 152.104706,252.052551 
	C154.530151,251.544418 157.037537,251.313461 159.518021,251.234528 
	C160.608490,251.199829 161.793213,252.266785 162.809418,252.094009 
	C166.446274,251.475662 168.921570,252.978333 171.362045,255.492935 
	C172.617462,256.786438 174.823624,257.110291 176.488983,258.066071 
	C178.131088,259.008484 180.471664,259.866974 181.046066,261.333923 
	C183.152679,266.713715 188.014893,267.292145 192.435715,268.833466 
	C194.416809,269.524200 196.364990,270.345215 198.250809,271.265533 
	C201.658447,272.928467 201.467056,275.135162 199.655350,278.169769 
	C198.042572,280.871246 196.953903,283.974884 196.129684,287.034607 
	C195.156448,290.647461 194.439682,293.791565 190.046249,295.220154 
	C187.998383,295.886078 186.750519,299.062622 185.178650,301.130524 
	C182.682434,304.414459 180.203796,307.712097 177.754501,311.031067 
	C177.303757,311.641846 177.007904,312.371979 176.675140,313.063660 
	C176.150421,314.154327 175.777039,316.126923 175.127579,316.218262 
	C170.648438,316.848083 170.376678,320.495789 169.175385,324.003479 
	C165.083267,320.156586 161.143600,315.939911 157.336960,311.389404 
M168.581543,320.448212 
	C168.581543,320.448212 168.485916,320.611694 168.485916,320.611694 
	C168.485916,320.611694 168.675537,320.589935 168.581543,320.448212 
z"/>
<path fill="#43baff" opacity="1.000000" stroke="none" 
	d="
M54.357986,324.062073 
	C56.532734,325.724121 58.520508,327.003082 60.508263,328.282074 
	C57.265411,330.919281 51.582657,329.583771 51.316628,325.093842 
	C50.575066,312.578094 50.887569,299.971954 51.512691,287.437866 
	C51.592426,285.839081 55.979145,283.215637 58.409885,283.170197 
	C77.378639,282.815552 96.357292,282.921112 115.332230,283.016174 
	C119.943268,283.039276 122.972786,285.886353 123.052246,290.434570 
	C123.238319,301.083557 123.279610,311.741272 123.056938,322.388702 
	C122.939095,328.023407 118.438210,330.788818 113.330032,328.854370 
	C113.348526,328.531464 113.304848,327.949646 113.405487,327.923523 
	C119.169167,326.426727 120.362762,322.485840 120.070038,317.013672 
	C119.661621,309.378754 119.995331,301.705505 119.957603,294.048981 
	C119.929604,288.366943 118.186111,286.258118 112.703354,286.216553 
	C95.559891,286.086639 78.414284,286.092743 61.270653,286.211060 
	C55.563118,286.250458 53.755077,288.191589 53.782631,293.756378 
	C53.832016,303.730957 54.033249,313.704803 54.357986,324.062073 
z"/>
<path fill="#43baff" opacity="1.000000" stroke="none" 
	d="
M71.916763,306.652710 
	C74.632919,304.068817 76.856102,304.509521 79.093376,306.808167 
	C82.809563,310.626251 86.596695,314.376038 90.391479,318.116516 
	C92.696777,320.388855 92.977005,322.638519 90.582680,325.019379 
	C86.804436,328.776459 83.022430,332.530060 79.279823,336.322479 
	C77.086098,338.545380 75.027946,338.520416 72.839684,336.289856 
	C68.875107,332.248657 64.887886,328.227600 60.826443,324.284332 
	C58.329739,321.860199 58.672840,319.769623 61.040092,317.495789 
	C64.641968,314.036011 68.124413,310.451904 71.916763,306.652710 
M76.334953,314.964203 
	C74.465233,316.150269 72.476341,317.186462 70.753036,318.556641 
	C67.997292,320.747772 69.155434,322.792908 71.276802,324.718506 
	C73.418877,326.662903 75.106224,329.623718 78.694923,326.741028 
	C83.626678,322.779480 83.375168,320.542633 76.334953,314.964203 
z"/>
<path fill="#43baff" opacity="1.000000" stroke="none" 
	d="
M89.327118,308.421936 
	C89.928383,307.808594 90.279549,307.456146 90.631378,307.104309 
	C95.437218,302.298492 100.573807,303.157043 103.002357,309.770203 
	C103.527809,311.201050 101.081238,314.157135 99.411667,315.814301 
	C98.211166,317.005920 94.658203,318.009094 94.491745,317.725311 
	C92.716682,314.699463 86.518242,314.176147 89.327118,308.421936 
z"/>
<path fill="#43baff" opacity="1.000000" stroke="none" 
	d="
M102.860580,315.880341 
	C107.788445,310.190155 109.257935,316.431427 111.834442,318.144867 
	C114.703041,320.052521 114.429779,322.099976 111.957222,324.579346 
	C105.970093,330.582977 105.408539,330.540741 98.116699,321.035919 
	C99.568642,319.450836 101.090553,317.789368 102.860580,315.880341 
z"/>
<path fill="#43baff" opacity="1.000000" stroke="none" 
	d="
M102.843155,330.119446 
	C103.965721,335.449219 99.078873,336.499054 96.618202,339.137207 
	C96.326942,339.449463 93.155441,337.543335 91.744415,336.214050 
	C90.275627,334.830353 87.955452,332.045288 88.384834,331.357880 
	C90.082253,328.640350 92.608879,326.383423 95.097343,324.273315 
	C95.515030,323.919159 97.431557,324.927673 98.361244,325.673431 
	C99.904266,326.911133 101.208534,328.446472 102.843155,330.119446 
z"/>
<path fill="#43baff" opacity="1.000000" stroke="none" 
	d="
M407.937622,89.025589 
	C407.937622,92.682327 407.937622,95.844933 407.937744,99.007530 
	C407.937988,106.344963 407.938019,106.344963 413.752472,110.757935 
	C409.666046,112.866051 405.303192,110.837883 405.128662,106.118454 
	C404.772125,96.478722 404.790039,86.808556 405.131165,77.167831 
	C405.266205,73.350784 408.391113,71.316292 412.076569,71.288811 
	C428.387756,71.167183 444.701996,71.114601 461.011414,71.326019 
	C465.397552,71.382874 468.025299,74.117043 468.037781,78.768387 
	C468.061035,87.423859 468.155731,96.081421 468.002441,104.734245 
	C467.904083,110.286026 464.485046,112.667442 459.312775,111.136131 
	C459.332855,110.818672 459.289062,110.236916 459.382660,110.213898 
	C465.026611,108.825951 465.346954,104.698860 465.131653,99.894920 
	C464.848755,93.582382 464.901245,87.242142 465.117493,80.924355 
	C465.261353,76.720222 463.319000,74.400215 459.405457,74.359879 
	C444.097168,74.202126 428.785126,74.206772 413.477081,74.379250 
	C409.873901,74.419853 407.665619,76.499031 407.910522,80.543434 
	C408.071228,83.196922 407.938812,85.868156 407.937622,89.025589 
z"/>
<path fill="#43baff" opacity="1.000000" stroke="none" 
	d="
M426.026001,98.950005 
	C426.026001,101.409081 426.026001,103.382164 426.026001,106.260002 
	C430.738953,106.260002 435.135345,106.128059 439.513733,106.350845 
	C440.637543,106.408020 441.704437,107.584091 442.797485,108.246124 
	C441.658173,108.838737 440.538635,109.892807 439.376038,109.942711 
	C434.769501,110.140450 430.149475,110.023987 425.302368,110.023987 
	C425.137268,112.625008 425.003326,114.735306 424.868286,116.862640 
	C416.286011,112.638657 413.989014,104.850029 416.662781,88.608444 
	C419.491608,88.608444 422.384613,88.608444 426.025970,88.608444 
	C426.025970,91.955963 426.025970,95.209984 426.026001,98.950005 
z"/>
<path fill="#43baff" opacity="1.000000" stroke="none" 
	d="
M443.003235,79.831741 
	C448.309814,79.831612 453.118927,79.831612 458.609436,79.831612 
	C458.609436,86.790108 459.824249,93.699646 458.170654,99.836235 
	C457.116364,103.748810 451.812500,106.516258 447.601624,110.581482 
	C447.316010,106.788521 447.125183,104.254448 446.903015,101.303894 
	C441.004578,101.303894 435.396271,101.303894 429.375580,101.303894 
	C429.375580,94.145370 429.375580,87.420410 429.375580,79.831871 
	C433.688629,79.831871 438.097198,79.831871 443.003235,79.831741 
M453.408051,101.569695 
	C454.340973,100.290596 455.994904,99.056862 456.078705,97.724350 
	C456.396820,92.667862 456.206818,87.579414 456.206818,82.450531 
	C447.494934,82.450531 439.490143,82.450531 431.155975,82.450531 
	C431.155975,86.498672 431.362183,90.145988 431.099426,93.759186 
	C430.822754,97.563438 431.966064,99.229630 436.070862,98.919716 
	C440.505737,98.584869 444.985504,98.843925 449.634033,98.843925 
	C449.959625,100.547279 450.217224,101.895142 450.553040,103.652084 
	C451.543182,102.954094 452.187256,102.500069 453.408051,101.569695 
z"/>
<path fill="#858585" opacity="1.000000" stroke="none" 
	d="
M161.757965,138.314606 
	C161.938293,136.668289 162.398849,135.304657 162.913574,133.203522 
	C162.983139,131.960541 162.998520,131.455017 163.013916,130.949509 
	C163.457565,130.972656 163.901199,130.995819 164.714386,131.330719 
	C165.718597,131.560181 166.353271,131.477875 166.987961,131.395569 
	C168.201584,130.852402 169.415222,130.309250 171.936768,129.180725 
	C164.721909,126.881508 168.124496,122.929863 169.017792,119.144966 
	C169.742538,118.527145 169.915283,118.259132 170.014755,117.943886 
	C171.051056,116.982010 172.087341,116.020134 173.435135,114.769135 
	C173.845215,116.257767 174.091888,117.153183 174.589844,118.960785 
	C175.270203,110.065132 182.424728,112.438255 186.768219,111.277504 
	C193.013794,109.608414 198.000717,113.350113 199.391296,119.885002 
	C204.076828,118.532837 208.661469,117.153694 213.277695,115.889938 
	C221.514252,113.635056 221.753250,113.743973 227.380203,120.948868 
	C226.301575,121.585831 225.263412,122.198898 223.184601,123.426514 
	C227.164078,124.033127 230.057053,124.474121 233.962204,125.069405 
	C232.263626,126.971962 231.300735,128.018219 230.373215,129.094940 
	C226.195816,133.944244 225.269516,139.689255 225.694412,145.840576 
	C225.743912,146.557220 225.237366,147.309540 225.000473,148.049133 
	C223.977158,151.244019 223.306534,154.615463 221.817993,157.575928 
	C220.787201,159.626007 218.939331,161.986572 216.924118,162.696014 
	C207.993256,165.840042 200.199371,170.037277 197.245560,179.807022 
	C190.099777,176.934586 187.206436,168.311981 190.452652,161.863434 
	C191.257614,160.264359 190.470825,157.920776 190.665619,155.944061 
	C190.937164,153.188553 191.680527,150.466705 191.802536,147.711884 
	C192.092743,141.159393 190.700058,139.716721 182.840683,138.497818 
	C182.840683,136.054001 182.840683,133.474686 183.212006,130.287811 
	C184.696259,129.423660 185.801819,128.988663 186.923401,128.942398 
	C191.071594,128.771301 191.800415,126.792656 189.714676,122.516045 
	C186.971344,125.123978 184.432816,127.537209 181.894287,129.950439 
	C178.828491,133.048676 175.833954,136.223099 172.652725,139.197891 
	C171.719498,140.070587 170.160889,140.988708 169.055618,140.816437 
	C166.659393,140.442963 164.370789,139.378937 161.757965,138.314606 
M213.036133,150.487305 
	C213.175003,150.507767 213.313873,150.528229 213.452744,150.548691 
	C213.345581,150.326813 213.238403,150.104950 213.418137,149.420929 
	C215.730927,148.281952 217.652679,147.066528 216.394882,143.866867 
	C215.044495,140.431641 212.340881,139.208588 209.277237,140.194992 
	C207.553360,140.750061 205.516632,142.927551 205.173096,144.678665 
	C204.224991,149.511383 205.773071,150.442352 213.036133,150.487305 
M166.488892,135.506302 
	C167.181213,135.546478 167.873520,135.586655 168.565842,135.626846 
	C168.521393,135.270065 168.476959,134.913300 168.432526,134.556534 
	C167.901276,134.757904 167.370010,134.959290 166.488892,135.506302 
M194.420654,120.177078 
	C194.952286,120.193474 195.486206,120.236160 196.012344,120.189919 
	C196.071930,120.184685 196.087524,119.678886 196.123520,119.405190 
	C195.570938,119.484474 195.018341,119.563751 194.420654,120.177078 
M180.571823,121.514648 
	C180.571823,121.514648 180.478699,121.566589 180.571823,121.514648 
z"/>
<path fill="#DFDFDF" opacity="1.000000" stroke="none" 
	d="
M163.913605,169.032578 
	C162.471664,173.384766 161.036774,177.439133 159.697983,181.524994 
	C159.311935,182.703125 159.534073,184.189041 158.900787,185.156296 
	C157.330948,187.553940 155.428101,189.733521 153.465637,192.248611 
	C154.135757,185.953735 148.308533,184.254822 144.542114,180.684158 
	C142.612137,178.854477 141.361786,175.518585 144.217224,173.227585 
	C147.496811,170.596298 149.674622,164.571304 155.814774,168.778122 
	C156.658707,169.356308 158.452240,168.548477 160.078232,168.348953 
	C159.449585,166.890457 158.886917,165.585037 158.777008,165.330063 
	C160.701889,161.599808 162.271118,158.558762 164.069687,155.121094 
	C169.987961,153.485641 168.236984,159.525436 172.134659,161.654465 
	C168.974854,163.388901 166.653687,164.548996 164.485367,165.946289 
	C164.034134,166.237076 164.148788,167.405991 164.002655,168.170227 
	C163.987503,168.362396 163.972366,168.554565 163.913605,169.032578 
z"/>
<path fill="#848484" opacity="1.000000" stroke="none" 
	d="
M164.388000,168.134964 
	C164.148788,167.405991 164.034134,166.237076 164.485367,165.946289 
	C166.653687,164.548996 168.974854,163.388901 172.134659,161.654465 
	C168.236984,159.525436 169.987961,153.485641 163.904846,154.760925 
	C162.794113,154.530090 162.077576,154.262802 160.908371,153.669327 
	C155.800232,150.421906 158.749741,147.160828 160.037033,143.974030 
	C160.037033,143.974030 160.006241,144.007904 160.257889,143.955292 
	C160.684525,143.591461 160.859512,143.280212 161.034485,142.968964 
	C161.034485,142.968964 161.007965,143.007614 160.992935,143.025589 
	C163.651428,143.074860 166.325211,143.092789 168.998428,143.140701 
	C172.605392,143.205338 172.796814,145.899582 173.477249,148.538391 
	C173.854828,150.002686 175.343658,151.160538 176.238998,152.517639 
	C176.945587,153.588623 178.317230,155.107651 178.005188,155.817062 
	C176.240921,159.828217 179.613785,161.663986 181.621979,164.755569 
	C180.263336,165.833359 178.929581,166.851929 177.645248,167.929428 
	C177.119202,168.370743 176.630173,168.892120 176.245987,169.459457 
	C175.297760,170.859772 174.604095,173.261124 173.464432,173.481293 
	C172.204239,173.724762 170.533524,172.032043 169.093277,171.102524 
	C167.620682,170.152115 166.210739,169.104660 164.388000,168.134964 
z"/>
<path fill="#A5A5A5" opacity="1.000000" stroke="none" 
	d="
M354.875458,240.570587 
	C359.994080,235.886627 365.042480,236.140472 370.248322,240.803787 
	C370.649597,241.016464 370.733826,241.218948 370.596649,242.007690 
	C369.458466,245.425201 368.541656,248.256470 367.624878,251.087738 
	C365.087128,249.638718 363.544250,249.888855 363.633728,253.661285 
	C363.416748,254.025040 362.939911,253.961411 362.939911,253.961411 
	C362.636597,253.172974 362.333282,252.384537 362.033325,250.909058 
	C362.424042,249.558319 362.875854,248.923126 363.184906,248.224762 
	C363.753235,246.940430 364.237579,245.618881 364.756958,244.312836 
	C363.291748,243.925034 361.732758,243.040756 360.388824,243.294693 
	C359.145447,243.529617 358.132294,244.983078 357.017761,245.899933 
	C356.336029,244.232452 355.654297,242.564957 354.875458,240.570587 
z"/>
<path fill="#939393" opacity="1.000000" stroke="none" 
	d="
M230.601288,228.015045 
	C232.051849,228.246521 233.224014,228.776657 234.453293,229.046356 
	C240.296036,230.328140 243.115540,234.356598 241.889557,239.785629 
	C240.934509,244.014862 236.759155,246.724380 232.443726,245.915298 
	C227.315231,244.953751 224.635056,240.331314 225.880966,234.615479 
	C225.950684,234.295700 225.926285,233.955414 225.927841,233.224121 
	C225.909988,232.823578 225.981247,232.895859 226.218048,232.762482 
	C226.622665,232.243637 226.790497,231.858154 226.958313,231.472656 
	C228.088593,230.379684 229.218887,229.286697 230.601288,228.015045 
M236.961761,242.453232 
	C239.758026,240.232666 241.039536,237.586227 238.737946,234.349213 
	C236.666626,231.436096 233.253265,230.943008 230.921494,232.886353 
	C229.284042,234.251038 228.246292,237.826630 228.774017,239.961807 
	C229.649887,243.505524 232.837433,244.364182 236.961761,242.453232 
z"/>
<path fill="#8B8B8B" opacity="1.000000" stroke="none" 
	d="
M362.659424,254.127930 
	C362.939911,253.961411 363.416748,254.025040 363.656677,254.036682 
	C366.680969,257.631653 370.557373,260.516846 369.519775,266.147766 
	C369.188232,267.946991 371.079407,270.155823 371.675415,272.605103 
	C371.192078,273.068542 370.986877,273.104187 370.781647,273.139801 
	C368.649170,273.012787 366.516693,272.885803 364.630005,272.773438 
	C367.134308,266.629822 361.128479,263.989441 358.671722,258.612671 
	C361.064789,259.513824 362.648071,260.110016 364.995636,260.994049 
	C363.997467,258.438477 363.188202,256.366455 362.659424,254.127930 
z"/>
<path fill="#8D8D8D" opacity="1.000000" stroke="none" 
	d="
M243.939270,196.812866 
	C243.923981,197.412491 243.851791,197.595047 243.212173,197.862671 
	C241.789642,198.323349 240.878616,198.676880 239.967590,199.030396 
	C239.967590,199.030411 239.970001,198.987915 239.990295,198.985306 
	C238.894257,198.873642 237.777908,198.764587 236.528427,198.642517 
	C236.923447,196.179108 237.294495,193.865128 237.729980,191.149323 
	C235.801208,193.215027 234.197296,194.932831 232.593369,196.650635 
	C231.940552,196.210037 231.287750,195.769440 230.634933,195.328842 
	C231.561295,193.623062 232.509872,191.928848 233.406311,190.207474 
	C234.016388,189.036026 234.493439,187.792343 235.146393,186.647339 
	C235.521301,185.989868 236.110001,185.006058 236.635437,184.984802 
	C237.482956,184.950516 238.822235,185.353119 239.143524,185.983887 
	C240.879379,189.391815 242.365860,192.926743 243.939270,196.812866 
z"/>
<path fill="#878787" opacity="1.000000" stroke="none" 
	d="
M376.037720,263.969421 
	C379.212769,261.635651 382.088196,259.500793 384.977783,257.355408 
	C387.787140,260.069916 387.425659,263.371643 383.317047,270.970367 
	C379.307068,270.382324 374.959961,270.264252 376.037720,263.969421 
z"/>
<path fill="#9E9E9E" opacity="1.000000" stroke="none" 
	d="
M277.328918,304.889984 
	C275.029266,302.120239 271.933197,299.648712 273.369385,295.348297 
	C274.942017,290.639130 277.802216,288.935364 284.758850,289.118774 
	C284.736603,290.617920 284.272278,292.076630 283.773285,293.644226 
	C281.305756,295.458740 276.103760,295.768860 279.423492,301.451996 
	C279.745483,302.003235 278.257690,303.611633 277.328918,304.889984 
z"/>
<path fill="#8D8D8D" opacity="1.000000" stroke="none" 
	d="
M289.571045,148.477402 
	C289.807983,143.426987 291.341766,139.633820 296.072296,137.882019 
	C297.234497,137.451645 298.441345,137.141663 299.627655,136.776337 
	C298.980927,137.937347 298.343781,139.103806 297.685486,140.258240 
	C296.313934,142.663559 294.315002,144.922470 293.728302,147.503922 
	C293.153931,150.031097 294.013672,152.884216 294.271393,155.917450 
	C290.660034,157.065094 288.831970,155.002167 289.571045,148.477402 
z"/>
<path fill="#878787" opacity="1.000000" stroke="none" 
	d="
M294.040070,292.211609 
	C294.095612,286.298340 298.464722,284.130402 301.986511,281.193359 
	C303.026703,284.261627 300.410065,295.046539 298.168091,296.713348 
	C297.458679,297.240753 295.608002,297.567383 295.542511,297.421051 
	C294.854797,295.883362 294.423492,294.231079 294.040070,292.211609 
z"/>
<path fill="#F2EEEB" opacity="1.000000" stroke="none" 
	d="
M153.852921,219.617432 
	C156.719040,224.381714 155.038544,228.904785 149.574112,229.687988 
	C148.074142,229.902969 146.192429,227.454559 144.415115,225.788757 
	C145.190872,221.083267 147.423691,218.938171 152.024872,220.176804 
	C152.546249,220.317169 153.239426,219.819336 153.852921,219.617432 
z"/>
<path fill="#878787" opacity="1.000000" stroke="none" 
	d="
M257.725494,136.254547 
	C257.141144,138.279419 256.556793,140.304291 255.591583,143.648926 
	C253.128036,139.606415 251.218857,136.473572 248.856812,132.597580 
	C254.107651,131.281754 258.154572,130.267624 262.201508,129.253494 
	C262.516663,129.957687 262.831848,130.661896 263.147003,131.366089 
	C261.567535,132.521759 259.988098,133.677429 258.265564,135.341614 
	C257.990173,135.984955 257.857849,136.119751 257.725494,136.254547 
z"/>
<path fill="#878787" opacity="1.000000" stroke="none" 
	d="
M388.735474,290.996399 
	C385.949127,295.888397 382.768188,300.805298 379.291962,305.885101 
	C378.942383,305.721954 378.882324,305.396729 378.834564,305.069733 
	C377.322601,294.710815 377.973175,293.749725 388.735474,290.996399 
z"/>
<path fill="#939393" opacity="1.000000" stroke="none" 
	d="
M153.868240,219.337143 
	C153.239426,219.819336 152.546249,220.317169 152.024872,220.176804 
	C147.423691,218.938171 145.190872,221.083267 144.112183,225.656586 
	C143.880020,225.963974 143.492065,226.009354 143.297150,226.017975 
	C142.263199,223.964767 140.377655,221.587189 140.877838,219.929443 
	C141.383408,218.253876 144.134750,216.524323 146.117340,216.220123 
	C148.353928,215.876953 150.830429,217.097321 153.535248,217.786896 
	C153.873123,218.309692 153.878342,218.683258 153.868240,219.337143 
z"/>
<path fill="#858585" opacity="1.000000" stroke="none" 
	d="
M367.764984,251.388916 
	C368.541656,248.256470 369.458466,245.425201 370.649414,242.332397 
	C371.463593,242.683990 371.980896,243.319092 372.547363,243.906769 
	C376.767578,248.285156 376.439728,250.576828 370.429260,254.715378 
	C369.656708,253.789459 368.780914,252.739777 367.764984,251.388916 
z"/>
<path fill="#8B8B8B" opacity="1.000000" stroke="none" 
	d="
M224.377182,174.299530 
	C219.693466,175.015625 218.190552,172.891296 218.499161,168.455490 
	C220.285599,168.597519 221.840836,168.624802 223.361252,168.868896 
	C224.910782,169.117661 226.426071,169.579697 227.956345,169.948349 
	C226.878418,171.346207 225.800491,172.744080 224.377182,174.299530 
z"/>
<path fill="#848484" opacity="1.000000" stroke="none" 
	d="
M359.324280,124.895782 
	C356.574219,123.124290 357.516968,121.650009 359.344513,120.513603 
	C361.117859,119.410889 363.075134,118.604050 364.826630,117.729698 
	C366.372925,124.117546 364.971863,126.341057 359.324280,124.895782 
z"/>
<path fill="#F7F7F7" opacity="1.000000" stroke="none" 
	d="
M357.019348,246.279541 
	C358.132294,244.983078 359.145447,243.529617 360.388824,243.294693 
	C361.732758,243.040756 363.291748,243.925034 364.756958,244.312836 
	C364.237579,245.618881 363.753235,246.940430 363.184906,248.224762 
	C362.875854,248.923126 362.424042,249.558319 361.968231,250.594879 
	C360.273529,249.531555 358.647217,248.095352 357.019348,246.279541 
z"/>
<path fill="#9E9E9E" opacity="1.000000" stroke="none" 
	d="
M370.885742,273.501587 
	C370.986877,273.104187 371.192078,273.068542 371.709290,273.014282 
	C377.139435,274.131744 382.257660,275.267883 387.375854,276.404022 
	C387.275909,276.883026 387.175964,277.362030 387.075989,277.841064 
	C381.759216,276.272552 375.796478,278.165680 370.885742,273.501587 
z"/>
<path fill="#8B8B8B" opacity="1.000000" stroke="none" 
	d="
M391.964111,269.331116 
	C392.117859,270.678741 392.267090,271.655457 392.446655,272.830811 
	C390.741699,272.830811 389.134888,272.830811 386.736298,272.830811 
	C387.297882,270.095428 387.795227,267.673096 388.292542,265.250763 
	C388.868835,265.064819 389.445099,264.878906 390.021362,264.692993 
	C390.667450,266.115417 391.313507,267.537842 391.964111,269.331116 
z"/>
<path fill="#A5A5A5" opacity="1.000000" stroke="none" 
	d="
M283.858734,120.831329 
	C284.123260,122.193054 284.341003,123.247559 284.605377,124.527855 
	C286.196167,123.131325 287.489685,121.995728 289.496887,120.233620 
	C287.886963,127.262436 286.859711,128.164673 281.749664,127.227318 
	C282.220795,124.932037 282.691315,122.624954 283.179749,120.321686 
	C283.196808,120.241280 283.440002,120.120583 283.495605,120.154282 
	C283.627380,120.234123 283.709656,120.395622 283.858734,120.831329 
z"/>
<path fill="#D9D9D9" opacity="1.000000" stroke="none" 
	d="
M182.129791,129.970047 
	C184.432816,127.537209 186.971344,125.123978 189.714676,122.516045 
	C191.800415,126.792656 191.071594,128.771301 186.923401,128.942398 
	C185.801819,128.988663 184.696259,129.423660 183.210571,129.830353 
	C182.837799,129.980484 182.365280,129.989655 182.129791,129.970047 
z"/>
<path fill="#8D8D8D" opacity="1.000000" stroke="none" 
	d="
M153.092499,129.415070 
	C154.853806,129.662430 156.637756,130.302231 159.103943,131.186707 
	C158.568207,132.360840 157.894882,133.836517 157.073517,135.632736 
	C152.763779,135.697449 153.666656,132.301620 153.092499,129.415070 
z"/>
<path fill="#939393" opacity="1.000000" stroke="none" 
	d="
M319.698303,121.490845 
	C318.797150,122.528008 317.764252,123.600510 316.614044,123.745987 
	C315.923981,123.833267 314.674652,122.595711 314.389435,121.721123 
	C314.192291,121.116623 315.410828,119.353493 315.656860,119.417358 
	C317.001678,119.766449 318.241333,120.520805 319.698303,121.490845 
z"/>
<path fill="#878787" opacity="1.000000" stroke="none" 
	d="
M258.329834,135.656998 
	C259.497253,136.674240 260.457367,137.884644 261.417480,139.095047 
	C260.934143,139.424744 260.450775,139.754425 259.967438,140.084106 
	C259.292145,139.029190 258.616821,137.974258 257.833496,136.586945 
	C257.857849,136.119751 257.990173,135.984955 258.329834,135.656998 
z"/>
<path fill="#838383" opacity="1.000000" stroke="none" 
	d="
M145.595093,254.079010 
	C146.005844,254.274750 146.012039,254.454102 146.034393,254.902725 
	C144.654266,255.011490 143.257980,254.851013 141.929962,254.334900 
	C143.062347,254.007065 144.126465,254.034851 145.595093,254.079010 
z"/>
<path fill="#939393" opacity="1.000000" stroke="none" 
	d="
M392.851196,252.948486 
	C392.159332,252.985168 391.488159,252.704132 390.817017,252.423111 
	C391.050049,252.074890 391.283112,251.726669 391.516144,251.378433 
	C391.968048,251.795883 392.419983,252.213333 392.851196,252.948486 
z"/>
<path fill="#858585" opacity="1.000000" stroke="none" 
	d="
M166.752090,131.246399 
	C166.353271,131.477875 165.718597,131.560181 165.044708,131.376801 
	C165.175980,131.052063 165.346436,130.993042 165.779602,130.868164 
	C166.200287,130.900635 166.358246,130.998932 166.752090,131.246399 
z"/>
<path fill="#838383" opacity="1.000000" stroke="none" 
	d="
M404.283081,194.088867 
	C404.814087,194.056381 405.165802,194.269760 405.517517,194.483139 
	C405.227478,194.781662 404.937439,195.080185 404.647369,195.378693 
	C404.466187,195.030701 404.284973,194.682724 404.283081,194.088867 
z"/>
<path fill="#878787" opacity="1.000000" stroke="none" 
	d="
M394.720825,252.212006 
	C394.392822,251.792374 394.273712,251.169891 394.154602,250.547409 
	C394.383881,250.518463 394.613129,250.489502 394.842377,250.460556 
	C394.871521,250.976761 394.900635,251.492966 394.720825,252.212006 
z"/>
<path fill="#858585" opacity="1.000000" stroke="none" 
	d="
M169.760696,118.015121 
	C169.915283,118.259132 169.742538,118.527145 169.296021,118.881424 
	C169.232544,118.705391 169.369598,118.395866 169.760696,118.015121 
z"/>
<path fill="#878787" opacity="1.000000" stroke="none" 
	d="
M378.675110,305.984863 
	C378.877014,306.351105 378.708984,306.717499 378.251404,307.215332 
	C378.076294,306.892853 378.190735,306.438965 378.675110,305.984863 
z"/>
<path fill="#838383" opacity="1.000000" stroke="none" 
	d="
M297.835632,157.158630 
	C297.545197,157.040329 297.372162,156.803940 297.199158,156.567535 
	C297.448639,156.514938 297.698090,156.462357 298.066589,156.605865 
	C298.185608,156.801956 297.953094,157.040527 297.835632,157.158630 
z"/>
<path fill="#838383" opacity="1.000000" stroke="none" 
	d="
M226.695831,231.660828 
	C226.790497,231.858154 226.622665,232.243637 226.190857,232.805328 
	C226.095673,232.604004 226.264496,232.226486 226.695831,231.660828 
z"/>
<path fill="#43baff" opacity="1.000000" stroke="none" 
	d="
M127.390678,76.506355 
	C121.422012,76.165413 119.904816,74.720184 119.861633,69.459282 
	C119.794632,61.294628 119.777321,53.128254 119.870094,44.964096 
	C119.925346,40.102242 122.028717,38.015656 126.948524,37.994888 
	C142.278854,37.930168 157.609711,38.000778 172.940155,37.953159 
	C177.501190,37.938995 179.859650,40.335815 179.957840,44.615074 
	C180.152771,53.109024 180.149780,61.613400 179.967041,70.107841 
	C179.863113,74.938850 176.962631,76.992813 171.432587,75.998596 
	C180.835205,71.204620 176.742416,62.957035 176.907028,56.194023 
	C177.323593,39.078461 179.151062,40.978291 162.002762,40.920418 
	C151.004868,40.883301 140.004395,41.045166 129.009781,40.851803 
	C124.345825,40.769775 122.159760,42.658684 122.164307,47.250683 
	C122.171242,54.249401 121.855972,61.270065 122.351616,68.233429 
	C122.499313,70.308434 124.904152,72.222458 126.273697,74.210999 
	C126.747025,74.898254 127.216972,75.587814 127.390678,76.506355 
z"/>
<path fill="#43baff" opacity="1.000000" stroke="none" 
	d="
M161.847916,53.395233 
	C162.987305,51.631134 164.122940,50.323818 165.258575,49.016499 
	C166.400452,50.418999 168.476974,51.786869 168.530426,53.229694 
	C168.844559,61.707893 168.872177,70.211548 168.508072,78.685646 
	C168.446396,80.120781 166.015289,81.454117 164.678909,82.834488 
	C163.734909,81.331589 162.026016,79.854271 161.974747,78.321510 
	C161.702164,70.172668 161.845093,62.009937 161.847916,53.395233 
z"/>
<path fill="#43baff" opacity="1.000000" stroke="none" 
	d="
M140.849915,78.568863 
	C140.845703,72.638603 140.630829,67.149979 140.987030,61.698673 
	C141.087250,60.164837 142.863373,58.740509 143.870804,57.265957 
	C145.150375,58.707066 147.412628,60.070644 147.533524,61.603168 
	C147.975708,67.207802 147.933243,72.884323 147.550476,78.498116 
	C147.447342,80.010788 145.495010,81.397377 144.391525,82.841843 
	C143.212860,81.569435 142.034195,80.297035 140.849915,78.568863 
z"/>
<path fill="#43baff" opacity="1.000000" stroke="none" 
	d="
M158.013824,70.170479 
	C158.013336,72.956421 158.441833,75.388145 157.882690,77.566338 
	C157.396301,79.461082 155.793900,81.069351 154.684677,82.804214 
	C153.493210,81.146957 151.562866,79.609940 151.269409,77.806549 
	C150.717346,74.413956 150.734543,70.809738 151.259155,67.408279 
	C151.545853,65.549500 153.355911,63.925671 154.478989,62.195892 
	C155.656647,63.870167 156.940323,65.483604 157.954849,67.251511 
	C158.312943,67.875504 158.013199,68.876991 158.013824,70.170479 
z"/>
<path fill="#43baff" opacity="1.000000" stroke="none" 
	d="
M130.396423,79.250542 
	C130.376144,76.356422 130.079025,73.787354 130.641647,71.422844 
	C130.939758,70.169968 132.731735,69.272560 133.849319,68.214684 
	C134.945648,69.439537 136.615234,70.508484 137.000885,71.926605 
	C137.548172,73.939041 137.451309,76.265556 137.056946,78.349480 
	C136.762604,79.904823 135.562149,81.288696 134.765198,82.748932 
	C133.335770,81.719498 131.906342,80.690056 130.396423,79.250542 
z"/>
<path fill="#E4E4E4" opacity="1.000000" stroke="none" 
	d="
M159.645096,143.924255 
	C158.749741,147.160828 155.800232,150.421906 160.613251,153.644073 
	C159.891418,155.006958 159.012085,156.068893 158.024948,157.261002 
	C153.469696,149.052734 153.835480,145.791580 159.645096,143.924255 
z"/>
<path fill="#E4E4E4" opacity="1.000000" stroke="none" 
	d="
M148.149139,141.103149 
	C148.740585,142.702789 148.967316,144.179672 149.547958,145.501038 
	C151.565201,150.091751 151.461746,150.360855 144.990601,152.269455 
	C145.692963,148.129715 146.309326,144.496796 147.239960,140.686096 
	C147.685028,140.641922 147.815857,140.775497 148.149139,141.103149 
z"/>
<path fill="#848484" opacity="1.000000" stroke="none" 
	d="
M155.574142,206.044907 
	C155.198166,206.273514 154.824570,206.271317 154.453079,206.242172 
	C154.442749,206.241364 154.455063,205.951843 154.456802,205.796951 
	C154.830139,205.801422 155.203476,205.805893 155.574142,206.044907 
z"/>
<path fill="#E4E4E4" opacity="1.000000" stroke="none" 
	d="
M160.732574,142.985931 
	C160.859512,143.280212 160.684525,143.591461 160.239288,143.968628 
	C160.122910,143.690689 160.276764,143.346802 160.732574,142.985931 
z"/>
<path fill="#858585" opacity="1.000000" stroke="none" 
	d="
M162.917572,130.728989 
	C162.998520,131.455017 162.983139,131.960541 162.940063,132.845795 
	C162.310013,132.691483 161.707657,132.157394 161.289139,131.202103 
	C161.698227,130.615097 161.862961,130.402451 161.967224,130.142929 
	C162.318024,130.110321 162.602707,130.232162 162.917572,130.728989 
z"/>
<path fill="#858585" opacity="1.000000" stroke="none" 
	d="
M161.735779,130.163849 
	C161.862961,130.402451 161.698227,130.615097 161.293365,130.876556 
	C161.064072,130.620499 161.194260,130.358002 161.735779,130.163849 
z"/>
<path fill="#DFDFDF" opacity="1.000000" stroke="none" 
	d="
M254.926422,221.783752 
	C254.972610,218.798492 253.733429,217.671692 251.193481,218.126312 
	C247.954788,218.706039 244.730621,219.366409 241.494675,219.962158 
	C240.015076,220.234558 238.522324,220.435547 237.189774,220.644699 
	C239.198349,218.187988 240.927902,216.023621 242.709198,213.902725 
	C248.807968,206.641190 251.487625,205.753738 260.260376,215.244995 
	C263.209991,212.606827 263.209991,212.606827 268.143707,219.154236 
	C268.768127,217.814514 269.352081,216.822021 269.690491,215.751877 
	C269.953583,214.919937 269.910492,213.991180 270.642548,212.685547 
	C272.149170,220.824646 278.184662,219.082779 283.561462,219.143921 
	C283.866364,223.238037 283.386719,226.301071 278.336121,225.788620 
	C275.723267,225.523529 273.025543,225.402649 270.553894,224.622116 
	C267.777496,223.745300 265.665497,223.551041 264.562531,227.223648 
	C261.190826,225.460037 258.069611,223.827423 254.926422,221.783752 
M281.391754,220.912491 
	C281.364960,220.716110 281.338196,220.519730 281.311401,220.323334 
	C281.218628,220.558792 281.125854,220.794250 280.716095,221.031570 
	C280.803223,221.011719 280.890350,220.991867 281.391754,220.912491 
z"/>
<path fill="#A2A2A2" opacity="1.000000" stroke="none" 
	d="
M327.670410,161.860260 
	C323.544281,162.037918 320.485413,160.429626 319.667328,156.886902 
	C319.055420,154.237152 318.931183,150.318359 320.445984,148.630173 
	C322.289795,146.575287 326.325378,145.043564 328.955505,145.570114 
	C331.282227,146.035950 333.755524,149.333923 334.763367,151.926102 
	C336.038483,155.205811 334.356964,158.384796 331.203156,160.347580 
	C330.230072,160.953186 329.110596,161.323578 327.670410,161.860260 
z"/>
<path fill="#DFDFDF" opacity="1.000000" stroke="none" 
	d="
M279.425171,210.937744 
	C277.507019,210.949310 275.996796,210.881409 274.486572,210.813507 
	C275.043091,208.565506 275.599609,206.317520 276.159363,204.056442 
	C279.240448,204.210495 281.118408,210.021591 283.377350,204.769791 
	C285.412994,206.690414 287.320496,208.490128 289.227997,210.289841 
	C289.118988,210.756760 289.009979,211.223679 288.900970,211.690598 
	C285.878357,211.413162 282.855743,211.135712 279.425171,210.937744 
z"/>
<path fill="#DFDFDF" opacity="1.000000" stroke="none" 
	d="
M259.520996,187.784348 
	C260.090424,183.313400 260.492859,179.141602 260.895264,174.969818 
	C264.862000,179.746750 266.846283,184.835129 263.403809,189.691101 
	C262.201630,191.386887 258.409821,191.246796 255.800629,191.945129 
	C255.656921,191.479721 255.513214,191.014313 255.369507,190.548920 
	C256.697662,189.727112 258.025787,188.905304 259.520996,187.784348 
z"/>
<path fill="#D9D9D9" opacity="1.000000" stroke="none" 
	d="
M302.208008,217.859711 
	C300.913635,216.792694 299.723785,215.927750 299.125061,214.759766 
	C298.245544,213.044006 297.704407,211.135361 297.177979,209.264206 
	C296.759552,207.776932 295.868164,205.788589 296.468567,204.805420 
	C297.262146,203.505814 299.306976,202.970291 301.356354,202.500671 
	C297.570190,207.609833 303.103363,210.130737 303.761627,213.762192 
	C304.059967,215.408066 306.616669,217.558212 302.208008,217.859711 
z"/>
<path fill="#D9D9D9" opacity="1.000000" stroke="none" 
	d="
M292.997620,244.117950 
	C293.445709,245.491867 293.695984,246.552277 294.225250,248.794983 
	C287.325531,244.096176 286.435730,237.117157 282.856812,231.831070 
	C283.299988,231.530304 283.743164,231.229538 284.186310,230.928772 
	C287.057495,235.220673 289.928650,239.512573 292.997620,244.117950 
z"/>
<path fill="#DFDFDF" opacity="1.000000" stroke="none" 
	d="
M264.148132,170.193192 
	C264.619293,171.221725 264.753632,172.408066 264.887970,173.594421 
	C264.276581,173.602951 263.665161,173.611496 263.053772,173.620026 
	C263.306274,172.530350 263.558807,171.440689 264.148132,170.193192 
z"/>
<path fill="#E4E4E4" opacity="1.000000" stroke="none" 
	d="
M400.986572,184.982208 
	C400.914398,185.845093 400.852997,186.720657 400.791595,187.596237 
	C400.442200,187.513168 400.092804,187.430115 399.743408,187.347046 
	C399.982880,186.639847 400.222321,185.932648 400.742737,185.119659 
	C401.023743,185.013885 400.997284,184.994904 400.986572,184.982208 
z"/>
<path fill="#E4E4E4" opacity="1.000000" stroke="none" 
	d="
M240.354401,199.081421 
	C240.878616,198.676880 241.789642,198.323349 243.107391,197.970154 
	C242.589813,198.357803 241.665527,198.745132 240.354401,199.081421 
z"/>
<path fill="#43baff" opacity="1.000000" stroke="none" 
	d="
M422.799927,315.092896 
	C429.915039,315.100922 427.282532,320.206268 427.669189,323.465363 
	C428.075134,326.887207 426.106323,328.168427 422.771729,327.939026 
	C419.145264,327.689545 414.649902,329.213928 414.624054,321.451935 
	C412.744141,323.658661 411.502289,324.575104 411.013611,325.793640 
	C409.657837,329.174316 408.383514,332.623627 407.514404,336.153503 
	C406.635223,339.724335 405.022766,341.856598 401.126434,341.087921 
	C399.363068,345.166504 391.994629,348.070465 389.597778,345.082428 
	C387.807983,342.851135 388.177765,338.656677 388.227356,335.346069 
	C388.239471,334.536530 390.823456,333.022247 392.122772,333.124969 
	C395.123688,333.362244 399.490479,330.864868 400.512085,336.368347 
	C401.718323,335.958832 403.642334,335.877319 404.005554,335.082520 
	C405.516357,331.776489 406.726776,328.303772 407.721619,324.799713 
	C408.698364,321.359528 410.038055,318.771057 414.703400,320.278473 
	C414.509216,313.846100 418.850891,315.200470 422.799927,315.092896 
M395.327972,341.942413 
	C395.985077,340.304199 396.642212,338.665985 397.299316,337.027771 
	C396.755341,336.596436 396.211395,336.165100 395.667419,335.733765 
	C394.170349,336.687836 391.919281,337.319427 391.342865,338.667267 
	C390.335510,341.022644 391.888702,342.318604 395.327972,341.942413 
z"/>
<path fill="#43baff" opacity="1.000000" stroke="none" 
	d="
M426.890259,309.950378 
	C416.242737,309.950623 406.076447,310.059509 395.914337,309.900146 
	C391.569397,309.832031 389.866913,311.688873 390.026550,315.894012 
	C390.175201,319.810394 390.058319,323.736847 390.058319,327.658875 
	C389.620514,327.722961 389.182739,327.787048 388.744934,327.851135 
	C388.437561,326.947083 387.890656,326.049774 387.864868,325.137726 
	C387.761292,321.474670 387.762054,317.806030 387.831207,314.141449 
	C387.925537,309.145142 389.811646,307.115936 394.767090,307.081360 
	C407.263916,306.994171 419.761841,307.032837 432.259186,307.064606 
	C436.635315,307.075714 439.123627,309.054657 439.074585,313.734985 
	C439.002991,320.566193 439.369385,327.421722 438.869904,334.216980 
	C438.714264,336.334106 436.500793,339.911499 434.988190,340.042847 
	C427.848633,340.662842 420.625427,340.319214 413.432037,340.319214 
	C413.354156,339.905609 413.276245,339.492035 413.198334,339.078430 
	C414.232849,338.785492 415.263092,338.258270 416.302582,338.239380 
	C421.299957,338.148590 426.302795,338.087799 431.297821,338.227417 
	C435.154083,338.335144 436.801331,336.496399 436.804657,332.828552 
	C436.808777,328.329498 436.815094,323.830414 436.815002,319.331360 
	C436.814758,309.952789 436.813263,309.952789 426.890259,309.950378 
z"/>
<path fill="#E4E4E4" opacity="1.000000" stroke="none" 
	d="
M168.628540,320.519073 
	C168.675537,320.589935 168.485916,320.611694 168.485916,320.611694 
	C168.485916,320.611694 168.581543,320.448212 168.628540,320.519073 
z"/>
<path fill="#F2EEEB" opacity="1.000000" stroke="none" 
	d="
M76.700211,315.066528 
	C83.375168,320.542633 83.626678,322.779480 78.694923,326.741028 
	C75.106224,329.623718 73.418877,326.662903 71.276802,324.718506 
	C69.155434,322.792908 67.997292,320.747772 70.753036,318.556641 
	C72.476341,317.186462 74.465233,316.150269 76.700211,315.066528 
z"/>
<path fill="#F2F0EE" opacity="1.000000" stroke="none" 
	d="
M453.119690,101.807869 
	C452.187256,102.500069 451.543182,102.954094 450.553040,103.652084 
	C450.217224,101.895142 449.959625,100.547279 449.634033,98.843925 
	C444.985504,98.843925 440.505737,98.584869 436.070862,98.919716 
	C431.966064,99.229630 430.822754,97.563438 431.099426,93.759186 
	C431.362183,90.145988 431.155975,86.498672 431.155975,82.450531 
	C439.490143,82.450531 447.494934,82.450531 456.206818,82.450531 
	C456.206818,87.579414 456.396820,92.667862 456.078705,97.724350 
	C455.994904,99.056862 454.340973,100.290596 453.119690,101.807869 
z"/>
<path fill="#BDBDBD" opacity="1.000000" stroke="none" 
	d="
M212.829147,150.188293 
	C205.773071,150.442352 204.224991,149.511383 205.173096,144.678665 
	C205.516632,142.927551 207.553360,140.750061 209.277237,140.194992 
	C212.340881,139.208588 215.044495,140.431641 216.394882,143.866867 
	C217.652679,147.066528 215.730927,148.281952 213.197495,149.726654 
	C212.976852,150.032364 212.829147,150.188293 212.829147,150.188293 
z"/>
<path fill="#858585" opacity="1.000000" stroke="none" 
	d="
M166.663818,135.333496 
	C167.370010,134.959290 167.901276,134.757904 168.432526,134.556534 
	C168.476959,134.913300 168.521393,135.270065 168.565842,135.626846 
	C167.873520,135.586655 167.181213,135.546478 166.663818,135.333496 
z"/>
<path fill="#858585" opacity="1.000000" stroke="none" 
	d="
M194.443207,119.910049 
	C195.018341,119.563751 195.570938,119.484474 196.123520,119.405190 
	C196.087524,119.678886 196.071930,120.184685 196.012344,120.189919 
	C195.486206,120.236160 194.952286,120.193474 194.443207,119.910049 
z"/>
<path fill="#858585" opacity="1.000000" stroke="none" 
	d="
M180.525269,121.540619 
	C180.478699,121.566589 180.571823,121.514648 180.525269,121.540619 
z"/>
<path fill="#BDBDBD" opacity="1.000000" stroke="none" 
	d="
M213.054047,149.957718 
	C213.238403,150.104950 213.345581,150.326813 213.452744,150.548691 
	C213.313873,150.528229 213.175003,150.507767 212.932648,150.337799 
	C212.829147,150.188293 212.976852,150.032364 213.054047,149.957718 
z"/>
<path fill="#BDBDBD" opacity="1.000000" stroke="none" 
	d="
M236.642776,242.640381 
	C232.837433,244.364182 229.649887,243.505524 228.774017,239.961807 
	C228.246292,237.826630 229.284042,234.251038 230.921494,232.886353 
	C233.253265,230.943008 236.666626,231.436096 238.737946,234.349213 
	C241.039536,237.586227 239.758026,240.232666 236.642776,242.640381 
M231.225266,236.743591 
	C232.412674,237.775620 233.600082,238.807648 234.787491,239.839661 
	C235.184830,238.740906 235.582153,237.642151 235.979477,236.543396 
	C234.538727,236.388962 233.097977,236.234528 231.225266,236.743591 
z"/>
<path fill="#838383" opacity="1.000000" stroke="none" 
	d="
M281.033081,221.029694 
	C281.125854,220.794250 281.218628,220.558792 281.311401,220.323334 
	C281.338196,220.519730 281.364960,220.716110 281.197693,220.957397 
	C281.003662,221.002304 281.033112,221.029709 281.033081,221.029694 
z"/>
<path fill="#838383" opacity="1.000000" stroke="none" 
	d="
M280.990570,220.987152 
	C280.890350,220.991867 280.803223,221.011719 280.874603,221.030640 
	C281.033112,221.029709 281.003662,221.002304 280.990570,220.987152 
z"/>
<path fill="#F2EEEB" opacity="1.000000" stroke="none" 
	d="
M394.909485,341.960999 
	C391.888702,342.318604 390.335510,341.022644 391.342865,338.667267 
	C391.919281,337.319427 394.170349,336.687836 395.667419,335.733765 
	C396.211395,336.165100 396.755341,336.596436 397.299316,337.027771 
	C396.642212,338.665985 395.985077,340.304199 394.909485,341.960999 
z"/>
<path fill="#F7F7F7" opacity="1.000000" stroke="none" 
	d="
M231.441254,236.411850 
	C233.097977,236.234528 234.538727,236.388962 235.979477,236.543396 
	C235.582153,237.642151 235.184830,238.740906 234.787491,239.839661 
	C233.600082,238.807648 232.412674,237.775620 231.441254,236.411850 
z"/>
</svg>