<svg id="Layer_1" data-name="Layer 1" xmlns="http://www.w3.org/2000/svg" width="453.3" height="337.4" viewBox="0 0 453.3 337.4"><title>power_bi</title><path d="M434.1,87.3H77.9a48.61,48.61,0,0,0-48.5,48.5V330a48.61,48.61,0,0,0,48.5,48.5H90.2V363H82.1a34.74,34.74,0,0,1-34.6-34.6V141.2a34.74,34.74,0,0,1,34.6-34.6H430a34.74,34.74,0,0,1,34.6,34.6V328.4A34.74,34.74,0,0,1,430,363h-8.1v15.4h12.3a48.61,48.61,0,0,0,48.5-48.5V135.8A48.83,48.83,0,0,0,434.1,87.3Z" transform="translate(-29.4 -87.3)" style="fill:#f26522"/><path d="M136,424.7h0a24.11,24.11,0,0,1-24.1-24.1V340.8A24.11,24.11,0,0,1,136,316.7h0a24.11,24.11,0,0,1,24.1,24.1v59.8A24.11,24.11,0,0,1,136,424.7Z" transform="translate(-29.4 -87.3)" style="fill:#f26522"/><path d="M213.1,424.7h0A24.11,24.11,0,0,1,189,400.6V257.9a24.11,24.11,0,0,1,24.1-24.1h0a24.11,24.11,0,0,1,24.1,24.1V400.6A24.11,24.11,0,0,1,213.1,424.7Z" transform="translate(-29.4 -87.3)" style="fill:#f26522"/><path d="M371.2,424.7h0a24.11,24.11,0,0,1-24.1-24.1V194.3a24.11,24.11,0,0,1,24.1-24.1h0a24.11,24.11,0,0,1,24.1,24.1V400.6A24.11,24.11,0,0,1,371.2,424.7Z" transform="translate(-29.4 -87.3)" style="fill:#f26522"/><path d="M292.2,424.7h0a24.11,24.11,0,0,1-24.1-24.1v-106a24.11,24.11,0,0,1,24.1-24.1h0a24.11,24.11,0,0,1,24.1,24.1v106A24.11,24.11,0,0,1,292.2,424.7Z" transform="translate(-29.4 -87.3)" style="fill:#f26522"/></svg>