<svg id="Слой_1" data-name="Слой 1" xmlns="http://www.w3.org/2000/svg" xmlns:xlink="http://www.w3.org/1999/xlink" width="2246.3" height="1720.8" viewBox="0 0 2246.3 1720.8"><defs><linearGradient id="linear-gradient" x1="719.36" y1="-1161.09" x2="1865.87" y2="883.82" gradientTransform="translate(0 1156.62)" gradientUnits="userSpaceOnUse"><stop offset="0" stop-color="#ff9f55"/><stop offset="1" stop-color="#ffd255"/></linearGradient><linearGradient id="linear-gradient-2" x1="1310.05" y1="-1264.48" x2="1310.05" y2="-862.27" gradientTransform="translate(0 1156.62)" gradientUnits="userSpaceOnUse"><stop offset="0" stop-color="#dfeaf0"/><stop offset="1" stop-color="#fff9f5"/></linearGradient><linearGradient id="linear-gradient-3" x1="1371.6" y1="32.38" x2="1511.8" y2="32.38" xlink:href="#linear-gradient"/><linearGradient id="linear-gradient-4" x1="1518.94" y1="54.95" x2="1327.23" y2="-143.34" xlink:href="#linear-gradient"/><linearGradient id="linear-gradient-5" x1="452.25" y1="219.81" x2="439.91" y2="454.27" gradientTransform="translate(0 1156.62)" gradientUnits="userSpaceOnUse"><stop offset="0" stop-color="#fff"/><stop offset="1" stop-color="#d4f5f3"/></linearGradient><linearGradient id="linear-gradient-6" x1="454.86" y1="157.23" x2="436.95" y2="262.79" gradientTransform="translate(0 1156.62)" gradientUnits="userSpaceOnUse"><stop offset="0.01" stop-color="#ffffef"/><stop offset="0.88" stop-color="#ff8d54"/></linearGradient><linearGradient id="linear-gradient-7" x1="26.63" y1="1322.26" x2="51.13" y2="1283.93" gradientTransform="matrix(0.87, 0.49, -0.49, 0.87, 888.93, 112.72)" gradientUnits="userSpaceOnUse"><stop offset="0" stop-color="#ff241d"/><stop offset="0.99" stop-color="#ffe377"/></linearGradient><linearGradient id="linear-gradient-8" x1="4842.15" y1="-480.28" x2="4828.34" y2="-398.85" gradientTransform="matrix(-0.72, 0.48, 0.31, 1.34, 3899.53, -485.98)" xlink:href="#linear-gradient-6"/><linearGradient id="linear-gradient-9" x1="4847.68" y1="-478.23" x2="4837.29" y2="-416.96" gradientTransform="matrix(-0.72, 0.48, 0.31, 1.34, 3899.53, -485.98)" xlink:href="#linear-gradient-5"/><linearGradient id="linear-gradient-10" x1="164.73" y1="1780.29" x2="187.59" y2="1744.54" gradientTransform="translate(1422.79 -252.65) rotate(43.1)" xlink:href="#linear-gradient-7"/><linearGradient id="linear-gradient-11" x1="5101.36" y1="-221.01" x2="5088.48" y2="-145.07" gradientTransform="matrix(-0.81, 0.3, -0.01, 1.37, 4489.32, -117.11)" xlink:href="#linear-gradient-6"/><linearGradient id="linear-gradient-12" x1="5106.52" y1="-219.1" x2="5096.82" y2="-161.96" gradientTransform="matrix(-0.81, 0.3, -0.01, 1.37, 4489.32, -117.11)" xlink:href="#linear-gradient-5"/><linearGradient id="linear-gradient-13" x1="3366.92" y1="-1194.12" x2="3384.82" y2="-1222.13" gradientTransform="matrix(-0.72, 0.7, 0.73, 0.73, 3897.19, -311.09)" xlink:href="#linear-gradient-7"/><linearGradient id="linear-gradient-14" x1="-300.26" y1="970.94" x2="-310.36" y2="1030.43" gradientTransform="matrix(0.84, 0.29, 0.07, 1.39, 774.12, -144.58)" xlink:href="#linear-gradient-6"/><linearGradient id="linear-gradient-15" x1="-296.24" y1="972.43" x2="-303.84" y2="1017.19" gradientTransform="matrix(0.84, 0.29, 0.07, 1.39, 774.12, -144.58)" xlink:href="#linear-gradient-5"/><linearGradient id="linear-gradient-16" x1="448.19" y1="267.93" x2="452.9" y2="130.31" gradientTransform="translate(0 1156.62)" xlink:href="#linear-gradient-7"/><linearGradient id="linear-gradient-17" x1="440.14" y1="452.15" x2="450.24" y2="157.31" gradientTransform="translate(0 1156.62)" xlink:href="#linear-gradient-7"/><linearGradient id="linear-gradient-18" x1="549.11" y1="142.04" x2="552.97" y2="29.39" xlink:href="#linear-gradient-5"/><linearGradient id="linear-gradient-19" x1="518.98" y1="141.01" x2="522.84" y2="28.36" xlink:href="#linear-gradient-5"/><linearGradient id="linear-gradient-20" x1="512.43" y1="140.78" x2="516.29" y2="28.14" xlink:href="#linear-gradient-5"/><linearGradient id="linear-gradient-21" x1="399.79" y1="134.17" x2="395.93" y2="21.53" xlink:href="#linear-gradient-5"/><linearGradient id="linear-gradient-22" x1="429.82" y1="133.15" x2="425.96" y2="20.5" xlink:href="#linear-gradient-5"/><linearGradient id="linear-gradient-23" x1="436.37" y1="132.92" x2="432.51" y2="20.27" xlink:href="#linear-gradient-5"/><linearGradient id="linear-gradient-24" x1="449.6" y1="218.78" x2="455.26" y2="54.15" gradientTransform="translate(0 1156.62)" xlink:href="#linear-gradient-7"/><linearGradient id="linear-gradient-25" x1="396.19" y1="248.16" x2="338.03" y2="130.75" xlink:href="#linear-gradient-5"/><linearGradient id="linear-gradient-26" x1="427.68" y1="232.56" x2="369.52" y2="115.15" xlink:href="#linear-gradient-5"/><linearGradient id="linear-gradient-27" x1="434.44" y1="229.21" x2="376.28" y2="111.8" xlink:href="#linear-gradient-5"/></defs><title>proactive-alerts</title><path d="M852,1442.7h727.3a61.09,61.09,0,0,0,61.1-61.1V379.8a61.09,61.09,0,0,0-61.1-61.1H852a61.09,61.09,0,0,0-61.1,61.1V1381.6A61.09,61.09,0,0,0,852,1442.7Z" style="fill:url(#linear-gradient)"/><path d="M1462.8,758.2l-.6-2.6c.5-.1,55.5-12.6,123.8-22.3,63-8.9,150.6-17.1,209.8-5.5h.1c.3.1,29.4,8.2,71.3,2.8,38.6-5,96.3-22.8,151.7-79.5l1.9,1.9c-24.7,25.3-52,45.1-80.9,58.9a244.07,244.07,0,0,1-72.4,21.5c-41.4,5.3-70.6-2.4-72.1-2.9C1682.6,708.5,1465,757.7,1462.8,758.2Z" style="fill:#97a43c"/><path d="M1837.9,821.1a91.6,91.6,0,0,1-53.1-16.7c-19.7-13.7-34.5-34.7-41.7-59.1-11.8-40.1-1.2-88.7,49.1-107.1,49.7-18.2,80.5-4.8,110.3,8.2,32.4,14.2,63,27.5,116.9,4.5l2.7-1.2-.9,2.8c-.1.4-12,35.5-37.5,73.3-15,22.2-31.7,41-49.6,55.8-22.5,18.6-46.9,30.9-72.8,36.8A106.44,106.44,0,0,1,1837.9,821.1ZM1838,632c-13.2,0-28,2.4-45,8.7-48.7,17.8-58.9,65-47.4,103.9,13.4,45.3,57.2,84.4,115,71.2,57.6-13.1,97.4-57,120.7-91.5a338.75,338.75,0,0,0,36.2-69.9c-53.3,21.9-85.3,7.9-116.3-5.6C1882.3,640.5,1862.8,632,1838,632Z" style="fill:#97a43c"/><rect x="1824.14" y="692.06" width="2.7" height="149.4" transform="translate(168.21 1850.15) rotate(-55.96)" style="fill:#97a43c"/><rect x="1790.42" y="686.98" width="122.7" height="2.7" transform="translate(59.04 1518.36) rotate(-45.23)" style="fill:#97a43c"/><path d="M1731.4,923.7l1.2-7.4c.2-1.3,4.5-31.3-30.1-44.2-21-7.9-58.6-29.7-66.3-61.7-4.6-18.9,1.9-38.2,19.3-57.5,17.9-19.8,41.3-22.6,62.6-7.4,18.7,13.3,32.6,38.5,37.2,67.5,3.8,23.8,3.4,61.1-20.2,104.1Zm-41.2-185.1c-11.7,0-23.1,5.4-32.8,16.1-16.8,18.5-23,37.1-18.7,55.1,7.5,30.8,44.2,52.1,64.7,59.8,27.2,10.2,31.6,31.1,32,41.3,38.4-74.7,11.9-141.2-18.9-163.1C1707.9,741.6,1699,738.6,1690.2,738.6Z" style="fill:#97a43c"/><path d="M1735.2,916.9l-2.5-.8c.1-.2,6-20.4,4.1-47.7-1.7-25.1-10.7-61.4-43.4-92.2-28.7-26.9-52-29.4-79.1-32.2-32.3-3.4-68.9-7.2-122.2-55.9l1.8-2c52.7,48.1,88.8,51.9,120.7,55.2,26.4,2.8,51.3,5.4,80.6,32.9,33.4,31.4,42.5,68.5,44.2,94.1A154.12,154.12,0,0,1,1735.2,916.9Z" style="fill:#97a43c"/><rect x="1623.06" y="799.14" width="84.4" height="2.7" transform="translate(552.26 2275.31) rotate(-78.63)" style="fill:#97a43c"/><rect x="1721.49" y="759.81" width="2.7" height="44.4" transform="translate(906.58 2488.89) rotate(-88.86)" style="fill:#97a43c"/><rect x="1683.25" y="840.66" width="63.7" height="2.7" transform="translate(528.31 2339.38) rotate(-77.75)" style="fill:#97a43c"/><rect x="1743.24" y="852.19" width="2.6" height="20.3" transform="translate(-46.22 1624.08) rotate(-49.35)" style="fill:#97a43c"/><path d="M1461.4,421.9s142.5,117.9,84.3,221.4-94.6,18.9-94.6,18.9-43,16.3,13.7-110.3C1491.7,492.3,1461.4,421.9,1461.4,421.9Z" style="fill:#bbd070"/><path d="M1699,266.9s110.4,112.9-14.5,288.5-97.7,262-97.7,262S1376.7,541.7,1699,266.9Z" style="fill:#97a43c"/><path d="M1548.3,766.6c-62.6,17.3-19.9-168.2,71.5-231.1s176.2-74.3,225.7-132.2C1845.5,403.2,1856.7,681.6,1548.3,766.6Z" style="fill:#48753a"/><path d="M1776.4,160.4c-185.3,12-188.8,222.6-188.8,222.6V1386.1H843.7V383s-.8-209.9,189.7-222.6Z" style="fill:url(#linear-gradient-2)"/><rect x="941.4" y="422.4" width="510.9" height="45.1" style="fill:#dfeaf0"/><rect x="941.4" y="526.7" width="436.3" height="31.9" style="fill:#dfeaf0"/><rect x="941.4" y="610.9" width="219.3" height="47.4" style="fill:#dfeaf0"/><rect x="1225.5" y="610.9" width="226.8" height="47.4" style="fill:#dfeaf0"/><rect x="941.4" y="702.3" width="349.4" height="33.8" style="fill:#dfeaf0"/><rect x="941.4" y="786.8" width="393.6" height="18.8" style="fill:#dfeaf0"/><rect x="941.4" y="871.3" width="473.4" height="18.8" style="fill:#dfeaf0"/><path d="M1162.2,1060.7H939.9V954.4h222.3v106.3Zm-219.3-3h216.3V957.4H942.9Z" style="fill:#dfeaf0"/><rect x="1215.7" y="955.9" width="199.1" height="24.4" style="fill:#dfeaf0"/><rect x="1215.7" y="1007.5" width="141.1" height="24.4" style="fill:#dfeaf0"/><rect x="941.4" y="1124.9" width="390.1" height="18.8" style="fill:#dfeaf0"/><rect x="941.4" y="1209.5" width="224.2" height="18.8" style="fill:#dfeaf0"/><path d="M1511.8,1259.1H1371.6V1118.9h140.2Zm-127-13.1h113.9V1132.1H1384.8Z" style="fill:url(#linear-gradient-3)"/><polygon points="1444 1218.4 1394.7 1171.9 1409.7 1156 1444.9 1189.2 1522 1125.9 1535.9 1142.8 1444 1218.4" style="fill:url(#linear-gradient-4)"/><rect x="1711.5" y="1275.5" width="117" height="6.9" style="fill:#e2d2ca"/><rect x="1802.5" y="1300.5" width="10.2" height="315.7" style="fill:#706865"/><rect x="1648.5" y="1273.5" width="81.3" height="9.9" style="fill:#ccbdb7"/><rect x="1673.7" y="1188.9" width="30.8" height="93.5" style="fill:#4667a8"/><rect x="1420" y="1282.6" width="450.4" height="18" style="fill:#b59074"/><path d="M1956.8,1173.9s4.9,69.1-8.6,77.4c-8.5,5.2-42.2,22.6-41.2,25.9s19,29.1,19,29.1,64.8-42.6,66.8-56.1c2-13.1-3.2-101.2-12.1-105.2-6.7-3-10.2-.5-18.6,5.7C1950.5,1159.5,1956.8,1173.9,1956.8,1173.9Z" style="fill:#f75a5a"/><path d="M1838.8,1193.6l-5.7-2.1s7.1-16.7,10.2-16.3c3.6.5,8,1.6,8,1.6Z" style="fill:#ead8cf"/><path d="M1837.5,1196.5c.7-.5,12.1-22.4,12.1-22.4l24.4,3.3-13.2,25.9Z" style="fill:#da9b5b"/><path d="M1877.1,1573.1l2.3,16.1c.3,2.1,22.4-1.2,22.4-1.2l1.8-16.6C1903.6,1571.3,1879.9,1571.2,1877.1,1573.1Z" style="fill:#424773"/><path d="M1879.2,1587.4s-7,8.4-13.8,12.1-17.5,5.1-21.5,8.9c-2.9,2.7-10.6,14.6,17.6,14.3s41.8,1.7,44.8-2.9-4.4-33.4-4.4-33.4S1895.3,1588.9,1879.2,1587.4Z" style="fill:#292c47"/><path d="M1735.2,1573.3l2.3,16.1c.3,2.1,22.4-1.2,22.4-1.2l1.8-16.6C1761.7,1571.5,1738,1571.3,1735.2,1573.3Z" style="fill:#424773"/><path d="M1737.3,1587.6s-7,8.4-13.8,12.1-31.8,6.7-35.8,10.5c-2.9,2.7-7.7,13.8,32,12.8,28.2-.7,41.8,1.7,44.8-2.9s-4.4-33.4-4.4-33.4S1753.8,1589.2,1737.3,1587.6Z" style="fill:#292c47"/><path d="M1948.6,1331.7s-80.5,13.6-98.7,16.5-116.8,27.4-129.1,34.9c-9.8,6,5.1,148.9,8.6,203.5h38.8L1771,1423c46.6,1.2,79.9-10.9,113.8-5.7s62.2,12.5,83.8-16.5C1968.7,1400.7,1969.5,1338,1948.6,1331.7Z" style="fill:#292c47"/><path d="M1869.2,1586.6l37.9-2.3,3.7-161.4c20.1.5,26.9-.8,43.2-2.7l30.6-71c-26.8,5.4-112.6,27-124.1,33.9C1850.6,1389,1865.7,1532.1,1869.2,1586.6Z" style="fill:#292c47"/><path d="M1911.5,1029.8s-29.5-8.2-40.8,14.8-6.2,66.4,8.7,70.5,36.3-.6,42.5-14.9,11.1-34.5,9.6-47.7S1919.4,1032.9,1911.5,1029.8Z" style="fill:#eea886"/><path d="M1887.2,1110.4s.3,17.4-1.6,21.1,41.1,2.8,41.1,2.8-6.8-20.9-2.9-38.8C1927.6,1078,1887.2,1110.4,1887.2,1110.4Z" style="fill:#eea886"/><path d="M1926.1,1089s-2.3,4.7-13.4,3.9-25.8-14.2-30.6-15.4-5-3.9-5-3.9l-2.5,4.4-4.8.7s3.3-13.5-3.9-18.2,3.2-42.9,39.5-33.7c0,0,27.7,5.1,28.1,20.6S1931.4,1080.8,1926.1,1089Z" style="fill:#3a3f47"/><path d="M1883.3,1131.1s.1-7.1,3.3-7.8,33.8-4.9,37.8-3.3l1.7,9.4S1918.5,1134.1,1883.3,1131.1Z" style="fill:#e2d2ca"/><path d="M1874.5,1070.5c.8-5.8,7.4-12.5,11.2-3.4s-2.6,22.3-6.8,21.6S1873.3,1078.4,1874.5,1070.5Z" style="fill:#eea886"/><path d="M1755.1,1215Z" style="fill:#323657"/><path d="M1920.1,1034s36-1.7,6.3,54.5Z" style="fill:#3a3f47"/><polygon points="2000.3 1605.8 1997.7 1613.3 1884.5 1578.2 1889.9 1563 2000.3 1605.8" style="fill:#918783"/><rect x="1880.6" y="1449.9" width="12.9" height="123" style="fill:#918783"/><rect x="1849.1" y="1443.3" width="75.8" height="7.2" style="fill:#5e5854"/><polygon points="1772.8 1605.8 1775.5 1613.3 1888.6 1578.2 1883.6 1562 1772.8 1605.8" style="fill:#918783"/><polygon points="1852.5 1612.5 1852.5 1621.3 1888.6 1578.2 1883.6 1562 1852.5 1612.5" style="fill:#918783"/><circle cx="1772.8" cy="1616.2" r="10.6" style="fill:#bfb2ac"/><circle cx="1862.2" cy="1616.2" r="10.6" style="fill:#bfb2ac"/><circle cx="2000.3" cy="1616.2" r="10.6" style="fill:#bfb2ac"/><path d="M1810.3,1443.3h152.6a13.61,13.61,0,0,0,13.6-13.6v-.3a13.61,13.61,0,0,0-13.6-13.6H1810.3a13.61,13.61,0,0,0-13.6,13.6v.3A13.55,13.55,0,0,0,1810.3,1443.3Z" style="fill:#e2d2ca"/><rect x="1477.6" y="1300.5" width="10.2" height="315.7" style="fill:#706865"/><path d="M1569.7,1234h238.8a13.51,13.51,0,0,0,13.5-13.5V1060a13.51,13.51,0,0,0-13.5-13.5H1569.7a13.51,13.51,0,0,0-13.5,13.5v160.5A13.57,13.57,0,0,0,1569.7,1234Z" style="fill:#5f8be3"/><rect x="1566.6" y="1056.6" width="245" height="148" style="fill:#f5f7ff"/><path d="M1634.1,1282.8v-3.3s4.7-20.8,37.9-20.8,32.5,24.1,32.5,24.1Z" style="fill:#2c4069"/><path d="M1704.9,1261.8s-7.2-.6-9.9-2.2-18.4-12.2-22.2-10.5-28.4,9.3-27.6,12.9,3.1,3.3,4.9,2.6,19.7-4.4,21.3-3.8c0,0-17.6,6.4-17.7,11.1s3.7,5.8,5.4,7.6,3.7,6.2,8.2,6.5,26.7-7.4,31.3-7.7,13,.3,13.6-.5C1712.8,1277.2,1704.9,1261.8,1704.9,1261.8Z" style="fill:#eea886"/><path d="M1836.1,1141c23-4,47.2-9.8,47.2-9.8l42.8-1.7s39.3,8.6,54.8,15.6c1.5.7,1.5,35,5.5,44.1l-12.8,27.1s-7.4,53.6-8.9,77.5c-.7,10.9,2,105.8,2,105.8s-3.8,1.9-33.1,5.1-102.2-1.2-102.7-4.6,14.1-128.5,14.8-135c1-9.9-2.9-55.9-2.9-55.9-5.5,7.4-19.5,40.8-34.2,56.7-8.6,9.3-51.2,15.1-59.2,15.3-17.5.6-49.4,4.1-50.3,2.4-.7-1-2.8-28.3-.8-29,1.8-.6,61-4,76.1-12,5.5-2.9,22.1-39.1,22.1-39.1S1823.5,1146.7,1836.1,1141Z" style="fill:#f75a5a"/><path d="M1920.5,1396.7h71.9a26,26,0,0,0,26-26V1251.1a26,26,0,0,0-26-26h-71.9a26,26,0,0,0-26,26v119.6A26,26,0,0,0,1920.5,1396.7Z" style="fill:#e2d2ca"/><path d="M1916.4,1436.5c18.3,0,33.1-6.1,44-18.2,24.8-27.3,20.3-75.4,20.1-77.5a6.88,6.88,0,0,0-13.7,1.3c.1.5,4,44.1-16.6,66.9-8.3,9.2-19.4,13.7-33.8,13.7a6.9,6.9,0,1,0,0,13.8Z" style="fill:#e2d2ca"/><path d="M896,1229.1a20.74,20.74,0,0,1,4.1,5.6c.8,2.2,3.6,5,4.9,6.6s6.2,9.2,6.9,11.4c.3.9-.1,6.8.7,8.5s2.8,5,1.3,5.6-4.1-1.8-4.1-1.8a2.26,2.26,0,0,1-.6,2.5c-2.3,1.8-3.9,1.1-3.9,1.1s-.5,2-1.6,2.5a4.88,4.88,0,0,1-4.1.4,4.72,4.72,0,0,1-2.7,1.7,4.19,4.19,0,0,1-3.9-1.3s-2.8,1.3-4.1.1-1.5-2.7-2.2-3.9-3.7-12.6-2.2-21.7-5.6-15.9-5.6-15.9Z" style="fill:#eea886"/><path d="M921.2,1299.1H881.9a7.23,7.23,0,0,1-7.2-7.2v-24.8a7.23,7.23,0,0,1,7.2-7.2h39.3a7.23,7.23,0,0,1,7.2,7.2v24.8A7.17,7.17,0,0,1,921.2,1299.1Zm-39.4-34.4a2.43,2.43,0,0,0-2.4,2.4v24.8a2.43,2.43,0,0,0,2.4,2.4h39.3a2.43,2.43,0,0,0,2.4-2.4v-24.8a2.43,2.43,0,0,0-2.4-2.4Z" style="fill:#0e1e2b"/><rect x="827.7" y="1288.5" width="147.6" height="105.8" style="fill:#595c59"/><path d="M838.8,1005.5s-7.6.1-10.8,22.7,2.9,32.1,3.6,41.5,11.8,70.2,12.1,72.9,1.8,35,6.1,43.6,35.9,57.2,36.4,59.6,15.4-8.5,15.4-8.5-24.9-52-26.3-58-11.4-36.2-9.9-45.5-4.4-60.3-3.8-66S853.3,1008.9,838.8,1005.5Z" style="fill:#eea886"/><path d="M838.8,1005.5s-7.6.1-10.8,22.7-.3,30.7,1.6,40.5c1.8,9.3,8.1,65.9,8.4,68.6s7.8,36.8,11.7,48.8c3,9.1,31.2,56.9,31.6,59.4s21.9-11.2,21.9-11.2-27.6-53.8-29-59.7-6.1-26.5-6.3-35.9c-.2-11-7.1-65.1-6.5-70.8S859.9,1013.2,838.8,1005.5Z" style="fill:#384c9e"/><path d="M775.6,1532.7s13.2,19.6,18.5,24.3c0,0,12.2,4.3,13,12.6.5,5.4,0,14.2-13.9,14.5s-22.9-4.5-25.5-12.9-7.4-12.2-7.4-12.2v17.7h-3.1s-.8-17.1-1-20.2-2.3-15.2,4.4-20.6C767.1,1530.5,775.6,1532.7,775.6,1532.7Z" style="fill:#eddad3"/><path d="M864.9,1517.1a56.82,56.82,0,0,0,6.6,11c3.2,4.1,13,21,17.3,22.2s17.7,3.5,18.9,11,1.8,12.8-11.4,13.4-21.8,1.4-28.1-7.9-16.3-15.9-16.3-15.9V1575h-5.1s-2.4-25.1-3.7-26.8-4.9-21,7.3-31C862.4,1507.1,864.9,1517.1,864.9,1517.1Z" style="fill:#eddad3"/><path d="M766.7,1155.3s-16.6,21.6-21.1,47.3,2.7,111.7,2.5,124.4-12,44.2-9.6,68.1,22.1,140.7,22.1,140.7l15.1-3.1s-1.5-121.1,0-131.2,4.4-46.6,5-50.7,37.4-112.5,37.4-131S806.8,1125.2,766.7,1155.3Z" style="fill:#eea886"/><path d="M850.2,1163.8s27.3,104.2,30.6,118.7,7.9,26.4,7.9,32.5c0,14.2-5.3,37.1-5.3,37.1l-18.6,165.1H850.2s-9.2-96.4-10.7-115.8,10.6-49.5,7.7-57.8-47.5-103.5-47.5-103.5S766,1133.5,850.2,1163.8Z" style="fill:#eea886"/><path d="M796.3,1558s-11.5,5.9-21.9-1.9-13.9-20.3-13.9-20.3l15.1-3.1Z" style="fill:#eea886"/><path d="M888.8,1550.3s-11.8,2.9-16.3,0-19.9-28.9-25-30.5c0,0,4.9-10,17.4-2.7C864.9,1517.1,885.4,1546,888.8,1550.3Z" style="fill:#eea886"/><path d="M885.2,1299.1s-50.2,29.5-144.3,29.5c0,0-5.3-109.1,8.3-139.8s104.5-11.6,104.5-11.6S882,1276.5,885.2,1299.1Z" style="fill:#1d3b54"/><path d="M816.6,997.3s14.6,6.9,19.7,7.9,24.7,26.5,28.2,35.9,0,23.3-7.1,39.7-.4,21.9-3.6,38.3-6.1,51.2-5.5,60.3-81.9,10.8-100.8-5.8c0,0,18.9-28.4,21.4-32.4s.4-26.1-1.8-31.8-17.1-53.9-17.1-53.9-12.1-37-1.2-45.6c9.5-7.4,35.5-10,40.1-11.7S807.1,995.9,816.6,997.3Z" style="fill:#eddad3"/><path d="M821.3,1029.9l8.9-10.4-7.7-27.3C822.5,992.1,819.9,1007.4,821.3,1029.9Z" style="fill:#d6c5be"/><path d="M798.2,893.8c8.7-3,40.5-10.5,48,30.2s-15,69.7-35.7,62-33.4-35.9-34.6-57.3S787.3,897.7,798.2,893.8Z" style="fill:#eea886"/><path d="M846.2,924s1.6-34.8-33.1-36.1-44,27.3-41.1,48.1a50.83,50.83,0,0,0,17.2,31.8s-1.2-16.8,5.5-21.2,33.7-13.1,45.4-33.3C840.1,913.3,845.5,919.6,846.2,924Z" style="fill:#252e3b"/><ellipse cx="781.01" cy="913.05" rx="26.5" ry="23.1" transform="translate(-330.34 1369.72) rotate(-71.8)" style="fill:#252e3b"/><path d="M823.6,980.5s-2.9,26.8-2.3,35.5c0,0-15.2,15.2-32.4-17.7,0,0,7.3-13.6,1.8-32.1S823.6,980.5,823.6,980.5Z" style="fill:#eea886"/><polygon points="821.3 1016 821.3 1029.9 803.9 1016.8 821.3 1016" style="fill:#eea886"/><polygon points="821.3 1029.9 814.1 1020.9 789.7 996.6 781.8 1004.2 821.3 1029.9" style="fill:#d6c5be"/><path d="M786.3,998.9s20.5,31.1,21.5,44.7-7.6,116-14.5,148.9-56.6-3.7-56.6-3.7,33.4-54,20.6-97.3-17.5-60.6-17.5-60.6,4.4-24.1,20-27.5C773.5,1000.4,786.3,998.9,786.3,998.9Z" style="fill:#384c9e"/><path d="M866,1045.2s3.5,13.1-10.9,42c0,0,.2,37,.6,48.5s3.1,55.2,3.1,55.2l-14.2,8.3a4,4,0,0,1-6-3.9c4-33.2,17.1-159.3-11.2-193.2l11.4,3.4S859.2,1022,866,1045.2Z" style="fill:#384c9e"/><path d="M798.2,939.2a5.37,5.37,0,0,0-7.9-2.3c-2.4,1.8-3.8,7.3,0,14.4S807.7,963.4,798.2,939.2Z" style="fill:#eea886"/><polygon points="830.2 1019.5 841.3 1022.6 822.5 992.1 830.2 1019.5" style="fill:#fae6de"/><polygon points="814.1 1020.9 803.9 1034.3 782.9 999.3 789.7 996.6 814.1 1020.9" style="fill:#fae6de"/><path d="M823,986.4l-.5,5.4s-12,2.3-27.8-17C794.7,974.8,805.9,988.4,823,986.4Z" style="fill:#a77860"/><path d="M885,1150.2s7.1,4.6,11.2,2c3.5-2.2,9.5-2.5,11.4-2.6,2.5-.1,10-3.4,10.2-.2s-12.1,5.9-14.6,7,8.4,6.4,9.6,8.9-8.6,20-15.6,15.5-11.5-13.9-12.9-14.5a41.17,41.17,0,0,1-5.2-3.1Z" style="fill:#eea886"/><path d="M750.4,1008.3s9.8-2.4,18.3,6.7,12.8,24.1,15,29,30.4,49.8,32,50.9,30.2,24.1,43.2,36.5,38.2,26.1,38.2,26.1l-9.5,13.4s-76.8-40.9-86.5-55.9-48.5-56.5-48.5-56.5S729.5,1023.4,750.4,1008.3Z" style="fill:#eea886"/><path d="M911.3,1164s20.6,15.2,21.1,17.3-.4,3.2-2.3,1.9-20.3-14.1-20.3-14.1,21.3,22.1,22.1,23.7c.5,1-1.1,3.1-2.2,2.5s-23.5-21.3-23.5-21.3,19.9,20.6,20.1,22.2a2,2,0,0,1-3.3,1.6c-1.6-1.4-21.1-19.5-21.1-19.5s13.5,15.9,12.9,17.4c-.4.9-1.6,2.8-5-1.4s-12.3-13.3-12.3-13.3Z" style="fill:#eea886"/><path d="M858.5,1080s.7,46.1-2.1,68.4l-1.2-61.2Z" style="fill:#27356e"/><path d="M755.5,1004.9s5.6.9,14.1,10.1,12.8,24.1,15,29,30.4,49.8,32,50.9,25.1,17.1,38,29.5,37.1,27.1,37.1,27.1l-12.4,18.4s-67.7-37.5-78.5-51.8c-11.5-15.3-52.4-60-52.4-60S722,1017.1,755.5,1004.9Z" style="fill:#384c9e"/><path d="M909.9,1263.8s-2.6-10.3-5.9-11.8-2.6,2.2-2.6,2.2-.7-3.7-3.7-3.5-2,4.6-2,4.6a3.09,3.09,0,0,0-4.2-1.4c-2.9,1.3-1.2,4.7-1.2,4.7s-3.9-2.8-4.9,1c-1.6,6.5,3.2,12.6,3.2,12.6s1.5,1.4,4.2-.1c0,0,3.2,3.6,6.7-.3,0,0,5.2,1.4,5.8-3C905.5,1268.9,911.4,1269.6,909.9,1263.8Z" style="fill:#db9c7c"/><path d="M801.7,1128.8l-23.2-37.4s19.8,23.3,21.8,25.8,2.2,2.7,2.2,2.7S802,1127.5,801.7,1128.8Z" style="fill:#27356e"/><path d="M1081.3,1217.4a119.34,119.34,0,0,0,4.4,14.7c1.4,3.6,2.1,27.4,1.9,30.5-.1,2.6-1.8,1.1-2.7-.6-.5-1-2.1-9.2-3.6-13.6-1.3-3.7-2.4-5-3-3.9s-1.8,16.5-.4,23-.1,21.6-3.5,19.4-11.5-29.4-10.8-39.6,4.3-23.1,4.3-23.1Z" style="fill:#eea886"/><path d="M1078,1231.2s11.2-74.6,14.2-88.8c1.3-6.4,5.1-22.4,7.4-35.5.8-4.3,1.4-8.8,2-13.1h0c2.2-17.4,2.8-33.3,2.8-33.3s9.7-44.6-18.4-47.3c0,0-7.5,2.4-8,5.4-1.7,11.9-5.6,37.7-5.7,43.8-.1,5-7.4,55-7.5,56.7-.2,3.4-1.9,26.6-2.6,36.8-1.6,23.7-2.2,76.9-2.2,76.9Z" style="fill:#f75a5a"/><path d="M1069.1,1549.1s-10.9,12.1-21.9,14.7-18.7,5.8-18.8,12.7,31.7,11.5,44.3,4.5c18.8-10.5,20.7-7.3,22.8-12.5s-2.5-19.2-2.4-20.9C1093.3,1545.5,1069.1,1549.1,1069.1,1549.1Z" style="fill:#202338"/><path d="M1179.8,1552.2s-8,11.8-18.7,14.5c-10.5,2.7-17.4,7.8-17.9,14.6s24.8,15.6,42.6,3.7c11.7-7.8,16.1-7.4,18.4-12.3s-1.2-18.9-1-20.5C1203.7,1550.3,1179.8,1552.2,1179.8,1552.2Z" style="fill:#202338"/><path d="M1070.3,1543.3s-1.4,5.7-1.2,5.8,24.8,3.1,24.1-1.5c-.6-3.7-1.5-7.7-1.5-7.7Z" style="fill:#81807e"/><path d="M1180.2,1546.4a54.9,54.9,0,0,0-.3,5.8c.2.1,23.7,4.5,23.5,0a35,35,0,0,0-1.5-8Z" style="fill:#81807e"/><path d="M1092.7,1203.3s-9,87-13.6,116.7c-5.4,34.8-7.3,63.6-8.8,81.6-1.9,22.7-2.3,134.1-3.6,140.8s29.7,1.8,29.7,1.8,15.3-145.7,20.9-169.8c5.3-22.5,25-119.2,29.8-113.1s10.8,112.9,14.4,130.6,14.5,156.5,14.5,156.5,24.7,4.9,31.2-.6c0,0,3-119.6.7-152.8-.9-12.7,14.8-151.8-5.3-207.9C1191.9,1157.6,1092.7,1203.3,1092.7,1203.3Z" style="fill:#292c47"/><path d="M1246.2,1215.7s-15.1,4.6-21.4,3.4-3.1-78.8-3.4-94.9c-.2-13.1-7.4-47.7-7.4-47.7v.1h0v.1c-.7,2.6-10.4,38.5-10.7,55.7-.4,17.9,2.3,86.3,2.3,86.3l-24,11.3-83.1,2.4-12.1.2s1.9-40.6,2.6-54.5c.4-8.8,2.2-24.7,1.7-40.1,0,0,.3-16.2-1.3-23.2-.2-30.9-2-61.4-2-61.4-1-14-1.8-27.1-2.2-39.3,3.4-1.8,7.4-3.9,10.7-5.4,10.1-4.8,24.1-11.2,33.1-15.4,5.3-2.4,10.4-4.2,10.4-4.2s35.9-3.4,38.8-3.3a94,94,0,0,1,11.3,3.9c12.7,4.8,37.3,14.7,41.2,17.5,5.7,4.1,17.9,101.7,18.4,108.5C1250.1,1128.1,1246.2,1215.7,1246.2,1215.7Z" style="fill:#d8d5e0"/><path d="M1178,985.8c-2.6,24.2-29.5,24.2-29.5,24.2s-11.1-9.7-10.8-16.9v-.5c.2-1.3,1.7-3,1.8-5.6v-2.2c0-1.8-.1-3.7-.2-4.9,0-.4-.1-.8-.1-1.1a2.44,2.44,0,0,0-.1-.7s4.3-4.6,9.8-10c9.6-9.5,22.9-21.7,22.9-16.9a2.77,2.77,0,0,1-.1.9C1169.5,963,1178,985.8,1178,985.8Z" style="fill:#eea886"/><path d="M1175.4,1185.8s2.2,13.7,2.4,17.3l4.6-.9s-1.3-14.5-2-17Z" style="fill:#5d676c"/><path d="M1250.9,1265.7s-1.4-19.2-6.6-22.2-2.1,3-2.1,3,3.1,13.9,3.8,19.6C1246.1,1266.4,1250.9,1265.7,1250.9,1265.7Z" style="fill:#7f827f"/><polygon points="1200.1 1279.3 1267.9 1259 1269 1342.9 1201.8 1384.5 1200.1 1279.3" style="fill:#7f827f"/><polygon points="1201.8 1384.5 1210.4 1385.9 1275.7 1344 1273.6 1259.3 1267.9 1259 1201.8 1384.5" style="fill:#7f827f"/><path d="M1159.6,1000.1l-11.2,10s12.9-.9,15.3-3Z" style="fill:#b4b1ba"/><path d="M1088.7,1219.6s52.6,4.5,98.6,0v15.1s-69.2,10-100.9-2.9Z" style="fill:#292c47"/><path d="M1128.9,993.3c-2.9,1.3-6.3,2.9-10,4.6-7.6,3.5-16.3,7.5-23.1,10.8-3.6,1.7-8.1,3.7-11.5,5.2.4,12.4,1,25.7,2.1,40,0,0,1,34.8,3,67.8a63.6,63.6,0,0,1,.6,14.5c-.5,6.5-1.2,13.5-2,20.9v.3c-.2,1.7-.4,3.5-.6,5.3v.1c-4.5,36.8-12,79-16,91.8-.8,2.7,2,5.1,4.1,7l14.4,9.1,7.9-73.1c1.9-17.9,7.9-41.9,10.5-65.2h0c3.3-29.6,7.9-58.7,10.4-75.9,6.4-44.9,15-65,15-65Z" style="fill:#f75a5a"/><path d="M1220.3,1124.9c1.1,15-5.2,97.9,1.1,99.1s29.6-3.9,29.6-3.9,2.9-89.4,2-98.8c-.7-6.8-11.5-109.2-17.3-113.3-3.3-2.4-27.9-11.1-39.9-15.8q-3.3-1.35-6.3-2.4c-2.6,2.8-29.6,53-31.8,93.7-.6,12.4,2.3,38.6,4.5,60,2.4,22.8,5,40.6,6.9,59.7,3.8,37.6,6.4,67.5,6.4,67.5l37.4-16.7c6.1-3,14.4-15.5,12.2-21.8-8.6-24.2-19.5-65.6-19.6-86.9,0,0,4.2-52.1,7.5-63.5C1213,1081.7,1218.9,1105.9,1220.3,1124.9Z" style="fill:#f75a5a"/><path d="M1227.2,1223s-1.8,8.4-4.3,16.7-4.9,11.1-3.7,15.8c.8,3.6,5,6.2,6,5.1s1.3-15.2,7.1-15.2-1.5,17.4,2,16,16.6-8.8,15.7-15.8-6.3-12.1-6.2-22.6c.2-9.6-2.9-13.5-2.9-13.5Z" style="fill:#eea886"/><path d="M1231.6,1244.8s-7.7,2.1-6.8,28.2l8.7-1.6s-.4-14.4,2.1-22.3C1235.6,1249.1,1235.1,1244,1231.6,1244.8Z" style="fill:#7f827f"/><path d="M1219.3,1166.9l.4,65.9s13.2-.6,31.3-7.3l1.3-92.9Z" style="fill:#f75a5a"/><path d="M1136.2,1001.8s-1,13.8,10.7,14.1,20.9-10.8,20.9-10.8l-19.3,5-11.8-10Z" style="fill:#d8d5e0"/><path d="M1176.4,981.3s-11,14.1-16.8,18.8l9.4,15.8,16.3-27.7Z" style="fill:#eae6f2"/><path d="M1138.5,1002.7l10,7.4s-8.7-15.9-8.9-23Z" style="fill:#b4b1ba"/><polygon points="1139.5 987 1133.1 991.5 1126 1012.7 1138.5 1002.7 1139.5 987" style="fill:#eae6f2"/><path d="M1088,1096.8s2.8,24.5,1.3,46.9-7.6,58.1-7.6,58.1S1081.7,1123.3,1088,1096.8Z" style="fill:#963737"/><path d="M1107.9,916.1s-7,17.1-2.4,19.1c3.8,1.7-2.3,18.4-3,21.1s6.9,3.8,8.7,5.3,8.6,21.5,14.9,21.5,33-12.6,39.7-21.3,9.2-44.8,2.6-59.3C1161.6,888.1,1120.3,886.2,1107.9,916.1Z" style="fill:#eea886"/><path d="M1106.5,919.8s-10.7-16.5,4.1-31.2,47,4.9,50.5,5.5,23.7,4.8,17,35.6c-6,27.4-6.6,28.1-6.6,28.1s-8-14.5-11.8-16.7c-5.9-3.4-17.7-1.2-17.7-1.2s4.1-15.7-5-16.9C1127.7,921.8,1115.1,915.5,1106.5,919.8Z" style="fill:#323657"/><path d="M1150.4,930.3c.6-2.2,2.2-11.4,10.4-6.9s-2.5,22.6-3.8,22.9S1145.7,948.5,1150.4,930.3Z" style="fill:#eea886"/><path d="M1164.6,963.1c-.2.5-6.3,15.3-25,22.8v-1.1c0-1.8-.1-3.7-.2-4.9,0-.4-.1-.8-.1-1.1C1139.2,978.8,1159.4,969.3,1164.6,963.1Z" style="fill:#a77860"/><polygon points="1365.4 667.5 1153 667.5 1153 826.9 1153 860.5 1185.4 826.9 1365.4 826.9 1365.4 667.5" style="fill:#ffce55"/><path d="M1256.7,799.9a19.62,19.62,0,0,1-11.5-4.6,15.06,15.06,0,0,1-5.5-11.4c-.6-8.5-3.2-17.2-5.4-23.2a39.95,39.95,0,1,1,64.7-28.2,39.57,39.57,0,0,1-16.8,29.6,82.74,82.74,0,0,0-5.3,22.1c-.1,8.8-8.5,15.9-18.7,15.8C1257.7,800,1257.2,799.9,1256.7,799.9Zm5.2-107.1a36.79,36.79,0,0,0-39.4,33.8,36.41,36.41,0,0,0,14.1,31.7l.4.3.2.4a95.71,95.71,0,0,1,5.8,24.6v.1a11.56,11.56,0,0,0,4.3,8.9,16.71,16.71,0,0,0,10.9,3.9c8.4.1,15.3-5.6,15.4-12.6v-.2a90.67,90.67,0,0,1,5.7-23.5l.2-.5.4-.3a36.88,36.88,0,0,0,15.9-27.5C1297.3,712,1282.1,694.4,1261.9,692.8Z" style="fill:#fff"/><polygon points="1249.2 786.3 1244 742.7 1253.1 750.2 1258.7 744 1263.6 749.9 1272.1 742.7 1266.9 786.3 1263.7 785.9 1267.8 750.5 1263.2 754.5 1258.6 749 1253.4 754.8 1248.2 750.5 1252.5 785.9 1249.2 786.3" style="fill:#fff"/><rect x="1252.51" y="787.53" width="11.4" height="28.3" transform="translate(448.1 2054.48) rotate(-89.62)" style="fill:#fff"/><rect x="1249.11" y="774.73" width="18.4" height="37.5" transform="translate(456.38 2046.43) rotate(-89.61)" style="fill:#fff"/><circle cx="436.2" cy="1284.4" r="255.1" style="fill:#f8bb66"/><circle cx="440.2" cy="1287.4" r="214.2" style="fill:#f90"/><path d="M385.9,1020.1s.2,3.1-.4,4.4c0,0-1.2,2.4-2,4.2-.2.6-.4,1.1-.5,1.4a26.16,26.16,0,0,1-2.8,7.7c-1.9,3.1-13.5,14.3-13.5,14.3l-7.8-4.6-7.9-3.2s.2-22.2,1.6-25.3a4.05,4.05,0,0,1,.5-.9c1.5-2.5,3.6-3.7,4.5-4.9.3-.4,4-4.6,5.7-4.6,2.3.1,3.9,1,4.7,2.4,0,0,4.5.3,6.7,2.4,0,0,4.2.2,6.2,3.6C381,1017.1,385.2,1017.7,385.9,1020.1Z" style="fill:#eea886"/><path d="M140.7,1538.1s-2.1,14.8-2.4,17-23.6-1.3-23.6-1.3l-1.9-17.6S137.8,1536,140.7,1538.1Z" style="fill:#424773"/><path d="M138.6,1553.2s7.4,8.9,14.6,12.8,18.4,5.4,22.7,9.4c3.1,2.9,11.1,15.4-18.6,15.1s-44.1,1.8-47.3-3,4.6-35.3,4.6-35.3S121.6,1554.7,138.6,1553.2Z" style="fill:#292c47"/><path d="M308.3,1538.1s-2.1,14.8-2.4,17-23.7-1.3-23.7-1.3l-1.9-17.6C280.4,1536.2,305.4,1536,308.3,1538.1Z" style="fill:#424773"/><path d="M306.1,1553.2s7.4,8.9,14.6,12.8,33.5,7.1,37.8,11.1c3.1,2.9,8.1,14.6-33.7,13.5-29.8-.8-44.1,1.8-47.3-3s4.6-35.3,4.6-35.3S288.7,1554.9,306.1,1553.2Z" style="fill:#292c47"/><path d="M160.1,1158.9s-22,34.9-20.3,66.5-8,66-11.3,99c-3.7,36.7-18.7,123.8-19.3,143.4s2.3,82.4,2.3,82.4l30.1.7s25.3-152.1,31.9-167.6,39.1-126.2,40.2-138.6S160.1,1158.9,160.1,1158.9Z" style="fill:#292c47"/><path d="M275.8,1163.6s9.3,42,11.5,61.3,10.9,137.9,12,150,7.3,158,13.1,175.9H273.9s-29.6-106.1-29.6-156.2-22.9-109.1-37.6-142.2-48.5-33.9-57.6-95.3C149,1157.1,263.5,1144.1,275.8,1163.6Z" style="fill:#292c47"/><path d="M196.8,865.4s29.5-11,43.1,11.4,12.3,67.4-2.6,72.9-37.2,2.6-44.8-11.4-14.5-34.4-14.2-47.9S189,869.3,196.8,865.4Z" style="fill:#eea886"/><path d="M234.1,950.8s-1.2,8,.8,11.9-38.2,4-38.2,4-3.3-21.3-9.5-39.4S234.1,950.8,234.1,950.8Z" style="fill:#eea886"/><path d="M187.2,927.3s2.8,4.6,14.1,2.8,25.2-16.9,29.9-18.5,4.8-4.4,4.8-4.4l3,4.3,5,.3s-4.6-13.5,2.3-19-7.2-43.7-43.5-31c0,0-27.9,7.7-26.9,23.6S181,919.4,187.2,927.3Z" style="fill:#3a3f47"/><path d="M237.3,962.2s-.1-7.5-3.5-8.2-37.5-4-41.7-2.4v8.7S200.1,965.3,237.3,962.2Z" style="fill:#e2d2ca"/><path d="M235.2,901.4c-.6-2.7-7.4-10.3-10-2.1s3.9,19.1,7.6,18.2S236.9,908.1,235.2,901.4Z" style="fill:#eea886"/><path d="M372.6,1050.7Z" style="fill:#323657"/><path d="M139.7,1222.1s18.5,11.5,49.3,14.9,97.7-8.4,98.2-12.1-11.9-94-10.9-100.8-1.4-56-1.4-56c.4,6.6,10.8,38,19,52.8,2.9,5.3,12.8,22.1,17.6,18.3,23.1-18.4,57.3-84,59.5-84.6-1.9-.8-18.6-18.9-20.7-19.6-1.8-.6-15.3,24.3-25.4,35.2l-7.7,8.4c-2.9-6.6-16.1-46-19.9-60.2-9.2-34.3-11.7-36.4-11.7-36.4-2.1-8.2-48.4-19.9-48.4-19.9L192,960.3s-41.5,9.1-57.8,16.5c-1.5.7-1.6,37-5.8,46.5l13.5,28.6s1.8,55.7,3.4,80.8C146.1,1144.3,139.7,1222.1,139.7,1222.1Z" style="fill:#384c9e"/><path d="M123,1079.9c1.3,4.2,4.6,12.7,8.5,14.2,2.5,1,9.6,1.3,12.8,1.1l3.2-.6h0l33.8-10.1s7.5-86.9-47.1-107.7C132.7,977.3,111,1041,123,1079.9Z" style="fill:#384c9e"/><path d="M317.2,1078.6l3.9,23.6s4-23.6,3.8-32Z" style="fill:#1c264f"/><path d="M188.4,868s-34.9,7.5-.7,60.1Z" style="fill:#3a3f47"/><path d="M1943.8,176.4a12.16,12.16,0,0,0-12.1-12.2h-11.8v-.1H1826c-8.9,0-17.2,0-23.5,2.4-7.2,2.8-10.7,8.4-10.7,17.3h3.6c0-15.4,11-16.1,30.6-16.1h90.3V306.3c0,5.8-1.4,10.1-4.2,12.7s-7,3.6-12.6,3.3a47.66,47.66,0,0,1-8.4-9.6c-3.7-5.8-5-11.7-4-17.7h-91.7V277.4h-3.6V295h-13.4c0,1.3-.1,2.6-.1,3.9-.3,9.2-.7,18.7,6.5,24a15.05,15.05,0,0,0,9.1,3h109.8l-.1-.1a17.64,17.64,0,0,0,10.9-4.2c3.6-3.3,5.4-8.5,5.4-15.3V192.7h23.9V176.4Z" style="fill:#ffce55"/><path d="M1793.5,256.6l.7,1.2,26,19.5-4.1-32.4-.1-.1c0-.1-.1-.2-.2-.4s-.1-.2-.2-.3l-60.2-101.6-5.3,3.1-3.7-6.2-11.3,6.7,3.7,6.2-5.3,3.1Zm5.2,0,14.2-8.4,2.7,21.1Zm13.1-12-15.7,9.3-39.4-66.5,6.4-3.8a1.82,1.82,0,0,0-1.9-3.1l-6.4,3.8-16.4-27.7,15.7-9.3Z" style="fill:#ffce55"/><path d="M1788.8,194.1a1.65,1.65,0,0,0,1.5.9,1.61,1.61,0,0,0,.9-.3,1.79,1.79,0,0,0,.6-2.5l-33.1-55.9a1.82,1.82,0,0,0-3.1,1.9Z" style="fill:#ffce55"/><path d="M1766.2,181.5a1.61,1.61,0,0,0,.9-.3l2.1-1.2a1.82,1.82,0,0,0-1.9-3.1l-2.1,1.2a1.79,1.79,0,0,0-.6,2.5A1.92,1.92,0,0,0,1766.2,181.5Z" style="fill:#ffce55"/><path d="M1816.3,196.4h44.2a1.8,1.8,0,0,0,0-3.6h-44.2a1.79,1.79,0,0,0-1.8,1.8A1.86,1.86,0,0,0,1816.3,196.4Z" style="fill:#ffce55"/><path d="M1816.3,219.8h78.4a1.8,1.8,0,0,0,0-3.6h-78.4a1.79,1.79,0,0,0-1.8,1.8A1.93,1.93,0,0,0,1816.3,219.8Z" style="fill:#ffce55"/><path d="M1894.8,238.1a1.8,1.8,0,0,0,0-3.6h-61a1.8,1.8,0,1,0,0,3.6Z" style="fill:#ffce55"/><path d="M1887.4,274.1a2,2,0,0,0-2,1.3c-.2.8.4,1.4,1.3,1.4,19.5-.7,16.6-16.6,1.4-16.9a187.75,187.75,0,0,0-21.3.7c-8.1-3.8-18.3-6-24.2-2.3-9.7,6.1,1.1,5.9-17.5,16.1-.8.5-3.9,3-4.7,3.7,6.6-4.2,13.9-6.5,17.6-12.9,5.9-10.4,16.6-8.6,25.5-4.2-28.1,3.8-12.6,15.9,10.5,13.4,8.6-.9,5.1-6.6-2.6-11.3C1907.6,260.3,1899.4,273.8,1887.4,274.1Zm-12.4-5.4c11.5,9.9-49.7,0-11.3-4.7,1.5-.2,2.9-.3,4.2-.5A57.06,57.06,0,0,1,1875,268.7Z" style="fill:#ffce55"/><path d="M698.2,602.4c-21.2-20.7-56.3-5.5-56.8,23.1a32.86,32.86,0,0,0,15.2,28.3c2,1.3,1.4.8,13.5,22a8.65,8.65,0,0,0,.7,1l-17.6,16.8a14.15,14.15,0,0,0-21.8,2.4l-23.5-13.9a14,14,0,0,0-14.1-13.9c-12.3,0-18.7,14.6-10.3,23.5l-15.4,23.1a14,14,0,1,0-3.9,27.5c13.6,0,19.3-17.3,8.4-25.3l14.9-22.3a14.21,14.21,0,0,0,19.5-7.4l22.6,13.3a14.05,14.05,0,1,0,26.6-3c21.5-20.6,20.2-19.3,20.4-19.6a5.38,5.38,0,0,0,2.8-2.4c12.1-21.1,11.5-20.7,13.5-22a32.93,32.93,0,0,0,15.2-27.8A32.45,32.45,0,0,0,698.2,602.4ZM573.4,728.2a9.1,9.1,0,1,1-9.1-9.1A9.13,9.13,0,0,1,573.4,728.2Zm13-40.9a9.09,9.09,0,1,1,16.6-5.1C603,690.9,591.5,694.6,586.4,687.3Zm57,25.2c-6,0-9.6-5.6-9.1-9.1.1-7.9,9.7-11.9,15.5-6.4S651.6,712.5,643.4,712.5Zm47-62.7a11.81,11.81,0,0,0-3.9,4.1c-12,21-11.2,19.8-11.7,19.8s.3,1.2-11.7-19.8a12.69,12.69,0,0,0-3.9-4.1,28.44,28.44,0,0,1-13.1-24.3c.4-24.8,30.8-37.4,48.8-19.8A28.24,28.24,0,0,1,690.4,649.8Z" style="fill:#ffce55"/><g id="mail"><ellipse cx="450.6" cy="1457.7" rx="119.6" ry="10.8" style="fill:#f26522"/><path d="M373.7,1229.3a4.4,4.4,0,0,0-1.6-.2l-4-16a4,4,0,0,0,1.3-1.8,3.79,3.79,0,1,0-4.8,2.4,1.09,1.09,0,0,0,.5.1l3.9,15.5-16.3-4.1a4.06,4.06,0,0,0-2.5-2.9,3.79,3.79,0,0,0-2.4,7.2,4,4,0,0,0,4.3-1.4l16.6,4.1a3.81,3.81,0,0,0,7.4,1.6A3.57,3.57,0,0,0,373.7,1229.3Z" style="fill:#fafbfd"/><path d="M473.3,1164.7a4.81,4.81,0,0,0-1.2-1.6l11.6-17.2a4.54,4.54,0,0,0,2.8-.3,4.79,4.79,0,1,0-6.3-2.5l.3.6-11.3,16.7-9.9-18.6a4.6,4.6,0,0,0,.5-4.8,4.79,4.79,0,0,0-8.8,3.8,4.78,4.78,0,0,0,4.9,2.8l10.1,19a4.81,4.81,0,0,0-1.6,5.8,4.89,4.89,0,0,0,6.3,2.5A4.7,4.7,0,0,0,473.3,1164.7Z" style="fill:#fafbfd"/><rect x="356.6" y="1335.1" width="189.2" height="122.6" style="fill:url(#linear-gradient-5)"/><polygon points="356.6 1335.1 451.2 1424.3 545.9 1335.1 356.6 1335.1" style="fill:url(#linear-gradient-6)"/><polygon points="253.9 1239.4 330.9 1240.8 339.1 1284 253.9 1239.4" style="fill:url(#linear-gradient-7)"/><polygon points="253.9 1239.4 317.4 1251.3 339.1 1284 253.9 1239.4" style="fill:url(#linear-gradient-8)"/><polygon points="253.9 1239.4 317.4 1251.3 312.3 1279.1 253.9 1239.4" style="fill:url(#linear-gradient-9)"/><polygon points="334.4 1259.3 330.9 1240.8 351.1 1250.3 334.4 1259.3" style="fill:#fff"/><polygon points="325.7 1121.9 395.2 1140.2 393 1181.2 325.7 1121.9" style="fill:url(#linear-gradient-10)"/><polygon points="325.7 1121.9 380.6 1146.7 393 1181.2 325.7 1121.9" style="fill:url(#linear-gradient-11)"/><polygon points="325.7 1121.9 380.6 1146.7 369.8 1170.8 325.7 1121.9" style="fill:url(#linear-gradient-12)"/><polygon points="394.2 1157.8 395.2 1140.2 411.3 1153.4 394.2 1157.8" style="fill:#fff"/><polygon points="613.3 1134 558.4 1149.1 561.4 1181.5 613.3 1134" style="fill:url(#linear-gradient-13)"/><polygon points="613.3 1134 570.2 1154.1 561.4 1181.5 613.3 1134" style="fill:url(#linear-gradient-14)"/><polygon points="613.3 1134 570.2 1154.1 579.6 1173.1 613.3 1134" style="fill:url(#linear-gradient-15)"/><polygon points="559.7 1163 558.4 1149.1 545.9 1159.6 559.7 1163" style="fill:#fff"/><polygon points="356.6 1335.1 453.4 1258.8 545.9 1335.1 356.6 1335.1" style="fill:url(#linear-gradient-16)"/><polygon points="377.8 1355.1 377.8 1256.1 523.2 1256.1 523.2 1356.5 451.2 1424.3 377.8 1355.1" style="fill:url(#linear-gradient-17)"/><path d="M553.7,1186.5h-1.5" style="fill:none;stroke-miterlimit:10;stroke:url(#linear-gradient-18)"/><path d="M549.2,1186.8c-8.4,1.2-26.2,6.6-30.7,31.7-5.9,33.3,26.2,40.1,29.6,27.9,3.3-12-29.6-27.9-47.2-4.7-15.9,21-7,46.3,9.5,54.1" style="fill:none;stroke-miterlimit:10;stroke-dasharray:2.995800018310547,2.995800018310547;stroke:url(#linear-gradient-19)"/><path d="M511.8,1296.4a7.84,7.84,0,0,0,1.4.5" style="fill:none;stroke-miterlimit:10;stroke:url(#linear-gradient-20)"/><path d="M395.2,1178.7h1.5" style="fill:none;stroke-miterlimit:10;stroke:url(#linear-gradient-21)"/><path d="M399.6,1179c8.4,1.2,26.2,6.6,30.7,31.7,5.9,33.3-26.2,40.1-29.6,27.9-3.3-12,29.6-27.9,47.2-4.7,15.9,21,7,46.3-9.5,54.1" style="fill:none;stroke-miterlimit:10;stroke-dasharray:2.995800018310547,2.995800018310547;stroke:url(#linear-gradient-22)"/><path d="M437,1288.6a7.84,7.84,0,0,1-1.4.5" style="fill:none;stroke-miterlimit:10;stroke:url(#linear-gradient-23)"/><path d="M463.4,1315.6v16.3c0,5.5,1,7.2,3.4,7.2,3.5,0,5.8-3.5,5.8-14.1,0-11.7-6.6-19-20.4-19-14.2,0-22.4,9.8-22.4,23.6,0,14.1,7.9,23.3,22.5,23.3a38,38,0,0,0,12.8-2.3l2.3,6.6a43.22,43.22,0,0,1-15.1,2.8c-18.7,0-31-11.8-31-30.2,0-17.7,12.9-30.6,31-30.6,18.6,0,28.9,12.3,28.9,25.8,0,11.6-5.2,20.3-14,20.3a8.5,8.5,0,0,1-8.6-6.7c-1.6,3.5-4.6,6.4-9.4,6.4-8,0-11.8-6.2-11.8-14.6,0-11,5.6-17.6,15-17.6A21.46,21.46,0,0,1,463.4,1315.6Zm-7.9,19.4v-15.6a7.39,7.39,0,0,0-3.4-.7c-3.9,0-6.3,3.2-6.3,11.6,0,6.2,1.4,8.7,4.5,8.7S454.8,1336.7,455.5,1335Z" style="fill:url(#linear-gradient-24)"/><path d="M337.6,1288.2s.5-.2,1.4-.6" style="fill:none;stroke-miterlimit:10;stroke:url(#linear-gradient-25)"/><path d="M341.8,1286.5c9.1-2.9,31.2-6.4,48.5,18.7,22.3,32.5-8.5,55.1-18,43.8-9.2-11.1,18-43.8,47.7-27.6,27.2,14.7,29.7,46.2,15.6,62.3" style="fill:none;stroke-miterlimit:10;stroke-dasharray:3.0223000049591064,3.0223000049591064;stroke:url(#linear-gradient-26)"/><path d="M434.6,1384.7a5.24,5.24,0,0,1-1.1,1" style="fill:none;stroke-miterlimit:10;stroke:url(#linear-gradient-27)"/></g><rect width="2246.3" height="1720.8" style="fill:none"/></svg>