<svg id="Layer_1" data-name="Layer 1" xmlns="http://www.w3.org/2000/svg" xmlns:xlink="http://www.w3.org/1999/xlink" width="477.9" height="512" viewBox="0 0 477.9 512"><defs><linearGradient id="linear-gradient" x1="257.3" y1="516.77" x2="253.3" y2="-2.23" gradientTransform="matrix(1, 0, 0, -1, 0, 513)" gradientUnits="userSpaceOnUse"><stop offset="0" stop-color="#ff512f"/><stop offset="1" stop-color="#f09819"/></linearGradient><linearGradient id="linear-gradient-2" x1="213.84" y1="517.11" x2="209.84" y2="-1.89" gradientTransform="matrix(1, 0, 0, -1, -17.1, 513)" xlink:href="#linear-gradient"/><linearGradient id="linear-gradient-3" x1="188.64" y1="517.3" x2="184.64" y2="-1.7" gradientTransform="matrix(1, 0, 0, -1, -17.1, 513)" xlink:href="#linear-gradient"/><linearGradient id="linear-gradient-4" x1="163.43" y1="517.5" x2="159.43" y2="-1.5" gradientTransform="matrix(1, 0, 0, -1, -17.1, 513)" xlink:href="#linear-gradient"/><linearGradient id="linear-gradient-5" x1="308.43" y1="516.38" x2="304.43" y2="-2.62" gradientTransform="matrix(1, 0, 0, -1, -17.1, 513)" xlink:href="#linear-gradient"/><linearGradient id="linear-gradient-6" x1="130.26" y1="517.75" x2="126.26" y2="-1.25" xlink:href="#linear-gradient"/><linearGradient id="linear-gradient-7" x1="130.21" y1="517.75" x2="126.21" y2="-1.25" xlink:href="#linear-gradient"/><linearGradient id="linear-gradient-8" x1="249.19" y1="516.84" x2="245.19" y2="-2.16" gradientTransform="matrix(1, 0, 0, -1, -17.1, 513)" xlink:href="#linear-gradient"/><linearGradient id="linear-gradient-9" x1="291.89" y1="516.51" x2="287.89" y2="-2.49" gradientTransform="matrix(1, 0, 0, -1, -17.1, 513)" xlink:href="#linear-gradient"/><linearGradient id="linear-gradient-10" x1="275.05" y1="516.64" x2="271.05" y2="-2.36" gradientTransform="matrix(1, 0, 0, -1, -17.1, 513)" xlink:href="#linear-gradient"/><linearGradient id="linear-gradient-11" x1="68.75" y1="518.23" x2="64.75" y2="-0.77" gradientTransform="matrix(1, 0, 0, -1, -17.1, 513)" xlink:href="#linear-gradient"/><linearGradient id="linear-gradient-12" x1="216.47" y1="517.09" x2="212.47" y2="-1.91" gradientTransform="matrix(1, 0, 0, -1, -17.1, 513)" xlink:href="#linear-gradient"/><linearGradient id="linear-gradient-13" x1="191.27" y1="517.28" x2="187.27" y2="-1.72" gradientTransform="matrix(1, 0, 0, -1, -17.1, 513)" xlink:href="#linear-gradient"/><linearGradient id="linear-gradient-14" x1="71.38" y1="518.21" x2="67.38" y2="-0.79" gradientTransform="matrix(1, 0, 0, -1, -17.1, 513)" xlink:href="#linear-gradient"/></defs><title>product-service-catalog</title><path d="M469.3,0H59.7A42.66,42.66,0,0,0,17.1,42.7V486.4A25.65,25.65,0,0,0,42.7,512H332.8a25.65,25.65,0,0,0,25.6-25.6V315.7h93.9A42.74,42.74,0,0,0,495,273V25.6A25.74,25.74,0,0,0,469.3,0Zm-128,42.7V486.4a8.49,8.49,0,0,1-8.5,8.5H42.7a8.49,8.49,0,0,1-8.5-8.5V42.7A25.65,25.65,0,0,1,59.8,17.1H349.9A42,42,0,0,0,341.3,42.7Zm17.1,256V42.7a25.6,25.6,0,1,1,51.2,0V273.1a43,43,0,0,0,8.5,25.6Zm119.5-25.6a25.6,25.6,0,1,1-51.2,0V42.7a43,43,0,0,0-8.5-25.6h51.2a8.49,8.49,0,0,1,8.5,8.5Z" transform="translate(-17.1)" style="fill:url(#linear-gradient)"/><rect x="85.3" y="51.2" width="221.9" height="17.1" style="fill:url(#linear-gradient-2)"/><rect x="34.1" y="102.4" width="273.1" height="17.1" style="fill:url(#linear-gradient-3)"/><rect x="34.1" y="153.6" width="221.9" height="17.1" style="fill:url(#linear-gradient-4)"/><rect x="273" y="153.6" width="34.1" height="17.1" style="fill:url(#linear-gradient-5)"/><path d="M136.5,307.2H119.4a8.49,8.49,0,0,1-8.5-8.5h-17a25.65,25.65,0,0,0,25.6,25.6v8.5h17.1v-8.5a25.6,25.6,0,0,0,0-51.2H119.5a8.5,8.5,0,0,1,0-17h17.1a8.49,8.49,0,0,1,8.5,8.5h17.1A25.65,25.65,0,0,0,136.6,239v-8.5H119.5V239a25.6,25.6,0,1,0,0,51.2h17.1a8.49,8.49,0,0,1,8.5,8.5A8.58,8.58,0,0,1,136.5,307.2Z" transform="translate(-17.1)" style="fill:url(#linear-gradient-6)"/><path d="M128,358.4a76.8,76.8,0,1,0-76.8-76.8A76.82,76.82,0,0,0,128,358.4Zm0-136.5a59.7,59.7,0,1,1-59.7,59.7A59.66,59.66,0,0,1,128,221.9Z" transform="translate(-17.1)" style="fill:url(#linear-gradient-7)"/><rect x="221.8" y="213.3" width="17.1" height="17.1" style="fill:url(#linear-gradient-8)"/><rect x="256" y="213.3" width="34.1" height="17.1" style="fill:url(#linear-gradient-9)"/><rect x="221.8" y="247.5" width="68.3" height="17.1" style="fill:url(#linear-gradient-10)"/><rect x="34.1" y="51.2" width="34.1" height="17.1" style="fill:url(#linear-gradient-11)"/><rect x="85.3" y="392.5" width="221.9" height="17.1" style="fill:url(#linear-gradient-12)"/><rect x="34.1" y="443.7" width="273.1" height="17.1" style="fill:url(#linear-gradient-13)"/><rect x="34.1" y="392.5" width="34.1" height="17.1" style="fill:url(#linear-gradient-14)"/></svg>