<svg id="Capa_1" data-name="Capa 1" xmlns="http://www.w3.org/2000/svg" xmlns:xlink="http://www.w3.org/1999/xlink" width="512.1" height="469.2" viewBox="0 0 512.1 469.2"><defs><linearGradient id="linear-gradient" x1="251.73" y1="516.89" x2="258.73" y2="-6.11" gradientTransform="matrix(1, 0, 0, -1, 0, 513)" gradientUnits="userSpaceOnUse"><stop offset="0" stop-color="#ff512f"/><stop offset="1" stop-color="#f09819"/></linearGradient><linearGradient id="linear-gradient-2" x1="158.05" y1="515.64" x2="165.05" y2="-7.36" xlink:href="#linear-gradient"/><linearGradient id="linear-gradient-3" x1="158.77" y1="515.65" x2="165.77" y2="-7.35" xlink:href="#linear-gradient"/><linearGradient id="linear-gradient-4" x1="158.59" y1="515.64" x2="165.59" y2="-7.36" xlink:href="#linear-gradient"/><linearGradient id="linear-gradient-5" x1="373" y1="518.51" x2="380" y2="-4.49" xlink:href="#linear-gradient"/><linearGradient id="linear-gradient-6" x1="374.51" y1="518.53" x2="381.51" y2="-4.47" xlink:href="#linear-gradient"/><linearGradient id="linear-gradient-7" x1="373.77" y1="518.52" x2="380.77" y2="-4.48" xlink:href="#linear-gradient"/><linearGradient id="linear-gradient-8" x1="255.03" y1="516.93" x2="262.03" y2="-6.07" gradientTransform="matrix(0.17, 0.98, 0.98, -0.17, -226.27, -106.58)" xlink:href="#linear-gradient"/></defs><title>professional-details</title><path d="M477.2,147.7H356.4a69.6,69.6,0,0,0-57-56.9V33a11.61,11.61,0,0,0-11.6-11.6H224.1A11.61,11.61,0,0,0,212.5,33V90.7a69.71,69.71,0,0,0-57,56.9H34.8A35,35,0,0,0,0,182.4V455.8a34.83,34.83,0,0,0,34.8,34.8H477.3a34.83,34.83,0,0,0,34.8-34.8V182.4A35,35,0,0,0,477.2,147.7ZM235.7,44.6h40.5v85.7H235.7V44.6ZM488.8,455.8a11.61,11.61,0,0,1-11.6,11.6H34.8a11.61,11.61,0,0,1-11.6-11.6V182.4a11.61,11.61,0,0,1,11.6-11.6H166.3a11.61,11.61,0,0,0,11.6-11.6,46.45,46.45,0,0,1,34.8-44.9v15.9a11.6,11.6,0,1,0,0,23.2h86.9a11.6,11.6,0,0,0,0-23.2V114.3a46.45,46.45,0,0,1,34.8,44.9A11.61,11.61,0,0,0,346,170.8H477.5a11.61,11.61,0,0,1,11.6,11.6V455.8Z" transform="translate(0 -21.4)" style="fill:url(#linear-gradient)"/><path d="M114.2,356.2a11.61,11.61,0,0,0,11.6,11.6h74.1a11.6,11.6,0,0,0,0-23.2H125.8A11.61,11.61,0,0,0,114.2,356.2Z" transform="translate(0 -21.4)" style="fill:url(#linear-gradient-2)"/><path d="M197.6,298.3a34.8,34.8,0,1,0-34.8,34.8A34.83,34.83,0,0,0,197.6,298.3Zm-46.3,0a11.6,11.6,0,1,1,11.6,11.6A11.61,11.61,0,0,1,151.3,298.3Z" transform="translate(0 -21.4)" style="fill:url(#linear-gradient-3)"/><path d="M246.3,224.1H79.5a11.61,11.61,0,0,0-11.6,11.6V402.5a11.61,11.61,0,0,0,11.6,11.6H246.3a11.61,11.61,0,0,0,11.6-11.6V312.1a11.6,11.6,0,1,0-23.2,0v78.8H91.1V247.3H234.7v25.4a11.6,11.6,0,1,0,23.2,0V235.8A11.63,11.63,0,0,0,246.3,224.1Z" transform="translate(0 -21.4)" style="fill:url(#linear-gradient-4)"/><path d="M432.5,364H323.7a11.6,11.6,0,0,0,0,23.2H432.5a11.6,11.6,0,0,0,0-23.2Z" transform="translate(0 -21.4)" style="fill:url(#linear-gradient-5)"/><path d="M432.5,251H323.7a11.6,11.6,0,0,0,0,23.2H432.5a11.6,11.6,0,1,0,0-23.2Z" transform="translate(0 -21.4)" style="fill:url(#linear-gradient-6)"/><path d="M432.5,306.1H323.7a11.6,11.6,0,1,0,0,23.2H432.5a11.6,11.6,0,1,0,0-23.2Z" transform="translate(0 -21.4)" style="fill:url(#linear-gradient-7)"/><circle cx="256" cy="68.4" r="12.2" transform="translate(144.22 287.25) rotate(-80.01)" style="fill:url(#linear-gradient-8)"/></svg>