<svg id="Layer_1" data-name="Layer 1" xmlns="http://www.w3.org/2000/svg" xmlns:xlink="http://www.w3.org/1999/xlink" width="59.11" height="59.1" viewBox="0 0 59.11 59.1"><defs><linearGradient id="linear-gradient" x1="30.58" y1="-3.9" x2="30.17" y2="60.04" gradientTransform="matrix(1, 0, 0, -1, 0, 61)" gradientUnits="userSpaceOnUse"><stop offset="0" stop-color="#ff512f"/><stop offset="1" stop-color="#f09819"/></linearGradient></defs><title>projects</title><path d="M58.2,41A6.82,6.82,0,0,0,60,36.1a7.43,7.43,0,0,0-1.7-4.2,6.45,6.45,0,0,0-1.6-7.6c-2.1-1.8-5.4-2.6-10.2-2.4a60.64,60.64,0,0,0-6.3.8c-.6.1-1.3.3-2,.4-.1-.8.1-2.8,1.6-7.2q2.7-7.8-.3-12A7.89,7.89,0,0,0,33,.9,3.25,3.25,0,0,0,30.5,2c-1.4,1.6-1.3,4.5-1.1,5.9C27.7,12.2,23,22.9,19.1,26l-.2.2a12.91,12.91,0,0,0-2.5,3.6,5.54,5.54,0,0,0-2.6-.6H6.2A5.17,5.17,0,0,0,.9,34.3V54.4a5.17,5.17,0,0,0,5.3,5.1H14a5.14,5.14,0,0,0,3-1l3,.4a118,118,0,0,0,16.9.9c1.5.1,3,.2,4.2.2a33.32,33.32,0,0,0,5.9-.5c3.8-.8,6.5-2.4,7.9-4.7a8.07,8.07,0,0,0,.9-4.7,7.65,7.65,0,0,0,2.9-6.4A8.09,8.09,0,0,0,58.2,41ZM6.3,56.1a1.88,1.88,0,0,1-1.9-1.8V34.2a1.88,1.88,0,0,1,1.9-1.8h7.8A1.88,1.88,0,0,1,16,34.2V54.3a1.88,1.88,0,0,1-1.9,1.8ZM55,39.5a1.67,1.67,0,0,0-.2,2,8.3,8.3,0,0,0,.6,2.1q.15,2.4-2.4,4.2a1.61,1.61,0,0,0-.6,1.9,3.89,3.89,0,0,1-.3,3.1c-.9,1.5-2.8,2.6-5.6,3.1a33,33,0,0,1-9.2.3h-.2a123.1,123.1,0,0,1-16.5-.9l-1.3-.2a4.1,4.1,0,0,0,.1-1.1V34a8.75,8.75,0,0,0-.2-1.6,9.76,9.76,0,0,1,2.4-4.2C27.2,23.8,32.8,9,33,8.4a2.49,2.49,0,0,0,.1-.8,7.29,7.29,0,0,1,.2-3.5,4.25,4.25,0,0,1,3.5,1.7c1.3,1.8,1.3,4.8-.2,9-2.2,6.3-2.3,9.5-.6,11a3,3,0,0,0,2.8.5,20.69,20.69,0,0,1,2.2-.4h.2c3.9-.8,10.9-1.4,13.3.8a3.35,3.35,0,0,1,.4,4.5,1.7,1.7,0,0,0,.3,2.2,4.57,4.57,0,0,1,1.4,2.9A4.31,4.31,0,0,1,55,39.5Z" transform="translate(-0.9 -0.9)" style="fill:url(#linear-gradient)"/></svg>