<?xml version="1.0" encoding="utf-8"?>
<!-- Generator: Adobe Illustrator 23.0.1, SVG Export Plug-In . SVG Version: 6.00 Build 0)  -->
<svg version="1.1" id="Capa_1" xmlns="http://www.w3.org/2000/svg" xmlns:xlink="http://www.w3.org/1999/xlink" x="0px" y="0px"
	 viewBox="0 0 425.8 425.8" style="enable-background:new 0 0 425.8 425.8;" xml:space="preserve">
<style type="text/css">
	.st0{fill:url(#SVGID_1_);}
</style>
<g>
	<g>
		<linearGradient id="SVGID_1_" gradientUnits="userSpaceOnUse" x1="206.3745" y1="-2.0352" x2="217.3745" y2="427.9648">
			<stop  offset="0" style="stop-color:#FF512F"/>
			<stop  offset="1" style="stop-color:#F09819"/>
		</linearGradient>
		<path class="st0" d="M377.8,83.2L291.5,2.8C289.6,1,287,0,284.3,0h-229c-5.9,0-10.6,4.7-10.6,10.6v404.6c0,5.8,4.7,10.6,10.6,10.6
			h315.2c5.9,0,10.6-4.7,10.6-10.6V90.9C381.1,88,379.9,85.2,377.8,83.2z M108.6,388.3c0-8.3,6.7-15,15-15s15,6.7,15,15
			s-6.7,15-15,15S108.6,396.5,108.6,388.3z M185.6,388.3c0-8.3,6.7-15,15-15s15,6.7,15,15s-6.7,15-15,15S185.6,396.5,185.6,388.3z
			 M360.1,404.7l-135.5-0.1c3.2-4.6,5-10.2,5-16.3c0-16-13-29-29-29s-29,13-29,29c0,6,1.8,11.6,5,16.2h-29c3.1-4.6,5-10.2,5-16.2
			c0-16-13-29-29-29s-29,13-29,29c0,6,1.8,11.5,4.9,16.1H65.7L66,270.2l21.2,84.9h144.2l69.8-160.6h21.1c5.8,0,10.5-4.7,10.5-10.5
			s-4.7-10.5-10.5-10.5h-34.8l-69.8,160.6H103.6l-17.5-69.8h108.8c5.8,0,10.5-4.7,10.5-10.5c0-5.8-4.7-10.5-10.5-10.5H66v-4V21.2
			h197.6v79.5c0,5.8,4.7,10.6,10.6,10.6h85.9V404.7z"/>
	</g>
</g>
</svg>
