<svg id="Layer_1" data-name="Layer 1" xmlns="http://www.w3.org/2000/svg" width="41.24" height="40.6" viewBox="0 0 41.24 40.6"><title>purchase-management</title><path d="M39.2,17.1H14.1L9.2,8.2h-7A1.38,1.38,0,0,0,.9,9.7a1.38,1.38,0,0,0,1.3,1.5H7.8L18.9,31.3v.1h0a3,3,0,0,0,2.6,1.7H35.9a2.94,2.94,0,0,0,2.8-2.2l3.2-9a3.58,3.58,0,0,0-.3-3.2A2.5,2.5,0,0,0,39.2,17.1Zm.5,3.6-3.2,9c-.1.2-.3.4-.4.4H21.6a.55.55,0,0,1-.5-.3l-5.4-9.7H39.2a.7.7,0,0,1,.4.2C39.7,20.3,39.8,20.5,39.7,20.7Z" transform="translate(-0.9 -0.2)" style="fill:#f26522"/><ellipse cx="33.2" cy="37.8" rx="2.5" ry="2.8" style="fill:#f26522"/><ellipse cx="21.3" cy="37.8" rx="2.5" ry="2.8" style="fill:#f26522"/><path d="M26.9.2a1.38,1.38,0,0,0-1.3,1.5V5.1h-3a1.38,1.38,0,0,0-1.3,1.5,1.38,1.38,0,0,0,1.3,1.5h3v3.4A1.44,1.44,0,0,0,26.9,13a1.38,1.38,0,0,0,1.3-1.5V8.1h3a1.38,1.38,0,0,0,1.3-1.5c0-.9-.5-1.6-1.3-1.6h-3V1.6A1.29,1.29,0,0,0,26.9.2Z" transform="translate(-0.9 -0.2)" style="fill:#f26522"/></svg>