<svg id="Layer_1" data-name="Layer 1" xmlns="http://www.w3.org/2000/svg" width="512.1" height="512" viewBox="0 0 512.1 512"><title>puzzle</title><path d="M494.9,281.6l-58-.1a50.93,50.93,0,0,0,3.9-42.6h3a17.09,17.09,0,0,0,17.1-17.1V42.7A42.74,42.74,0,0,0,418.2,0H42.7A42.68,42.68,0,0,0,0,42.7V409.6a42.74,42.74,0,0,0,42.7,42.7H221.9A17.09,17.09,0,0,0,239,435.2l.3-54A50.05,50.05,0,0,0,256,384a51,51,0,0,0,42.9-23.5c4.3-1.6,5.8-2,5.6-2a34.77,34.77,0,0,1,36.2,27.1,34,34,0,0,1-7.1,28.6,34.9,34.9,0,0,1-37.4,10.6,17.58,17.58,0,0,0-16,2.3,16.65,16.65,0,0,0-7.1,13.7v54.1A17.09,17.09,0,0,0,290.2,512H469.4a42.74,42.74,0,0,0,42.7-42.7V298.7A17.18,17.18,0,0,0,494.9,281.6ZM443.7,42.7V221.9h-13a51,51,0,0,0-38.9-17.1,52.12,52.12,0,0,0-4.9-32,50.46,50.46,0,0,0-34.3-26.5,51.37,51.37,0,0,0-62.6,50,49.26,49.26,0,0,0,7.2,25.6H239l.3-54a51.12,51.12,0,0,0,63.3-27.5,49.42,49.42,0,0,0,4.3-14.5,51.28,51.28,0,0,0-68-54.8v-54H418.1A25.52,25.52,0,0,1,443.7,42.7ZM348.6,281.6H290.2a16.71,16.71,0,0,0-12.1,5.1,51.48,51.48,0,0,0-39.1-2.2V238.9h58.4a16.42,16.42,0,0,0,14.5-8.3,17.5,17.5,0,0,0-.1-17.3A34.1,34.1,0,0,1,349.1,163a32.93,32.93,0,0,1,22.6,17.5,35,35,0,0,1,1.1,28.5,51,51,0,0,0-31.5,47.1A48.35,48.35,0,0,0,348.6,281.6ZM17.1,42.7A25.65,25.65,0,0,1,42.7,17.1H221.9V71.2a16.69,16.69,0,0,0,7,13.7,17.84,17.84,0,0,0,16,2.3,34.8,34.8,0,0,1,36.7,9.7,33.39,33.39,0,0,1,8.4,19.6,36.61,36.61,0,0,1-.1,7.4,34.59,34.59,0,0,1-30.2,29.6,35.47,35.47,0,0,1-14.8-1.7,17.34,17.34,0,0,0-15.9,2.3,16.65,16.65,0,0,0-7.1,13.7V222l-58.3.3c.4-.8.7-1.6,1.1-2.4a50.73,50.73,0,0,0-28.9-72,45,45,0,0,0-6.3-1.7,55.79,55.79,0,0,0-5.7-.8h-.1c-1.4-.1-2.8-.2-4.3-.2-.3,0-.5.1-.8.1a41.65,41.65,0,0,0-7.1.6c-.8.1-1.5.3-2.3.4a56.58,56.58,0,0,0-5.9,1.5c-.5.2-1.1.3-1.6.5a59.26,59.26,0,0,0-6.8,3.1c-.6.3-1.2.7-1.8,1a53.86,53.86,0,0,0-6.3,4.3l-.1.1a38.79,38.79,0,0,0-4.2,3.9,50.81,50.81,0,0,0-14.4,35.6,47.15,47.15,0,0,0,5.9,23c.5.9.9,1.7,1.3,2.6H17.1ZM244.9,365.1a17.61,17.61,0,0,0-15.9,2.2,16.7,16.7,0,0,0-7.1,13.8v54.1H42.7a25.65,25.65,0,0,1-25.6-25.6V238.9H75.6a16.66,16.66,0,0,0,4.4-.6,16.17,16.17,0,0,0,10.1-7.8,17.09,17.09,0,0,0,1.4-13.8,19.43,19.43,0,0,0-1.5-3.6c-.7-1.3-1.4-2.6-2-3.9a34.12,34.12,0,0,1,38.5-46.4,42.74,42.74,0,0,1,4.8,1.3,34,34,0,0,1,18.3,48.2c-.2.4-.4.9-.6,1.3a18,18,0,0,0-1.6,3.8.35.35,0,0,1-.1.2c-.1.3,0,.5-.1.8a16.52,16.52,0,0,0,1.8,11.9c.2.3.5.6.7.9a17.32,17.32,0,0,0,14.3,7.9h58v45.6a16.83,16.83,0,0,0,7.1,13.8,17.55,17.55,0,0,0,16,2.2,34.8,34.8,0,0,1,28.2,2.8v42.4a16.71,16.71,0,0,0,5.7,12.5,34.22,34.22,0,0,1-22.8,8.8A41.88,41.88,0,0,1,244.9,365.1Zm250,104.2a25.65,25.65,0,0,1-25.6,25.6H290.1l.4-54a51.15,51.15,0,1,0,12.6-99.4,45.44,45.44,0,0,0-13.1,4.1V298.7h58.4a16.42,16.42,0,0,0,14.5-8.3,17.5,17.5,0,0,0-.1-17.3,34.07,34.07,0,0,1,19.1-49.5h.1a32.85,32.85,0,0,1,10.4-1.7,34.29,34.29,0,0,1,27.3,13.7,33,33,0,0,1,6.8,20.5,33.88,33.88,0,0,1-4.6,17,17.5,17.5,0,0,0-.1,17.3,16.42,16.42,0,0,0,14.5,8.3h58.4V469.3Z" style="fill:#f26522"/><path d="M42.7,256a8.49,8.49,0,0,0-8.5,8.5V401a8.5,8.5,0,0,0,17,0V264.5A8.49,8.49,0,0,0,42.7,256Z" style="fill:#f26522"/><path d="M42.7,42.7a8.49,8.49,0,0,0-8.5,8.5V170.7a8.5,8.5,0,1,0,17,0V51.2A8.49,8.49,0,0,0,42.7,42.7Z" style="fill:#f26522"/></svg>