<?xml version="1.0" encoding="utf-8"?>
<!-- Generator: Adobe Illustrator 23.0.1, SVG Export Plug-In . SVG Version: 6.00 Build 0)  -->
<svg version="1.1" id="Layer_1" xmlns="http://www.w3.org/2000/svg" xmlns:xlink="http://www.w3.org/1999/xlink" x="0px" y="0px"
	 viewBox="0 0 432 273" style="enable-background:new 0 0 432 273;" xml:space="preserve">
<style type="text/css">
	.st0{fill:url(#SVGID_1_);}
</style>
<g>
	<linearGradient id="SVGID_1_" gradientUnits="userSpaceOnUse" x1="211.7567" y1="-3.0293" x2="210.7567" y2="277.9707">
		<stop  offset="0" style="stop-color:#FF512F"/>
		<stop  offset="1" style="stop-color:#F09819"/>
	</linearGradient>
	<path class="st0" d="M407.7,222L375.4,55.8c-0.9-5.4-5.8-9.4-11.2-9H57.8c-5.4,0-10.3,3.6-11.2,9l-32.3,181l0,0l-0.4,1.3
		c0,0.4,0,1.3,0,1.8c0,5.8,4.9,10.8,10.8,10.8h306.4c5.4,0,9.9-3.6,10.8-9l1.3-6.7l21.5-120l19.3,98.1h-10.8
		c-6.3,0-11.2,4.9-11.2,11.2l0,0l0,0c0,6.3,4.9,11.2,11.2,11.2l0,0h23.7c0.9,0,1.3,0,2.2,0C405,234.1,409,228.3,407.7,222L407.7,222
		z M322.1,229.2h-284L66.8,69.3h284L322.1,229.2z M248.6,121.7l-65,65.9c-4,4-9.9,4.5-13.4,1.3l-22.4-27.3c-3.1-3.6-2.2-9.4,1.8-13
		c3.6-3.6,9-4,12.1-1.3l16.1,21.5l57.8-58.7c4-3.6,9.9-4.5,13.4-1.3c1.8,1.8,2.7,3.6,2.2,6.3C251.8,117.2,250.4,119.9,248.6,121.7z"
		/>
</g>
</svg>
