<svg id="Layer_1" data-name="Layer 1" xmlns="http://www.w3.org/2000/svg" xmlns:xlink="http://www.w3.org/1999/xlink" width="209.4" height="224.5" viewBox="0 0 209.4 224.5"><defs><linearGradient id="linear-gradient" x1="169.98" y1="261.23" x2="176.98" y2="4.23" gradientTransform="matrix(1, 0, 0, -1, 0, 251)" gradientUnits="userSpaceOnUse"><stop offset="0" stop-color="#ff512f"/><stop offset="1" stop-color="#f09819"/></linearGradient><linearGradient id="linear-gradient-2" x1="114.78" y1="259.72" x2="121.78" y2="2.72" xlink:href="#linear-gradient"/><linearGradient id="linear-gradient-3" x1="114.17" y1="259.71" x2="121.17" y2="2.71" xlink:href="#linear-gradient"/><linearGradient id="linear-gradient-4" x1="113.58" y1="259.69" x2="120.58" y2="2.69" xlink:href="#linear-gradient"/><linearGradient id="linear-gradient-5" x1="102.94" y1="259.4" x2="109.94" y2="2.4" xlink:href="#linear-gradient"/></defs><title>report-management</title><path d="M230.4,191.8V178.4l-9.9-1.6a36.12,36.12,0,0,0-1.3-6.7l8.5-6.7-.4-.9-.9-1.6-3.8-6.5-1.6-2.7-9.2,3.6a24.3,24.3,0,0,0-4.3-4.7l-.4-.4,3.8-10.1-2.7-1.6-6.5-3.8-2.7-1.6-6,7.6a32.65,32.65,0,0,0-6.9-2.2l-1.6-10.3H170.9l-1.6,9.4c-1.1.2-2,.2-3.1.4a29.78,29.78,0,0,0-4,1.1l-6.5-8.1-2.7,1.6-6.5,3.8-2.7,1.6,3.6,9.2a60.24,60.24,0,0,0-5.2,4.9l-10.1-3.8-1.6,2.7-3.8,6.5-.7,1.1-.9,1.6,5.6,4.5,2.2,1.8a30.49,30.49,0,0,0-2,6.7l-10.8,1.6V188l9.9,1.6a36.12,36.12,0,0,0,1.3,6.7l-8.5,6.7,1.6,2.7,3.8,6.5,1.6,2.7,9.2-3.6a45.31,45.31,0,0,0,4.7,5.4l-2.5,6.3-1.3,3.8,2.7,1.6,2,1.1,4.5,2.5h4l3.6-4.5,1.1-1.6a50.51,50.51,0,0,0,6.9,2.2l.7,3.6,1.1,6.7h13.4l1.6-9.6a54,54,0,0,0,7.2-1.6l6.5,8.1,2.7-1.6,6.5-3.8,2.7-1.6-3.6-9.2a60.24,60.24,0,0,0,5.2-4.9l10.1,3.8,1.6-2.7,3.8-6.5,1.6-2.7-7.8-6.3a30.49,30.49,0,0,0,2-6.7ZM175.3,215h0a30.41,30.41,0,0,1-18.8-6.2,33,33,0,0,1-12.1-17.7,31.86,31.86,0,0,1,0-16.6,32,32,0,0,1,21.5-22.6,29.69,29.69,0,0,1,9-1.3h.2a31.29,31.29,0,0,1,24.4,11.6A32.25,32.25,0,0,1,175.3,215Z" transform="translate(-21 -13.9)" style="fill:url(#linear-gradient)"/><path d="M74.8,70.1h84a4.7,4.7,0,0,0,0-9.4h-84a4.57,4.57,0,0,0-4.7,4.7,4.52,4.52,0,0,0,4.7,4.7" transform="translate(-21 -13.9)" style="fill:url(#linear-gradient-2)"/><path d="M74.8,92.3h84a4.7,4.7,0,0,0,0-9.4h-84a4.57,4.57,0,0,0-4.7,4.7,4.63,4.63,0,0,0,4.7,4.7" transform="translate(-21 -13.9)" style="fill:url(#linear-gradient-3)"/><path d="M74.8,114.2h84a4.7,4.7,0,0,0,0-9.4h-84a4.57,4.57,0,0,0-4.7,4.7,4.52,4.52,0,0,0,4.7,4.7" transform="translate(-21 -13.9)" style="fill:url(#linear-gradient-4)"/><path d="M186.1,13.9H36a4.62,4.62,0,0,0-4.9,4.7v24H25.9a4.7,4.7,0,1,0,0,9.4h4.9V71.3H25.9A4.62,4.62,0,0,0,21,76c0,2.9,2,4.7,4.9,4.7h4.9v19H25.9a4.62,4.62,0,0,0-4.9,4.7c0,2.9,2,4.7,4.9,4.7h4.9v19H25.9a4.7,4.7,0,1,0,0,9.4h4.9v19H25.9a4.62,4.62,0,0,0-4.9,4.7c0,2.9,2,4.7,4.9,4.7h4.9v19H25.9a4.7,4.7,0,1,0,0,9.4h4.9v24c0,2.9,2,4.7,4.9,4.7h81.1v-8.5H40.6v-19h4.9a4.7,4.7,0,1,0,0-9.4H40.6v-19h4.9a4.62,4.62,0,0,0,4.9-4.7c0-2.9-2-4.7-4.9-4.7H40.6v-19h4.9a4.7,4.7,0,1,0,0-9.4H40.6V109.4h4.9a4.62,4.62,0,0,0,4.9-4.7c0-2.9-2-4.7-4.9-4.7H40.6V81h4.9a4.62,4.62,0,0,0,4.9-4.7c0-2.9-2-4.7-4.9-4.7H40.6v-19h4.9a4.7,4.7,0,1,0,0-9.4H40.6v-19H180.8V123H191V18.6A4.62,4.62,0,0,0,186.1,13.9Z" transform="translate(-21 -13.9)" style="fill:url(#linear-gradient-5)"/></svg>