<svg id="Layer_1" data-name="Layer 1" xmlns="http://www.w3.org/2000/svg" viewBox="0 0 50 50"><defs><style>.cls-1{fill:#34aa09;}.cls-2{fill:#fff;}</style></defs><title>right-arrow</title><polygon class="cls-1" points="50 25 45.29 30.44 46.65 37.5 39.85 39.85 37.5 46.65 30.44 45.29 25 50 19.56 45.29 12.5 46.65 10.15 39.85 3.35 37.5 4.71 30.44 0 25 4.71 19.56 3.35 12.5 10.15 10.15 12.5 3.35 19.56 4.71 25 0 30.44 4.71 37.5 3.35 39.85 10.15 46.65 12.5 45.29 19.56 50 25"/><g id="Check_-_Orange" data-name="Check - Orange"><polygon class="cls-2" points="37.33 20.55 32.78 15.99 21.85 26.9 17.24 22.27 12.68 26.83 21.84 36.01 21.84 36 21.86 36.01 37.33 20.55"/></g></svg>