<svg id="Layer_1" data-name="Layer 1" xmlns="http://www.w3.org/2000/svg" width="984.82" height="687.29" viewBox="0 0 984.82 687.29"><title>saas-application-development-navigation</title><path d="M798.6,680.6l-619.2,1.8a40.52,40.52,0,0,1-11.5-1.7c-26.6-8.1-132.4-46.4-150.2-146.4-9.3-52,1.4-124,109.1-194.5,0,0-50.4-202.2,163.6-159.9,0,0,90-198.1,289.9-159.9,0,0,193.6,39.1,202.7,239,0,0,183.6,47.3,196.3,203.6,0,0,19.5,135-165.3,215A43.47,43.47,0,0,1,798.6,680.6Z" transform="translate(-5.07 -5.11)" style="fill:none;stroke:#f26522;stroke-linecap:round;stroke-linejoin:round;stroke-width:20px"/><path d="M243.5,548a78.8,78.8,0,0,1-27.8-16.1c-4.8-4.2-7.1-8.9-7.1-14a14.83,14.83,0,0,1,4.5-10.7,14.65,14.65,0,0,1,19.8-1.4,78.87,78.87,0,0,0,20.6,12.7,65.49,65.49,0,0,0,23.8,4q14.85,0,25.5-6.6c7.1-4.4,10.7-9.9,10.7-16.4,0-7.9-3.5-14.1-10.6-18.6s-18.2-7.9-33.6-10.2q-57.9-8.4-57.9-53.9c0-11.1,2.9-20.8,8.7-29A55.18,55.18,0,0,1,243.9,369a84.25,84.25,0,0,1,33.6-6.5,96.86,96.86,0,0,1,31.3,5,79.16,79.16,0,0,1,24.5,13.2c5.1,4.1,7.7,8.7,7.7,14a14.83,14.83,0,0,1-4.5,10.7,14.17,14.17,0,0,1-10.6,4.6,11.49,11.49,0,0,1-7.1-2.4q-6.9-5.55-19.2-10.2c-8.2-3.1-15.6-4.6-22.1-4.6-11.1,0-19.7,2.1-25.8,6.2s-9.1,9.6-9.1,16.3c0,7.6,3.1,13.3,9.4,17.2s16.1,7.1,29.5,9.5c15.2,2.6,27.3,6,36.4,10.2s15.9,9.8,20.5,16.9,6.9,16.6,6.9,28.4c0,11.1-3.1,20.8-9.4,29.2a60.48,60.48,0,0,1-25,19.3,83.66,83.66,0,0,1-33.6,6.7C264.6,552.7,253.3,551.2,243.5,548Z" transform="translate(-5.07 -5.11)" style="fill:#f26522"/><path d="M488.9,410.5a15.75,15.75,0,0,1,4.5,11.6V534a15.84,15.84,0,0,1-4.5,11.5,15.15,15.15,0,0,1-11.4,4.6,14.84,14.84,0,0,1-11.2-4.5,16.35,16.35,0,0,1-4.6-11.4,57.41,57.41,0,0,1-41.6,18.5,60.25,60.25,0,0,1-33.1-9.4,65.57,65.57,0,0,1-23.4-26c-5.7-11.1-8.6-23.7-8.6-37.8s2.8-26.8,8.5-37.9a65.55,65.55,0,0,1,23.1-26.2A58.65,58.65,0,0,1,419,406a60.82,60.82,0,0,1,23.8,4.6,62.1,62.1,0,0,1,18.8,11.8v-.3a15.84,15.84,0,0,1,4.5-11.5,15.15,15.15,0,0,1,11.4-4.6A15.45,15.45,0,0,1,488.9,410.5ZM452.1,511.1c7.2-8.4,10.8-18.9,10.8-31.6s-3.6-23.3-10.8-31.7-16.6-12.7-28-12.7-20.5,4.2-27.8,12.7-10.8,19-10.8,31.7,3.6,23.2,10.7,31.6,16.4,12.6,27.9,12.6S444.9,519.5,452.1,511.1Z" transform="translate(-5.07 -5.11)" style="fill:#f26522"/><path d="M646.2,410.5a15.75,15.75,0,0,1,4.5,11.6V534a15.84,15.84,0,0,1-4.5,11.5,15.15,15.15,0,0,1-11.4,4.6,14.84,14.84,0,0,1-11.2-4.5,16.35,16.35,0,0,1-4.6-11.4,57.41,57.41,0,0,1-41.6,18.5,60.25,60.25,0,0,1-33.1-9.4,65.57,65.57,0,0,1-23.4-26c-5.7-11.1-8.6-23.7-8.6-37.8s2.8-26.8,8.5-37.9a65.55,65.55,0,0,1,23.1-26.2,58.65,58.65,0,0,1,32.4-9.4,60.82,60.82,0,0,1,23.8,4.6,62.1,62.1,0,0,1,18.8,11.8v-.3a15.84,15.84,0,0,1,4.5-11.5,15.15,15.15,0,0,1,11.4-4.6A15.45,15.45,0,0,1,646.2,410.5ZM609.4,511.1c7.2-8.4,10.8-18.9,10.8-31.6s-3.6-23.3-10.8-31.7-16.6-12.7-28-12.7-20.5,4.2-27.8,12.7-10.8,19-10.8,31.7,3.6,23.2,10.7,31.6,16.4,12.6,27.9,12.6S602.2,519.5,609.4,511.1Z" transform="translate(-5.07 -5.11)" style="fill:#f26522"/><path d="M703.3,548a78.8,78.8,0,0,1-27.8-16.1c-4.8-4.2-7.1-8.9-7.1-14a14.83,14.83,0,0,1,4.5-10.7,14.65,14.65,0,0,1,19.8-1.4,78.87,78.87,0,0,0,20.6,12.7,65.49,65.49,0,0,0,23.8,4q14.85,0,25.5-6.6c7.1-4.4,10.7-9.9,10.7-16.4,0-7.9-3.5-14.1-10.6-18.6s-18.2-7.9-33.6-10.2q-57.9-8.4-57.9-53.9c0-11.1,2.9-20.8,8.7-29A55.18,55.18,0,0,1,703.7,369a84.25,84.25,0,0,1,33.6-6.5,96.86,96.86,0,0,1,31.3,5,79.16,79.16,0,0,1,24.5,13.2c5.1,4.1,7.7,8.7,7.7,14a14.83,14.83,0,0,1-4.5,10.7,14.17,14.17,0,0,1-10.6,4.6,11.49,11.49,0,0,1-7.1-2.4q-6.9-5.55-19.2-10.2c-8.2-3.1-15.6-4.6-22.1-4.6-11.1,0-19.7,2.1-25.8,6.2s-9.1,9.6-9.1,16.3c0,7.6,3.1,13.3,9.4,17.2s16.1,7.1,29.5,9.5c15.2,2.6,27.3,6,36.4,10.2s15.9,9.8,20.5,16.9,6.9,16.6,6.9,28.4c0,11.1-3.1,20.8-9.4,29.2a60.48,60.48,0,0,1-25,19.3,83.66,83.66,0,0,1-33.6,6.7C724.5,552.7,713.2,551.2,703.3,548Z" transform="translate(-5.07 -5.11)" style="fill:#f26522"/></svg>