<?xml version="1.0" encoding="utf-8"?>
<!-- Generator: Adobe Illustrator 23.0.1, SVG Export Plug-In . SVG Version: 6.00 Build 0)  -->
<svg version="1.1" id="Layer_1" xmlns="http://www.w3.org/2000/svg" xmlns:xlink="http://www.w3.org/1999/xlink" x="0px" y="0px"
	 viewBox="0 0 325 366" style="enable-background:new 0 0 325 366;" xml:space="preserve">
<style type="text/css">
	.st0{fill:url(#SVGID_1_);}
</style>
<title>rounded</title>
<g>
	<linearGradient id="SVGID_1_" gradientUnits="userSpaceOnUse" x1="160.0317" y1="-3.9676" x2="156.0317" y2="370.0324">
		<stop  offset="0" style="stop-color:#FF512F"/>
		<stop  offset="1" style="stop-color:#F09819"/>
	</linearGradient>
	<path class="st0" d="M123.8,175.6c-3.3-3.4-3.3-8.8,0.1-12.1s8.8-3.3,12.1,0.1l0.1,0.1c6.3,5.6,14.6,8.5,23,8
		c11.1,0,17-4.2,17-11.9c0.2-3-0.9-6-3-8.1c-2.4-2-5.4-3.2-8.5-3.4l-11.6-1.6c-6.9-0.6-13.4-3.4-18.7-8c-4.8-5.1-7.3-11.9-6.9-18.9
		c-0.3-14.1,10-26.2,24-28.2v-10c0.4-4.2,3.9-7.5,8.2-7.5c4.3,0.1,7.8,3.4,8.2,7.7V91c9,0.6,17.5,4.3,24,10.5
		c1.7,1.6,2.8,3.8,2.8,6.1c0,4.6-3.7,8.4-8.3,8.4c-2.3,0-4.4-0.9-6-2.5l0,0c-5.4-4.8-12.5-7.2-19.7-6.6c-10,0-14.9,5.5-14.9,12.2
		c-0.1,2.6,1,5.1,2.8,6.9c2.5,2.1,5.6,3.5,8.9,3.8l11.4,1.6c6.8,0.5,13.2,3.1,18.4,7.4c5.2,5.5,7.9,12.9,7.4,20.4
		c-0.2,15-11.8,27.3-26.7,28.4v9.2l0,0c-0.1,4.5-3.8,8-8.3,7.9c-4.3-0.1-7.8-3.6-7.9-7.9l0,0v-8.9
		C141.1,187.4,131.2,183,123.8,175.6L123.8,175.6z M288.7,74v224c0,30.9-25.1,56-56,56H83.3c-30.9,0-56-25.1-56-56V74
		c0-30.9,25.1-56,56-56h149.3C263.6,18,288.7,43.1,288.7,74z M270,74c0-20.6-16.7-37.3-37.3-37.3H83.3C62.7,36.7,46,53.4,46,74v224
		c0,20.6,16.7,37.3,37.3,37.3h149.3c20.6,0,37.3-16.7,37.3-37.3V74H270z M223.3,242H92.7c-5.2,0-9.3,4.2-9.3,9.3
		c0,5.2,4.2,9.3,9.3,9.3h130.7c5.2,0,9.3-4.2,9.3-9.3S228.5,242,223.3,242z M223.3,279.3H92.7c-5.2,0-9.3,4.2-9.3,9.3
		s4.2,9.3,9.3,9.3h130.7c5.2,0,9.3-4.2,9.3-9.3S228.5,279.3,223.3,279.3z"/>
</g>
</svg>
