<svg id="icons" xmlns="http://www.w3.org/2000/svg" xmlns:xlink="http://www.w3.org/1999/xlink" width="464" height="512" viewBox="0 0 464 512"><defs><linearGradient id="linear-gradient" x1="239.71" y1="511.79" x2="272.71" y2="-4.21" gradientTransform="matrix(1, 0, 0, -1, 0, 513)" gradientUnits="userSpaceOnUse"><stop offset="0" stop-color="#ff512f"/><stop offset="1" stop-color="#f09819"/></linearGradient><linearGradient id="linear-gradient-2" x1="214.28" y1="510.16" x2="247.28" y2="-5.84" xlink:href="#linear-gradient"/><linearGradient id="linear-gradient-3" x1="256.75" y1="512.88" x2="289.75" y2="-3.12" xlink:href="#linear-gradient"/><linearGradient id="linear-gradient-4" x1="254.71" y1="512.75" x2="287.71" y2="-3.25" xlink:href="#linear-gradient"/><linearGradient id="linear-gradient-5" x1="252.66" y1="512.62" x2="285.66" y2="-3.38" xlink:href="#linear-gradient"/><linearGradient id="linear-gradient-6" x1="250.62" y1="512.49" x2="283.62" y2="-3.51" xlink:href="#linear-gradient"/></defs><title>scanner</title><path d="M64,512H448a40,40,0,0,0,40-40V40A40,40,0,0,0,448,0a8,8,0,0,0-8,8V416H400a8,8,0,0,0-16,0H360V400a8,8,0,0,0-16,0v16H320a8,8,0,0,0-16,0H280V400a8,8,0,0,0-16,0v16H240a8,8,0,0,0-16,0H200V400a8,8,0,0,0-16,0v16H160a8,8,0,0,0-16,0H120V400a8,8,0,0,0-16,0v16H80a8,8,0,0,0-16,0H32a8,8,0,0,0-8,8v48A40.05,40.05,0,0,0,64,512ZM456,17.5A23.92,23.92,0,0,1,472,40V416H456ZM40,432H472v40a24.07,24.07,0,0,1-24,24H64a24.07,24.07,0,0,1-24-24Z" transform="translate(-24)" style="fill:url(#linear-gradient)"/><path d="M96,384H359.9a48,48,0,0,0,47.9-47.9h0V96a8.53,8.53,0,0,0-.6-3.1,7.82,7.82,0,0,0-1.7-2.6l-48-48a7.82,7.82,0,0,0-2.6-1.7,8.15,8.15,0,0,0-3.1-.6H135.9a8,8,0,0,0-8,8V328H56.1a8,8,0,0,0-8,8A48,48,0,0,0,96,384ZM65.2,344h70.3c.1,0,.2.1.4.1s.2-.1.4-.1H312.7a46.73,46.73,0,0,0,11.6,23.9H96A31.73,31.73,0,0,1,65.2,344ZM359.9,67.3,380.6,88H359.9ZM143.9,56H343.8V96a8,8,0,0,0,8,8h40V336.1a32,32,0,0,1-63.9,0,8,8,0,0,0-8-8h-176Z" transform="translate(-24)" style="fill:url(#linear-gradient-2)"/><path d="M192,184H344a8,8,0,0,0,0-16H192a8,8,0,0,0,0,16Z" transform="translate(-24)" style="fill:url(#linear-gradient-3)"/><path d="M192,216.1H344a8,8,0,0,0,0-16H192a8,8,0,0,0,0,16Z" transform="translate(-24)" style="fill:url(#linear-gradient-4)"/><path d="M192,248.2H344a8,8,0,0,0,0-16H192a8,8,0,0,0,0,16Z" transform="translate(-24)" style="fill:url(#linear-gradient-5)"/><path d="M352,272.2a8,8,0,0,0-8-8H192a8,8,0,0,0,0,16H344A8,8,0,0,0,352,272.2Z" transform="translate(-24)" style="fill:url(#linear-gradient-6)"/></svg>