<svg id="Layer_1" data-name="Layer 1" xmlns="http://www.w3.org/2000/svg" width="49.5" height="40.86" viewBox="0 0 49.5 40.86"><defs><style>.cls-1,.cls-2,.cls-3{fill:none;stroke:#f26522;stroke-linecap:round;stroke-linejoin:round;stroke-width:1.5px;}.cls-2{stroke-dasharray:8 8;}.cls-3{stroke-dasharray:6.27 6.27;}.cls-4{fill:#f26522;}</style></defs><title>screenshot</title><polyline class="cls-1" points="48.75 36.11 48.75 40.11 44.75 40.11"/><line class="cls-2" x1="36.75" y1="40.11" x2="8.75" y2="40.11"/><polyline class="cls-1" points="4.75 40.11 0.75 40.11 0.75 36.11"/><line class="cls-3" x1="0.75" y1="29.84" x2="0.75" y2="7.89"/><polyline class="cls-1" points="0.75 4.75 0.75 0.75 4.75 0.75"/><line class="cls-2" x1="12.75" y1="0.75" x2="40.75" y2="0.75"/><polyline class="cls-1" points="44.75 0.75 48.75 0.75 48.75 4.75"/><line class="cls-3" x1="48.75" y1="11.02" x2="48.75" y2="32.97"/><path class="cls-4" d="M40.5,16a3.57,3.57,0,0,0-2.62-1.11H32.64v-.06a2.84,2.84,0,0,0-.85-2.05,2.9,2.9,0,0,0-2.06-.86H20.27a2.92,2.92,0,0,0-2.94,2.91v.06H12.12A3.57,3.57,0,0,0,9.5,16a3.76,3.76,0,0,0-1.1,2.62V34.34A3.58,3.58,0,0,0,9.5,37a3.78,3.78,0,0,0,2.62,1.11H37.88A3.57,3.57,0,0,0,40.5,37a3.76,3.76,0,0,0,1.1-2.62V18.63A3.56,3.56,0,0,0,40.5,16ZM40,34.34h0a2,2,0,0,1-2,2H12.12a2,2,0,0,1-2-2V18.63a2,2,0,0,1,2-2.06h6.09a.85.85,0,0,0,.86-.85v-.91a1.17,1.17,0,0,1,1.23-1.23h9.43A1.17,1.17,0,0,1,31,14.81v.91a.85.85,0,0,0,.86.85h6.09a2,2,0,0,1,1.45.6,2,2,0,0,1,.6,1.46Z" transform="translate(-0.25 -4.57)"/><path class="cls-4" d="M25,18.72A7.75,7.75,0,1,0,30.49,21,7.76,7.76,0,0,0,25,18.72Zm4.29,12.09a6.11,6.11,0,0,1-8.58,0,6,6,0,0,1-1.77-4.3,6.15,6.15,0,0,1,1.77-4.29A6,6,0,0,1,25,20.46a6.17,6.17,0,0,1,4.29,1.76,6,6,0,0,1,1.77,4.29A5.91,5.91,0,0,1,29.29,30.81Z" transform="translate(-0.25 -4.57)"/><circle class="cls-4" cx="35.98" cy="15.66" r="1.55"/></svg>