<svg id="Capa_1" data-name="Capa 1" xmlns="http://www.w3.org/2000/svg" xmlns:xlink="http://www.w3.org/1999/xlink" width="49.72" height="39.33" viewBox="0 0 49.72 39.33"><defs><style>.cls-1{fill:url(#linear-gradient);}.cls-2{fill:url(#linear-gradient-2);}.cls-3{fill:url(#linear-gradient-3);}.cls-4{fill:url(#linear-gradient-4);}.cls-5{fill:url(#linear-gradient-5);}.cls-6{fill:url(#linear-gradient-6);}.cls-7{fill:url(#linear-gradient-9);}.cls-8{fill:url(#linear-gradient-10);}.cls-9{fill:url(#linear-gradient-11);}.cls-10{fill:url(#linear-gradient-12);}.cls-11{fill:url(#linear-gradient-13);}</style><linearGradient id="linear-gradient" x1="24.68" y1="-0.04" x2="26.4" y2="51.78" gradientUnits="userSpaceOnUse"><stop offset="0" stop-color="#ff512f"/><stop offset="1" stop-color="#f09819"/></linearGradient><linearGradient id="linear-gradient-2" x1="24.41" y1="-0.03" x2="26.13" y2="51.79" xlink:href="#linear-gradient"/><linearGradient id="linear-gradient-3" x1="3.27" y1="-5.09" x2="5" y2="46.73" xlink:href="#linear-gradient"/><linearGradient id="linear-gradient-4" x1="8.7" y1="-5.27" x2="10.43" y2="46.55" xlink:href="#linear-gradient"/><linearGradient id="linear-gradient-5" x1="5.99" y1="-5.18" x2="7.71" y2="46.64" xlink:href="#linear-gradient"/><linearGradient id="linear-gradient-6" x1="24.41" y1="-0.03" x2="26.13" y2="51.79" xlink:href="#linear-gradient"/><linearGradient id="linear-gradient-9" x1="24.92" y1="-0.05" x2="26.64" y2="51.77" xlink:href="#linear-gradient"/><linearGradient id="linear-gradient-10" x1="21.08" y1="0.08" x2="22.81" y2="51.9" xlink:href="#linear-gradient"/><linearGradient id="linear-gradient-11" x1="18.21" y1="0.18" x2="19.94" y2="52" xlink:href="#linear-gradient"/><linearGradient id="linear-gradient-12" x1="31.37" y1="-0.26" x2="33.1" y2="51.56" xlink:href="#linear-gradient"/><linearGradient id="linear-gradient-13" x1="28.69" y1="-0.17" x2="30.42" y2="51.65" xlink:href="#linear-gradient"/></defs><title>screenshot-rights</title><path class="cls-1" d="M49.55,5.75H1.28a.73.73,0,0,0-.73.73V37.75a.73.73,0,0,0,1.46,0V12.06H48.82V13a.73.73,0,0,0,1.46,0V6.48A.73.73,0,0,0,49.55,5.75ZM11.43,10.6H2V7.2h9.42Zm37.39,0H12.89V7.2H48.82Z" transform="translate(-0.55 -5.75)"/><path class="cls-2" d="M49.55,15.35a.73.73,0,0,0-.73.73V43.62H2V41A.73.73,0,0,0,.55,41v3.35a.73.73,0,0,0,.73.73H49.55a.73.73,0,0,0,.73-.73V16.08A.73.73,0,0,0,49.55,15.35Z" transform="translate(-0.55 -5.75)"/><circle class="cls-3" cx="3.54" cy="3.16" r="0.73"/><circle class="cls-4" cx="8.98" cy="3.16" r="0.73"/><circle class="cls-5" cx="6.26" cy="3.16" r="0.73"/><path class="cls-6" d="M34.64,21.87H29.25V19.68a.73.73,0,0,0-.73-.72H22.31a.73.73,0,0,0-.73.72v2.19H16.19a3.64,3.64,0,0,0-3.64,3.64v9.32a3.65,3.65,0,0,0,3.64,3.65H28.5a.73.73,0,1,0,0-1.46H16.19A2.19,2.19,0,0,1,14,34.83V25.51a2.19,2.19,0,0,1,2.19-2.18H34.64a2.19,2.19,0,0,1,2.19,2.18v9.32A2.2,2.2,0,0,1,34.64,37h-3a.73.73,0,1,0,0,1.46h3a3.65,3.65,0,0,0,3.64-3.65V25.51A3.64,3.64,0,0,0,34.64,21.87Zm-6.85,0H23V20.41h4.76Z" transform="translate(-0.55 -5.75)"/><path class="cls-6" d="M25.41,25.07a5.1,5.1,0,1,0,5.1,5.1A5.11,5.11,0,0,0,25.41,25.07Zm0,8.74a3.64,3.64,0,1,1,3.65-3.64A3.64,3.64,0,0,1,25.41,33.81Z" transform="translate(-0.55 -5.75)"/><path class="cls-6" d="M25.41,28a2.19,2.19,0,1,0,2.19,2.18A2.19,2.19,0,0,0,25.41,28Zm0,2.91a.73.73,0,1,1,.73-.73A.73.73,0,0,1,25.41,30.9Z" transform="translate(-0.55 -5.75)"/><path class="cls-7" d="M25.41,13.46a.73.73,0,0,0-.72.73v1.39a.73.73,0,0,0,1.45,0V14.19A.73.73,0,0,0,25.41,13.46Z" transform="translate(-0.55 -5.75)"/><path class="cls-8" d="M22.59,16.15l-.7-1.21a.74.74,0,0,0-1-.27.73.73,0,0,0-.27,1l.7,1.21a.72.72,0,0,0,.63.37.68.68,0,0,0,.36-.1A.72.72,0,0,0,22.59,16.15Z" transform="translate(-0.55 -5.75)"/><path class="cls-9" d="M19.79,18.41l-1.2-.7a.72.72,0,0,0-1,.26.73.73,0,0,0,.26,1l1.2.69a.74.74,0,0,0,.37.1.71.71,0,0,0,.63-.36A.72.72,0,0,0,19.79,18.41Z" transform="translate(-0.55 -5.75)"/><path class="cls-10" d="M33.23,18a.73.73,0,0,0-1-.26l-1.2.7a.72.72,0,0,0,.37,1.35.68.68,0,0,0,.36-.1L33,19A.74.74,0,0,0,33.23,18Z" transform="translate(-0.55 -5.75)"/><path class="cls-11" d="M29.93,14.64a.72.72,0,0,0-1,.28l-.69,1.2a.72.72,0,0,0,.27,1,.7.7,0,0,0,.36.1.74.74,0,0,0,.63-.37l.69-1.21A.72.72,0,0,0,29.93,14.64Z" transform="translate(-0.55 -5.75)"/></svg>