<?xml version="1.0" encoding="utf-8"?>
<!-- Generator: Adobe Illustrator 23.0.1, SVG Export Plug-In . SVG Version: 6.00 Build 0)  -->
<svg version="1.1" id="Layer_1" xmlns="http://www.w3.org/2000/svg" xmlns:xlink="http://www.w3.org/1999/xlink" x="0px" y="0px"
	 viewBox="0 0 48.2 46.2" style="enable-background:new 0 0 48.2 46.2;" xml:space="preserve">
<style type="text/css">
	.st0{display:none;}
	.st1{display:inline;fill:url(#SVGID_1_);}
	.st2{fill:url(#SVGID_2_);}
	.st3{fill:url(#SVGID_3_);}
	.st4{display:none;enable-background:new    ;}
	.st5{font-family:'Arial-BoldMT';}
	.st6{font-size:1.3333px;}
</style>
<g>
	<g class="st0">
		<linearGradient id="SVGID_1_" gradientUnits="userSpaceOnUse" x1="29.275" y1="-8.296839e-02" x2="31.3439" y2="45.6412">
			<stop  offset="0" style="stop-color:#FF512F"/>
			<stop  offset="1" style="stop-color:#F09819"/>
		</linearGradient>
		<path class="st1" d="M32.2,15.8V12H28v3.8c0,0.1-0.1,0.3-0.3,0.3h-3.8v4.2h3.8c0.1,0,0.3,0.1,0.3,0.3v3.8h4.2v-3.8
			c0-0.1,0.1-0.3,0.3-0.3h3.8V16h-3.8C32.3,16,32.2,15.9,32.2,15.8z"/>
	</g>
	<g>
		<linearGradient id="SVGID_2_" gradientUnits="userSpaceOnUse" x1="29.2772" y1="-8.307051e-02" x2="31.3462" y2="45.6411">
			<stop  offset="0" style="stop-color:#FF512F"/>
			<stop  offset="1" style="stop-color:#F09819"/>
		</linearGradient>
		<path class="st2" d="M30.1,1.9c-8.9,0-16.2,7.3-16.2,16.2s7.3,16.2,16.2,16.2S46.3,27,46.3,18.1S39,1.9,30.1,1.9z M30.1,31.2
			c-7.2,0-13.1-5.9-13.1-13.1S22.9,5,30.1,5s13.1,5.9,13.1,13.1S37.3,31.2,30.1,31.2z"/>
	</g>
	<g>
		<linearGradient id="SVGID_3_" gradientUnits="userSpaceOnUse" x1="9.1973" y1="0.8255" x2="11.2663" y2="46.5497">
			<stop  offset="0" style="stop-color:#FF512F"/>
			<stop  offset="1" style="stop-color:#F09819"/>
		</linearGradient>
		<polygon class="st3" points="2.9,43.3 4.9,45.3 18.8,31.4 16.8,29.4 		"/>
	</g>
</g>
<text transform="matrix(1 0 0 1 11.8002 40.3996)" class="st4 st5 st6">Created by fahmistudio</text>
<text transform="matrix(1 0 0 1 11.8002 41.7338)" class="st4 st5 st6">from the Noun Project</text>
</svg>
