<svg id="OBJECTS" xmlns="http://www.w3.org/2000/svg" width="387.04" height="303.28" viewBox="0 0 387.04 303.28"><title>search-files3</title><rect x="261.93" y="212.89" width="176.9" height="130.91" rx="1.85" transform="translate(-131.8 345.39) rotate(-59.34)" style="fill:#3e479b;opacity:0.14"/><rect x="259.09" y="206.92" width="176.9" height="130.91" rx="1.85" transform="translate(-128.06 340.02) rotate(-59.34)" style="fill:#f7a9b4"/><path d="M388.57,379.07,263.48,356a1.85,1.85,0,0,1-1.49-2.15l31.4-170.33a1.85,1.85,0,0,1,2.16-1.49L420.64,205.1a1.86,1.86,0,0,1,1.49,2.16l-31.4,170.33A1.85,1.85,0,0,1,388.57,379.07Z" transform="translate(-64.07 -92.4)" style="fill:#3e479b;opacity:0.14"/><rect x="250.93" y="210.31" width="176.9" height="130.91" transform="translate(-57.4 467.14) rotate(-79.56)" style="fill:#fff"/><rect x="250.93" y="210.31" width="176.9" height="130.91" rx="1.85" transform="translate(-57.4 467.14) rotate(-79.56)" style="fill:#f7a9b4;opacity:0.39"/><path d="M400.31,221.14l-.19,0-31.31-5.77a1,1,0,0,1,.36-2l31.32,5.78a1,1,0,0,1-.18,2Z" transform="translate(-64.07 -92.4)" style="fill:#fff"/><path d="M398.46,231.14h-.18L367,225.35a1,1,0,1,1,.36-2l31.31,5.77a1,1,0,0,1-.18,2Z" transform="translate(-64.07 -92.4)" style="fill:#fff"/><path d="M396.46,242l-.18,0L365,236.23a1,1,0,0,1,.37-2L396.64,240a1,1,0,0,1-.18,2Z" transform="translate(-64.07 -92.4)" style="fill:#fff"/><rect x="295.53" y="186.21" width="62.68" height="58.56" rx="2" transform="translate(-8.38 405.48) rotate(-79.56)" style="fill:#3e479b;opacity:0.14"/><rect x="296.08" y="185.9" width="59.56" height="56.02" rx="2" transform="translate(-7.64 403.2) rotate(-79.56)" style="fill:#599af2"/><path d="M357.49,196.83,302.4,186.68l1-5.22a2,2,0,0,1,2.27-1.56L357,189.36a1.89,1.89,0,0,1,1.51,2.19Z" transform="translate(-64.07 -92.4)" style="fill:#ecf1f7;opacity:0.07"/><path d="M317.82,213.85a6.73,6.73,0,0,1-1.18-.11l-.76-.14a7.49,7.49,0,0,1-6-8.7l1.93-10.44a1.5,1.5,0,1,1,2.95.54l-1.92,10.44a4.48,4.48,0,0,0,3.58,5.21l.76.14a3.48,3.48,0,0,0,4.05-2.79l4.87-26.42a3.59,3.59,0,0,0-2.88-4.18l-1.3-.24a3.82,3.82,0,0,0-4.44,3.05l-.11.66a1.52,1.52,0,0,1-1.75,1.2,1.5,1.5,0,0,1-1.21-1.75l.12-.65a6.82,6.82,0,0,1,7.93-5.46l1.31.24a6.59,6.59,0,0,1,5.28,7.67l-4.87,26.42A6.48,6.48,0,0,1,317.82,213.85Z" transform="translate(-64.07 -92.4)" style="fill:#3e479b"/><path d="M323,191.66h-.09l-20-3.68a.51.51,0,0,1-.4-.59.5.5,0,0,1,.58-.4l20,3.69a.5.5,0,0,1-.09,1Z" transform="translate(-64.07 -92.4)" style="fill:#fff"/><path d="M384.14,295l-.18,0-95.68-17.64a1,1,0,0,1,.36-2L384.33,293a1,1,0,0,1-.19,2Z" transform="translate(-64.07 -92.4)" style="fill:#fff"/><path d="M377.3,332.11l-.18,0-95.68-17.63a1,1,0,0,1-.81-1.17,1,1,0,0,1,1.17-.8l95.68,17.64a1,1,0,0,1,.81,1.16A1,1,0,0,1,377.3,332.11Z" transform="translate(-64.07 -92.4)" style="fill:#fff"/><path d="M330.27,304.25h-.18l-45.23-8.34a1,1,0,0,1,.36-2l45.23,8.34a1,1,0,0,1-.18,2Z" transform="translate(-64.07 -92.4)" style="fill:#fff"/><path d="M336.5,270.44a.58.58,0,0,1-.18,0l-45.23-8.33a1,1,0,0,1-.8-1.17,1,1,0,0,1,1.16-.8l45.24,8.34a1,1,0,0,1-.19,2Z" transform="translate(-64.07 -92.4)" style="fill:#fff"/><path d="M380.75,313.41l-.18,0-43.1-7.94a1,1,0,0,1,.36-2l43.1,7.94a1,1,0,0,1-.18,2Z" transform="translate(-64.07 -92.4)" style="fill:#fff"/><rect x="250.04" width="59.85" height="24.45" rx="3.33" style="fill:#599af2"/><rect x="268.89" y="17.99" width="81.05" height="33.12" rx="3.33" style="fill:#f7a9b4"/><rect x="284.18" y="44.11" width="91.42" height="34.28" rx="4.52" style="fill:#fff"/><rect x="284.18" y="44.11" width="91.42" height="34.28" rx="4.52" style="fill:#6d6cd4;opacity:0.74"/><path d="M410.65,157.66a4,4,0,1,1,4-4A4,4,0,0,1,410.65,157.66Zm0-6.94a3,3,0,1,0,3,3A3,3,0,0,0,410.65,150.72Z" transform="translate(-64.07 -92.4)" style="fill:#fff"/><path d="M394.26,157.66a4,4,0,1,1,4-4A4,4,0,0,1,394.26,157.66Zm0-6.94a3,3,0,1,0,3,3A3,3,0,0,0,394.26,150.72Z" transform="translate(-64.07 -92.4)" style="fill:#fff"/><path d="M379,157.66a4,4,0,1,1,4-4A4,4,0,0,1,379,157.66Zm0-6.94a3,3,0,1,0,3,3A3,3,0,0,0,379,150.72Z" transform="translate(-64.07 -92.4)" style="fill:#fff"/><path d="M152.38,94.8H280a4.65,4.65,0,0,1,4.65,4.65v188a16.06,16.06,0,0,1-16.06,16.06H180a34.22,34.22,0,0,1-34.22-34.22V101.4A6.6,6.6,0,0,1,152.38,94.8Z" transform="translate(-64.07 -92.4)" style="fill:#fff"/><path d="M147.39,94.8H282.18a2.48,2.48,0,0,1,2.49,2.49V288.2a15.3,15.3,0,0,1-15.31,15.31H177a31.18,31.18,0,0,1-31.18-31.17V96.42A1.62,1.62,0,0,1,147.39,94.8Z" transform="translate(-64.07 -92.4)" style="fill:#6d6cd4;opacity:0.39"/><path d="M159.21,94.8H282.7a2,2,0,0,1,2,2v192a14.79,14.79,0,0,1-14.79,14.79H188.76a30.65,30.65,0,0,1-30.65-30.65V95.9A1.1,1.1,0,0,1,159.21,94.8Z" transform="translate(-64.07 -92.4)" style="fill:#3e479b;opacity:0.39"/><path d="M177.49,303.48v0H289.06a23.25,23.25,0,0,0,23.25-23.25v-8.83H199.48v8.83A23.25,23.25,0,0,1,177.49,303.48Z" transform="translate(-64.07 -92.4)" style="fill:#6161b5"/><g style="opacity:0.28"><path d="M192.28,303.48v0h99.33c11.43,0,20.7-10.41,20.7-23.25v-8.83H211.86v8.83C211.86,292.68,203.19,302.82,192.28,303.48Z" transform="translate(-64.07 -92.4)" style="fill:#3e479b"/></g><path d="M263.59,247.37H183.37a1,1,0,0,1,0-2h80.22a1,1,0,0,1,0,2Z" transform="translate(-64.07 -92.4)" style="fill:#fff"/><path d="M265.27,213.6h-83.4a1,1,0,0,1,0-2h83.4a1,1,0,0,1,0,2Z" transform="translate(-64.07 -92.4)" style="fill:#fff"/><path d="M223.48,230.47H180.86a1,1,0,0,1,0-2h42.62a1,1,0,0,1,0,2Z" transform="translate(-64.07 -92.4)" style="fill:#fff"/><path d="M220.25,230.47H184.09a1,1,0,0,1,0-2h36.16a1,1,0,0,1,0,2Z" transform="translate(-64.07 -92.4)" style="fill:#fff"/><path d="M237.35,177.48h-54.9a1,1,0,0,1,0-2h54.9a1,1,0,0,1,0,2Z" transform="translate(-64.07 -92.4)" style="fill:#fff"/><path d="M262.8,177.48H246.08a1,1,0,0,1,0-2H262.8a1,1,0,0,1,0,2Z" transform="translate(-64.07 -92.4)" style="fill:#fff"/><path d="M265.27,194.36H205.82a1,1,0,0,1,0-2h59.45a1,1,0,0,1,0,2Z" transform="translate(-64.07 -92.4)" style="fill:#fff"/><path d="M200,194.36H181.87a1,1,0,0,1,0-2H200a1,1,0,0,1,0,2Z" transform="translate(-64.07 -92.4)" style="fill:#fff"/><path d="M263.59,163.2H183.37a1,1,0,0,1,0-2h80.22a1,1,0,0,1,0,2Z" transform="translate(-64.07 -92.4)" style="fill:#fff"/><path d="M263.59,129.42H183.37a1,1,0,1,1,0-2h80.22a1,1,0,1,1,0,2Z" transform="translate(-64.07 -92.4)" style="fill:#fff"/><path d="M212.81,146.29H182.45a1,1,0,0,1,0-2h30.36a1,1,0,0,1,0,2Z" transform="translate(-64.07 -92.4)" style="fill:#fff"/><path d="M263,146.29H226.82a1,1,0,0,1,0-2H263a1,1,0,0,1,0,2Z" transform="translate(-64.07 -92.4)" style="fill:#fff"/><circle cx="326.1" cy="218.39" r="63.29" transform="translate(-122.98 202.15) rotate(-45)" style="fill:#fff;opacity:0.21"/><path d="M276.5,222.94a4,4,0,0,1-4-4A58,58,0,0,1,330.4,161a4,4,0,0,1,0,8,50,50,0,0,0-49.9,49.9A4,4,0,0,1,276.5,222.94Z" transform="translate(-64.07 -92.4)" style="fill:#fff;opacity:0.76"/><path d="M326.1,283.69a65.3,65.3,0,1,1,65.29-65.3A65.37,65.37,0,0,1,326.1,283.69Zm0-126.59a61.3,61.3,0,1,0,61.29,61.29A61.37,61.37,0,0,0,326.1,157.1Z" transform="translate(-64.07 -92.4)" style="fill:#3e479b;opacity:0.58"/><circle cx="262.03" cy="125.99" r="63.29" style="fill:none"/><path d="M384.27,263.74a3.5,3.5,0,0,1,.3-.24A74,74,0,1,0,371,277l8.54-8.55ZM326.1,281.69a63.3,63.3,0,1,1,63.29-63.3A63.3,63.3,0,0,1,326.1,281.69Z" transform="translate(-64.07 -92.4)" style="fill:#3e479b"/><path d="M326.1,293.25A74.86,74.86,0,1,1,401,218.39a74.16,74.16,0,0,1-15.6,45.72l-.19.19a1.25,1.25,0,0,0-.19.15l-13.33,13.32A74.16,74.16,0,0,1,326.1,293.25Zm0-147.71a72.86,72.86,0,1,0,0,145.71,72.11,72.11,0,0,0,44.28-15L383.56,263a3.48,3.48,0,0,1,.3-.26A72.12,72.12,0,0,0,399,218.39,72.94,72.94,0,0,0,326.1,145.54Zm0,137.15a64.3,64.3,0,1,1,64.29-64.3A64.37,64.37,0,0,1,326.1,282.69Zm0-126.59a62.3,62.3,0,1,0,62.29,62.29A62.37,62.37,0,0,0,326.1,156.1Z" transform="translate(-64.07 -92.4)" style="fill:#3e479b"/><path d="M382.44,275.29l-2.86-2.86a2.84,2.84,0,0,1,0-4L371,277l-.14.14a2.81,2.81,0,0,0,0,4l3.47,3.48C375.52,282.67,378.87,278.9,382.44,275.29Z" transform="translate(-64.07 -92.4)" style="fill:#4c65ba"/><path d="M379.58,268.43a2.84,2.84,0,0,0,0,4l2.86,2.86a80.51,80.51,0,0,1,9.15-8.22l-3.33-3.33a2.81,2.81,0,0,0-3.69-.24,3.5,3.5,0,0,0-.3.24Z" transform="translate(-64.07 -92.4)" style="fill:#4c65ba"/><path d="M379.58,268.43a2.84,2.84,0,0,0,0,4l2.86,2.86a80.51,80.51,0,0,1,9.15-8.22l-3.33-3.33a2.81,2.81,0,0,0-3.69-.24,3.5,3.5,0,0,0-.3.24Z" transform="translate(-64.07 -92.4)" style="fill:#3e479b;opacity:0.43"/><path d="M445.18,319l-52-52.58c-.19-.18-.76.07-1.58.62a80.51,80.51,0,0,0-9.15,8.22c-3.57,3.61-6.92,7.38-8.07,9.3-.37.62-.51,1.06-.35,1.22l52,52.58a13.45,13.45,0,0,0,19.15,0A13.79,13.79,0,0,0,445.18,319Z" transform="translate(-64.07 -92.4)" style="fill:#599af2"/><path d="M445.18,319l-52-52.58c-.7-.7-6.63,4.61-11.72,9.85-4.33,4.47,58.44,67.43,63.73,62.09h0A13.79,13.79,0,0,0,445.18,319Z" transform="translate(-64.07 -92.4)" style="fill:#3e479b;opacity:0.14"/><rect y="125.18" width="207.14" height="36.17" rx="18.09" style="fill:#fff"/><path d="M253.12,253.75H225.31l-.13-36.17h27.94a18.08,18.08,0,0,1,18.08,18.09h0A18.07,18.07,0,0,1,253.12,253.75Z" transform="translate(-64.07 -92.4)" style="fill:#599af2"/><path d="M246.08,242A7.92,7.92,0,1,1,254,234.1a7.92,7.92,0,0,1-7.91,7.91Zm0-13.83a5.92,5.92,0,1,0,4.18,10.09A5.84,5.84,0,0,0,252,234.1,5.92,5.92,0,0,0,246.08,228.18Z" transform="translate(-64.07 -92.4)" style="fill:#fff"/><path d="M257.21,246.29a1,1,0,0,1-.71-.29l-6.27-6.28a1,1,0,0,1,1.41-1.41l6.28,6.27a1,1,0,0,1,0,1.42A1,1,0,0,1,257.21,246.29Z" transform="translate(-64.07 -92.4)" style="fill:#fff"/><path d="M255.56,291.12h-85.1a10.79,10.79,0,0,1-10.79-10.78v-7.07a10.82,10.82,0,0,0-10.82-10.83H109.54a10.83,10.83,0,0,0-10.82,10.83V385.6a10.08,10.08,0,0,0,10.08,10.08H255.56a10.08,10.08,0,0,0,10.08-10.08V301.2A10.09,10.09,0,0,0,255.56,291.12Z" transform="translate(-64.07 -92.4)" style="fill:#f28393"/><path d="M246.18,291.12h-85.1a10.78,10.78,0,0,1-10.78-10.78v-7.07a10.83,10.83,0,0,0-10.83-10.83h-39.3a10.83,10.83,0,0,0-10.83,10.83V385.6a10.08,10.08,0,0,0,10.09,10.08H246.18a10.08,10.08,0,0,0,10.08-10.08V301.2A10.08,10.08,0,0,0,246.18,291.12Z" transform="translate(-64.07 -92.4)" style="fill:#f28393"/><path d="M246.18,291.12h-85.1a10.78,10.78,0,0,1-10.78-10.78v-7.07a10.83,10.83,0,0,0-10.83-10.83h-39.3a10.83,10.83,0,0,0-10.83,10.83V385.6a10.08,10.08,0,0,0,10.09,10.08H246.18a10.08,10.08,0,0,0,10.08-10.08V301.2A10.08,10.08,0,0,0,246.18,291.12Z" transform="translate(-64.07 -92.4)" style="fill:#fff;opacity:0.12"/><path d="M224.6,291.12H151.21c-5.14,0-9.3-4.83-9.3-10.78v-7.07c0-6-4.18-10.83-9.34-10.83H98.68c-5.16,0-9.34,4.85-9.34,10.83V385.6c0,5.57,3.9,10.08,8.7,10.08H224.6c4.8,0,8.69-4.51,8.69-10.08V301.2C233.29,295.64,229.4,291.12,224.6,291.12Z" transform="translate(-64.07 -92.4)" style="fill:#fff;opacity:0.12"/><path d="M97.21,302.35a1,1,0,0,1-1-1V276.81a6.9,6.9,0,0,1,6.89-6.89h29a1,1,0,0,1,0,2h-29a4.9,4.9,0,0,0-4.89,4.89v24.54A1,1,0,0,1,97.21,302.35Z" transform="translate(-64.07 -92.4)" style="fill:#fff"/></svg>