<svg id="Layer_1" data-name="Layer 1" xmlns="http://www.w3.org/2000/svg" width="859.6" height="996.9" viewBox="0 0 859.6 996.9"><title>service-sharepoint-add-in-development</title><polygon points="14.9 109.2 517 12.5 514.7 868.3 12.5 783.5 14.9 109.2" style="fill:none;stroke:#f26522;stroke-linecap:round;stroke-linejoin:round;stroke-width:25px"/><circle cx="791.8" cy="440.4" r="57.8" style="fill:none;stroke:#f26522;stroke-linecap:round;stroke-linejoin:round;stroke-width:20px"/><circle cx="593.8" cy="235.3" r="57.8" style="fill:none;stroke:#f26522;stroke-linecap:round;stroke-linejoin:round;stroke-width:25px"/><circle cx="600.9" cy="631.4" r="57.8" style="fill:none;stroke:#d05d26;stroke-linecap:round;stroke-linejoin:round;stroke-width:20px"/><path d="M663.2,255.2S749.5,283.5,771.7,366" transform="translate(2.5 2.5)" style="fill:none;stroke:#f26522;stroke-linecap:round;stroke-linejoin:round;stroke-width:25px"/><path d="M774,505.1s-25.9,80.2-106.1,108.5" transform="translate(2.5 2.5)" style="fill:none;stroke:#f26522;stroke-linecap:round;stroke-linejoin:round;stroke-width:20px"/><path d="M334.7,258.6s-114.3-30.1-144,48.8c-1.5,4.1-1.7,8.2-2.5,12.8-3.1,16.9,4.5,66.1,43,91.8a78.48,78.48,0,0,0,12.8,6.8c15.3,6.8,66,30.2,79.5,77.9,0,0,16.5,64.3-32.7,93.8-3,1.8-8.3,3.5-11.6,4.4-18.2,5.2-67.2,9.8-111-21.9" transform="translate(2.5 2.5)" style="fill:none;stroke:#f26522;stroke-linecap:round;stroke-linejoin:round;stroke-width:25px"/><polygon points="359.8 620.6 577 498.2 791.6 625.1 789.1 874.4 571.9 996.9 357.2 870 359.8 620.6" style="fill:#f26522"/><polygon points="573.4 754.5 688.9 689.4 802.9 756.8 801.6 889.3 686.1 954.4 572 887 573.4 754.5" style="fill:#f26522;stroke:#fff;stroke-miterlimit:10;stroke-width:20px"/></svg>