<?xml version="1.0" encoding="utf-8"?>
<!-- Generator: Adobe Illustrator 23.0.1, SVG Export Plug-In . SVG Version: 6.00 Build 0)  -->
<svg version="1.1" id="share" xmlns="http://www.w3.org/2000/svg" xmlns:xlink="http://www.w3.org/1999/xlink" x="0px" y="0px"
	 viewBox="0 0 60.8 60.8" style="enable-background:new 0 0 60.8 60.8;" xml:space="preserve">
<style type="text/css">
	.st0{fill:#F26522;}
</style>
<path class="st0" d="M46.6,39.1c-2.5,0-4.8,1.1-6.3,2.9l-15.2-8.8c0.3-0.9,0.4-1.9,0.4-2.9c0-1.5-0.3-2.8-0.9-4.1L40,18.6
	c1.5,1.9,3.9,3.2,6.5,3.2c4.6,0,8.3-3.7,8.3-8.3s-3.7-8.3-8.3-8.3s-8.3,3.7-8.3,8.3c0,0.8,0.1,1.5,0.3,2.2l-15.7,7.7
	c-1.8-1.8-4.3-3-7.1-3c-5.5,0-9.9,4.4-9.9,9.9s4.4,9.9,9.9,9.9c3.3,0,6.2-1.6,8-4.1l15,8.7c-0.3,0.8-0.4,1.7-0.4,2.5
	c0,4.6,3.7,8.3,8.3,8.3s8.3-3.7,8.3-8.3C54.9,42.8,51.2,39.1,46.6,39.1z M46.6,8.4c2.8,0,5,2.3,5,5c0,2.8-2.3,5-5,5
	c-2.8,0-5-2.3-5-5C41.6,10.6,43.9,8.4,46.6,8.4z M15.7,37.2c-3.8,0-6.9-3.1-6.9-6.9s3.1-6.9,6.9-6.9s6.9,3.1,6.9,6.9
	S19.5,37.2,15.7,37.2z M46.6,52.4c-2.8,0-5-2.3-5-5c0-2.8,2.3-5,5-5c2.8,0,5,2.3,5,5C51.7,50.2,49.4,52.4,46.6,52.4z"/>
</svg>
