<svg id="Layer_1" data-name="Layer 1" xmlns="http://www.w3.org/2000/svg" width="363" height="363" viewBox="0 0 363 363"><defs><style>.cls-1,.cls-5,.cls-7,.cls-9{fill:none;}.cls-1,.cls-9{stroke:#fff;}.cls-1,.cls-7,.cls-9{stroke-miterlimit:10;}.cls-2{fill:#fff;}.cls-3{fill:#43baff;}.cls-4,.cls-6{opacity:0.5;}.cls-7{stroke:#231f20;}.cls-8{fill:#231f20;}.cls-9{stroke-width:2px;}</style></defs><title>sharepoint slider image -white</title><circle class="cls-1" cx="181.5" cy="181.5" r="181"/><path class="cls-2" d="M331,250c-3.71,23.59-10.93,30.49-23.72,46.34C294.45,309.77,276.06,332.2,250,331c-23.6-3.71-30.49-10.93-46.34-23.72-13.43-12.78-35.86-31.18-34.61-57.23,3.71-23.6,10.93-30.49,23.72-46.34,12.78-13.44,31.17-35.82,57.23-34.61,23.6,3.71,30.49,10.93,46.34,23.71C309.77,205.55,332.2,223.94,331,250Z" transform="translate(-73.5 -68.5)"/><path class="cls-3" d="M285.63,241.33a7.51,7.51,0,0,0-1.65.12,22.94,22.94,0,0,0-11.53-12.38c0-.29.12-.69.12-1.13a8.36,8.36,0,0,0-8.35-8.35,8.06,8.06,0,0,0-5.12,1.81v13.07A8.17,8.17,0,0,0,271,232.66a18.86,18.86,0,0,1,9.32,10.28,8.5,8.5,0,0,0-3.06,6.37,8.37,8.37,0,0,0,3.18,6.54A19,19,0,0,1,271,266.42a8.27,8.27,0,0,0-6.81-3.63,8.06,8.06,0,0,0-5.12,1.81v13.07a8.06,8.06,0,0,0,5.12,1.81,8.36,8.36,0,0,0,8.35-8.35,3.69,3.69,0,0,0-.12-1.12A22.69,22.69,0,0,0,284,257.5a7.88,7.88,0,0,0,1.65.12,8.15,8.15,0,1,0,0-16.29Z" transform="translate(-73.5 -68.5)"/><path class="cls-3" d="M206.18,217.57,206,282.43l48.36,8.75V208.82Zm27.22,48.6c-3.87,2.91-9.15,1.66-13.35,0,0-2.38-.12-4.88-.12-7.22,2.62,1.94,6.66,4.88,9.72,2.22,2.5-4.15-2.38-6.81-5.12-8.75-6-3.63-6.25-13.63-.4-17.38,3.46-2.1,7.5-1.54,11.25-1,0,2.22.12,4.6.12,6.81-3.19-1-7.1-2.9-9.72.13-1.82,4.71,3.87,6.37,6.65,8.87C237.84,253.27,238.4,262.18,233.4,266.17Z" transform="translate(-73.5 -68.5)"/><circle class="cls-2" cx="40.5" cy="63.5" r="40"/><circle class="cls-2" cx="322.5" cy="63.5" r="40"/><circle class="cls-2" cx="47.5" cy="304.5" r="40"/><circle class="cls-2" cx="322.5" cy="304.5" r="40"/><path class="cls-3" d="M132.69,135.93l-5.47-11a1.37,1.37,0,0,0-.25-.33,1.05,1.05,0,0,0-.35-.21l-6.42-2.31a4.08,4.08,0,0,0-2.84,0L112.49,124a10.2,10.2,0,0,0-1,.45l-.33.19a8.9,8.9,0,0,0-5-1.06l-3.27.28a1,1,0,0,0-.43.14,1.08,1.08,0,0,0-.33.31l-7.38,10.5a1.23,1.23,0,0,0-.21.78,1.16,1.16,0,0,0,.34.73l3.21,3.18a2.56,2.56,0,0,0,.33,3,2.58,2.58,0,0,0,1.79.89h.11a2.59,2.59,0,0,0,2.31,3.38,2.6,2.6,0,0,0,2.42,3.59,2.58,2.58,0,0,0,1.84-.76,2.62,2.62,0,0,0,2.41,2.21h.17a2.66,2.66,0,0,0,.9-.16,2.79,2.79,0,0,0,1.6.45,2.75,2.75,0,0,0,1.85-.84L112,149.45s0-.08,0-.12a2.53,2.53,0,0,0-.13-1l3.62,3.6a3.43,3.43,0,0,0,1.47.26,3.63,3.63,0,0,0,2.6-1.28l.36-.42a.67.67,0,0,0,.09-.14l-5.57-5.54a.4.4,0,0,1,0-.53.33.33,0,0,1,.49,0l6.61,6.6a3.38,3.38,0,0,0,1.15.17,3.21,3.21,0,0,0,2.29-1.13l.88-1a1.24,1.24,0,0,0,.3-.89l-5.8-5.78a.4.4,0,0,1,0-.53.33.33,0,0,1,.49,0l5.83,5.81a2.37,2.37,0,0,0,.75.09,2.6,2.6,0,0,0,1.88-.93l.24-.27a3,3,0,0,0,.71-2.08,3,3,0,0,0-.86-2l-1.55-1.55.39.39,4.21-3.8a1.13,1.13,0,0,0,.36-.65A1.28,1.28,0,0,0,132.69,135.93Zm-32.44,6.29a1.47,1.47,0,0,1-1.38-1.57,1.49,1.49,0,0,1,1.48-1.39h.1a1.43,1.43,0,0,1,1,.5,1.47,1.47,0,0,1-1.21,2.45Zm2.52,3.39a1.45,1.45,0,0,1-1-.4,1.49,1.49,0,0,1-.08-2.08l.89-.93.14-.16a1.5,1.5,0,0,1,2.1-.06,1.51,1.51,0,0,1,.46,1,1.46,1.46,0,0,1-.41,1.06l-.41.43-.28.3,0,.05-.19.19-.08.09,0,0A1.47,1.47,0,0,1,102.77,145.61Zm3.31,3.13a1.44,1.44,0,0,1-1.06.46,1.49,1.49,0,0,1-1.1-2.48s.35-.38.74-.78h0l.29-.3c.5-.53.66-.71.71-.77l0,0h0l.07-.08a1.47,1.47,0,0,1,1.08-.46,1.49,1.49,0,0,1,1,.4,1.51,1.51,0,0,1,.46,1,1.45,1.45,0,0,1-.41,1.06Zm3.26,1.9a1.48,1.48,0,0,1,.09-3h.1a1.48,1.48,0,1,1-.19,3Zm18.11-10.28-11.53-11.5h0l.13-.33a.61.61,0,0,0,0-.54.54.54,0,0,0-.43-.28l-.86,0h0l-.94,0-.07,1.11a13,13,0,0,1-1.47,4.82,6.81,6.81,0,0,1-3.34,3.2,4.6,4.6,0,0,1-.87.11,1.11,1.11,0,0,1-.43-.07l-.44-.21a.74.74,0,0,1-.39-.44.76.76,0,0,1,0-.59l4.38-9.63.75-.49.3-.11h0l5.51-2.11a3.08,3.08,0,0,1,1.08-.2h0a3.13,3.13,0,0,1,1.05.18l6.42,2.31,5.47,11Z" transform="translate(-73.5 -68.5)"/><path class="cls-3" d="M133.69,118l-4.33,2.16a2.71,2.71,0,0,0-1.22,3.65l5.67,11.38a2.68,2.68,0,0,0,1.58,1.36,2.72,2.72,0,0,0,2.08-.14l4.33-2.16Zm3.76,16.25a1,1,0,1,1,1.05-1A1,1,0,0,1,137.45,134.2Z" transform="translate(-73.5 -68.5)"/><path class="cls-3" d="M86,131.72l4,2.78a2.73,2.73,0,0,0,2,.45,2.67,2.67,0,0,0,1.76-1.11l7.3-10.4a2.69,2.69,0,0,0,.46-2,2.72,2.72,0,0,0-1.12-1.76l-4-2.78Zm3.42-.54a1,1,0,1,1,.87,1.19A1,1,0,0,1,89.42,131.18Z" transform="translate(-73.5 -68.5)"/><path class="cls-3" d="M392,137.67a17.53,17.53,0,0,1-8.52-4.66c-3.78,1.85-5.64,4.58-5.64,8.35v12.77a41.82,41.82,0,0,0,13,3.44l-1.52-1.22a1.63,1.63,0,0,1-.58-1.6Z" transform="translate(-73.5 -68.5)"/><path class="cls-3" d="M395.76,134.83a14.49,14.49,0,1,0-14.38-14.49A14.46,14.46,0,0,0,395.76,134.83Z" transform="translate(-73.5 -68.5)"/><polygon class="cls-3" points="321.67 69.73 318.57 85.93 322.4 88.99 326.22 85.93 323.07 69.73 321.67 69.73"/><path class="cls-3" d="M408.12,133a17.69,17.69,0,0,1-8.34,4.62l3.34,17.13a1.63,1.63,0,0,1-.58,1.61l-1.43,1.14A47.55,47.55,0,0,0,414,154.07V141.36C414,137.59,412.06,134.85,408.12,133Z" transform="translate(-73.5 -68.5)"/><g id="Go_to_Web" data-name="Go to Web"><polygon class="cls-3" points="51.46 303.31 51.46 327.96 57.79 321.62 62.38 330.5 65.72 328.77 61.3 320.22 69.83 320.22 51.46 303.31"/><path class="cls-3" d="M143.77,377.11c0-.24.08-.47.11-.71s0-.25.05-.38.06-.45.08-.68,0-.35,0-.53,0-.37,0-.55c0-.38,0-.75,0-1.12s0-.74,0-1.1,0-.46-.05-.68,0-.24,0-.36c0-.29-.07-.58-.1-.87,0-.05,0-.09,0-.14,0-.31-.09-.61-.14-.91a.13.13,0,0,1,0-.06h0a23.1,23.1,0,0,0-20.61-18.92h0c-.31,0-.63-.06-1-.07l-1.08,0L120,350c-.32,0-.64,0-1,.07h0A23.1,23.1,0,0,0,98.37,369h0s0,0,0,.06c0,.3-.1.6-.14.91,0,.05,0,.09,0,.14,0,.29-.07.58-.1.87l0,.36c0,.22,0,.45,0,.68s0,.73,0,1.1,0,.72,0,1.09,0,.47,0,.71,0,.22,0,.33c0,.3.06.6.1.89,0,0,0,.07,0,.11q.06.48.15,1h0A23.1,23.1,0,0,0,117,395.88h0l.21,0,.65.1c.15,0,.3,0,.45.06l.6.07.6.05.48,0,1.11,0h.07v-5.4h-.07a17.87,17.87,0,0,1-3-.26,47.85,47.85,0,0,1-1.88-9.17c1.59.09,3.23.15,4.91.15h.07v-3.08h-.07c-1.84,0-3.57-.06-5.19-.17-.11-1.63-.17-3.36-.17-5.2s.06-3.59.17-5.22c1.62-.11,3.35-.17,5.19-.17s3.56.06,5.18.17c0,.1,0,.19,0,.28a3.86,3.86,0,0,1,1.3.78l1.89,1.74c0-.85-.07-1.69-.12-2.51a46.6,46.6,0,0,1,9.15,1.89,17.9,17.9,0,0,1,.27,3,17.67,17.67,0,0,1-.27,3c-.72.24-1.51.47-2.37.68l1.8,1.67h0l4.26,3.92a22.83,22.83,0,0,0,1.57-5.18h0S143.76,377.15,143.77,377.11Zm-29.23-20.46a56,56,0,0,0-1.5,8.44,56,56,0,0,0-8.42,1.5A17.78,17.78,0,0,1,114.54,356.65Zm0,33a17.83,17.83,0,0,1-9.92-9.95,54.72,54.72,0,0,0,8.42,1.5A56.15,56.15,0,0,0,114.54,389.62Zm-1.76-11.56a47.51,47.51,0,0,1-9.15-1.89,17.87,17.87,0,0,1-.26-3,16.93,16.93,0,0,1,.27-3,46.48,46.48,0,0,1,9.14-1.89c-.1,1.59-.15,3.24-.15,4.93S112.68,376.46,112.78,378.06Zm8.28-13.38c-1.68,0-3.32.05-4.91.15a46.68,46.68,0,0,1,1.89-9.17,17.28,17.28,0,0,1,6,0,47.71,47.71,0,0,1,1.89,9.18C124.37,364.73,122.74,364.68,121.06,364.68Zm8,.41a57.36,57.36,0,0,0-1.49-8.44,17.76,17.76,0,0,1,9.91,9.94A55.72,55.72,0,0,0,129.07,365.09Z" transform="translate(-73.5 -68.5)"/></g><g id="User_-_Orange" data-name="User - Orange"><path class="cls-3" d="M380.08,362a6.15,6.15,0,1,1-6.14,6.15,6.15,6.15,0,0,1,6.14-6.15" transform="translate(-73.5 -68.5)"/><path class="cls-3" d="M385.1,373.75a7.49,7.49,0,0,1-10,0A11.67,11.67,0,0,0,369,384h22.17A11.66,11.66,0,0,0,385.1,373.75Z" transform="translate(-73.5 -68.5)"/><path class="cls-3" d="M411.12,362a6.15,6.15,0,1,1-6.15,6.15,6.14,6.14,0,0,1,6.15-6.15" transform="translate(-73.5 -68.5)"/><path class="cls-3" d="M416.14,373.75a7.49,7.49,0,0,1-10,0A11.66,11.66,0,0,0,400,384H422.2A11.67,11.67,0,0,0,416.14,373.75Z" transform="translate(-73.5 -68.5)"/><path class="cls-3" d="M395.6,362a6.15,6.15,0,1,1-6.14,6.15A6.14,6.14,0,0,1,395.6,362" transform="translate(-73.5 -68.5)"/><path class="cls-3" d="M402.42,375a11.5,11.5,0,0,0-1.8-1.2,7.49,7.49,0,0,1-10,0,11.79,11.79,0,0,0-1.57,1,12.71,12.71,0,0,1,4,9.22h5.58A12.56,12.56,0,0,1,402.42,375Z" transform="translate(-73.5 -68.5)"/></g><path class="cls-4" d="M260,114.86H250v10h10Zm-2-22v4H242v-4h-4v4h-2a4,4,0,0,0-4,4l0,28a4,4,0,0,0,4,4h28a4,4,0,0,0,4-4v-28a4,4,0,0,0-4-4h-2v-4Zm6,36H236v-22h28Z" transform="translate(-73.5 -68.5)"/><path class="cls-5" d="M220.59,90.86h48v48h-48Z" transform="translate(-73.5 -68.5)"/><g class="cls-6"><path d="M101.77,229.86a4,4,0,0,0-4,4l0,32a4,4,0,0,0,4,4h24a4,4,0,0,0,4-4v-24l-12-12Zm14,14v-11l11,11Z" transform="translate(-73.5 -68.5)"/><path class="cls-5" d="M89.77,225.86h48v48h-48Z" transform="translate(-73.5 -68.5)"/></g><line class="cls-7" x1="100.82" y1="122.2" x2="83.53" y2="106.16"/><polygon class="cls-8" points="106 127 101.47 117.25 100.44 121.84 95.94 123.21 106 127"/><polygon class="cls-8" points="78.36 101.36 88.42 105.14 83.92 106.52 82.89 111.1 78.36 101.36"/><line class="cls-7" x1="277.34" y1="259.6" x2="259.02" y2="244.75"/><polygon class="cls-8" points="282.82 264.05 277.65 254.63 276.93 259.27 272.54 260.94 282.82 264.05"/><polygon class="cls-8" points="253.53 240.31 263.82 243.41 259.43 245.09 258.7 249.73 253.53 240.31"/><line class="cls-7" x1="260.36" y1="122.2" x2="277.65" y2="106.16"/><polygon class="cls-8" points="255.18 127 265.24 123.21 260.74 121.84 259.71 117.25 255.18 127"/><polygon class="cls-8" points="282.82 101.36 278.29 111.11 277.26 106.52 272.76 105.14 282.82 101.36"/><line class="cls-7" x1="84.66" y1="260.52" x2="101.34" y2="243.84"/><polygon class="cls-8" points="79.67 265.51 89.58 261.35 85.04 260.14 83.83 255.6 79.67 265.51"/><polygon class="cls-8" points="106.33 238.85 102.17 248.76 100.97 244.21 96.42 243.01 106.33 238.85"/><circle class="cls-2" cx="176.5" cy="85.5" r="5"/><line class="cls-9" x1="176.5" y1="90.5" x2="176.5" y2="108.5"/><circle class="cls-2" cx="176.5" cy="281.5" r="5"/><line class="cls-9" x1="176.5" y1="276.5" x2="176.5" y2="258.5"/><circle class="cls-2" cx="269.5" cy="183.5" r="5"/><line class="cls-9" x1="264.5" y1="183.5" x2="246.5" y2="183.5"/><circle class="cls-2" cx="73.5" cy="183.5" r="5"/><line class="cls-9" x1="78.5" y1="183.5" x2="96.5" y2="183.5"/><g class="cls-6"><path class="cls-5" d="M366.7,226.66h48v48h-48Z" transform="translate(-73.5 -68.5)"/><path d="M390.7,230.66a20,20,0,1,0,20,20A20,20,0,0,0,390.7,230.66Zm9,28h-17a6,6,0,1,1,0-12l.27,0a8,8,0,0,1,15.73,2h1a5,5,0,0,1,0,10Z" transform="translate(-73.5 -68.5)"/></g><g class="cls-6"><path d="M264,371H236a4,4,0,0,0-4,4v28a4,4,0,0,0,4,4h28a4,4,0,0,0,4-4V375A4,4,0,0,0,264,371Zm-20,28h-4V385h4Zm8,0h-4V379h4Zm8,0h-4v-8h4Z" transform="translate(-73.5 -68.5)"/><path class="cls-5" d="M226,365h48v48H226Z" transform="translate(-73.5 -68.5)"/></g></svg>