<svg id="Layer_1" data-name="Layer 1" xmlns="http://www.w3.org/2000/svg" width="401.9" height="414.42" viewBox="0 0 401.9 414.42"><title>sharepoint-integration-navigation</title><polyline points="167.5 385.1 10 356.8 11.1 53.5 237 10 236.3 225.5" style="fill:none;stroke:#f26522;stroke-linecap:round;stroke-linejoin:round;stroke-width:20px"/><path d="M339.9,202.5a26,26,0,0,1,52,0c0,11.7-7.1,21.7-17.6,24.9" style="fill:none;stroke:#f26522;stroke-linecap:round;stroke-linejoin:round;stroke-width:20px"/><circle cx="276.8" cy="110.2" r="26" style="fill:none;stroke:#f26522;stroke-linecap:round;stroke-linejoin:round;stroke-width:20px"/><path d="M309.2,120.3S348,133,358,170.1" style="fill:none;stroke:#f26522;stroke-linecap:round;stroke-linejoin:round;stroke-width:20px"/><path d="M156.1,121.8s-51.4-13.5-64.8,22a26.16,26.16,0,0,0-1.1,5.7c-1.4,7.6,2,29.8,19.4,41.3a40.24,40.24,0,0,0,5.8,3.1c6.9,3,29.7,13.6,35.8,35,0,0,7.4,28.9-14.7,42.2a23.33,23.33,0,0,1-5.2,2c-8.2,2.3-30.2,4.4-49.9-9.9" style="fill:none;stroke:#f26522;stroke-linecap:round;stroke-linejoin:round;stroke-width:20px"/><path d="M373,297.1l-24.4-27.3a30.7,30.7,0,0,0,15.4-7.6,32.36,32.36,0,0,0,10.7-22.1,31.86,31.86,0,0,0-8.1-23.2,32.36,32.36,0,0,0-22.1-10.7,31.86,31.86,0,0,0-23.2,8.1,31.32,31.32,0,0,0-9.2,14.5l-24.4-27.3a14.27,14.27,0,0,0-9.8-4.7,14.11,14.11,0,0,0-10.2,3.6l-40.1,35.8a4,4,0,0,0-.3,5.6l4.3,4.8a3.91,3.91,0,0,0,3.5,1.3,23,23,0,0,1,3.7-.2A19.43,19.43,0,0,1,252,254a18.89,18.89,0,0,1,4.8,13.8,19.23,19.23,0,0,1-6.3,13.2,18.89,18.89,0,0,1-13.8,4.8,19.23,19.23,0,0,1-13.2-6.3,18.89,18.89,0,0,1-4.8-13.8,22,22,0,0,1,.6-3.7,3.94,3.94,0,0,0-.9-3.6l-4.3-4.8a4,4,0,0,0-5.6-.3l-40.1,35.8a14.27,14.27,0,0,0-4.7,9.8,14.11,14.11,0,0,0,3.6,10.2l24.4,27.3a30.7,30.7,0,0,0-15.4,7.6A32.08,32.08,0,1,0,219,391.9a31.32,31.32,0,0,0,9.2-14.5l24.4,27.3a14.27,14.27,0,0,0,9.8,4.7,14.11,14.11,0,0,0,10.2-3.6L312.7,370a4,4,0,0,0,.3-5.6l-4.3-4.8a3.91,3.91,0,0,0-3.5-1.3,23.58,23.58,0,0,1-3.8.2,19.43,19.43,0,0,1-13.2-6.3,18.89,18.89,0,0,1-4.8-13.8,19.23,19.23,0,0,1,6.3-13.2,18.89,18.89,0,0,1,13.8-4.8,19.23,19.23,0,0,1,13.2,6.3,18.89,18.89,0,0,1,4.8,13.8,23.76,23.76,0,0,1-.6,3.7,3.94,3.94,0,0,0,.9,3.6l4.3,4.8a4.08,4.08,0,0,0,2.7,1.3,3.61,3.61,0,0,0,2.8-1l40.1-35.8a14.27,14.27,0,0,0,4.7-9.8A13.13,13.13,0,0,0,373,297.1Zm-6.4,14.1-37.1,33.2-.4-.4c.2-1,.3-2.1.4-3.1A27,27,0,1,0,301,366.3c1,.1,2.1,0,3.1,0l.4.4L267.4,400a6,6,0,0,1-4.5,1.6,6.54,6.54,0,0,1-4.4-2.1l-29.8-33.3a4.09,4.09,0,0,0-4.3-1.1,3.89,3.89,0,0,0-2.6,3.5v.8a24.32,24.32,0,0,1-8,16.7,24.19,24.19,0,0,1-40.3-19.4A24.11,24.11,0,0,1,199,343.9a1.7,1.7,0,0,1,.7.1,4.08,4.08,0,0,0,3.9-2.2,4,4,0,0,0-.6-4.4L173.1,304a6.28,6.28,0,0,1,.5-8.9l37.2-33.2.4.4c-.2,1-.3,2.1-.4,3.1a27,27,0,0,0,44.9,21.7,26.86,26.86,0,0,0,9-18.6A27,27,0,0,0,239.3,240c-1-.1-2.1,0-3.1,0l-.4-.4L273,206.4a6.28,6.28,0,0,1,8.9.5l29.8,33.3a4.09,4.09,0,0,0,4.3,1.1,4.14,4.14,0,0,0,2.6-3.6V237a24.32,24.32,0,0,1,8-16.7,24.22,24.22,0,0,1,32.3,36.1,24.15,24.15,0,0,1-17.5,6.1,1.7,1.7,0,0,1-.7-.1,4.08,4.08,0,0,0-3.9,2.2,4,4,0,0,0,.6,4.4l29.8,33.3a6.07,6.07,0,0,1,1.6,4.6A6.67,6.67,0,0,1,366.6,311.2Z" style="fill:none;stroke:#f26522;stroke-miterlimit:10;stroke-width:10px"/></svg>