<svg id="Layer_1" data-name="Layer 1" xmlns="http://www.w3.org/2000/svg" xmlns:xlink="http://www.w3.org/1999/xlink" width="406" height="406" viewBox="0 0 406 406"><defs><linearGradient id="linear-gradient" x1="214.49" y1="447.99" x2="215.49" y2="0.99" gradientTransform="matrix(1, 0, 0, -1, 0, 445)" gradientUnits="userSpaceOnUse"><stop offset="0" stop-color="#ff512f"/><stop offset="1" stop-color="#f09819"/></linearGradient><linearGradient id="linear-gradient-5" x1="214.71" y1="447.99" x2="215.71" y2="0.99" xlink:href="#linear-gradient"/><linearGradient id="linear-gradient-6" x1="214.27" y1="447.98" x2="215.27" y2="0.98" xlink:href="#linear-gradient"/></defs><title>site</title><path d="M215,427C102.9,427,12,336.1,12,224S102.9,21,215,21s203,90.9,203,203S327.1,427,215,427Zm0-392A189,189,0,1,0,404,224,189,189,0,0,0,215,35Z" transform="translate(-12 -21)" style="fill:url(#linear-gradient)"/><path d="M215,427c-65.6,0-119-91-119-203S149.4,21,215,21s119,91,119,203S280.6,427,215,427Zm0-392c-57.9,0-105,84.8-105,189s47.1,189,105,189,105-84.8,105-189S272.9,35,215,35Z" transform="translate(-12 -21)" style="fill:url(#linear-gradient)"/><path d="M215,427a7,7,0,0,1-7-7V28a7,7,0,0,1,14,0V420A7,7,0,0,1,215,427Z" transform="translate(-12 -21)" style="fill:url(#linear-gradient)"/><path d="M411,231H19a7,7,0,0,1,0-14H411a7,7,0,0,1,0,14Z" transform="translate(-12 -21)" style="fill:url(#linear-gradient)"/><path d="M383,133H47a7,7,0,0,1,0-14H383a7,7,0,0,1,0,14Z" transform="translate(-12 -21)" style="fill:url(#linear-gradient-5)"/><path d="M383,329H47a7,7,0,0,1,0-14H383a7,7,0,0,1,0,14Z" transform="translate(-12 -21)" style="fill:url(#linear-gradient-6)"/></svg>