<svg id="Слой_1" data-name="Слой 1" xmlns="http://www.w3.org/2000/svg" xmlns:xlink="http://www.w3.org/1999/xlink" width="2494.9" height="2000" viewBox="0 0 2494.9 2000"><defs><clipPath id="clip-path"><polygon points="-1 -1 -2 -1 -1 -2 -1 -1" style="fill:none;clip-path:url(#clip-path-3)"/></clipPath><linearGradient id="linear-gradient" x1="987.62" y1="252.86" x2="1447.14" y2="261.64" gradientTransform="matrix(1, 0, 0, -1, 0, 2000)" gradientUnits="userSpaceOnUse"><stop offset="0" stop-color="#fff"/><stop offset="1"/></linearGradient><linearGradient id="linear-gradient-2" x1="1660.8" y1="271.3" x2="2014.2" y2="271.3" xlink:href="#linear-gradient"/><clipPath id="clip-path-3"><polygon points="1 1 2 1 1 2 1 1" style="fill:none"/></clipPath><clipPath id="clip-path-7"><polygon points="-1 -1 -2 -1 -1 -2 -1 -1" style="fill:none;clip-path:url(#clip-path-3)"/></clipPath><mask id="mask" x="-2" y="-2" width="1393.5" height="1761" maskUnits="userSpaceOnUse"><g style="clip-path:url(#clip-path)"><ellipse cx="1214.8" cy="1742.8" rx="176.7" ry="16.2" style="fill:url(#linear-gradient)"/></g></mask><linearGradient id="linear-gradient-4" x1="987.62" y1="252.86" x2="1447.14" y2="261.64" gradientTransform="matrix(1, 0, 0, -1, 0, 2000)" gradientUnits="userSpaceOnUse"><stop offset="0" stop-color="#ff9f55"/><stop offset="1" stop-color="#ffd255"/></linearGradient><mask id="mask-2" x="-2" y="-2" width="2016.2" height="1746.9" maskUnits="userSpaceOnUse"><g style="clip-path:url(#clip-path)"><ellipse cx="1837.5" cy="1728.7" rx="176.7" ry="16.2" style="fill:url(#linear-gradient-2)"/></g></mask><linearGradient id="linear-gradient-6" x1="1660.8" y1="271.3" x2="2014.2" y2="271.3" xlink:href="#linear-gradient-4"/></defs><title>smart-tracking</title><rect width="2494.9" height="2000" style="fill:#fff"/><g style="clip-path:url(#clip-path-7)"><g style="mask:url(#mask)"><ellipse cx="1214.8" cy="1742.8" rx="176.7" ry="16.2" style="fill:url(#linear-gradient)"/></g></g><ellipse cx="1214.8" cy="1742.8" rx="176.7" ry="16.2" style="fill:url(#linear-gradient-4)"/><g style="clip-path:url(#clip-path-7)"><g style="mask:url(#mask-2)"><ellipse cx="1837.5" cy="1728.7" rx="176.7" ry="16.2" style="fill:url(#linear-gradient-2)"/></g></g><ellipse cx="1837.5" cy="1728.7" rx="176.7" ry="16.2" style="fill:url(#linear-gradient-6)"/><path d="M1823.5,467.8H1161.4C991.6,479.1,992.3,666.2,992.3,666.2h0v893.9h662.9v-894C1655.3,666.1,1658.4,478.5,1823.5,467.8Z" style="fill:#e8913a"/><rect x="946" y="677.4" width="8" height="688" style="fill:#ffc155"/><path d="M1710.7,363.1H1306V138.7h404.7Zm-396.8-8h388.7V146.7H1313.9V355.1Z" style="fill:#ffc155"/><path d="M954,596.7H549.3V314.6H954Zm-370.2-8H946V322.6H557.3V588.7m0,0h26.5" style="fill:#ffc155"/><path d="M2099.9,1046H1695.2V820.8h404.7Zm-396.8-8h388.7V828.8H1703.1V1038Z" style="fill:#ffc155"/><path d="M1797.1,455.6C1632,466.3,1628.8,654,1628.8,654v893.9H965.9V654s-.8-187.1,169.1-198.4Z" style="fill:#fff9f5"/><rect x="1053" y="689.2" width="455.3" height="40.2" style="fill:#ffdc94"/><rect x="1053" y="782.1" width="388.8" height="28.5" style="fill:#ffdc94"/><rect x="1053" y="857.2" width="195.4" height="42.3" style="fill:#ffdc94"/><rect x="1306.2" y="857.2" width="202.1" height="42.3" style="fill:#ffdc94"/><rect x="1053" y="938.6" width="311.4" height="30.1" style="fill:#ffdc94"/><rect x="1053" y="1013.9" width="350.8" height="16.7" style="fill:#ffdc94"/><rect x="1053" y="1089.3" width="421.8" height="16.7" style="fill:#ffdc94"/><path d="M1249.9,1258.2H1051.5v-95.1h198.4Zm-195.4-3h192.4v-89.1H1054.5Z" style="fill:#ffdc94"/><rect x="1297.4" y="1164.6" width="177.4" height="21.8" style="fill:#ffdc94"/><rect x="1297.4" y="1210.6" width="125.8" height="21.8" style="fill:#ffdc94"/><rect x="1053" y="1315.2" width="379.4" height="16.7" style="fill:#ffdc94"/><rect x="1053" y="1390.6" width="199.8" height="16.7" style="fill:#ffdc94"/><path d="M1799.6,959.6l-19.6-32a5.59,5.59,0,0,1,9.5-5.9l13.8,22.6,36.8-21.8a5.56,5.56,0,0,1,5.6,9.6Z" style="fill:#ffca55"/><path d="M1812.7,1008.9a70.3,70.3,0,1,1,70.3-70.3A70.33,70.33,0,0,1,1812.7,1008.9Zm0-130.6a60.3,60.3,0,1,0,60.3,60.3A60.37,60.37,0,0,0,1812.7,878.3Z" style="fill:#ffca55"/><polyline points="1413 278.7 1356.9 227.6 1349 236.3 1413.8 295.3 1475.7 227.4 1477 257 1488.8 256.5 1486.5 206.9 1435.8 209.2 1436.4 221 1467 219.5 1413 278.7" style="fill:#ffca55"/><path d="M756.3,466.9" style="fill:#ded4ce"/><line x1="881.1" y1="444.3" x2="881.1" y2="466.9" style="fill:none"/><line x1="896.3" y1="516.3" x2="756.3" y2="516.3" style="fill:none"/><rect x="1912.2" y="897.4" width="113.5" height="22.6" style="fill:#ded4ce"/><rect x="1912.2" y="946.7" width="127.3" height="22.6" style="fill:#ded4ce"/><rect x="1523" y="190.2" width="144.4" height="22.6" style="fill:#ded4ce"/><rect x="1523" y="239.6" width="113.5" height="22.6" style="fill:#ded4ce"/><rect x="1523" y="289" width="127.3" height="22.6" style="fill:#ded4ce"/><polygon points="1801.1 1195.4 1678.2 1195.4 1678.2 1187.4 1793.1 1187.4 1793.1 1050.8 1801.1 1050.8 1801.1 1195.4" style="fill:#ded4ce"/><polygon points="1212.7 442.2 1204.7 442.2 1204.7 402.3 1470.8 402.3 1470.8 374.5 1478.8 374.5 1478.8 410.3 1212.7 410.3 1212.7 442.2" style="fill:#ded4ce"/><polygon points="915.1 911.8 775.3 911.8 775.3 610.5 783.3 610.5 783.3 903.8 915.1 903.8 915.1 911.8" style="fill:#ded4ce"/><path d="M1678.5,789.4h-8v-91c-.1-1.5-9.8-176.3,137.7-201.7l1.4,7.9c-140.5,24.2-131.1,191.8-131,193.5Z" style="fill:#ffc155"/><polygon points="2119.3 964.3 2111.3 964.3 2111.3 810.1 1945.8 810.1 1945.8 802.1 2119.3 802.1 2119.3 964.3" style="fill:#ffc155"/><polygon points="685.2 619.7 527.7 619.7 527.7 471.3 535.7 471.3 535.7 611.7 685.2 611.7 685.2 619.7" style="fill:#ffc155"/><polygon points="1295.7 239.6 1287.7 239.6 1287.7 122.7 1483 122.7 1483 130.7 1295.7 130.7 1295.7 239.6" style="fill:#ffc155"/><polygon points="1682.2 1586.6 1538.9 1586.6 1538.9 1578.6 1674.2 1578.6 1674.2 1361.6 1682.2 1361.6 1682.2 1586.6" style="fill:#ffc155"/><path d="M1781.9,1699.8s-9.4,9.9-19,12-16.3,4.7-16.4,10.4,27.6,9.4,38.5,3.7c16.4-8.6,18-6,19.8-10.3s-2.2-15.7-2.1-17.1C1802.9,1696.9,1781.9,1699.8,1781.9,1699.8Z" style="fill:#202338"/><path d="M1782.9,1695.1s-1.2,4.6-1.1,4.7,21.6,2.5,20.9-1.2c-.5-3-1.3-6.3-1.3-6.3Z" style="fill:#2f6b8c"/><path d="M1888.4,1702.4s-6.9,9.7-16.2,11.9-15.1,6.4-15.5,11.9,21.6,12.8,37.1,3.1c10.2-6.4,14-6,16-10.1s-1.1-15.4-.9-16.7C1909.1,1700.8,1888.4,1702.4,1888.4,1702.4Z" style="fill:#202338"/><path d="M1888.7,1697.6a37.49,37.49,0,0,0-.3,4.8c.2.1,20.6,3.7,20.4,0a29.4,29.4,0,0,0-1.3-6.6Z" style="fill:#2f6b8c"/><path d="M1804.5,1416.3s-9.9,72-14,96.3c-4.7,28.5-6.3,52-7.7,66.7-1.7,18.5-.7,113.3-1.9,118.7s23.4,2.6,23.4,2.6,18-123.6,23-143.3c4.6-18.4,17.3-94.1,21.5-89.1s17.8,91.3,20.9,105.8,15.7,128.5,15.7,128.5,20.9,4.5,26.6,0c0,0-1.3-101.7-3.3-128.8-.8-10.4,6.5-123.9-11-169.7C1888.6,1379.8,1804.5,1416.3,1804.5,1416.3Z" style="fill:#323657"/><path d="M1803.6,1419.7l-1.1,10.8s30.2,12.2,103.7,12.2v-12.4Z" style="fill:#faa146"/><path d="M1719,1283.7s-4.4,9.7-7,10.3-5.7,3.8-7.9,4.8-9.3,1.5-11.2,3.4c-.8.8-3.7,7.2-5.5,8.6s-5.6,3.7-4.4,5.1,5.2.3,5.2.3a2.85,2.85,0,0,0-.9,2.9c1.3,3.1,3.4,3.3,3.4,3.3s-.7,2.4.2,3.5c1.9,2.6,3.9,2.6,3.9,2.6a5.47,5.47,0,0,0,1.8,3.2,4.93,4.93,0,0,0,4.7.8s2.1,2.9,4,2.3,3-2,4.4-2.9,11-11.9,14.5-22.3a77.07,77.07,0,0,1,9.7-18.8Z" style="fill:#eea886"/><path d="M1721,1332.8s34.2,15.5,46.3,12.6c5.6-1.4,13-9.1,20-18.2,2.3-3,4.6-6.1,6.7-9.3h0c8.6-12.4,15.4-24.4,15.4-24.4s25.5-29.9,5-43.2c0,0-7.4-2.8-14.2,4.5s-14.8,22.6-16.6,26.5-26.8,40-28.1,40.8-12.2-2.1-21-2.8c-14.3-1.2-11.5-1.8-11.5-1.8Z" style="fill:#f08d29"/><path d="M1833.6,1243.7s-26.2,5.4-29.3,8.2c-3.4,2.9-9.3,31.7-9.7,39.7s3.2,41.4,6.5,53.9-4.4,65.4,1.8,74.2c0,0,54,17.3,106,10.6,0,0-11.1-50-9.1-67,2.7-21.8,9.1-72.2,9.1-72.2s-6.9-33.9-11.6-37.8-36.8-10.3-36.8-10.3Z" style="fill:#f08d29"/><path d="M1892,1312.1s5,32.2,4.6,34.3S1919,1339.9,1892,1312.1Z" style="fill:#b86c1f"/><path d="M2006.3,1489.6l22.8-37.8a13.53,13.53,0,0,0-4.6-18.6l-57.1-34.4a13.53,13.53,0,0,0-18.6,4.6l-22.8,37.8a13.53,13.53,0,0,0,4.6,18.6l57.1,34.4A13.62,13.62,0,0,0,2006.3,1489.6Z" style="fill:#c4b4af"/><rect x="1743.12" y="1100.62" width="76.3" height="454.99" transform="translate(-275.63 2168.35) rotate(-58.93)" style="fill:#eb4747"/><rect x="1781.76" y="1078.93" width="25.4" height="454.99" transform="translate(-250.66 2169.16) rotate(-58.93)" style="fill:#cf2b2b"/><rect x="1768.59" y="1100.56" width="25.4" height="454.99" transform="translate(-275.56 2168.34) rotate(-58.93)" style="fill:#e03636"/><rect x="1755.45" y="1122.41" width="25.4" height="454.99" transform="translate(-300.64 2167.66) rotate(-58.93)" style="fill:#eb4747"/><polygon points="1566.7 1243.5 1606.1 1178.1 1517.6 1160.3 1494.9 1155.7 1509.6 1173.6 1566.7 1243.5" style="fill:#eddad3"/><path d="M1592.9,1199.9a12.52,12.52,0,0,0,17.1-4.5,12.65,12.65,0,0,0-4-17.3Z" style="fill:#deccc6"/><path d="M1579.8,1221.7a12.52,12.52,0,0,0,17.1-4.5,12.65,12.65,0,0,0-4-17.3Z" style="fill:#e3d1ca"/><path d="M1566.7,1243.5a12.52,12.52,0,0,0,17.1-4.5,12.65,12.65,0,0,0-4-17.3Z" style="fill:#eddad3"/><rect x="1978.09" y="1410.65" width="25.4" height="28" transform="translate(-256.93 2394.52) rotate(-58.93)" style="fill:#b39696"/><rect x="1964.86" y="1432.34" width="25.4" height="28" transform="translate(-281.9 2393.68) rotate(-58.93)" style="fill:#dbb8b8"/><rect x="1951.71" y="1454.37" width="25.4" height="28" transform="translate(-307.01 2393.4) rotate(-58.94)" style="fill:#f2cbcb"/><polygon points="1592.9 1199.9 1494.9 1155.7 1606.1 1178.1 1592.9 1199.9" style="fill:#deccc6"/><polygon points="1579.8 1221.7 1494.9 1155.7 1592.9 1199.9 1579.8 1221.7" style="fill:#e3d1ca"/><polygon points="1579.8 1221.7 1494.9 1155.7 1566.7 1243.5 1579.8 1221.7" style="fill:#eddad3"/><polygon points="1509.6 1173.6 1517.6 1160.3 1494.9 1155.7 1509.6 1173.6" style="fill:#eb4747"/><path d="M1838.2,1420.4a10.88,10.88,0,0,0,3.4-.8s1.8-1.2,3.1-2.1a6.42,6.42,0,0,1,1-.6,21.07,21.07,0,0,0,5.7-3c2.2-1.8,9.7-12.2,9.7-12.2l-4.5-5.6-3.4-5.9s-17.4,2.7-19.7,4.2a2.65,2.65,0,0,0-.6.5c-1.8,1.4-2.5,3.3-3.4,4.1-.3.3-3.2,3.7-3,5a4.33,4.33,0,0,0,2.4,3.4s.8,3.5,2.7,5a6.45,6.45,0,0,0,3.5,4.5C1835.3,1416.8,1836.3,1420.1,1838.2,1420.4Z" style="fill:#eea886"/><path d="M1882.9,1252.3c-3.4,1.3-7.1,9.7-4.4,26,2.9,17.5,8.7,25,11,29.1s15.1,29.3,12.8,32.6-24,24.7-25.2,26.5-25.5,23.7-25.5,23.7l12.3,17.2s52.3-40.9,56.4-44.9,16.3-12.6,11.8-26.9c-4.6-14.5-12.8-48.4-14.3-51S1905.6,1243.5,1882.9,1252.3Z" style="fill:#f08d29"/><path d="M1688.7,1315s8.4-9.3,12.6-9.2,1.3,3.7,1.3,3.7,2.8-3.5,5.7-1.7-.6,5.8-.6,5.8a3.5,3.5,0,0,1,5,.8c2.2,2.9-1.5,5.6-1.5,5.6s5.5-.8,4.4,3.7c-2,7.6-10.2,11.3-10.2,11.3s-2.4.9-4.3-2.1c0,0-5.2,2-6.6-4,0,0-6.2-1.4-4.3-6.3C1690.2,1322.7,1683.9,1320.3,1688.7,1315Z" style="fill:#eea886"/><path d="M1821.7,1246.3s-1.6-7.2,20.9-8.8,37.6,3.4,38.1,9.8-56.9,22.5-56.9,22.5Z" style="fill:#faa146"/><path d="M1844.4,1162.6s-31.5-11.7-29.6,30.2,9.4,46.2,30.1,40.3,22.5-32.3,25.2-45S1854.7,1164.4,1844.4,1162.6Z" style="fill:#eea886"/><path d="M1828.4,1250.3s7.6,3.3,32.2-7.5c0,0-.7-16.9,4.1-32.6s-33,21-33,21c.4.3.5,1.9.2,4.1a45.34,45.34,0,0,1-1.2,6.5C1829.3,1247,1829.6,1246.1,1828.4,1250.3Z" style="fill:#eea886"/><path d="M1865.8,1208.9s.1-11.2-4.6-12.2-7.1,5.4-7.1,5.4l-3.7-.2s3.4-11.3-1.1-13.9-31-.3-34.3-4.1,1.5-26.5,8.7-28.7,27-6.7,39.6,4.4c0,0,10.8,4.7,11.2,13.6S1869.6,1202.8,1865.8,1208.9Z" style="fill:#163342"/><path d="M1830.7,1241.7c24.4-4.1,28.1-18,28.2-18.2-9.5,12.3-26.9,11.7-26.9,11.7C1831.7,1237.1,1831.3,1239.4,1830.7,1241.7Z" style="fill:#b07c63"/><path d="M1855.9,1191.9c1.4-3.7,9.3-3.2,8.5,2.6s-7.3,14.9-9.9,13.2S1854,1197,1855.9,1191.9Z" style="fill:#eea886"/><path d="M1572.7,1435H1447.5V1309.8h125.2Zm-113.2-12h101.2V1321.8H1459.5Z" style="fill:#ffdc94"/><polygon points="1512 1398.8 1468 1357.3 1481.7 1342.7 1512.9 1372.2 1581.5 1315.9 1594.2 1331.3 1512 1398.8" style="fill:#fff"/><path d="M1472.2,1075.8c-93.5-161.1-300-215.8-461.1-122.3a333,333,0,0,0-45.2,31.4v77.4a281.39,281.39,0,0,1,73-60.9c134.6-78.2,307.2-32.4,385.4,102.2a281,281,0,0,1,38,130.9c.1,3.5.2,7,.2,10.4a281.66,281.66,0,0,1-140.4,244c-119.8,69.5-269.6,41-356.2-60.9v77.4a333.19,333.19,0,0,0,65.9,42.4h297.5c7-3.4,13.8-7.1,20.6-11C1511,1443.3,1565.8,1236.9,1472.2,1075.8Z" style="fill:#3f444f;opacity:0.23999999463558197;isolation:isolate"/><rect x="346.1" y="1616.81" width="545.1" height="92.7" transform="translate(-921.36 781.57) rotate(-39.81)" style="fill:#f26522"/><rect x="824.67" y="1444.31" width="29.1" height="70.3" transform="translate(-752.63 880.2) rotate(-39.81)" style="fill:#e66947"/><path d="M801.6,1414.6c93.5,161.1,300,215.8,461.1,122.3s215.8-300,122.3-461.1S1085,860,923.9,953.5,708,1253.5,801.6,1414.6Zm47.9-27.8a281.83,281.83,0,0,1,102.2-385.3c134.6-78.2,307.2-32.4,385.4,102.2a281,281,0,0,1,38,130.9h0c3.7,100.8-46.9,200.3-140.2,254.5C1100.2,1567.2,927.7,1521.4,849.5,1386.8Z" style="fill:#494f5c"/><path d="M824.5,1160.2s293.6-222.9,550.5,74.4h0a281.71,281.71,0,0,0-38-130.9c-78.2-134.6-250.7-180.4-385.4-102.2A280.54,280.54,0,0,0,824.5,1160.2Z" style="fill:#c2c2c2;opacity:0.30000001192092896;isolation:isolate"/><path d="M1199.9,782.3s5.4-18.2,4.7-20.2-13.4-14.2-13.3-15.7,17-11.9,18.7-14.9,4.9,5.7,5.5,13.2,1.8,19.5,1.8,21.1-3.9,22.1-3.9,22.1Z" style="fill:#de9d7d"/><path d="M1151,810.5s.3,1.9.8,4.7h0c.3,1.8.6,3.9,1,6.1,1.2,7,2.6,15.4,3.1,18.3,1,5.3,4.3,17.6,8.5,23.4,1.7,2.4,6.3,3.5,8.6,3.7,2.7.2,9.7,3,17.9-10s21.3-58.6,22-61.1,2.7-9.4,2.7-9.4l-16.9-6s-12.1,32.9-13.8,37.5c-1.3,3.4-8.9,17.3-9.3,17.7s-1.3-37.8-1.3-37.8Z" style="fill:#e55353"/><path d="M1225.4,1058.5s12.5,21.1,17.7,24.6c7.1,4.7,2.7,9.4-.7,9.4s-20.7,1.2-24.5-3.1-5.7-17.3-9.3-20.7-7.2-16.9,1.7-20.2C1218.3,1045.6,1225.4,1058.5,1225.4,1058.5Z" style="fill:#323657"/><path d="M1220,1049.2s14.3,24.7,16.7,28.4-4.6,3.6-9,1.9-15.4-19.5-17-22.7c-1.9-3.9-.3-8.3-.3-8.3Z" style="fill:#eea886"/><polygon points="1205.6 1062.5 1208.9 1087.9 1210.6 1088 1210.1 1069.7 1205.6 1062.5" style="fill:#323657"/><path d="M1101.9,1058.5s12.5,21.1,17.7,24.6c7.1,4.7,2.7,9.4-.7,9.4s-20.7,1.2-24.5-3.1-5.7-17.3-9.3-20.7-7.3-17.2,1.7-20.2C1094.7,1046,1101.9,1058.5,1101.9,1058.5Z" style="fill:#323657"/><path d="M1097.2,1049.3s13.5,24.7,16,28.3-4.6,3.6-9,1.9-15.4-19.5-17-22.7c-1.9-3.9-.3-8.3-.3-8.3Z" style="fill:#eea886"/><polygon points="1082 1062.5 1085.3 1087.9 1087 1088 1086.5 1069.7 1082 1062.5" style="fill:#323657"/><path d="M1046.6,866.3l112.8,51.4a21.78,21.78,0,0,1,5.7,3.2h0a34.62,34.62,0,0,1,3.5,3.3,20.68,20.68,0,0,1,4.8,11.6c4.4,43.6,37,112.8,37,112.8,10.5,5.1,9.7.7,9.7.7-6.6-21.2-14.6-108.5-17.5-143.6-.6-7.4-1-12.5-1.1-14.2-.1-1.1-1.3-2.6-3.4-4.3-15.5-12.5-79.1-38.5-79.1-38.5C1071.2,847.5,1046.6,866.3,1046.6,866.3Z" style="fill:#eea886"/><path d="M1038.3,883.9c3.5,30.5,34,31.4,34,31.4H1125s-13.9,30.8-19.2,56.8c-5.7,27.6-19.1,76.4-19.1,76.4s.9,1.7,10.4.7c0,0,41.4-82.5,57.2-103.2,3.4-4.5,13.2-28.7,14.9-43.1.6-4.9.2-8.6-1.6-10.1s-6-4.4-11.6-8c-16.5-10.4-45.2-26.5-61.2-30-21.4-4.8-46-13.8-46-13.8S1034.8,853.4,1038.3,883.9Z" style="fill:#eea886"/><path d="M1119.5,915.3h-47.2s-34.4.9-38.4-29.5c-3.4-25.5,12.6-43,12.6-43s16,4.3,36.1,9.1a160.42,160.42,0,0,1,36.3-3.2s59.9,12.1,82.1,41.6C1201.1,890.3,1165.9,872.6,1119.5,915.3Z" style="fill:#323657"/><path d="M1170.6,715.4c-.2,3.4-.2,6.9-.3,10.2,0,1,0,2.1.1,3.1a32.09,32.09,0,0,0,6.1,16.4h0c4.9,6.4,12.2,10.1,20.8,8.1,15.8-3.7,26.2-54.9,26.2-54.9-4.3-20-31-21.2-41.7-14C1173.5,689.9,1171.2,702.6,1170.6,715.4Z" style="fill:#eea886"/><path d="M1044,844.2s.5,5.9,45.2,12.9c1.2.2,2.4.4,3.5.6,4.1.7,7.6,1.3,10.6,1.9,21.2,3.9,16.9,3.8,25.7-11,1.2-2,9.3-21.1,12.4-22.9s8.8-7.8,11.2-11.6,11.4-1.3,19.8-8.7,4.9-17.9,5.4-26.5c.9-15-4.8-32.1-4.8-32.1-23.5-44.1-57.8-9.1-64.1-2.8s-27.5,58.5-33.3,65.1C1055,832.5,1044,844.2,1044,844.2Z" style="fill:#e55353"/><path d="M1149,727.1s3.5,42.9,13.7,47.8c10.5,5,6.8-37.2,6.8-37.2S1161,719.9,1149,727.1Z" style="fill:#eea886"/><path d="M1211.3,701.4s5.4,17.7,4.5,24.7c0,0,7.1-9.5,8.5-18.3s5.6-22.7-7.5-33.5S1211.3,701.4,1211.3,701.4Z" style="fill:#163342"/><path d="M1158.1,739.8c0,10.6,11.3,16.6,12.2,11.5.1-.6,1.4-1.9,2.4-2.9h0l.9-.9a24.68,24.68,0,0,1,2.9-2.4,49.61,49.61,0,0,1,10.4-4.5l-11.4-31.2s-2.1,2.4-4.9,6.1C1165.4,722.1,1158.1,732.9,1158.1,739.8Z" style="fill:#eea886"/><path d="M1172.7,748.4l.9-.9a24.68,24.68,0,0,1,2.9-2.4s-5.6-7.7-6.1-16.4C1170.4,728.6,1167.9,735.3,1172.7,748.4Z" style="fill:#a77860"/><path d="M1132.4,938.8a9.29,9.29,0,0,1-1.5-2.5s-.3-1.8-.6-3c-.1-.4-.2-.7-.3-1a17.8,17.8,0,0,1-1.6-5.2c-.2-2.4,1.6-13,1.6-13l6-.7,5.5-1.4s8.7,12,9.1,14.2c0,.2.1.4.1.6.2,1.9-.5,3.4-.5,4.4,0,.4-.3,4.1-1.2,4.7a3.61,3.61,0,0,1-3.5.6s-2.6,1.6-4.6,1.4a5.13,5.13,0,0,1-4.7.5C1136.3,938.5,1133.8,939.8,1132.4,938.8Z" style="fill:#ffb48f"/><path d="M1130.9,760.3s5.9-22.2-9.5-21.8-16.4,19.5-16.9,23.3-5.7,48.7-5.1,57.2-1.1,20.1.7,31.3c1.4,8.4,28.7,67.2,29.2,67.4s14-5.3,14-5.3-17.6-57.3-19.9-62.6c-3.6-8.2-2.2-14.3-2.4-18.3S1130.3,763.8,1130.9,760.3Z" style="fill:#e55353"/><path d="M1213.5,703.3s-7.4,13.1-19,10-20.1-.1-21.5,4.8-11.3,31-21.8,30.2-18.1-16.8-24-13.7-12.3,20.7-20,16-6.2-21,10.2-28,28.1-7,32.9-16.2,16.7-34.1,28.1-39.1c8.4-3.7,18.5-6.4,34.3,3.9s10.9,27.1,10.9,27.1Z" style="fill:#163342"/><path d="M1165.1,920.8h0a34.62,34.62,0,0,1,3.5,3.3s2.3-8.7,1-23.5C1169.5,900.6,1169.5,907,1165.1,920.8Z" style="fill:#b07c63"/><path d="M1092.7,857.7c4.1.7,7.6,1.3,10.6,1.9h0s-3.3-7.5-3.2-10-1.6-29.4.5-50.1,1.9-19.2,1.9-19.2S1088.2,822.9,1092.7,857.7Z" style="fill:#a63d3d"/><path d="M1151.8,815.2h0c.3,1.8.3,1.7.7,4,13.2-4.8,16.8-11.1,16.9-11.4-4.5,3.3-10.7,3.7-13.9,4.4S1151.8,815.2,1151.8,815.2Z" style="fill:#a63d3d"/><path d="M1233.9,1160.5s18.9,9.2,14.2,34.3-6.7,28.5-1.5,38.3,11.4,51.6,6.7,59.6-58.1-34.8-65.5-70.7,4.7-51.8,9-57.8S1217.3,1152.1,1233.9,1160.5Z" style="fill:#0e2d3d"/><polygon points="1076.2 1113.2 1155.6 1113.2 1155.6 1170.7 1155.6 1182.8 1143.4 1170.7 1076.2 1170.7 1076.2 1113.2" style="fill:#78c2ff"/><path d="M1242,1694.4a47.08,47.08,0,0,0,5.5,9.2c2.6,3.4,10.8,17.6,14.5,18.6s14.8,3,15.8,9.2,1.5,10.7-9.5,11.2-18.2,1.2-23.5-6.6-13.6-13.3-13.6-13.3v20.2h-4.3s-2-21-3.1-22.5-4.1-17.6,6.1-26S1242,1694.4,1242,1694.4Z" style="fill:#163342"/><path d="M1262,1722.2s-9.9,2.5-13.6,0-16.6-24.2-20.9-25.5c0,0,4.1-8.4,14.6-2.3C1242,1694.4,1259.2,1718.6,1262,1722.2Z" style="fill:#eea886"/><path d="M1358.2,1350.4s6.8,1.3,9.2-1.9c2-2.7,6.5-4.8,7.9-5.5,1.9-.9,6.6-5.7,7.7-3.3s-7.4,8.3-9,9.9,8.4,2.3,10.1,3.9-.4,18-7.2,16.7-13.2-7.1-14.4-7.1a49.51,49.51,0,0,1-5-.7Z" style="fill:#eea886"/><path d="M1382.7,1352.8s20.5,5.3,21.5,6.8.7,2.6-1.2,2.2-19.9-4.5-19.9-4.5,23.2,10.3,24.3,11.4c.7.6.1,2.8-.9,2.6s-24.6-9-24.6-9,21.6,9.7,22.3,10.8a1.58,1.58,0,0,1-2,2.2c-1.6-.7-22.2-8.5-22.2-8.5s15.3,8,15.3,9.4c0,.8-.4,2.7-4.3.5s-13.6-6.4-13.6-6.4Z" style="fill:#eea886"/><path d="M1186.9,1707.5s11,16.4,15.4,20.3c0,0,9.9,3.6,10.8,10.5s.8,11.5-10.8,11.8-19.3-1.8-21.5-8.8a31.55,31.55,0,0,0-6.8-11.9v14.8h-2.6s-.7-14.3-.8-16.9-1.9-12.7,3.7-17.2S1186.9,1707.5,1186.9,1707.5Z" style="fill:#163342"/><path d="M1179.5,1391.8s-13.9,18.1-17.7,39.5,2.2,93.4,2.1,104-10,37-8.1,57,9.8,119.4,9.8,119.4l21.3-4.2s-1.2-101.3,0-109.7,3.7-38.9,4.2-42.4,31.3-94.1,31.3-109.5S1213,1366.6,1179.5,1391.8Z" style="fill:#1d3b54"/><path d="M1249.3,1398.9s22.8,87.2,25.6,99.3,6.6,22,6.6,27.2c0,11.9-4.4,31-4.4,31l-29,138.7h-27.6s15.4-83.2,15.8-99.5,13-39.5,10.5-46.4-39.7-86.5-39.7-86.5S1178.9,1373.6,1249.3,1398.9Z" style="fill:#1d3b54"/><path d="M1202.3,1727.8s-11.3,6.3-18.5-1.8a57.2,57.2,0,0,1-9.5-15.9l12.6-2.6Z" style="fill:#eea886"/><path d="M1239.9,1250.7a28.53,28.53,0,0,1,16.5,8.5c7.1,7.6,13.8,19.8,15.7,23.9s28,41.8,29.3,42.6,14.5,5.2,23.2,8.2c13.4,4.5,40.3,14.3,40.3,14.3l-5.3,16.9s-50.6-16.6-63.3-19.7c-15.5-3.8-51.2-49.6-51.2-49.6S1218.6,1264.6,1239.9,1250.7Z" style="fill:#285173"/><path d="M1223.5,1244.1s12.2,5.8,16.4,6.6,20.7,22.2,23.6,30,0,19.5-5.9,33.2-.3,18.3-3,32-1.8,65.1-1.3,72.7-79.3,19.2-95.1,5.3c0,0,10.7-46.3,23.3-59.5,2.7-2.9,2.4-21.9.6-26.6s-22.9-40.2-22.9-40.2-1.5-35.9,7.6-43c8-6.2,29.7-8.4,33.6-9.7S1215.5,1242.9,1223.5,1244.1Z" style="fill:#ff7e55"/><path d="M1229.3,1230s-.4,3.4-.8,7.9c-.2,1.8-.3,3.8-.5,5.8-.5,6.1-.9,12.6-.6,16,0,0-12.7,12.7-27.1-14.8,0,0,6.1-11.4,1.5-26.8S1229.3,1230,1229.3,1230Z" style="fill:#eea886"/><path d="M1264.8,1319s3.1-20.3-.2-32.6c0,0,0,10.6-5.8,25.7Z" style="fill:#183c59"/><path d="M1190.5,1246.8s8.7,25.8,32.7,23.9,11.4-21.8,11.4-21.8-6-3.4-7.6-3.7-26.5-.6-26.5-.6Z" style="fill:#eea886"/><path d="M1234.5,1248.9s12.5,34.7,12.5,70,1,93,5.4,111.1,16.8,74.4,16.8,74.4l9.8-5.1s-23.5-89.8-25.3-96.2,1.3-74.9,3-80.6,8.8-31.2,7.7-38.3c-1.4-8.9-9.7-22.1-23.2-33.4Z" style="fill:#285173"/><path d="M1195.3,1245.7a358.65,358.65,0,0,1,11.7,56.9c4,32-12.1,180.3-22.9,214l-41.8-6.7s9-104.9,21.2-124,16.1-36,2.9-75.8,5.8-59.6,5.8-59.6S1191.6,1246.2,1195.3,1245.7Z" style="fill:#285173"/><polygon points="1240.3 1351.6 1189.7 1439.3 1133.4 1406.8 1181.8 1317.8 1240.3 1351.6" style="fill:#616161"/><polygon points="1234.2 1354.6 1189.2 1432.5 1139.2 1403.6 1182.3 1324.6 1234.2 1354.6" style="fill:#e0cec7"/><polygon points="1217.6 1347.6 1220.8 1342.1 1200.6 1330.5 1196.6 1335.5 1217.6 1347.6" style="fill:#616161"/><path d="M1215.2,1409.8a10.23,10.23,0,0,1-3.3-.5s-1.8-1-3.1-1.7l-1-.5a19,19,0,0,1-5.6-2.4c-2.2-1.6-10.2-10.7-10.2-10.7l3.7-5.7,2.7-5.8s16.6,1.1,18.9,2.3a2.09,2.09,0,0,1,.6.4c1.8,1.2,2.6,2.9,3.5,3.6.3.3,3.3,3.2,3.2,4.5a4.07,4.07,0,0,1-2,3.5s-.4,3.4-2.1,5a6.16,6.16,0,0,1-2.9,4.5C1217.7,1406.2,1217.1,1409.4,1215.2,1409.8Z" style="fill:#eea886"/><path d="M1180.9,1250.7s-15.4-4.4-24.2,12.5-8.8,24.2-9.9,32.4c-1.1,7.8-6.1,29.1-6.6,31.3s-11.9,28.5-6.7,37.7,58.5,36.4,58.1,38.4,9.2-20.5,9.2-20.5-21.5-12-25.1-15.7c-5.7-6-17.8-12.5-15.3-19.9,2.9-8.7,11.7-38.3,13.7-42.6S1193.9,1256.2,1180.9,1250.7Z" style="fill:#285173"/><path d="M1231.2,1163.3s27.4,8.6,12.5,55.9-52.3-5.5-48.3-34.3S1231.2,1163.3,1231.2,1163.3Z" style="fill:#eea987"/><path d="M1246.5,1190.9a61.34,61.34,0,0,1-36.4,15s-8.7,10.3-9.4,14.3c0,0-20.3-34.6,4.7-55.4S1255.7,1182.3,1246.5,1190.9Z" style="fill:#0e2d3d"/><path d="M1210.4,1206.8c-.2-3.4-2.3-11.3-7.4-9.1s.3,18.1,3.7,17.1C1206.7,1214.9,1210.8,1215,1210.4,1206.8Z" style="fill:#eea987"/><path d="M1228.5,1237.9c-.2,1.8-.3,3.8-.5,5.8,0,0-12.1-.7-20.2-18.7C1208.4,1225.8,1217.2,1238.8,1228.5,1237.9Z" style="fill:#a77860"/><path d="M636.9,395.8a5.7,5.7,0,1,0,5.7,5.7A5.76,5.76,0,0,0,636.9,395.8Z" style="fill:#ffca55"/><path d="M636.9,351.5a50,50,0,0,0-50,50c0,13.6,7.4,31.5,22.1,53A301.25,301.25,0,0,0,630.3,482a8.58,8.58,0,0,0,6.5,2.9,8.78,8.78,0,0,0,6.5-2.9,301.25,301.25,0,0,0,21.3-27.5c14.7-21.5,22.1-39.4,22.1-53A49.85,49.85,0,0,0,636.9,351.5Zm0,73.2a23.2,23.2,0,1,1,23.2-23.2A23.22,23.22,0,0,1,636.9,424.7Z" style="fill:#ffca55"/><path d="M793.5,541H771.7a28.08,28.08,0,0,1-28-28,45.54,45.54,0,0,0-45.5-45.5H677.1c-4.8,6.9-9.5,13-13.2,17.5h34.3a28.08,28.08,0,0,1,28,28,45.54,45.54,0,0,0,45.5,45.5h35C803,553.9,798.3,547.9,793.5,541Z" style="fill:#ffca55"/><path d="M833.7,469.3a5.7,5.7,0,1,0,5.7,5.7A5.76,5.76,0,0,0,833.7,469.3Z" style="fill:#ffca55"/><path d="M833.7,425.1a50,50,0,0,0-50,50c0,13.6,7.4,31.5,22.1,53a301.25,301.25,0,0,0,21.3,27.5,8.58,8.58,0,0,0,6.5,2.9,8.78,8.78,0,0,0,6.5-2.9,301.25,301.25,0,0,0,21.3-27.5c14.7-21.5,22.1-39.4,22.1-53A49.85,49.85,0,0,0,833.7,425.1Zm0,73.2a23.2,23.2,0,1,1,23.2-23.2A23.22,23.22,0,0,1,833.7,498.3Z" style="fill:#ffca55"/></svg>