<svg id="Layer_1" data-name="Layer 1" xmlns="http://www.w3.org/2000/svg" xmlns:xlink="http://www.w3.org/1999/xlink" width="420" height="420" viewBox="0 0 420 420"><defs><linearGradient id="linear-gradient" x1="252.28" y1="448.3" x2="245.28" y2="8.3" gradientTransform="matrix(1, 0, 0, -1, 0, 445)" gradientUnits="userSpaceOnUse"><stop offset="0" stop-color="#ff512f"/><stop offset="1" stop-color="#f09819"/></linearGradient><linearGradient id="linear-gradient-2" x1="255.06" y1="448.25" x2="248.06" y2="8.25" gradientTransform="matrix(1, 0, 0, -1, -40, 431)" xlink:href="#linear-gradient"/><linearGradient id="linear-gradient-4" x1="253.62" y1="448.28" x2="246.62" y2="8.28" xlink:href="#linear-gradient"/></defs><title>software-management</title><path d="M257,133V105a14,14,0,0,1,14,14h14a28.08,28.08,0,0,0-28-28V77H243V91a28,28,0,0,0,0,56v28a14,14,0,0,1-14-14H215a28.08,28.08,0,0,0,28,28v14h14V189a28,28,0,0,0,0-56Zm-28-14a14,14,0,0,1,14-14v28A14,14,0,0,1,229,119Zm28,56V147a14,14,0,0,1,0,28Z" transform="translate(-40 -14)" style="fill:url(#linear-gradient)"/><circle cx="210" cy="301" r="7" style="fill:url(#linear-gradient-2)"/><path d="M376,160.3V120.4l-38.5-5.6c-2.1-6.3-4.2-12.6-7.7-18.2l23.8-31.5L324.9,36.4,293.4,60.2a142,142,0,0,0-18.2-7.7L270.3,14H230.4l-5.6,38.5c-6.3,2.1-12.6,4.2-18.2,7.7L175.1,36.4,146.4,65.1l23.8,31.5a142,142,0,0,0-7.7,18.2L124,119.7v39.9l38.5,5.6c2.1,6.3,4.2,12.6,7.7,18.2l-23.8,31.5,28.7,28.7,31.5-23.8a142,142,0,0,0,18.2,7.7l5.6,38.5h39.9l5.6-38.5c6.3-2.1,12.6-4.2,18.2-7.7l31.5,23.8,28.7-28.7-23.8-31.5a142,142,0,0,0,7.7-18.2Zm-14-28v16.1l-21.7,2.8A56.58,56.58,0,0,0,341,140a56.58,56.58,0,0,0-.7-11.2ZM250,217a77,77,0,1,1,77-77A76.78,76.78,0,0,1,250,217ZM323.5,55.3l11.2,11.2L321.4,84c-4.9-5.6-9.8-11.2-15.4-15.4ZM242.3,28h16.1l2.8,21.7A60.21,60.21,0,0,0,250,49a60.21,60.21,0,0,0-11.2.7Zm-77,38.5,11.2-11.2L194,68.6c-5.6,4.9-11.2,9.8-15.4,15.4ZM138,147.7V131.6l21.7-2.8A60.21,60.21,0,0,0,159,140a60.21,60.21,0,0,0,.7,11.2Zm38.5,77-11.2-11.2L178.6,196c4.9,5.6,9.8,11.2,15.4,15.4ZM257.7,252H241.6l-2.8-21.7a56.58,56.58,0,0,0,11.2.7,56.58,56.58,0,0,0,11.2-.7Zm77-38.5-11.2,11.2L306,211.4c5.6-4.9,11.2-9.8,15.4-15.4Z" transform="translate(-40 -14)" style="fill:url(#linear-gradient)"/><path d="M439,98H390v14h49a6.61,6.61,0,0,1,7,7V280H54V119a6.61,6.61,0,0,1,7-7h49V98H61a20.63,20.63,0,0,0-21,21V329a20.63,20.63,0,0,0,21,21H208v42H173a20.63,20.63,0,0,0-21,21v21H348V413a20.63,20.63,0,0,0-21-21H292V350H439a20.63,20.63,0,0,0,21-21V119A20.63,20.63,0,0,0,439,98ZM327,406a6.61,6.61,0,0,1,7,7v7H166v-7a6.61,6.61,0,0,1,7-7ZM222,392V350h56v42Zm224-63a6.61,6.61,0,0,1-7,7H61a6.61,6.61,0,0,1-7-7V294H446Z" transform="translate(-40 -14)" style="fill:url(#linear-gradient-4)"/></svg>