<?xml version="1.0" encoding="utf-8"?>
<!-- Generator: Adobe Illustrator 18.0.0, SVG Export Plug-In . SVG Version: 6.00 Build 0)  -->
<!DOCTYPE svg PUBLIC "-//W3C//DTD SVG 1.1//EN" "http://www.w3.org/Graphics/SVG/1.1/DTD/svg11.dtd">
<svg version="1.1" id="Layer_1" xmlns="http://www.w3.org/2000/svg" xmlns:xlink="http://www.w3.org/1999/xlink" x="0px" y="0px"
	 viewBox="-7.3 -5.9 46.7 37.7" enable-background="new -7.3 -5.9 46.7 37.7" xml:space="preserve">
<g>
	<path fill="#F26522" d="M9.3,2.3c0.3-1.1,1.2-2.1,2.4-2.4c0.4-0.1,0.6-0.5,0.5-0.9c-0.1-0.4-0.5-0.6-0.9-0.5
		c-1.6,0.5-3,1.8-3.4,3.4C7.7,2.3,7.9,2.7,8.3,2.8c0.1,0,0.1,0,0.2,0C8.9,2.8,9.2,2.6,9.3,2.3z"/>
	<path fill="#F26522" d="M10,3.2c0,1.4,1.1,2.6,2.6,2.6s2.6-1.1,2.6-2.6S14,0.7,12.6,0.7C11.2,0.7,10,1.8,10,3.2z M12.6,2.1
		c0.6,0,1.1,0.5,1.1,1.1s-0.5,1.1-1.1,1.1c-0.6,0-1.1-0.5-1.1-1.1C11.5,2.6,12,2.1,12.6,2.1z"/>
	<path fill="#F26522" d="M32.8-5.3H16.9c-0.4,0-0.7,0.3-0.7,0.7v1.4c-1-0.6-2.3-0.9-3.5-0.9c-3.5,0-6.4,2.4-7.1,5.7h-5.6
		c-0.8,0-1.5,0.6-1.5,1.5v20.2c0,0.8,0.6,1.5,1.5,1.5h10.7v2.7H9.4c-1.5,0-2.7,1.2-2.7,2.7l0,0c0,0.4,0.3,0.7,0.7,0.7h12.4
		c0.4,0,0.7-0.3,0.7-0.7c0-1.5-1.2-2.7-2.7-2.7h-1.3v-2.7h10.8c0.8,0,1.5-0.6,1.5-1.5V11.7h4c0.4,0,0.7-0.3,0.7-0.7V-4.6
		C33.6-5,33.2-5.3,32.8-5.3z M12.6-2.6c1.3,0,2.5,0.5,3.5,1.2v9.3c-1,0.7-2.2,1.2-3.5,1.2C9.4,9,6.8,6.4,6.8,3.2S9.4-2.6,12.6-2.6z
		 M13.6,23.2c-0.6,0-1-0.5-1-1c0-0.6,0.5-1,1-1s1,0.5,1,1C14.6,22.8,14.2,23.2,13.6,23.2z M25.8,19.6H1.4v-15h4
		c0.6,3.3,3.6,5.9,7.1,5.9c1.3,0,2.5-0.3,3.5-0.9V11c0,0.4,0.3,0.7,0.7,0.7h8.9L25.8,19.6L25.8,19.6z M32.1,10.3H17.6V-3.8h14.5
		C32.1-3.8,32.1,10.3,32.1,10.3z"/>
	<path fill="#F26522" d="M21.5,5.9c0.2,0.2,0.3,0.2,0.5,0.2c0.2,0,0.4-0.1,0.5-0.2c0.3-0.3,0.3-0.8,0-1l-1.8-1.8l1.8-1.8
		c0.3-0.3,0.3-0.8,0-1c-0.3-0.3-0.8-0.3-1,0l-2.3,2.3C19.1,2.7,19,2.9,19,3.1s0.1,0.4,0.2,0.5L21.5,5.9z"/>
	<path fill="#F26522" d="M27.1,5.9c0.2,0.2,0.3,0.2,0.5,0.2s0.4-0.1,0.5-0.2l2.3-2.3c0.2-0.2,0.2-0.3,0.2-0.5s-0.1-0.4-0.2-0.5
		l-2.3-2.3c-0.3-0.3-0.8-0.3-1,0c-0.3,0.3-0.3,0.8,0,1L28.9,3l-1.8,1.8C26.8,5.2,26.8,5.6,27.1,5.9z"/>
	<path fill="#F26522" d="M23.9,7.2c0,0,0.1,0,0.2,0c0.3,0,0.6-0.2,0.7-0.6l1.5-6.5c0.1-0.4-0.2-0.8-0.5-0.9S25-0.6,24.9-0.2
		l-1.5,6.5C23.3,6.7,23.5,7.1,23.9,7.2z"/>
</g>
<text transform="matrix(1 0 0 1 3.2 29.4396)" display="none" enable-background="new    " font-family="'Arial-BoldMT'" font-size="1.28">Created by Adrien Coquet</text>
<text transform="matrix(1 0 0 1 3.2 30.7196)" display="none" enable-background="new    " font-family="'Arial-BoldMT'" font-size="1.28">from the Noun Project</text>
</svg>
