<svg id="Layer_1" data-name="Layer 1" xmlns="http://www.w3.org/2000/svg" xmlns:xlink="http://www.w3.org/1999/xlink" width="511.81" height="512" viewBox="0 0 511.81 512"><defs><linearGradient id="linear-gradient" x1="230.33" y1="516.58" x2="240.33" y2="-1.42" gradientTransform="matrix(1, 0, 0, -1, 0, 513)" gradientUnits="userSpaceOnUse"><stop offset="0" stop-color="#ff512f"/><stop offset="1" stop-color="#f09819"/></linearGradient><linearGradient id="linear-gradient-2" x1="79.52" y1="513.67" x2="89.52" y2="-4.33" xlink:href="#linear-gradient"/><linearGradient id="linear-gradient-3" x1="250.25" y1="516.97" x2="260.25" y2="-1.03" xlink:href="#linear-gradient"/><linearGradient id="linear-gradient-4" x1="408.61" y1="520.02" x2="418.61" y2="2.02" gradientTransform="matrix(1, 0, 0, -1, -0.1, 513)" xlink:href="#linear-gradient"/><linearGradient id="linear-gradient-5" x1="429.24" y1="520.42" x2="439.24" y2="2.42" gradientTransform="matrix(1, 0, 0, -1, -0.1, 513)" xlink:href="#linear-gradient"/><linearGradient id="linear-gradient-6" x1="394.49" y1="519.75" x2="404.49" y2="1.75" gradientTransform="matrix(1, 0, 0, -1, -0.1, 513)" xlink:href="#linear-gradient"/><linearGradient id="linear-gradient-7" x1="445.72" y1="520.74" x2="455.72" y2="2.74" gradientTransform="matrix(1, 0, 0, -1, -0.1, 513)" xlink:href="#linear-gradient"/><linearGradient id="linear-gradient-8" x1="212.73" y1="516.24" x2="222.73" y2="-1.76" gradientTransform="matrix(1, 0, 0, -1, -0.1, 513)" xlink:href="#linear-gradient"/></defs><title>storage</title><path d="M206.3,52.2l14.2,9.5a42.53,42.53,0,0,1,35.5-19V25.6A59.77,59.77,0,0,0,206.3,52.2Z" transform="translate(-0.1)" style="fill:url(#linear-gradient)"/><path d="M85.3,264.5a34.1,34.1,0,1,0,34.1,34.1A34.14,34.14,0,0,0,85.3,264.5Zm0,51.2a17.1,17.1,0,1,1,17.1-17.1A17.09,17.09,0,0,1,85.3,315.7Z" transform="translate(-0.1)" style="fill:url(#linear-gradient-2)"/><path d="M509.5,267l-42.7-42.7a8.57,8.57,0,0,0-6-2.5H366.9a8.49,8.49,0,0,0-8.5,8.5V290H288.9a34.06,34.06,0,0,0-24.4-24.4v-78H409.6a42.54,42.54,0,0,0,9.2-84.1,42.06,42.06,0,0,0-22-16.2,68.53,68.53,0,0,0-64-44.7,28.1,28.1,0,0,0-2.9.1,85.3,85.3,0,0,0-147.8,0c-1-.1-2-.1-2.9-.1a68.63,68.63,0,0,0-63.3,42.8,51.21,51.21,0,0,0,3.5,102.3h128v78A34.23,34.23,0,0,0,223,290.1H170.6v-8.5a8.49,8.49,0,0,0-8.5-8.5h-15l10.6-10.6a8.63,8.63,0,0,0,0-12.1l-24.1-24.1a8.63,8.63,0,0,0-12.1,0l-10.6,10.6v-15a8.49,8.49,0,0,0-8.5-8.5H68.3a8.49,8.49,0,0,0-8.5,8.5v15L49.2,226.3a8.63,8.63,0,0,0-12.1,0L13,250.4a8.63,8.63,0,0,0,0,12.1l10.6,10.6H8.6a8.49,8.49,0,0,0-8.5,8.5v34.1a8.49,8.49,0,0,0,8.5,8.5h15L13,334.8a8.63,8.63,0,0,0,0,12.1L37.1,371a8.63,8.63,0,0,0,12.1,0l10.6-10.6v15a8.49,8.49,0,0,0,8.5,8.5h34.1a8.49,8.49,0,0,0,8.5-8.5v-15L121.5,371a8.63,8.63,0,0,0,12.1,0l24.1-24.1a8.63,8.63,0,0,0,0-12.1l-10.6-10.6h15a8.49,8.49,0,0,0,8.5-8.5v-8.5H223a34.06,34.06,0,0,0,24.4,24.4v69.5H187.7a8.49,8.49,0,0,0-8.5,8.5v93.9a8.49,8.49,0,0,0,8.5,8.5H324.2a8.49,8.49,0,0,0,8.5-8.5v-111a8.49,8.49,0,0,0-8.5-8.5H264.5V331.6a34.23,34.23,0,0,0,24.4-24.4h69.5V384a8.49,8.49,0,0,0,8.5,8.5H503.4a8.49,8.49,0,0,0,8.5-8.5V273.1A8.14,8.14,0,0,0,509.5,267ZM85.3,136.5a34.14,34.14,0,0,1,34.3-34h.1a11,11,0,0,0,1.8.2,8.54,8.54,0,0,0,8.7-6.1A50.75,50.75,0,0,1,186,60.3a8.61,8.61,0,0,0,8.8-4.8,68,68,0,0,1,122.5-.1,8.46,8.46,0,0,0,8.8,4.7A50.7,50.7,0,0,1,382,96.7a8.69,8.69,0,0,0,6.7,6.1,25.41,25.41,0,0,1,17.5,12.7,8.58,8.58,0,0,0,6.4,4.3,25.52,25.52,0,0,1-3,50.9H119.5A34.18,34.18,0,0,1,85.3,136.5Zm68.3,170.7h-20a8.51,8.51,0,0,0-8,5.7c-.5,1.4-1.1,2.8-1.7,4.1a8.52,8.52,0,0,0,1.7,9.7l14.2,14.2L127.6,353l-14.2-14.2a8.36,8.36,0,0,0-9.7-1.7c-1.3.6-2.7,1.2-4.1,1.7a8.51,8.51,0,0,0-5.7,8v20.1H76.8v-20a8.51,8.51,0,0,0-5.7-8c-1.4-.5-2.8-1.1-4.1-1.7a8.52,8.52,0,0,0-9.7,1.7L43.1,353,31,340.9l14.2-14.2a8.36,8.36,0,0,0,1.7-9.7c-.6-1.4-1.2-2.7-1.7-4.1a8.64,8.64,0,0,0-8.1-5.7h-20V290.1h20a8.51,8.51,0,0,0,8-5.7c.5-1.4,1.1-2.8,1.7-4.1a8.52,8.52,0,0,0-1.7-9.7L31,256.4l12.1-12.1,14.2,14.2a8.36,8.36,0,0,0,9.7,1.7c1.3-.6,2.7-1.2,4.1-1.7a8.64,8.64,0,0,0,5.7-8.1v-20H93.9v20a8.51,8.51,0,0,0,5.7,8c1.4.5,2.8,1.1,4.1,1.7a8.52,8.52,0,0,0,9.7-1.7l14.2-14.2,12.1,12.1-14.2,14.2a8.36,8.36,0,0,0-1.7,9.7c.6,1.3,1.2,2.7,1.7,4.1a8.51,8.51,0,0,0,8,5.7h20.1v17.2ZM315.7,494.9H196.3V443.7H315.8v51.2Zm-45.9-93.8h45.9v25.6H196.3v-8.5H256a8.59,8.59,0,0,0,7.7-4.7ZM256,315.7a17.1,17.1,0,1,1,17.1-17.1A17.09,17.09,0,0,1,256,315.7ZM469.3,251l13.5,13.5H469.3ZM375.5,375.5V238.9h76.8V273a8.49,8.49,0,0,0,8.5,8.5h34.1v93.9H375.5Z" transform="translate(-0.1)" style="fill:url(#linear-gradient-3)"/><rect x="392.4" y="256" width="42.7" height="17.1" style="fill:url(#linear-gradient-4)"/><rect x="392.4" y="290.1" width="85.3" height="17.1" style="fill:url(#linear-gradient-5)"/><rect x="392.4" y="324.3" width="17.1" height="17.1" style="fill:url(#linear-gradient-6)"/><rect x="426.6" y="324.3" width="51.2" height="17.1" style="fill:url(#linear-gradient-7)"/><rect x="213.2" y="460.8" width="17.1" height="17.1" style="fill:url(#linear-gradient-8)"/></svg>