<svg id="Layer_1" data-name="Layer 1" xmlns="http://www.w3.org/2000/svg" xmlns:xlink="http://www.w3.org/1999/xlink" viewBox="0 0 389.1 376.17"><defs><linearGradient id="linear-gradient" x1="208.35" y1="405.03" x2="213.35" y2="-0.97" gradientTransform="matrix(1, 0, 0, -1, 0, 399)" gradientUnits="userSpaceOnUse"><stop offset="0" stop-color="#ff512f"/><stop offset="1" stop-color="#f09819"/></linearGradient><linearGradient id="linear-gradient-2" x1="208.15" y1="405.03" x2="213.15" y2="-0.97" xlink:href="#linear-gradient"/><linearGradient id="linear-gradient-3" x1="209.37" y1="405.04" x2="214.37" y2="-0.96" xlink:href="#linear-gradient"/></defs><title>suggestion</title><path d="M374.1,286h-241c-2,0-4-.1-6,0-3.9.1-6.3,2.4-9.1,4.8-9.8,8.4-19.6,16.7-29.3,25L47.3,351.2c-9,7.7-17.9,15.3-26.9,22.9-.4.4-.9.7-1.3,1.1,5,2.1,10,4.1,14.9,6.2V45.5c0-.6-.2-2.4.1-2.6,0,.4-.1.7-.1,1.1a5,5,0,0,1,.2-1.2c.1-.4.2-.8.3-1.1.1-.5.3-.9.4-1.4.5-1.6-.3-.1-.1.2-.2-.3,1-2,1.2-2.3s.5-.8.8-1.2c1-1.7-1.3,1.4,0,0,.7-.7,1.3-1.4,2-2.1a5.5,5.5,0,0,1,.9-.7c1.4-1.3-1.2.6-.2.1.7-.4,1.4-1,2.2-1.4a8.26,8.26,0,0,0,1.3-.7c.6-.3.3-.2-.7.3.4-.1.7-.3,1.1-.4a15.45,15.45,0,0,1,2.3-.6c.2,0,.4-.1.6-.1,1-.2.8-.1-.6,0a5.28,5.28,0,0,1,1.2-.1H374.3a10.87,10.87,0,0,1,1.8.1c.8,0,.9.5-.5-.1.5.2,1.2.2,1.8.4.3,0,2.8.6,2.8.9,0,0-2-1-.5-.2a8.26,8.26,0,0,1,1.3.7c.3.1,2.2,1.1,2.2,1.4,0-.2-1.4-1.3-.2-.1a9.27,9.27,0,0,1,1.4,1.4,6,6,0,0,0,.8.8c.4.4.7,1.5.4.4s.1.2.3.5.4.7.6,1,.4.9.7,1.3c.5.9.1,1.4,0-.2.1.9.7,1.9.9,2.8a11.27,11.27,0,0,1,.3,1.8s-.2-2.3-.1-.5c0,.6.1,1.2.1,1.8V272.2a10.87,10.87,0,0,1-.1,1.8c0,1.4,0-.6.1-.5s-.3,1.3-.3,1.4c-.2.9-.5,1.7-.7,2.5-.6,1.8.7-1.2.1-.2-.3.4-.4.9-.7,1.3-.4.7-1,1.4-1.4,2.2-.5,1.1,1.4-1.5.1-.2a5.5,5.5,0,0,0-.7.9c-.7.7-1.4,1.4-2.1,2-1.3,1.1.4-.4.4-.3a17,17,0,0,1-1.4,1c-.7.4-1.4.7-2,1.1-1.8,1,1.8-.6,0,0a4.51,4.51,0,0,1-1.1.3,17.36,17.36,0,0,1-2.9.7s2.3-.2.5-.1a18.75,18.75,0,0,0-2.1-.1c-4.6,0-9,4-8.8,8.8a8.94,8.94,0,0,0,8.8,8.8,32,32,0,0,0,31.5-31.7V45.5a32.43,32.43,0,0,0-7.2-20c-6.2-7.8-15.8-11.6-25.5-11.6H49.7c-8.8,0-17.2,2.8-23.7,9.1s-9.5,15-9.5,23.9V381.4a8.72,8.72,0,0,0,5.4,8,9,9,0,0,0,9.5-1.8c11.5-9.8,22.9-19.6,34.4-29.4,18.2-15.5,36.4-31.1,54.6-46.6,4.2-3.5,8.4-7.1,12.5-10.7-2.1.9-4.1,1.7-6.2,2.6H343.6c10,0,20,.2,30.1,0h.4c4.6,0,9-4,8.8-8.8A9,9,0,0,0,374.1,286Z" transform="translate(-16.5 -13.9)" style="fill:url(#linear-gradient)"/><path d="M228.3,233.5H193.7l8.8,8.8V207.7l-8.8,8.8h34.6l-8.8-8.8v34.6c0,4.6,4,9,8.8,8.8a8.94,8.94,0,0,0,8.8-8.8V207.7a8.94,8.94,0,0,0-8.8-8.8H193.7a8.94,8.94,0,0,0-8.8,8.8v34.6a8.94,8.94,0,0,0,8.8,8.8h34.6c4.6,0,9-4,8.8-8.8S233.2,233.5,228.3,233.5Z" transform="translate(-16.5 -13.9)" style="fill:url(#linear-gradient-2)"/><path d="M228.3,168.8H193.7l8.8,8.8V75.7l-8.8,8.8h34.6l-8.8-8.8V177.6c0,4.6,4,9,8.8,8.8a8.88,8.88,0,0,0,8.8-8.8V75.7a8.94,8.94,0,0,0-8.8-8.8H193.7a8.94,8.94,0,0,0-8.8,8.8V177.6a8.94,8.94,0,0,0,8.8,8.8h34.6c4.6,0,9-4,8.8-8.8A8.94,8.94,0,0,0,228.3,168.8Z" transform="translate(-16.5 -13.9)" style="fill:url(#linear-gradient-3)"/></svg>