<svg id="Layer_1" data-name="Layer 1" xmlns="http://www.w3.org/2000/svg" xmlns:xlink="http://www.w3.org/1999/xlink" width="425.6" height="392.5" viewBox="0 0 425.6 392.5"><defs><linearGradient id="linear-gradient" x1="228.23" y1="436.04" x2="231.23" y2="-0.96" gradientTransform="matrix(1, 0, 0, -1, 0, 439)" gradientUnits="userSpaceOnUse"><stop offset="0" stop-color="#ff512f"/><stop offset="1" stop-color="#f09819"/></linearGradient></defs><title>support</title><path d="M442.8,261.2a76.61,76.61,0,0,0-64.5-75.7V174.7c0-81.1-65.9-146.9-146.9-146.9S84,93.6,84,174.7V185A77,77,0,0,0,94.3,338.3H114a28.64,28.64,0,0,0,28.7-28.7V213.3a29,29,0,0,0-25.5-28.7v-9.9A114,114,0,0,1,231,60.9c62.7,0,113.7,51.1,113.7,113.8v9.4a28.39,28.39,0,0,0-27.8,28.7v96.3A28.67,28.67,0,0,0,335.7,336a84.61,84.61,0,0,1-66.8,41.2A18.28,18.28,0,0,0,251,362.9H210.7a18.48,18.48,0,0,0-18.4,18.4v20.6a18.48,18.48,0,0,0,18.4,18.4H251a17.83,17.83,0,0,0,17.9-15.2c43.5-2.2,80.2-29.6,96.8-67.2C408.3,337.8,442.8,303.3,442.8,261.2ZM109.5,304.6H94.3a43.5,43.5,0,0,1,0-87h15.2Zm256.2,0H350.5V217.7h15.2a43.45,43.45,0,1,1,0,86.9Z" transform="translate(-17.2 -27.8)" style="fill:url(#linear-gradient)"/></svg>