<svg id="Layer_1" data-name="Layer 1" xmlns="http://www.w3.org/2000/svg" width="511.97" height="511.97" viewBox="0 0 511.97 511.97"><title>target</title><path d="M375,225.1a12.1,12.1,0,0,0-22.5,8.9,132.7,132.7,0,0,1,9.3,48.8c0,73.1-59.5,132.6-132.6,132.6S96.5,355.9,96.5,282.8,156,150.1,229.2,150.1a131.58,131.58,0,0,1,48.9,9.3,12.1,12.1,0,0,0,8.9-22.5,155.87,155.87,0,0,0-57.8-11c-86.5,0-156.8,70.3-156.8,156.8s70.3,156.8,156.8,156.8S386,369.2,386,282.7A155.6,155.6,0,0,0,375,225.1Z" transform="translate(0 -0.03)" style="fill:#f26522"/><path d="M449.5,219.6a12.06,12.06,0,1,0-23.2,6.6,206.67,206.67,0,0,1,7.9,56.5c0,113-92,205-205,205s-205-92-205-205,92-205,205-205a207.39,207.39,0,0,1,56.6,7.9,12.06,12.06,0,1,0,6.6-23.2,228.82,228.82,0,0,0-63.3-8.9C102.8,53.6,0,156.4,0,282.8S102.8,512,229.2,512,458.4,409.2,458.4,282.8A231.91,231.91,0,0,0,449.5,219.6Z" transform="translate(0 -0.03)" style="fill:#f26522"/><path d="M313.3,275.4a12.1,12.1,0,1,0-24.1,2.1,45.2,45.2,0,0,1,.2,5.2,60.3,60.3,0,1,1-60.3-60.3c1.9,0,3.7.1,5.4.2a12.05,12.05,0,1,0,2.2-24c-2.5-.2-5-.3-7.6-.3a84.4,84.4,0,1,0,84.4,84.4A59.33,59.33,0,0,0,313.3,275.4Z" transform="translate(0 -0.03)" style="fill:#f26522"/><path d="M510.1,81.3a24,24,0,0,0-22.3-14.9H445.7V24.2A24.15,24.15,0,0,0,404.5,7.1L334.1,77.5a36,36,0,0,0-10.6,25.6v68.4l-98.2,98.2a12.13,12.13,0,0,0,0,17.1,11.79,11.79,0,0,0,8.5,3.5,12,12,0,0,0,8.5-3.5l98.2-98.2h68.4A36,36,0,0,0,434.5,178l70.4-70.4A24,24,0,0,0,510.1,81.3ZM347.6,103.1a12.12,12.12,0,0,1,3.5-8.5l70.4-70.4V73.4l-73.9,73.9V103.1Zm69.9,57.8a12.3,12.3,0,0,1-8.5,3.5H364.8l73.9-73.9h49.2Z" transform="translate(0 -0.03)" style="fill:#f26522"/></svg>