<svg id="Layer_1" data-name="Layer 1" xmlns="http://www.w3.org/2000/svg" width="512" height="512" viewBox="0 0 512 512"><title>team-management</title><path d="M512,214.71H493.44l-27.65,14.55a41.21,41.21,0,0,0-9.85-4l-34.79-8.7v-4a58,58,0,0,0,24.79-47.39V150.73c0-32.08-25.14-58.93-56-59.87-1.57,0-3.11,0-4.66.1l9-21.12L350.53,26.12,324.75,42.9a139.26,139.26,0,0,0-30.91-12.82L287.47,0H224.54l-6.37,30.08a139.57,139.57,0,0,0-30.91,12.83L161.48,26.13,117.79,69.82,126.65,91c-.34,0-.66-.08-1-.09a57.85,57.85,0,0,0-59.59,57.78v16.51a58,58,0,0,0,24.78,47.38v4l-22.69,5.67L27,198.19H0V369.31l81.24,27.08H97.06l2-6.92,24.9,14.95a25.72,25.72,0,0,0,24.8,24.91,25.7,25.7,0,0,0,24.77,24.77,25.7,25.7,0,0,0,24.78,24.77A25.75,25.75,0,0,0,224,503.74a26,26,0,0,0,14.47-4.47l7.32,6.46A25.16,25.16,0,0,0,262.37,512h1.53A25.14,25.14,0,0,0,289,487.19a25.11,25.11,0,0,0,24.77-24.77,25.13,25.13,0,0,0,24.78-24.8,25.39,25.39,0,0,0,24.8-25.34c0-.83,0-1.65-.12-2.47L512,335.43Zm-82.58-64v14.43a41.47,41.47,0,0,1-20.67,35.74l-4.13,2.38,0,26.14,41.26,10.3-90.81,47.8V265.27a41.08,41.08,0,0,0-11.83-28.77l28.34-7.08V203.26l-4.12-2.38a41.41,41.41,0,0,1-20.65-35.72V148.65a41.28,41.28,0,0,1,42.57-41.27C411.47,108,429.42,127.49,429.42,150.73ZM268.45,281l-37.38-11.95a102,102,0,0,0-52.92-2.41l-4.73,1.05v-2.45a24.76,24.76,0,0,1,18.76-24l47.3-11.81V203.26l-4.12-2.38a41.41,41.41,0,0,1-20.65-35.72V148.65a41.28,41.28,0,0,1,42.57-41.27c22.06.66,40,20.11,40,43.35v14.43a41.47,41.47,0,0,1-20.67,35.74l-4.13,2.38,0,26.14,47.3,11.81a24.76,24.76,0,0,1,18.76,24v31l-2,1.07h-5.06l-50.77-14.51A52.35,52.35,0,0,0,268.45,281ZM175.27,123.6a90.77,90.77,0,0,1,161.12-.67,57.44,57.44,0,0,0-6.07,25.72v16.51a58,58,0,0,0,24.78,47.38v4l-33,8.27-33-8.27v-4a58,58,0,0,0,24.79-47.39V150.73c0-32.08-25.14-58.93-56-59.87a57.83,57.83,0,0,0-59.58,57.79v16.51A58,58,0,0,0,223,212.54v4l-33,8.27-33-8.27v-4a58,58,0,0,0,24.78-47.39V150.73A60.83,60.83,0,0,0,175.27,123.6Zm-38-49.95,26.38-26.38L186.9,62.38l4.44-2.72A122.86,122.86,0,0,1,227.1,44.83l5.08-1.22,5.74-27.09h36.16l5.73,27.08,5.09,1.21a123.49,123.49,0,0,1,35.75,14.84l4.45,2.72,23.22-15.11,26.35,26.36L365.3,95.55a57.77,57.77,0,0,0-17.43,11.59c-.34.33-.63.69-1,1a107.25,107.25,0,0,0-182.14.49,58.22,58.22,0,0,0-18.21-12.91ZM107.35,229.42V203.26l-4.12-2.38a41.41,41.41,0,0,1-20.65-35.72V148.65a41.28,41.28,0,0,1,42.57-41.27c22.06.66,40,20.11,40,43.35v14.43a41.47,41.47,0,0,1-20.67,35.74l-4.13,2.38,0,26.14,28.33,7.08a41.08,41.08,0,0,0-11.83,28.77v6.12l-25.75,5.73.66-2.34.32-15.26L88.58,234.11ZM16.52,214.71h6l59.39,34.64L52,369.22,16.52,357.4Zm67.4,165.16-16.25-5.41L96.78,258l18.83,11v2.36l-31,108.51Zm56.47,23.78a9.29,9.29,0,0,1,2.71-6.55l14.51-14.52a9.26,9.26,0,0,1,13.1,13.1l-14.52,14.51a9.26,9.26,0,0,1-15.8-6.54Zm24.77,24.77a9.35,9.35,0,0,1,2.71-6.55l14.52-14.52a9.26,9.26,0,0,1,13.09,13.1L181,435a9.37,9.37,0,0,1-6.55,2.71A9.27,9.27,0,0,1,165.16,428.42Zm24.78,24.77a9.28,9.28,0,0,1,2.71-6.54l14.51-14.52a9.26,9.26,0,0,1,13.1,13.1l-14.52,14.51a9.26,9.26,0,0,1-15.8-6.55Zm34,34a9.26,9.26,0,0,1-6.55-15.81l14.52-14.52A9.26,9.26,0,0,1,245,470l-14.51,14.52A9.37,9.37,0,0,1,224,487.23Zm39.93,8.25h-1.53a8.52,8.52,0,0,1-5.68-2.15l-6.18-5.45,6.2-6.2a25.8,25.8,0,0,0,5.2-7.68l7.51,6.25a8.61,8.61,0,0,1-5.52,15.23ZM338,421.16h-1.43a8.87,8.87,0,0,1-5.68-2.06l-44.78-37.32-10.58,12.69L319,430.71a8.62,8.62,0,0,1-5.53,15.23h-1.8a8.64,8.64,0,0,1-5.51-2l-44.85-37.38-10.58,12.69,43.48,36.24a8.61,8.61,0,0,1-5.51,15.22,13.64,13.64,0,0,1-8.69-3.15L261.56,452.2a25.7,25.7,0,0,0-22.18-14.43A25.7,25.7,0,0,0,214.61,413a25.71,25.71,0,0,0-24.78-24.78,25.71,25.71,0,0,0-43.89-17.32l-14.52,14.52a25.11,25.11,0,0,0-2.32,2.83L103.74,373,126,295.19l55.75-12.39a85.1,85.1,0,0,1,44.3,2l12.17,3.89L197,309.31a27.54,27.54,0,0,0-15.28,24.75v1.63a27.66,27.66,0,0,0,41.89,23.72L254.32,341a17.06,17.06,0,0,1,19.8,1.9l69.78,62.8A8.89,8.89,0,0,1,338,421.16Zm157.52-95.94L356.36,394.79c-.45-.48-.92-.94-1.42-1.38l-69.76-62.8a33.21,33.21,0,0,0-39.36-3.8l-30.76,18.44a11.14,11.14,0,0,1-16.87-9.56v-1.63a11.09,11.09,0,0,1,6.16-10l46.07-23a35.9,35.9,0,0,1,25.74-2.39l51.89,14.82,12.57.32L495.48,232.3Z" style="fill:#f26522"/></svg>