<?xml version="1.0" encoding="utf-8"?>
<!-- Generator: Adobe Illustrator 23.0.1, SVG Export Plug-In . SVG Version: 6.00 Build 0)  -->
<svg version="1.1" id="Capa_1" xmlns="http://www.w3.org/2000/svg" xmlns:xlink="http://www.w3.org/1999/xlink" x="0px" y="0px"
	 viewBox="0 0 512 512" style="enable-background:new 0 0 512 512;" xml:space="preserve">
<style type="text/css">
	.st0{fill:url(#SVGID_1_);}
	.st1{fill:url(#SVGID_2_);}
	.st2{fill:url(#SVGID_3_);}
</style>
<g>
	<g>
		<g>
			<linearGradient id="SVGID_1_" gradientUnits="userSpaceOnUse" x1="183.5315" y1="-0.7357" x2="195.5315" y2="516.2643">
				<stop  offset="0" style="stop-color:#FF512F"/>
				<stop  offset="1" style="stop-color:#F09819"/>
			</linearGradient>
			<path class="st0" d="M234.7,263V32c0-5.9-4.8-10.7-10.7-10.7C100.5,21.3,0,131.4,0,266.7S110.1,512,245.3,512
				c60.5,0,93.3-11,134.8-45.1c4.5-3.7,5.2-10.2,1.6-14.8L234.7,263z M245.3,490.7c-123.5,0-224-100.5-224-224
				c0-119.6,85.2-217.5,192-223.7v223.7c0,2.4,0.8,4.7,2.3,6.5l142.8,183.7C324.8,482.6,296.7,490.7,245.3,490.7z"/>
			<linearGradient id="SVGID_2_" gradientUnits="userSpaceOnUse" x1="378.2632" y1="-5.2556" x2="390.2632" y2="511.7444">
				<stop  offset="0" style="stop-color:#FF512F"/>
				<stop  offset="1" style="stop-color:#F09819"/>
			</linearGradient>
			<path class="st1" d="M266.7,256h234.7c5.9,0,10.7-4.8,10.7-10.7C512,110.1,401.9,0,266.7,0C260.8,0,256,4.8,256,10.7v234.7
				C256,251.2,260.8,256,266.7,256z M277.3,21.6c115.1,5.4,207.7,98,213.1,213.1H277.3V21.6z"/>
			<linearGradient id="SVGID_3_" gradientUnits="userSpaceOnUse" x1="387.8685" y1="-5.4786" x2="399.8685" y2="511.5214">
				<stop  offset="0" style="stop-color:#FF512F"/>
				<stop  offset="1" style="stop-color:#F09819"/>
			</linearGradient>
			<path class="st2" d="M501.3,277.3H288c-4.1,0-7.9,2.4-9.6,6.1c-1.8,3.7-1.2,8.1,1.3,11.3l138.7,171.7c1.9,2.3,4.6,3.7,7.6,3.9
				c0.3,0,0.5,0,0.7,0c2.7,0,5.3-1,7.3-2.9c49.5-46.2,78-111.6,78-179.4C512,282.1,507.2,277.3,501.3,277.3z M427.6,443.8
				L310.3,298.7h180.1C487.8,352.9,465.3,404.8,427.6,443.8z"/>
		</g>
	</g>
</g>
</svg>
