<svg id="Layer_1" data-name="Layer 1" xmlns="http://www.w3.org/2000/svg" xmlns:xlink="http://www.w3.org/1999/xlink" width="600" height="400" viewBox="0 0 600 400"><defs><style>.cls-1,.cls-21{fill:none;}.cls-2{fill:#e0e0e0;}.cls-3{fill:url(#linear-gradient);}.cls-4{fill:#f5f5f5;}.cls-5{fill:url(#linear-gradient-2);}.cls-6{fill:#fff;}.cls-7{fill:#e6e6e6;}.cls-8{fill:url(#linear-gradient-3);}.cls-9{fill:#6c63ff;}.cls-10{opacity:0.5;}.cls-11{fill:url(#linear-gradient-4);}.cls-12{fill:#514abf;}.cls-13{fill:#fda57d;}.cls-14{opacity:0.05;}.cls-14,.cls-15{isolation:isolate;}.cls-15{opacity:0.1;}.cls-16{fill:url(#linear-gradient-5);}.cls-17{fill:url(#linear-gradient-6);}.cls-18{fill:#fdb797;}.cls-19{fill:#fdd835;}.cls-20{fill:#be7c5e;}.cls-21{stroke:#6c63ff;stroke-miterlimit:10;stroke-dasharray:2 2;}.cls-22{fill:url(#linear-gradient-7);}.cls-23{fill:url(#linear-gradient-8);}.cls-24{fill:url(#linear-gradient-9);}.cls-25{fill:url(#linear-gradient-10);}.cls-26{fill:url(#linear-gradient-11);}.cls-27{fill:url(#linear-gradient-12);}.cls-28{font-size:12px;font-family:ArialMT, Arial;}.cls-28,.cls-31{fill:#666;}.cls-29{letter-spacing:-0.04em;}.cls-30{letter-spacing:-0.02em;}.cls-31{font-size:14px;font-family:Arial-BoldMT, Arial;font-weight:700;}.cls-32{fill:#ccc;}.cls-33{fill:#9cbf3c;}.cls-34{fill:#f78b41;}.cls-35{fill:#f2f2f2;}.cls-36{fill:#3f3d56;}</style><linearGradient id="linear-gradient" x1="411.53" y1="73.7" x2="411.53" y2="78" gradientTransform="matrix(1, 0, 0, -1, -141.9, 333.19)" gradientUnits="userSpaceOnUse"><stop offset="0" stop-color="gray" stop-opacity="0.25"/><stop offset="0.54" stop-color="gray" stop-opacity="0.12"/><stop offset="1" stop-color="gray" stop-opacity="0.1"/></linearGradient><linearGradient id="linear-gradient-2" x1="411.96" y1="89.79" x2="411.96" y2="167.47" gradientTransform="matrix(1, 0, 0, -1.04, -142.39, 329.57)" xlink:href="#linear-gradient"/><linearGradient id="linear-gradient-3" x1="303.84" y1="216.5" x2="303.84" y2="236.01" gradientTransform="matrix(1, 0, 0, -1, 0, 402)" xlink:href="#linear-gradient"/><linearGradient id="linear-gradient-4" x1="439.95" y1="156.3" x2="450.68" y2="156.3" gradientTransform="matrix(1, 0, 0, -1, -141.76, 333)" xlink:href="#linear-gradient"/><linearGradient id="linear-gradient-5" x1="303.95" y1="193.09" x2="303.95" y2="212.6" gradientTransform="matrix(1, 0, 0, -1, 0, 402)" xlink:href="#linear-gradient"/><linearGradient id="linear-gradient-6" x1="445.72" y1="124.06" x2="445.72" y2="141.92" gradientTransform="matrix(1, 0, 0, -1, -141.76, 333)" xlink:href="#linear-gradient"/><linearGradient id="linear-gradient-7" x1="313.24" y1="307.65" x2="313.24" y2="324.25" gradientTransform="matrix(1, 0, 0, -1, 0, 402)" xlink:href="#linear-gradient"/><linearGradient id="linear-gradient-8" x1="275.57" y1="336.93" x2="275.57" y2="353.53" gradientTransform="matrix(1, 0, 0, -1, 0, 402)" xlink:href="#linear-gradient"/><linearGradient id="linear-gradient-9" x1="95.69" y1="217.3" x2="95.69" y2="233.9" gradientTransform="matrix(1, 0, 0, -1, 0, 402)" xlink:href="#linear-gradient"/><linearGradient id="linear-gradient-10" x1="86.77" y1="183.1" x2="86.77" y2="199.7" gradientTransform="matrix(1, 0, 0, -1, 0, 402)" xlink:href="#linear-gradient"/><linearGradient id="linear-gradient-11" x1="519.12" y1="219.95" x2="519.12" y2="236.55" gradientTransform="matrix(1, 0, 0, -1, 0, 402)" xlink:href="#linear-gradient"/><linearGradient id="linear-gradient-12" x1="400.15" y1="184.76" x2="400.15" y2="201.36" gradientTransform="matrix(1, 0, 0, -1, 0, 402)" xlink:href="#linear-gradient"/></defs><title>timetracker-business-benefits</title><rect class="cls-1" width="600" height="400"/><path class="cls-2" d="M284.46,228.07s3,20.32,20.32,27.07l-35.14.05-35.13.05c17.34-6.8,20.25-27.13,20.25-27.13Z"/><rect class="cls-3" x="234.16" y="255.19" width="70.94" height="4.29" transform="translate(-0.36 0.38) rotate(-0.08)"/><rect class="cls-4" x="234.51" y="255.19" width="70.28" height="3.31" transform="translate(-0.36 0.38) rotate(-0.08)"/><path class="cls-5" d="M326.67,154.93l-114.29.16a2.35,2.35,0,0,0-2.29,2.4l.09,66.68v2.22a9,9,0,0,0,8.78,9.16l101.34-.13a9,9,0,0,0,8.75-9.19V224L329,157.33a2.35,2.35,0,0,0-2.29-2.4Z"/><path class="cls-6" d="M213.74,157.17H325.19a2.26,2.26,0,0,1,2.27,2.27h0v63.45h-116V159.44a2.27,2.27,0,0,1,2.27-2.27Z"/><path class="cls-4" d="M319.52,233.44l-99.81.14a8.1,8.1,0,0,1-8.1-8.09h0v-2.74l116-.16v2.74a8.11,8.11,0,0,1-8.09,8.11Z"/><rect class="cls-7" x="217.19" y="162.49" width="104.97" height="53.06"/><rect class="cls-8" x="294.55" y="165.99" width="18.58" height="19.51"/><rect class="cls-9" x="295.36" y="166.84" width="16.97" height="17.81"/><g class="cls-10"><path class="cls-11" d="M305,174.76l-.21-.07h0v-.57a.75.75,0,0,0,0-.21,2.15,2.15,0,0,0,.76-1,2.59,2.59,0,1,0-4.11,0,2.22,2.22,0,0,0,.76,1,1.49,1.49,0,0,0,0,.21v.63h0a5.38,5.38,0,0,0-3.94,5.18v4.72h10.73v-4.72A5.38,5.38,0,0,0,305,174.76Z"/></g><path class="cls-12" d="M303.23,174.64h.65a4.85,4.85,0,0,1,4.85,4.85h0v4.86H298.37v-4.86a4.85,4.85,0,0,1,4.85-4.85Z"/><rect class="cls-13" x="302.18" y="172.96" width="2.53" height="3.17" rx="1.19"/><polygon class="cls-14" points="301.31 175.21 302.15 177.03 303 176.18 302.15 174.89 301.31 175.21"/><path class="cls-6" d="M301.33,175.12l.85,1.82.85-.85-.85-1.29-.39.12-.11,0Z"/><polygon class="cls-14" points="305.6 175.12 304.75 177.03 303.9 176.18 304.77 174.82 305.6 175.12"/><path class="cls-6" d="M305.57,175l-.85,1.9-.84-.85.87-1.36.16.05a4.24,4.24,0,0,1,.5.18Z"/><polygon class="cls-13" points="302.96 176.03 303.44 176.72 303.94 176.03 302.96 176.03"/><path class="cls-15" d="M300.33,178.52s-.51,5-.18,5.33"/><path class="cls-15" d="M306.55,178.52s.5,5,.17,5.33"/><path class="cls-14" d="M303.45,174.49a2.08,2.08,0,0,0,1.25-.41,1.27,1.27,0,0,0-1.25-1.06h0a1.27,1.27,0,0,0-1.25,1.06A2.08,2.08,0,0,0,303.45,174.49Z"/><circle cx="303.45" cy="171.54" r="2.5"/><circle class="cls-13" cx="303.45" cy="172.32" r="2.11"/><path class="cls-14" d="M301.75,170.23l.53.65s2.34.21,2.61-.32-1.54-.92-1.54-.92Z"/><path d="M301.75,170.17l.53.65s2.34.21,2.61-.32-1.54-.92-1.54-.92Z"/><ellipse class="cls-13" cx="301.33" cy="172.19" rx="0.15" ry="0.27"/><ellipse class="cls-13" cx="305.57" cy="172.19" rx="0.15" ry="0.27"/><rect class="cls-16" x="294.66" y="189.4" width="18.58" height="19.51"/><rect class="cls-9" x="295.46" y="190.24" width="16.97" height="17.81"/><g class="cls-10"><path class="cls-17" d="M305.23,198.27v-.75a2.38,2.38,0,0,0,.79-1.06,2.76,2.76,0,0,0-.5-3.87,2.8,2.8,0,0,0-.65-.37.94.94,0,1,0-1.83-.41.92.92,0,0,0,0,.33,2.76,2.76,0,0,0-1.82,3.45,2.88,2.88,0,0,0,.45.87,2.38,2.38,0,0,0,.79,1.06v.79a5.18,5.18,0,0,0-4.2,5.07v5.56h11.43v-5.55A5.16,5.16,0,0,0,305.23,198.27Z"/></g><path class="cls-6" d="M303.62,198.39h.65a4.85,4.85,0,0,1,4.85,4.84v4.86H298.77v-4.86a4.84,4.84,0,0,1,4.84-4.84Z"/><rect class="cls-18" x="302.57" y="196.7" width="2.53" height="3.17" rx="1.19"/><polygon class="cls-18" points="303.36 199.77 303.83 200.46 304.32 199.77 303.36 199.77"/><path class="cls-15" d="M300.72,202.26s-.51,5-.18,5.33"/><path class="cls-15" d="M306.94,202.26s.5,5,.18,5.33"/><path class="cls-14" d="M303.85,198.24a2.15,2.15,0,0,0,1.25-.41,1.27,1.27,0,0,0-1.25-1.07h0a1.27,1.27,0,0,0-1.27,1.07A2.14,2.14,0,0,0,303.85,198.24Z"/><circle class="cls-19" cx="303.84" cy="195.28" r="2.5"/><circle class="cls-18" cx="303.84" cy="196.07" r="2.11"/><ellipse class="cls-18" cx="301.72" cy="195.93" rx="0.15" ry="0.27"/><ellipse class="cls-18" cx="305.96" cy="195.93" rx="0.15" ry="0.27"/><circle class="cls-19" cx="303.95" cy="192.79" r="0.85"/><path class="cls-19" d="M302.25,193.64s.84,1.69,3.39.84l-.84-.84Z"/><rect class="cls-6" x="225.62" y="169.15" width="46.69" height="2.03"/><rect class="cls-6" x="225.62" y="173.21" width="46.69" height="2.03"/><rect class="cls-6" x="225.62" y="177.27" width="26.39" height="2.03"/><rect class="cls-6" x="225.62" y="181.33" width="38.57" height="2.03"/><rect class="cls-6" x="225.62" y="185.39" width="32.48" height="2.03"/><rect class="cls-6" x="225.62" y="189.45" width="46.69" height="2.03"/><rect class="cls-6" x="227.65" y="195.54" width="40.6" height="16.24"/><path class="cls-15" d="M211.55,266.94s.5,5,.18,5.33"/><ellipse class="cls-20" cx="210.57" cy="260.61" rx="0.15" ry="0.27"/><polyline class="cls-21" points="313.24 153.6 313.24 86.6 384.06 86.6"/><polyline class="cls-21" points="95.69 129.63 95.9 177.95 208.95 177.46"/><polyline class="cls-21" points="519.12 199.6 519.12 175.24 327.57 175.24"/><polyline class="cls-21" points="401.64 273.78 401.64 210.6 329 210.6"/><polyline class="cls-21" points="86.77 234.6 86.77 211.6 209.57 211.6"/><polyline class="cls-21" points="258.57 57.34 276.57 57.34 276.57 155.1"/><g class="cls-10"><circle class="cls-22" cx="313.24" cy="86.05" r="8.3"/></g><circle class="cls-9" cx="313.24" cy="86.05" r="7.81"/><polygon class="cls-6" points="310.31 85.56 313.24 88.25 317.38 82.15 318.85 83.37 313.24 90.69 309.09 86.05 310.31 85.56"/><g class="cls-10"><circle class="cls-23" cx="275.57" cy="56.77" r="8.3"/></g><circle class="cls-9" cx="275.57" cy="56.77" r="7.81"/><polygon class="cls-6" points="272.64 56.28 275.57 58.96 279.72 52.86 281.19 54.08 275.57 61.4 271.42 56.77 272.64 56.28"/><g class="cls-10"><circle class="cls-24" cx="95.69" cy="176.4" r="8.3"/></g><circle class="cls-9" cx="95.69" cy="176.4" r="7.81"/><polygon class="cls-6" points="92.77 175.91 95.69 178.59 99.84 172.49 101.31 173.71 95.69 181.04 91.54 176.4 92.77 175.91"/><g class="cls-10"><circle class="cls-25" cx="86.77" cy="210.6" r="8.3"/></g><circle class="cls-9" cx="86.77" cy="210.6" r="7.81"/><polygon class="cls-6" points="83.84 210.11 86.77 212.8 90.92 206.7 92.39 207.92 86.77 215.24 82.62 210.6 83.84 210.11"/><g class="cls-10"><circle class="cls-26" cx="519.12" cy="173.75" r="8.3"/></g><circle class="cls-9" cx="519.12" cy="173.75" r="7.81"/><polygon class="cls-6" points="516.19 173.26 519.12 175.95 523.27 169.85 524.74 171.07 519.12 178.39 514.97 173.75 516.19 173.26"/><g class="cls-10"><circle class="cls-27" cx="400.15" cy="208.94" r="8.3"/></g><circle class="cls-9" cx="400.15" cy="208.94" r="7.81"/><polygon class="cls-6" points="397.22 208.45 400.15 211.13 404.3 205.03 405.76 206.25 400.15 213.58 396 208.94 397.22 208.45"/><text class="cls-28" transform="translate(421.47 129.09)">Screenshot</text><text class="cls-28" transform="translate(53.33 123.44)">Graphical Report</text><text class="cls-28" transform="translate(184.15 104.33)"><tspan class="cls-29">T</tspan><tspan x="6.88" y="0">ime</tspan><tspan class="cls-30" x="26.22" y="0"> </tspan><tspan class="cls-29" x="29.34" y="0">T</tspan><tspan x="36.22" y="0">racking</tspan></text><text class="cls-31" transform="translate(217.56 277.78)">TIME TRACKER</text><text class="cls-28" transform="translate(495.52 289.55)">Key Stocks<tspan x="22.68" y="14.4" xml:space="preserve"> &amp; </tspan><tspan x="-5.66" y="28.8">Mouse Clicks</tspan></text><text class="cls-28" transform="translate(359.63 355.36)"><tspan class="cls-30">W</tspan><tspan x="11.11" y="0" xml:space="preserve">eb  &amp; Desktop </tspan><tspan x="12.56" y="14.4">Applications</tspan></text><text class="cls-28" transform="translate(30.57 329.01)">Dynamic Configuration</text><g id="Keyboard"><path class="cls-32" d="M522.43,238.9h-22a1.1,1.1,0,0,1,0-2.2h22a1.1,1.1,0,1,1,0,2.2Z"/><path class="cls-32" d="M522.43,233.4h-22a1.1,1.1,0,0,1-1.1-1.1V229a1.1,1.1,0,0,1,1.1-1.1h22a1.1,1.1,0,0,1,1.1,1.1v3.3A1.1,1.1,0,0,1,522.43,233.4Zm-20.9-2.2h19.8v-1.1h-19.8Z"/><path class="cls-32" d="M530.13,233.4h-3.3a1.1,1.1,0,0,1-1.1-1.1V229a1.1,1.1,0,0,1,1.1-1.1h3.3a1.1,1.1,0,0,1,1.1,1.1v3.3A1.1,1.1,0,0,1,530.13,233.4Zm-2.2-2.2H529v-1.1h-1.1Z"/><path class="cls-32" d="M537.83,233.4h-3.3a1.1,1.1,0,0,1-1.1-1.1V229a1.1,1.1,0,0,1,1.1-1.1h3.3a1.1,1.1,0,0,1,1.1,1.1v3.3A1.1,1.1,0,0,1,537.83,233.4Zm-2.2-2.2h1.1v-1.1h-1.1Z"/><path class="cls-32" d="M496,233.4h-3.3a1.1,1.1,0,0,1-1.1-1.1V229a1.1,1.1,0,0,1,1.1-1.1H496a1.1,1.1,0,0,1,1.1,1.1v3.3A1.1,1.1,0,0,1,496,233.4Zm-2.2-2.2h1.1v-1.1h-1.1Z"/><path class="cls-32" d="M488.33,233.4H485a1.1,1.1,0,0,1-1.1-1.1V229a1.1,1.1,0,0,1,1.1-1.1h3.3a1.1,1.1,0,0,1,1.1,1.1v3.3A1.1,1.1,0,0,1,488.33,233.4Zm-2.2-2.2h1.1v-1.1h-1.1Z"/><path class="cls-32" d="M529,225.7h-3.3a1.1,1.1,0,0,1-1.1-1.1v-3.3a1.1,1.1,0,0,1,1.1-1.1H529a1.1,1.1,0,0,1,1.1,1.1v3.3A1.1,1.1,0,0,1,529,225.7Zm-2.2-2.2h1.1v-1.1h-1.1Z"/><path class="cls-32" d="M536.73,225.7h-3.3a1.1,1.1,0,0,1-1.1-1.1v-3.3a1.1,1.1,0,0,1,1.1-1.1h3.3a1.1,1.1,0,0,1,1.1,1.1v3.3A1.1,1.1,0,0,1,536.73,225.7Zm-2.2-2.2h1.1v-1.1h-1.1Z"/><path class="cls-32" d="M513.63,225.7h-3.3a1.1,1.1,0,0,1-1.1-1.1v-3.3a1.1,1.1,0,0,1,1.1-1.1h3.3a1.1,1.1,0,0,1,1.1,1.1v3.3A1.1,1.1,0,0,1,513.63,225.7Zm-2.2-2.2h1.1v-1.1h-1.1Z"/><path class="cls-32" d="M521.33,225.7H518a1.1,1.1,0,0,1-1.1-1.1v-3.3a1.1,1.1,0,0,1,1.1-1.1h3.3a1.1,1.1,0,0,1,1.1,1.1v3.3A1.1,1.1,0,0,1,521.33,225.7Zm-2.2-2.2h1.1v-1.1h-1.1Z"/><path class="cls-32" d="M490.53,225.7h-3.3a1.1,1.1,0,0,1-1.1-1.1v-3.3a1.1,1.1,0,0,1,1.1-1.1h3.3a1.1,1.1,0,0,1,1.1,1.1v3.3A1.1,1.1,0,0,1,490.53,225.7Zm-2.2-2.2h1.1v-1.1h-1.1Z"/><path class="cls-32" d="M505.93,225.7h-3.3a1.1,1.1,0,0,1-1.1-1.1v-3.3a1.1,1.1,0,0,1,1.1-1.1h3.3a1.1,1.1,0,0,1,1.1,1.1v3.3A1.1,1.1,0,0,1,505.93,225.7Zm-2.2-2.2h1.1v-1.1h-1.1Z"/><path class="cls-32" d="M498.23,225.7h-3.3a1.1,1.1,0,0,1-1.1-1.1v-3.3a1.1,1.1,0,0,1,1.1-1.1h3.3a1.1,1.1,0,0,1,1.1,1.1v3.3A1.1,1.1,0,0,1,498.23,225.7Zm-2.2-2.2h1.1v-1.1H496Z"/><path class="cls-32" d="M529,218h-3.3a1.1,1.1,0,0,1-1.1-1.1v-3.3a1.1,1.1,0,0,1,1.1-1.1H529a1.1,1.1,0,0,1,1.1,1.1v3.3A1.1,1.1,0,0,1,529,218Zm-2.2-2.2h1.1v-1.1h-1.1Z"/><path class="cls-32" d="M536.73,218h-3.3a1.1,1.1,0,0,1-1.1-1.1v-3.3a1.1,1.1,0,0,1,1.1-1.1h3.3a1.1,1.1,0,0,1,1.1,1.1v3.3A1.1,1.1,0,0,1,536.73,218Zm-2.2-2.2h1.1v-1.1h-1.1Z"/><path class="cls-32" d="M513.63,218h-3.3a1.1,1.1,0,0,1-1.1-1.1v-3.3a1.1,1.1,0,0,1,1.1-1.1h3.3a1.1,1.1,0,0,1,1.1,1.1v3.3A1.1,1.1,0,0,1,513.63,218Zm-2.2-2.2h1.1v-1.1h-1.1Z"/><path class="cls-32" d="M521.33,218H518a1.1,1.1,0,0,1-1.1-1.1v-3.3a1.1,1.1,0,0,1,1.1-1.1h3.3a1.1,1.1,0,0,1,1.1,1.1v3.3A1.1,1.1,0,0,1,521.33,218Zm-2.2-2.2h1.1v-1.1h-1.1Z"/><path class="cls-32" d="M490.53,218h-3.3a1.1,1.1,0,0,1-1.1-1.1v-3.3a1.1,1.1,0,0,1,1.1-1.1h3.3a1.1,1.1,0,0,1,1.1,1.1v3.3A1.1,1.1,0,0,1,490.53,218Zm-2.2-2.2h1.1v-1.1h-1.1Z"/><path class="cls-32" d="M505.93,218h-3.3a1.1,1.1,0,0,1-1.1-1.1v-3.3a1.1,1.1,0,0,1,1.1-1.1h3.3a1.1,1.1,0,0,1,1.1,1.1v3.3A1.1,1.1,0,0,1,505.93,218Zm-2.2-2.2h1.1v-1.1h-1.1Z"/><path class="cls-32" d="M498.23,218h-3.3a1.1,1.1,0,0,1-1.1-1.1v-3.3a1.1,1.1,0,0,1,1.1-1.1h3.3a1.1,1.1,0,0,1,1.1,1.1v3.3A1.1,1.1,0,0,1,498.23,218Zm-2.2-2.2h1.1v-1.1H496Z"/><path class="cls-32" d="M499.62,246.62a3.44,3.44,0,0,0-1.39.17v-5.56a3.38,3.38,0,0,0-3-3.41,3.29,3.29,0,0,1-4.4-2.2,9.78,9.78,0,0,1-7,3.15,3.2,3.2,0,0,0-1,2.33v1.29a3.37,3.37,0,0,0-3.42.77,3.24,3.24,0,0,0-1,2.34v15.78a5.42,5.42,0,0,0,1.61,3.89l.72.72a3.31,3.31,0,0,1,1,2.34v3.67a1.1,1.1,0,0,0,1.1,1.1h15.4a1.1,1.1,0,0,0,1.1-1.1v-3.67a3.34,3.34,0,0,1,1-2.34l.73-.72a5.5,5.5,0,0,0,1.61-3.89V250A3.38,3.38,0,0,0,499.62,246.62Zm.81,14.66a3.28,3.28,0,0,1-1,2.33l-.72.73a5.42,5.42,0,0,0-1.61,3.89v2.57h-13.2v-2.57a5.5,5.5,0,0,0-1.61-3.89l-.73-.73a3.32,3.32,0,0,1-1-2.33V245.5a1.06,1.06,0,0,1,.34-.78,1,1,0,0,1,.76-.32,1.1,1.1,0,0,1,1.1,1.1v6.6a1.1,1.1,0,1,0,2.2,0v-11a1.06,1.06,0,0,1,.34-.78,1,1,0,0,1,.76-.32,1.1,1.1,0,0,1,1.1,1.1v11a1.1,1.1,0,0,0,2.2,0V238.9a1.06,1.06,0,0,1,.34-.78,1,1,0,0,1,.86-.32,1.2,1.2,0,0,1,1,1.23V252.1a1.1,1.1,0,1,0,2.2,0v-11A1.13,1.13,0,0,1,495,240a1.2,1.2,0,0,1,1,1.23V258.7a1.1,1.1,0,0,0,2.2,0v-8.8a1.13,1.13,0,0,1,1.2-1.1,1.2,1.2,0,0,1,1,1.23Z"/><path class="cls-32" d="M540,242.39V241.1a3.23,3.23,0,0,0-1-2.32,3.38,3.38,0,0,0-3.55-.75,3.19,3.19,0,0,0-.85-1.45,3.25,3.25,0,0,0-2.63-1,3.34,3.34,0,0,0-2.87,2.42,3.3,3.3,0,0,0-1.53-.22,3.37,3.37,0,0,0-3,3.41v5.56a3.14,3.14,0,0,0-1.39-.17,3.37,3.37,0,0,0-3,3.41v11.25a5.5,5.5,0,0,0,1.61,3.89l.72.72a3.31,3.31,0,0,1,1,2.34v3.67a1.1,1.1,0,0,0,1.1,1.1H540a1.1,1.1,0,0,0,1.1-1.1v-3.67a3.31,3.31,0,0,1,1-2.34l.72-.72a5.5,5.5,0,0,0,1.61-3.89V245.5a3.23,3.23,0,0,0-1-2.32A3.37,3.37,0,0,0,540,242.39Zm2.2,18.89a3.28,3.28,0,0,1-1,2.33l-.72.73a5.5,5.5,0,0,0-1.61,3.89v2.57h-13.2v-2.57a5.5,5.5,0,0,0-1.61-3.89l-.72-.73a3.28,3.28,0,0,1-1-2.33V250a1.19,1.19,0,0,1,1-1.23,1.12,1.12,0,0,1,1.2,1v8.88a1.1,1.1,0,1,0,2.2,0V241.23a1.19,1.19,0,0,1,1-1.23,1.12,1.12,0,0,1,1.2,1.1v11a1.1,1.1,0,0,0,2.2,0V239a1.19,1.19,0,0,1,1-1.23,1.12,1.12,0,0,1,1.2,1.1v13.2a1.1,1.1,0,1,0,2.2,0v-11a1.1,1.1,0,0,1,1.1-1.1,1.13,1.13,0,0,1,1.1,1.1v11a1.1,1.1,0,1,0,2.2,0v-6.6a1.1,1.1,0,0,1,1.1-1.1,1.13,1.13,0,0,1,1.1,1.1Z"/><path class="cls-32" d="M541.13,207h-59.4a3.3,3.3,0,0,0-3.3,3.3v24.2a3.3,3.3,0,0,0,3.3,3.3,1.1,1.1,0,0,0,0-2.2,1.1,1.1,0,0,1-1.1-1.1V210.3a1.1,1.1,0,0,1,1.1-1.1h59.4a1.1,1.1,0,0,1,1.1,1.1v24.2a1.1,1.1,0,0,1-1.1,1.1,1.1,1.1,0,0,0,0,2.2,3.3,3.3,0,0,0,3.3-3.3V210.3A3.3,3.3,0,0,0,541.13,207Z"/><path class="cls-32" d="M522.43,238.9h-22a1.1,1.1,0,0,1,0-2.2h22a1.1,1.1,0,1,1,0,2.2Z"/><path class="cls-32" d="M522.43,233.4h-22a1.1,1.1,0,0,1-1.1-1.1V229a1.1,1.1,0,0,1,1.1-1.1h22a1.1,1.1,0,0,1,1.1,1.1v3.3A1.1,1.1,0,0,1,522.43,233.4Zm-20.9-2.2h19.8v-1.1h-19.8Z"/><path class="cls-32" d="M530.13,233.4h-3.3a1.1,1.1,0,0,1-1.1-1.1V229a1.1,1.1,0,0,1,1.1-1.1h3.3a1.1,1.1,0,0,1,1.1,1.1v3.3A1.1,1.1,0,0,1,530.13,233.4Zm-2.2-2.2H529v-1.1h-1.1Z"/><path class="cls-32" d="M537.83,233.4h-3.3a1.1,1.1,0,0,1-1.1-1.1V229a1.1,1.1,0,0,1,1.1-1.1h3.3a1.1,1.1,0,0,1,1.1,1.1v3.3A1.1,1.1,0,0,1,537.83,233.4Zm-2.2-2.2h1.1v-1.1h-1.1Z"/><path class="cls-32" d="M496,233.4h-3.3a1.1,1.1,0,0,1-1.1-1.1V229a1.1,1.1,0,0,1,1.1-1.1H496a1.1,1.1,0,0,1,1.1,1.1v3.3A1.1,1.1,0,0,1,496,233.4Zm-2.2-2.2h1.1v-1.1h-1.1Z"/><path class="cls-32" d="M488.33,233.4H485a1.1,1.1,0,0,1-1.1-1.1V229a1.1,1.1,0,0,1,1.1-1.1h3.3a1.1,1.1,0,0,1,1.1,1.1v3.3A1.1,1.1,0,0,1,488.33,233.4Zm-2.2-2.2h1.1v-1.1h-1.1Z"/><path class="cls-32" d="M529,225.7h-3.3a1.1,1.1,0,0,1-1.1-1.1v-3.3a1.1,1.1,0,0,1,1.1-1.1H529a1.1,1.1,0,0,1,1.1,1.1v3.3A1.1,1.1,0,0,1,529,225.7Zm-2.2-2.2h1.1v-1.1h-1.1Z"/><path class="cls-32" d="M536.73,225.7h-3.3a1.1,1.1,0,0,1-1.1-1.1v-3.3a1.1,1.1,0,0,1,1.1-1.1h3.3a1.1,1.1,0,0,1,1.1,1.1v3.3A1.1,1.1,0,0,1,536.73,225.7Zm-2.2-2.2h1.1v-1.1h-1.1Z"/><path class="cls-32" d="M513.63,225.7h-3.3a1.1,1.1,0,0,1-1.1-1.1v-3.3a1.1,1.1,0,0,1,1.1-1.1h3.3a1.1,1.1,0,0,1,1.1,1.1v3.3A1.1,1.1,0,0,1,513.63,225.7Zm-2.2-2.2h1.1v-1.1h-1.1Z"/><path class="cls-32" d="M521.33,225.7H518a1.1,1.1,0,0,1-1.1-1.1v-3.3a1.1,1.1,0,0,1,1.1-1.1h3.3a1.1,1.1,0,0,1,1.1,1.1v3.3A1.1,1.1,0,0,1,521.33,225.7Zm-2.2-2.2h1.1v-1.1h-1.1Z"/><path class="cls-32" d="M490.53,225.7h-3.3a1.1,1.1,0,0,1-1.1-1.1v-3.3a1.1,1.1,0,0,1,1.1-1.1h3.3a1.1,1.1,0,0,1,1.1,1.1v3.3A1.1,1.1,0,0,1,490.53,225.7Zm-2.2-2.2h1.1v-1.1h-1.1Z"/><path class="cls-32" d="M505.93,225.7h-3.3a1.1,1.1,0,0,1-1.1-1.1v-3.3a1.1,1.1,0,0,1,1.1-1.1h3.3a1.1,1.1,0,0,1,1.1,1.1v3.3A1.1,1.1,0,0,1,505.93,225.7Zm-2.2-2.2h1.1v-1.1h-1.1Z"/><path class="cls-32" d="M498.23,225.7h-3.3a1.1,1.1,0,0,1-1.1-1.1v-3.3a1.1,1.1,0,0,1,1.1-1.1h3.3a1.1,1.1,0,0,1,1.1,1.1v3.3A1.1,1.1,0,0,1,498.23,225.7Zm-2.2-2.2h1.1v-1.1H496Z"/><path class="cls-32" d="M529,218h-3.3a1.1,1.1,0,0,1-1.1-1.1v-3.3a1.1,1.1,0,0,1,1.1-1.1H529a1.1,1.1,0,0,1,1.1,1.1v3.3A1.1,1.1,0,0,1,529,218Zm-2.2-2.2h1.1v-1.1h-1.1Z"/><path class="cls-32" d="M536.73,218h-3.3a1.1,1.1,0,0,1-1.1-1.1v-3.3a1.1,1.1,0,0,1,1.1-1.1h3.3a1.1,1.1,0,0,1,1.1,1.1v3.3A1.1,1.1,0,0,1,536.73,218Zm-2.2-2.2h1.1v-1.1h-1.1Z"/><path class="cls-32" d="M513.63,218h-3.3a1.1,1.1,0,0,1-1.1-1.1v-3.3a1.1,1.1,0,0,1,1.1-1.1h3.3a1.1,1.1,0,0,1,1.1,1.1v3.3A1.1,1.1,0,0,1,513.63,218Zm-2.2-2.2h1.1v-1.1h-1.1Z"/><path class="cls-32" d="M521.33,218H518a1.1,1.1,0,0,1-1.1-1.1v-3.3a1.1,1.1,0,0,1,1.1-1.1h3.3a1.1,1.1,0,0,1,1.1,1.1v3.3A1.1,1.1,0,0,1,521.33,218Zm-2.2-2.2h1.1v-1.1h-1.1Z"/><path class="cls-32" d="M490.53,218h-3.3a1.1,1.1,0,0,1-1.1-1.1v-3.3a1.1,1.1,0,0,1,1.1-1.1h3.3a1.1,1.1,0,0,1,1.1,1.1v3.3A1.1,1.1,0,0,1,490.53,218Zm-2.2-2.2h1.1v-1.1h-1.1Z"/><path class="cls-32" d="M505.93,218h-3.3a1.1,1.1,0,0,1-1.1-1.1v-3.3a1.1,1.1,0,0,1,1.1-1.1h3.3a1.1,1.1,0,0,1,1.1,1.1v3.3A1.1,1.1,0,0,1,505.93,218Zm-2.2-2.2h1.1v-1.1h-1.1Z"/><path class="cls-32" d="M498.23,218h-3.3a1.1,1.1,0,0,1-1.1-1.1v-3.3a1.1,1.1,0,0,1,1.1-1.1h3.3a1.1,1.1,0,0,1,1.1,1.1v3.3A1.1,1.1,0,0,1,498.23,218Zm-2.2-2.2h1.1v-1.1H496Z"/></g><rect class="cls-32" x="552.43" y="209" width="17" height="26" rx="6.67"/><rect class="cls-6" x="554.26" y="211" width="13.34" height="22" rx="4.76"/><rect class="cls-32" x="560.23" y="212.86" width="2.02" height="5.13" rx="1.01"/><rect class="cls-7" x="393.68" y="59.19" width="92.45" height="51.98"/><rect class="cls-6" x="395.95" y="64.99" width="87.87" height="19.37"/><rect class="cls-7" x="414.56" y="68.94" width="15.82" height="0.91"/><rect class="cls-9" x="414.56" y="72.26" width="24.43" height="0.91"/><rect class="cls-7" x="414.56" y="75.38" width="19.91" height="0.91"/><rect class="cls-7" x="414.56" y="78.49" width="11.62" height="0.91"/><rect class="cls-7" x="414.56" y="81.6" width="17.54" height="0.91"/><rect class="cls-7" x="407.35" y="68.62" width="1.94" height="1.94"/><rect class="cls-9" x="407.35" y="71.74" width="1.94" height="1.94"/><rect class="cls-7" x="407.35" y="74.86" width="1.94" height="1.94"/><rect class="cls-7" x="407.35" y="77.98" width="1.94" height="1.94"/><rect class="cls-7" x="407.35" y="81.11" width="1.94" height="1.94"/><rect class="cls-7" x="453.84" y="73.03" width="6.46" height="6.46"/><rect class="cls-7" x="463.09" y="73.03" width="6.46" height="6.46"/><rect class="cls-7" x="472.34" y="73.03" width="6.46" height="6.46"/><rect class="cls-6" x="395.95" y="87.63" width="87.87" height="19.37"/><rect class="cls-7" x="410.69" y="89.35" width="1.94" height="1.94"/><rect class="cls-9" x="407.35" y="89.35" width="1.94" height="1.94"/><path class="cls-7" d="M440.2,93.59A7.34,7.34,0,0,0,430.15,91a7.61,7.61,0,0,0-1.8,1.49l-.47-.41a8,8,0,0,1,11.24-.76,8.21,8.21,0,0,1,1.62,2Z"/><path class="cls-33" d="M440.49,101.76l-.52-.35a7.36,7.36,0,0,0,.23-7.82l.54-.32a8,8,0,0,1-.25,8.49Z"/><path class="cls-33" d="M428,102.63a8,8,0,0,1-.07-10.55l.47.41a7.35,7.35,0,0,0,.06,9.72Z"/><path class="cls-33" d="M433.88,105.28a8,8,0,0,1-5.93-2.65l.46-.42a7.34,7.34,0,0,0,10.36.58,7.48,7.48,0,0,0,1.2-1.38l.52.35A8,8,0,0,1,433.88,105.28Z"/><rect class="cls-7" x="453.84" y="93.55" width="6.46" height="6.46"/><rect class="cls-7" x="463.09" y="93.55" width="6.46" height="6.46"/><rect class="cls-7" x="472.34" y="93.55" width="6.46" height="6.46"/><rect class="cls-33" x="407.08" y="97.75" width="6.46" height="6.46"/><rect class="cls-33" x="393.65" y="59.15" width="92.48" height="3.37"/><circle class="cls-6" cx="396.15" cy="60.87" r="0.62"/><circle class="cls-6" cx="398.52" cy="60.87" r="0.62"/><circle class="cls-6" cx="400.9" cy="60.87" r="0.62"/><rect class="cls-7" x="405.82" y="49.94" width="92.45" height="51.98"/><rect class="cls-6" x="408.09" y="55.74" width="87.87" height="19.37"/><rect class="cls-7" x="426.7" y="59.69" width="15.82" height="0.91"/><rect class="cls-9" x="426.7" y="63.01" width="24.43" height="0.91"/><rect class="cls-7" x="426.7" y="66.13" width="19.91" height="0.91"/><rect class="cls-7" x="426.7" y="69.24" width="11.62" height="0.91"/><rect class="cls-7" x="426.7" y="72.35" width="17.54" height="0.91"/><rect class="cls-7" x="419.49" y="59.37" width="1.94" height="1.94"/><rect class="cls-9" x="419.49" y="62.49" width="1.94" height="1.94"/><rect class="cls-7" x="419.49" y="65.61" width="1.94" height="1.94"/><rect class="cls-7" x="419.49" y="68.74" width="1.94" height="1.94"/><rect class="cls-7" x="419.49" y="71.86" width="1.94" height="1.94"/><rect class="cls-7" x="465.98" y="63.78" width="6.46" height="6.46"/><rect class="cls-7" x="475.23" y="63.78" width="6.46" height="6.46"/><rect class="cls-7" x="484.48" y="63.78" width="6.46" height="6.46"/><rect class="cls-6" x="408.09" y="78.38" width="87.87" height="19.37"/><rect class="cls-7" x="422.82" y="80.1" width="1.94" height="1.94"/><rect class="cls-9" x="419.49" y="80.1" width="1.94" height="1.94"/><path class="cls-7" d="M452.33,84.34a7.32,7.32,0,0,0-10-2.58,7.16,7.16,0,0,0-1.8,1.49l-.47-.42A8,8,0,0,1,452.87,84Z"/><path class="cls-9" d="M452.63,92.51l-.52-.35a7.34,7.34,0,0,0,.22-7.82l.54-.32a8,8,0,0,1-.24,8.49Z"/><path class="cls-9" d="M440.09,93.38A8,8,0,0,1,440,82.83l.47.42a7.33,7.33,0,0,0,.06,9.71Z"/><path class="cls-34" d="M446,96a7.94,7.94,0,0,1-5.93-2.65l.46-.42a7.34,7.34,0,0,0,10.36.58,7.17,7.17,0,0,0,1.2-1.38l.52.35A8,8,0,0,1,446,96Z"/><rect class="cls-7" x="465.98" y="84.3" width="6.46" height="6.46"/><rect class="cls-7" x="475.23" y="84.3" width="6.46" height="6.46"/><rect class="cls-7" x="484.48" y="84.3" width="6.46" height="6.46"/><rect class="cls-34" x="419.22" y="88.5" width="6.46" height="6.46"/><rect class="cls-34" x="405.79" y="49.9" width="92.48" height="3.37"/><circle class="cls-6" cx="408.29" cy="51.62" r="0.62"/><circle class="cls-6" cx="410.66" cy="51.62" r="0.62"/><circle class="cls-6" cx="413.03" cy="51.62" r="0.62"/><rect class="cls-7" x="417.38" y="41.85" width="92.45" height="51.98"/><rect class="cls-6" x="419.65" y="47.65" width="87.87" height="19.37"/><rect class="cls-7" x="438.26" y="51.6" width="15.82" height="0.91"/><rect class="cls-9" x="438.26" y="54.92" width="24.43" height="0.91"/><rect class="cls-7" x="438.26" y="58.04" width="19.91" height="0.91"/><rect class="cls-7" x="438.26" y="61.15" width="11.62" height="0.91"/><rect class="cls-7" x="438.26" y="64.26" width="17.54" height="0.91"/><rect class="cls-7" x="431.05" y="51.28" width="1.94" height="1.94"/><rect class="cls-9" x="431.05" y="54.4" width="1.94" height="1.94"/><rect class="cls-7" x="431.05" y="57.52" width="1.94" height="1.94"/><rect class="cls-7" x="431.05" y="60.64" width="1.94" height="1.94"/><rect class="cls-7" x="431.05" y="63.76" width="1.94" height="1.94"/><rect class="cls-7" x="477.54" y="55.69" width="6.46" height="6.46"/><rect class="cls-7" x="486.79" y="55.69" width="6.46" height="6.46"/><rect class="cls-7" x="496.04" y="55.69" width="6.46" height="6.46"/><rect class="cls-6" x="419.65" y="70.29" width="87.87" height="19.37"/><rect class="cls-7" x="434.38" y="72.01" width="1.94" height="1.94"/><rect class="cls-9" x="431.05" y="72.01" width="1.94" height="1.94"/><path class="cls-7" d="M463.89,76.25a7.34,7.34,0,0,0-11.84-1.1l-.47-.41a8,8,0,0,1,12.85,1.19Z"/><path class="cls-9" d="M464.19,84.42l-.52-.35a7.34,7.34,0,0,0,.22-7.82l.54-.32a8,8,0,0,1-.24,8.49Z"/><path class="cls-9" d="M451.65,85.29a8,8,0,0,1-.07-10.55l.47.41a7.35,7.35,0,0,0,.06,9.72Z"/><path class="cls-9" d="M457.58,87.94a7.94,7.94,0,0,1-5.93-2.65l.46-.42a7.33,7.33,0,0,0,10.36.57,7.11,7.11,0,0,0,1.2-1.37l.52.35A8,8,0,0,1,457.58,87.94Z"/><rect class="cls-7" x="477.54" y="76.21" width="6.46" height="6.46"/><rect class="cls-7" x="486.79" y="76.21" width="6.46" height="6.46"/><rect class="cls-7" x="496.04" y="76.21" width="6.46" height="6.46"/><rect class="cls-7" x="430.78" y="80.41" width="6.46" height="6.46"/><rect class="cls-9" x="417.35" y="41.81" width="92.48" height="3.37"/><circle class="cls-6" cx="419.85" cy="43.53" r="0.62"/><circle class="cls-6" cx="422.22" cy="43.53" r="0.62"/><circle class="cls-6" cx="424.59" cy="43.53" r="0.62"/><path class="cls-32" d="M219,85.36a22.83,22.83,0,1,0-22.83-22.83A22.83,22.83,0,0,0,219,85.36ZM201.34,61.5h-3.06a20.74,20.74,0,0,1,19.66-19.67v3.05a1,1,0,0,0,1,1h0a1,1,0,0,0,1-1h0V41.83A20.75,20.75,0,0,1,239.74,61.5h-4.15a1,1,0,0,0-1,1,1,1,0,0,0,1,1h4.15A20.76,20.76,0,0,1,220,83.29V80.18a1,1,0,1,0-2.08,0v3.11a20.74,20.74,0,0,1-19.66-19.67h3.06a1,1,0,1,0,0-2.07h0Z"/><path class="cls-32" d="M242.36,49.05c-.31-.53-.65-1-1-1.56l2.49-2.57a1,1,0,0,0,0-1.46h0l-5.79-5.87a1.07,1.07,0,0,0-1.47,0L234,40.15a26.83,26.83,0,0,0-14-4.57V29.35h7.27a1,1,0,0,0,1-1.05,1,1,0,0,0-1-1.05H210.68a1,1,0,0,0-1,1,1.06,1.06,0,0,0,1,1h7.26v6.22A27,27,0,0,0,195.62,49h-5.7a1,1,0,0,0,0,2.07h6.3a1,1,0,0,0,.91-.51,24.91,24.91,0,1,1,0,23.91,1,1,0,0,0-.91-.53h-6.3a1,1,0,0,0,0,2.08h5.7a27,27,0,0,0,46.74-27Zm-6.63-7.66,1.61-1.6,4.39,4.39-1.6,1.61A28.17,28.17,0,0,0,235.73,41.39Z"/><path class="cls-32" d="M194.07,62.53a1,1,0,0,0-1-1h-8.3a1,1,0,0,0-1,1,1,1,0,0,0,1,1H193A1,1,0,0,0,194.07,62.53Z"/><path class="cls-32" d="M186.81,57.34h7.26a1,1,0,0,0,0-2.07h-7.26a1,1,0,1,0,0,2.07Z"/><path class="cls-32" d="M195.11,68.76a1,1,0,0,0-1-1h-7.26a1,1,0,1,0,0,2.06h7.27A1,1,0,0,0,195.11,68.76Z"/><path class="cls-32" d="M216.18,69.49a1,1,0,0,0,1.46,0h0l14.42-14.42a1.05,1.05,0,0,0,0-1.47,1,1,0,0,0-1.47,0L216.9,67.3l-6.23-6.23a1,1,0,0,0-1.47,1.44Z"/><path class="cls-7" d="M119.92,291.75V280.88a1.9,1.9,0,0,0-1-1.66l-9.44-5.37a7.06,7.06,0,0,0-4.91-8.5V254.42a1.94,1.94,0,0,0-1-1.67l-15.25-8.82a1.9,1.9,0,0,0-1.93,0l-9.4,5.43a7.05,7.05,0,1,0-6.84,11.81V272a1.9,1.9,0,0,0,1,1.66L85.51,282v9.75a7,7,0,1,0,6.83,11.81l9.41,5.43a1.91,1.91,0,0,0,1.93,0l9.41-5.43a7,7,0,1,0,6.83-11.81Zm-14-19.69a3.2,3.2,0,1,1-3.2-3.2,3.21,3.21,0,0,1,3.2,3.2ZM69,254.42a3.2,3.2,0,1,1,3.2,3.2h0A3.2,3.2,0,0,1,69,254.42ZM74.08,271V261.2a7.07,7.07,0,0,0,5.12-6.78,8.45,8.45,0,0,0-.21-1.74l8.45-4.86,13.35,7.66v9.76A7.07,7.07,0,0,0,95.66,272a6.63,6.63,0,0,0,.23,1.82l-8.45,4.88Zm13.36,30.78a3.2,3.2,0,1,1,3.2-3.2h0A3.22,3.22,0,0,1,87.44,301.73Zm23.51-3.2a7.25,7.25,0,0,0,.21,1.73l-8.45,4.87-8.45-4.87a6.73,6.73,0,0,0,.22-1.73,7.07,7.07,0,0,0-5.13-6.78V282l8.45-4.88a7,7,0,0,0,9.82,0l8.45,4.88v9.75a7,7,0,0,0-5.13,6.78Zm7,3.2a3.2,3.2,0,1,1,3.2-3.2h0A3.2,3.2,0,0,1,118,301.73Z"/><path class="cls-7" d="M108.4,103.11l-1.94-.82-1.33-9.73H87.39L86,102.25l-1.74.87a.42.42,0,0,0-.18.56.4.4,0,0,0,.37.22h23.84a.41.41,0,0,0,.41-.41A.43.43,0,0,0,108.4,103.11Z"/><path class="cls-32" d="M139.91,93.86H52.8a1.73,1.73,0,0,1-1.72-1.73V79.85h90.55V92.13A1.73,1.73,0,0,1,139.91,93.86Z"/><path class="cls-7" d="M141.72,85.65H51V33.09A2.08,2.08,0,0,1,53.08,31h86.56a2.08,2.08,0,0,1,2.08,2.08Z"/><path class="cls-6" d="M136.31,81.84H56.42a1.61,1.61,0,0,1-1.61-1.61V36.43a1.61,1.61,0,0,1,1.61-1.6h79.89a1.6,1.6,0,0,1,1.6,1.6v43.8A1.61,1.61,0,0,1,136.31,81.84Z"/><path class="cls-32" d="M118.77,104H73.88a.21.21,0,0,1-.21-.16.2.2,0,0,1,.15-.24h44.93a.21.21,0,0,1,.21.16.19.19,0,0,1-.15.24Z"/><rect class="cls-35" x="116.16" y="41.91" width="19.29" height="14.74"/><rect class="cls-6" x="117.12" y="42.64" width="17.37" height="13.27"/><path class="cls-36" d="M126.11,52.49h0a4.63,4.63,0,0,0,.1-9.25.13.13,0,0,0-.08,0,.11.11,0,0,0,0,.08l-.1,9a.1.1,0,0,0,.1.11Z"/><path class="cls-7" d="M122.48,44.74a.13.13,0,0,1,.1,0L125.69,48a.15.15,0,0,1,0,.09l0,4.32a.12.12,0,0,1-.05.1.13.13,0,0,1-.1,0,4.66,4.66,0,0,1-3.15-7.73.12.12,0,0,1,.1,0Z"/><path class="cls-9" d="M125.64,43.2l.1,0a.18.18,0,0,1,0,.1l0,3.9a.13.13,0,0,1-.13.14.18.18,0,0,1-.1,0l-2.71-2.78a.14.14,0,0,1,0-.19h0a4.68,4.68,0,0,1,2.83-1.16Z"/><path class="cls-9" d="M124.25,54.36a.84.84,0,0,1-.85.82.83.83,0,0,1,0-1.66h0A.84.84,0,0,1,124.25,54.36Z"/><path class="cls-36" d="M126.62,54.39a.83.83,0,1,1-.82-.85h0A.84.84,0,0,1,126.62,54.39Z"/><path class="cls-7" d="M129,54.41a.83.83,0,0,1-.84.82.83.83,0,1,1,0-1.66h0A.83.83,0,0,1,129,54.41Z"/><rect class="cls-35" x="115.96" y="58.96" width="19.29" height="14.74"/><rect class="cls-6" x="116.92" y="59.7" width="17.37" height="13.27"/><circle class="cls-36" cx="119.87" cy="63.34" r="0.72"/><path class="cls-36" d="M131.46,62.78a.48.48,0,0,1,.49.48.49.49,0,0,1-.49.49h-7.59a.48.48,0,0,1-.49-.48.49.49,0,0,1,.49-.49h7.59m0-.12h-7.59a.61.61,0,1,0,0,1.21h7.59a.61.61,0,1,0,0-1.21Z"/><path class="cls-9" d="M128.46,63.87h-5.71a.61.61,0,1,1,0-1.21h5.71a.61.61,0,1,1,0,1.21Z"/><circle class="cls-36" cx="119.87" cy="66.33" r="0.72"/><path class="cls-36" d="M131.46,65.77a.49.49,0,0,1,0,1h-7.59a.49.49,0,0,1,0-1h7.59m0-.12h-7.59a.61.61,0,1,0,0,1.22h7.59a.61.61,0,1,0,0-1.22Z"/><path class="cls-9" d="M130.62,66.87h-7.87a.61.61,0,1,1,0-1.22h7.87a.61.61,0,1,1,0,1.22Z"/><circle class="cls-36" cx="119.87" cy="69.33" r="0.72"/><path class="cls-36" d="M131.46,68.77a.48.48,0,0,1,.49.48.49.49,0,0,1-.49.49h-7.59a.48.48,0,0,1-.49-.48.49.49,0,0,1,.49-.49h7.59m0-.12h-7.59a.61.61,0,1,0,0,1.21h7.59a.61.61,0,1,0,0-1.21Z"/><path class="cls-9" d="M126,69.86h-3.2a.61.61,0,1,1,0-1.21H126a.61.61,0,0,1,0,1.21Z"/><rect class="cls-35" x="57.81" y="44.52" width="53.89" height="27.62"/><rect class="cls-6" x="59.6" y="45.89" width="50.3" height="24.87"/><path class="cls-36" d="M103.66,67H67a.12.12,0,0,1-.12-.12V49.28a.12.12,0,0,1,.12-.12.12.12,0,0,1,.11.12h0V66.74h36.55a.11.11,0,0,1,.12.11A.12.12,0,0,1,103.66,67Z"/><path class="cls-9" d="M74.83,65.71H71.5a.35.35,0,0,1-.34-.35V60.77a.34.34,0,0,1,.34-.34h3.33a.34.34,0,0,1,.34.34v4.59A.35.35,0,0,1,74.83,65.71Z"/><path class="cls-9" d="M80.91,65.71H77.58a.35.35,0,0,1-.34-.35v-9a.34.34,0,0,1,.34-.34h3.33a.34.34,0,0,1,.34.34v9A.35.35,0,0,1,80.91,65.71Z"/><path class="cls-9" d="M87,65.71H83.66a.35.35,0,0,1-.34-.35V60.77a.34.34,0,0,1,.34-.34H87a.35.35,0,0,1,.35.34v4.59A.35.35,0,0,1,87,65.71Z"/><path class="cls-9" d="M93.08,65.71H89.74a.35.35,0,0,1-.34-.33V54.67a.33.33,0,0,1,.34-.32h3.34a.33.33,0,0,1,.34.32V65.38A.35.35,0,0,1,93.08,65.71Z"/><path class="cls-9" d="M99.16,65.71H95.82a.35.35,0,0,1-.34-.35V51.59a.34.34,0,0,1,.34-.34h3.34a.34.34,0,0,1,.34.34V65.36A.35.35,0,0,1,99.16,65.71Z"/><circle class="cls-36" cx="73.16" cy="58.36" r="0.69"/><circle class="cls-36" cx="79.25" cy="53.89" r="0.69"/><circle class="cls-36" cx="85.33" cy="58.36" r="0.69"/><circle class="cls-36" cx="91.41" cy="51.71" r="0.69"/><circle class="cls-36" cx="97.49" cy="49.18" r="0.69"/><polygon class="cls-36" points="85.34 58.52 79.25 53.95 73.23 58.45 73.1 58.27 79.25 53.66 85.31 58.21 91.34 51.61 91.37 51.6 97.45 49.15 97.53 49.36 91.48 51.8 85.34 58.52"/><path class="cls-32" d="M427.43,286.74H416.3a19.65,19.65,0,0,0-27.74-1.58h0a16.62,16.62,0,0,0-1.57,1.57H375.85a3.28,3.28,0,0,0-3.28,3.28h0v35.63a3.3,3.3,0,0,0,3.28,3.29h18l-1.35,4.65h-4a.93.93,0,0,0-.94.92h0v2.81a.94.94,0,0,0,.94.94h26.26a.94.94,0,0,0,.94-.94h0v-2.78a.93.93,0,0,0-.93-.93h-4L409.44,329h18a3.28,3.28,0,0,0,3.28-3.3V290A3.28,3.28,0,0,0,427.43,286.74Zm-8,12.19H411a33.59,33.59,0,0,0-2.54-12.71,14.93,14.93,0,0,0-2.18-3.56A17.86,17.86,0,0,1,419.43,298.93Zm0,1.87a17.87,17.87,0,0,1-13.14,16.28,15.13,15.13,0,0,0,2.18-3.56A33.59,33.59,0,0,0,411,300.81Zm-16.85-18.61c1.51.49,3,2.18,4.18,4.78a31.58,31.58,0,0,1,2.32,11.95h-6.5Zm0,18.61h6.55a31.73,31.73,0,0,1-2.37,11.93c-1.17,2.6-2.67,4.29-4.18,4.78Zm-1.88-18.61v16.74h-6.55A31.7,31.7,0,0,1,396.48,287c1.22-2.61,2.71-4.3,4.22-4.78Zm-4.18,30.54a31.92,31.92,0,0,1-2.32-11.94h6.55v16.73C399.19,317,397.7,315.34,396.52,312.73Zm.47,4.32a17.85,17.85,0,0,1-13.14-16.27h8.42a33.36,33.36,0,0,0,2.55,12.7,14.75,14.75,0,0,0,2.17,3.59Zm0-34.39a14.57,14.57,0,0,0-2.17,3.56,33.41,33.41,0,0,0-2.55,12.71h-8.42A17.86,17.86,0,0,1,397,282.66Zm16.84,52.84v.94H389.41v-.94Zm-19.39-1.84,1.34-4.65h11.67l1.34,4.65Zm34.4-8a1.41,1.41,0,0,1-1.41,1.41H375.85a1.41,1.41,0,0,1-1.41-1.41v-2.32h54.4Zm0-4.22h-54.4V290.07a1.42,1.42,0,0,1,1.36-1.46h9.69a19.7,19.7,0,1,0,32.3,0h9.64a1.41,1.41,0,0,1,1.41,1.41Z"/></svg>