<svg id="Layer_1" data-name="Layer 1" xmlns="http://www.w3.org/2000/svg" xmlns:xlink="http://www.w3.org/1999/xlink" width="50" height="50" viewBox="0 0 50 50"><defs><style>.cls-1{fill:url(#linear-gradient);}.cls-2{fill:url(#linear-gradient-2);}.cls-3{fill:url(#linear-gradient-3);}.cls-4{fill:url(#linear-gradient-4);}.cls-5{fill:url(#linear-gradient-5);}.cls-6{fill:url(#linear-gradient-6);}.cls-7{fill:url(#linear-gradient-7);}.cls-8{fill:url(#linear-gradient-8);}.cls-9{fill:url(#linear-gradient-9);}.cls-10{fill:url(#linear-gradient-10);}.cls-11{fill:url(#linear-gradient-11);}.cls-12{fill:url(#linear-gradient-12);}</style><linearGradient id="linear-gradient" x1="24.42" y1="-1.51" x2="25.13" y2="50.03" gradientUnits="userSpaceOnUse"><stop offset="0" stop-color="#ff512f"/><stop offset="1" stop-color="#f09819"/></linearGradient><linearGradient id="linear-gradient-2" x1="38.08" y1="-1.7" x2="38.8" y2="49.84" xlink:href="#linear-gradient"/><linearGradient id="linear-gradient-3" x1="7.91" y1="-1.28" x2="8.62" y2="50.26" xlink:href="#linear-gradient"/><linearGradient id="linear-gradient-4" x1="16.92" y1="-1.4" x2="17.64" y2="50.13" xlink:href="#linear-gradient"/><linearGradient id="linear-gradient-5" x1="25.93" y1="-1.53" x2="26.65" y2="50.01" xlink:href="#linear-gradient"/><linearGradient id="linear-gradient-6" x1="34.95" y1="-1.65" x2="35.67" y2="49.88" xlink:href="#linear-gradient"/><linearGradient id="linear-gradient-7" x1="7.78" y1="-1.27" x2="8.5" y2="50.26" xlink:href="#linear-gradient"/><linearGradient id="linear-gradient-8" x1="16.79" y1="-1.4" x2="17.51" y2="50.14" xlink:href="#linear-gradient"/><linearGradient id="linear-gradient-9" x1="25.81" y1="-1.53" x2="26.53" y2="50.01" xlink:href="#linear-gradient"/><linearGradient id="linear-gradient-10" x1="7.65" y1="-1.27" x2="8.37" y2="50.26" xlink:href="#linear-gradient"/><linearGradient id="linear-gradient-11" x1="16.67" y1="-1.4" x2="17.39" y2="50.14" xlink:href="#linear-gradient"/><linearGradient id="linear-gradient-12" x1="25.68" y1="-1.52" x2="26.4" y2="50.01" xlink:href="#linear-gradient"/></defs><title>time-to-day</title><path class="cls-1" d="M44.26,31.2v-23a4.1,4.1,0,0,0-4.1-4.1H38.52V2.42a2.46,2.46,0,0,0-4.91,0V4.06h-4.1V2.42a2.46,2.46,0,0,0-4.92,0V4.06H19.67V2.42a2.46,2.46,0,0,0-4.92,0V4.06H10.66V2.42a2.46,2.46,0,0,0-4.92,0V4.06H4.1A4.1,4.1,0,0,0,0,8.16V41a4.1,4.1,0,0,0,4.1,4.1H31.66A9.83,9.83,0,1,0,44.26,31.2Zm-9-28.78a.82.82,0,0,1,1.64,0V7.34a.82.82,0,0,1-1.64,0Zm-9,0a.82.82,0,0,1,1.64,0V7.34a.82.82,0,0,1-1.64,0Zm-9.84,0a.82.82,0,0,1,1.64,0V7.34a.82.82,0,0,1-1.64,0Zm-9,0A.82.82,0,0,1,9,2.42V7.34a.82.82,0,1,1-1.64,0ZM4.1,5.7H5.74V7.34a2.46,2.46,0,0,0,4.92,0V5.7h4.09V7.34a2.46,2.46,0,0,0,4.92,0V5.7h4.92V7.34a2.46,2.46,0,0,0,4.92,0V5.7h4.1V7.34a2.46,2.46,0,1,0,4.91,0V5.7h1.64a2.46,2.46,0,0,1,2.46,2.46v4.1h-41V8.16A2.47,2.47,0,0,1,4.1,5.7Zm0,37.71A2.47,2.47,0,0,1,1.64,41V13.9h41V30.62a9.22,9.22,0,0,0-4.1-.18V26.2a.81.81,0,0,0-.82-.82H32.79a.82.82,0,0,0-.82.82v4.91a.82.82,0,0,0,.82.82h1.94a9.85,9.85,0,0,0-4.4,8.2,9.66,9.66,0,0,0,.57,3.28ZM36.89,30.29H33.61V27h3.28Zm3.27,18a8.2,8.2,0,1,1,8.2-8.2A8.21,8.21,0,0,1,40.16,48.33Z" transform="translate(0 0.03)"/><path class="cls-2" d="M41,38.72V33.57H39.34v5.15a1.61,1.61,0,0,0-.82,1.41,1.13,1.13,0,0,0,0,.25l-3,2.39,1,1.28,3-2.39a1.64,1.64,0,0,0,2.23-1.53A1.59,1.59,0,0,0,41,38.72Z" transform="translate(0 0.03)"/><path class="cls-3" d="M10.66,16.36H5.74a.82.82,0,0,0-.82.82V22.1a.82.82,0,0,0,.82.82h4.92a.82.82,0,0,0,.82-.82V17.18A.82.82,0,0,0,10.66,16.36Zm-.82,4.92H6.56V18H9.84Z" transform="translate(0 0.03)"/><path class="cls-4" d="M19.67,16.36H14.75a.82.82,0,0,0-.82.82V22.1a.82.82,0,0,0,.82.82h4.92a.82.82,0,0,0,.82-.82V17.18A.82.82,0,0,0,19.67,16.36Zm-.82,4.92H15.57V18h3.28Z" transform="translate(0 0.03)"/><path class="cls-5" d="M28.69,16.36H23.77a.82.82,0,0,0-.82.82V22.1a.82.82,0,0,0,.82.82h4.92a.82.82,0,0,0,.82-.82V17.18A.82.82,0,0,0,28.69,16.36Zm-.82,4.92H24.59V18h3.28Z" transform="translate(0 0.03)"/><path class="cls-6" d="M32.79,22.92H37.7a.82.82,0,0,0,.82-.82V17.18a.82.82,0,0,0-.82-.82H32.79a.82.82,0,0,0-.82.82V22.1A.82.82,0,0,0,32.79,22.92ZM33.61,18h3.28v3.28H33.61Z" transform="translate(0 0.03)"/><path class="cls-7" d="M10.66,25.38H5.74a.82.82,0,0,0-.82.82v4.91a.82.82,0,0,0,.82.82h4.92a.82.82,0,0,0,.82-.82V26.2A.82.82,0,0,0,10.66,25.38Zm-.82,4.91H6.56V27H9.84Z" transform="translate(0 0.03)"/><path class="cls-8" d="M19.67,25.38H14.75a.82.82,0,0,0-.82.82v4.91a.82.82,0,0,0,.82.82h4.92a.82.82,0,0,0,.82-.82V26.2A.82.82,0,0,0,19.67,25.38Zm-.82,4.91H15.57V27h3.28Z" transform="translate(0 0.03)"/><path class="cls-9" d="M28.69,25.38H23.77a.82.82,0,0,0-.82.82v4.91a.82.82,0,0,0,.82.82h4.92a.82.82,0,0,0,.82-.82V26.2A.82.82,0,0,0,28.69,25.38Zm-.82,4.91H24.59V27h3.28Z" transform="translate(0 0.03)"/><path class="cls-10" d="M10.66,34.39H5.74a.82.82,0,0,0-.82.82v4.92a.82.82,0,0,0,.82.82h4.92a.82.82,0,0,0,.82-.82V35.21A.82.82,0,0,0,10.66,34.39Zm-.82,4.92H6.56V36H9.84Z" transform="translate(0 0.03)"/><path class="cls-11" d="M19.67,34.39H14.75a.82.82,0,0,0-.82.82v4.92a.82.82,0,0,0,.82.82h4.92a.82.82,0,0,0,.82-.82V35.21A.82.82,0,0,0,19.67,34.39Zm-.82,4.92H15.57V36h3.28Z" transform="translate(0 0.03)"/><path class="cls-12" d="M28.69,34.39H23.77a.82.82,0,0,0-.82.82v4.92a.82.82,0,0,0,.82.82h4.92a.82.82,0,0,0,.82-.82V35.21A.82.82,0,0,0,28.69,34.39Zm-.82,4.92H24.59V36h3.28Z" transform="translate(0 0.03)"/></svg>