<svg id="Capa_1" data-name="Capa 1" xmlns="http://www.w3.org/2000/svg" width="50" height="50" viewBox="0 0 50 50"><defs><style>.cls-1{fill:#f26522;}</style></defs><title>total-time</title><path class="cls-1" d="M28.33,46.66A18.33,18.33,0,1,0,10,28.33,18.33,18.33,0,0,0,28.33,46.66ZM14.17,27.5H11.71A16.65,16.65,0,0,1,27.5,11.71v2.45a.83.83,0,0,0,.83.84.84.84,0,0,0,.84-.84V11.71A16.66,16.66,0,0,1,45,27.5H41.67a.83.83,0,1,0,0,1.66H45A16.67,16.67,0,0,1,29.17,45V42.5a.85.85,0,0,0-.84-.84.84.84,0,0,0-.83.84V45a16.67,16.67,0,0,1-15.79-15.8h2.46a.83.83,0,1,0,0-1.66Z" transform="translate(0 0)"/><path class="cls-1" d="M47.1,17.51c-.25-.43-.52-.85-.79-1.26l2-2.06a.83.83,0,0,0,0-1.18L43.66,8.3a.85.85,0,0,0-1.18,0l-2.06,2.06A21.56,21.56,0,0,0,29.17,6.69v-5H35a.84.84,0,0,0,.83-.84A.83.83,0,0,0,35,0H21.67a.84.84,0,0,0-.84.83.85.85,0,0,0,.84.84H27.5v5A21.67,21.67,0,0,0,9.58,17.5H5a.83.83,0,0,0,0,1.66h5.06a.81.81,0,0,0,.73-.41,20,20,0,1,1,0,19.2.83.83,0,0,0-.73-.43H5a.84.84,0,0,0-.83.84.83.83,0,0,0,.83.83H9.58A21.66,21.66,0,0,0,47.1,17.51Zm-5.32-6.15,1.29-1.29L46.6,13.6l-1.29,1.29A22.24,22.24,0,0,0,41.78,11.36Z" transform="translate(0 0)"/><path class="cls-1" d="M8.33,28.33a.83.83,0,0,0-.83-.83H.83a.83.83,0,1,0,0,1.66H7.5A.83.83,0,0,0,8.33,28.33Z" transform="translate(0 0)"/><path class="cls-1" d="M2.5,24.16H8.33a.83.83,0,1,0,0-1.66H2.5a.83.83,0,1,0,0,1.66Z" transform="translate(0 0)"/><path class="cls-1" d="M9.17,33.33a.84.84,0,0,0-.84-.83H2.5a.83.83,0,1,0,0,1.66H8.33A.84.84,0,0,0,9.17,33.33Z" transform="translate(0 0)"/><path class="cls-1" d="M26.08,33.92a.83.83,0,0,0,1.18,0L38.84,22.34a.83.83,0,0,0-1.18-1.18l-11,11-5-5a.84.84,0,0,0-1.18,0,.83.83,0,0,0,0,1.15Z" transform="translate(0 0)"/></svg>