<svg id="Layer_1" data-name="Layer 1" xmlns="http://www.w3.org/2000/svg" xmlns:xlink="http://www.w3.org/1999/xlink" width="48.5" height="48.3" viewBox="0 0 48.5 48.3"><defs><linearGradient id="linear-gradient" x1="29.67" y1="51.31" x2="30.5" y2="0.83" gradientTransform="matrix(1, 0, 0, -1, -0.7, 50.2)" gradientUnits="userSpaceOnUse"><stop offset="0" stop-color="#ff512f"/><stop offset="1" stop-color="#f09819"/></linearGradient><linearGradient id="linear-gradient-2" x1="24.41" y1="51.23" x2="25.24" y2="0.74" gradientTransform="matrix(1, 0, 0, -1, 0, 51)" xlink:href="#linear-gradient"/><linearGradient id="linear-gradient-3" x1="19.28" y1="51.14" x2="20.11" y2="0.66" gradientTransform="matrix(1, 0, 0, -1, 0, 51)" xlink:href="#linear-gradient"/><linearGradient id="linear-gradient-4" x1="24.23" y1="51.22" x2="25.06" y2="0.74" gradientTransform="matrix(1, 0, 0, -1, 0, 51)" xlink:href="#linear-gradient"/></defs><title>transperent</title><circle cx="29.3" cy="18.9" r="1" style="fill:url(#linear-gradient)"/><path d="M48,42.7,35.4,30.1a18.48,18.48,0,0,0,3.2-10.4A19,19,0,0,0,.7,19.6,19,19,0,0,0,19.6,38.5,18.25,18.25,0,0,0,30,35.3l3.5,3.5h0L42.7,48a3.8,3.8,0,0,0,6.5-2.7A3.55,3.55,0,0,0,48,42.7ZM29.6,33.4h0a17.28,17.28,0,0,1-9.9,3.3,17,17,0,1,1,17-17,16,16,0,0,1-3.3,9.9A17.12,17.12,0,0,1,29.6,33.4Zm2,.9a17.24,17.24,0,0,0,2.7-2.7L37,34.3A34.39,34.39,0,0,1,34.3,37ZM46.7,46.7a1.94,1.94,0,0,1-1.3.6,1.61,1.61,0,0,1-1.3-.6l-8.4-8.4a34.39,34.39,0,0,0,2.7-2.7L46.8,44a1.94,1.94,0,0,1,.6,1.3A6.11,6.11,0,0,1,46.7,46.7Z" transform="translate(-0.7 -0.8)" style="fill:url(#linear-gradient-2)"/><path d="M19.6,4.4A15.1,15.1,0,1,0,34.7,19.5,15.15,15.15,0,0,0,19.6,4.4Zm0,28.4A13.25,13.25,0,1,1,32.9,19.6,13.29,13.29,0,0,1,19.6,32.8Z" transform="translate(-0.7 -0.8)" style="fill:url(#linear-gradient-3)"/><path d="M30.2,15.5a12.5,12.5,0,0,0-4.1-5.3,10.86,10.86,0,0,0-6.5-2,1,1,0,0,0-1,1,.94.94,0,0,0,1,1,9.44,9.44,0,0,1,8.8,6.1,1,1,0,0,0,.9.6.76.76,0,0,0,.4-.1A1,1,0,0,0,30.2,15.5Z" transform="translate(-0.7 -0.8)" style="fill:url(#linear-gradient-4)"/></svg>