<?xml version="1.0" encoding="utf-8"?>
<!-- Generator: Adobe Illustrator 23.0.1, SVG Export Plug-In . SVG Version: 6.00 Build 0)  -->
<svg version="1.1" id="Layer_1" xmlns="http://www.w3.org/2000/svg" xmlns:xlink="http://www.w3.org/1999/xlink" x="0px" y="0px"
	 viewBox="0 0 402 402" style="enable-background:new 0 0 402 402;" xml:space="preserve">
<style type="text/css">
	.st0{fill:#F26522;}
	.st1{fill:#FFFFFF;}
</style>
<circle class="st0" cx="201" cy="201" r="201"/>
<path class="st1" d="M90.5,127.5c0,0,0.5-8.3,7.8-8.3c0,0,23.5,1.5,24.5,8.5c0,0-9,73.5-4,92.8c0,0-0.8,38.3,31,45.3
	c0,0,31.5,8,83.3,2.8c0,0,37.8,1.3,44.8-30.5c0,0,9.5-38.5,0.5-93.5c0,0-3.3-14.5-2.5-17c0,0-1-5.8,20.3-7.8c0,0,11.3-3.5,12.8,8.3
	c0,0,14.9,63,6.3,109c0,0-2,44-46,60c0,0-64.7,18.7-134,1.3c0,0-44-8-52-64.7C83,233.7,80.7,176.3,90.5,127.5z"/>
</svg>
