<?xml version="1.0" encoding="utf-8"?>
<!-- Generator: Adobe Illustrator 23.0.1, SVG Export Plug-In . SVG Version: 6.00 Build 0)  -->
<svg version="1.1" id="Capa_1" xmlns="http://www.w3.org/2000/svg" xmlns:xlink="http://www.w3.org/1999/xlink" x="0px" y="0px"
	 viewBox="0 0 512 512" style="enable-background:new 0 0 512 512;" xml:space="preserve">
<style type="text/css">
	.st0{display:none;}
	.st1{display:inline;fill:url(#SVGID_1_);}
	.st2{display:inline;fill:url(#SVGID_2_);}
	.st3{display:inline;fill:url(#SVGID_3_);}
	.st4{fill:url(#SVGID_4_);}
	.st5{fill:url(#SVGID_5_);}
	.st6{display:inline;fill:#FFC107;}
	.st7{fill:url(#SVGID_6_);}
	.st8{fill:url(#SVGID_7_);}
	.st9{fill:url(#SVGID_8_);}
	.st10{fill:url(#SVGID_9_);}
	.st11{fill:url(#SVGID_10_);}
	.st12{fill:url(#SVGID_11_);}
	.st13{fill:url(#SVGID_12_);}
	.st14{fill:url(#SVGID_13_);}
	.st15{fill:url(#SVGID_14_);}
	.st16{fill:url(#SVGID_15_);}
	.st17{fill:url(#SVGID_16_);}
</style>
<g class="st0">
	<linearGradient id="SVGID_1_" gradientUnits="userSpaceOnUse" x1="-39" y1="266.5" x2="555" y2="266.5">
		<stop  offset="0" style="stop-color:#FF512F"/>
		<stop  offset="1" style="stop-color:#F09819"/>
	</linearGradient>
	<rect x="-39" y="-27" class="st1" width="594" height="587"/>
</g>
<g class="st0">
	<linearGradient id="SVGID_2_" gradientUnits="userSpaceOnUse" x1="300.2" y1="406.05" x2="512" y2="406.05">
		<stop  offset="0" style="stop-color:#FF512F"/>
		<stop  offset="1" style="stop-color:#F09819"/>
	</linearGradient>
	<path class="st2" d="M406.1,300.1c-58.4,0-105.9,47.5-105.9,105.9s47.5,106,105.9,106S512,464.5,512,406.1S464.5,300.1,406.1,300.1
		z M406.1,494.3c-48.7,0-88.3-39.6-88.3-88.3s39.6-88.3,88.3-88.3s88.3,39.6,88.3,88.3S454.7,494.3,406.1,494.3z"/>
</g>
<g class="st0">
	<linearGradient id="SVGID_3_" gradientUnits="userSpaceOnUse" x1="397.3" y1="379.6" x2="467.9" y2="379.6">
		<stop  offset="0" style="stop-color:#FF512F"/>
		<stop  offset="1" style="stop-color:#F09819"/>
	</linearGradient>
	<path class="st3" d="M459,397.2h-44.1v-44.1c0-4.9-3.9-8.8-8.8-8.8s-8.8,3.9-8.8,8.8v53c0,4.9,3.9,8.8,8.8,8.8h53
		c4.9,0,8.8-3.9,8.8-8.8S463.9,397.2,459,397.2z"/>
</g>
<g>
	<linearGradient id="SVGID_4_" gradientUnits="userSpaceOnUse" x1="228.2827" y1="-4.917" x2="230.2827" y2="518.0831">
		<stop  offset="0" style="stop-color:#FF512F"/>
		<stop  offset="1" style="stop-color:#F09819"/>
	</linearGradient>
	<path class="st4" d="M238.3,185.4h-17.7h-61.8h-17.7H61.8v79.4v17.7v61.8V362v79.4h79.4h17.7h79.4V362v-17.7v-61.8h61.8h17.7h79.4
		v-97.1h-79.4h-17.7H238.3z M317.8,203h61.8v61.8h-61.8V203z M158.9,203h61.8v61.8h-61.8V203z M79.4,203h61.8v61.8H79.4V203z
		 M79.4,282.5h61.8v61.8H79.4V282.5z M141.2,423.7H79.4v-61.8h61.8V423.7z M220.7,423.7h-61.8v-61.8h61.8V423.7z M220.7,344.3h-61.8
		v-61.8h61.8V344.3z M300.1,264.8h-61.8V203h61.8V264.8z"/>
</g>
<g>
	<linearGradient id="SVGID_5_" gradientUnits="userSpaceOnUse" x1="228.4518" y1="-4.9176" x2="230.4518" y2="518.0824">
		<stop  offset="0" style="stop-color:#FF512F"/>
		<stop  offset="1" style="stop-color:#F09819"/>
	</linearGradient>
	<path class="st5" d="M291.3,485.5H17.7V141.2h423.7V256c0,4.9,3.9,8.8,8.8,8.8s8.8-3.9,8.8-8.8V132.4V44.1c0-4.9-3.9-8.8-8.8-8.8
		h-44.1V8.8c0-4.9-3.9-8.8-8.8-8.8h-61.8c-4.9,0-8.8,3.9-8.8,8.8v26.5H132.4V8.8c0-4.9-3.9-8.8-8.8-8.8H61.8C56.9,0,53,3.9,53,8.8
		v26.5H8.8c-4.9,0-8.8,3.9-8.8,8.8v88.3v361.9c0,4.9,3.9,8.8,8.8,8.8h282.5c4.9,0,8.8-3.9,8.8-8.8
		C300.1,489.5,296.2,485.5,291.3,485.5z M344.3,17.7h44.1v26.5v26.5h-44.1V44.1V17.7z M70.6,17.7h44.1v26.5v26.5H70.6V44.1V17.7z
		 M17.7,53H53v26.5c0,4.9,3.9,8.8,8.8,8.8h61.8c4.9,0,8.8-3.9,8.8-8.8V53h194.2v26.5c0,4.9,3.9,8.8,8.8,8.8h61.8
		c4.9,0,8.8-3.9,8.8-8.8V53h35.3v70.6H17.7V53z"/>
</g>
<g class="st0">
	<path class="st6" d="M400,399.3c-4.2-12.4-17.6-19.1-30-14.9c-11.6,3.9-18.3,16.1-15.5,28c8.5,29.7,39.7,56.3,68.3,78.9
		c2.1,1.6,5,1.3,6.7-0.8c1.6-2.1,1.3-5-0.8-6.7c-27.4-21.7-57.4-47.1-65.1-74.1c-2.2-7.6,2.2-15.4,9.7-17.6
		c7.6-2.2,15.4,2.2,17.6,9.7c5.2,18,30.9,40.3,55.4,59.7c2.1,1.6,5,1.3,6.7-0.8c1.6-2.1,1.3-5-0.8-6.7
		C439.3,443.9,405.1,416.8,400,399.3z"/>
	<path class="st6" d="M435.9,387c-10.3-31.6-43.7-49.5-75.7-40.5c-32.7,9.4-51.6,43.5-42.2,76.2c0,0,0,0,0,0.1
		c7.8,27-8.9,34.5-14.2,36.2c-2.5,0.8-3.9,3.4-3.1,5.9s3.4,3.9,5.9,3.1c14.5-4.5,28.6-19.8,20.5-47.9c-8-27.7,8-56.6,35.7-64.6l0,0
		c27.4-7.7,55.9,7.8,64.3,35c0.1,0.4,0.3,0.7,0.5,1.1c0.5,0.8,1.5,2.5,32,27.3c2,1.7,5,1.3,6.7-0.7s1.3-5-0.7-6.7
		C454.5,402.6,438.3,389.3,435.9,387z"/>
	<path class="st6" d="M418.2,394c-6.5-22.6-30.1-35.7-52.8-29.2c-22.2,6.9-35.1,30-29.3,52.5c9.6,43.6,2.4,53.7-17.2,59.8
		c-2.5,0.8-3.9,3.4-3.1,5.9s3.4,3.9,5.9,3.1c27.5-8.5,33.4-26.5,23.7-70.9c-4.7-17.6,5.3-35.8,22.6-41.4c17.6-5,36,5.2,41.1,22.8
		c1.9,6.5,6.9,15.3,45.8,46.1c2.1,1.6,5,1.3,6.7-0.8c1.6-2.1,1.3-5-0.8-6.7C425.6,407.4,419.6,398.6,418.2,394z"/>
	<path class="st6" d="M431.3,460c-16-12.2-42.9-32.5-49.5-55.5c-0.8-2.5-3.4-3.9-5.9-3.1c-2.4,0.7-3.9,3.3-3.2,5.8
		c7.5,26,35.9,47.6,52.9,60.4c3.5,2.5,6.8,5.1,10,8c1.9,1.8,4.9,1.8,6.7-0.1c1.8-1.8,1.8-4.8,0-6.6
		C438.7,465.7,435.1,462.7,431.3,460z"/>
	<path class="st6" d="M405.6,493c-4.8-8.9-13.6-14.9-23.6-16.1c-16.1,0-18.6,27.4-19,32.9c-0.2,2.6,1.8,4.9,4.4,5h0.3
		c2.5,0,4.6-1.9,4.7-4.4c0.6-9.8,4.3-24,9.5-24c7,0,12,6.8,16,12.2c1.3,1.9,2.8,3.7,4.3,5.4c1.9,1.8,4.9,1.8,6.7-0.1
		c1.8-1.8,1.8-4.8,0-6.6C407.8,495.9,406.7,494.5,405.6,493z"/>
	<path class="st6" d="M362.8,451.8c-0.9-2.5-3.6-3.7-6.1-2.8c-2.3,0.8-3.6,3.3-3,5.7c4.1,12.7-3.9,37.6-15.9,41.5
		c-2.5,0.8-3.9,3.4-3.1,5.9s3.4,3.9,5.9,3.1h0.1C359,499.2,367.8,467.5,362.8,451.8z"/>
	<path class="st6" d="M464,387.1c-5.9-1.9-10.6-9.5-16-18.1c-11.4-18.5-27.1-43.7-70.8-43.7c-44.5,0.1-80.5,36.1-80.6,80.6
		c0,2.6,2.1,4.7,4.7,4.7s4.7-2.1,4.7-4.7c0-39.3,31.9-71.1,71.1-71.1c38.5,0,51.9,21.8,62.8,39.2c6.4,10.3,11.9,19.2,21.1,22.2
		c2.5,0.8,5.2-0.5,6-3s-0.5-5.2-3-6C464.1,387.1,464.1,387.1,464,387.1L464,387.1z"/>
	<path class="st6" d="M306.1,443.7c2.6,0,4.7-2.1,4.7-4.7c0-0.7-0.2-1.5-0.5-2.1c-2-3.8-3.5-7.9-4.2-12.1c0-2.6-2.1-4.7-4.7-4.7
		s-4.7,2.1-4.7,4.7c0.8,5.7,2.5,11.3,5.2,16.3C302.7,442.7,304.3,443.7,306.1,443.7z"/>
	<path class="st6" d="M303.6,343.5c2.2,1.4,5.2,0.7,6.5-1.6l0,0c4.1-6.8,24.4-26.2,62.3-26.2c36.4,0,62.4,18.5,67.1,26.2
		c1.4,2.2,4.3,3,6.5,1.6s3-4.3,1.6-6.5l0,0c-6.5-10.7-35.2-30.7-75.2-30.7c-42.5,0-65.2,22.2-70.4,30.7
		C300.7,339.2,301.4,342.1,303.6,343.5z"/>
	<path class="st6" d="M331.7,305.8c2.2-0.9,4-1.9,5.8-2.8c7.1-3.6,12.3-6.2,35-6.2c15.4-0.8,30.7,1.6,45.1,7.2
		c1.8,0.7,3.6,1.3,5.5,2c0.5,0.2,1,0.3,1.5,0.3c2.6,0,4.7-2.1,4.7-4.7c0-2-1.3-3.8-3.2-4.5c-1.8-0.6-3.6-1.3-5.3-1.9
		c-15.4-6-31.9-8.7-48.4-7.8c-25.1,0-31.3,3.2-39.3,7.3c-1.6,0.8-3.3,1.7-5.3,2.6c-2.4,1-3.6,3.7-2.7,6.2c1,2.4,3.7,3.6,6.2,2.7
		C331.5,306,331.6,305.9,331.7,305.8L331.7,305.8z"/>
	<path class="st6" d="M458,369.3c0.9,2.5,3.6,3.7,6.1,2.8c2.3-0.8,3.6-3.3,3-5.7c-2.7-7-6-13.7-10-20c-1.4-2.2-4.3-2.9-6.5-1.6
		c-2.2,1.4-2.9,4.3-1.6,6.5C452.6,357.1,455.6,363.1,458,369.3z"/>
</g>
<g>
	<linearGradient id="SVGID_6_" gradientUnits="userSpaceOnUse" x1="396.0734" y1="-5.5586" x2="398.0734" y2="517.4414">
		<stop  offset="0" style="stop-color:#FF512F"/>
		<stop  offset="1" style="stop-color:#F09819"/>
	</linearGradient>
	<path class="st7" d="M417.1,480.7c-1,0-1.9-0.3-2.6-0.9c-25.6-20.3-53.5-44.1-61.1-70.6c-2.7-11.4,4.3-22.8,15.7-25.6
		c10.7-2.6,21.5,3.4,25.1,13.9c4.5,15.7,35.2,40,46.7,49.1c1.9,1.4,2.3,4.1,0.9,5.9s-4.1,2.3-5.9,0.9c-0.1-0.1-0.1-0.1-0.2-0.2
		c-21.9-17.3-45-37.3-49.6-53.4c-1.9-6.8-9-10.7-15.8-8.7c-6.8,1.9-10.7,9-8.7,15.8c6.9,24.1,33.7,46.9,58.3,66.3
		c1.8,1.5,2.1,4.1,0.7,6C419.6,480.1,418.4,480.7,417.1,480.7L417.1,480.7z"/>
</g>
<g>
	<linearGradient id="SVGID_7_" gradientUnits="userSpaceOnUse" x1="377.9647" y1="-5.4893" x2="379.9647" y2="517.5107">
		<stop  offset="0" style="stop-color:#FF512F"/>
		<stop  offset="1" style="stop-color:#F09819"/>
	</linearGradient>
	<path class="st8" d="M309.2,459.2c-2.3,0-4.2-1.9-4.2-4.3c0-1.9,1.2-3.5,3-4c4.7-1.5,19.7-8.2,12.7-32.4
		c-8.4-29.3,8.5-59.8,37.8-68.3l0,0c28.6-8,58.5,7.9,67.8,36.2c2.1,2,16.6,14,26.5,22c1.8,1.5,2,4.2,0.4,6c-1.5,1.7-4,2-5.8,0.6
		c-27.3-22.1-28.2-23.7-28.6-24.4c-0.2-0.3-0.3-0.6-0.4-0.9c-7.5-24.3-33.1-38.2-57.5-31.3c-24.8,7.1-39.1,33-32,57.7l0,0
		c7.2,25.1-5.4,38.8-18.3,42.8C310.1,459.2,309.7,459.2,309.2,459.2z"/>
</g>
<g>
	<linearGradient id="SVGID_8_" gradientUnits="userSpaceOnUse" x1="382.7178" y1="-5.5075" x2="384.7178" y2="517.4925">
		<stop  offset="0" style="stop-color:#FF512F"/>
		<stop  offset="1" style="stop-color:#F09819"/>
	</linearGradient>
	<path class="st9" d="M322.8,475.4c-2.3,0-4.2-1.9-4.2-4.3c0-1.9,1.2-3.5,3-4c17.6-5.5,24-14.5,15.4-53.5
		c-5.2-20.2,6.3-40.9,26.2-47c20.3-5.8,41.4,5.9,47.3,26.1c1.2,4.1,6.6,12,38.1,36.9c1.9,1.4,2.3,4.1,0.9,5.9
		c-1.4,1.9-4.1,2.3-5.9,0.9c-0.1-0.1-0.1-0.1-0.2-0.2c-34.8-27.5-39.3-35.5-41-41.2c-4.5-15.8-21-24.9-36.8-20.4
		c-15.6,4.9-24.5,21.3-20.3,37.1c8.7,39.8,3.4,55.8-21.2,63.5C323.6,475.4,323.2,475.4,322.8,475.4z"/>
</g>
<g>
	<linearGradient id="SVGID_9_" gradientUnits="userSpaceOnUse" x1="399.6649" y1="-5.5723" x2="401.6649" y2="517.4277">
		<stop  offset="0" style="stop-color:#FF512F"/>
		<stop  offset="1" style="stop-color:#F09819"/>
	</linearGradient>
	<path class="st10" d="M428.9,467c-1.1,0-2.2-0.4-3-1.2c-2.8-2.5-5.8-4.9-8.9-7.1c-15.2-11.5-40.6-30.8-47.3-54.1
		c-0.7-2.2,0.6-4.6,2.8-5.3c2.2-0.7,4.6,0.6,5.3,2.8v0.1c5.9,20.6,29.9,38.8,44.3,49.7c3.4,2.4,6.7,5.1,9.8,7.9c1.7,1.7,1.7,4.3,0,6
		C431.1,466.5,430,467,428.9,467z"/>
</g>
<g>
	<linearGradient id="SVGID_10_" gradientUnits="userSpaceOnUse" x1="380.288" y1="-5.4982" x2="382.288" y2="517.5018">
		<stop  offset="0" style="stop-color:#FF512F"/>
		<stop  offset="1" style="stop-color:#F09819"/>
	</linearGradient>
	<path class="st11" d="M365.2,500.9H365c-2.3-0.1-4.1-2.2-4-4.5c0.3-4.9,2.5-29.4,17-29.4c9,1,16.9,6.4,21.2,14.4
		c0.9,1.3,1.9,2.6,3,3.8c1.6,1.7,1.6,4.4-0.1,6c-1.6,1.6-4.3,1.6-5.9,0c-1.4-1.5-2.7-3.1-3.9-4.8c-3.6-4.9-8.1-10.9-14.4-10.9
		c-4.6,0-8,12.7-8.5,21.5C369.4,499.2,367.5,500.9,365.2,500.9z"/>
</g>
<g>
	<linearGradient id="SVGID_11_" gradientUnits="userSpaceOnUse" x1="346.9037" y1="-5.3706" x2="348.9037" y2="517.6295">
		<stop  offset="0" style="stop-color:#FF512F"/>
		<stop  offset="1" style="stop-color:#F09819"/>
	</linearGradient>
	<path class="st12" d="M339.8,492.4c-2.3,0-4.2-1.9-4.3-4.2c0-1.8,1.2-3.5,2.9-4c10.7-3.5,17.8-25.8,14.2-37.1
		c-0.8-2.2,0.3-4.6,2.4-5.5s4.6,0.3,5.5,2.4c0.1,0.2,0.1,0.3,0.2,0.5c4.5,14.1-3.4,42.4-19.7,47.8
		C340.7,492.4,340.2,492.4,339.8,492.4z"/>
</g>
<g>
	<linearGradient id="SVGID_12_" gradientUnits="userSpaceOnUse" x1="376.4557" y1="-5.4836" x2="378.4557" y2="517.5164">
		<stop  offset="0" style="stop-color:#FF512F"/>
		<stop  offset="1" style="stop-color:#F09819"/>
	</linearGradient>
	<path class="st13" d="M305.8,407.6c-2.3,0-4.2-1.9-4.2-4.2c0-39.8,32.3-72.1,72.1-72.1c39.2,0,53.2,22.6,63.4,39.1
		c4.8,7.8,9,14.5,14.3,16.2c2.2,0.7,3.5,3.1,2.8,5.3s-3.1,3.5-5.3,2.8h-0.1c-8.3-2.7-13.2-10.6-18.9-19.8
		c-9.7-15.6-21.8-35.1-56.2-35.1c-35.1,0-63.6,28.5-63.6,63.6C310.1,405.7,308.2,407.6,305.8,407.6z"/>
</g>
<g>
	<linearGradient id="SVGID_13_" gradientUnits="userSpaceOnUse" x1="306.2622" y1="-5.2152" x2="308.2622" y2="517.7849">
		<stop  offset="0" style="stop-color:#FF512F"/>
		<stop  offset="1" style="stop-color:#F09819"/>
	</linearGradient>
	<path class="st14" d="M310.1,437.3c-1.6,0-3.1-0.9-3.8-2.3c-2.4-4.6-4-9.5-4.7-14.6c0-2.3,1.9-4.2,4.2-4.2c2.3,0,4.2,1.9,4.2,4.2
		c0.7,3.8,2,7.4,3.8,10.8c1,2.1,0.2,4.6-1.9,5.7C311.4,437.1,310.7,437.3,310.1,437.3z"/>
</g>
<g>
	<linearGradient id="SVGID_14_" gradientUnits="userSpaceOnUse" x1="370.24" y1="-5.4598" x2="372.24" y2="517.5402">
		<stop  offset="0" style="stop-color:#FF512F"/>
		<stop  offset="1" style="stop-color:#F09819"/>
	</linearGradient>
	<path class="st15" d="M433.1,348.1c-1.5,0-2.9-0.8-3.6-2c-4.2-6.9-27.4-23.4-60-23.4c-33.9,0-52.1,17.3-55.8,23.4
		c-1.1,2-3.7,2.8-5.8,1.6c-2-1.1-2.8-3.7-1.6-5.8c0.1-0.1,0.1-0.2,0.2-0.3c4.6-7.6,25-27.5,63-27.5c35.7,0,61.4,17.9,67.3,27.5
		c1.2,2,0.6,4.6-1.4,5.8C434.7,347.9,433.9,348.1,433.1,348.1z"/>
</g>
<g>
	<linearGradient id="SVGID_15_" gradientUnits="userSpaceOnUse" x1="372.59" y1="-5.4688" x2="374.59" y2="517.5312">
		<stop  offset="0" style="stop-color:#FF512F"/>
		<stop  offset="1" style="stop-color:#F09819"/>
	</linearGradient>
	<path class="st16" d="M416.2,314.2c-0.5,0-0.9-0.1-1.4-0.2c-1.7-0.6-3.3-1.2-5-1.8c-12.8-5-26.6-7.2-40.3-6.5
		c-20.4,0-25,2.4-31.3,5.6c-1.6,0.8-3.2,1.6-5.2,2.5c-2.1,0.9-4.7,0-5.6-2.2c-0.9-2.1,0-4.7,2.2-5.6c1.8-0.8,3.3-1.6,4.8-2.3
		c7.1-3.6,12.7-6.5,35.1-6.5c14.8-0.8,29.5,1.6,43.3,7c1.6,0.6,3.1,1.2,4.8,1.7c2.2,0.7,3.5,3.1,2.7,5.3
		C419.7,313,418,314.2,416.2,314.2z"/>
</g>
<g>
	<linearGradient id="SVGID_16_" gradientUnits="userSpaceOnUse" x1="444.4395" y1="-5.7436" x2="446.4395" y2="517.2565">
		<stop  offset="0" style="stop-color:#FF512F"/>
		<stop  offset="1" style="stop-color:#F09819"/>
	</linearGradient>
	<path class="st17" d="M450.1,373.6c-1.8,0-3.5-1.2-4-3c-2.2-5.6-4.9-10.9-8.1-16c-1.2-2-0.6-4.6,1.4-5.8c2-1.2,4.6-0.6,5.8,1.4l0,0
		c3.5,5.7,6.5,11.7,8.9,17.9c0.7,2.2-0.5,4.6-2.8,5.3C451,373.5,450.5,373.6,450.1,373.6z"/>
</g>
</svg>
