<svg id="Capa_1" data-name="Capa 1" xmlns="http://www.w3.org/2000/svg" width="459" height="503.1" viewBox="0 0 459 503.1"><title>view-attendence</title><path d="M238.3,185.4H61.8v256H238.3V282.5H397.2V185.4H238.3ZM317.8,203h61.8v61.8H317.8Zm-158.9,0h61.8v61.8H158.9Zm-79.5,0h61.8v61.8H79.4Zm0,79.5h61.8v61.8H79.4Zm61.8,141.2H79.4V361.9h61.8Zm79.5,0H158.9V361.9h61.8Zm0-79.4H158.9V282.5h61.8Zm79.4-79.5H238.3V203h61.8Z" style="fill:#fff"/><path d="M291.3,485.5H17.7V141.2H441.4V256a8.8,8.8,0,0,0,17.6,0V44.1a8.75,8.75,0,0,0-8.8-8.8H406.1V8.8A8.75,8.75,0,0,0,397.3,0H335.5a8.75,8.75,0,0,0-8.8,8.8V35.3H132.4V8.8A8.75,8.75,0,0,0,123.6,0H61.8A8.75,8.75,0,0,0,53,8.8V35.3H8.8A8.75,8.75,0,0,0,0,44.1V494.3a8.75,8.75,0,0,0,8.8,8.8H291.3a8.8,8.8,0,0,0,0-17.6Zm53-467.8h44.1v53H344.3v-53Zm-273.7,0h44.1v53H70.6v-53ZM17.7,53H53V79.5a8.75,8.75,0,0,0,8.8,8.8h61.8a8.75,8.75,0,0,0,8.8-8.8V53H326.6V79.5a8.75,8.75,0,0,0,8.8,8.8h61.8a8.75,8.75,0,0,0,8.8-8.8V53h35.3v70.6H17.7Z" style="fill:#fff"/><path d="M417.1,480.7a3.92,3.92,0,0,1-2.6-.9c-25.6-20.3-53.5-44.1-61.1-70.6a21.24,21.24,0,0,1,40.8-11.7c4.5,15.7,35.2,40,46.7,49.1a4.2,4.2,0,0,1,.9,5.9,4.29,4.29,0,0,1-5.9.9l-.2-.2c-21.9-17.3-45-37.3-49.6-53.4a12.75,12.75,0,1,0-24.5,7.1c6.9,24.1,33.7,46.9,58.3,66.3a4.38,4.38,0,0,1,.7,6,5.29,5.29,0,0,1-3.5,1.5Z" style="fill:#fff"/><path d="M309.2,459.2a4.25,4.25,0,0,1-4.2-4.3,4.08,4.08,0,0,1,3-4c4.7-1.5,19.7-8.2,12.7-32.4a55.25,55.25,0,0,1,37.8-68.3h0a55.6,55.6,0,0,1,67.8,36.2c2.1,2,16.6,14,26.5,22a4.17,4.17,0,0,1,.4,6,4.22,4.22,0,0,1-5.8.6c-27.3-22.1-28.2-23.7-28.6-24.4a3.55,3.55,0,0,1-.4-.9,46.66,46.66,0,0,0-89.5,26.4h0c7.2,25.1-5.4,38.8-18.3,42.8A2.38,2.38,0,0,1,309.2,459.2Z" style="fill:#fff"/><path d="M322.8,475.4a4.25,4.25,0,0,1-4.2-4.3,4.08,4.08,0,0,1,3-4c17.6-5.5,24-14.5,15.4-53.5a38.92,38.92,0,0,1,26.2-47,38.3,38.3,0,0,1,47.3,26.1c1.2,4.1,6.6,12,38.1,36.9a4.22,4.22,0,1,1-5,6.8l-.2-.2c-34.8-27.5-39.3-35.5-41-41.2a29.76,29.76,0,0,0-36.8-20.4,30.61,30.61,0,0,0-20.3,37.1c8.7,39.8,3.4,55.8-21.2,63.5A3.18,3.18,0,0,1,322.8,475.4Z" style="fill:#fff"/><path d="M428.9,467a4.23,4.23,0,0,1-3-1.2,102.56,102.56,0,0,0-8.9-7.1c-15.2-11.5-40.6-30.8-47.3-54.1a4.24,4.24,0,0,1,8.1-2.5v.1c5.9,20.6,29.9,38.8,44.3,49.7a105.79,105.79,0,0,1,9.8,7.9,4.17,4.17,0,0,1,0,6A4.71,4.71,0,0,1,428.9,467Z" style="fill:#fff"/><path d="M365.2,500.9H365a4.32,4.32,0,0,1-4-4.5c.3-4.9,2.5-29.4,17-29.4a27.55,27.55,0,0,1,21.2,14.4,35.73,35.73,0,0,0,3,3.8,4.24,4.24,0,0,1-6,6,45.37,45.37,0,0,1-3.9-4.8c-3.6-4.9-8.1-10.9-14.4-10.9-4.6,0-8,12.7-8.5,21.5A4,4,0,0,1,365.2,500.9Z" style="fill:#fff"/><path d="M339.8,492.4a4.38,4.38,0,0,1-4.3-4.2,4.2,4.2,0,0,1,2.9-4c10.7-3.5,17.8-25.8,14.2-37.1a4.37,4.37,0,0,1,2.4-5.5,4.32,4.32,0,0,1,5.5,2.4c.1.2.1.3.2.5,4.5,14.1-3.4,42.4-19.7,47.8A4.48,4.48,0,0,1,339.8,492.4Z" style="fill:#fff"/><path d="M305.8,407.6a4.23,4.23,0,0,1-4.2-4.2,72.13,72.13,0,0,1,72.1-72.1c39.2,0,53.2,22.6,63.4,39.1,4.8,7.8,9,14.5,14.3,16.2a4.24,4.24,0,1,1-2.5,8.1h-.1c-8.3-2.7-13.2-10.6-18.9-19.8-9.7-15.6-21.8-35.1-56.2-35.1a63.63,63.63,0,0,0-63.6,63.6A4.25,4.25,0,0,1,305.8,407.6Z" style="fill:#fff"/><path d="M310.1,437.3a4.26,4.26,0,0,1-3.8-2.3,44.6,44.6,0,0,1-4.7-14.6,4.2,4.2,0,1,1,8.4,0,37.55,37.55,0,0,0,3.8,10.8,4.31,4.31,0,0,1-1.9,5.7A5.26,5.26,0,0,1,310.1,437.3Z" style="fill:#fff"/><path d="M433.1,348.1a4.2,4.2,0,0,1-3.6-2c-4.2-6.9-27.4-23.4-60-23.4-33.9,0-52.1,17.3-55.8,23.4a4.25,4.25,0,0,1-7.4-4.2c.1-.1.1-.2.2-.3,4.6-7.6,25-27.5,63-27.5,35.7,0,61.4,17.9,67.3,27.5a4.22,4.22,0,0,1-1.4,5.8A3.89,3.89,0,0,1,433.1,348.1Z" style="fill:#fff"/><path d="M416.2,314.2a6.75,6.75,0,0,1-1.4-.2c-1.7-.6-3.3-1.2-5-1.8a97.34,97.34,0,0,0-40.3-6.5c-20.4,0-25,2.4-31.3,5.6-1.6.8-3.2,1.6-5.2,2.5a4.25,4.25,0,0,1-3.4-7.8c1.8-.8,3.3-1.6,4.8-2.3,7.1-3.6,12.7-6.5,35.1-6.5a103.29,103.29,0,0,1,43.3,7c1.6.6,3.1,1.2,4.8,1.7a4.15,4.15,0,0,1,2.7,5.3A4.39,4.39,0,0,1,416.2,314.2Z" style="fill:#fff"/><path d="M450.1,373.6a4.17,4.17,0,0,1-4-3,96.1,96.1,0,0,0-8.1-16,4.22,4.22,0,1,1,7.2-4.4h0a110.54,110.54,0,0,1,8.9,17.9,4.2,4.2,0,0,1-2.8,5.3A4.3,4.3,0,0,1,450.1,373.6Z" style="fill:#fff"/></svg>