<svg id="Layer_1" data-name="Layer 1" xmlns="http://www.w3.org/2000/svg" width="50" height="50" viewBox="0 0 50 50"><defs><style>.cls-1{fill:#f26522;}</style></defs><title>web-desktop</title><path class="cls-1" d="M47.18,5.65H37.61A16.9,16.9,0,0,0,13.74,4.3a14.33,14.33,0,0,0-1.35,1.35H2.82A2.82,2.82,0,0,0,0,8.47V39.11a2.83,2.83,0,0,0,2.82,2.83H18.29l-1.16,4H13.71a.8.8,0,0,0-.81.8v2.42a.81.81,0,0,0,.81.81H36.29a.81.81,0,0,0,.81-.81V46.77a.8.8,0,0,0-.81-.8H32.87l-1.16-4H47.18A2.83,2.83,0,0,0,50,39.11V8.47A2.82,2.82,0,0,0,47.18,5.65ZM40.3,16.13H33.06A28.86,28.86,0,0,0,30.87,5.2,12.68,12.68,0,0,0,29,2.14,15.36,15.36,0,0,1,40.3,16.13Zm0,1.61a15.36,15.36,0,0,1-11.3,14,12.68,12.68,0,0,0,1.87-3.06,28.82,28.82,0,0,0,2.19-10.93Zm-14.49-16c1.3.42,2.58,1.87,3.59,4.11a27.25,27.25,0,0,1,2,10.27H25.81Zm0,16h5.63A27.25,27.25,0,0,1,29.4,28c-1,2.24-2.29,3.69-3.59,4.11Zm-1.62-16V16.13H18.56a27.25,27.25,0,0,1,2-10.27C21.61,3.62,22.89,2.17,24.19,1.75ZM20.6,28a27.25,27.25,0,0,1-2-10.27h5.63V32.12C22.89,31.7,21.61,30.25,20.6,28Zm.4,3.72a15.36,15.36,0,0,1-11.3-14h7.24a28.82,28.82,0,0,0,2.19,10.93A12.68,12.68,0,0,0,21,31.73ZM21,2.14A12.68,12.68,0,0,0,19.13,5.2a28.86,28.86,0,0,0-2.19,10.93H9.7A15.36,15.36,0,0,1,21,2.14ZM35.48,47.58v.81h-21v-.81ZM18.81,46l1.15-4H30l1.15,4Zm29.58-6.86a1.21,1.21,0,0,1-1.21,1.21H2.82a1.21,1.21,0,0,1-1.21-1.21v-2H48.39Zm0-3.63H1.61v-27A1.21,1.21,0,0,1,2.82,7.26h8.29a16.94,16.94,0,1,0,27.78,0h8.29a1.21,1.21,0,0,1,1.21,1.21Z" transform="translate(0 0)"/></svg>