<svg id="Layer_1" data-name="Layer 1" xmlns="http://www.w3.org/2000/svg" xmlns:xlink="http://www.w3.org/1999/xlink" width="50.02" height="49.91" viewBox="0 0 50.02 49.91"><defs><linearGradient id="linear-gradient" x1="25.48" y1="-3.55" x2="24.79" y2="53.83" gradientTransform="matrix(1, 0, 0, -1, 0, 51)" gradientUnits="userSpaceOnUse"><stop offset="0" stop-color="#ff512f"/><stop offset="1" stop-color="#f09819"/></linearGradient></defs><title>years</title><path d="M14.8,23.9a1.77,1.77,0,0,0-2.5,2.5l8.1,8.1a1.85,1.85,0,0,0,1.2.5h.1a2.23,2.23,0,0,0,1.3-.6L43.4,10a1.85,1.85,0,0,0-.2-2.5,1.85,1.85,0,0,0-2.5.2L21.5,30.6l-6.7-6.7ZM38.3,4.2A25,25,0,1,0,25.1,50.3,25.33,25.33,0,0,0,42.8,43a24.83,24.83,0,0,0,3.5-30.9,1.75,1.75,0,0,0-3,1.8,21.35,21.35,0,0,1-3,26.6,21.67,21.67,0,0,1-30.4,0,21.37,21.37,0,0,1,0-30.3A21.65,21.65,0,0,1,36.5,7.1a1.69,1.69,0,0,0,2.4-.6,1.6,1.6,0,0,0-.6-2.3Z" transform="translate(-0.13 -0.39)" style="fill:url(#linear-gradient)"/></svg>