<svg id="Layer_1" data-name="Layer 1" xmlns="http://www.w3.org/2000/svg" xmlns:xlink="http://www.w3.org/1999/xlink" width="180.57" height="191.07" viewBox="0 0 180.57 191.07"><defs><radialGradient id="radial-gradient" cx="99.62" cy="102.52" r="153.91" gradientUnits="userSpaceOnUse"><stop offset="0.01" stop-opacity="0.1"/><stop offset="0.12" stop-color="#040404" stop-opacity="0.09"/><stop offset="0.24" stop-color="#111" stop-opacity="0.08"/><stop offset="0.37" stop-color="#262626" stop-opacity="0.06"/><stop offset="0.41" stop-opacity="0.06"/><stop offset="0.5" stop-color="#444" stop-opacity="0.05"/><stop offset="0.63" stop-color="#6a6a6a" stop-opacity="0.04"/><stop offset="0.77" stop-color="#999" stop-opacity="0.02"/><stop offset="0.9" stop-color="#cfcfcf" stop-opacity="0.01"/><stop offset="1" stop-color="#fff" stop-opacity="0"/></radialGradient><radialGradient id="radial-gradient-2" cx="99.62" cy="102.52" r="153.91" gradientUnits="userSpaceOnUse"><stop offset="0" stop-opacity="0.1"/><stop offset="0.12" stop-color="#040404" stop-opacity="0.09"/><stop offset="0.24" stop-color="#111" stop-opacity="0.08"/><stop offset="0.37" stop-color="#262626" stop-opacity="0.06"/><stop offset="0.5" stop-color="#444" stop-opacity="0.05"/><stop offset="0.63" stop-color="#6a6a6a" stop-opacity="0.04"/><stop offset="0.77" stop-color="#999" stop-opacity="0.02"/><stop offset="0.9" stop-color="#cfcfcf" stop-opacity="0.01"/><stop offset="1" stop-color="#fff" stop-opacity="0"/></radialGradient></defs><title>pattern-design</title><path d="M155.8,45.4l-2.5,2.5a1,1,0,0,0,0,1.4h0a1,1,0,0,0,1.4,0l2.5-2.5,2.5,2.5a1,1,0,0,0,1.4,0h0a1,1,0,0,0,0-1.4l-2.5-2.5,2.5-2.5a1,1,0,0,0,0-1.4h0a1,1,0,0,0-1.4,0L157.2,44l-2.5-2.5a1,1,0,0,0-1.4,0h0a1,1,0,0,0,0,1.4Z" transform="translate(-9.41 -4.71)" style="fill:url(#radial-gradient)"/><path d="M141.3,45.4l-2.5,2.5a1,1,0,0,0,0,1.4h0a1,1,0,0,0,1.4,0l2.5-2.5,2.5,2.5a1,1,0,0,0,1.4,0h0a1,1,0,0,0,0-1.4l-2.1-2.5,2.5-2.5a1,1,0,0,0,0-1.4h0a1,1,0,0,0-1.4,0L143.1,44l-2.5-2.5a1,1,0,0,0-1.4,0h0a1,1,0,0,0,0,1.4Z" transform="translate(-9.41 -4.71)" style="fill:url(#radial-gradient-2)"/><path d="M126.9,45.4l-2.5,2.5a1,1,0,0,0,0,1.4h0a1,1,0,0,0,1.4,0l2.5-2.5,2.5,2.5a1,1,0,0,0,1.4,0h0a1,1,0,0,0,0-1.4l-2.5-2.5,2.5-2.5a1,1,0,0,0,0-1.4h0a1,1,0,0,0-1.4,0L128.3,44l-2.5-2.5a1,1,0,0,0-1.4,0h0a1,1,0,0,0,0,1.4Z" transform="translate(-9.41 -4.71)" style="fill:url(#radial-gradient-2)"/><path d="M98.3,45.4,95.8,48a1,1,0,0,0,0,1.4h0a1,1,0,0,0,1.4,0l2.5-2.5,2.5,2.5a1,1,0,0,0,1.4,0h0a1,1,0,0,0,0-1.4l-2.5-2.5,2.5-2.5a1,1,0,0,0,0-1.4h0a1,1,0,0,0-1.4,0L99.7,44l-2.5-2.5a1,1,0,0,0-1.4,0h0a1,1,0,0,0,0,1.4Z" transform="translate(-9.41 -4.71)" style="fill:url(#radial-gradient-2)"/><path d="M69.3,45.4,66.9,48a1,1,0,0,0,0,1.4h0a1,1,0,0,0,1.4,0l2.5-2.5,2.5,2.5a1,1,0,0,0,1.4,0h0a1,1,0,0,0,0-1.4l-2.5-2.5L74.7,43a1,1,0,0,0,0-1.4h0a1,1,0,0,0-1.4,0L70.7,44l-2.5-2.5a1,1,0,0,0-1.4,0h0a1,1,0,0,0,0,1.4Z" transform="translate(-9.41 -4.71)" style="fill:url(#radial-gradient-2)"/><path d="M40.4,45.4,37.9,48a1,1,0,0,0,0,1.4h0a1,1,0,0,0,1.4,0l2.5-2.5,2.5,2.5a1,1,0,0,0,1.4,0h0a1,1,0,0,0,0-1.4l-2.5-2.5L45.7,43a1,1,0,0,0,0-1.4h0a1,1,0,0,0-1.4,0L42.2,44l-2.5-2.5a1,1,0,0,0-1.4,0h0a1,1,0,0,0,0,1.4Z" transform="translate(-9.41 -4.71)" style="fill:url(#radial-gradient-2)"/><path d="M170.3,57.7l-2.5,2.5a1,1,0,0,0,0,1.4h0a1,1,0,0,0,1.4,0l2.5-2.5,2.5,2.5a1,1,0,0,0,1.4,0h0a1,1,0,0,0,0-1.4l-2.5-2.5,2.5-2.5a1,1,0,0,0,0-1.4h0a1,1,0,0,0-1.4,0l-2.5,2.5-2.5-2.5a1,1,0,0,0-1.4,0h0a1,1,0,0,0,0,1.4Z" transform="translate(-9.41 -4.71)" style="fill:url(#radial-gradient-2)"/><path d="M98.3,57.7l-2.5,2.5a1,1,0,0,0,0,1.4h0a1,1,0,0,0,1.4,0l2.5-2.5,2.5,2.5a1,1,0,0,0,1.4,0h0a1,1,0,0,0,0-1.4l-2.5-2.5,2.5-2.5a1,1,0,0,0,0-1.4h0a1,1,0,0,0-1.4,0l-2.5,2.5-2.5-2.5a1,1,0,0,0-1.4,0h0a1,1,0,0,0,0,1.4Z" transform="translate(-9.41 -4.71)" style="fill:url(#radial-gradient-2)"/><path d="M83.8,57.7l-2.5,2.5a1,1,0,0,0,0,1.4h0a1,1,0,0,0,1.4,0l2.5-2.5,2.5,2.5a1,1,0,0,0,1.4,0h0a1,1,0,0,0,0-1.4l-2.5-2.5,2.5-2.5a1,1,0,0,0,0-1.4h0a1,1,0,0,0-1.4,0l-2.5,2.5-2.5-2.5a1,1,0,0,0-1.4,0h0a1,1,0,0,0,0,1.4Z" transform="translate(-9.41 -4.71)" style="fill:url(#radial-gradient-2)"/><path d="M54.9,57.7l-2.5,2.5a1,1,0,0,0,0,1.4h0a1,1,0,0,0,1.4,0l2.5-2.5,2.5,2.5a1,1,0,0,0,1.4,0h0a1,1,0,0,0,0-1.4l-2.5-2.5,2.5-2.5a1,1,0,0,0,0-1.4h0a1,1,0,0,0-1.4,0l-2.5,2.5-2.5-2.5a1,1,0,0,0-1.4,0h0a1,1,0,0,0,0,1.4Z" transform="translate(-9.41 -4.71)" style="fill:url(#radial-gradient-2)"/><path d="M26.3,57.7l-2.5,2.5a1,1,0,0,0,0,1.4h0a1,1,0,0,0,1.4,0l2.5-2.5,2.5,2.5a1,1,0,0,0,1.4,0h0a1,1,0,0,0,0-1.4l-2.5-2.5,2.5-2.5a1,1,0,0,0,0-1.4h0a1,1,0,0,0-1.4,0l-2.5,2.5-2.5-2.5c-.4-.4-.7-.4-1.4,0h0a1,1,0,0,0,0,1.4Z" transform="translate(-9.41 -4.71)" style="fill:url(#radial-gradient-2)"/><path d="M170.3,33.2l-2.5,2.5a1,1,0,0,0,0,1.4h0a1,1,0,0,0,1.4,0l2.5-2.5,2.5,2.5a1,1,0,0,0,1.4,0h0a1,1,0,0,0,0-1.4l-2.5-2.5,2.5-2.5a1,1,0,0,0,0-1.4h0a1,1,0,0,0-1.4,0l-2.5,2.5-2.5-2.5a1,1,0,0,0-1.4,0h0a1,1,0,0,0,0,1.4Z" transform="translate(-9.41 -4.71)" style="fill:url(#radial-gradient-2)"/><path d="M155.8,33.2l-2.5,2.5a1,1,0,0,0,0,1.4h0a1,1,0,0,0,1.4,0l2.5-2.5,2.5,2.5a1,1,0,0,0,1.4,0h0a1,1,0,0,0,0-1.4l-2.5-2.5,2.5-2.5a1,1,0,0,0,0-1.4h0a1,1,0,0,0-1.4,0l-2.5,2.5-2.5-2.5a1,1,0,0,0-1.4,0h0a1,1,0,0,0,0,1.4Z" transform="translate(-9.41 -4.71)" style="fill:url(#radial-gradient-2)"/><path d="M112.4,33.2l-2.5,2.5a1,1,0,0,0,0,1.4h0a1,1,0,0,0,1.4,0l2.5-2.5,2.5,2.5a1,1,0,0,0,1.4,0h0a1,1,0,0,0,0-1.4l-2.5-2.5,2.5-2.5a1,1,0,0,0,0-1.4h0a1,1,0,0,0-1.4,0l-2.1,2.5-2.5-2.5a1,1,0,0,0-1.4,0h0a1,1,0,0,0,0,1.4Z" transform="translate(-9.41 -4.71)" style="fill:url(#radial-gradient-2)"/><path d="M112.4,21.3l-2.5,2.5a1,1,0,0,0,0,1.4h0a1,1,0,0,0,1.4,0l2.5-2.5,2.5,2.5a1,1,0,0,0,1.4,0h0a1,1,0,0,0,0-1.4l-2.5-2.5,2.5-2.5a1,1,0,0,0,0-1.4h0a1,1,0,0,0-1.4,0l-2.5,2.5-2.1-2.5a1,1,0,0,0-1.4,0h0a1,1,0,0,0,0,1.4Z" transform="translate(-9.41 -4.71)" style="fill:url(#radial-gradient-2)"/><path d="M112.4,9l-2.5,2.5a1,1,0,0,0,0,1.4h0a1,1,0,0,0,1.4,0l2.5-2.5,2.5,2.5a1,1,0,0,0,1.4,0h0a1,1,0,0,0,0-1.4L115.2,9,118,6.5a1,1,0,0,0,0-1.4h0a1,1,0,0,0-1.4,0l-2.5,2.5L111.7,5a1,1,0,0,0-1.4,0h0a1,1,0,0,0,0,1.4Z" transform="translate(-9.41 -4.71)" style="fill:url(#radial-gradient-2)"/><path d="M83.8,33.2l-2.5,2.5a1,1,0,0,0,0,1.4h0a1,1,0,0,0,1.4,0l2.5-2.5,2.5,2.5a1,1,0,0,0,1.4,0h0a1,1,0,0,0,0-1.4l-2.5-2.5,2.5-2.5a1,1,0,0,0,0-1.4h0a1,1,0,0,0-1.4,0l-2.5,2.5-2.5-2.5a1,1,0,0,0-1.4,0h0a1,1,0,0,0,0,1.4Z" transform="translate(-9.41 -4.71)" style="fill:url(#radial-gradient-2)"/><path d="M69.3,33.2l-2.5,2.5a1,1,0,0,0,0,1.4h0a1,1,0,0,0,1.4,0l2.5-2.5,2.5,2.5a1,1,0,0,0,1.4,0h0a1,1,0,0,0,0-1.4l-2.5-2.5,2.5-2.5a1,1,0,0,0,0-1.4h0a1,1,0,0,0-1.4,0l-2.5,2.5-2.5-2.5a1,1,0,0,0-1.4,0h0a1,1,0,0,0,0,1.4Z" transform="translate(-9.41 -4.71)" style="fill:url(#radial-gradient-2)"/><path d="M69.3,21.3l-2.5,2.2a1,1,0,0,0,0,1.4h0a1,1,0,0,0,1.4,0l2.5-2.5,2.5,2.5a1,1,0,0,0,1.4,0h0a1,1,0,0,0,0-1.4L72.1,21l2.5-2.5a1,1,0,0,0,0-1.4h0a1,1,0,0,0-1.4,0l-2.5,2.5-2.1-2.2a1,1,0,0,0-1.4,0h0a1,1,0,0,0,0,1.4Z" transform="translate(-9.41 -4.71)" style="fill:url(#radial-gradient-2)"/><path d="M54.9,33.2l-2.5,2.5a1,1,0,0,0,0,1.4h0a1,1,0,0,0,1.4,0l2.5-2.5,2.5,2.5a1,1,0,0,0,1.4,0h0a1,1,0,0,0,0-1.4l-2.5-2.5,2.5-2.5a1,1,0,0,0,0-1.4h0a1,1,0,0,0-1.4,0l-2.5,2.5-2.5-2.5a1,1,0,0,0-1.4,0h0a1,1,0,0,0,0,1.4Z" transform="translate(-9.41 -4.71)" style="fill:url(#radial-gradient-2)"/><path d="M40.4,33.2l-2.5,2.5a1,1,0,0,0,0,1.4h0a1,1,0,0,0,1.4,0l2.5-2.5,2.5,2.5a1,1,0,0,0,1.4,0h0a1,1,0,0,0,0-1.4l-2.5-2.5,2.5-2.5a1,1,0,0,0,0-1.4h0a1,1,0,0,0-1.4,0l-2.1,2.5-2.5-2.5a1,1,0,0,0-1.4,0h0a1,1,0,0,0,0,1.4Z" transform="translate(-9.41 -4.71)" style="fill:url(#radial-gradient-2)"/><path d="M170.3,70l-2.5,2.5a1,1,0,0,0,0,1.4h0a1,1,0,0,0,1.4,0l2.5-2.5,2.5,2.5a1,1,0,0,0,1.4,0h0a1,1,0,0,0,0-1.4L173.1,70l2.5-2.5a1,1,0,0,0,0-1.4h0a1,1,0,0,0-1.4,0l-2.5,2.5-2.5-2.5a1,1,0,0,0-1.4,0h0a1,1,0,0,0,0,1.4Z" transform="translate(-9.41 -4.71)" style="fill:url(#radial-gradient-2)"/><path d="M155.8,70l-2.5,2.5a1,1,0,0,0,0,1.4h0a1,1,0,0,0,1.4,0l2.5-2.5,2.5,2.5a1,1,0,0,0,1.4,0h0a1,1,0,0,0,0-1.4L158.6,70l2.5-2.5a1,1,0,0,0,0-1.4h0a1,1,0,0,0-1.4,0l-2.5,2.5-2.5-2.5a1,1,0,0,0-1.4,0h0a1,1,0,0,0,0,1.4Z" transform="translate(-9.41 -4.71)" style="fill:url(#radial-gradient-2)"/><path d="M141.3,70l-2.5,2.5a1,1,0,0,0,0,1.4h0a1,1,0,0,0,1.4,0l2.5-2.5,2.5,2.5a1,1,0,0,0,1.4,0h0a1,1,0,0,0,0-1.4L144.5,70l2.5-2.5a1,1,0,0,0,0-1.4h0a1,1,0,0,0-1.4,0l-2.5,2.5-2.5-2.5a1,1,0,0,0-1.4,0h0a1,1,0,0,0,0,1.4Z" transform="translate(-9.41 -4.71)" style="fill:url(#radial-gradient-2)"/><path d="M112.4,70l-2.5,2.5a1,1,0,0,0,0,1.4h0a1,1,0,0,0,1.4,0l2.5-2.5,2.5,2.5a1,1,0,0,0,1.4,0h0a1,1,0,0,0,0-1.4L115.2,70l2.5-2.5a1,1,0,0,0,0-1.4h0a1,1,0,0,0-1.4,0l-2.5,2.5-2.5-2.5a1,1,0,0,0-1.4,0h0a1,1,0,0,0,0,1.4Z" transform="translate(-9.41 -4.71)" style="fill:url(#radial-gradient-2)"/><path d="M98.3,70l-2.5,2.5a1,1,0,0,0,0,1.4h0a1,1,0,0,0,1.4,0l2.5-2.5,2.5,2.5a1,1,0,0,0,1.4,0h0a1,1,0,0,0,0-1.4L101.1,70l2.5-2.5a1,1,0,0,0,0-1.4h0a1,1,0,0,0-1.4,0l-2.5,2.5L97.2,66a1,1,0,0,0-1.4,0h0a1,1,0,0,0,0,1.4Z" transform="translate(-9.41 -4.71)" style="fill:url(#radial-gradient-2)"/><path d="M83.8,70l-2.5,2.5a1,1,0,0,0,0,1.4h0a1,1,0,0,0,1.4,0l2.5-2.5,2.5,2.5a1,1,0,0,0,1.4,0h0a1,1,0,0,0,0-1.4L86.6,70l2.5-2.5a1,1,0,0,0,0-1.4h0a1,1,0,0,0-1.4,0l-2.5,2.5L82.7,66a1,1,0,0,0-1.4,0h0a1,1,0,0,0,0,1.4Z" transform="translate(-9.41 -4.71)" style="fill:url(#radial-gradient-2)"/><path d="M54.9,70l-2.5,2.5a1,1,0,0,0,0,1.4h0a1,1,0,0,0,1.4,0l2.5-2.5,2.5,2.5a1,1,0,0,0,1.4,0h0a1,1,0,0,0,0-1.4L57.7,70l2.5-2.5a1,1,0,0,0,0-1.4h0a1,1,0,0,0-1.4,0l-2.5,2.2-2.5-2.5a1,1,0,0,0-1.4,0h0a1,1,0,0,0,0,1.4Z" transform="translate(-9.41 -4.71)" style="fill:url(#radial-gradient-2)"/><path d="M40.4,70l-2.5,2.5a1,1,0,0,0,0,1.4h0a1,1,0,0,0,1.4,0l2.8-2.5,2.5,2.5a1,1,0,0,0,1.4,0h0a1,1,0,0,0,0-1.4L43.6,70l2.5-2.5a1,1,0,0,0,0-1.4h0a1,1,0,0,0-1.4,0l-2.5,2.2-2.5-2.5a1,1,0,0,0-1.4,0h0a1,1,0,0,0,0,1.4Z" transform="translate(-9.41 -4.71)" style="fill:url(#radial-gradient-2)"/><path d="M141.3,81.9l-2.5,2.5a1,1,0,0,0,0,1.4h0a1,1,0,0,0,1.4,0l2.5-2.5,2.5,2.5a1,1,0,0,0,1.4,0h0a1,1,0,0,0,0-1.4l-2.1-2.5,2.5-2.5a1,1,0,0,0,0-1.4h0a1,1,0,0,0-1.4,0l-2.5,2.5L140.6,78a1,1,0,0,0-1.4,0h0a1,1,0,0,0,0,1.4Z" transform="translate(-9.41 -4.71)" style="fill:url(#radial-gradient-2)"/><path d="M126.9,81.9l-2.5,2.5a1,1,0,0,0,0,1.4h0a1,1,0,0,0,1.4,0l2.5-2.5,2.5,2.5a1,1,0,0,0,1.4,0h0a1,1,0,0,0,0-1.4l-2.5-2.5,2.5-2.5a1,1,0,0,0,0-1.4h0a1,1,0,0,0-1.4,0l-2.5,2.5L125.8,78a1,1,0,0,0-1.4,0h0a1,1,0,0,0,0,1.4Z" transform="translate(-9.41 -4.71)" style="fill:url(#radial-gradient-2)"/><path d="M98.3,81.9l-2.5,2.5a1,1,0,0,0,0,1.4h0a1,1,0,0,0,1.4,0l2.5-2.5,2.5,2.5a1,1,0,0,0,1.4,0h0a1,1,0,0,0,0-1.4l-2.5-2.5,2.5-2.5a1,1,0,0,0,0-1.4h0a1,1,0,0,0-1.4,0l-2.5,2.5L97.2,78a1,1,0,0,0-1.4,0h0a1,1,0,0,0,0,1.4Z" transform="translate(-9.41 -4.71)" style="fill:url(#radial-gradient-2)"/><path d="M69.3,81.9l-2.5,2.5a1,1,0,0,0,0,1.4h0a1,1,0,0,0,1.4,0l2.5-2.5,2.5,2.5a1,1,0,0,0,1.4,0h0a1,1,0,0,0,0-1.4l-2.5-2.5,2.5-2.5a1,1,0,0,0,0-1.4h0a1,1,0,0,0-1.4,0l-2.5,2.5L68.2,78a1,1,0,0,0-1.4,0h0a1,1,0,0,0,0,1.4Z" transform="translate(-9.41 -4.71)" style="fill:url(#radial-gradient-2)"/><path d="M170.3,94.2l-2.5,2.5a1,1,0,0,0,0,1.4h0a1,1,0,0,0,1.4,0l2.5-2.5,2.5,2.5a1,1,0,0,0,1.4,0h0a1,1,0,0,0,0-1.4l-2.5-2.5,2.5-2.5a1,1,0,0,0,0-1.4h0a1,1,0,0,0-1.4,0l-2.5,2.5-2.5-2.5a1,1,0,0,0-1.4,0h0a1,1,0,0,0,0,1.4Z" transform="translate(-9.41 -4.71)" style="fill:url(#radial-gradient-2)"/><path d="M155.8,94.2l-2.5,2.5a1,1,0,0,0,0,1.4h0a1,1,0,0,0,1.4,0l2.5-2.5,2.5,2.5a1,1,0,0,0,1.4,0h0a1,1,0,0,0,0-1.4l-2.5-2.5,2.5-2.5a1,1,0,0,0,0-1.4h0a1,1,0,0,0-1.4,0l-2.5,2.5-2.5-2.5a1,1,0,0,0-1.4,0h0a1,1,0,0,0,0,1.4Z" transform="translate(-9.41 -4.71)" style="fill:url(#radial-gradient-2)"/><path d="M126.9,94.2l-2.5,2.5a1,1,0,0,0,0,1.4h0a1,1,0,0,0,1.4,0l2.5-2.5,2.5,2.5a1,1,0,0,0,1.4,0h0a1,1,0,0,0,0-1.4l-2.5-2.5,2.5-2.5a1,1,0,0,0,0-1.4h0a1,1,0,0,0-1.4,0l-2.5,2.5-2.5-2.5a1,1,0,0,0-1.4,0h0a1,1,0,0,0,0,1.4Z" transform="translate(-9.41 -4.71)" style="fill:url(#radial-gradient-2)"/><path d="M112.4,94.2l-2.1,2.5a1,1,0,0,0,0,1.4h0a1,1,0,0,0,1.4,0l2.5-2.5,2.5,2.5a1,1,0,0,0,1.4,0h0a1,1,0,0,0,0-1.4l-2.5-2.5,2.5-2.5a1,1,0,0,0,0-1.4h0a1,1,0,0,0-1.4,0l-2.5,2.5-2.5-2.5a1,1,0,0,0-1.4,0h0a1,1,0,0,0,0,1.4Z" transform="translate(-9.41 -4.71)" style="fill:url(#radial-gradient-2)"/><path d="M98.3,94.2l-2.5,2.5a1,1,0,0,0,0,1.4h0a1,1,0,0,0,1.4,0l2.5-2.5,2.5,2.5a1,1,0,0,0,1.4,0h0a1,1,0,0,0,0-1.4l-2.5-2.5,2.5-2.5a1,1,0,0,0,0-1.4h0a1,1,0,0,0-1.4,0l-2.5,2.5-2.5-2.5a1,1,0,0,0-1.4,0h0a1,1,0,0,0,0,1.4Z" transform="translate(-9.41 -4.71)" style="fill:url(#radial-gradient-2)"/><path d="M83.8,94.2l-2.5,2.5a1,1,0,0,0,0,1.4h0a1,1,0,0,0,1.4,0l2.5-2.5,2.5,2.5a1,1,0,0,0,1.4,0h0a1,1,0,0,0,0-1.4l-2.5-2.5,2.5-2.5a1,1,0,0,0,0-1.4h0a1,1,0,0,0-1.4,0l-2.5,2.5-2.5-2.5a1,1,0,0,0-1.4,0h0a1,1,0,0,0,0,1.4Z" transform="translate(-9.41 -4.71)" style="fill:url(#radial-gradient-2)"/><path d="M54.9,94.2l-2.5,2.5a1,1,0,0,0,0,1.4h0a1,1,0,0,0,1.4,0l2.5-2.5,2.5,2.5a1,1,0,0,0,1.4,0h0a1,1,0,0,0,0-1.4l-2.5-2.5,2.5-2.5a1,1,0,0,0,0-1.4h0a1,1,0,0,0-1.4,0l-2.5,2.5-2.5-2.5a1,1,0,0,0-1.4,0h0a1,1,0,0,0,0,1.4Z" transform="translate(-9.41 -4.71)" style="fill:url(#radial-gradient-2)"/><path d="M26.3,94.2l-2.5,2.5a1,1,0,0,0,0,1.4h0a1,1,0,0,0,1.4,0l2.5-2.5,2.5,2.5a1,1,0,0,0,1.4,0h0a1,1,0,0,0,0-1.4l-2.5-2.5,2.5-2.5a1,1,0,0,0,0-1.4h0a1,1,0,0,0-1.4,0l-2.5,2.5-2.5-2.5a1,1,0,0,0-1.4,0h0a1,1,0,0,0,0,1.4Z" transform="translate(-9.41 -4.71)" style="fill:url(#radial-gradient-2)"/><path d="M12.2,94.2,9.7,96.7a1,1,0,0,0,0,1.4h0a1,1,0,0,0,1.4,0l2.5-2.5,2.5,2.5a1,1,0,0,0,1.4,0h0a1,1,0,0,0,0-1.4L15,94.2l2.5-2.5a1,1,0,0,0,0-1.4h0a1,1,0,0,0-1.4,0l-2.5,2.5-2.5-2.5a1,1,0,0,0-1.4,0h0a1,1,0,0,0,0,1.4Z" transform="translate(-9.41 -4.71)" style="fill:url(#radial-gradient-2)"/><path d="M170.3,106.4l-2.5,2.5a1,1,0,0,0,0,1.4h0a1,1,0,0,0,1.4,0l2.5-2.5,2.5,2.5a1,1,0,0,0,1.4,0h0a1,1,0,0,0,0-1.4l-2.5-2.5,2.5-2.5a1,1,0,0,0,0-1.4h0a1,1,0,0,0-1.4,0l-2.5,2.5-2.5-2.5a1,1,0,0,0-1.4,0h0a1,1,0,0,0,0,1.4Z" transform="translate(-9.41 -4.71)" style="fill:url(#radial-gradient-2)"/><path d="M184.4,106.4l-2.5,2.5a1,1,0,0,0,0,1.4h0a1,1,0,0,0,1.4,0l2.5-2.5,2.5,2.5a1,1,0,0,0,1.4,0h0a1,1,0,0,0,0-1.4l-2.5-2.5,2.5-2.5a1,1,0,0,0,0-1.4h0a1,1,0,0,0-1.4,0l-2.5,2.5-2.5-2.5a1,1,0,0,0-1.4,0h0a1,1,0,0,0,0,1.4Z" transform="translate(-9.41 -4.71)" style="fill:url(#radial-gradient-2)"/><path d="M155.8,106.4l-2.5,2.5a1,1,0,0,0,0,1.4h0a1,1,0,0,0,1.4,0l2.5-2.5,2.5,2.5a1,1,0,0,0,1.4,0h0a1,1,0,0,0,0-1.4l-2.5-2.5,2.5-2.5a1,1,0,0,0,0-1.4h0a1,1,0,0,0-1.4,0l-2.5,2.5-2.5-2.5a1,1,0,0,0-1.4,0h0a1,1,0,0,0,0,1.4Z" transform="translate(-9.41 -4.71)" style="fill:url(#radial-gradient-2)"/><path d="M126.9,106.4l-2.5,2.5a1,1,0,0,0,0,1.4h0a1,1,0,0,0,1.4,0l2.5-2.5,2.5,2.5a1,1,0,0,0,1.4,0h0a1,1,0,0,0,0-1.4l-2.5-2.5,2.5-2.5a1,1,0,0,0,0-1.4h0a1,1,0,0,0-1.4,0l-2.5,2.5-2.5-2.5a1,1,0,0,0-1.4,0h0a1,1,0,0,0,0,1.4Z" transform="translate(-9.41 -4.71)" style="fill:url(#radial-gradient-2)"/><path d="M112.4,106.4l-2.5,2.5a1,1,0,0,0,0,1.4h0a1,1,0,0,0,1.4,0l2.5-2.5,2.5,2.5a1,1,0,0,0,1.4,0h0a1,1,0,0,0,0-1.4l-2.5-2.5,2.5-2.5a1,1,0,0,0,0-1.4h0a1,1,0,0,0-1.4,0l-2.5,2.5-2.5-2.5a1,1,0,0,0-1.4,0h0a1,1,0,0,0,0,1.4Z" transform="translate(-9.41 -4.71)" style="fill:url(#radial-gradient-2)"/><path d="M83.8,106.4l-2.5,2.5a1,1,0,0,0,0,1.4h0a1,1,0,0,0,1.4,0l2.5-2.5,2.5,2.5a1,1,0,0,0,1.4,0h0a1,1,0,0,0,0-1.4l-2.5-2.5,2.5-2.5a1,1,0,0,0,0-1.4h0a1,1,0,0,0-1.4,0L85.2,105l-2.5-2.5a1,1,0,0,0-1.4,0h0a1,1,0,0,0,0,1.4Z" transform="translate(-9.41 -4.71)" style="fill:url(#radial-gradient-2)"/><path d="M69.3,106.4l-2.5,2.5a1,1,0,0,0,0,1.4h0a1,1,0,0,0,1.4,0l2.5-2.5,2.5,2.5a1,1,0,0,0,1.4,0h0a1,1,0,0,0,0-1.4l-2.5-2.5,2.5-2.5a1,1,0,0,0,0-1.4h0a1,1,0,0,0-1.4,0L70.7,105l-2.5-2.5a1,1,0,0,0-1.4,0h0a1,1,0,0,0,0,1.4Z" transform="translate(-9.41 -4.71)" style="fill:url(#radial-gradient-2)"/><path d="M40.4,106.4l-2.5,2.5a1,1,0,0,0,0,1.4h0a1,1,0,0,0,1.4,0l2.5-2.5,2.5,2.5a1,1,0,0,0,1.4,0h0a1,1,0,0,0,0-1.4l-2.5-2.5,2.5-2.5a1,1,0,0,0,0-1.4h0a1,1,0,0,0-1.4,0L42.2,105l-2.5-2.5a1,1,0,0,0-1.4,0h0a1,1,0,0,0,0,1.4Z" transform="translate(-9.41 -4.71)" style="fill:url(#radial-gradient-2)"/><path d="M141.3,118.7l-2.5,2.5a1,1,0,0,0,0,1.4h0a1,1,0,0,0,1.4,0l2.5-2.5,2.5,2.5a1,1,0,0,0,1.4,0h0a1,1,0,0,0,0-1.4l-2.1-2.5,2.5-2.5a1,1,0,0,0,0-1.4h0a1,1,0,0,0-1.4,0l-2.5,2.5-2.5-2.5a1,1,0,0,0-1.4,0h0a1,1,0,0,0,0,1.4Z" transform="translate(-9.41 -4.71)" style="fill:url(#radial-gradient-2)"/><path d="M112.4,118.7l-2.5,2.5a1,1,0,0,0,0,1.4h0a1,1,0,0,0,1.4,0l2.5-2.5,2.5,2.5a1,1,0,0,0,1.4,0h0a1,1,0,0,0,0-1.4l-2.5-2.5,2.5-2.5a1,1,0,0,0,0-1.4h0a1,1,0,0,0-1.4,0l-2.5,2.5-2.1-2.5a1,1,0,0,0-1.4,0h0a1,1,0,0,0,0,1.4Z" transform="translate(-9.41 -4.71)" style="fill:url(#radial-gradient-2)"/><path d="M98.3,118.7l-2.5,2.5a1,1,0,0,0,0,1.4h0a1,1,0,0,0,1.4,0l2.5-2.5,2.5,2.5a1,1,0,0,0,1.4,0h0a1,1,0,0,0,0-1.4l-2.5-2.5,2.5-2.5a1,1,0,0,0,0-1.4h0a1,1,0,0,0-1.4,0l-2.5,2.5-2.5-2.5a1,1,0,0,0-1.4,0h0a1,1,0,0,0,0,1.4Z" transform="translate(-9.41 -4.71)" style="fill:url(#radial-gradient-2)"/><path d="M69.3,118.7l-2.5,2.5a1,1,0,0,0,0,1.4h0a1,1,0,0,0,1.4,0l2.5-2.5,2.5,2.5a1,1,0,0,0,1.4,0h0a1,1,0,0,0,0-1.4l-2.5-2.5,2.5-2.5a1,1,0,0,0,0-1.4h0a1,1,0,0,0-1.4,0l-2.5,2.5-2.1-2.5a1,1,0,0,0-1.4,0h0a1,1,0,0,0,0,1.4Z" transform="translate(-9.41 -4.71)" style="fill:url(#radial-gradient-2)"/><path d="M54.9,118.7l-2.5,2.5a1,1,0,0,0,0,1.4h0a1,1,0,0,0,1.4,0l2.5-2.5,2.5,2.5a1,1,0,0,0,1.4,0h0a1,1,0,0,0,0-1.4l-2.5-2.5,2.5-2.5a1,1,0,0,0,0-1.4h0a1,1,0,0,0-1.4,0l-2.5,2.5-2.1-2.5a1,1,0,0,0-1.4,0h0a1,1,0,0,0,0,1.4Z" transform="translate(-9.41 -4.71)" style="fill:url(#radial-gradient-2)"/><path d="M170.3,131l-2.5,2.5a1,1,0,0,0,0,1.4h0a1,1,0,0,0,1.4,0l2.5-2.5,2.5,2.5a1,1,0,0,0,1.4,0h0a1,1,0,0,0,0-1.4l-2.5-2.5,2.5-2.5a1,1,0,0,0,0-1.4h0a1,1,0,0,0-1.4,0l-2.5,2.2-2.5-2.2a1,1,0,0,0-1.4,0h0a1,1,0,0,0,0,1.4Z" transform="translate(-9.41 -4.71)" style="fill:url(#radial-gradient-2)"/><path d="M155.8,131l-2.5,2.5a1,1,0,0,0,0,1.4h0a1,1,0,0,0,1.4,0l2.5-2.5,2.5,2.5a1,1,0,0,0,1.4,0h0a1,1,0,0,0,0-1.4l-2.5-2.5,2.5-2.5a1,1,0,0,0,0-1.4h0a1,1,0,0,0-1.4,0l-2.5,2.2-2.5-2.5a1,1,0,0,0-1.4,0h0a1,1,0,0,0,0,1.4Z" transform="translate(-9.41 -4.71)" style="fill:url(#radial-gradient-2)"/><path d="M141.3,131l-2.5,2.5a1,1,0,0,0,0,1.4h0a1,1,0,0,0,1.4,0l2.5-2.5,2.5,2.5a1,1,0,0,0,1.4,0h0a1,1,0,0,0,0-1.4l-2.1-2.5,2.5-2.5a1,1,0,0,0,0-1.4h0a1,1,0,0,0-1.4,0l-2.8,2.2-2.5-2.5a1,1,0,0,0-1.4,0h0a1,1,0,0,0,0,1.4Z" transform="translate(-9.41 -4.71)" style="fill:url(#radial-gradient-2)"/><path d="M126.9,131l-2.5,2.5a1,1,0,0,0,0,1.4h0a1,1,0,0,0,1.4,0l2.5-2.5,2.5,2.5a1,1,0,0,0,1.4,0h0a1,1,0,0,0,0-1.4l-2.5-2.5,2.5-2.5a1,1,0,0,0,0-1.4h0a1,1,0,0,0-1.4,0l-2.5,2.2-2.5-2.5a1,1,0,0,0-1.4,0h0a1,1,0,0,0,0,1.4Z" transform="translate(-9.41 -4.71)" style="fill:url(#radial-gradient-2)"/><path d="M112.4,131l-2.5,2.5a1,1,0,0,0,0,1.4h0a1,1,0,0,0,1.4,0l2.5-2.5,2.5,2.5a1,1,0,0,0,1.4,0h0a1,1,0,0,0,0-1.4l-2.5-2.5,2.5-2.5a1,1,0,0,0,0-1.4h0a1,1,0,0,0-1.4,0l-2.1,2.2-2.5-2.5a1,1,0,0,0-1.4,0h0a1,1,0,0,0,0,1.4Z" transform="translate(-9.41 -4.71)" style="fill:url(#radial-gradient-2)"/><path d="M112.4,142.9l-2.5,2.5a1,1,0,0,0,0,1.4h0a1,1,0,0,0,1.4,0l2.5-2.5,2.5,2.5a1,1,0,0,0,1.4,0h0a1,1,0,0,0,0-1.4l-2.5-2.5,2.5-2.5a1,1,0,0,0,0-1.4h0a1,1,0,0,0-1.4,0l-2.5,2.5-2.5-2.5a1,1,0,0,0-1.4,0h0a1,1,0,0,0,0,1.4Z" transform="translate(-9.41 -4.71)" style="fill:url(#radial-gradient-2)"/><path d="M112.4,167.4l-2.5,2.5a1,1,0,0,0,0,1.4h0a1,1,0,0,0,1.4,0l2.5-2.5,2.5,2.5a1,1,0,0,0,1.4,0h0a1,1,0,0,0,0-1.4l-2.5-2.5,2.5-2.5a1,1,0,0,0,0-1.4h0a1,1,0,0,0-1.4,0l-2.5,2.5-2.5-2.5a1,1,0,0,0-1.4,0h0a1,1,0,0,0,0,1.4Z" transform="translate(-9.41 -4.71)" style="fill:url(#radial-gradient-2)"/><path d="M83.8,131l-2.5,2.5a1,1,0,0,0,0,1.4h0a1,1,0,0,0,1.4,0l2.5-2.5,2.5,2.5a1,1,0,0,0,1.4,0h0a1,1,0,0,0,0-1.4L86.6,131l2.5-2.5a1,1,0,0,0,0-1.4h0a1,1,0,0,0-1.4,0l-2.5,2.2-2.5-2.5a1,1,0,0,0-1.4,0h0a1,1,0,0,0,0,1.4Z" transform="translate(-9.41 -4.71)" style="fill:url(#radial-gradient-2)"/><path d="M69.3,131l-2.5,2.2a1,1,0,0,0,0,1.4h0a1,1,0,0,0,1.4,0l2.5-2.5,2.5,2.5a1,1,0,0,0,1.4,0h0a1,1,0,0,0,0-1.4l-2.5-2.5,2.5-2.5a1,1,0,0,0,0-1.4h0a1,1,0,0,0-1.4,0l-2.5,2.5-2.5-2.5a1,1,0,0,0-1.4,0h0a1,1,0,0,0,0,1.4Z" transform="translate(-9.41 -4.71)" style="fill:url(#radial-gradient-2)"/><path d="M40.4,131l-2.5,2.5a1,1,0,0,0,0,1.4h0a1,1,0,0,0,1.4,0l2.5-2.5,2.5,2.5a1,1,0,0,0,1.4,0h0a1,1,0,0,0,0-1.4L43.2,131l2.5-2.5a1,1,0,0,0,0-1.4h0a1,1,0,0,0-1.4,0l-2.1,2.2-2.5-2.5a1,1,0,0,0-1.4,0h0a1,1,0,0,0,0,1.4Z" transform="translate(-9.41 -4.71)" style="fill:url(#radial-gradient-2)"/><path d="M26.3,131l-2.5,2.5a1,1,0,0,0,0,1.4h0a1,1,0,0,0,1.4,0l2.5-2.5,2.5,2.5a1,1,0,0,0,1.4,0h0a1,1,0,0,0,0-1.4L29.1,131l2.5-2.5a1,1,0,0,0,0-1.4h0a1,1,0,0,0-1.4,0l-2.5,2.2-2.5-2.5a1,1,0,0,0-1.4,0h0a1,1,0,0,0,0,1.4Z" transform="translate(-9.41 -4.71)" style="fill:url(#radial-gradient-2)"/><path d="M170.3,142.9l-2.5,2.5a1,1,0,0,0,0,1.4h0a1,1,0,0,0,1.4,0l2.5-2.5,2.5,2.5a1,1,0,0,0,1.4,0h0a1,1,0,0,0,0-1.4l-2.5-2.5,2.5-2.5a1,1,0,0,0,0-1.4h0a1,1,0,0,0-1.4,0l-2.5,2.5-2.5-2.5a1,1,0,0,0-1.4,0h0a1,1,0,0,0,0,1.4Z" transform="translate(-9.41 -4.71)" style="fill:url(#radial-gradient-2)"/><path d="M141.3,142.9l-2.5,2.5a1,1,0,0,0,0,1.4h0a1,1,0,0,0,1.4,0l2.5-2.5,2.5,2.5a1,1,0,0,0,1.4,0h0a1,1,0,0,0,0-1.4l-2.1-2.5,2.5-2.5a1,1,0,0,0,0-1.4h0a1,1,0,0,0-1.4,0l-2.5,2.5-2.5-2.5a1,1,0,0,0-1.4,0h0a1,1,0,0,0,0,1.4Z" transform="translate(-9.41 -4.71)" style="fill:url(#radial-gradient-2)"/><path d="M126.9,142.9l-2.5,2.5a1,1,0,0,0,0,1.4h0a1,1,0,0,0,1.4,0l2.5-2.5,2.5,2.5a1,1,0,0,0,1.4,0h0a1,1,0,0,0,0-1.4l-2.5-2.5,2.5-2.5a1,1,0,0,0,0-1.4h0a1,1,0,0,0-1.4,0l-2.5,2.5-2.5-2.5a1,1,0,0,0-1.4,0h0a1,1,0,0,0,0,1.4Z" transform="translate(-9.41 -4.71)" style="fill:url(#radial-gradient-2)"/><path d="M98.3,142.9l-2.5,2.5a1,1,0,0,0,0,1.4h0a1,1,0,0,0,1.4,0l2.5-2.5,2.5,2.5a1,1,0,0,0,1.4,0h0a1,1,0,0,0,0-1.4l-2.5-2.5,2.5-2.5a1,1,0,0,0,0-1.4h0a1,1,0,0,0-1.4,0l-2.5,2.5L97.2,139a1,1,0,0,0-1.4,0h0a1,1,0,0,0,0,1.4Z" transform="translate(-9.41 -4.71)" style="fill:url(#radial-gradient-2)"/><path d="M83.8,142.9l-2.5,2.5a1,1,0,0,0,0,1.4h0a1,1,0,0,0,1.4,0l2.5-2.5,2.5,2.5a1,1,0,0,0,1.4,0h0a1,1,0,0,0,0-1.4l-2.5-2.5,2.5-2.5a1,1,0,0,0,0-1.4h0a1,1,0,0,0-1.4,0l-2.5,2.5L82.7,139a1,1,0,0,0-1.4,0h0a1,1,0,0,0,0,1.4Z" transform="translate(-9.41 -4.71)" style="fill:url(#radial-gradient-2)"/><path d="M54.9,142.9l-2.5,2.5a1,1,0,0,0,0,1.4h0a1,1,0,0,0,1.4,0l2.5-2.5,2.5,2.5a1,1,0,0,0,1.4,0h0a1,1,0,0,0,0-1.4l-2.5-2.5,2.5-2.5a1,1,0,0,0,0-1.4h0a1,1,0,0,0-1.4,0l-2.5,2.5L53.8,139a1,1,0,0,0-1.4,0h0a1,1,0,0,0,0,1.4Z" transform="translate(-9.41 -4.71)" style="fill:url(#radial-gradient-2)"/><path d="M40.4,142.9l-2.5,2.5a1,1,0,0,0,0,1.4h0a1,1,0,0,0,1.4,0l2.5-2.5,2.5,2.5a1,1,0,0,0,1.4,0h0a1,1,0,0,0,0-1.4l-2.5-2.5,2.5-2.5a1,1,0,0,0,0-1.4h0a1,1,0,0,0-1.4,0l-2.1,2.5L39.7,139a1,1,0,0,0-1.4,0h0a1,1,0,0,0,0,1.4Z" transform="translate(-9.41 -4.71)" style="fill:url(#radial-gradient-2)"/><path d="M155.8,155.2l-2.5,2.5a1,1,0,0,0,0,1.4h0a1,1,0,0,0,1.4,0l2.5-2.5,2.5,2.5a1,1,0,0,0,1.4,0h0a1,1,0,0,0,0-1.4l-2.5-2.5,2.5-2.5a1,1,0,0,0,0-1.4h0a1,1,0,0,0-1.4,0l-2.5,2.5-2.5-2.5a1,1,0,0,0-1.4,0h0a1,1,0,0,0,0,1.4Z" transform="translate(-9.41 -4.71)" style="fill:url(#radial-gradient-2)"/><path d="M141.3,155.2l-2.5,2.5a1,1,0,0,0,0,1.4h0a1,1,0,0,0,1.4,0l2.5-2.5,2.5,2.5a1,1,0,0,0,1.4,0h0a1,1,0,0,0,0-1.4l-2.1-2.5,2.5-2.5a1,1,0,0,0,0-1.4h0a1,1,0,0,0-1.4,0l-2.5,2.5-2.5-2.5a1,1,0,0,0-1.4,0h0a1,1,0,0,0,0,1.4Z" transform="translate(-9.41 -4.71)" style="fill:url(#radial-gradient-2)"/><path d="M141.3,179.7l-2.5,2.5a1,1,0,0,0,0,1.4h0a1,1,0,0,0,1.4,0l2.5-2.5,2.5,2.5a1,1,0,0,0,1.4,0h0a1,1,0,0,0,0-1.4l-2.1-2.5,2.5-2.5a1,1,0,0,0,0-1.4h0a1,1,0,0,0-1.4,0l-2.5,2.5-2.5-2.5a1,1,0,0,0-1.4,0h0a1,1,0,0,0,0,1.4Z" transform="translate(-9.41 -4.71)" style="fill:url(#radial-gradient-2)"/><path d="M98.3,155.2l-2.5,2.5a1,1,0,0,0,0,1.4h0a1,1,0,0,0,1.4,0l2.5-2.5,2.5,2.5a1,1,0,0,0,1.4,0h0a1,1,0,0,0,0-1.4l-2.5-2.5,2.5-2.5a1,1,0,0,0,0-1.4h0a1,1,0,0,0-1.4,0l-2.5,2.5-2.5-2.5a1,1,0,0,0-1.4,0h0a1,1,0,0,0,0,1.4Z" transform="translate(-9.41 -4.71)" style="fill:url(#radial-gradient-2)"/><path d="M98.3,179.7l-2.5,2.5a1,1,0,0,0,0,1.4h0a1,1,0,0,0,1.4,0l2.5-2.5,2.5,2.5a1,1,0,0,0,1.4,0h0a1,1,0,0,0,0-1.4l-2.5-2.5,2.5-2.5a1,1,0,0,0,0-1.4h0a1,1,0,0,0-1.4,0l-2.5,2.5-2.5-2.5a1,1,0,0,0-1.4,0h0a1,1,0,0,0,0,1.4Z" transform="translate(-9.41 -4.71)" style="fill:url(#radial-gradient-2)"/><path d="M98.3,191.6l-2.5,2.5a1,1,0,0,0,0,1.4h0a1,1,0,0,0,1.4,0l2.5-2.5,2.5,2.5a1,1,0,0,0,1.4,0h0a1,1,0,0,0,0-1.4l-2.5-2.5,2.5-2.5a1,1,0,0,0,0-1.4h0a1,1,0,0,0-1.4,0l-2.5,2.5-2.5-2.5a1,1,0,0,0-1.4,0h0a1,1,0,0,0,0,1.4Z" transform="translate(-9.41 -4.71)" style="fill:url(#radial-gradient-2)"/><path d="M83.8,167.4l-2.5,2.5a1,1,0,0,0,0,1.4h0a1,1,0,0,0,1.4,0l2.5-2.5,2.5,2.5a1,1,0,0,0,1.4,0h0a1,1,0,0,0,0-1.4l-2.5-2.5,2.5-2.5a1,1,0,0,0,0-1.4h0a1,1,0,0,0-1.4,0L85.2,166l-2.5-2.5a1,1,0,0,0-1.4,0h0a1,1,0,0,0,0,1.4Z" transform="translate(-9.41 -4.71)" style="fill:url(#radial-gradient-2)"/><path d="M83.8,179.7l-2.5,2.5a1,1,0,0,0,0,1.4h0a1,1,0,0,0,1.4,0l2.5-2.5,2.5,2.5a1,1,0,0,0,1.4,0h0a1,1,0,0,0,0-1.4l-2.5-2.5,2.5-2.5a1,1,0,0,0,0-1.4h0a1,1,0,0,0-1.4,0l-2.5,2.5-2.5-2.5a1,1,0,0,0-1.4,0h0a1,1,0,0,0,0,1.4Z" transform="translate(-9.41 -4.71)" style="fill:url(#radial-gradient-2)"/><path d="M54.9,155.2l-2.5,2.5a1,1,0,0,0,0,1.4h0a1,1,0,0,0,1.4,0l2.5-2.5,2.5,2.5a1,1,0,0,0,1.4,0h0a1,1,0,0,0,0-1.4l-2.5-2.5,2.5-2.5a1,1,0,0,0,0-1.4h0a1,1,0,0,0-1.4,0l-2.5,2.5-2.5-2.5a1,1,0,0,0-1.4,0h0a1,1,0,0,0,0,1.4Z" transform="translate(-9.41 -4.71)" style="fill:url(#radial-gradient-2)"/></svg>